<svg width="97" height="80" viewBox="0 0 97 80" fill="none" xmlns="http://www.w3.org/2000/svg">
<path d="M89.5324 73.94C89.5745 76.3097 70.6634 78.5622 47.2939 78.9781C23.9244 79.394 2.77507 77.8543 2.7329 75.4847C2.69073 73.1151 23.7719 70.8239 47.1414 70.408C70.5109 69.9921 89.4903 71.5747 89.5324 73.94Z" fill="#293B35"/>
<path d="M82.4733 11.4464C81.4829 5.56742 76.1639 1.42017 70.2209 1.89306L36.4365 4.58131C29.7099 5.11655 24.8875 11.3014 26.0085 17.9555L34.5326 68.5536C35.523 74.4326 40.8419 78.5798 46.7849 78.1069L80.5694 75.4187C87.296 74.8835 92.1184 68.6986 90.9974 62.0445L82.4733 11.4464Z" fill="white" stroke="black"/>
<path d="M82.1991 9.59933C81.364 4.76044 76.9789 1.35533 72.0839 1.74482L37.5881 4.48967C32.0163 4.93303 28.0295 10.0673 28.98 15.5753L37.8296 66.8552C38.6646 71.6941 43.0498 75.0992 47.9447 74.7097L82.4406 71.9649C88.0124 71.5215 91.9992 66.3873 91.0486 60.8792L82.1991 9.59933Z" fill="#CBD5CA" stroke="#1D1D1D"/>
<path d="M77.2378 10.3592C76.8806 8.6306 75.2921 7.43847 73.5326 7.57848L37.5621 10.4407C35.4635 10.6077 33.9861 12.5762 34.4121 14.6379L34.9306 17.1471C35.2878 18.8757 36.8762 20.0678 38.6358 19.9278L74.6063 17.0656C76.7049 16.8986 78.1822 14.9301 77.7562 12.8684L77.2378 10.3592Z" fill="white" stroke="#1D1D1D"/>
<path d="M40.3359 18.3111C40.8187 18.2727 41.2448 18.1414 41.6143 17.9173C41.9839 17.6931 42.266 17.4028 42.4609 17.0465C42.6558 16.6901 42.7366 16.3033 42.7034 15.886L42.349 13.7779C42.3158 13.3605 42.1751 12.9944 41.9268 12.6794C41.678 12.3583 41.3535 12.1164 40.9532 11.9535C40.5524 11.7845 40.1106 11.7192 39.6278 11.7576C39.1516 11.7955 38.7322 11.9293 38.3697 12.159C38.0001 12.3832 37.718 12.6734 37.5231 13.0298C37.3277 13.3801 37.2467 13.7639 37.2799 14.1812L37.6343 16.2893C37.6675 16.7067 37.8084 17.0759 38.0572 17.3969C38.3055 17.7119 38.63 17.9539 39.0308 18.1228C39.4246 18.2863 39.8596 18.349 40.3359 18.3111ZM40.2601 17.3586C40.0122 17.3783 39.783 17.3448 39.5726 17.2581C39.3552 17.1658 39.1805 17.0336 39.0486 16.8615C38.9103 16.6899 38.8324 16.4953 38.8151 16.2776L38.4477 14.0061C38.4299 13.7823 38.476 13.5778 38.586 13.3926C38.696 13.2073 38.8478 13.0522 39.0414 12.9272C39.2349 12.8023 39.4557 12.7299 39.7036 12.7102C39.9515 12.6905 40.1874 12.7265 40.4114 12.8182C40.6283 12.9044 40.806 13.0333 40.9444 13.2049C41.0828 13.3765 41.1607 13.5711 41.178 13.7889L41.5454 16.0603C41.5627 16.278 41.5166 16.4826 41.4071 16.6739C41.2976 16.8652 41.1427 17.0236 40.9426 17.149C40.742 17.2685 40.5145 17.3383 40.2601 17.3586Z" fill="#1D1D1D"/>
<path d="M85.3903 60.4532C85.1003 58.6481 83.4689 57.353 81.6535 57.4975L46.6172 60.2853C44.5849 60.4471 43.1185 62.3336 43.4433 64.3552C43.7333 66.1602 45.3646 67.4553 47.1801 67.3108L82.2164 64.523C84.2487 64.3613 85.7151 62.4747 85.3903 60.4532Z" fill="#F0E7D5" stroke="#1D1D1D"/>
<path d="M79.0951 24.0597C78.7245 22.3466 77.1439 21.1717 75.3966 21.3108L74.1704 21.4083C72.0587 21.5764 70.5792 23.567 71.0271 25.6374L71.2884 26.8451C71.659 28.5582 73.2396 29.733 74.9869 29.594L76.2131 29.4964C78.3248 29.3284 79.8043 27.3378 79.3564 25.2674L79.0951 24.0597Z" fill="white" stroke="#1D1D1D"/>
<path d="M67.9291 24.9481C67.5585 23.235 65.9779 22.0602 64.2306 22.1992L63.0044 22.2968C60.8927 22.4648 59.4132 24.4554 59.8611 26.5258L60.1224 27.7335C60.493 29.4466 62.0736 30.6215 63.8209 30.4824L65.0471 30.3848C67.1588 30.2168 68.6383 28.2262 68.1904 26.1558L67.9291 24.9481Z" fill="white" stroke="#1D1D1D"/>
<path d="M56.7631 25.8367C56.3925 24.1235 54.8118 22.9487 53.0646 23.0877L51.8383 23.1853C49.7267 23.3533 48.2472 25.3439 48.6951 27.4144L48.9564 28.6221C49.327 30.3352 50.9076 31.51 52.6548 31.371L53.8811 31.2734C55.9928 31.1054 57.4723 29.1148 57.0244 27.0444L56.7631 25.8367Z" fill="white" stroke="#1D1D1D"/>
<path d="M45.5975 26.7251C45.2269 25.012 43.6463 23.8372 41.899 23.9762L40.6728 24.0738C38.5611 24.2418 37.0816 26.2324 37.5295 28.3028L37.7908 29.5105C38.1614 31.2236 39.7421 32.3984 41.4893 32.2594L42.7156 32.1618C44.8272 31.9938 46.3067 30.0032 45.8588 27.9328L45.5975 26.7251Z" fill="white" stroke="#1D1D1D"/>
<path d="M81.3499 35.778C80.9793 34.0649 79.3986 32.8901 77.6514 33.0291L76.4251 33.1267C74.3135 33.2947 72.834 35.2853 73.2819 37.3557L73.5432 38.5634C73.9138 40.2765 75.4944 41.4514 77.2416 41.3123L78.4679 41.2148C80.5796 41.0467 82.0591 39.0561 81.6112 36.9857L81.3499 35.778Z" fill="white" stroke="#1D1D1D"/>
<path d="M70.1834 36.6665C69.8128 34.9533 68.2322 33.7785 66.485 33.9176L65.2587 34.0151C63.147 34.1832 61.6675 36.1738 62.1154 38.2442L62.3767 39.4519C62.7473 41.165 64.328 42.3398 66.0752 42.2008L67.3015 42.1032C69.4131 41.9352 70.8926 39.9446 70.4447 37.8742L70.1834 36.6665Z" fill="white" stroke="#1D1D1D"/>
<path d="M59.0179 37.5549C58.6473 35.8418 57.0666 34.667 55.3194 34.806L54.0931 34.9036C51.9815 35.0716 50.502 37.0622 50.9499 39.1326L51.2111 40.3403C51.5818 42.0534 53.1624 43.2282 54.9096 43.0892L56.1359 42.9916C58.2475 42.8236 59.7271 40.833 59.2791 38.7626L59.0179 37.5549Z" fill="white" stroke="#1D1D1D"/>
<path d="M83.6042 47.4964C83.2336 45.7833 81.653 44.6084 79.9057 44.7475L78.6795 44.845C76.5678 45.0131 75.0883 47.0037 75.5362 49.0741L75.7975 50.2818C76.1681 51.9949 77.7488 53.1697 79.496 53.0307L80.7223 52.9331C82.8339 52.7651 84.3134 50.7745 83.8655 48.7041L83.6042 47.4964Z" fill="white" stroke="#1D1D1D"/>
<path d="M72.4382 48.3848C72.0676 46.6717 70.4869 45.4969 68.7397 45.6359L67.5134 45.7335C65.4018 45.9015 63.9223 47.8921 64.3702 49.9625L64.6315 51.1702C65.0021 52.8833 66.5827 54.0582 68.33 53.9191L69.5562 53.8215C71.6679 53.6535 73.1474 51.6629 72.6995 49.5925L72.4382 48.3848Z" fill="white" stroke="#1D1D1D"/>
<path d="M61.2722 49.2732C60.9016 47.5601 59.3209 46.3853 57.5737 46.5243L56.3474 46.6219C54.2358 46.7899 52.7563 48.7805 53.2042 50.8509L53.4655 52.0587C53.8361 53.7718 55.4167 54.9466 57.164 54.8076L58.3902 54.71C60.5019 54.542 61.9814 52.5514 61.5335 50.4809L61.2722 49.2732Z" fill="white" stroke="#1D1D1D"/>
<path d="M47.8156 38.4913C47.4637 36.7567 45.8722 35.5577 44.1078 35.6981L42.8683 35.7968C40.7747 35.9633 39.2982 37.9233 39.7158 39.9815L42.3361 52.8992C42.688 54.6339 44.2795 55.8328 46.0439 55.6924L47.2835 55.5938C49.377 55.4272 50.8535 53.4672 50.436 51.409L47.8156 38.4913Z" fill="white" stroke="#1D1D1D"/>
</svg>
