<svg width="100" height="80" viewBox="0 0 100 80" fill="none" xmlns="http://www.w3.org/2000/svg">
<path d="M89.8547 67.9245C89.9493 72.0355 70.4511 75.8091 46.3051 76.3651C22.1592 76.921 0.265813 74.1003 0.171161 69.9894C0.0765089 65.8784 21.8168 62.0531 45.9628 61.4972C70.1088 60.9412 89.7602 63.8209 89.8547 67.9245Z" fill="#293B35"/>
<path d="M73.5238 1.89306L39.7394 4.58131C33.0128 5.11655 28.1904 11.3014 29.3114 17.9555L37.8354 68.5536C38.8258 74.4326 44.1448 78.5798 50.0878 78.1069L83.8722 75.4187C90.5989 74.8835 95.4212 68.6986 94.3003 62.0445L85.7762 11.4464C84.7858 5.56742 79.4668 1.42017 73.5238 1.89306Z" fill="white" stroke="black"/>
<path d="M75.3868 1.74482L40.891 4.48967C35.3192 4.93303 31.3324 10.0673 32.2829 15.5753L41.1325 66.8552C41.9675 71.6941 46.3527 75.0992 51.2476 74.7097L85.7434 71.9649C91.3153 71.5215 95.3021 66.3872 94.3515 60.8792L85.502 9.59933C84.6669 4.76044 80.2818 1.35533 75.3868 1.74482Z" fill="#CBD5CA" stroke="#1D1D1D"/>
<path d="M76.8354 7.57848L40.8649 10.4407C38.7663 10.6077 37.289 12.5762 37.715 14.6379L38.2334 17.1471C38.5906 18.8757 40.1791 20.0678 41.9386 19.9278L77.9091 17.0656C80.0077 16.8986 81.4851 14.9301 81.0591 12.8684L80.5406 10.3592C80.1834 8.6306 78.595 7.43847 76.8354 7.57848Z" fill="white" stroke="#1D1D1D"/>
<path d="M43.6389 18.3111C44.1217 18.2727 44.5478 18.1414 44.9174 17.9172C45.2869 17.6931 45.5691 17.4028 45.7639 17.0465C45.9588 16.6901 46.0396 16.3033 46.0064 15.886L45.652 13.7778C45.6188 13.3605 45.4781 12.9944 45.2298 12.6794C44.981 12.3583 44.6565 12.1163 44.2562 11.9534C43.8554 11.7845 43.4136 11.7192 42.9308 11.7576C42.4546 11.7955 42.0352 11.9293 41.6727 12.159C41.3032 12.3832 41.021 12.6734 40.8261 13.0298C40.6308 13.3801 40.5497 13.7639 40.5829 14.1812L40.9373 16.2893C40.9705 16.7067 41.1115 17.0758 41.3602 17.3969C41.6085 17.7119 41.9331 17.9539 42.3339 18.1228C42.7276 18.2862 43.1627 18.349 43.6389 18.3111ZM43.5631 17.3585C43.3152 17.3783 43.086 17.3448 42.8756 17.258C42.6582 17.1658 42.4835 17.0336 42.3517 16.8615C42.2133 16.6899 42.1354 16.4953 42.1181 16.2775L41.7507 14.0061C41.7329 13.7823 41.779 13.5778 41.889 13.3926C41.999 13.2073 42.1508 13.0522 42.3444 12.9272C42.538 12.8023 42.7587 12.7299 43.0066 12.7102C43.2545 12.6905 43.4905 12.7265 43.7144 12.8182C43.9314 12.9044 44.109 13.0333 44.2474 13.2049C44.3858 13.3765 44.4637 13.5711 44.481 13.7889L44.8484 16.0603C44.8657 16.278 44.8196 16.4825 44.7101 16.6738C44.6006 16.8652 44.4458 17.0235 44.2457 17.149C44.0451 17.2685 43.8176 17.3383 43.5631 17.3585Z" fill="#1D1D1D"/>
<path d="M84.9562 57.4975L49.9199 60.2853C47.8876 60.447 46.4212 62.3336 46.746 64.3551C47.036 66.1602 48.6673 67.4553 50.4828 67.3108L85.519 64.523C87.5514 64.3612 89.0178 62.4747 88.693 60.4531C88.403 58.6481 86.7716 57.353 84.9562 57.4975Z" fill="#F0E7D5" stroke="#1D1D1D"/>
<path d="M78.6994 21.3108L77.4731 21.4084C75.3615 21.5764 73.882 23.567 74.3299 25.6374L74.5912 26.8451C74.9618 28.5582 76.5424 29.7331 78.2897 29.594L79.5159 29.4965C81.6276 29.3284 83.1071 27.3378 82.6592 25.2674L82.3979 24.0597C82.0273 22.3466 80.4466 21.1718 78.6994 21.3108Z" fill="white" stroke="#1D1D1D"/>
<path d="M67.5334 22.1992L66.3071 22.2968C64.1955 22.4648 62.716 24.4554 63.1639 26.5258L63.4252 27.7335C63.7958 29.4467 65.3764 30.6215 67.1236 30.4825L68.3499 30.3849C70.4616 30.2169 71.9411 28.2263 71.4932 26.1558L71.2319 24.9481C70.8613 23.235 69.2806 22.0602 67.5334 22.1992Z" fill="white" stroke="#1D1D1D"/>
<path d="M56.3674 23.0878L55.1411 23.1854C53.0295 23.3534 51.55 25.344 51.9979 27.4144L52.2591 28.6221C52.6298 30.3352 54.2104 31.51 55.9576 31.371L57.1839 31.2734C59.2955 31.1054 60.7751 29.1148 60.3272 27.0444L60.0659 25.8367C59.6953 24.1236 58.1146 22.9488 56.3674 23.0878Z" fill="white" stroke="#1D1D1D"/>
<path d="M45.2019 23.9762L43.9756 24.0738C41.864 24.2418 40.3844 26.2324 40.8323 28.3028L41.0936 29.5105C41.4642 31.2236 43.0449 32.3985 44.7921 32.2594L46.0184 32.1619C48.13 31.9938 49.6095 30.0032 49.1616 27.9328L48.9004 26.7251C48.5297 25.012 46.9491 23.8372 45.2019 23.9762Z" fill="white" stroke="#1D1D1D"/>
<path d="M80.9543 33.0291L79.728 33.1266C77.6164 33.2947 76.1369 35.2853 76.5848 37.3557L76.8461 38.5634C77.2167 40.2765 78.7973 41.4513 80.5445 41.3123L81.7708 41.2147C83.8825 41.0467 85.362 39.0561 84.9141 36.9857L84.6528 35.778C84.2822 34.0649 82.7015 32.89 80.9543 33.0291Z" fill="white" stroke="#1D1D1D"/>
<path d="M69.7878 33.9175L68.5615 34.0151C66.4499 34.1831 64.9704 36.1737 65.4183 38.2441L65.6796 39.4518C66.0502 41.1649 67.6308 42.3397 69.378 42.2007L70.6043 42.1031C72.716 41.9351 74.1955 39.9445 73.7476 37.8741L73.4863 36.6664C73.1157 34.9533 71.535 33.7785 69.7878 33.9175Z" fill="white" stroke="#1D1D1D"/>
<path d="M58.6223 34.806L57.396 34.9036C55.2844 35.0716 53.8048 37.0622 54.2528 39.1327L54.514 40.3404C54.8846 42.0535 56.4653 43.2283 58.2125 43.0893L59.4388 42.9917C61.5504 42.8237 63.0299 40.8331 62.582 38.7627L62.3208 37.5549C61.9501 35.8418 60.3695 34.667 58.6223 34.806Z" fill="white" stroke="#1D1D1D"/>
<path d="M83.2087 44.7474L81.9824 44.845C79.8708 45.013 78.3913 47.0036 78.8392 49.0741L79.1005 50.2818C79.4711 51.9949 81.0517 53.1697 82.7989 53.0307L84.0252 52.9331C86.1369 52.7651 87.6164 50.7745 87.1685 48.7041L86.9072 47.4964C86.5366 45.7832 84.9559 44.6084 83.2087 44.7474Z" fill="white" stroke="#1D1D1D"/>
<path d="M72.0427 45.6359L70.8164 45.7335C68.7048 45.9015 67.2253 47.8921 67.6732 49.9625L67.9344 51.1702C68.3051 52.8833 69.8857 54.0581 71.6329 53.9191L72.8592 53.8215C74.9708 53.6535 76.4504 51.6629 76.0024 49.5925L75.7412 48.3848C75.3706 46.6717 73.7899 45.4968 72.0427 45.6359Z" fill="white" stroke="#1D1D1D"/>
<path d="M60.8767 46.5243L59.6504 46.6219C57.5388 46.7899 56.0592 48.7805 56.5072 50.8509L56.7684 52.0586C57.139 53.7717 58.7197 54.9466 60.4669 54.8075L61.6932 54.71C63.8048 54.5419 65.2843 52.5513 64.8364 50.4809L64.5752 49.2732C64.2045 47.5601 62.6239 46.3853 60.8767 46.5243Z" fill="white" stroke="#1D1D1D"/>
<path d="M47.4109 35.6981L46.1713 35.7968C44.0778 35.9634 42.6013 37.9233 43.0188 39.9816L45.6392 52.8993C45.991 54.6339 47.5825 55.8328 49.3469 55.6924L50.5865 55.5938C52.68 55.4272 54.1565 53.4672 53.739 51.409L51.1186 38.4913C50.7667 36.7567 49.1752 35.5577 47.4109 35.6981Z" fill="white" stroke="#1D1D1D"/>
</svg>
