<svg width="66" height="64" viewBox="0 0 66 64" fill="none" xmlns="http://www.w3.org/2000/svg">
<g style="mix-blend-mode:multiply">
<path d="M52.2562 57.8566C52.2562 58.9353 41.0447 59.8073 27.215 59.8073C13.3853 59.8073 0.889648 58.9353 0.889648 57.8566C0.889648 56.7779 13.3853 55.906 27.215 55.906C41.0447 55.906 52.2562 56.7799 52.2562 57.8566Z" fill="#90B3A8"/>
</g>
<path d="M45.7347 3.98854C49.7014 3.6729 53.2516 6.44102 53.9126 10.365L60.4185 48.9832C61.1667 53.4245 57.948 57.5526 53.4582 57.9099L27.0457 60.0115C23.079 60.3271 19.5288 57.559 18.8678 53.6351L12.362 15.0169C11.6137 10.5756 14.8325 6.44744 19.3222 6.09019L45.7347 3.98854Z" fill="white" stroke="#1D1D1D" stroke-width="0.25351"/>
<path d="M46.9435 3.89198C50.2284 3.63059 53.1712 5.91571 53.7317 9.16304L60.429 47.972C61.0669 51.6683 58.3914 55.1139 54.6523 55.4114L28.0298 57.5298C24.7448 57.7911 21.802 55.506 21.2416 52.2587L14.5442 13.4498C13.9063 9.75342 16.5818 6.30787 20.321 6.01034L46.9435 3.89198Z" fill="#A5D6BF" stroke="#1D1D1D" stroke-width="0.25351"/>
<path d="M47.57 8.17066C48.8138 8.07169 49.9366 8.91438 50.1891 10.1363L50.6916 12.5681C50.9927 14.0254 49.9484 15.4169 48.4649 15.535L21.6919 17.6653C20.4481 17.7643 19.3252 16.9216 19.0728 15.6997L18.5703 13.2679C18.2692 11.8105 19.3135 10.419 20.7969 10.301L47.57 8.17066Z" fill="white" stroke="#1D1D1D" stroke-width="0.25351"/>
<path d="M23.1823 16.2139C23.5333 16.186 23.8432 16.0905 24.1119 15.9275C24.3806 15.7645 24.5858 15.5535 24.7274 15.2944C24.8691 15.0352 24.9279 14.754 24.9038 14.4505L24.6461 12.9177C24.6219 12.6142 24.5196 12.348 24.3391 12.1189C24.1582 11.8855 23.9222 11.7096 23.6311 11.5911C23.3397 11.4682 23.0185 11.4208 22.6674 11.4487C22.3211 11.4763 22.0162 11.5736 21.7526 11.7406C21.4839 11.9036 21.2787 12.1146 21.1371 12.3737C20.995 12.6284 20.9361 12.9075 20.9602 13.2109L21.2179 14.7438C21.242 15.0473 21.3445 15.3157 21.5254 15.5491C21.706 15.7782 21.9419 15.9541 22.2334 16.077C22.5197 16.1958 22.836 16.2415 23.1823 16.2139ZM23.1272 15.5213C22.9469 15.5356 22.7803 15.5112 22.6273 15.4482C22.4692 15.3811 22.3422 15.285 22.2463 15.1599C22.1457 15.0351 22.0891 14.8936 22.0765 14.7352L21.8094 13.0836C21.7964 12.9209 21.8299 12.7722 21.9099 12.6375C21.9899 12.5028 22.1003 12.39 22.241 12.2992C22.3818 12.2083 22.5423 12.1557 22.7225 12.1414C22.9028 12.127 23.0744 12.1532 23.2372 12.2199C23.395 12.2826 23.5241 12.3763 23.6248 12.5011C23.7254 12.6258 23.782 12.7674 23.7946 12.9257L24.0617 14.5773C24.0743 14.7356 24.0408 14.8843 23.9612 15.0234C23.8815 15.1625 23.769 15.2777 23.6235 15.3689C23.4776 15.4558 23.3122 15.5065 23.1272 15.5213Z" fill="#1D1D1D"/>
<path d="M53.4896 44.4571C54.7753 44.3548 55.924 45.2575 56.1286 46.531L56.232 47.175C56.4611 48.6009 55.4252 49.9192 53.9855 50.0337L27.8946 52.1098C26.6088 52.2121 25.4602 51.3095 25.2556 50.036L25.1521 49.3919C24.923 47.966 25.959 46.6478 27.3987 46.5332L53.4896 44.4571ZM48.9252 18.1461C50.1603 18.0478 51.2776 18.8783 51.5396 20.0893L51.8609 21.5742C52.1775 23.0377 51.1317 24.4449 49.639 24.5636L48.1284 24.6838C46.8934 24.7821 45.776 23.9516 45.5141 22.7407L45.1928 21.2557C44.8762 19.7922 45.922 18.3851 47.4147 18.2663L48.9252 18.1461ZM40.8061 18.7922C42.0412 18.6939 43.1586 19.5243 43.4205 20.7353L43.7418 22.2202C44.0584 23.6838 43.0126 25.0909 41.5199 25.2097L40.0094 25.3299C38.7743 25.4281 37.6569 24.5977 37.395 23.3867L37.0737 21.9018C36.7571 20.4382 37.8029 19.0311 39.2956 18.9124L40.8061 18.7922ZM32.6871 19.4382C33.9221 19.3399 35.0395 20.1704 35.3014 21.3813L35.6227 22.8663C35.9393 24.3298 34.8935 25.7369 33.4008 25.8557L31.8903 25.9759C30.6552 26.0742 29.5379 25.2437 29.2759 24.0328L28.9546 22.5478C28.638 21.0843 29.6839 19.6772 31.1765 19.5584L32.6871 19.4382ZM24.5683 20.0842C25.8034 19.9859 26.9207 20.8164 27.1827 22.0274L27.5039 23.5123C27.8205 24.9758 26.7747 26.383 25.282 26.5017L23.7715 26.6219C22.5364 26.7202 21.4191 25.8897 21.1571 24.6788L20.8359 23.1938C20.5192 21.7303 21.5651 20.3232 23.0577 20.2044L24.5683 20.0842ZM50.5644 26.6668C51.7995 26.5685 52.9168 27.399 53.1788 28.6099L53.5001 30.0949C53.8167 31.5584 52.7708 32.9655 51.2782 33.0843L49.7676 33.2045C48.5326 33.3028 47.4152 32.4723 47.1533 31.2613L46.832 29.7764C46.5154 28.3129 47.5612 26.9058 49.0539 26.787L50.5644 26.6668ZM42.4453 27.3128C43.6804 27.2146 44.7977 28.045 45.0597 29.256L45.381 30.7409C45.6976 32.2045 44.6518 33.6116 43.1591 33.7303L41.6485 33.8505C40.4135 33.9488 39.2961 33.1184 39.0342 31.9074L38.7129 30.4224C38.3963 28.9589 39.4421 27.5518 40.9348 27.433L42.4453 27.3128ZM34.3266 27.9588C35.5616 27.8606 36.679 28.691 36.9409 29.902L37.2622 31.3869C37.5788 32.8505 36.533 34.2576 35.0403 34.3764L33.5298 34.4966C32.2947 34.5948 31.1774 33.7644 30.9154 32.5534L30.5941 31.0685C30.2775 29.6049 31.3234 28.1978 32.816 28.079L34.3266 27.9588ZM52.2036 35.1875C53.4387 35.0892 54.556 35.9196 54.818 37.1306L55.1393 38.6155C55.4559 40.0791 54.41 41.4862 52.9174 41.605L51.4068 41.7252C50.1718 41.8234 49.0544 40.993 48.7924 39.782L48.4712 38.2971C48.1546 36.8335 49.2004 35.4264 50.6931 35.3076L52.2036 35.1875ZM44.0848 35.8335C45.3199 35.7352 46.4373 36.5656 46.6992 37.7766L47.0205 39.2616C47.3371 40.7251 46.2913 42.1322 44.7986 42.251L43.2881 42.3712C42.053 42.4695 40.9357 41.639 40.6737 40.428L40.3524 38.9431C40.0358 37.4796 41.0816 36.0724 42.5743 35.9537L44.0848 35.8335ZM35.9658 36.4795C37.2008 36.3812 38.3182 37.2117 38.5801 38.4227L38.9014 39.9076C39.218 41.3711 38.1722 42.7783 36.6795 42.897L35.169 43.0172C33.9339 43.1155 32.8166 42.285 32.5546 41.0741L32.2333 39.5891C31.9167 38.1256 32.9626 36.7185 34.4552 36.5997L35.9658 36.4795ZM26.1777 28.6073C27.4249 28.508 28.5499 29.3555 28.7987 30.5817L30.8272 40.5819C31.1223 42.0368 30.0786 43.4222 28.5988 43.54L27.0796 43.6609C25.8324 43.7601 24.7074 42.9126 24.4587 41.6864L22.4301 31.6863C22.135 30.2313 23.1787 28.8459 24.6585 28.7281L26.1777 28.6073Z" fill="white" stroke="#1D1D1D" stroke-width="0.25351"/>
</svg>
