<svg width="102" height="80" viewBox="0 0 102 80" fill="none" xmlns="http://www.w3.org/2000/svg">
<path d="M90.3977 67.9245C90.4923 72.0355 70.9941 75.8091 46.8481 76.3651C22.7021 76.921 0.808782 74.1003 0.71413 69.9894C0.619478 65.8784 22.3598 62.0531 46.5058 61.4972C70.6518 60.9412 90.3032 63.8209 90.3977 67.9245Z" fill="#293B35"/>
<path d="M77.7403 6.04216L23.2823 8.39926C16.3749 8.69824 11.2908 14.9811 12.4394 21.7989L20.0359 66.8912C21.008 72.6611 26.1575 76.7813 32.0002 76.4638L86.4522 73.5045C93.3148 73.1315 98.3202 66.8621 97.1644 60.0873L89.5737 15.5973C88.5993 9.88613 83.5285 5.79163 77.7403 6.04216Z" fill="#CBD5CA" stroke="#1D1D1D"/>
<path d="M78.9195 4.32302L25.0227 6.65912C18.1148 6.95854 13.0311 13.2423 14.1807 20.0604L21.6815 64.5444C22.6543 70.3137 27.8038 74.433 33.646 74.1153L87.5369 71.1842C94.4 70.8109 99.4052 64.5405 98.2483 57.7654L90.7534 13.8764C89.7782 8.16579 84.7074 4.07215 78.9195 4.32302Z" fill="#CBD5CA" stroke="#1D1D1D"/>
<path d="M80.4202 4.21161L25.0031 6.52904C19.2758 6.76854 15.0636 11.9875 16.0384 17.6363L23.9824 63.669C24.8013 68.4143 29.0413 71.7964 33.8499 71.5399L89.2616 68.5849C94.9505 68.2815 99.0951 63.0738 98.1137 57.4619L90.1751 12.0668C89.3541 7.37223 85.1818 4.01249 80.4202 4.21161Z" fill="white" stroke="#1D1D1D"/>
<path d="M80.4198 4.21169L25.0028 6.52912C19.2755 6.76862 15.0632 11.9876 16.0381 17.6364L16.9996 23.2084L91.448 19.3475L90.1748 12.0669C89.3538 7.37231 85.1815 4.01257 80.4198 4.21169Z" fill="#CBD5CA" stroke="#1D1D1D"/>
<path d="M50.8868 34.9091L48.3177 35.0267L46.9715 27.5579L49.5924 27.4379C50.3451 27.4034 51.0186 27.5233 51.613 27.7976C52.2094 28.0693 52.7033 28.4769 53.0949 29.0203C53.4864 29.5637 53.7521 30.2232 53.8919 30.9988C54.0321 31.7768 54.0058 32.4521 53.8129 33.0248C53.6225 33.5973 53.2791 34.0457 52.7827 34.3699C52.2887 34.6941 51.6567 34.8738 50.8868 34.9091ZM49.4801 33.7932L50.6091 33.7415C51.1372 33.7173 51.5607 33.6023 51.8794 33.3965C52.1977 33.1882 52.4115 32.8904 52.5208 32.503C52.6297 32.1131 52.6326 31.6325 52.5297 31.0612C52.4267 30.4899 52.2524 30.0198 52.0068 29.6511C51.7607 29.28 51.4468 29.0088 51.0651 28.8375C50.6855 28.6637 50.239 28.5886 49.7256 28.6121L48.5559 28.6657L49.4801 33.7932Z" fill="#1D1D1D"/>
<path d="M56.2882 34.6616L54.942 27.1928L59.8727 26.9669L60.0771 28.1011L56.5197 28.2641L56.8852 30.2917L60.1872 30.1405L60.3916 31.2747L57.0896 31.4259L57.4571 33.4645L61.0441 33.3002L61.2485 34.4344L56.2882 34.6616Z" fill="#1D1D1D"/>
<path d="M68.6342 29.1064L67.2498 29.1698C67.17 28.9479 67.0614 28.7531 66.9242 28.5854C66.7865 28.4152 66.6278 28.2729 66.4479 28.1586C66.2681 28.0443 66.0715 27.9613 65.8582 27.9098C65.6469 27.8558 65.4252 27.8341 65.1933 27.8447C64.7811 27.8636 64.4343 27.9824 64.1528 28.2012C63.8708 28.4176 63.675 28.7256 63.5654 29.1253C63.4553 29.5226 63.4509 30.002 63.5522 30.5636C63.6552 31.135 63.832 31.6122 64.0827 31.9954C64.3354 32.3761 64.6377 32.6588 64.9895 32.8437C65.3434 33.0261 65.7251 33.1078 66.1348 33.0891C66.3618 33.0787 66.5688 33.0398 66.7557 32.9724C66.9447 32.9024 67.1076 32.8055 67.2445 32.6816C67.3839 32.5575 67.4925 32.4079 67.5704 32.2328C67.6508 32.0575 67.6923 31.8595 67.6948 31.6387L69.0805 31.5826C69.0927 31.94 69.0404 32.2782 68.9238 32.5973C68.8096 32.9163 68.6358 33.2013 68.4023 33.4522C68.1684 33.7007 67.8784 33.9003 67.5324 34.0509C67.1859 34.1992 66.7868 34.2837 66.3352 34.3043C65.6689 34.3349 65.0467 34.2102 64.4688 33.9302C63.8908 33.6503 63.3996 33.2303 62.9951 32.6703C62.5906 32.1103 62.316 31.4292 62.1714 30.6269C62.0264 29.8221 62.0541 29.1271 62.2547 28.5419C62.4548 27.9542 62.7891 27.4964 63.2575 27.1685C63.7259 26.8407 64.2908 26.6616 64.9522 26.6313C65.3742 26.612 65.7771 26.6523 66.1609 26.7524C66.5447 26.8525 66.8989 27.0091 67.2234 27.2222C67.5475 27.4329 67.8303 27.6969 68.0716 28.0143C68.315 28.3292 68.5025 28.6932 68.6342 29.1064Z" fill="#1D1D1D"/>
<path d="M56.7651 60.2898C59.8654 60.1235 61.5807 58.3093 61.0851 55.677C60.5725 52.955 58.1576 51.5436 54.6622 51.731L52.9905 51.8207L52.6413 49.9661L54.0698 49.8895C57.6564 49.6971 59.0756 47.7779 58.6532 45.5345C58.2138 43.2013 56.0342 41.8981 53.5418 42.0318C50.7759 42.1801 49.2677 43.953 49.3592 46.3955L46.8218 46.2899C46.7437 42.9403 48.9734 40.4337 53.2286 40.2055C57.2103 39.992 60.4673 41.9625 61.1151 45.4024C61.6221 48.0946 60.1251 49.9273 57.7893 50.5662L57.8006 50.626C60.3245 50.823 62.9387 52.3144 63.5639 55.6347C64.2793 59.4336 61.552 61.9064 57.1448 62.1428C52.7376 62.3791 49.2475 60.1491 48.1325 56.6738L50.4222 56.2791C51.2939 58.9517 53.8777 60.4447 56.7651 60.2898Z" fill="#1D1D1D"/>
<path d="M73.3934 60.9087L70.5037 45.5636L64.7591 45.8717L64.4099 44.0171L66.4463 43.9079C69.1514 43.7628 70.5574 43.5666 70.0561 40.9044L69.8195 39.648L71.7648 39.5437L75.7641 60.7816L73.3934 60.9087Z" fill="#1D1D1D"/>
<circle cx="40.3834" cy="14.5997" r="3.04358" fill="#1D1D1D"/>
<circle cx="69.9493" cy="12.8608" r="3.04358" fill="#1D1D1D"/>
<path d="M38.0048 1.62122C42.1761 1.62122 45.5355 4.9134 45.5355 8.94755C45.5355 12.4515 43.0023 15.3948 39.6023 16.1088L39.1053 14.7038C41.8822 14.2 43.9995 11.8234 43.9995 8.94755C43.9995 5.70193 41.3034 3.09269 38.0048 3.09269C35.8082 3.09269 33.8828 4.24767 32.8386 5.97608H31.1192C32.289 3.41495 34.9279 1.62122 38.0048 1.62122Z" fill="#FAE3C3" stroke="#1D1D1D"/>
<path d="M67.1478 0.751587C71.0697 0.751587 74.2323 3.86684 74.2323 7.68922C74.2323 11.0004 71.8598 13.7804 68.6752 14.4653L68.2229 13.1784C70.8449 12.6853 72.8372 10.4219 72.8372 7.68922C72.8372 4.59338 70.2807 2.10031 67.1478 2.10031C65.0673 2.10031 63.2443 3.1981 62.252 4.8405H60.6861C61.7948 2.43295 64.2681 0.751587 67.1478 0.751587Z" fill="#FAE3C3" stroke="#1D1D1D"/>
</svg>
