<svg width="80" height="80" viewBox="0 0 80 80" fill="none" xmlns="http://www.w3.org/2000/svg">
<g style="mix-blend-mode:multiply">
<path d="M66.9907 67.3653C66.9907 68.9023 54.1646 70.1447 38.3432 70.1447C22.5218 70.1447 8.22656 68.9023 8.22656 67.3653C8.22656 65.8283 22.5218 64.5859 38.3432 64.5859C54.1646 64.5859 66.9907 65.8311 66.9907 67.3653Z" fill="#90B3A8"/>
</g>
<path d="M15.6202 32.3603L15.6288 32.528C15.792 35.7571 15.9926 39.1827 16.2964 42.6009C17.6588 55.6131 20.8998 64.9268 26.6806 69.0728H68.7189C61.5863 63.9573 58.3202 50.9746 57.6786 32.8844C57.2669 21.2785 54.4739 14.9672 50.0383 12.8279H8.00002C12.3684 14.9347 15.1439 21.0882 15.6202 32.3603Z" fill="white" stroke="#1D1D1D" stroke-width="0.3"/>
<path d="M17.5341 30.4543L17.5427 30.622C17.7059 33.8511 17.9065 37.2767 18.2103 40.6949C19.5727 53.7071 22.8137 63.0208 28.5945 67.1667H70.6328C63.5002 62.0513 60.2341 49.0686 59.5925 30.9784C59.1808 19.3725 56.3878 13.0611 51.9522 10.9219H9.91393C14.2823 13.0287 17.0578 19.1822 17.5341 30.4543Z" fill="white" stroke="#1D1D1D" stroke-width="0.3"/>
<path d="M52.3692 25.2148L51.6606 20.0094H46.4271L47.1356 25.2148H52.3692Z" fill="#FCF1D4" stroke="#1D1D1D" stroke-width="0.3"/>
<path d="M43.834 22.5859H26.3484" stroke="#1D1D1D" stroke-width="0.3" stroke-linecap="round"/>
<path d="M44.582 36.7422H27.0965" stroke="#1D1D1D" stroke-width="0.3" stroke-linecap="round"/>
<path d="M46.5801 51.1484H29.0945" stroke="#1D1D1D" stroke-width="0.3" stroke-linecap="round"/>
<path d="M50.0836 21.7006L49.0335 23.2502L45.6572 20.9877" stroke="#41826E" stroke-width="0.3" stroke-linecap="round"/>
<path d="M53.3653 39.3789L52.6568 34.1734H47.4232L48.1318 39.3789H53.3653Z" fill="#FCF1D4" stroke="#1D1D1D" stroke-width="0.3"/>
<path d="M51.0816 35.8412L50.0315 37.3908L46.6552 35.1283" stroke="#41826E" stroke-width="0.3" stroke-linecap="round"/>
<path d="M55.1153 53.5273L54.4068 48.3219H49.1732L49.8818 53.5273H55.1153Z" fill="#FCF1D4" stroke="#1D1D1D" stroke-width="0.3"/>
<path d="M52.8277 49.9975L51.7776 51.5471L48.4013 49.2846" stroke="#41826E" stroke-width="0.3" stroke-linecap="round"/>
<path d="M19.454 28.5325L19.4626 28.7002C19.6259 31.9292 19.8265 35.3548 20.1302 38.773C21.4926 51.7852 24.7337 61.0989 30.5144 65.2449H72.5527C65.4201 60.1294 62.154 47.1467 61.5124 29.0565C61.1007 17.4507 58.3077 11.1393 53.8721 9H11.8338C16.2022 11.1069 18.9777 17.2603 19.454 28.5325Z" fill="white" stroke="#1D1D1D" stroke-width="0.3"/>
<path d="M29.457 46.4102L30.1655 51.6156H35.3991L34.6905 46.4102H29.457Z" fill="#FCF1D4" stroke="#1D1D1D" stroke-width="0.3"/>
<path d="M39.9062 49.0391H57.3918" stroke="#1D1D1D" stroke-width="0.3" stroke-linecap="round"/>
<path d="M36.5957 34.8828H54.0813" stroke="#1D1D1D" stroke-width="0.3" stroke-linecap="round"/>
<path d="M34.5996 20.4766H52.0852" stroke="#1D1D1D" stroke-width="0.3" stroke-linecap="round"/>
<path d="M26.539 32.2461L27.2475 37.4516H32.4811L31.7725 32.2461H26.539Z" fill="#FCF1D4" stroke="#1D1D1D" stroke-width="0.3"/>
<path d="M28.7985 34.245L30.1284 35.5623L33.0036 32.6898" stroke="#41826E" stroke-linecap="round"/>
<path d="M24.789 18.0977L25.4975 23.3031H30.7311L30.0225 18.0977H24.789Z" fill="#FCF1D4" stroke="#1D1D1D" stroke-width="0.3"/>
<path d="M31.738 48.4872L33.0678 49.8045L35.9431 46.932" stroke="#41826E" stroke-linecap="round"/>
<path d="M27.0407 20.1747L28.3706 21.492L31.2458 18.6195" stroke="#41826E" stroke-linecap="round"/>
</svg>
