<svg width="104" height="64" viewBox="0 0 104 64" fill="none" xmlns="http://www.w3.org/2000/svg">
<g style="mix-blend-mode:multiply">
<path d="M56.8871 54.765C56.8871 55.9137 44.4939 56.8423 29.2065 56.8423C13.9192 56.8423 0.106445 55.9137 0.106445 54.765C0.106445 53.6162 13.9192 52.6876 29.2065 52.6876C44.4939 52.6876 56.8871 53.6183 56.8871 54.765Z" fill="#90B3A8"/>
</g>
<path d="M86.3113 7.43126C89.7464 7.37066 92.723 9.79966 93.3525 13.1771L99.6702 47.0734C100.463 51.3281 97.2635 55.2833 92.9371 55.3964L27.0202 57.1198C23.44 57.2134 20.3607 54.6028 19.8672 51.0555L15.0699 16.572C14.4882 12.3906 17.6939 8.6418 21.9149 8.56734L86.3113 7.43126Z" fill="#A5D6BF" stroke="#1D1D1D" stroke-width="0.3"/>
<path d="M88.2874 6.7008C90.5744 6.64338 92.562 8.26114 92.9702 10.5121L99.5232 46.6518C100.028 49.4378 97.9425 52.023 95.1126 52.118L27.2364 54.3968C24.868 54.4763 22.8202 52.7588 22.4862 50.4128L17.2538 13.6653C16.8624 10.9165 18.9562 8.44141 21.7318 8.37172L88.2874 6.7008Z" fill="#F5FCFA" stroke="#1D1D1D" stroke-width="0.3"/>
<path d="M65.2933 45.1267C68.6956 43.4893 74.9355 39.9916 72.6769 39.1003C69.8536 37.9863 67.1334 45.0341 72.0404 44.7874C75.9659 44.5899 77.854 42.1908 79.2274 40.9696C76.1477 42.9051 75.6146 45.5894 83.0337 43.2916C89.0886 41.4162 90.2839 40.7278 91.1882 40.3681" stroke="#1D1D1D" stroke-width="0.3"/>
<path d="M29.8085 28.4231C34.3241 27.2847 42.6441 23.6112 39.7381 24.1673C35.8278 24.9155 32.2091 28.38 38.6108 28.265C43.7322 28.173 52.2611 24.9654 48.1686 25.6012C44.0572 26.9589 43.2222 28.8901 53.0024 27.3266C60.9842 26.0506 62.5765 25.5689 63.7727 25.3209" stroke="#1D1D1D" stroke-width="0.3"/>
<path d="M71.43 28.621L25.2813 29.8141" stroke="#1D1D1D" stroke-width="0.3"/>
<path d="M55.2942 46.9673L28.9363 47.6487" stroke="#1D1D1D" stroke-width="0.3"/>
<path d="M44.3044 43.8729L28.9542 44.2697" stroke="#1D1D1D" stroke-width="0.3"/>
<path d="M93.8938 45.8013L63.8341 46.5785" stroke="#1D1D1D" stroke-width="0.3"/>
<path d="M88.0883 12.3089L64.469 12.9195" stroke="#1D1D1D" stroke-width="0.3"/>
<path d="M47.4887 13.7603L23.8694 14.3709" stroke="#1D1D1D" stroke-width="0.3"/>
<path d="M48.2113 17.3842L24.5921 17.9948" stroke="#1D1D1D" stroke-width="0.3"/>
<path d="M49.6606 21.008L26.0413 21.6186" stroke="#1D1D1D" stroke-width="0.3"/>
<path d="M26.2804 35.451L90.7462 33.7844C91.6011 33.7623 92.1948 32.925 91.9328 32.111L91.5984 31.0719" stroke="#1D1D1D" stroke-width="0.3"/>
<path d="M74.936 28.2638L74.2977 23.8025C74.2435 23.4236 74.5273 23.0804 74.9096 23.0626L89.2272 22.3963C89.5478 22.3814 89.8311 22.6031 89.8936 22.9178L90.8095 27.5256C90.8874 27.9176 90.5958 28.2861 90.1964 28.3003L75.6012 28.8202C75.2699 28.832 74.983 28.592 74.936 28.2638Z" fill="#C5ECE0" stroke="#1D1D1D" stroke-width="0.3"/>
</svg>
