<svg width="140" height="27" viewBox="0 0 140 27" fill="none" xmlns="http://www.w3.org/2000/svg">
<g clip-path="url(#clip0_211_1911)">
<path d="M28.4398 14.2185C28.4403 12.0366 27.9386 9.88375 26.9737 7.92673C26.0088 5.96971 24.6065 4.26096 22.8754 2.93275C21.1442 1.60454 19.1307 0.692477 16.9906 0.267165C14.8505 -0.158147 12.6412 -0.0853035 10.5337 0.480056C8.42627 1.04542 6.47718 2.08813 4.83729 3.52749C3.19741 4.96685 1.91072 6.76426 1.07682 8.78059C0.242917 10.7969 -0.115835 12.9781 0.0283304 15.1553C0.172496 17.3325 0.815713 19.4473 1.9082 21.3361H26.5206C27.7791 19.1753 28.4414 16.7191 28.4398 14.2185Z" fill="#12C97A"/>
<path d="M38.2902 5.53076H41.428V11.92H48.3351V5.53076H51.4701V21.3168H48.3351V14.8971H41.428V21.3362H38.2902V5.53076ZM64.1184 16.8164H56.242C56.4884 18.3728 57.9037 18.8686 59.1305 18.8686C59.7332 18.8884 60.3316 18.7611 60.874 18.4976C61.4164 18.2341 61.8865 17.8424 62.2434 17.3564L64.1184 19.2065C63.5201 19.9583 62.7574 20.563 61.8889 20.974C61.0203 21.385 60.0691 21.5913 59.1084 21.5771C56.0841 21.5771 53.1041 19.6579 53.1041 15.6643C53.1041 11.715 56.0149 9.66006 58.9201 9.66006C61.6895 9.66006 64.2042 11.5572 64.2042 15.3707C64.2033 15.8539 64.1747 16.3365 64.1184 16.8164ZM58.8148 12.2551C58.1808 12.2252 57.5597 12.4408 57.0806 12.8571C56.6014 13.2733 56.3011 13.8581 56.242 14.49H61.2963C61.1606 13.0444 60.1691 12.2551 58.8148 12.2551ZM88.3264 11.4879V5.53076H91.3728V21.3168H88.3264V19.9182C87.898 20.4574 87.3491 20.8887 86.7239 21.1772C86.0986 21.4658 85.4143 21.6037 84.7261 21.5799C81.8375 21.5799 78.9711 19.572 78.9711 15.5978C78.9711 11.6236 81.7683 9.66283 84.5904 9.66283C86.2604 9.66006 87.5925 10.3137 88.3264 11.4879ZM88.3015 15.62C88.3015 13.1274 86.6564 12.2329 85.1443 12.2329C83.3829 12.2329 82.0508 13.4293 82.0508 15.5951C82.0508 17.6943 83.3386 19.0043 85.1886 19.0043C86.8696 19.0043 88.2904 17.8993 88.2904 15.62H88.3015ZM105.94 16.905L108.172 9.95362H111.59L107.361 21.3362H104.45L101.958 14.6894L99.4985 21.3362H96.5961L92.4197 9.95362H95.804L98.0362 16.8773L100.476 9.95362H103.453L105.94 16.905ZM137.003 20.9014C137.003 24.6236 134.067 26.6093 131.043 26.6093C128.47 26.6093 126.099 25.1885 125.354 22.48L128.11 21.4857C128.492 23.225 129.772 23.9921 131.156 23.9921C132.757 23.9921 133.976 23.045 133.976 21.1257V19.464C133.629 19.997 133.154 20.4349 132.595 20.7381C132.036 21.0414 131.41 21.2003 130.774 21.2005C128.404 21.2005 126.146 19.669 126.146 16.5754V9.9287H129.215V16.1573C129.215 17.6029 129.96 18.5972 131.431 18.5972C132.987 18.5972 133.923 17.4008 133.923 15.5037V9.95362H136.994L137.003 20.9014ZM74.4624 9.95362V11.3384C73.7617 10.189 72.5431 9.67667 71.0753 9.67667C68.1646 9.67667 65.1846 11.7316 65.1846 15.7031C65.1846 19.4945 67.9375 21.5937 70.7817 21.5937C71.4784 21.6085 72.1697 21.469 72.8061 21.185C73.4424 20.9011 74.0081 20.4798 74.4624 19.9514V21.3362H77.5088V9.95362H74.4624ZM71.211 18.935C69.6075 18.935 68.231 17.6722 68.231 15.6117C68.231 13.5124 69.6518 12.2468 71.2775 12.2468C72.9032 12.2468 74.371 13.5346 74.371 15.5701C74.371 17.65 72.8588 18.935 71.211 18.935ZM120.693 9.95362V11.3384C119.993 10.189 118.771 9.67667 117.306 9.67667C114.396 9.67667 111.416 11.7316 111.416 15.7031C111.416 19.4945 114.168 21.5937 117.013 21.5937C117.709 21.6085 118.401 21.469 119.037 21.185C119.673 20.9011 120.239 20.4798 120.693 19.9514V21.3362H123.74V9.95362H120.693ZM117.442 18.935C115.838 18.935 114.462 17.6722 114.462 15.6117C114.462 13.5124 115.883 12.2468 117.508 12.2468C119.134 12.2468 120.602 13.5346 120.602 15.5701C120.602 17.65 119.09 18.935 117.442 18.935Z" fill="#4D4C4D"/>
</g>
<defs>
<clipPath id="clip0_211_1911">
<rect width="140" height="26.6092" fill="white"/>
</clipPath>
</defs>
</svg>
