<svg width="85" height="81" viewBox="0 0 85 81" fill="none" xmlns="http://www.w3.org/2000/svg">
<path d="M62.5423 68.8511C62.6082 73.0182 49.0367 76.8433 32.2302 77.4069C15.4236 77.9704 0.185016 75.1112 0.119135 70.9442C0.0532531 66.7771 15.1854 62.8996 31.9919 62.3361C48.7984 61.7726 62.4766 64.6916 62.5423 68.8511Z" fill="#293B35"/>
<path d="M77.6672 62.2902C77.6672 56.6276 64.9393 52.0372 49.2386 52.0372C33.538 52.0372 20.8101 56.6276 20.8101 62.2902V69.7468C20.8101 75.4094 33.538 79.9998 49.2386 79.9998C64.9393 79.9998 77.6672 75.4094 77.6672 69.7468V62.2902Z" fill="#FAE3C3" stroke="#1D1D1D" stroke-linecap="round" stroke-linejoin="round"/>
<ellipse cx="49.2386" cy="62.2902" rx="28.4286" ry="10.2529" fill="white" stroke="#1D1D1D" stroke-linecap="round" stroke-linejoin="round"/>
<g style="mix-blend-mode:multiply">
<path d="M77.6672 58.4686C77.6672 53.3723 64.9393 49.241 49.2386 49.241C33.538 49.241 20.8101 53.3723 20.8101 58.4686V65.1796C20.8101 70.2759 33.538 74.4073 49.2386 74.4073C64.9393 74.4073 77.6672 70.2759 77.6672 65.1796V58.4686Z" fill="#FAE3C3"/>
</g>
<path d="M71.1428 54.8337C71.1428 49.1712 58.4149 44.5808 42.7142 44.5808C27.0136 44.5808 14.2856 49.1712 14.2856 54.8337V62.2904C14.2856 67.953 27.0136 72.5434 42.7142 72.5434C58.4149 72.5434 71.1428 67.953 71.1428 62.2904V54.8337Z" fill="#FAE3C3" stroke="#1D1D1D" stroke-linecap="round" stroke-linejoin="round"/>
<ellipse cx="42.7142" cy="54.8337" rx="28.4286" ry="10.2529" fill="white" stroke="#1D1D1D" stroke-linecap="round" stroke-linejoin="round"/>
<g style="mix-blend-mode:multiply">
<path d="M71.1428 51.0122C71.1428 45.9159 58.4149 41.7845 42.7142 41.7845C27.0136 41.7845 14.2856 45.9159 14.2856 51.0122V57.7232C14.2856 62.8195 27.0136 66.9508 42.7142 66.9508C58.4149 66.9508 71.1428 62.8195 71.1428 57.7232V51.0122Z" fill="#FAE3C3"/>
</g>
<path d="M71.1428 47.3768C71.1428 41.7143 58.4149 37.1239 42.7142 37.1239C27.0136 37.1239 14.2856 41.7143 14.2856 47.3768V54.8335C14.2856 60.4961 27.0136 65.0864 42.7142 65.0864C58.4149 65.0864 71.1428 60.4961 71.1428 54.8335V47.3768Z" fill="#FAE3C3" stroke="#1D1D1D" stroke-linecap="round" stroke-linejoin="round"/>
<ellipse cx="42.7142" cy="47.3768" rx="28.4286" ry="10.2529" fill="white" stroke="#1D1D1D" stroke-linecap="round" stroke-linejoin="round"/>
<g style="mix-blend-mode:multiply">
<path d="M71.1428 43.5553C71.1428 38.459 58.4149 34.3276 42.7142 34.3276C27.0136 34.3276 14.2856 38.459 14.2856 43.5553V50.2663C14.2856 55.3626 27.0136 59.4939 42.7142 59.4939C58.4149 59.4939 71.1428 55.3626 71.1428 50.2663V43.5553Z" fill="#FAE3C3"/>
</g>
<path d="M71.1428 39.92C71.1428 34.2575 58.4149 29.6671 42.7142 29.6671C27.0136 29.6671 14.2856 34.2575 14.2856 39.92V47.3767C14.2856 53.0393 27.0136 57.6297 42.7142 57.6297C58.4149 57.6297 71.1428 53.0393 71.1428 47.3767V39.92Z" fill="#FAE3C3" stroke="#1D1D1D" stroke-linecap="round" stroke-linejoin="round"/>
<g style="mix-blend-mode:multiply">
<path d="M71.1428 37.2793C71.1428 32.5606 58.4149 28.7352 42.7142 28.7352C27.0136 28.7352 14.2856 32.5606 14.2856 37.2793V43.4932C14.2856 48.212 27.0136 52.0374 42.7142 52.0374C58.4149 52.0374 71.1428 48.212 71.1428 43.4932V37.2793Z" fill="#FAE3C3"/>
</g>
<ellipse cx="42.7142" cy="39.92" rx="28.4286" ry="10.2529" fill="white" stroke="#1D1D1D" stroke-linecap="round" stroke-linejoin="round"/>
<path d="M77.6672 32.4636C77.6672 26.8011 64.9393 22.2107 49.2386 22.2107C33.538 22.2107 20.8101 26.8011 20.8101 32.4636V39.9203C20.8101 45.5828 33.538 50.1732 49.2386 50.1732C64.9393 50.1732 77.6672 45.5828 77.6672 39.9203V32.4636Z" fill="#FAE3C3" stroke="#1D1D1D" stroke-linecap="round" stroke-linejoin="round"/>
<g style="mix-blend-mode:multiply">
<path d="M71.1426 33.1161C71.1426 29.1524 59.8753 25.9391 45.9763 25.9391C32.0774 25.9391 20.8101 29.1524 20.8101 33.1161V38.3358C20.8101 42.2996 32.0774 45.5129 45.9763 45.5129C59.8753 45.5129 71.1426 42.2996 71.1426 38.3358V33.1161Z" fill="#FAE3C3"/>
</g>
<ellipse cx="49.2386" cy="32.4636" rx="28.4286" ry="10.2529" fill="white" stroke="#1D1D1D" stroke-linecap="round" stroke-linejoin="round"/>
<path d="M71.1428 25.0068C71.1428 19.3443 58.4149 14.7539 42.7142 14.7539C27.0136 14.7539 14.2856 19.3443 14.2856 25.0068V32.4635C14.2856 38.1261 27.0136 42.7165 42.7142 42.7165C58.4149 42.7165 71.1428 38.1261 71.1428 32.4635V25.0068Z" fill="#FAE3C3" stroke="#1D1D1D" stroke-linecap="round" stroke-linejoin="round"/>
<ellipse cx="42.7142" cy="25.0068" rx="28.4286" ry="10.2529" fill="white" stroke="#1D1D1D" stroke-linecap="round" stroke-linejoin="round"/>
<path d="M68.1333 8.80214L66.9897 10.0513C66.6614 10.4099 66.5513 10.9174 66.7015 11.3798L67.2121 12.9521C67.4193 13.5901 66.6417 14.0857 66.1509 13.6285L64.9412 12.5019C64.5854 12.1705 64.0788 12.0561 63.6151 12.2023L62 12.7115C61.3659 12.9114 60.8762 12.1431 61.3251 11.6527L62.4686 10.4036C62.7969 10.0449 62.907 9.53745 62.7569 9.07501L62.2463 7.50273C62.0391 6.86475 62.8166 6.36915 63.3075 6.82631L64.5172 7.95296C64.873 8.28434 65.3795 8.39878 65.8432 8.25258L67.4584 7.74332C68.0925 7.54339 68.5822 8.31175 68.1333 8.80214Z" fill="#FAE3C3" stroke="#1D1D1D" stroke-width="0.7"/>
<path d="M68.0226 8.70086L66.8791 9.95C66.5143 10.3485 66.392 10.9123 66.5588 11.4262L67.0694 12.9984C67.2288 13.4892 66.6307 13.8704 66.2531 13.5188L65.0434 12.3921C64.6481 12.0239 64.0853 11.8968 63.57 12.0592L61.9549 12.5685C61.4671 12.7223 61.0904 12.1312 61.4357 11.754L62.5793 10.5048C62.9441 10.1064 63.0664 9.5425 62.8995 9.02868L62.3889 7.4564C62.2296 6.96565 62.8277 6.58441 63.2052 6.93607L64.415 8.06273C64.8103 8.43093 65.3731 8.55809 65.8883 8.39563L67.5035 7.88638C67.9912 7.73259 68.368 8.32363 68.0226 8.70086Z" fill="#FAE3C3" stroke="#1D1D1D"/>
<path d="M77.7388 58.6277L74.5223 58.538C73.9823 58.5229 73.4759 58.7994 73.1965 59.2618L71.5417 62.0014C71.2749 62.443 70.5952 62.2403 70.614 61.7246L70.7307 58.5262C70.7504 57.9863 70.4783 57.4775 70.0183 57.1942L67.2784 55.507C66.8429 55.2388 67.0433 54.5671 67.5545 54.5814L70.771 54.6712C71.311 54.6862 71.8175 54.4097 72.0968 53.9473L73.7516 51.2077C74.0184 50.7661 74.6981 50.9688 74.6793 51.4845L74.5626 54.6829C74.5429 55.2228 74.815 55.7316 75.275 56.0149L78.015 57.7022C78.4504 57.9703 78.2501 58.642 77.7388 58.6277Z" fill="#FAE3C3" stroke="#1D1D1D"/>
<path d="M31.5361 13.1055L27.5876 15.0579C27.1033 15.2974 26.7852 15.7788 26.7548 16.3181L26.507 20.7169C26.4779 21.2321 25.7824 21.371 25.5577 20.9066L23.6388 16.9406C23.4035 16.4543 22.9249 16.1321 22.3858 16.0971L17.9902 15.8116C17.4798 15.7785 17.3425 15.0912 17.801 14.8645L21.7495 12.9121C22.2337 12.6726 22.5518 12.1912 22.5822 11.6518L22.8301 7.25306C22.8591 6.73789 23.5546 6.59894 23.7794 7.06341L25.6983 11.0293C25.9336 11.5157 26.4122 11.8379 26.9513 11.8729L31.3469 12.1584C31.8572 12.1915 31.9945 12.8788 31.5361 13.1055Z" fill="#FAE3C3" stroke="#1D1D1D"/>
</svg>
