<svg width="72" height="64" viewBox="0 0 72 64" fill="none" xmlns="http://www.w3.org/2000/svg">
<g style="mix-blend-mode:multiply">
<path d="M70.895 54.5203C70.895 56.8065 55.4211 58.6544 36.3337 58.6544C17.2463 58.6544 0 56.8065 0 54.5203C0 52.2342 17.2463 50.3862 36.3337 50.3862C55.4211 50.3862 70.895 52.2383 70.895 54.5203Z" fill="#90B3A8"/>
</g>
<mask id="path-2-inside-1_405_27690" fill="white">
<path fill-rule="evenodd" clip-rule="evenodd" d="M71.4462 46.4362C71.4783 46.3682 71.4945 46.2996 71.4945 46.2306C71.4945 44.4105 60.1868 42.9351 46.238 42.9351C32.2892 42.9351 20.9814 44.4105 20.9814 46.2306C20.9814 46.2996 20.9977 46.3682 21.0298 46.4362C20.9985 46.5218 20.9814 46.6143 20.9814 46.7107V53.6245C20.9814 53.7683 21.0194 53.9033 21.0859 54.02C21.0168 54.1193 20.9814 54.22 20.9814 54.3217C20.9814 56.1418 32.2892 57.6173 46.238 57.6173C60.1868 57.6173 71.4945 56.1418 71.4945 54.3217C71.4945 54.22 71.4592 54.1193 71.3901 54.02C71.4566 53.9033 71.4945 53.7683 71.4945 53.6245V46.7107C71.4945 46.6143 71.4775 46.5218 71.4462 46.4362Z"/>
</mask>
<path fill-rule="evenodd" clip-rule="evenodd" d="M71.4462 46.4362C71.4783 46.3682 71.4945 46.2996 71.4945 46.2306C71.4945 44.4105 60.1868 42.9351 46.238 42.9351C32.2892 42.9351 20.9814 44.4105 20.9814 46.2306C20.9814 46.2996 20.9977 46.3682 21.0298 46.4362C20.9985 46.5218 20.9814 46.6143 20.9814 46.7107V53.6245C20.9814 53.7683 21.0194 53.9033 21.0859 54.02C21.0168 54.1193 20.9814 54.22 20.9814 54.3217C20.9814 56.1418 32.2892 57.6173 46.238 57.6173C60.1868 57.6173 71.4945 56.1418 71.4945 54.3217C71.4945 54.22 71.4592 54.1193 71.3901 54.02C71.4566 53.9033 71.4945 53.7683 71.4945 53.6245V46.7107C71.4945 46.6143 71.4775 46.5218 71.4462 46.4362Z" fill="#A5D6BF"/>
<path d="M71.4462 46.4362L71.1749 46.3082L71.1214 46.4215L71.1644 46.5392L71.4462 46.4362ZM21.0298 46.4362L21.3116 46.5391L21.3546 46.4215L21.3011 46.3082L21.0298 46.4362ZM21.0859 54.02L21.3322 54.1913L21.4403 54.0359L21.3465 53.8714L21.0859 54.02ZM71.3901 54.02L71.1294 53.8714L71.0357 54.0359L71.1438 54.1913L71.3901 54.02ZM71.7175 46.5642C71.7665 46.4604 71.7945 46.3483 71.7945 46.2306H71.1945C71.1945 46.251 71.19 46.276 71.1749 46.3082L71.7175 46.5642ZM71.7945 46.2306C71.7945 45.8386 71.4954 45.5384 71.1427 45.3135C70.7729 45.0777 70.247 44.8613 69.5982 44.6612C68.2961 44.2595 66.4272 43.9018 64.1359 43.6028C59.5489 43.0043 53.2212 42.6351 46.238 42.6351V43.2351C53.2036 43.2351 59.5042 43.6035 64.0582 44.1978C66.3374 44.4952 68.1673 44.8476 69.4213 45.2345C70.0505 45.4286 70.517 45.6261 70.8201 45.8194C71.1403 46.0235 71.1945 46.1676 71.1945 46.2306H71.7945ZM46.238 42.6351C39.2548 42.6351 32.9271 43.0043 28.3401 43.6028C26.0488 43.9018 24.1799 44.2595 22.8778 44.6612C22.2289 44.8613 21.7031 45.0777 21.3333 45.3135C20.9806 45.5384 20.6814 45.8386 20.6814 46.2306H21.2814C21.2814 46.1676 21.3357 46.0235 21.6559 45.8194C21.959 45.6261 22.4255 45.4286 23.0547 45.2345C24.3087 44.8476 26.1385 44.4952 28.4177 44.1978C32.9718 43.6035 39.2724 43.2351 46.238 43.2351V42.6351ZM20.6814 46.2306C20.6814 46.3483 20.7095 46.4604 20.7585 46.5642L21.3011 46.3082C21.2859 46.276 21.2814 46.2509 21.2814 46.2306H20.6814ZM21.2814 46.7107C21.2814 46.6499 21.2922 46.5923 21.3116 46.5391L20.748 46.3332C20.7049 46.4514 20.6814 46.5787 20.6814 46.7107H21.2814ZM21.2814 53.6245V46.7107H20.6814V53.6245H21.2814ZM21.3465 53.8714C21.3052 53.7989 21.2814 53.7149 21.2814 53.6245H20.6814C20.6814 53.8218 20.7337 54.0078 20.8252 54.1685L21.3465 53.8714ZM20.8396 53.8487C20.7431 53.9873 20.6814 54.1466 20.6814 54.3217H21.2814C21.2814 54.2934 21.2904 54.2514 21.3322 54.1913L20.8396 53.8487ZM20.6814 54.3217C20.6814 54.7137 20.9806 55.0139 21.3333 55.2388C21.7031 55.4746 22.2289 55.691 22.8778 55.8912C24.1799 56.2928 26.0488 56.6505 28.3401 56.9495C32.9271 57.548 39.2548 57.9173 46.238 57.9173V57.3173C39.2724 57.3173 32.9718 56.9488 28.4177 56.3545C26.1385 56.0571 24.3087 55.7047 23.0547 55.3178C22.4255 55.1237 21.959 54.9262 21.6559 54.7329C21.3357 54.5288 21.2814 54.3848 21.2814 54.3217H20.6814ZM46.238 57.9173C53.2212 57.9173 59.5489 57.548 64.1359 56.9495C66.4272 56.6505 68.2961 56.2928 69.5982 55.8912C70.247 55.691 70.7729 55.4746 71.1427 55.2388C71.4954 55.0139 71.7945 54.7137 71.7945 54.3217H71.1945C71.1945 54.3848 71.1403 54.5288 70.8201 54.7329C70.517 54.9262 70.0505 55.1237 69.4213 55.3178C68.1673 55.7047 66.3374 56.0571 64.0582 56.3545C59.5042 56.9488 53.2036 57.3173 46.238 57.3173V57.9173ZM71.7945 54.3217C71.7945 54.1466 71.7328 53.9873 71.6363 53.8486L71.1438 54.1913C71.1856 54.2514 71.1945 54.2934 71.1945 54.3217H71.7945ZM71.1945 53.6245C71.1945 53.7149 71.1708 53.7988 71.1294 53.8714L71.6507 54.1685C71.7423 54.0078 71.7945 53.8218 71.7945 53.6245H71.1945ZM71.1945 46.7107V53.6245H71.7945V46.7107H71.1945ZM71.1644 46.5392C71.1838 46.5923 71.1945 46.6499 71.1945 46.7107H71.7945C71.7945 46.5787 71.7711 46.4514 71.728 46.3332L71.1644 46.5392Z" fill="#1D1D1D" mask="url(#path-2-inside-1_405_27690)"/>
<path d="M71.3445 46.1768C71.3445 46.3127 71.2323 46.4889 70.9026 46.6926C70.5827 46.8902 70.1011 47.0862 69.4668 47.2758C68.2005 47.6542 66.3606 47.997 64.0782 48.2855C59.5157 48.8622 53.2081 49.2194 46.238 49.2194C39.2678 49.2194 32.9603 48.8622 28.3977 48.2855C26.1154 47.997 24.2755 47.6542 23.0092 47.2758C22.3749 47.0862 21.8933 46.8902 21.5734 46.6926C21.2437 46.4889 21.1314 46.3127 21.1314 46.1768C21.1314 46.0409 21.2437 45.8646 21.5734 45.661C21.8933 45.4633 22.3749 45.2673 23.0092 45.0778C24.2755 44.6993 26.1154 44.3566 28.3977 44.0681C32.9603 43.4913 39.2678 43.1341 46.238 43.1341C53.2081 43.1341 59.5157 43.4913 64.0782 44.0681C66.3606 44.3566 68.2005 44.6993 69.4668 45.0778C70.1011 45.2673 70.5827 45.4633 70.9026 45.661C71.2323 45.8646 71.3445 46.0409 71.3445 46.1768Z" fill="#A5D6BF" stroke="#1D1D1D" stroke-width="0.3"/>
<mask id="path-5-inside-2_405_27690" fill="white">
<path fill-rule="evenodd" clip-rule="evenodd" d="M66.4484 38.4422C66.4791 38.3723 66.4946 38.3017 66.4946 38.2306C66.4946 36.4105 56.3061 34.9351 43.738 34.9351C31.1699 34.9351 20.9814 36.4105 20.9814 38.2306C20.9814 38.3017 20.997 38.3723 21.0276 38.4422C20.9977 38.5262 20.9814 38.6166 20.9814 38.7107V45.6245C20.9814 45.7648 21.0176 45.8967 21.081 46.0113C21.0151 46.1135 20.9814 46.217 20.9814 46.3217C20.9814 48.1418 31.1699 49.6173 43.738 49.6173C56.3061 49.6173 66.4946 48.1418 66.4946 46.3217C66.4946 46.217 66.4609 46.1135 66.395 46.0113C66.4585 45.8967 66.4946 45.7648 66.4946 45.6245V38.7107C66.4946 38.6166 66.4783 38.5262 66.4484 38.4422Z"/>
</mask>
<path fill-rule="evenodd" clip-rule="evenodd" d="M66.4484 38.4422C66.4791 38.3723 66.4946 38.3017 66.4946 38.2306C66.4946 36.4105 56.3061 34.9351 43.738 34.9351C31.1699 34.9351 20.9814 36.4105 20.9814 38.2306C20.9814 38.3017 20.997 38.3723 21.0276 38.4422C20.9977 38.5262 20.9814 38.6166 20.9814 38.7107V45.6245C20.9814 45.7648 21.0176 45.8967 21.081 46.0113C21.0151 46.1135 20.9814 46.217 20.9814 46.3217C20.9814 48.1418 31.1699 49.6173 43.738 49.6173C56.3061 49.6173 66.4946 48.1418 66.4946 46.3217C66.4946 46.217 66.4609 46.1135 66.395 46.0113C66.4585 45.8967 66.4946 45.7648 66.4946 45.6245V38.7107C66.4946 38.6166 66.4783 38.5262 66.4484 38.4422Z" fill="#A5D6BF"/>
<path d="M66.4484 38.4422L66.1736 38.322L66.1259 38.4309L66.1658 38.5429L66.4484 38.4422ZM21.0276 38.4422L21.3102 38.5429L21.3501 38.4309L21.3024 38.322L21.0276 38.4422ZM21.081 46.0113L21.3332 46.174L21.4305 46.0231L21.3435 45.866L21.081 46.0113ZM66.395 46.0113L66.1325 45.866L66.0456 46.0231L66.1429 46.174L66.395 46.0113ZM66.7233 38.5625C66.769 38.4581 66.7946 38.3467 66.7946 38.2306H66.1946C66.1946 38.2567 66.1891 38.2865 66.1736 38.322L66.7233 38.5625ZM66.7946 38.2306C66.7946 37.8533 66.5326 37.553 66.2056 37.3216C65.8684 37.0829 65.3903 36.8649 64.8035 36.664C63.6259 36.2608 61.9382 35.9026 59.8724 35.6034C55.736 35.0044 50.0318 34.6351 43.738 34.6351V35.2351C50.0123 35.2351 55.6864 35.6035 59.7864 36.1972C61.8386 36.4944 63.4836 36.8463 64.6091 37.2317C65.1738 37.425 65.5899 37.6209 65.859 37.8113C66.1382 38.0089 66.1946 38.1528 66.1946 38.2306H66.7946ZM43.738 34.6351C37.4442 34.6351 31.74 35.0044 27.6037 35.6034C25.5378 35.9026 23.8502 36.2608 22.6726 36.664C22.0857 36.8649 21.6077 37.0829 21.2705 37.3216C20.9434 37.553 20.6814 37.8533 20.6814 38.2306H21.2814C21.2814 38.1528 21.3379 38.0089 21.6171 37.8113C21.8862 37.6209 22.3023 37.425 22.8669 37.2317C23.9925 36.8463 25.6374 36.4944 27.6897 36.1972C31.7896 35.6035 37.4637 35.2351 43.738 35.2351V34.6351ZM20.6814 38.2306C20.6814 38.3467 20.7071 38.4581 20.7528 38.5625L21.3024 38.322C21.2869 38.2865 21.2814 38.2567 21.2814 38.2306H20.6814ZM21.2814 38.7107C21.2814 38.6513 21.2917 38.595 21.3102 38.5429L20.745 38.3416C20.7038 38.4574 20.6814 38.5818 20.6814 38.7107H21.2814ZM21.2814 45.6245V38.7107H20.6814V45.6245H21.2814ZM21.3435 45.866C21.304 45.7947 21.2814 45.7127 21.2814 45.6245H20.6814C20.6814 45.8169 20.7311 45.9986 20.8186 46.1566L21.3435 45.866ZM20.8289 45.8487C20.7377 45.9902 20.6814 46.1493 20.6814 46.3217H21.2814C21.2814 46.2848 21.2926 46.2368 21.3332 46.174L20.8289 45.8487ZM20.6814 46.3217C20.6814 46.699 20.9434 46.9993 21.2705 47.2308C21.6077 47.4694 22.0857 47.6874 22.6726 47.8883C23.8502 48.2915 25.5378 48.6497 27.6037 48.9489C31.74 49.5479 37.4442 49.9173 43.738 49.9173V49.3173C37.4637 49.3173 31.7896 48.9489 27.6897 48.3551C25.6374 48.0579 23.9925 47.706 22.8669 47.3207C22.3023 47.1273 21.8862 46.9314 21.6171 46.741C21.3379 46.5434 21.2814 46.3995 21.2814 46.3217H20.6814ZM43.738 49.9173C50.0318 49.9173 55.736 49.5479 59.8724 48.9489C61.9382 48.6497 63.6259 48.2915 64.8035 47.8883C65.3903 47.6874 65.8684 47.4694 66.2056 47.2308C66.5326 46.9993 66.7946 46.699 66.7946 46.3217H66.1946C66.1946 46.3995 66.1382 46.5434 65.859 46.741C65.5899 46.9314 65.1738 47.1273 64.6091 47.3207C63.4836 47.706 61.8386 48.0579 59.7864 48.3551C55.6864 48.9489 50.0123 49.3173 43.738 49.3173V49.9173ZM66.7946 46.3217C66.7946 46.1493 66.7384 45.9902 66.6471 45.8487L66.1429 46.174C66.1835 46.2368 66.1946 46.2848 66.1946 46.3217H66.7946ZM66.1946 45.6245C66.1946 45.7127 66.172 45.7947 66.1325 45.866L66.6575 46.1566C66.7449 45.9986 66.7946 45.8169 66.7946 45.6245H66.1946ZM66.1946 38.7107V45.6245H66.7946V38.7107H66.1946ZM66.1658 38.5429C66.1844 38.595 66.1946 38.6513 66.1946 38.7107H66.7946C66.7946 38.5818 66.7723 38.4574 66.731 38.3416L66.1658 38.5429Z" fill="#1D1D1D" mask="url(#path-5-inside-2_405_27690)"/>
<path d="M66.3446 38.1768C66.3446 38.3201 66.2397 38.4961 65.9475 38.6965C65.6613 38.8927 65.2295 39.0879 64.6591 39.2771C63.5202 39.6549 61.8643 39.9974 59.8085 40.2858C55.6992 40.8623 50.0174 41.2194 43.738 41.2194C37.4587 41.2194 31.7768 40.8623 27.6675 40.2858C25.6118 39.9974 23.9558 39.6549 22.817 39.2771C22.2466 39.0879 21.8148 38.8927 21.5286 38.6965C21.2364 38.4961 21.1314 38.3201 21.1314 38.1768C21.1314 38.0335 21.2364 37.8574 21.5286 37.6571C21.8148 37.4608 22.2466 37.2656 22.817 37.0764C23.9558 36.6987 25.6118 36.3562 27.6675 36.0678C31.7768 35.4913 37.4587 35.1341 43.738 35.1341C50.0174 35.1341 55.6992 35.4913 59.8085 36.0678C61.8643 36.3562 63.5202 36.6987 64.6591 37.0764C65.2295 37.2656 65.6613 37.4608 65.9475 37.6571C66.2397 37.8574 66.3446 38.0335 66.3446 38.1768Z" fill="#A5D6BF" stroke="#1D1D1D" stroke-width="0.3"/>
<mask id="path-8-inside-3_405_27690" fill="white">
<path fill-rule="evenodd" clip-rule="evenodd" d="M61.6624 30.0447C61.7402 29.956 61.7802 29.8659 61.7802 29.7747C61.7802 28.395 52.6471 27.2765 41.3808 27.2765C30.1145 27.2765 20.9814 28.395 20.9814 29.7747C20.9814 29.8659 21.0214 29.956 21.0992 30.0447C21.0245 30.1664 20.9814 30.3095 20.9814 30.4627V37.9085C20.9814 38.0404 21.0133 38.1647 21.0698 38.2744C21.0113 38.3514 20.9814 38.4295 20.9814 38.5084C20.9814 39.8882 30.1145 41.0066 41.3808 41.0066C52.6471 41.0066 61.7802 39.8882 61.7802 38.5084C61.7802 38.4295 61.7503 38.3514 61.6918 38.2744C61.7483 38.1647 61.7802 38.0404 61.7802 37.9085V30.4627C61.7802 30.3095 61.7371 30.1664 61.6624 30.0447Z"/>
</mask>
<path fill-rule="evenodd" clip-rule="evenodd" d="M61.6624 30.0447C61.7402 29.956 61.7802 29.8659 61.7802 29.7747C61.7802 28.395 52.6471 27.2765 41.3808 27.2765C30.1145 27.2765 20.9814 28.395 20.9814 29.7747C20.9814 29.8659 21.0214 29.956 21.0992 30.0447C21.0245 30.1664 20.9814 30.3095 20.9814 30.4627V37.9085C20.9814 38.0404 21.0133 38.1647 21.0698 38.2744C21.0113 38.3514 20.9814 38.4295 20.9814 38.5084C20.9814 39.8882 30.1145 41.0066 41.3808 41.0066C52.6471 41.0066 61.7802 39.8882 61.7802 38.5084C61.7802 38.4295 61.7503 38.3514 61.6918 38.2744C61.7483 38.1647 61.7802 38.0404 61.7802 37.9085V30.4627C61.7802 30.3095 61.7371 30.1664 61.6624 30.0447Z" fill="#A5D6BF"/>
<path d="M61.6624 30.0447L61.4369 29.8469L61.291 30.0132L61.4067 30.2017L61.6624 30.0447ZM21.0992 30.0447L21.3549 30.2017L21.4706 30.0131L21.3247 29.8469L21.0992 30.0447ZM21.0698 38.2744L21.3088 38.4557L21.4231 38.3051L21.3365 38.137L21.0698 38.2744ZM61.6918 38.2744L61.4251 38.137L61.3385 38.3051L61.4528 38.4557L61.6918 38.2744ZM61.8879 30.2426C61.9979 30.1173 62.0802 29.9597 62.0802 29.7747H61.4802C61.4802 29.7753 61.4803 29.7798 61.4757 29.7903C61.4706 29.8018 61.4597 29.8209 61.4369 29.8469L61.8879 30.2426ZM62.0802 29.7747C62.0802 29.4286 61.8019 29.1827 61.5198 29.0138C61.2153 28.8316 60.7858 28.6662 60.2605 28.5141C59.2054 28.2086 57.6932 27.9372 55.8418 27.7104C52.1348 27.2564 47.0222 26.9765 41.3808 26.9765V27.5765C47.0057 27.5765 52.0928 27.8558 55.7689 28.306C57.609 28.5313 59.0842 28.7982 60.0936 29.0905C60.6006 29.2373 60.9726 29.3856 61.2117 29.5287C61.331 29.6001 61.4037 29.6624 61.4439 29.7108C61.4632 29.7341 61.4723 29.7509 61.4764 29.7609C61.4802 29.7701 61.4802 29.7741 61.4802 29.7747H62.0802ZM41.3808 26.9765C35.7394 26.9765 30.6268 27.2564 26.9198 27.7104C25.0684 27.9372 23.5562 28.2086 22.5011 28.5141C21.9758 28.6662 21.5463 28.8316 21.2418 29.0138C20.9597 29.1827 20.6814 29.4286 20.6814 29.7747H21.2814C21.2814 29.7741 21.2814 29.7701 21.2852 29.7609C21.2893 29.7509 21.2984 29.7341 21.3177 29.7108C21.3579 29.6624 21.4306 29.6001 21.5499 29.5287C21.789 29.3856 22.161 29.2373 22.668 29.0905C23.6774 28.7982 25.1526 28.5313 26.9927 28.306C30.6688 27.8558 35.7559 27.5765 41.3808 27.5765V26.9765ZM20.6814 29.7747C20.6814 29.9597 20.7637 30.1172 20.8737 30.2426L21.3247 29.8469C21.3019 29.8209 21.291 29.8018 21.2859 29.7903C21.2813 29.7798 21.2814 29.7753 21.2814 29.7747H20.6814ZM21.2814 30.4627C21.2814 30.3665 21.3083 30.2775 21.3549 30.2017L20.8435 29.8878C20.7407 30.0553 20.6814 30.2525 20.6814 30.4627H21.2814ZM21.2814 37.9085V30.4627H20.6814V37.9085H21.2814ZM21.3365 38.137C21.3014 38.0688 21.2814 37.9915 21.2814 37.9085H20.6814C20.6814 38.0893 20.7253 38.2606 20.8031 38.4117L21.3365 38.137ZM20.8308 38.093C20.7429 38.2089 20.6814 38.349 20.6814 38.5084H21.2814C21.2814 38.5077 21.2814 38.5044 21.2842 38.497C21.2873 38.489 21.294 38.4751 21.3088 38.4557L20.8308 38.093ZM20.6814 38.5084C20.6814 38.8545 20.9597 39.1005 21.2418 39.2693C21.5463 39.4515 21.9758 39.6169 22.5011 39.769C23.5562 40.0745 25.0684 40.346 26.9198 40.5727C30.6268 41.0267 35.7394 41.3066 41.3808 41.3066V40.7066C35.7559 40.7066 30.6688 40.4274 26.9927 39.9772C25.1526 39.7518 23.6774 39.4849 22.668 39.1927C22.161 39.0459 21.789 38.8975 21.5499 38.7545C21.4306 38.683 21.3579 38.6208 21.3177 38.5723C21.2984 38.5491 21.2893 38.5322 21.2852 38.5222C21.2814 38.513 21.2814 38.5091 21.2814 38.5084H20.6814ZM41.3808 41.3066C47.0222 41.3066 52.1348 41.0267 55.8418 40.5727C57.6932 40.346 59.2054 40.0745 60.2605 39.769C60.7858 39.6169 61.2153 39.4515 61.5198 39.2693C61.8019 39.1005 62.0802 38.8545 62.0802 38.5084H61.4802C61.4802 38.5091 61.4802 38.513 61.4764 38.5222C61.4723 38.5322 61.4632 38.5491 61.4439 38.5723C61.4037 38.6208 61.331 38.683 61.2117 38.7545C60.9726 38.8975 60.6006 39.0459 60.0936 39.1927C59.0842 39.4849 57.609 39.7518 55.7689 39.9772C52.0928 40.4274 47.0057 40.7066 41.3808 40.7066V41.3066ZM62.0802 38.5084C62.0802 38.349 62.0187 38.2089 61.9308 38.093L61.4528 38.4557C61.4676 38.4751 61.4743 38.489 61.4774 38.497C61.4802 38.5044 61.4802 38.5077 61.4802 38.5084H62.0802ZM61.4802 37.9085C61.4802 37.9915 61.4602 38.0688 61.4251 38.137L61.9585 38.4117C62.0363 38.2606 62.0802 38.0893 62.0802 37.9085H61.4802ZM61.4802 30.4627V37.9085H62.0802V30.4627H61.4802ZM61.4067 30.2017C61.4533 30.2775 61.4802 30.3665 61.4802 30.4627H62.0802C62.0802 30.2525 62.0209 30.0553 61.9181 29.8878L61.4067 30.2017Z" fill="#1D1D1D" mask="url(#path-8-inside-3_405_27690)"/>
<path d="M61.6302 29.7641C61.6302 29.8487 61.5557 29.9776 61.2889 30.1366C61.0335 30.2888 60.6471 30.4408 60.1355 30.5882C59.1146 30.8826 57.6301 31.1495 55.7872 31.3742C52.1033 31.8234 47.0098 32.1017 41.3808 32.1017C35.7518 32.1017 30.6583 31.8234 26.9744 31.3742C25.1315 31.1495 23.647 30.8826 22.6261 30.5882C22.1145 30.4408 21.7281 30.2888 21.4727 30.1366C21.2059 29.9776 21.1314 29.8487 21.1314 29.7641C21.1314 29.6795 21.2059 29.5506 21.4727 29.3916C21.7281 29.2394 22.1145 29.0874 22.6261 28.9399C23.647 28.6456 25.1315 28.3787 26.9744 28.154C30.6583 27.7048 35.7518 27.4265 41.3808 27.4265C47.0098 27.4265 52.1033 27.7048 55.7872 28.154C57.6301 28.3787 59.1146 28.6456 60.1355 28.9399C60.6471 29.0874 61.0335 29.2394 61.2889 29.3916C61.5557 29.5506 61.6302 29.6795 61.6302 29.7641Z" fill="#A5D6BF" stroke="#1D1D1D" stroke-width="0.3"/>
<mask id="path-11-inside-4_405_27690" fill="white">
<path fill-rule="evenodd" clip-rule="evenodd" d="M56.1091 23.0515C56.2217 22.9545 56.28 22.8554 56.28 22.7547C56.28 21.5815 48.3781 20.6304 38.6307 20.6304C28.8833 20.6304 20.9814 21.5815 20.9814 22.7547C20.9814 22.8554 21.0397 22.9545 21.1523 23.0515C21.0453 23.1875 20.9814 23.3591 20.9814 23.5456V29.1291C20.9814 29.2865 21.0269 29.4334 21.1055 29.5572C21.0236 29.6402 20.9814 29.7247 20.9814 29.8104C20.9814 30.9836 28.8833 31.9347 38.6307 31.9347C48.3781 31.9347 56.28 30.9836 56.28 29.8104C56.28 29.7247 56.2378 29.6402 56.1559 29.5572C56.2345 29.4334 56.28 29.2865 56.28 29.1291V23.5456C56.28 23.3591 56.2161 23.1875 56.1091 23.0515Z"/>
</mask>
<path fill-rule="evenodd" clip-rule="evenodd" d="M56.1091 23.0515C56.2217 22.9545 56.28 22.8554 56.28 22.7547C56.28 21.5815 48.3781 20.6304 38.6307 20.6304C28.8833 20.6304 20.9814 21.5815 20.9814 22.7547C20.9814 22.8554 21.0397 22.9545 21.1523 23.0515C21.0453 23.1875 20.9814 23.3591 20.9814 23.5456V29.1291C20.9814 29.2865 21.0269 29.4334 21.1055 29.5572C21.0236 29.6402 20.9814 29.7247 20.9814 29.8104C20.9814 30.9836 28.8833 31.9347 38.6307 31.9347C48.3781 31.9347 56.28 30.9836 56.28 29.8104C56.28 29.7247 56.2378 29.6402 56.1559 29.5572C56.2345 29.4334 56.28 29.2865 56.28 29.1291V23.5456C56.28 23.3591 56.2161 23.1875 56.1091 23.0515Z" fill="#A5D6BF"/>
<path d="M56.1091 23.0515L55.9134 22.8241L55.696 23.0114L55.8733 23.2369L56.1091 23.0515ZM21.1523 23.0515L21.3881 23.2369L21.5655 23.0114L21.348 22.8241L21.1523 23.0515ZM21.1055 29.5572L21.3191 29.7679L21.4867 29.598L21.3588 29.3964L21.1055 29.5572ZM56.1559 29.5572L55.9026 29.3964L55.7747 29.598L55.9423 29.7679L56.1559 29.5572ZM56.3049 23.2788C56.4489 23.1548 56.58 22.98 56.58 22.7547H55.98C55.98 22.7447 55.9834 22.7433 55.9771 22.7542C55.9697 22.767 55.9519 22.791 55.9134 22.8241L56.3049 23.2788ZM56.58 22.7547C56.58 22.4319 56.3172 22.2114 56.0735 22.068C55.8059 21.9106 55.4306 21.7689 54.9751 21.6393C54.0595 21.3787 52.749 21.1476 51.1465 20.9547C47.9374 20.5685 43.5125 20.3304 38.6307 20.3304V20.9304C43.4963 20.9304 47.8961 21.1678 51.0748 21.5504C52.6662 21.742 53.9403 21.9686 54.8109 22.2164C55.2485 22.3409 55.5667 22.466 55.7693 22.5852C55.9958 22.7184 55.98 22.7843 55.98 22.7547H56.58ZM38.6307 20.3304C33.7489 20.3304 29.324 20.5685 26.1149 20.9547C24.5124 21.1476 23.2019 21.3787 22.2863 21.6393C21.8308 21.7689 21.4555 21.9106 21.1879 22.068C20.9442 22.2114 20.6814 22.4319 20.6814 22.7547H21.2814C21.2814 22.7843 21.2657 22.7184 21.4921 22.5852C21.6947 22.466 22.0129 22.3409 22.4505 22.2164C23.3211 21.9686 24.5953 21.742 26.1866 21.5504C29.3653 21.1678 33.7651 20.9304 38.6307 20.9304V20.3304ZM20.6814 22.7547C20.6814 22.98 20.8125 23.1548 20.9565 23.2788L21.348 22.8241C21.3095 22.791 21.2917 22.767 21.2843 22.7542C21.278 22.7433 21.2814 22.7447 21.2814 22.7547H20.6814ZM21.2814 23.5456C21.2814 23.4287 21.3212 23.322 21.3881 23.2369L20.9165 22.866C20.7694 23.053 20.6814 23.2895 20.6814 23.5456H21.2814ZM21.2814 29.1291V23.5456H20.6814V29.1291H21.2814ZM21.3588 29.3964C21.3098 29.3193 21.2814 29.2279 21.2814 29.1291H20.6814C20.6814 29.3451 20.7441 29.5475 20.8522 29.7179L21.3588 29.3964ZM20.892 29.3465C20.777 29.463 20.6814 29.6189 20.6814 29.8104H21.2814C21.2814 29.8185 21.2791 29.821 21.2819 29.8153C21.2854 29.8082 21.2952 29.7921 21.3191 29.7679L20.892 29.3465ZM20.6814 29.8104C20.6814 30.1332 20.9442 30.3537 21.1879 30.4971C21.4555 30.6545 21.8308 30.7962 22.2863 30.9258C23.2019 31.1864 24.5124 31.4175 26.1149 31.6104C29.324 31.9966 33.7489 32.2347 38.6307 32.2347V31.6347C33.7651 31.6347 29.3653 31.3973 26.1866 31.0147C24.5953 30.8231 23.3211 30.5965 22.4505 30.3487C22.0129 30.2242 21.6947 30.0991 21.4921 29.9799C21.2657 29.8467 21.2814 29.7808 21.2814 29.8104H20.6814ZM38.6307 32.2347C43.5125 32.2347 47.9374 31.9966 51.1465 31.6104C52.749 31.4175 54.0595 31.1864 54.9751 30.9258C55.4306 30.7962 55.8059 30.6545 56.0735 30.4971C56.3172 30.3537 56.58 30.1332 56.58 29.8104H55.98C55.98 29.7808 55.9958 29.8467 55.7693 29.9799C55.5667 30.0991 55.2485 30.2242 54.8109 30.3487C53.9403 30.5965 52.6662 30.8231 51.0748 31.0147C47.8961 31.3973 43.4963 31.6347 38.6307 31.6347V32.2347ZM56.58 29.8104C56.58 29.6189 56.4844 29.463 56.3694 29.3465L55.9423 29.7679C55.9662 29.7921 55.976 29.8082 55.9795 29.8153C55.9823 29.821 55.98 29.8185 55.98 29.8104H56.58ZM55.98 29.1291C55.98 29.2279 55.9516 29.3193 55.9026 29.3964L56.4092 29.7179C56.5174 29.5475 56.58 29.3451 56.58 29.1291H55.98ZM55.98 23.5456V29.1291H56.58V23.5456H55.98ZM55.8733 23.2369C55.9402 23.322 55.98 23.4287 55.98 23.5456H56.58C56.58 23.2895 56.492 23.053 56.345 22.866L55.8733 23.2369Z" fill="#1D1D1D" mask="url(#path-11-inside-4_405_27690)"/>
<path d="M56.13 22.722C56.13 22.7785 56.0771 22.8818 55.8459 23.0166C55.627 23.1442 55.2944 23.2722 54.8523 23.3969C53.9704 23.6456 52.687 23.8713 51.0928 24.0614C47.9065 24.4414 43.5004 24.6769 38.6307 24.6769C33.761 24.6769 29.3549 24.4414 26.1686 24.0614C24.5744 23.8713 23.291 23.6456 22.4091 23.3969C21.967 23.2722 21.6344 23.1442 21.4155 23.0166C21.1843 22.8818 21.1314 22.7785 21.1314 22.722C21.1314 22.6654 21.1843 22.5621 21.4155 22.4273C21.6344 22.2998 21.967 22.1717 22.4091 22.047C23.291 21.7983 24.5744 21.5726 26.1686 21.3825C29.3549 21.0025 33.761 20.7671 38.6307 20.7671C43.5004 20.7671 47.9065 21.0025 51.0928 21.3825C52.687 21.5726 53.9704 21.7983 54.8523 22.047C55.2944 22.1717 55.627 22.2998 55.8459 22.4273C56.0771 22.5621 56.13 22.6654 56.13 22.722Z" fill="#A5D6BF" stroke="#1D1D1D" stroke-width="0.3"/>
<g style="mix-blend-mode:multiply">
<path d="M52.9011 22.6308C52.9011 23.5589 48.6227 24.309 43.345 24.309C38.0674 24.309 33.2988 23.5589 33.2988 22.6308C33.2988 21.7028 38.0674 20.9526 43.345 20.9526C48.6227 20.9526 52.9011 21.7045 52.9011 22.6308Z" fill="#90B3A8"/>
</g>
<g style="mix-blend-mode:multiply">
<path d="M33.0304 22.6124C33.0304 23.2745 30.4589 23.8096 27.287 23.8096C24.115 23.8096 21.249 23.2745 21.249 22.6124C21.249 21.9503 24.115 21.4152 27.287 21.4152C30.4589 21.4152 33.0304 21.9515 33.0304 22.6124Z" fill="#90B3A8"/>
</g>
<path d="M36.8505 6.79531C38.0834 6.72873 39.1708 7.59818 39.3772 8.81559L41.3009 20.1613C41.5431 21.5899 40.4879 22.9098 39.0411 22.9879L25.3665 23.7264C24.1336 23.7929 23.0462 22.9235 22.8398 21.7061L20.9162 10.3604C20.674 8.93175 21.7292 7.61187 23.1759 7.53375L36.8505 6.79531Z" fill="#FCEDB6" stroke="#1D1D1D" stroke-width="0.3"/>
<path d="M37.2434 6.77186C38.2543 6.71829 39.1463 7.42933 39.3196 8.42684L41.312 19.8985C41.5167 21.0774 40.6463 22.1695 39.4515 22.2328L25.648 22.9643C24.637 23.0178 23.745 22.3068 23.5718 21.3093L21.5794 9.83767C21.3746 8.65873 22.2451 7.5666 23.4399 7.50329L37.2434 6.77186Z" fill="white" stroke="#1D1D1D" stroke-width="0.3"/>
<path opacity="0.5" d="M23.6709 12.1465L38.4139 11.3546L38.6729 12.6414L23.9037 13.4332L23.6709 12.1465Z" fill="#DEF4E7"/>
<path opacity="0.5" d="M23.2725 9.77073L38.0154 8.97888L38.2744 10.2656L23.5053 11.0575L23.2725 9.77073Z" fill="#DEF4E7"/>
<path opacity="0.5" d="M24.0703 14.5219L38.8133 13.7301L39.0723 15.0168L24.3031 15.8087L24.0703 14.5219Z" fill="#DEF4E7"/>
<path opacity="0.5" d="M24.4678 16.8971L39.2108 16.1052L39.4698 17.392L24.7006 18.1838L24.4678 16.8971Z" fill="#DEF4E7"/>
<path opacity="0.5" d="M24.8662 19.2729L39.6092 18.4811L39.8682 19.7678L25.099 20.5597L24.8662 19.2729Z" fill="#DEF4E7"/>
<path d="M23.4717 12.1555L25.8318 13.8967L28.0859 10.3645L31.9338 13.8967L33.8955 11.7774L36.0589 13.8967L37.6323 15.5115L38.8123 12.6305" stroke="#41826E" stroke-width="0.3" stroke-linecap="round"/>
<path d="M23.9194 12.3442C23.9194 12.4791 23.809 12.5901 23.6709 12.5901C23.5328 12.5901 23.4225 12.4791 23.4225 12.3442C23.4225 12.2092 23.5328 12.0982 23.6709 12.0982C23.809 12.0982 23.9194 12.2092 23.9194 12.3442Z" fill="#41826E" stroke="#41826E" stroke-width="0.3"/>
<path d="M28.3022 10.3647C28.3022 10.4996 28.1919 10.6106 28.0537 10.6106C27.9156 10.6106 27.8053 10.4996 27.8053 10.3647C27.8053 10.2298 27.9156 10.1188 28.0537 10.1188C28.1919 10.1188 28.3022 10.2298 28.3022 10.3647Z" fill="#41826E" stroke="#41826E" stroke-width="0.3"/>
<path d="M34.0805 11.7502C34.0805 11.8851 33.9702 11.9961 33.8321 11.9961C33.6939 11.9961 33.5836 11.8851 33.5836 11.7502C33.5836 11.6153 33.6939 11.5042 33.8321 11.5042C33.9702 11.5042 34.0805 11.6153 34.0805 11.7502Z" fill="#41826E" stroke="#41826E" stroke-width="0.3"/>
<path d="M37.8657 15.5118C37.8657 15.6467 37.7553 15.7577 37.6172 15.7577C37.4791 15.7577 37.3688 15.6467 37.3688 15.5118C37.3688 15.3768 37.4791 15.2658 37.6172 15.2658C37.7553 15.2658 37.8657 15.3768 37.8657 15.5118Z" fill="#41826E" stroke="#41826E" stroke-width="0.3"/>
<path d="M32.0883 13.9281C32.0883 14.0631 31.978 14.1741 31.8399 14.1741C31.7017 14.1741 31.5914 14.0631 31.5914 13.9281C31.5914 13.7932 31.7017 13.6822 31.8399 13.6822C31.978 13.6822 32.0883 13.7932 32.0883 13.9281Z" fill="#41826E" stroke="#41826E" stroke-width="0.3"/>
<path d="M39.061 12.5424C39.061 12.6773 38.9506 12.7883 38.8125 12.7883C38.6744 12.7883 38.5641 12.6773 38.5641 12.5424C38.5641 12.4075 38.6744 12.2965 38.8125 12.2965C38.9506 12.2965 39.061 12.4075 39.061 12.5424Z" fill="#41826E" stroke="#41826E" stroke-width="0.3"/>
<path d="M24.4678 17.2824L26.7666 18.4811L28.9621 16.7849L32.7101 18.4811L34.6208 17.1774L36.728 17.7662L38.2606 18.2148L39.41 16.6995" stroke="#E5C267" stroke-width="0.3" stroke-linecap="round"/>
<path d="M24.7163 17.2935C24.7163 17.4284 24.6059 17.5394 24.4678 17.5394C24.3297 17.5394 24.2193 17.4284 24.2193 17.2935C24.2193 17.1586 24.3297 17.0476 24.4678 17.0476C24.6059 17.0476 24.7163 17.1586 24.7163 17.2935Z" fill="#E5C267" stroke="#E5C267" stroke-width="0.3"/>
<path d="M29.2993 16.6994C29.2993 16.8343 29.1889 16.9453 29.0508 16.9453C28.9127 16.9453 28.8023 16.8343 28.8023 16.6994C28.8023 16.5645 28.9127 16.4535 29.0508 16.4535C29.1889 16.4535 29.2993 16.5645 29.2993 16.6994Z" fill="#E5C267" stroke="#E5C267" stroke-width="0.3"/>
<path d="M34.8774 17.0953C34.8774 17.2302 34.7671 17.3412 34.6289 17.3412C34.4908 17.3412 34.3805 17.2302 34.3805 17.0953C34.3805 16.9603 34.4908 16.8493 34.6289 16.8493C34.7671 16.8493 34.8774 16.9603 34.8774 17.0953Z" fill="#E5C267" stroke="#E5C267" stroke-width="0.3"/>
<path d="M38.4633 18.2833C38.4633 18.4182 38.353 18.5292 38.2149 18.5292C38.0767 18.5292 37.9664 18.4182 37.9664 18.2833C37.9664 18.1483 38.0767 18.0373 38.2149 18.0373C38.353 18.0373 38.4633 18.1483 38.4633 18.2833Z" fill="#E5C267" stroke="#E5C267" stroke-width="0.3"/>
<path d="M32.8852 18.4815C32.8852 18.6164 32.7749 18.7274 32.6367 18.7274C32.4986 18.7274 32.3883 18.6164 32.3883 18.4815C32.3883 18.3466 32.4986 18.2356 32.6367 18.2356C32.7749 18.2356 32.8852 18.3466 32.8852 18.4815Z" fill="#E5C267" stroke="#E5C267" stroke-width="0.3"/>
<path d="M39.6586 16.6994C39.6586 16.8343 39.5483 16.9453 39.4102 16.9453C39.2721 16.9453 39.1617 16.8343 39.1617 16.6994C39.1617 16.5645 39.2721 16.4535 39.4102 16.4535C39.5483 16.4535 39.6586 16.5645 39.6586 16.6994Z" fill="#E5C267" stroke="#E5C267" stroke-width="0.3"/>
<path d="M52.9059 20.924C52.9059 19.9045 50.0349 19.078 46.4935 19.078C42.952 19.078 40.0811 19.9045 40.0811 20.924V22.2666C40.0811 23.2861 42.952 24.1126 46.4935 24.1126C50.0349 24.1126 52.9059 23.2861 52.9059 22.2666V20.924Z" fill="#FCEDB6" stroke="#1D1D1D" stroke-width="0.3" stroke-linecap="round" stroke-linejoin="round"/>
<ellipse cx="46.4935" cy="20.924" rx="6.41241" ry="1.84601" fill="white" stroke="#1D1D1D" stroke-width="0.3" stroke-linecap="round" stroke-linejoin="round"/>
<g style="mix-blend-mode:multiply">
<path d="M52.9059 20.2359C52.9059 19.3183 50.0349 18.5745 46.4935 18.5745C42.952 18.5745 40.0811 19.3183 40.0811 20.2359V21.4442C40.0811 22.3617 42.952 23.1056 46.4935 23.1056C50.0349 23.1056 52.9059 22.3617 52.9059 21.4442V20.2359Z" fill="#FCEDB6"/>
</g>
<path d="M51.4352 19.5814C51.4352 18.5618 48.5642 17.7354 45.0228 17.7354C41.4813 17.7354 38.6104 18.5618 38.6104 19.5814V20.9239C38.6104 21.9434 41.4813 22.7699 45.0228 22.7699C48.5642 22.7699 51.4352 21.9434 51.4352 20.9239V19.5814Z" fill="#FCEDB6" stroke="#1D1D1D" stroke-width="0.3" stroke-linecap="round" stroke-linejoin="round"/>
<ellipse cx="45.0228" cy="19.5814" rx="6.41241" ry="1.84601" fill="white" stroke="#1D1D1D" stroke-width="0.3" stroke-linecap="round" stroke-linejoin="round"/>
<g style="mix-blend-mode:multiply">
<path d="M51.4352 18.8933C51.4352 17.9758 48.5642 17.2319 45.0228 17.2319C41.4813 17.2319 38.6104 17.9758 38.6104 18.8933V20.1016C38.6104 21.0192 41.4813 21.7631 45.0228 21.7631C48.5642 21.7631 51.4352 21.0192 51.4352 20.1016V18.8933Z" fill="#FCEDB6"/>
</g>
<path d="M51.4352 18.2387C51.4352 17.2192 48.5642 16.3927 45.0228 16.3927C41.4813 16.3927 38.6104 17.2192 38.6104 18.2387V19.5813C38.6104 20.6008 41.4813 21.4273 45.0228 21.4273C48.5642 21.4273 51.4352 20.6008 51.4352 19.5813V18.2387Z" fill="#FCEDB6" stroke="#1D1D1D" stroke-width="0.3" stroke-linecap="round" stroke-linejoin="round"/>
<ellipse cx="45.0228" cy="18.2387" rx="6.41241" ry="1.84601" fill="white" stroke="#1D1D1D" stroke-width="0.3" stroke-linecap="round" stroke-linejoin="round"/>
<g style="mix-blend-mode:multiply">
<path d="M51.4352 17.5506C51.4352 16.633 48.5642 15.8892 45.0228 15.8892C41.4813 15.8892 38.6104 16.633 38.6104 17.5506V18.7589C38.6104 19.6764 41.4813 20.4203 45.0228 20.4203C48.5642 20.4203 51.4352 19.6764 51.4352 18.7589V17.5506Z" fill="#FCEDB6"/>
</g>
<path d="M51.4352 16.8962C51.4352 15.8767 48.5642 15.0502 45.0228 15.0502C41.4813 15.0502 38.6104 15.8767 38.6104 16.8962V18.2387C38.6104 19.2583 41.4813 20.0847 45.0228 20.0847C48.5642 20.0847 51.4352 19.2583 51.4352 18.2387V16.8962Z" fill="#FCEDB6" stroke="#1D1D1D" stroke-width="0.3" stroke-linecap="round" stroke-linejoin="round"/>
<g style="mix-blend-mode:multiply">
<path d="M51.4352 16.4207C51.4352 15.5711 48.5642 14.8823 45.0228 14.8823C41.4813 14.8823 38.6104 15.5711 38.6104 16.4207V17.5395C38.6104 18.3891 41.4813 19.0778 45.0228 19.0778C48.5642 19.0778 51.4352 18.3891 51.4352 17.5395V16.4207Z" fill="#FCEDB6"/>
</g>
<ellipse cx="45.0228" cy="16.8962" rx="6.41241" ry="1.84601" fill="white" stroke="#1D1D1D" stroke-width="0.3" stroke-linecap="round" stroke-linejoin="round"/>
<path d="M52.9059 15.5535C52.9059 14.534 50.0349 13.7075 46.4935 13.7075C42.952 13.7075 40.0811 14.534 40.0811 15.5535V16.8961C40.0811 17.9156 42.952 18.7421 46.4935 18.7421C50.0349 18.7421 52.9059 17.9156 52.9059 16.8961V15.5535Z" fill="#FCEDB6" stroke="#1D1D1D" stroke-width="0.3" stroke-linecap="round" stroke-linejoin="round"/>
<g style="mix-blend-mode:multiply">
<path d="M51.4342 15.6712C51.4342 14.9576 48.8927 14.379 45.7576 14.379C42.6225 14.379 40.0811 14.9576 40.0811 15.6712V16.611C40.0811 17.3247 42.6225 17.9032 45.7576 17.9032C48.8927 17.9032 51.4342 17.3247 51.4342 16.611V15.6712Z" fill="#FCEDB6"/>
</g>
<ellipse cx="46.4935" cy="15.5535" rx="6.41241" ry="1.84601" fill="white" stroke="#1D1D1D" stroke-width="0.3" stroke-linecap="round" stroke-linejoin="round"/>
<path d="M51.4352 14.2111C51.4352 13.1916 48.5642 12.3651 45.0228 12.3651C41.4813 12.3651 38.6104 13.1916 38.6104 14.2111V15.5537C38.6104 16.5732 41.4813 17.3997 45.0228 17.3997C48.5642 17.3997 51.4352 16.5732 51.4352 15.5537V14.2111Z" fill="#FCEDB6" stroke="#1D1D1D" stroke-width="0.3" stroke-linecap="round" stroke-linejoin="round"/>
<ellipse cx="45.0228" cy="14.2111" rx="6.41241" ry="1.84601" fill="white" stroke="#1D1D1D" stroke-width="0.3" stroke-linecap="round" stroke-linejoin="round"/>
<path d="M50.3098 11.2557C50.4397 11.223 50.5502 11.3614 50.4582 11.4416C50.3485 11.5372 50.316 11.6797 50.3698 11.812C50.4204 11.9363 50.2434 12.0264 50.1235 11.9373C49.996 11.8425 49.8205 11.8058 49.6656 11.8448C49.5356 11.8775 49.4252 11.7392 49.5172 11.659C49.6269 11.5633 49.6593 11.4209 49.6055 11.2886C49.5549 11.1643 49.732 11.0742 49.8519 11.1633C49.9794 11.2581 50.1549 11.2947 50.3098 11.2557Z" fill="#FAE3C3" stroke="#1D1D1D" stroke-width="0.3"/>
</svg>
