<svg width="89" height="89" viewBox="0 0 89 89" fill="none" xmlns="http://www.w3.org/2000/svg">
<path d="M12.5685 53.8845L12.5661 53.8832C11.6982 53.4009 11.2079 52.7419 10.965 51.9618C10.7219 51.1812 10.724 50.271 10.8621 49.2823L28.8558 8.64553C28.8558 8.64544 28.8559 8.64534 28.8559 8.64525C29.6671 6.83525 31.7257 5.94487 33.5987 6.59375L65.7145 17.7698L78.8018 23.9631L78.8031 23.9637C80.905 24.9333 81.9704 27.1174 81.0515 29.1574L81.0505 29.1597L62.0723 73.3025C62.0721 73.3029 62.0719 73.3032 62.0718 73.3036C61.9473 73.5796 61.7948 73.833 61.6192 74.0624C60.7347 75.2173 59.0896 75.3702 57.1456 75.0753C55.6978 74.8556 54.1315 74.3957 52.6708 73.9668C52.1799 73.8226 51.701 73.682 51.2424 73.5552L42.6775 71.1859C42.3641 71.0992 42.0625 70.9746 41.7794 70.8146C41.7791 70.8145 41.7789 70.8144 41.7786 70.8142L12.5685 53.8845Z" fill="#CCEDD4" stroke="#1D1D1D" stroke-width="0.3"/>
<g style="mix-blend-mode:multiply" opacity="0.2">
<path d="M33.6478 6.45201C31.7012 5.77762 29.5617 6.70312 28.7189 8.5842L10.7165 49.2407C10.4319 51.2533 10.6895 53.012 12.4933 54.0143L41.7048 70.9448C41.9988 71.111 42.3121 71.2405 42.6375 71.3305L51.2024 73.6997C54.8242 74.7016 59.8571 76.6101 61.7383 74.1536C61.9211 73.9148 62.0798 73.6511 62.209 73.3641L81.1883 29.219C82.1483 27.0878 81.0254 24.8236 78.8659 23.8275L65.7714 17.6308L33.6478 6.45201Z" fill="#226752"/>
</g>
<g style="mix-blend-mode:multiply" opacity="0.5">
<path fill-rule="evenodd" clip-rule="evenodd" d="M10.7239 49.9298L43.464 67.2186C43.8156 67.4001 44.1879 67.5453 44.5728 67.6511L54.7017 70.4362C55.238 70.5836 55.8008 70.7465 56.3792 70.9138C58.4477 71.5123 60.7155 72.1684 62.6818 72.3847L62.2981 73.2772C62.1688 73.5642 62.0101 73.8279 61.8273 74.0666C60.1817 76.2156 56.1242 75.0242 52.7093 74.0214C52.2206 73.8779 51.745 73.7383 51.2915 73.6128L42.7266 71.2436C42.4011 71.1536 42.0879 71.024 41.7939 70.8579L12.5823 53.9274C11.0146 53.0563 10.6149 51.6138 10.7239 49.9298Z" fill="#CCEDD4"/>
</g>
<g style="mix-blend-mode:multiply" opacity="0.4">
<path fill-rule="evenodd" clip-rule="evenodd" d="M28.9134 8.27591C29.8606 6.65785 31.8352 5.90383 33.6434 6.53027L65.767 17.7091L78.8615 23.9058C81.021 24.9018 82.1439 27.166 81.1839 29.2972L80.6622 30.5106L63.3945 22.1052L28.9134 8.27591Z" fill="#CCEDD4"/>
</g>
<path d="M12.4894 53.8973L12.488 53.8965C10.7716 52.9242 10.076 50.805 10.8821 49.0032L10.8822 49.0029L28.8319 8.66908C29.6423 6.8577 31.7018 5.96618 33.5756 6.61536L65.424 17.649C67.548 18.3848 68.5825 20.7862 67.6586 22.8371L46.8722 68.9823C45.9472 71.0358 43.459 71.8505 41.5004 70.7416C41.5001 70.7415 41.4999 70.7413 41.4997 70.7412L12.4894 53.8973Z" fill="#CCEDD4" stroke="#1D1D1D" stroke-width="0.3"/>
<mask id="mask0_108_5173" style="mask-type:alpha" maskUnits="userSpaceOnUse" x="21" y="16" width="34" height="42">
<path d="M52.1023 43.5777C49.7284 48.8494 45.9922 52.9007 41.8772 55.1921C37.7621 57.4836 33.278 58.0114 29.3906 56.26C25.5031 54.5086 22.9268 50.7998 21.9154 46.1988C20.9041 41.5978 21.4614 36.1144 23.8354 30.8426C26.2093 25.5708 29.9455 21.5196 34.0605 19.2281C38.1756 16.9367 42.6597 16.4089 46.5471 18.1603C50.4345 19.9117 53.0109 23.6204 54.0222 28.2214C55.0335 32.8225 54.4762 38.3059 52.1023 43.5777Z" fill="white" stroke="black" stroke-width="0.3"/>
</mask>
<g mask="url(#mask0_108_5173)">
<path d="M52.1023 43.5777C49.7284 48.8494 45.9922 52.9007 41.8772 55.1921C37.7621 57.4836 33.278 58.0114 29.3906 56.26C25.5031 54.5086 22.9268 50.7998 21.9154 46.1988C20.9041 41.5978 21.4614 36.1144 23.8354 30.8426C26.2093 25.5708 29.9455 21.5196 34.0605 19.2281C38.1756 16.9367 42.6597 16.4089 46.5471 18.1603C50.4345 19.9117 53.0109 23.6204 54.0222 28.2214C55.0335 32.8225 54.4762 38.3059 52.1023 43.5777Z" fill="#CCEDD4" stroke="#1D1D1D" stroke-width="0.3"/>
<ellipse cx="15.5404" cy="21.1564" rx="15.5404" ry="21.1564" transform="matrix(0.911741 0.410765 -0.410597 0.911817 32.5883 11.577)" fill="#76B899"/>
<path d="M52.0136 43.7284C49.6862 48.8968 46.2512 52.9698 42.5863 55.3799C38.9195 57.7911 35.0429 58.5271 31.8091 57.0702C28.5754 55.6133 26.5574 52.2217 25.9329 47.8771C25.3086 43.5346 26.0818 38.2623 28.4092 33.094C30.7365 27.9256 34.1716 23.8526 37.8365 21.4425C41.5033 19.0312 45.3799 18.2953 48.6136 19.7522C51.8474 21.2091 53.8654 24.6007 54.4899 28.9453C55.1141 33.2878 54.3409 38.5601 52.0136 43.7284Z" fill="white" stroke="#1D1D1D" stroke-width="0.3"/>
<path d="M53.3296 34.647C54.2431 34.4415 55.0906 34.2432 55.3834 33.6794C55.5334 33.3908 55.4647 33.1103 55.1749 32.9779C54.8378 32.8239 54.5125 33.0075 54.2921 33.4092L54.0775 33.2821C54.3841 32.737 54.8262 32.5611 55.2924 32.7741C55.7303 32.9742 55.8684 33.3612 55.6487 33.784C55.328 34.4015 54.5162 34.5912 53.6991 34.791L54.9025 35.3407L54.7961 35.5454L53.2337 34.8316L53.3296 34.647Z" fill="#1D1D1D"/>
<path d="M47.0299 49.9891L48.9331 48.9299L49.2315 49.0658L48.4322 50.5987L48.8353 50.7823L48.7268 50.9903L48.3238 50.8067L47.9897 51.4474L47.7422 51.3347L48.0762 50.694L46.9337 50.1736L47.0299 49.9891ZM47.3214 50.0928L48.1847 50.486L48.83 49.2482L47.3214 50.0928Z" fill="#1D1D1D"/>
<path d="M52.0669 44.3716C52.3966 44.5206 52.7137 44.4275 52.8689 44.1327C53.0293 43.8277 52.893 43.5546 52.5212 43.3865L52.3434 43.3062L52.4527 43.0984L52.6046 43.1671C52.9861 43.3395 53.2812 43.2199 53.4134 42.9686C53.5509 42.7072 53.4301 42.4577 53.165 42.3379C52.8708 42.2049 52.5781 42.3049 52.3965 42.5587L52.1455 42.4121C52.3994 42.0665 52.8232 41.9304 53.2758 42.1349C53.6993 42.3264 53.8781 42.7016 53.6753 43.0869C53.5166 43.3885 53.2204 43.4952 52.9318 43.4352L52.9282 43.4419C53.1707 43.5972 53.3212 43.8891 53.1255 44.2611C52.9016 44.6866 52.4296 44.7926 51.9608 44.5808C51.492 44.3689 51.3098 43.9547 51.4676 43.5407L51.7324 43.6231C51.6125 43.9422 51.7597 44.2327 52.0669 44.3716Z" fill="#1D1D1D"/>
<path d="M52.3915 27.8503L53.2387 26.1162L52.7154 25.8633L52.8178 25.6537L53.0033 25.7434C53.2497 25.8625 53.3865 25.9118 53.5334 25.611L53.6028 25.469L53.78 25.5546L52.6075 27.9547L52.3915 27.8503Z" fill="#1D1D1D"/>
<path d="M40.7923 55.6518C40.4318 55.4796 40.2916 55.1455 40.3784 54.778L40.6275 54.8136C40.5558 55.1007 40.6686 55.334 40.8957 55.4425C41.1909 55.5836 41.5251 55.447 41.7169 55.0587C41.9038 54.6806 41.818 54.3642 41.5313 54.2272C41.3411 54.1364 41.1111 54.1474 40.8861 54.3613L40.6941 54.2528L41.5454 52.9987L42.6297 53.5169L42.5279 53.7228L41.6224 53.2901L41.1107 54.0346C41.3 53.9498 41.4918 53.9663 41.6706 54.0518C42.0595 54.2376 42.1999 54.6636 41.9497 55.17C41.6894 55.6966 41.2152 55.8539 40.7923 55.6518Z" fill="#1D1D1D"/>
</g>
<path d="M52.1305 43.5602C49.7566 48.832 46.0204 52.8832 41.9053 55.1747C37.7903 57.4661 33.3062 57.9939 29.4188 56.2425C25.5313 54.4911 22.955 50.7824 21.9436 46.1814C20.9323 41.5803 21.4896 36.0969 23.8635 30.8251C26.2375 25.5534 29.9737 21.5021 34.0887 19.2107C38.2038 16.9192 42.6879 16.3914 46.5753 18.1428C50.4627 19.8942 53.0391 23.6029 54.0504 28.204C55.0617 32.805 54.5044 38.2884 52.1305 43.5602Z" stroke="#1D1D1D" stroke-width="0.3"/>
<path d="M46.2839 23.3772L47.1521 21.6487L46.5966 21.3873L46.7015 21.1783L46.8984 21.271C47.16 21.3941 47.3049 21.4456 47.4555 21.1457L47.5266 21.0042L47.7147 21.0927L46.5131 23.4851L46.2839 23.3772Z" fill="#1D1D1D"/>
<path d="M47.0936 23.5292C47.9558 23.31 48.7557 23.0991 49.0401 22.533C49.1856 22.2432 49.1255 21.965 48.8551 21.8378C48.5407 21.6898 48.2319 21.8777 48.0183 22.2813L47.8185 22.1581C48.1154 21.6104 48.5339 21.4283 48.9689 21.633C49.3774 21.8252 49.5011 22.2084 49.2878 22.6329C48.9764 23.2529 48.2101 23.4547 47.4388 23.6666L48.5614 24.1949L48.4582 24.4005L47.0005 23.7145L47.0936 23.5292Z" fill="#1D1D1D"/>
<path d="M40.0363 23.7687L40.9073 22.0409L40.3475 21.7784L40.4527 21.5696L40.6512 21.6626C40.9148 21.7863 41.0609 21.8381 41.212 21.5384L41.2833 21.3969L41.4729 21.4858L40.2673 23.8771L40.0363 23.7687Z" fill="#1D1D1D"/>
<path d="M41.2888 24.3562L42.1599 22.6284L41.6 22.3658L41.7053 22.157L41.9038 22.2501C42.1674 22.3737 42.3134 22.4256 42.4646 22.1258L42.5359 21.9844L42.7255 22.0733L41.5199 24.4646L41.2888 24.3562Z" fill="#1D1D1D"/>
<path d="M34.1896 28.22L35.0698 26.4946L34.496 26.2283L34.6024 26.0198L34.8058 26.1142C35.076 26.2396 35.2256 26.2923 35.3783 25.993L35.4503 25.8518L35.6446 25.9419L34.4264 28.3299L34.1896 28.22Z" fill="#1D1D1D"/>
<path d="M35.7928 29.0139C35.2524 28.7631 35.2127 28.1124 35.5816 27.3893C35.9504 26.6662 36.5118 26.2944 37.0522 26.5452C37.5926 26.796 37.6293 27.4453 37.2604 28.1684C36.8916 28.8915 36.3332 29.2647 35.7928 29.0139ZM35.8305 27.5048C35.5302 28.0934 35.5015 28.6208 35.8992 28.8053C36.2939 28.9885 36.7112 28.6414 37.0115 28.0529C37.3117 27.4643 37.3405 26.9369 36.9458 26.7537C36.5481 26.5692 36.1308 26.9162 35.8305 27.5048Z" fill="#1D1D1D"/>
<path d="M30.1583 35.3399C29.7792 35.1651 29.6229 34.8312 29.7305 34.4734L29.9786 34.5546C29.9245 34.8081 30.0277 35.0303 30.2711 35.1425C30.7334 35.3557 31.1466 34.9227 31.4415 34.3562C31.1824 34.5859 30.8656 34.6311 30.5852 34.5017C30.1599 34.3056 30.0186 33.8165 30.2569 33.3528C30.4969 32.8857 30.985 32.6702 31.4535 32.8862C31.7648 33.0297 31.9285 33.3047 31.9259 33.6361C31.9257 33.8812 31.8359 34.1599 31.6874 34.4488C31.349 35.1075 30.7993 35.6355 30.1583 35.3399ZM30.4976 33.4555C30.3215 33.7982 30.4039 34.1646 30.7275 34.3138C31.0573 34.4659 31.4133 34.285 31.5825 33.9557C31.75 33.6297 31.6841 33.2461 31.3543 33.094C31.0215 32.9405 30.6686 33.1228 30.4976 33.4555Z" fill="#1D1D1D"/>
<path d="M28.1643 42.3769C27.7273 42.1746 27.5214 41.7717 27.7382 41.348C27.8983 41.0354 28.1836 40.9137 28.499 40.9474C28.3179 40.7472 28.2806 40.4804 28.4131 40.2216C28.5989 39.8585 29.0051 39.7221 29.4238 39.9159C29.8426 40.1096 29.9804 40.4977 29.7945 40.8608C29.662 41.1197 29.4182 41.2564 29.1408 41.2444C29.3602 41.4583 29.4356 41.7468 29.2756 42.0594C29.0588 42.4831 28.5983 42.5777 28.1643 42.3769ZM27.9852 41.4416C27.8287 41.7475 27.9615 42.0418 28.2641 42.1819C28.5667 42.3219 28.8892 42.2383 29.0458 41.9323C29.2024 41.6264 29.0743 41.3301 28.7717 41.1901C28.4691 41.0501 28.1418 41.1356 27.9852 41.4416ZM28.6371 40.3377C28.5132 40.5798 28.5873 40.8635 28.8715 40.9951C29.1557 41.1266 29.4363 41.0069 29.5601 40.7649C29.6823 40.5261 29.6083 40.2424 29.324 40.1109C29.0367 39.9779 28.7593 40.099 28.6371 40.3377Z" fill="#1D1D1D"/>
<path d="M28.1929 49.7645C28.6402 48.8751 29.2413 48.3829 30.0561 47.9369L29.0067 47.4437L28.8067 47.8412L28.5856 47.7373L28.8889 47.1343L30.3776 47.8339L30.2844 48.0192C29.489 48.4701 28.8752 48.9731 28.4228 49.8726L28.1929 49.7645Z" fill="#1D1D1D"/>
<path d="M32.4057 55.6257C32.1009 55.4845 31.9209 55.2098 31.9229 54.8739C31.9251 54.6337 32.0117 54.3536 32.1578 54.0678C32.4946 53.4087 33.0576 52.8752 33.6855 53.1661C34.0604 53.3398 34.1973 53.6694 34.0694 54.0302L33.8179 53.947C33.8921 53.6985 33.8201 53.478 33.5732 53.3636C33.113 53.1504 32.6846 53.6049 32.3993 54.1631L32.3495 54.2606C32.6017 54.0032 32.9323 53.9317 33.2432 54.0758C33.6699 54.2735 33.8002 54.7414 33.5716 55.1886C33.3413 55.6392 32.8599 55.8362 32.4057 55.6257ZM32.2575 54.5881C32.1062 54.884 32.1766 55.2701 32.5027 55.4212C32.8289 55.5723 33.1732 55.4074 33.3365 55.088C33.4981 54.7719 33.4296 54.4117 33.1004 54.2592C32.7712 54.1066 32.4087 54.2922 32.2575 54.5881Z" fill="#1D1D1D"/>
<path d="M42.1217 39.0739C41.8725 39.5572 41.5048 39.9148 41.1182 40.1057C40.7314 40.2966 40.3361 40.3171 40.0125 40.1502C39.6888 39.9833 39.4763 39.6492 39.4074 39.2234C39.3386 38.7976 39.4165 38.2906 39.6657 37.8072C39.9148 37.3239 40.2825 36.9663 40.6692 36.7755C41.0559 36.5846 41.4512 36.564 41.7749 36.7309C42.0986 36.8979 42.3111 37.2319 42.3799 37.6578C42.4487 38.0836 42.3708 38.5906 42.1217 39.0739Z" fill="#41826E" stroke="#1D1D1D" stroke-width="0.3"/>
<path d="M41.8772 38.9277C41.6659 39.3378 41.3543 39.6403 41.0279 39.8014C40.7014 39.9626 40.3704 39.9787 40.1009 39.8397C39.8314 39.7007 39.6525 39.4216 39.5944 39.0621C39.5363 38.7027 39.602 38.2733 39.8134 37.8633C40.0247 37.4533 40.3363 37.1508 40.6627 36.9896C40.9892 36.8285 41.3201 36.8123 41.5897 36.9513C41.8592 37.0903 42.038 37.3694 42.0961 37.7289C42.1542 38.0884 42.0885 38.5177 41.8772 38.9277Z" fill="#41826E" stroke="#1D1D1D" stroke-width="0.3"/>
<path d="M40.1038 39.1517L39.2529 37.8825L31.4136 43.4393C30.7109 43.9374 30.4116 44.8331 30.6738 45.6535C30.8519 45.6906 31.0374 45.6533 31.1873 45.5502L40.2093 39.3435L40.1038 39.1517Z" fill="#41826E"/>
<path d="M30.6738 45.6535V45.6535C30.4116 44.8331 30.7109 43.9374 31.4136 43.4393L39.2529 37.8825L40.1038 39.1517M30.6738 45.6535L40.1038 39.1517M30.6738 45.6535V45.6535C30.8519 45.6906 31.0374 45.6533 31.1873 45.5502L40.2093 39.3435L40.1038 39.1517" stroke="#1D1D1D" stroke-width="0.3"/>
<path d="M40.72 38.264L39.3873 37.5172L43.0061 30.4627C43.3941 29.7064 44.2469 29.3112 45.0743 29.5043C45.1259 29.6801 45.1095 29.869 45.0283 30.0334L40.9196 38.3538L40.72 38.264Z" fill="#41826E"/>
<path d="M45.0743 29.5043V29.5043C44.2469 29.3112 43.3941 29.7064 43.0061 30.4627L39.3873 37.5172L40.72 38.264M45.0743 29.5043L40.72 38.264M45.0743 29.5043V29.5043C45.1259 29.6801 45.1095 29.869 45.0283 30.0334L40.9196 38.3538L40.72 38.264" stroke="#1D1D1D" stroke-width="0.3"/>
<path d="M41.4307 38.7088C41.1816 39.1921 40.8139 39.5497 40.4272 39.7406C40.0405 39.9315 39.6451 39.952 39.3215 39.7851C38.9978 39.6182 38.7853 39.2841 38.7164 38.8583C38.6476 38.4325 38.7256 37.9255 38.9747 37.4421C39.2238 36.9588 39.5915 36.6012 39.9782 36.4104C40.3649 36.2195 40.7602 36.1989 41.0839 36.3658C41.4076 36.5328 41.6201 36.8668 41.6889 37.2927C41.7578 37.7184 41.6798 38.2255 41.4307 38.7088Z" fill="#41826E" stroke="#1D1D1D" stroke-width="0.3"/>
<path d="M41.1862 38.5626C40.9749 38.9726 40.6633 39.2752 40.3369 39.4363C40.0104 39.5975 39.6794 39.6136 39.4099 39.4746C39.1404 39.3356 38.9616 39.0565 38.9035 38.697C38.8454 38.3376 38.911 37.9082 39.1224 37.4982C39.3337 37.0882 39.6453 36.7856 39.9717 36.6245C40.2982 36.4634 40.6292 36.4472 40.8987 36.5862C41.1682 36.7252 41.347 37.0043 41.4051 37.3638C41.4632 37.7233 41.3976 38.1526 41.1862 38.5626Z" fill="#41826E" stroke="#1D1D1D" stroke-width="0.3"/>
<path d="M40.379 38.2221C40.1299 38.7054 39.7622 39.063 39.3755 39.2539C38.9888 39.4448 38.5934 39.4653 38.2698 39.2984C37.9461 39.1315 37.7336 38.7974 37.6648 38.3716C37.5959 37.9458 37.6739 37.4388 37.923 36.9554C38.1721 36.4721 38.5398 36.1145 38.9265 35.9237C39.3132 35.7328 39.7085 35.7122 40.0322 35.8791C40.3559 36.0461 40.5684 36.3801 40.6372 36.806C40.7061 37.2318 40.6281 37.7388 40.379 38.2221Z" fill="#41826E" stroke="#1D1D1D" stroke-width="0.3"/>
<path d="M40.1345 38.0759C39.9232 38.486 39.6116 38.7885 39.2852 38.9496C38.9587 39.1108 38.6277 39.1269 38.3582 38.9879C38.0887 38.8489 37.9099 38.5698 37.8518 38.2103C37.7937 37.8509 37.8593 37.4215 38.0707 37.0115C38.282 36.6015 38.5936 36.299 38.92 36.1378C39.2465 35.9767 39.5775 35.9605 39.847 36.0995C40.1165 36.2385 40.2953 36.5176 40.3535 36.8771C40.4116 37.2366 40.3459 37.6659 40.1345 38.0759Z" fill="#41826E" stroke="#1D1D1D" stroke-width="0.3"/>
<g style="mix-blend-mode:multiply">
<path d="M67.7765 81.586C67.7765 82.5883 58.6773 83.3985 47.4533 83.3985C36.2293 83.3985 26.0879 82.5883 26.0879 81.586C26.0879 80.5836 36.2293 79.7734 47.4533 79.7734C58.6773 79.7734 67.7765 80.5855 67.7765 81.586Z" fill="#759995" fill-opacity="0.6"/>
</g>
</svg>
