<svg width="260" height="147" viewBox="0 0 260 147" fill="none" xmlns="http://www.w3.org/2000/svg">
<rect width="260" height="147" rx="12" fill="#F0E7D5"/>
<g style="mix-blend-mode:multiply">
<path d="M163.75 113.625C163.75 115.353 149.017 116.75 130.844 116.75C112.67 116.75 96.25 115.353 96.25 113.625C96.25 111.897 112.67 110.5 130.844 110.5C149.017 110.5 163.75 111.9 163.75 113.625Z" fill="#90B3A8"/>
</g>
<path d="M113.928 48.4438L114.112 48.6111L114.174 48.3698C115.77 42.1207 120.527 36.8374 127.173 34.8574C137.224 31.8634 147.791 37.5571 150.774 47.5733C152.016 51.7406 151.749 55.9993 150.291 59.7681L150.18 60.0533L150.201 60.0472L133.858 98.111C132.231 101.9 127.557 103.292 124.122 101.011L94.1998 81.1413L94.1899 81.1347L94.179 81.1298C89.1585 78.8426 85.0683 74.3791 83.3296 68.5424C80.2114 58.0748 85.8395 47.1703 95.8846 44.178C102.371 42.2458 109.119 44.0817 113.928 48.4438Z" fill="#C5ECE0" stroke="#1D1D1D" stroke-width="0.3"/>
<g style="mix-blend-mode:multiply">
<path fill-rule="evenodd" clip-rule="evenodd" d="M122.979 100.19L123.792 100.732C127.306 103.074 132.084 101.651 133.744 97.7677L150.174 59.3261L150.14 59.3364C151.606 55.5293 151.871 51.2257 150.616 47.0135C149.57 43.5028 147.606 40.5165 145.064 38.2389C145.854 39.5946 146.496 41.0652 146.964 42.6356C148.281 47.057 148.006 51.5736 146.472 55.5683L146.508 55.5575L129.314 95.8931C128.176 98.564 125.633 100.125 122.979 100.19Z" fill="#C5ECE0"/>
</g>
<path d="M114.783 47.5778C114.028 49.3067 113.76 53.9861 110.154 56.6522" stroke="#1D1D1D" stroke-width="0.3"/>
<g style="mix-blend-mode:multiply">
<path d="M110.154 56.6527C112.788 54.5629 113.602 51.1046 114.106 48.74C113.592 47.8703 110.905 46.0063 110.926 46.3625C111.092 49.2116 110.921 52.9288 110.154 56.6527Z" fill="#C5ECE0"/>
</g>
<path d="M149.235 55.0018L149.322 55.2351L149.487 55.0491C153.206 50.8676 158.977 48.689 164.889 49.8095C173.829 51.5038 179.706 60.1003 178.018 69.0094C177.315 72.716 175.414 75.8927 172.789 78.2171L172.56 78.4199L172.577 78.423L144.821 101.257C142.064 103.525 137.916 102.739 136.18 99.6195L121.009 72.3553L121.003 72.3449L120.996 72.3355C118.036 68.5731 116.661 63.5034 117.645 58.3113C119.409 48.9995 128.091 42.8355 137.025 44.5287C142.794 45.622 147.265 49.7241 149.235 55.0018Z" fill="#FCF1D4" stroke="#1D1D1D" stroke-width="0.3"/>
<g style="mix-blend-mode:multiply">
<path fill-rule="evenodd" clip-rule="evenodd" d="M135.643 98.4883L136.055 99.2311C137.833 102.44 142.088 103.246 144.917 100.911L172.924 77.7932L172.893 77.7873C175.542 75.4337 177.462 72.2178 178.173 68.4667C178.766 65.3405 178.441 62.253 177.387 59.482C177.456 60.8427 177.366 62.2335 177.101 63.6317C176.354 67.5692 174.342 70.9453 171.565 73.4167L171.597 73.4228L142.246 97.6978C140.303 99.3053 137.718 99.4961 135.643 98.4883Z" fill="#FCF1D4"/>
</g>
<g style="mix-blend-mode:multiply">
<path d="M143.068 59.8248C145.933 59.2617 147.941 56.9176 149.273 55.2936C149.222 54.4171 147.892 51.9074 147.766 52.1906C146.759 54.4559 145.144 57.2564 143.068 59.8248Z" fill="#FCF1D4"/>
</g>
</svg>
