<svg width="260" height="147" viewBox="0 0 260 147" fill="none" xmlns="http://www.w3.org/2000/svg">
<rect width="260" height="147" rx="12" fill="#F0E7D5"/>
<g style="mix-blend-mode:multiply">
<path d="M177.648 101.868C177.648 105.44 156.881 108.327 131.264 108.327C105.646 108.327 82.5 105.44 82.5 101.868C82.5 98.2956 105.646 95.4082 131.264 95.4082C156.881 95.4082 177.648 98.3021 177.648 101.868Z" fill="#90B3A8"/>
</g>
<mask id="path-3-inside-1_378_6290" fill="white">
<path fill-rule="evenodd" clip-rule="evenodd" d="M177.577 90.2746C177.625 90.1654 177.649 90.0552 177.649 89.9442C177.649 87.1003 161.73 84.7949 142.092 84.7949C122.455 84.7949 106.535 87.1003 106.535 89.9442C106.535 90.0554 106.559 90.1657 106.607 90.2751C106.561 90.4062 106.535 90.5473 106.535 90.6944V101.497C106.535 101.716 106.592 101.922 106.691 102.102C106.588 102.261 106.535 102.423 106.535 102.587C106.535 105.43 122.455 107.736 142.093 107.736C161.73 107.736 177.65 105.43 177.65 102.587C177.65 102.423 177.597 102.261 177.494 102.102C177.593 101.922 177.65 101.716 177.65 101.497V90.6944C177.65 90.5471 177.624 90.4058 177.577 90.2746Z"/>
</mask>
<path fill-rule="evenodd" clip-rule="evenodd" d="M177.577 90.2746C177.625 90.1654 177.649 90.0552 177.649 89.9442C177.649 87.1003 161.73 84.7949 142.092 84.7949C122.455 84.7949 106.535 87.1003 106.535 89.9442C106.535 90.0554 106.559 90.1657 106.607 90.2751C106.561 90.4062 106.535 90.5473 106.535 90.6944V101.497C106.535 101.716 106.592 101.922 106.691 102.102C106.588 102.261 106.535 102.423 106.535 102.587C106.535 105.43 122.455 107.736 142.093 107.736C161.73 107.736 177.65 105.43 177.65 102.587C177.65 102.423 177.597 102.261 177.494 102.102C177.593 101.922 177.65 101.716 177.65 101.497V90.6944C177.65 90.5471 177.624 90.4058 177.577 90.2746Z" fill="#A5D6BF"/>
<path d="M177.577 90.2746L177.303 90.1544L177.255 90.2634L177.295 90.3753L177.577 90.2746ZM106.607 90.2751L106.89 90.3757L106.93 90.2637L106.882 90.1548L106.607 90.2751ZM106.691 102.102L106.943 102.264L107.04 102.113L106.953 101.956L106.691 102.102ZM177.494 102.102L177.232 101.956L177.145 102.113L177.242 102.264L177.494 102.102ZM177.852 90.3948C177.915 90.2511 177.949 90.1002 177.949 89.9442H177.349C177.349 90.0102 177.335 90.0796 177.303 90.1544L177.852 90.3948ZM177.949 89.9442C177.949 89.439 177.598 89.0137 177.1 88.6616C176.593 88.3023 175.863 87.9679 174.952 87.656C173.127 87.0311 170.502 86.4731 167.278 86.0062C160.825 85.0717 151.921 84.4949 142.092 84.4949V85.0949C151.901 85.0949 160.776 85.6708 167.192 86.6C170.403 87.0649 172.985 87.6166 174.758 88.2237C175.647 88.5279 176.314 88.8402 176.754 89.1513C177.203 89.4696 177.349 89.7385 177.349 89.9442H177.949ZM142.092 84.4949C132.264 84.4949 123.359 85.0717 116.907 86.0062C113.683 86.4731 111.058 87.0311 109.232 87.656C108.322 87.9679 107.592 88.3023 107.084 88.6616C106.587 89.0137 106.235 89.439 106.235 89.9442H106.835C106.835 89.7385 106.981 89.4696 107.431 89.1513C107.87 88.8402 108.538 88.5279 109.427 88.2237C111.2 87.6166 113.782 87.0649 116.993 86.6C123.409 85.6708 132.283 85.0949 142.092 85.0949V84.4949ZM106.235 89.9442C106.235 90.1004 106.27 90.2516 106.333 90.3955L106.882 90.1548C106.849 90.0799 106.835 90.0103 106.835 89.9442H106.235ZM106.835 90.6944C106.835 90.5821 106.855 90.475 106.89 90.3757L106.325 90.1745C106.267 90.3374 106.235 90.5126 106.235 90.6944H106.835ZM106.835 101.497V90.6944H106.235V101.497H106.835ZM106.953 101.956C106.878 101.82 106.835 101.664 106.835 101.497H106.235C106.235 101.768 106.305 102.024 106.429 102.247L106.953 101.956ZM106.439 101.939C106.311 102.138 106.235 102.355 106.235 102.587H106.835C106.835 102.491 106.865 102.385 106.943 102.264L106.439 101.939ZM106.235 102.587C106.235 103.092 106.587 103.517 107.084 103.869C107.592 104.228 108.322 104.563 109.232 104.875C111.058 105.5 113.683 106.058 116.907 106.525C123.36 107.459 132.264 108.036 142.093 108.036V107.436C132.283 107.436 123.409 106.86 116.993 105.931C113.782 105.466 111.2 104.914 109.427 104.307C108.538 104.003 107.871 103.691 107.431 103.379C106.981 103.061 106.835 102.792 106.835 102.587H106.235ZM142.093 108.036C151.921 108.036 160.825 107.459 167.278 106.525C170.502 106.058 173.127 105.5 174.953 104.875C175.863 104.563 176.593 104.228 177.101 103.869C177.598 103.517 177.95 103.092 177.95 102.587H177.35C177.35 102.792 177.204 103.061 176.754 103.379C176.314 103.691 175.647 104.003 174.758 104.307C172.985 104.914 170.403 105.466 167.192 105.931C160.776 106.86 151.902 107.436 142.093 107.436V108.036ZM177.95 102.587C177.95 102.355 177.874 102.138 177.746 101.939L177.242 102.264C177.32 102.385 177.35 102.491 177.35 102.587H177.95ZM177.35 101.497C177.35 101.664 177.307 101.82 177.232 101.956L177.757 102.247C177.88 102.024 177.95 101.768 177.95 101.497H177.35ZM177.35 90.6944V101.497H177.95V90.6944H177.35ZM177.295 90.3753C177.33 90.4747 177.35 90.5819 177.35 90.6944H177.95C177.95 90.5123 177.918 90.337 177.86 90.1739L177.295 90.3753Z" fill="#1D1D1D" mask="url(#path-3-inside-1_378_6290)"/>
<path d="M177.499 89.8601C177.499 90.1274 177.305 90.4245 176.842 90.7417C176.386 91.0549 175.702 91.3628 174.808 91.6595C173.021 92.2521 170.428 92.788 167.214 93.2389C160.788 94.1405 151.906 94.6986 142.092 94.6986C132.278 94.6986 123.396 94.1405 116.97 93.2389C113.756 92.788 111.163 92.2521 109.377 91.6595C108.482 91.3628 107.799 91.0549 107.342 90.7417C106.88 90.4245 106.685 90.1274 106.685 89.8601C106.685 89.5928 106.88 89.2957 107.342 88.9784C107.799 88.6653 108.482 88.3573 109.377 88.0607C111.163 87.4681 113.756 86.9321 116.97 86.4812C123.396 85.5797 132.278 85.0216 142.092 85.0216C151.906 85.0216 160.788 85.5797 167.214 86.4812C170.428 86.9321 173.021 87.4681 174.808 88.0607C175.702 88.3573 176.386 88.6653 176.842 88.9784C177.305 89.2957 177.499 89.5928 177.499 89.8601Z" fill="#A5D6BF" stroke="#1D1D1D" stroke-width="0.3"/>
<mask id="path-6-inside-2_378_6290" fill="white">
<path fill-rule="evenodd" clip-rule="evenodd" d="M170.099 77.1539C170.221 77.0153 170.283 76.8746 170.283 76.7321C170.283 74.5763 156.013 72.8286 138.409 72.8286C120.806 72.8286 106.535 74.5763 106.535 76.7321C106.535 76.8747 106.598 77.0155 106.719 77.1541C106.603 77.3442 106.535 77.5678 106.535 77.8071V89.4412C106.535 89.6472 106.585 89.8415 106.673 90.0128C106.582 90.1332 106.535 90.2552 106.535 90.3785C106.535 92.5344 120.806 94.282 138.409 94.282C156.013 94.282 170.283 92.5344 170.283 90.3785C170.283 90.2552 170.237 90.1332 170.145 90.0128C170.234 89.8415 170.283 89.6472 170.283 89.4412V77.8071C170.283 77.5677 170.216 77.344 170.099 77.1539Z"/>
</mask>
<path fill-rule="evenodd" clip-rule="evenodd" d="M170.099 77.1539C170.221 77.0153 170.283 76.8746 170.283 76.7321C170.283 74.5763 156.013 72.8286 138.409 72.8286C120.806 72.8286 106.535 74.5763 106.535 76.7321C106.535 76.8747 106.598 77.0155 106.719 77.1541C106.603 77.3442 106.535 77.5678 106.535 77.8071V89.4412C106.535 89.6472 106.585 89.8415 106.673 90.0128C106.582 90.1332 106.535 90.2552 106.535 90.3785C106.535 92.5344 120.806 94.282 138.409 94.282C156.013 94.282 170.283 92.5344 170.283 90.3785C170.283 90.2552 170.237 90.1332 170.145 90.0128C170.234 89.8415 170.283 89.6472 170.283 89.4412V77.8071C170.283 77.5677 170.216 77.344 170.099 77.1539Z" fill="#A5D6BF"/>
<path d="M170.099 77.1539L169.874 76.956L169.728 77.1223L169.844 77.3109L170.099 77.1539ZM106.719 77.1541L106.975 77.3111L107.091 77.1225L106.945 76.9562L106.719 77.1541ZM106.673 90.0128L106.912 90.1941L107.027 90.0435L106.94 89.8754L106.673 90.0128ZM170.145 90.0128L169.879 89.8754L169.792 90.0435L169.906 90.1941L170.145 90.0128ZM170.325 77.3517C170.478 77.1765 170.583 76.9683 170.583 76.7321H169.983C169.983 76.7809 169.963 76.8541 169.874 76.956L170.325 77.3517ZM170.583 76.7321C170.583 76.289 170.225 75.9483 169.79 75.688C169.332 75.4143 168.677 75.1607 167.862 74.9245C166.226 74.4509 163.874 74.028 160.984 73.6741C155.2 72.9659 147.219 72.5286 138.409 72.5286V73.1286C147.203 73.1286 155.158 73.5652 160.911 74.2697C163.789 74.6222 166.105 75.0405 167.695 75.5009C168.492 75.7317 169.09 75.9683 169.482 76.2028C169.896 76.4507 169.983 76.6363 169.983 76.7321H170.583ZM138.409 72.5286C129.599 72.5286 121.618 72.9659 115.834 73.6741C112.945 74.028 110.592 74.4509 108.957 74.9245C108.141 75.1607 107.486 75.4143 107.029 75.688C106.594 75.9483 106.235 76.289 106.235 76.7321H106.835C106.835 76.6363 106.923 76.4507 107.337 76.2028C107.729 75.9683 108.326 75.7317 109.123 75.5009C110.713 75.0405 113.029 74.6222 115.907 74.2697C121.66 73.5652 129.616 73.1286 138.409 73.1286V72.5286ZM106.235 76.7321C106.235 76.9685 106.34 77.1768 106.494 77.352L106.945 76.9562C106.855 76.8542 106.835 76.7809 106.835 76.7321H106.235ZM106.835 77.8071C106.835 77.6248 106.886 77.4552 106.975 77.3111L106.464 76.9972C106.319 77.2331 106.235 77.5108 106.235 77.8071H106.835ZM106.835 89.4412V77.8071H106.235V89.4412H106.835ZM106.94 89.8754C106.873 89.7456 106.835 89.5983 106.835 89.4412H106.235C106.235 89.6961 106.297 89.9374 106.407 90.1502L106.94 89.8754ZM106.434 89.8315C106.314 89.9907 106.235 90.1747 106.235 90.3785H106.835C106.835 90.3357 106.851 90.2757 106.912 90.1941L106.434 89.8315ZM106.235 90.3785C106.235 90.8217 106.594 91.1623 107.029 91.4226C107.486 91.6963 108.141 91.95 108.957 92.1861C110.592 92.6597 112.945 93.0826 115.835 93.4365C121.618 94.1448 129.599 94.582 138.409 94.582V93.982C129.616 93.982 121.66 93.5454 115.908 92.8409C113.029 92.4884 110.714 92.0702 109.124 91.6098C108.326 91.3789 107.729 91.1423 107.337 90.9078C106.923 90.6599 106.835 90.4743 106.835 90.3785H106.235ZM138.409 94.582C147.219 94.582 155.201 94.1448 160.984 93.4365C163.874 93.0826 166.226 92.6597 167.862 92.1861C168.678 91.95 169.333 91.6963 169.79 91.4226C170.225 91.1623 170.583 90.8217 170.583 90.3785H169.983C169.983 90.4743 169.896 90.6599 169.482 90.9078C169.09 91.1423 168.492 91.3789 167.695 91.6098C166.105 92.0702 163.79 92.4884 160.911 92.8409C155.159 93.5454 147.203 93.982 138.409 93.982V94.582ZM170.583 90.3785C170.583 90.1748 170.505 89.9907 170.384 89.8315L169.906 90.1941C169.968 90.2757 169.983 90.3356 169.983 90.3785H170.583ZM169.983 89.4412C169.983 89.5983 169.945 89.7456 169.879 89.8754L170.412 90.1502C170.522 89.9374 170.583 89.6961 170.583 89.4412H169.983ZM169.983 77.8071V89.4412H170.583V77.8071H169.983ZM169.844 77.3109C169.932 77.4551 169.983 77.6247 169.983 77.8071H170.583C170.583 77.5107 170.5 77.2328 170.355 76.9968L169.844 77.3109Z" fill="#1D1D1D" mask="url(#path-6-inside-2_378_6290)"/>
<path d="M170.133 76.7155C170.133 76.8967 169.978 77.1199 169.559 77.37C169.151 77.6133 168.539 77.8531 167.737 78.0843C166.135 78.5461 163.811 78.9637 160.929 79.315C155.169 80.0175 147.207 80.4524 138.409 80.4524C129.611 80.4524 121.649 80.0175 115.889 79.315C113.008 78.9637 110.683 78.5461 109.082 78.0843C108.28 77.8531 107.668 77.6133 107.26 77.37C106.84 77.1199 106.685 76.8967 106.685 76.7155C106.685 76.5343 106.84 76.3111 107.26 76.061C107.668 75.8177 108.28 75.5779 109.082 75.3467C110.683 74.8849 113.008 74.4673 115.889 74.116C121.649 73.4135 129.611 72.9786 138.409 72.9786C147.207 72.9786 155.169 73.4135 160.929 74.116C163.811 74.4673 166.135 74.8849 167.737 75.3467C168.539 75.5779 169.151 75.8177 169.559 76.061C169.978 76.3111 170.133 76.5343 170.133 76.7155Z" fill="#A5D6BF" stroke="#1D1D1D" stroke-width="0.3"/>
<mask id="path-9-inside-3_378_6290" fill="white">
<path fill-rule="evenodd" clip-rule="evenodd" d="M161.422 66.2262C161.598 66.0747 161.689 65.92 161.689 65.7627C161.689 63.9295 149.342 62.4434 134.112 62.4434C118.882 62.4434 106.535 63.9295 106.535 65.7627C106.535 65.92 106.626 66.0749 106.802 66.2264C106.635 66.439 106.535 66.707 106.535 66.9984V75.7225C106.535 75.9686 106.606 76.198 106.729 76.3915C106.601 76.5212 106.535 76.6532 106.535 76.7871C106.535 78.6203 118.882 80.1064 134.112 80.1064C149.343 80.1064 161.689 78.6203 161.689 76.7871C161.689 76.6532 161.623 76.5212 161.495 76.3915C161.618 76.198 161.689 75.9686 161.689 75.7225V66.9984C161.689 66.7069 161.59 66.4388 161.422 66.2262Z"/>
</mask>
<path fill-rule="evenodd" clip-rule="evenodd" d="M161.422 66.2262C161.598 66.0747 161.689 65.92 161.689 65.7627C161.689 63.9295 149.342 62.4434 134.112 62.4434C118.882 62.4434 106.535 63.9295 106.535 65.7627C106.535 65.92 106.626 66.0749 106.802 66.2264C106.635 66.439 106.535 66.707 106.535 66.9984V75.7225C106.535 75.9686 106.606 76.198 106.729 76.3915C106.601 76.5212 106.535 76.6532 106.535 76.7871C106.535 78.6203 118.882 80.1064 134.112 80.1064C149.343 80.1064 161.689 78.6203 161.689 76.7871C161.689 76.6532 161.623 76.5212 161.495 76.3915C161.618 76.198 161.689 75.9686 161.689 75.7225V66.9984C161.689 66.7069 161.59 66.4388 161.422 66.2262Z" fill="#A5D6BF"/>
<path d="M161.422 66.2262L161.227 65.9989L161.009 66.1862L161.187 66.4117L161.422 66.2262ZM106.802 66.2264L107.038 66.4118L107.215 66.1863L106.998 65.9991L106.802 66.2264ZM106.729 76.3915L106.943 76.6022L107.11 76.4322L106.983 76.2307L106.729 76.3915ZM161.495 76.3915L161.242 76.2307L161.114 76.4322L161.282 76.6022L161.495 76.3915ZM161.618 66.4535C161.825 66.2749 161.989 66.0446 161.989 65.7627H161.389C161.389 65.7954 161.371 65.8745 161.227 65.9989L161.618 66.4535ZM161.989 65.7627C161.989 65.3573 161.657 65.0563 161.281 64.8351C160.881 64.5999 160.311 64.3832 159.604 64.1821C158.186 63.7786 156.149 63.4187 153.648 63.1177C148.642 62.5152 141.735 62.1434 134.112 62.1434V62.7434C141.719 62.7434 148.601 63.1146 153.576 63.7134C156.066 64.0131 158.067 64.3685 159.44 64.7592C160.129 64.9552 160.642 65.1553 160.977 65.3523C161.335 65.5633 161.389 65.7097 161.389 65.7627H161.989ZM134.112 62.1434C126.489 62.1434 119.582 62.5152 114.576 63.1177C112.076 63.4187 110.038 63.7786 108.62 64.1821C107.913 64.3832 107.343 64.5999 106.943 64.8351C106.567 65.0563 106.235 65.3573 106.235 65.7627H106.835C106.835 65.7097 106.889 65.5633 107.248 65.3523C107.582 65.1553 108.096 64.9552 108.784 64.7592C110.157 64.3685 112.158 64.0131 114.648 63.7134C119.623 63.1146 126.505 62.7434 134.112 62.7434V62.1434ZM106.235 65.7627C106.235 66.0447 106.399 66.2752 106.606 66.4537L106.998 65.9991C106.853 65.8746 106.835 65.7954 106.835 65.7627H106.235ZM106.835 66.9984C106.835 66.7766 106.911 66.5734 107.038 66.4118L106.566 66.041C106.359 66.3045 106.235 66.6374 106.235 66.9984H106.835ZM106.835 75.7225V66.9984H106.235V75.7225H106.835ZM106.983 76.2307C106.889 76.0839 106.835 75.91 106.835 75.7225H106.235C106.235 76.0272 106.324 76.3121 106.476 76.5522L106.983 76.2307ZM106.516 76.1807C106.355 76.344 106.235 76.5474 106.235 76.7871H106.835C106.835 76.759 106.848 76.6984 106.943 76.6022L106.516 76.1807ZM106.235 76.7871C106.235 77.1924 106.568 77.4935 106.944 77.7146C107.343 77.9498 107.914 78.1666 108.62 78.3677C110.038 78.7712 112.076 79.131 114.577 79.432C119.582 80.0345 126.489 80.4064 134.112 80.4064V79.8064C126.505 79.8064 119.624 79.4352 114.648 78.8363C112.159 78.5367 110.158 78.1813 108.785 77.7906C108.096 77.5946 107.583 77.3944 107.248 77.1975C106.889 76.9865 106.835 76.8401 106.835 76.7871H106.235ZM134.112 80.4064C141.736 80.4064 148.642 80.0345 153.648 79.432C156.149 79.131 158.186 78.7712 159.604 78.3677C160.311 78.1666 160.881 77.9498 161.281 77.7146C161.657 77.4935 161.989 77.1924 161.989 76.7871H161.389C161.389 76.8401 161.336 76.9865 160.977 77.1975C160.642 77.3944 160.129 77.5946 159.44 77.7906C158.067 78.1813 156.066 78.5367 153.576 78.8363C148.601 79.4352 141.719 79.8064 134.112 79.8064V80.4064ZM161.989 76.7871C161.989 76.5474 161.87 76.344 161.709 76.1807L161.282 76.6022C161.377 76.6984 161.389 76.759 161.389 76.7871H161.989ZM161.389 75.7225C161.389 75.91 161.335 76.0839 161.242 76.2307L161.749 76.5522C161.901 76.3122 161.989 76.0272 161.989 75.7225H161.389ZM161.389 66.9984V75.7225H161.989V66.9984H161.389ZM161.187 66.4117C161.314 66.5733 161.389 66.7766 161.389 66.9984H161.989C161.989 66.6373 161.865 66.3043 161.658 66.0407L161.187 66.4117Z" fill="#1D1D1D" mask="url(#path-9-inside-3_378_6290)"/>
<path d="M161.539 65.7117C161.539 65.85 161.417 66.0331 161.053 66.245C160.702 66.4496 160.175 66.6521 159.481 66.8476C158.097 67.2379 156.087 67.5911 153.594 67.8884C148.611 68.4827 141.723 68.8506 134.112 68.8506C126.501 68.8506 119.613 68.4827 114.63 67.8884C112.138 67.5911 110.127 67.2379 108.743 66.8476C108.05 66.6521 107.522 66.4496 107.171 66.245C106.807 66.0331 106.685 65.85 106.685 65.7117C106.685 65.5735 106.807 65.3904 107.171 65.1785C107.522 64.9739 108.05 64.7714 108.743 64.5759C110.127 64.1856 112.138 63.8324 114.63 63.5351C119.613 62.9408 126.501 62.5729 134.112 62.5729C141.723 62.5729 148.611 62.9408 153.594 63.5351C156.087 63.8324 158.097 64.1856 159.481 64.5759C160.175 64.7714 160.702 64.9739 161.053 65.1785C161.417 65.3904 161.539 65.5735 161.539 65.7117Z" fill="#A5D6BF" stroke="#1D1D1D" stroke-width="0.3"/>
<g style="mix-blend-mode:multiply">
<path d="M156.408 65.5694C156.408 67.0195 149.723 68.1916 141.476 68.1916C133.23 68.1916 125.779 67.0195 125.779 65.5694C125.779 64.1194 133.23 62.9473 141.476 62.9473C149.723 62.9473 156.408 64.122 156.408 65.5694Z" fill="#90B3A8"/>
</g>
<g style="mix-blend-mode:multiply">
<path d="M125.362 65.5406C125.362 66.5751 121.344 67.4113 116.387 67.4113C111.431 67.4113 106.953 66.5751 106.953 65.5406C106.953 64.5061 111.431 63.6699 116.387 63.6699C121.344 63.6699 125.362 64.508 125.362 65.5406Z" fill="#90B3A8"/>
</g>
<path d="M131.326 40.7421C133.295 40.6358 135.032 42.0245 135.362 43.969L138.367 61.6967C138.754 63.9786 137.069 66.0868 134.758 66.2116L113.391 67.3654C111.422 67.4718 109.685 66.0831 109.356 64.1386L106.35 46.4109C105.963 44.129 107.649 42.0207 109.959 41.896L131.326 40.7421Z" fill="#FCEDB6" stroke="#1D1D1D" stroke-width="0.3"/>
<path d="M131.939 40.7058C133.561 40.6199 134.993 41.7608 135.271 43.3616L138.384 61.286C138.713 63.1779 137.316 64.9305 135.398 65.0321L113.83 66.175C112.208 66.2609 110.777 65.12 110.499 63.5192L107.386 45.5948C107.057 43.7029 108.454 41.9503 110.371 41.8487L131.939 40.7058Z" fill="white" stroke="#1D1D1D" stroke-width="0.3"/>
<path opacity="0.5" d="M110.736 49.1875L133.772 47.9502L134.177 49.9607L111.1 51.198L110.736 49.1875Z" fill="#DEF4E7"/>
<path opacity="0.5" d="M110.113 45.4755L133.149 44.2383L133.554 46.2488L110.477 47.4861L110.113 45.4755Z" fill="#DEF4E7"/>
<path opacity="0.5" d="M111.359 52.8994L134.395 51.6621L134.8 53.6727L111.723 54.9099L111.359 52.8994Z" fill="#DEF4E7"/>
<path opacity="0.5" d="M111.98 56.6103L135.016 55.373L135.421 57.3836L112.344 58.6208L111.98 56.6103Z" fill="#DEF4E7"/>
<path opacity="0.5" d="M112.604 60.3227L135.639 59.0854L136.044 61.096L112.967 62.3332L112.604 60.3227Z" fill="#DEF4E7"/>
<path d="M110.424 49.2017L114.111 51.9225L117.634 46.4033L123.646 51.9225L126.711 48.611L130.091 51.9225L132.55 54.4455L134.394 49.944" stroke="#41826E" stroke-width="0.3" stroke-linecap="round"/>
<path d="M111.208 49.4966C111.208 49.7545 110.998 49.9652 110.736 49.9652C110.474 49.9652 110.263 49.7545 110.263 49.4966C110.263 49.2386 110.474 49.0279 110.736 49.0279C110.998 49.0279 111.208 49.2386 111.208 49.4966Z" fill="#41826E" stroke="#41826E" stroke-width="0.3"/>
<path d="M118.056 46.4038C118.056 46.6617 117.845 46.8724 117.584 46.8724C117.322 46.8724 117.111 46.6617 117.111 46.4038C117.111 46.1459 117.322 45.9352 117.584 45.9352C117.845 45.9352 118.056 46.1459 118.056 46.4038Z" fill="#41826E" stroke="#41826E" stroke-width="0.3"/>
<path d="M127.085 48.5688C127.085 48.8267 126.875 49.0375 126.613 49.0375C126.351 49.0375 126.14 48.8267 126.14 48.5688C126.14 48.3109 126.351 48.1002 126.613 48.1002C126.875 48.1002 127.085 48.3109 127.085 48.5688Z" fill="#41826E" stroke="#41826E" stroke-width="0.3"/>
<path d="M132.999 54.4458C132.999 54.7037 132.789 54.9144 132.527 54.9144C132.265 54.9144 132.054 54.7037 132.054 54.4458C132.054 54.1879 132.265 53.9771 132.527 53.9771C132.789 53.9771 132.999 54.1879 132.999 54.4458Z" fill="#41826E" stroke="#41826E" stroke-width="0.3"/>
<path d="M123.972 51.9717C123.972 52.2296 123.761 52.4403 123.5 52.4403C123.238 52.4403 123.027 52.2296 123.027 51.9717C123.027 51.7137 123.238 51.503 123.5 51.503C123.761 51.503 123.972 51.7137 123.972 51.9717Z" fill="#41826E" stroke="#41826E" stroke-width="0.3"/>
<path d="M134.867 49.8066C134.867 50.0645 134.656 50.2752 134.394 50.2752C134.132 50.2752 133.921 50.0645 133.921 49.8066C133.921 49.5487 134.132 49.338 134.394 49.338C134.656 49.338 134.867 49.5487 134.867 49.8066Z" fill="#41826E" stroke="#41826E" stroke-width="0.3"/>
<path d="M111.982 57.2126L115.574 59.0856L119.005 56.4352L124.861 59.0856L127.847 57.0485L131.139 57.9685L133.534 58.6694L135.33 56.3018" stroke="#E5C267" stroke-width="0.3" stroke-linecap="round"/>
<path d="M112.455 57.23C112.455 57.4879 112.244 57.6986 111.982 57.6986C111.72 57.6986 111.509 57.4879 111.509 57.23C111.509 56.972 111.72 56.7613 111.982 56.7613C112.244 56.7613 112.455 56.972 112.455 57.23Z" fill="#E5C267" stroke="#E5C267" stroke-width="0.3"/>
<path d="M119.615 56.3017C119.615 56.5596 119.404 56.7704 119.142 56.7704C118.88 56.7704 118.67 56.5596 118.67 56.3017C118.67 56.0438 118.88 55.8331 119.142 55.8331C119.404 55.8331 119.615 56.0438 119.615 56.3017Z" fill="#E5C267" stroke="#E5C267" stroke-width="0.3"/>
<path d="M128.332 56.9204C128.332 57.1783 128.121 57.389 127.859 57.389C127.597 57.389 127.386 57.1783 127.386 56.9204C127.386 56.6625 127.597 56.4518 127.859 56.4518C128.121 56.4518 128.332 56.6625 128.332 56.9204Z" fill="#E5C267" stroke="#E5C267" stroke-width="0.3"/>
<path d="M133.935 58.7763C133.935 59.0343 133.724 59.245 133.462 59.245C133.201 59.245 132.99 59.0343 132.99 58.7763C132.99 58.5184 133.201 58.3077 133.462 58.3077C133.724 58.3077 133.935 58.5184 133.935 58.7763Z" fill="#E5C267" stroke="#E5C267" stroke-width="0.3"/>
<path d="M125.218 59.0864C125.218 59.3443 125.008 59.555 124.746 59.555C124.484 59.555 124.273 59.3443 124.273 59.0864C124.273 58.8285 124.484 58.6178 124.746 58.6178C125.008 58.6178 125.218 58.8285 125.218 59.0864Z" fill="#E5C267" stroke="#E5C267" stroke-width="0.3"/>
<path d="M135.802 56.3017C135.802 56.5596 135.592 56.7704 135.33 56.7704C135.068 56.7704 134.857 56.5596 134.857 56.3017C134.857 56.0438 135.068 55.8331 135.33 55.8331C135.592 55.8331 135.802 56.0438 135.802 56.3017Z" fill="#E5C267" stroke="#E5C267" stroke-width="0.3"/>
<path d="M156.414 62.9025C156.414 61.3095 151.928 60.0181 146.394 60.0181C140.861 60.0181 136.375 61.3095 136.375 62.9025V65.0002C136.375 66.5932 140.861 67.8846 146.394 67.8846C151.928 67.8846 156.414 66.5932 156.414 65.0002V62.9025Z" fill="#FCEDB6" stroke="#1D1D1D" stroke-width="0.3" stroke-linecap="round" stroke-linejoin="round"/>
<ellipse cx="146.394" cy="62.9025" rx="10.0194" ry="2.88439" fill="white" stroke="#1D1D1D" stroke-width="0.3" stroke-linecap="round" stroke-linejoin="round"/>
<g style="mix-blend-mode:multiply">
<path d="M156.414 61.8274C156.414 60.3937 151.928 59.2314 146.394 59.2314C140.861 59.2314 136.375 60.3937 136.375 61.8274V63.7154C136.375 65.1491 140.861 66.3113 146.394 66.3113C151.928 66.3113 156.414 65.1491 156.414 63.7154V61.8274Z" fill="#FCEDB6"/>
</g>
<path d="M154.115 60.8048C154.115 59.2118 149.629 57.9204 144.096 57.9204C138.562 57.9204 134.076 59.2118 134.076 60.8048V62.9025C134.076 64.4956 138.562 65.7869 144.096 65.7869C149.629 65.7869 154.115 64.4956 154.115 62.9025V60.8048Z" fill="#FCEDB6" stroke="#1D1D1D" stroke-width="0.3" stroke-linecap="round" stroke-linejoin="round"/>
<ellipse cx="144.096" cy="60.8048" rx="10.0194" ry="2.88439" fill="white" stroke="#1D1D1D" stroke-width="0.3" stroke-linecap="round" stroke-linejoin="round"/>
<g style="mix-blend-mode:multiply">
<path d="M154.115 59.7297C154.115 58.296 149.629 57.1338 144.096 57.1338C138.562 57.1338 134.076 58.296 134.076 59.7297V61.6177C134.076 63.0514 138.562 64.2137 144.096 64.2137C149.629 64.2137 154.115 63.0514 154.115 61.6177V59.7297Z" fill="#FCEDB6"/>
</g>
<path d="M154.115 58.7067C154.115 57.1137 149.629 55.8223 144.096 55.8223C138.562 55.8223 134.076 57.1137 134.076 58.7067V60.8044C134.076 62.3974 138.562 63.6888 144.096 63.6888C149.629 63.6888 154.115 62.3974 154.115 60.8044V58.7067Z" fill="#FCEDB6" stroke="#1D1D1D" stroke-width="0.3" stroke-linecap="round" stroke-linejoin="round"/>
<ellipse cx="144.096" cy="58.7067" rx="10.0194" ry="2.88439" fill="white" stroke="#1D1D1D" stroke-width="0.3" stroke-linecap="round" stroke-linejoin="round"/>
<g style="mix-blend-mode:multiply">
<path d="M154.115 57.6316C154.115 56.1979 149.629 55.0356 144.096 55.0356C138.562 55.0356 134.076 56.1979 134.076 57.6316V59.5196C134.076 60.9533 138.562 62.1155 144.096 62.1155C149.629 62.1155 154.115 60.9533 154.115 59.5196V57.6316Z" fill="#FCEDB6"/>
</g>
<path d="M154.115 56.609C154.115 55.016 149.629 53.7246 144.096 53.7246C138.562 53.7246 134.076 55.016 134.076 56.609V58.7067C134.076 60.2997 138.562 61.5911 144.096 61.5911C149.629 61.5911 154.115 60.2997 154.115 58.7067V56.609Z" fill="#FCEDB6" stroke="#1D1D1D" stroke-width="0.3" stroke-linecap="round" stroke-linejoin="round"/>
<g style="mix-blend-mode:multiply">
<path d="M154.115 55.8661C154.115 54.5386 149.629 53.4624 144.096 53.4624C138.562 53.4624 134.076 54.5386 134.076 55.8661V57.6142C134.076 58.9417 138.562 60.0178 144.096 60.0178C149.629 60.0178 154.115 58.9417 154.115 57.6142V55.8661Z" fill="#FCEDB6"/>
</g>
<ellipse cx="144.096" cy="56.609" rx="10.0194" ry="2.88439" fill="white" stroke="#1D1D1D" stroke-width="0.3" stroke-linecap="round" stroke-linejoin="round"/>
<path d="M156.414 54.5113C156.414 52.9183 151.928 51.627 146.394 51.627C140.861 51.627 136.375 52.9183 136.375 54.5113V56.6091C136.375 58.2021 140.861 59.4935 146.394 59.4935C151.928 59.4935 156.414 58.2021 156.414 56.6091V54.5113Z" fill="#FCEDB6" stroke="#1D1D1D" stroke-width="0.3" stroke-linecap="round" stroke-linejoin="round"/>
<g style="mix-blend-mode:multiply">
<path d="M154.114 54.6953C154.114 53.5802 150.143 52.6763 145.245 52.6763C140.346 52.6763 136.375 53.5802 136.375 54.6953V56.1638C136.375 57.2789 140.346 58.1828 145.245 58.1828C150.143 58.1828 154.114 57.2789 154.114 56.1638V54.6953Z" fill="#FCEDB6"/>
</g>
<ellipse cx="146.394" cy="54.5113" rx="10.0194" ry="2.88439" fill="white" stroke="#1D1D1D" stroke-width="0.3" stroke-linecap="round" stroke-linejoin="round"/>
<path d="M154.115 52.4137C154.115 50.8207 149.629 49.5293 144.096 49.5293C138.562 49.5293 134.076 50.8207 134.076 52.4137V54.5114C134.076 56.1044 138.562 57.3958 144.096 57.3958C149.629 57.3958 154.115 56.1044 154.115 54.5114V52.4137Z" fill="#FCEDB6" stroke="#1D1D1D" stroke-width="0.3" stroke-linecap="round" stroke-linejoin="round"/>
<ellipse cx="144.096" cy="52.4137" rx="10.0194" ry="2.88439" fill="white" stroke="#1D1D1D" stroke-width="0.3" stroke-linecap="round" stroke-linejoin="round"/>
<path d="M152.324 47.7227C152.616 47.6491 152.865 47.9606 152.658 48.1412C152.509 48.2714 152.464 48.4657 152.538 48.6462C152.647 48.9149 152.267 49.1082 152.008 48.9157C151.834 48.7863 151.595 48.7364 151.384 48.7895C151.091 48.8631 150.842 48.5516 151.05 48.371C151.199 48.2409 151.243 48.0466 151.17 47.866C151.061 47.5974 151.44 47.4041 151.699 47.5966C151.873 47.726 152.113 47.7758 152.324 47.7227Z" fill="#FAE3C3" stroke="#1D1D1D" stroke-width="0.3"/>
</svg>
