<svg width="260" height="147" viewBox="0 0 260 147" fill="none" xmlns="http://www.w3.org/2000/svg">
<rect width="260" height="147" rx="12" fill="#F0E7D5"/>
<path d="M97.5371 40.032L102.457 34.6196H155.843V101.044L151.168 106.456H97.5371V40.032Z" fill="#F2D891"/>
<path d="M97.5371 106.456H151.168L155.843 101.044V34.6196H102.457L97.5371 40.032V106.456ZM97.5371 106.456L102.457 101.044" stroke="#1D1D1D" stroke-width="0.3"/>
<mask id="mask0_378_6304" style="mask-type:alpha" maskUnits="userSpaceOnUse" x="102" y="34" width="54" height="68">
<path d="M102.461 34.6196H155.6V101.044H102.461V34.6196Z" fill="white" stroke="#1D1D1D" stroke-width="0.3"/>
</mask>
<g mask="url(#mask0_378_6304)">
<path d="M102.461 34.6196H156.092V101.044H102.461V34.6196Z" fill="white" stroke="#1D1D1D" stroke-width="0.3"/>
<g style="mix-blend-mode:multiply">
<path d="M102.461 34.6196H155.6V95.6314H102.461V34.6196Z" fill="#90B3A8"/>
</g>
</g>
<path d="M102.473 34.6196C102.438 36.5898 102.473 38.6561 102.473 40.8461V41.1211C102.473 44.5965 102.473 48.3416 102.473 52.1106C102.473 54.0238 102.436 56.0098 102.473 57.9398C102.941 82.3264 107.886 88.4913 110.665 96.1234H165.437C162.739 83.584 155.859 72.2756 155.859 46.3184C155.818 44.8078 155.859 43.2691 155.859 41.7124C155.859 39.1726 155.879 36.8331 155.872 34.6196H102.473Z" fill="white" stroke="#1D1D1D" stroke-width="0.3"/>
<path d="M106.9 38.0645C106.871 39.7509 106.9 41.5196 106.9 43.3943V43.6297C106.9 46.6047 106.9 49.8105 106.9 53.0367C106.9 54.6744 106.87 56.3744 106.9 58.0265C107.292 78.9014 111.917 84.1786 114.24 90.7117H160.026C157.77 79.9779 152.02 70.298 152.02 48.0786C151.985 46.7855 152.02 45.4684 152.02 44.1359C152.02 41.9618 152.036 39.9592 152.03 38.0645H106.9Z" fill="#FCF1D4" stroke="#1D1D1D" stroke-width="0.3"/>
<path d="M106.9 38.0645C106.871 39.7509 106.9 41.5196 106.9 43.3943V43.6297C106.9 45.0667 106.9 46.5576 106.9 48.0786C106.9 49.7065 106.9 51.3689 106.9 53.0367C106.9 54.6744 106.87 56.3744 106.9 58.0265C106.931 59.6666 106.988 61.2103 107.068 62.666C107.165 64.4307 107.295 66.066 107.454 67.5863C107.672 69.6771 107.943 71.5506 108.253 73.2446C108.627 75.2877 109.056 77.0696 109.516 78.657C110.122 80.7482 110.78 82.5017 111.432 84.0693C112.462 86.5479 113.476 88.5618 114.24 90.7117H160.026C159.56 88.4926 158.944 86.3185 158.261 84.0693C157.732 82.3287 157.162 80.5432 156.59 78.657C156.072 76.9491 155.552 75.1588 155.058 73.2446C154.601 71.4752 154.166 69.6 153.776 67.5863C153.475 66.0335 153.2 64.3984 152.962 62.666C152.759 61.1929 152.583 59.6495 152.44 58.0265C152.3 56.442 152.191 54.7815 152.119 53.0367C152.054 51.4555 152.02 49.8049 152.02 48.0786C151.985 46.7855 152.02 45.4684 152.02 44.1359C152.02 41.9618 152.036 39.9592 152.03 38.0645H106.9Z" fill="white"/>
<path d="M106.9 53.0367C106.9 54.6744 106.87 56.3744 106.9 58.0265M106.9 53.0367H152.119M106.9 53.0367C106.9 51.3689 106.9 49.7065 106.9 48.0786M106.9 58.0265H152.44M106.9 58.0265C106.931 59.6666 106.988 61.2103 107.068 62.666M152.02 48.0786C151.985 46.7855 152.02 45.4684 152.02 44.1359C152.02 41.9618 152.036 39.9592 152.03 38.0645H106.9C106.871 39.7509 106.9 41.5196 106.9 43.3943V43.6297C106.9 45.0667 106.9 46.5576 106.9 48.0786M152.02 48.0786C152.02 49.8049 152.054 51.4555 152.119 53.0367M152.02 48.0786H106.9M152.119 53.0367C152.191 54.7815 152.3 56.442 152.44 58.0265M152.44 58.0265C152.583 59.6495 152.759 61.1929 152.962 62.666M107.068 62.666H152.962M107.068 62.666C107.165 64.4307 107.295 66.066 107.454 67.5863M152.962 62.666C153.2 64.3984 153.475 66.0335 153.776 67.5863M107.454 67.5863H153.776M107.454 67.5863C107.672 69.6771 107.943 71.5506 108.253 73.2446M153.776 67.5863C154.166 69.6 154.601 71.4752 155.058 73.2446M108.253 73.2446H155.058M108.253 73.2446C108.627 75.2877 109.056 77.0696 109.516 78.657M155.058 73.2446C155.552 75.1588 156.072 76.9491 156.59 78.657M109.516 78.657H156.59M109.516 78.657C110.122 80.7482 110.78 82.5017 111.432 84.0693M156.59 78.657C157.162 80.5432 157.732 82.3287 158.261 84.0693M111.432 84.0693C112.462 86.5479 113.476 88.5618 114.24 90.7117H160.026C159.56 88.4926 158.944 86.3185 158.261 84.0693M111.432 84.0693H158.261" stroke="#1D1D1D" stroke-width="0.3"/>
<path d="M154.612 90.7083C154.145 88.4892 153.53 86.3151 152.846 84.0659C152.317 82.3253 151.748 80.5398 151.176 78.6536C150.658 76.9457 150.138 75.1554 149.644 73.2412C149.187 71.4718 148.752 69.5966 148.362 67.5829C148.06 66.0301 147.786 64.395 147.548 62.6626C147.345 61.1895 147.169 59.6461 147.026 58.0231C146.886 56.4386 146.777 54.7781 146.705 53.0333C146.64 51.4521 146.605 49.8015 146.605 48.0752" stroke="#1D1D1D" stroke-width="0.3"/>
<path d="M148.709 90.7083C148.243 88.4892 147.627 86.3151 146.944 84.0659C146.415 82.3253 145.846 80.5398 145.274 78.6536C144.756 76.9457 144.235 75.1554 143.741 73.2412C143.284 71.4718 142.85 69.5966 142.459 67.5829C142.158 66.0301 141.883 64.395 141.645 62.6626C141.443 61.1895 141.267 59.6461 141.124 58.0231C140.984 56.4386 140.875 54.7781 140.803 53.0333C140.738 51.4521 140.703 49.8015 140.703 48.0752" stroke="#1D1D1D" stroke-width="0.3"/>
<path d="M131.346 90.7083C130.88 88.4892 130.264 86.3151 129.581 84.0659C129.052 82.3253 128.482 80.5398 127.91 78.6536C127.392 76.9457 126.872 75.1554 126.378 73.2412C125.921 71.4718 125.486 69.5966 125.096 67.5829C124.795 66.0301 124.52 64.395 124.282 62.6626C124.08 61.1895 123.904 59.6461 123.76 58.0231C123.62 56.4386 123.511 54.7781 123.44 53.0333C123.375 51.4521 123.34 49.8015 123.34 48.0752" stroke="#1D1D1D" stroke-width="0.3"/>
<path fill-rule="evenodd" clip-rule="evenodd" d="M160.764 50.8682C161.239 51.0013 161.9 51.5058 162.487 52.2285C163.067 52.9418 163.424 53.6816 163.465 54.1741L164.443 53.3789L161.751 50.066L160.764 50.8682Z" fill="#F2D891"/>
<path d="M160.764 50.8682L160.713 51.0487L160.364 50.951L160.645 50.7227L160.764 50.8682ZM163.465 54.1741L163.583 54.3196L163.308 54.5436L163.278 54.1897L163.465 54.1741ZM164.443 53.3789L164.589 53.2606L164.707 53.4061L164.562 53.5244L164.443 53.3789ZM161.751 50.066L161.632 49.9205L161.778 49.8022L161.896 49.9477L161.751 50.066ZM160.814 50.6876C161.085 50.7634 161.391 50.9387 161.699 51.1796C162.009 51.4223 162.331 51.7393 162.632 52.1103L162.341 52.3468C162.056 51.9951 161.753 51.6985 161.468 51.4749C161.18 51.2496 160.918 51.1061 160.713 51.0487L160.814 50.6876ZM162.632 52.1103C163.221 52.8349 163.606 53.6105 163.652 54.1585L163.278 54.1897C163.242 53.7526 162.912 53.0488 162.341 52.3468L162.632 52.1103ZM163.347 54.0286L164.325 53.2334L164.562 53.5244L163.583 54.3196L163.347 54.0286ZM164.298 53.4972L161.605 50.1843L161.896 49.9477L164.589 53.2606L164.298 53.4972ZM161.869 50.2115L160.882 51.0137L160.645 50.7227L161.632 49.9205L161.869 50.2115Z" fill="#1D1D1D"/>
<path d="M136.967 71.3172C136.67 70.9512 136.676 70.4533 136.982 70.205L162.148 49.7501L162.152 49.7545C162.154 49.7531 162.155 49.7517 162.157 49.7502C162.613 49.3796 163.578 49.8115 164.312 50.715C164.953 51.5028 165.206 52.3888 164.958 52.8486C164.932 52.9268 164.891 52.9983 164.838 53.0594L164.841 53.063L164.816 53.0834C164.785 53.1156 164.749 53.1445 164.71 53.1694L139.675 73.5179C139.369 73.7662 138.88 73.6708 138.583 73.3049L136.967 71.3172Z" fill="#F2D891" stroke="#1D1D1D" stroke-width="0.3"/>
<path d="M136.536 70.5656C137.033 70.6828 137.706 71.1742 138.291 71.8944C138.873 72.6101 139.216 73.3645 139.233 73.8748L141.792 71.7947L141.791 71.7933C142.182 71.4353 141.915 70.4343 141.182 69.5332C140.437 68.6166 139.493 68.1505 139.073 68.492C139.049 68.5112 139.028 68.5327 139.008 68.5561L136.536 70.5656Z" fill="#E5C267" stroke="#1D1D1D" stroke-width="0.3"/>
<mask id="mask1_378_6304" style="mask-type:alpha" maskUnits="userSpaceOnUse" x="132" y="70" width="8" height="7">
<path d="M138.999 74.0039L132.923 76.2265L136.34 70.7335C136.407 70.6268 136.498 70.5501 136.602 70.5029C137.086 70.1964 138.016 70.6256 138.725 71.4981C139.38 72.3033 139.626 73.2153 139.347 73.6748C139.282 73.8237 139.164 73.9433 138.999 74.0039Z" fill="#D9D9D9" stroke="black" stroke-width="0.3"/>
</mask>
<g mask="url(#mask1_378_6304)">
<path d="M138.999 74.0039L132.923 76.2265L136.34 70.7335C136.407 70.6268 136.498 70.5501 136.602 70.5029C137.086 70.1964 138.016 70.6256 138.725 71.4981C139.38 72.3033 139.626 73.2153 139.347 73.6748C139.282 73.8237 139.164 73.9433 138.999 74.0039Z" fill="#FCF1D4" stroke="#1D1D1D" stroke-width="0.3"/>
<path d="M134.455 77.1161L128.615 79.6889L132.327 74.4983C132.436 74.3463 132.596 74.2635 132.772 74.2468C133.168 74.0023 133.888 74.3108 134.422 74.9679C134.955 75.6233 135.11 76.389 134.793 76.7281C134.741 76.8983 134.627 77.0401 134.455 77.1161Z" fill="#1D1D1D"/>
</g>
<path d="M91.2521 113.664C91.2514 115.044 107.187 115.683 126.847 115.707C146.507 115.731 162.451 115.338 162.447 113.75C162.447 112.37 146.512 111.731 126.852 111.707C107.192 111.683 91.2536 112.559 91.2521 113.664Z" fill="#90B3A8"/>
</svg>
