<svg width="100" height="27" viewBox="0 0 100 27" fill="none" xmlns="http://www.w3.org/2000/svg">
<path d="M17.0372 0.03125V11.7488H4.71207V0.03125H0V26.4855H4.71207V14.3811H17.0372V26.4855H21.7492V0.03125H17.0372Z" fill="#226752"/>
<path d="M64.2379 21.9013C64.2379 21.9013 64.2379 14.8776 64.2379 14.257C64.2379 12.7131 63.8911 9.86559 60.5692 8.27808C57.2472 6.69058 51.7859 5.84224 47.4082 10.6921L49.0924 12.1268C49.0924 12.1268 52.7394 8.58373 57.0552 10.4301C58.3772 10.9977 59.3091 12.5697 59.4515 13.5864C59.5723 14.4596 59.4515 16.0628 59.4515 16.0628C58.1976 15.2862 56.2719 14.4721 53.6899 14.4721C48.7487 14.4721 45.9004 17.1451 45.9004 20.819C45.9004 24.4931 48.7487 26.904 53.6899 26.904C56.4206 26.904 58.4175 25.5972 59.6589 24.4245C59.7611 25.07 59.9004 25.6783 60.0986 26.3613H64.7797C64.275 24.9983 64.241 22.4159 64.2379 21.9013ZM55.0459 24.4307C50.4701 24.4307 50.7301 20.8221 50.7301 20.8221C50.7301 20.8221 50.4701 16.9516 55.0459 16.9516C56.9562 16.9516 58.4422 17.6752 59.4484 18.3489L59.4453 21.9169C58.436 23.2174 56.9778 24.4307 55.0459 24.4307Z" fill="#226752"/>
<path d="M34.6215 7.03718C27.1478 7.3709 24.5781 12.8445 24.5781 16.7805C24.5781 23.9321 30.4264 26.9106 34.6215 26.9106C38.8165 26.9106 41.4079 25.8253 43.5007 22.7812L41.7949 21.5212C41.7949 21.5212 40.1107 24.0631 36.38 24.0631C32.0209 24.0631 29.6679 20.7821 29.6679 18.106H44.4698C45.3367 12.7135 41.3645 6.73777 34.6215 7.03718ZM29.671 15.4737C29.671 15.4737 30.1881 9.71317 34.4822 9.53851C39.2716 9.53851 39.575 15.4737 39.575 15.4737H29.671Z" fill="#226752"/>
<path d="M73.5256 8.92022C72.9467 9.53152 72.5008 10.227 72.0767 10.9569V7.48554L67.0488 7.4949C67.3027 8.18105 67.4389 9.26018 67.5008 10.1241V26.3641H72.2284L72.2346 16.2309C72.2377 15.6476 72.2903 15.0551 72.3987 14.4812C72.8631 12.0266 74.6464 10.5014 77.1355 10.408L78.9033 10.4048V7.04578C76.925 6.90543 74.9219 7.44812 73.5256 8.92022Z" fill="#226752"/>
<path d="M99.7554 26.4948C99.5015 25.8086 99.3653 24.7295 99.3034 23.8656V0H94.4985V10.1644C93.1362 8.22757 91.0124 6.98626 88.0681 6.98626C83.4923 6.98626 79.1641 11.2185 79.1641 16.8326C79.1641 23.1982 83.4923 26.8971 88.0681 26.8971C91.1579 26.8971 93.2508 25.871 94.5635 23.875C94.5789 24.0403 94.6037 24.3116 94.6347 24.5705C94.7368 25.2161 94.8762 25.8243 95.0743 26.5073H99.7554C99.7554 26.5042 99.7523 26.4979 99.7523 26.4948H99.7554ZM89.5728 23.666C86.7276 23.666 83.9938 21.1553 83.9938 16.9479C83.9938 13.0525 86.7245 10.5418 89.5728 10.5418C91.6223 10.5418 93.5697 11.8923 94.5015 14.1098V20.1416C93.5727 22.4122 91.6223 23.666 89.5728 23.666Z" fill="#226752"/>
</svg>
