<svg width="102" height="84" viewBox="0 0 102 84" fill="none" xmlns="http://www.w3.org/2000/svg">
<path d="M88.2365 79.8095C88.2365 81.3672 69.1774 82.6263 45.6675 82.6263C22.1576 82.6263 0.915527 81.3672 0.915527 79.8095C0.915527 78.2518 22.1576 76.9927 45.6675 76.9927C69.1774 76.9927 88.2365 78.2546 88.2365 79.8095Z" fill="#7A9FA0" fill-opacity="0.4"/>
<path d="M90.1802 11.4725C89.1898 5.59358 83.8708 1.44631 77.9278 1.91919L41.2534 4.8374C34.5268 5.37264 29.7044 11.5575 30.8254 18.2116L39.9757 72.5275C40.9661 78.4064 46.2851 82.5537 52.2281 82.0808L88.9026 79.1626C95.6292 78.6274 100.452 72.4425 99.3306 65.7884L90.1802 11.4725Z" fill="white" stroke="black"/>
<path d="M89.906 9.62545C89.0709 4.78656 84.6858 1.38146 79.7908 1.77096L42.5692 4.7327C36.9974 5.17606 33.0106 10.3103 33.9611 15.8183L43.4239 70.6518C44.259 75.4907 48.6441 78.8958 53.5391 78.5063L90.7607 75.5446C96.3325 75.1012 100.319 69.9669 99.3688 64.4589L89.906 9.62545Z" fill="#CBD5CA" stroke="#1D1D1D"/>
<path d="M84.7381 10.6992C84.3809 8.97054 82.7925 7.77841 81.0329 7.91842L42.8621 10.9557C40.7635 11.1227 39.2861 13.0912 39.7121 15.1529L40.3381 18.1823C40.6952 19.911 42.2837 21.1031 44.0433 20.9631L82.2141 17.9258C84.3127 17.7588 85.7901 15.7903 85.3641 13.7286L84.7381 10.6992Z" fill="white" stroke="#1D1D1D"/>
<path d="M46.0027 19.2267C46.5096 19.1863 46.957 19.0485 47.345 18.8131C47.733 18.5777 48.0293 18.273 48.2339 17.8988C48.4386 17.5246 48.5234 17.1185 48.4886 16.6803L48.1165 14.4667C48.0816 14.0286 47.9338 13.6441 47.6731 13.3133C47.4119 12.9762 47.0711 12.7222 46.6508 12.5511C46.23 12.3737 45.7661 12.3052 45.2592 12.3455C44.7591 12.3853 44.3188 12.5258 43.9381 12.767C43.5501 13.0023 43.2538 13.3071 43.0492 13.6813C42.8441 14.0491 42.759 14.4521 42.7939 14.8903L43.166 17.1038C43.2008 17.542 43.3489 17.9296 43.6101 18.2667C43.8708 18.5975 44.2115 18.8516 44.6324 19.029C45.0458 19.2006 45.5026 19.2665 46.0027 19.2267ZM45.9231 18.2265C45.6628 18.2472 45.4222 18.212 45.2012 18.1209C44.9729 18.0241 44.7895 17.8853 44.6511 17.7046C44.5058 17.5244 44.424 17.32 44.4058 17.0914L44.0201 14.7064C44.0014 14.4715 44.0498 14.2567 44.1653 14.0622C44.2808 13.8677 44.4402 13.7048 44.6434 13.5736C44.8467 13.4424 45.0785 13.3664 45.3388 13.3457C45.5991 13.325 45.8468 13.3628 46.082 13.4591C46.3098 13.5496 46.4963 13.685 46.6416 13.8651C46.7869 14.0453 46.8687 14.2497 46.8869 14.4783L47.2726 16.8633C47.2908 17.0919 47.2424 17.3067 47.1274 17.5075C47.0124 17.7084 46.8499 17.8747 46.6398 18.0065C46.4291 18.1319 46.1903 18.2052 45.9231 18.2265Z" fill="#1D1D1D"/>
<path d="M93.3014 63.2666C93.012 61.465 91.387 60.188 89.5681 60.3328L52.38 63.2919C50.3433 63.4539 48.8778 65.3188 49.2019 67.336L49.2736 67.7822C49.5631 69.5837 51.188 70.8607 53.0069 70.7159L90.195 67.7569C92.2317 67.5948 93.6972 65.73 93.3731 63.7127L93.3014 63.2666Z" fill="#F0E7D5" stroke="#1D1D1D"/>
<path d="M86.6872 25.0864C86.3166 23.3732 84.7359 22.1984 82.9887 22.3374L81.2988 22.4719C79.1871 22.6399 77.7076 24.6305 78.1555 26.701L78.5152 28.3635C78.8858 30.0766 80.4665 31.2515 82.2137 31.1124L83.9036 30.978C86.0152 30.8099 87.4948 28.8193 87.0468 26.7489L86.6872 25.0864Z" fill="white" stroke="#1D1D1D"/>
<path d="M74.963 26.0192C74.5924 24.3061 73.0118 23.1313 71.2646 23.2703L69.5746 23.4048C67.463 23.5728 65.9835 25.5634 66.4314 27.6338L66.7911 29.2964C67.1617 31.0095 68.7423 32.1843 70.4896 32.0453L72.1795 31.9108C74.2911 31.7428 75.7706 29.7522 75.3227 27.6818L74.963 26.0192Z" fill="white" stroke="#1D1D1D"/>
<path d="M63.2384 26.9522C62.8678 25.2391 61.2872 24.0643 59.54 24.2033L57.85 24.3378C55.7384 24.5058 54.2589 26.4964 54.7068 28.5668L55.0665 30.2294C55.4371 31.9425 57.0177 33.1173 58.7649 32.9783L60.4549 32.8438C62.5665 32.6758 64.046 30.6852 63.5981 28.6148L63.2384 26.9522Z" fill="white" stroke="#1D1D1D"/>
<path d="M51.5148 27.8851C51.1442 26.1719 49.5635 24.9971 47.8163 25.1362L46.1264 25.2706C44.0148 25.4386 42.5352 27.4292 42.9832 29.4997L43.3428 31.1622C43.7134 32.8753 45.2941 34.0502 47.0413 33.9111L48.7312 33.7767C50.8429 33.6086 52.3224 31.618 51.8745 29.5476L51.5148 27.8851Z" fill="white" stroke="#1D1D1D"/>
<path d="M89.0548 37.3907C88.6842 35.6776 87.1036 34.5027 85.3564 34.6418L83.6664 34.7762C81.5548 34.9443 80.0753 36.9349 80.5232 39.0053L80.8829 40.6678C81.2535 42.381 82.8341 43.5558 84.5814 43.4167L86.2713 43.2823C88.3829 43.1143 89.8624 41.1237 89.4145 39.0532L89.0548 37.3907Z" fill="white" stroke="#1D1D1D"/>
<path d="M77.3297 38.3235C76.9591 36.6104 75.3785 35.4356 73.6313 35.5746L71.9413 35.7091C69.8297 35.8771 68.3502 37.8677 68.7981 39.9381L69.1578 41.6007C69.5284 43.3138 71.109 44.4886 72.8563 44.3496L74.5462 44.2151C76.6578 44.0471 78.1373 42.0565 77.6894 39.9861L77.3297 38.3235Z" fill="white" stroke="#1D1D1D"/>
<path d="M65.6061 39.2564C65.2355 37.5433 63.6548 36.3685 61.9076 36.5075L60.2177 36.642C58.1061 36.81 56.6266 38.8006 57.0745 40.871L57.4341 42.5336C57.8048 44.2467 59.3854 45.4215 61.1326 45.2825L62.8225 45.148C64.9342 44.98 66.4137 42.9894 65.9658 40.919L65.6061 39.2564Z" fill="white" stroke="#1D1D1D"/>
<path d="M91.4215 49.695C91.0509 47.9819 89.4703 46.8071 87.7231 46.9461L86.0331 47.0806C83.9215 47.2486 82.442 49.2392 82.8899 51.3096L83.2496 52.9722C83.6202 54.6853 85.2008 55.8601 86.9481 55.7211L88.638 55.5866C90.7496 55.4186 92.2291 53.428 91.7812 51.3576L91.4215 49.695Z" fill="white" stroke="#1D1D1D"/>
<path d="M79.6974 50.6279C79.3268 48.9147 77.7462 47.7399 75.9989 47.879L74.309 48.0134C72.1974 48.1814 70.7179 50.172 71.1658 52.2425L71.5254 53.905C71.8961 55.6181 73.4767 56.793 75.2239 56.6539L76.9138 56.5195C79.0255 56.3514 80.505 54.3608 80.0571 52.2904L79.6974 50.6279Z" fill="white" stroke="#1D1D1D"/>
<path d="M67.9733 51.5607C67.6027 49.8476 66.022 48.6728 64.2748 48.8118L62.5849 48.9463C60.4733 49.1143 58.9937 51.1049 59.4417 53.1753L59.8013 54.8379C60.1719 56.551 61.7526 57.7258 63.4998 57.5868L65.1897 57.4523C67.3014 57.2843 68.7809 55.2937 68.333 53.2233L67.9733 51.5607Z" fill="white" stroke="#1D1D1D"/>
<path d="M53.8456 40.2372C53.4937 38.5025 51.9022 37.3036 50.1379 37.444L48.4347 37.5795C46.3411 37.7461 44.8646 39.7061 45.2821 41.7643L48.1136 55.7228C48.4655 57.4574 50.057 58.6564 51.8214 58.516L53.5246 58.3804C55.6181 58.2138 57.0946 56.2539 56.6771 54.1956L53.8456 40.2372Z" fill="white" stroke="#1D1D1D"/>
</svg>
