<svg width="340" height="542" viewBox="0 0 340 542" fill="none" xmlns="http://www.w3.org/2000/svg">
<g style="mix-blend-mode:multiply" opacity="0.5">
<path d="M26.2067 370.105C26.2027 373.992 42.9257 375.758 63.5589 375.783C84.192 375.808 100.926 374.668 100.926 370.195C100.93 366.308 84.207 364.543 63.5739 364.518C42.9407 364.493 26.2109 366.994 26.2067 370.105Z" fill="#90B3A8"/>
</g>
<mask id="mask0_83_3253" style="mask-type:alpha" maskUnits="userSpaceOnUse" x="49" y="315" width="55" height="61">
<path fill-rule="evenodd" clip-rule="evenodd" d="M102.713 321.87C103.044 321.539 103.218 321.198 103.218 320.848C103.218 317.936 91.1516 315.574 76.2674 315.574C61.3832 315.574 49.3172 317.936 49.3172 320.848C49.3172 321.064 49.383 321.276 49.511 321.484C49.345 321.786 49.2582 322.134 49.2727 322.495L51.0629 367.021C51.1667 369.602 52.9597 371.82 55.48 372.399C71.4918 376.073 81.7904 375.939 96.9678 372.416C99.4986 371.828 101.29 369.588 101.373 366.994L102.804 322.52C102.811 322.295 102.779 322.076 102.713 321.87Z" fill="#FAE3C3"/>
<path d="M102.713 321.87L102.536 321.693L102.428 321.801L102.475 321.946L102.713 321.87ZM49.511 321.484L49.7301 321.605L49.8001 321.477L49.7241 321.353L49.511 321.484ZM49.2727 322.495L49.0229 322.505L49.2727 322.495ZM51.0629 367.021L51.3127 367.011L51.0629 367.021ZM55.48 372.399L55.4241 372.642H55.4241L55.48 372.399ZM96.9678 372.416L96.9113 372.172L96.9678 372.416ZM101.373 366.994L101.123 366.986L101.373 366.994ZM102.804 322.52L102.554 322.512V322.512L102.804 322.52ZM102.968 320.848C102.968 321.109 102.839 321.39 102.536 321.693L102.889 322.047C103.249 321.688 103.468 321.287 103.468 320.848H102.968ZM76.2674 315.824C83.6985 315.824 90.4192 316.414 95.2761 317.364C97.7066 317.84 99.6576 318.404 100.995 319.022C101.664 319.332 102.166 319.649 102.497 319.966C102.828 320.283 102.968 320.577 102.968 320.848H103.468C103.468 320.391 103.23 319.975 102.843 319.605C102.456 319.235 101.899 318.89 101.205 318.569C99.8145 317.925 97.8187 317.352 95.3722 316.874C90.475 315.915 83.7206 315.324 76.2674 315.324V315.824ZM49.5672 320.848C49.5672 320.577 49.7065 320.283 50.0375 319.966C50.3687 319.649 50.8707 319.332 51.5401 319.022C52.8773 318.404 54.8282 317.84 57.2588 317.364C62.1157 316.414 68.8364 315.824 76.2674 315.824V315.324C68.8143 315.324 62.0599 315.915 57.1627 316.874C54.7162 317.352 52.7203 317.925 51.3301 318.569C50.6357 318.89 50.0788 319.235 49.6919 319.605C49.3049 319.975 49.0672 320.391 49.0672 320.848H49.5672ZM49.7241 321.353C49.6161 321.178 49.5672 321.01 49.5672 320.848H49.0672C49.0672 321.117 49.1499 321.374 49.298 321.615L49.7241 321.353ZM49.292 321.364C49.1046 321.704 49.0065 322.097 49.0229 322.505L49.5225 322.485C49.5099 322.17 49.5854 321.868 49.7301 321.605L49.292 321.364ZM49.0229 322.505L50.8131 367.031L51.3127 367.011L49.5225 322.485L49.0229 322.505ZM50.8131 367.031C50.9213 369.721 52.7908 372.038 55.4241 372.642L55.5359 372.155C53.1285 371.603 51.4121 369.482 51.3127 367.011L50.8131 367.031ZM55.4241 372.642C71.4732 376.325 81.8102 376.191 97.0244 372.659L96.9113 372.172C81.7705 375.687 71.5104 375.82 55.5359 372.155L55.4241 372.642ZM97.0244 372.659C99.6685 372.045 101.536 369.706 101.623 367.002L101.123 366.986C101.043 369.47 99.3287 371.611 96.9113 372.172L97.0244 372.659ZM101.623 367.002L103.054 322.529L102.554 322.512L101.123 366.986L101.623 367.002ZM103.054 322.529C103.062 322.274 103.025 322.026 102.951 321.793L102.475 321.946C102.532 322.126 102.56 322.316 102.554 322.512L103.054 322.529Z" fill="black"/>
</mask>
<g mask="url(#mask0_83_3253)">
<path fill-rule="evenodd" clip-rule="evenodd" d="M102.713 321.87C103.044 321.539 103.218 321.198 103.218 320.848C103.218 317.936 91.1516 315.574 76.2674 315.574C61.3832 315.574 49.3172 317.936 49.3172 320.848C49.3172 321.064 49.383 321.276 49.511 321.484C49.345 321.786 49.2582 322.134 49.2727 322.495L51.0629 367.021C51.1667 369.602 52.9597 371.82 55.48 372.399C71.4918 376.073 81.7904 375.939 96.9678 372.416C99.4986 371.828 101.29 369.588 101.373 366.994L102.804 322.52C102.811 322.295 102.779 322.076 102.713 321.87Z" fill="#99C7A3"/>
<path d="M102.713 321.87L102.536 321.693L102.428 321.801L102.475 321.946L102.713 321.87ZM49.511 321.484L49.7301 321.605L49.8001 321.477L49.7241 321.353L49.511 321.484ZM49.2727 322.495L49.0229 322.505L49.2727 322.495ZM51.0629 367.021L51.3127 367.011L51.0629 367.021ZM55.48 372.399L55.4241 372.642H55.4241L55.48 372.399ZM96.9678 372.416L96.9113 372.172L96.9678 372.416ZM101.373 366.994L101.123 366.986L101.373 366.994ZM102.804 322.52L102.554 322.512V322.512L102.804 322.52ZM102.968 320.848C102.968 321.109 102.839 321.39 102.536 321.693L102.889 322.047C103.249 321.688 103.468 321.287 103.468 320.848H102.968ZM76.2674 315.824C83.6985 315.824 90.4192 316.414 95.2761 317.364C97.7066 317.84 99.6576 318.404 100.995 319.022C101.664 319.332 102.166 319.649 102.497 319.966C102.828 320.283 102.968 320.577 102.968 320.848H103.468C103.468 320.391 103.23 319.975 102.843 319.605C102.456 319.235 101.899 318.89 101.205 318.569C99.8145 317.925 97.8187 317.352 95.3722 316.874C90.475 315.915 83.7206 315.324 76.2674 315.324V315.824ZM49.5672 320.848C49.5672 320.577 49.7065 320.283 50.0375 319.966C50.3687 319.649 50.8707 319.332 51.5401 319.022C52.8773 318.404 54.8282 317.84 57.2588 317.364C62.1157 316.414 68.8364 315.824 76.2674 315.824V315.324C68.8143 315.324 62.0599 315.915 57.1627 316.874C54.7162 317.352 52.7203 317.925 51.3301 318.569C50.6357 318.89 50.0788 319.235 49.6919 319.605C49.3049 319.975 49.0672 320.391 49.0672 320.848H49.5672ZM49.7241 321.353C49.6161 321.178 49.5672 321.01 49.5672 320.848H49.0672C49.0672 321.117 49.1499 321.374 49.298 321.615L49.7241 321.353ZM49.292 321.364C49.1046 321.704 49.0065 322.097 49.0229 322.505L49.5225 322.485C49.5099 322.17 49.5854 321.868 49.7301 321.605L49.292 321.364ZM49.0229 322.505L50.8131 367.031L51.3127 367.011L49.5225 322.485L49.0229 322.505ZM50.8131 367.031C50.9213 369.721 52.7908 372.038 55.4241 372.642L55.5359 372.155C53.1285 371.603 51.4121 369.482 51.3127 367.011L50.8131 367.031ZM55.4241 372.642C71.4732 376.325 81.8102 376.191 97.0244 372.659L96.9113 372.172C81.7705 375.687 71.5104 375.82 55.5359 372.155L55.4241 372.642ZM97.0244 372.659C99.6685 372.045 101.536 369.706 101.623 367.002L101.123 366.986C101.043 369.47 99.3287 371.611 96.9113 372.172L97.0244 372.659ZM101.623 367.002L103.054 322.529L102.554 322.512L101.123 366.986L101.623 367.002ZM103.054 322.529C103.062 322.274 103.025 322.026 102.951 321.793L102.475 321.946C102.532 322.126 102.56 322.316 102.554 322.512L103.054 322.529Z" fill="#1D1D1D"/>
<g style="mix-blend-mode:multiply" opacity="0.5">
<path fill-rule="evenodd" clip-rule="evenodd" d="M96.8316 319.867C96.8316 320.216 96.6579 320.558 96.3265 320.888C96.3926 321.094 96.4248 321.314 96.4176 321.539L94.9871 366.012C94.9036 368.606 93.1125 370.846 90.5817 371.434C79.5561 373.994 71.1052 374.764 61.1683 373.586C74.1087 375.988 83.6639 375.504 96.9679 372.416C99.4987 371.828 101.29 369.588 101.373 366.994L102.804 322.52C102.811 322.295 102.779 322.076 102.713 321.87C103.044 321.539 103.218 321.198 103.218 320.848C103.218 318.878 97.6982 317.16 89.5204 316.255C94.0541 317.199 96.8316 318.469 96.8316 319.867Z" fill="#99C7A3"/>
</g>
<path opacity="0.3" d="M58.8254 383.521L55.5792 329.901L74.7211 329.54L74.8276 383.205L58.8254 383.521Z" fill="white"/>
<path opacity="0.3" d="M58.4915 383.534L56.1375 329.933L61.686 329.748L63.3559 383.372L58.4915 383.534Z" fill="white"/>
<g style="mix-blend-mode:multiply">
<path fill-rule="evenodd" clip-rule="evenodd" d="M105.195 309.237C105.56 308.873 105.751 308.497 105.751 308.112C105.751 304.903 92.4595 302.302 76.0632 302.302C59.6669 302.302 46.375 304.903 46.375 308.112C46.375 308.349 46.4477 308.583 46.5888 308.813C46.4058 309.146 46.3102 309.529 46.3262 309.927L48.2983 358.976C48.4126 361.819 50.3877 364.263 53.1641 364.9C70.8026 368.947 82.1474 368.801 98.8668 364.919C101.655 364.272 103.628 361.804 103.72 358.946L105.295 309.955C105.303 309.707 105.268 309.465 105.195 309.237Z" fill="#99C7A3"/>
</g>
</g>
<mask id="mask1_83_3253" style="mask-type:alpha" maskUnits="userSpaceOnUse" x="43" y="293" width="67" height="73">
<path d="M108.692 301.144C108.82 300.915 108.886 300.682 108.886 300.446C108.886 296.943 94.373 294.103 76.4708 294.103C58.5686 294.103 44.0561 296.943 44.0561 300.446C44.0561 300.589 44.0803 300.732 44.1281 300.872C43.9492 301.182 43.8548 301.542 43.8699 301.917L46.0897 356.832C46.1944 359.422 48.0002 361.644 50.5399 362.236C70.7787 366.947 83.45 366.769 102.626 362.252C105.176 361.652 106.979 359.408 107.063 356.805L108.837 301.942C108.846 301.663 108.794 301.392 108.692 301.144Z" fill="#FAE3C3" stroke="black" stroke-width="0.5"/>
</mask>
<g mask="url(#mask1_83_3253)">
<path d="M108.692 301.144C108.82 300.915 108.886 300.682 108.886 300.446C108.886 296.943 94.373 294.103 76.4708 294.103C58.5686 294.103 44.0561 296.943 44.0561 300.446C44.0561 300.589 44.0803 300.732 44.1281 300.872C43.9492 301.182 43.8548 301.542 43.8699 301.917L46.0897 356.832C46.1944 359.422 48.0002 361.644 50.5399 362.236C70.7787 366.947 83.45 366.769 102.626 362.252C105.176 361.652 106.979 359.408 107.063 356.805L108.837 301.942C108.846 301.663 108.794 301.392 108.692 301.144Z" fill="#99C7A3" stroke="#1D1D1D" stroke-width="0.5"/>
<g style="mix-blend-mode:multiply" opacity="0.5">
<path fill-rule="evenodd" clip-rule="evenodd" d="M88.0702 298.577C88.0702 298.834 88.0284 299.088 87.9468 299.338C88.012 299.608 88.0452 299.903 88.0395 300.208L86.9112 360.03C86.8693 362.252 86.1574 364.234 85.0721 365.304C90.5474 364.784 96.2242 363.76 102.626 362.252C105.176 361.652 106.979 359.408 107.063 356.805L108.837 301.942C108.846 301.663 108.794 301.392 108.691 301.144C108.82 300.915 108.886 300.682 108.886 300.446C108.886 297.418 98.0476 294.886 83.5499 294.254C86.3784 295.438 88.0702 296.941 88.0702 298.577ZM45.9708 298.293C45.9584 298.387 45.9522 298.482 45.9522 298.577C45.9522 298.733 45.9676 298.888 45.998 299.042C45.8842 299.38 45.8242 299.772 45.8338 300.18L48.1347 360.06C48.1429 360.41 48.1678 360.754 48.2082 361.089C46.9546 360.063 46.1582 358.526 46.0897 356.832L43.8699 301.917C43.8548 301.542 43.9492 301.182 44.1281 300.872C44.0803 300.731 44.0561 300.589 44.0561 300.446C44.0561 299.69 44.7316 298.965 45.9708 298.293Z" fill="#99C7A3"/>
</g>
<path opacity="0.3" d="M54.6931 371.203L51.7261 299.96H75.7916V371.203H54.6931Z" fill="white"/>
<path opacity="0.3" d="M53.7016 371.237L51.8238 300.01L60.6636 299.914L61.4516 371.152L53.7016 371.237Z" fill="white"/>
</g>
<ellipse cx="76.2831" cy="300.446" rx="32.4148" ry="6.34354" fill="#99C7A3" stroke="#1D1D1D" stroke-width="0.5"/>
<ellipse cx="76.3537" cy="299.959" rx="28.0647" ry="4.87965" fill="#99C7A3" stroke="#1D1D1D" stroke-width="0.5"/>
<mask id="mask2_83_3253" style="mask-type:alpha" maskUnits="userSpaceOnUse" x="22" y="181" width="107" height="124">
<path d="M104.417 299.957C104.417 302.652 91.8523 304.836 76.3526 304.836C60.8529 304.836 48.2879 302.652 48.2879 299.957C48.2879 297.262 -26.3642 183.333 76.3526 181.137C174.018 183.089 104.417 297.262 104.417 299.957Z" fill="#D9D9D9"/>
</mask>
<g mask="url(#mask2_83_3253)">
<g style="mix-blend-mode:multiply">
<ellipse cx="76.3525" cy="299.955" rx="28.0647" ry="4.87964" fill="#DEF4E7"/>
</g>
<g style="mix-blend-mode:multiply">
<ellipse cx="76.3525" cy="304.835" rx="28.0647" ry="4.87965" fill="#ABE0C7"/>
</g>
<path d="M78.9833 282.389C78.3939 283.17 78.4918 283.853 78.2466 284.341C77.0565 284.135 76.4954 283.874 76.5276 282.389L77.2643 280.925C77.5099 280.437 78.4918 279.217 78.7374 278.973C78.9338 278.778 79.5563 277.347 79.72 276.533C80.678 276.224 81.0886 276.426 81.439 277.509C81.1934 278.404 80.6528 280.047 80.4564 280.437C80.2108 280.925 79.72 281.413 78.9833 282.389Z" fill="#41826E" stroke="#1D1D1D" stroke-width="0.5"/>
<mask id="mask3_83_3253" style="mask-type:alpha" maskUnits="userSpaceOnUse" x="71" y="221" width="8" height="88">
<path d="M76.9593 308.737C76.445 308.737 75.8901 308.631 75.4446 308.435C74.9894 308.234 74.8088 307.735 74.8119 307.238C74.8315 304.072 74.927 293.402 74.927 290.579V283.591C74.927 282.542 74.673 280.096 74.673 278C74.673 275.903 74.927 274.156 74.927 273.108C74.927 272.059 74.673 264.372 74.673 263.324C74.673 262.275 74.8 260.956 75.054 259.209C75.3081 257.462 75.4351 246.551 75.181 243.755C74.9905 241.659 72.8507 230.188 71.607 223.675C71.4707 222.962 71.8678 222.254 72.5479 221.998C73.3999 221.679 74.336 222.187 74.521 223.078C75.917 229.798 78.0437 241.197 78.2294 243.755C78.4835 247.254 78.4835 257.007 78.4835 259.453C78.4835 261.899 78.2464 261.887 78.2464 264.333C78.2464 266.779 78.492 268.685 78.492 270.432C78.492 272.179 78.4835 274.506 78.4835 276.602C78.4835 278.699 78.7375 282.193 78.7375 283.591C78.7375 284.988 78.4835 288.483 78.4835 289.881C78.4835 290.951 78.6387 303.166 78.7262 307.477C78.7333 307.827 78.6628 308.194 78.3702 308.386C78.023 308.613 77.5149 308.737 76.9593 308.737Z" fill="#88B39E" stroke="black" stroke-width="0.5"/>
</mask>
<g mask="url(#mask3_83_3253)">
<path d="M76.9593 308.737C76.445 308.737 75.8901 308.631 75.4446 308.435C74.9894 308.234 74.8088 307.735 74.8119 307.238C74.8315 304.072 74.927 293.402 74.927 290.579V283.591C74.927 282.542 74.673 280.096 74.673 278C74.673 275.903 74.927 274.156 74.927 273.108C74.927 272.059 74.673 264.372 74.673 263.324C74.673 262.275 74.8 260.956 75.054 259.209C75.3081 257.462 75.4351 246.551 75.181 243.755C74.9905 241.659 72.8507 230.188 71.607 223.675C71.4707 222.962 71.8678 222.254 72.5479 221.998C73.3999 221.679 74.336 222.187 74.521 223.078C75.917 229.798 78.0437 241.197 78.2294 243.755C78.4835 247.254 78.4835 257.007 78.4835 259.453C78.4835 261.899 78.2464 261.887 78.2464 264.333C78.2464 266.779 78.492 268.685 78.492 270.432C78.492 272.179 78.4835 274.506 78.4835 276.602C78.4835 278.699 78.7375 282.193 78.7375 283.591C78.7375 284.988 78.4835 288.483 78.4835 289.881C78.4835 290.951 78.6387 303.166 78.7262 307.477C78.7333 307.827 78.6628 308.194 78.3702 308.386C78.023 308.613 77.5149 308.737 76.9593 308.737Z" fill="#41826E" stroke="#1D1D1D" stroke-width="0.5"/>
<g style="mix-blend-mode:multiply" opacity="0.5">
<path d="M74.5032 308.737C73.9889 308.737 73.434 308.631 72.9885 308.435C72.5333 308.234 72.3527 307.735 72.3558 307.238C72.3754 304.072 72.4709 293.402 72.4709 290.579V283.591C72.4709 282.542 72.2168 280.096 72.2168 278C72.2168 275.903 72.4709 274.156 72.4709 273.108C72.4709 272.059 72.2168 264.372 72.2168 263.324C72.2168 262.275 72.3439 260.956 72.5979 259.209C72.8519 257.462 72.9789 246.551 72.7249 243.755C72.5344 241.659 70.3946 230.188 69.1509 223.675C69.0146 222.962 69.4117 222.254 70.0918 221.998C70.9438 221.679 71.8798 222.187 72.0649 223.078C73.4608 229.798 75.5875 241.197 75.7733 243.755C76.0274 247.254 76.0274 257.007 76.0274 259.453C76.0274 261.899 75.7903 261.887 75.7903 264.333C75.7903 266.779 76.0358 268.685 76.0358 270.432C76.0358 272.179 76.0274 274.506 76.0274 276.602C76.0274 278.699 76.2814 282.193 76.2814 283.591C76.2814 284.988 76.0274 288.483 76.0274 289.881C76.0274 290.951 76.1826 303.166 76.2701 307.477C76.2772 307.827 76.2067 308.194 75.914 308.386C75.5669 308.613 75.0588 308.737 74.5032 308.737Z" fill="#41826E"/>
</g>
</g>
<path d="M82.6665 185.284C82.8759 185.18 83.0782 185.051 83.2672 184.911C83.6725 184.61 84.0159 184.261 84.2329 184.008C84.2677 183.968 84.3487 184.005 84.3421 184.058C84.3153 184.272 84.3107 184.544 84.3725 184.795C84.4177 184.979 84.4981 185.152 84.631 185.284C85.1222 185.772 86.35 186.016 87.0867 186.504C87.8234 186.992 91.0157 187.724 91.2613 195.531C91.5069 203.339 90.5246 200.655 90.5246 206.267C90.5246 211.878 90.5246 207.974 91.0157 216.27C91.5069 224.565 85.6133 233.593 84.1399 235.3C82.6665 237.008 81.6842 237.739 80.9475 238.471C80.2108 239.203 79.2286 241.156 78.7374 241.888C78.2463 242.62 77.5096 243.108 77.0185 243.84C76.6256 244.425 76.1999 245.71 76.0362 246.28L74.8084 246.524C74.8084 242.859 74.711 236.252 74.3791 231.64C74.2905 230.409 74.1853 229.321 74.0607 228.468C73.9891 227.978 73.911 227.565 73.8261 227.249C73.0403 224.321 64.9857 215.945 61.0566 212.122C61.3022 211.797 62.8247 209.146 66.9502 201.143C72.1071 191.14 81.6842 185.772 82.6665 185.284Z" fill="#CCEDD4"/>
<path d="M84.2329 184.008L84.4225 184.171L84.4225 184.171L84.2329 184.008ZM82.6665 185.284L82.7777 185.508L82.7777 185.508L82.6665 185.284ZM66.9502 201.143L66.728 201.028L66.9502 201.143ZM61.0566 212.122L60.8571 211.972L60.7242 212.148L60.8823 212.301L61.0566 212.122ZM73.8261 227.249L74.0675 227.184L73.8261 227.249ZM74.8084 246.524H74.5584V246.828L74.8571 246.769L74.8084 246.524ZM76.0362 246.28L76.0849 246.525L76.2344 246.495L76.2765 246.349L76.0362 246.28ZM77.0185 243.84L77.2261 243.979L77.0185 243.84ZM84.631 185.284L84.8072 185.107V185.107L84.631 185.284ZM84.3421 184.058L84.0941 184.027V184.027L84.3421 184.058ZM84.3725 184.795L84.6153 184.736L84.3725 184.795ZM81.1931 195.043L80.948 194.993L81.1931 195.043ZM77.5096 225.54L77.2652 225.488L77.5096 225.54ZM80.702 191.871L80.4569 191.821L80.702 191.871ZM76.5273 223.832L76.7681 223.9L76.5273 223.832ZM82.5553 185.06C81.5534 185.558 71.9206 190.956 66.728 201.028L67.1724 201.257C72.2937 191.323 81.8151 185.986 82.7777 185.508L82.5553 185.06ZM66.728 201.028C64.6658 205.029 63.2547 207.69 62.3289 209.392C61.8659 210.243 61.5247 210.853 61.2844 211.27C61.0405 211.693 60.9073 211.905 60.8571 211.972L61.2562 212.273C61.3288 212.177 61.478 211.935 61.7176 211.52C61.9607 211.098 62.304 210.484 62.7681 209.631C63.6963 207.925 65.1092 205.26 67.1724 201.257L66.728 201.028ZM60.8823 212.301C62.8437 214.21 65.8351 217.255 68.433 220.187C69.7321 221.653 70.9299 223.088 71.8507 224.336C72.7792 225.595 73.4019 226.633 73.5846 227.314L74.0675 227.184C73.8574 226.401 73.1786 225.294 72.2531 224.039C71.3198 222.774 70.1111 221.327 68.8072 219.855C66.199 216.911 63.1986 213.857 61.231 211.943L60.8823 212.301ZM74.8571 246.769L76.0849 246.525L75.9875 246.034L74.7596 246.278L74.8571 246.769ZM76.2765 246.349C76.3567 246.07 76.5019 245.613 76.6752 245.154C76.8506 244.69 77.0469 244.246 77.2261 243.979L76.8109 243.701C76.5971 244.019 76.3841 244.51 76.2075 244.977C76.0289 245.45 75.8794 245.92 75.7959 246.211L76.2765 246.349ZM77.2261 243.979C77.4556 243.637 77.7444 243.349 78.0541 243.041C78.3583 242.739 78.6834 242.417 78.945 242.027L78.5298 241.749C78.3003 242.091 78.0115 242.379 77.7017 242.687C77.3975 242.989 77.0725 243.311 76.8109 243.701L77.2261 243.979ZM78.945 242.027C79.1953 241.654 79.5748 240.964 79.9653 240.307C80.367 239.632 80.7816 238.989 81.1237 238.649L80.7713 238.294C80.3768 238.686 79.9319 239.385 79.5355 240.052C79.1279 240.737 78.7707 241.39 78.5298 241.749L78.945 242.027ZM81.1237 238.649C81.8341 237.943 82.8501 237.178 84.3292 235.464L83.9506 235.137C82.4829 236.838 81.5344 237.536 80.7713 238.294L81.1237 238.649ZM84.3292 235.464C85.0847 234.588 86.9383 231.883 88.5421 228.359C90.1456 224.835 91.5143 220.461 91.2653 216.255L90.7662 216.285C91.0083 220.374 89.6757 224.661 88.087 228.152C86.4983 231.643 84.6685 234.305 83.9506 235.137L84.3292 235.464ZM91.2653 216.255C90.7726 207.933 90.7746 211.871 90.7746 206.267H90.2746C90.2746 211.885 90.2766 208.016 90.7662 216.285L91.2653 216.255ZM90.7746 206.267C90.7746 204.871 90.8357 203.998 90.922 203.353C91.0086 202.706 91.1199 202.288 91.2295 201.775C91.4504 200.74 91.6343 199.437 91.5112 195.523L91.0114 195.539C91.1339 199.433 90.9495 200.692 90.7406 201.67C90.6353 202.163 90.5164 202.614 90.4265 203.287C90.3363 203.961 90.2746 204.857 90.2746 206.267H90.7746ZM91.5112 195.523C91.3874 191.588 90.5199 189.397 89.5577 188.122C88.6026 186.857 87.5355 186.501 87.2247 186.296L86.9486 186.712C87.3746 186.995 88.272 187.249 89.1586 188.424C90.0382 189.589 90.8896 191.667 91.0114 195.539L91.5112 195.523ZM87.2247 186.296C86.8292 186.034 86.307 185.84 85.8591 185.662C85.629 185.57 85.4159 185.482 85.2313 185.389C85.0452 185.295 84.903 185.202 84.8072 185.107L84.4548 185.461C84.6046 185.61 84.8001 185.731 85.0054 185.835C85.2121 185.94 85.444 186.035 85.6744 186.126C86.1474 186.314 86.6075 186.486 86.9486 186.712L87.2247 186.296ZM84.4225 184.171C84.3408 184.266 84.234 184.241 84.1993 184.225C84.1647 184.21 84.0789 184.148 84.0941 184.027L84.5902 184.089C84.612 183.915 84.489 183.808 84.4068 183.77C84.3246 183.733 84.1599 183.71 84.0433 183.845L84.4225 184.171ZM84.8072 185.107C84.7163 185.016 84.6532 184.89 84.6153 184.736L84.1298 184.855C84.1822 185.068 84.2799 185.288 84.4548 185.461L84.8072 185.107ZM84.6153 184.736C84.5632 184.523 84.5656 184.285 84.5902 184.089L84.0941 184.027C84.0649 184.259 84.0583 184.564 84.1298 184.855L84.6153 184.736ZM84.1645 184.657C82.1782 187.637 81.679 191.362 80.948 194.993L81.4382 195.092C82.1806 191.404 82.6637 187.81 84.5806 184.934L84.1645 184.657ZM80.948 194.993C80.4707 197.364 80.2242 200.863 80.066 203.996C79.9069 207.148 79.8375 209.914 79.7172 210.87L80.2133 210.933C80.3367 209.952 80.4081 207.139 80.5654 204.021C80.7237 200.884 80.9693 197.421 81.4382 195.092L80.948 194.993ZM79.7172 210.87C79.4722 212.817 78.1379 221.441 77.2652 225.488L77.754 225.593C78.6307 221.528 79.9672 212.889 80.2133 210.933L79.7172 210.87ZM74.1297 231.658C74.461 236.26 74.5584 242.861 74.5584 246.524H75.0584C75.0584 242.857 74.961 236.243 74.6285 231.622L74.1297 231.658ZM77.2652 225.488C76.905 227.158 76.2346 228.452 75.6037 229.431C75.2877 229.921 74.9823 230.332 74.7277 230.675C74.4803 231.009 74.2636 231.302 74.1535 231.532L74.6047 231.748C74.6889 231.571 74.8687 231.325 75.1295 230.973C75.3832 230.63 75.698 230.207 76.024 229.701C76.677 228.688 77.3775 227.338 77.754 225.593L77.2652 225.488ZM84.0433 183.845C83.8352 184.087 83.5052 184.423 83.1183 184.71L83.416 185.111C83.8398 184.797 84.1965 184.434 84.4225 184.171L84.0433 183.845ZM83.1183 184.71C82.9384 184.843 82.7486 184.964 82.5553 185.06L82.7777 185.508C83.0031 185.396 83.2181 185.258 83.416 185.111L83.1183 184.71ZM83.0354 184.817C82.6483 185.775 82.0553 187.273 81.5344 188.654C81.0177 190.024 80.5601 191.309 80.4569 191.821L80.947 191.92C81.0403 191.457 81.4787 190.218 82.0022 188.831C82.5214 187.454 83.1129 185.96 83.499 185.004L83.0354 184.817ZM80.4569 191.821C80.3323 192.44 80.1466 193.794 79.9634 195.068C79.8713 195.708 79.7795 196.331 79.6956 196.839C79.6102 197.356 79.5364 197.731 79.4827 197.891L79.9567 198.05C80.0258 197.844 80.1055 197.426 80.1889 196.921C80.2738 196.407 80.3662 195.78 80.4583 195.139C80.6434 193.851 80.8261 192.521 80.947 191.92L80.4569 191.821ZM79.4827 197.891C79.4424 198.011 79.4015 198.272 79.3586 198.604C79.314 198.948 79.2639 199.4 79.2101 199.927C79.1024 200.981 78.9795 202.34 78.8567 203.743C78.6108 206.553 78.3657 209.536 78.2434 210.63L78.7403 210.685C78.8635 209.583 79.1096 206.588 79.3548 203.787C79.4776 202.384 79.6002 201.028 79.7075 199.978C79.7611 199.453 79.8107 199.006 79.8544 198.668C79.8998 198.317 79.9356 198.113 79.9567 198.05L79.4827 197.891ZM78.2434 210.63C78.121 211.724 77.7554 214.567 77.3577 217.362C76.9586 220.166 76.5312 222.89 76.2866 223.765L76.7681 223.9C77.0239 222.985 77.456 220.219 77.8527 217.432C78.2507 214.636 78.6171 211.787 78.7403 210.685L78.2434 210.63ZM73.5846 227.314C73.6659 227.617 73.7423 228.018 73.8133 228.504L74.3081 228.432C74.2358 227.937 74.1561 227.514 74.0675 227.184L73.5846 227.314ZM73.8133 228.504C73.9366 229.348 74.0414 230.43 74.1297 231.658L74.6285 231.622C74.5397 230.389 74.4339 229.293 74.3081 228.432L73.8133 228.504ZM76.2866 223.765C75.676 225.95 75.1336 227.013 74.7292 227.557C74.5295 227.825 74.3637 227.966 74.2386 228.054C74.174 228.099 74.1184 228.131 74.0625 228.164C74.0132 228.193 73.9445 228.234 73.8884 228.287L74.233 228.649C74.2411 228.642 74.2591 228.629 74.3175 228.594C74.3692 228.563 74.442 228.521 74.5248 228.464C74.6944 228.345 74.8989 228.166 75.1303 227.855C75.5882 227.24 76.1509 226.108 76.7681 223.9L76.2866 223.765Z" fill="#1D1D1D"/>
<g style="mix-blend-mode:multiply" opacity="0.6">
<path d="M84.112 184.373C84.1183 184.32 84.0411 184.282 84.008 184.323C83.8012 184.577 83.4742 184.927 83.088 185.229C82.3515 187.149 80.8317 191.235 80.6445 192.214C80.4106 193.438 79.9428 197.601 79.7089 198.336C79.4749 199.07 78.7732 208.865 78.5393 211.068C78.3054 213.272 77.1447 222.494 76.6679 224.291C75.4984 228.699 74.5627 228.698 74.3183 228.943C74.437 229.799 74.5373 230.891 74.6216 232.126C74.9918 231.31 76.9019 229.433 77.6036 226.005C78.4368 221.935 79.7089 213.272 79.9428 211.313C80.1749 209.37 80.2111 200.115 81.1124 195.397C81.8141 191.724 82.2819 188.052 84.141 185.113C84.0821 184.861 84.0864 184.588 84.112 184.373Z" fill="#CCEDD4"/>
</g>
<path d="M29.3786 208.219C28.8633 208.629 28.3768 208.766 27.9918 208.758C27.7585 208.752 27.5624 208.694 27.4198 208.61C27.3688 208.579 27.1624 208.654 27.1603 208.712C27.1564 208.826 27.151 208.934 27.1444 209.037C27.0108 211.11 26.3611 211.047 26.1862 212.611C25.9407 214.807 27.1683 216.758 29.1331 219.442C33.3986 225.269 50.4971 236.763 57.8641 240.911C63.7577 244.229 65.3948 246.523 65.4767 247.255L69.0343 247.785L70.388 247.987L71.3636 247.744L76.2816 246.523C79.7198 231.641 78.639 219.589 60.5653 210.415C37.9732 198.948 31.5225 206.515 29.3786 208.219Z" fill="#DEF4E7"/>
<path d="M27.4198 208.61L27.5469 208.394L27.5469 208.394L27.4198 208.61ZM29.3786 208.219L29.5342 208.415L29.3786 208.219ZM60.5653 210.415L60.4522 210.638L60.5653 210.415ZM76.2816 246.523L76.3419 246.765L76.4907 246.728L76.5252 246.579L76.2816 246.523ZM70.388 247.987L70.3511 248.234L70.4002 248.241L70.4483 248.229L70.388 247.987ZM65.4767 247.255L65.2282 247.282L65.2496 247.473L65.4398 247.502L65.4767 247.255ZM57.8641 240.911L57.9867 240.693L57.8641 240.911ZM29.1331 219.442L29.3348 219.295L29.1331 219.442ZM26.1862 212.611L25.9378 212.583L26.1862 212.611ZM27.1603 208.712L26.9105 208.704V208.704L27.1603 208.712ZM53.1986 226.762L53.0462 226.96L53.1986 226.762ZM27.9918 208.758L27.9973 208.508L27.9918 208.758ZM27.1444 209.037L26.8949 209.02L27.1444 209.037ZM52.2163 227.494L52.3781 227.303L52.2163 227.494ZM69.0343 247.785L68.9974 248.032L69.0343 247.785ZM29.5342 208.415C30.6197 207.552 32.7142 205.285 37.3392 204.625C41.9738 203.964 49.1808 204.917 60.4522 210.638L60.6785 210.192C49.3578 204.446 42.0434 203.449 37.2686 204.13C32.4842 204.813 30.2814 207.182 29.2231 208.023L29.5342 208.415ZM60.4522 210.638C69.4502 215.205 74.1821 220.469 76.2544 226.411C78.3303 232.363 77.754 239.039 76.038 246.466L76.5252 246.579C78.2474 239.125 78.8498 232.334 76.7265 226.246C74.5995 220.148 69.7541 214.799 60.6785 210.192L60.4522 210.638ZM65.7251 247.227C65.6977 246.981 65.5514 246.659 65.2867 246.279C65.017 245.891 64.6077 245.418 64.0204 244.87C62.8455 243.773 60.9452 242.359 57.9867 240.693L57.7414 241.129C60.6766 242.781 62.5416 244.173 63.6792 245.235C64.248 245.767 64.6317 246.212 64.8762 246.564C65.1257 246.923 65.2147 247.162 65.2282 247.282L65.7251 247.227ZM57.9867 240.693C54.3131 238.625 48.2046 234.72 42.4815 230.603C39.6204 228.545 36.8586 226.437 34.5473 224.481C32.2322 222.521 30.3828 220.726 29.3348 219.295L28.9313 219.59C30.0161 221.072 31.9036 222.898 34.2243 224.862C36.5489 226.83 39.3219 228.947 42.1895 231.009C47.9239 235.134 54.0481 239.049 57.7414 241.129L57.9867 240.693ZM29.3348 219.295C27.3594 216.596 26.2017 214.723 26.4347 212.639L25.9378 212.583C25.6798 214.891 26.9772 216.921 28.9313 219.59L29.3348 219.295ZM27.5469 208.394C27.4933 208.363 27.4408 208.356 27.4116 208.354C27.3788 208.351 27.3485 208.354 27.3241 208.357C27.2751 208.364 27.2259 208.378 27.1829 208.394C27.1408 208.41 27.0918 208.433 27.0482 208.465C27.0265 208.48 26.9982 208.504 26.973 208.536C26.9488 208.567 26.9133 208.624 26.9105 208.704L27.4102 208.721C27.4079 208.786 27.3793 208.828 27.367 208.844C27.3536 208.861 27.3422 208.869 27.341 208.87C27.3382 208.872 27.3444 208.867 27.3605 208.861C27.3757 208.856 27.3878 208.853 27.3919 208.852C27.3941 208.852 27.3882 208.853 27.3766 208.852C27.3684 208.852 27.3335 208.849 27.2927 208.825L27.5469 208.394ZM76.2213 246.28L71.3033 247.502L71.4239 247.987L76.3419 246.765L76.2213 246.28ZM71.3033 247.502L70.3277 247.744L70.4483 248.229L71.4239 247.987L71.3033 247.502ZM71.577 247.614C68.7891 243.048 61.1529 232.565 53.351 226.564L53.0462 226.96C60.7783 232.907 68.3766 243.332 71.1502 247.874L71.577 247.614ZM27.2927 208.825C27.4764 208.933 27.7153 209.002 27.9862 209.008L27.9973 208.508C27.8016 208.503 27.6484 208.454 27.5469 208.394L27.2927 208.825ZM27.9862 209.008C28.437 209.018 28.9793 208.856 29.5342 208.415L29.2231 208.023C28.7473 208.402 28.3166 208.515 27.9973 208.508L27.9862 209.008ZM53.351 226.564C45.7538 220.72 35.1673 212.158 28.1059 208.535L27.8776 208.98C34.886 212.576 45.4182 221.092 53.0462 226.96L53.351 226.564ZM26.4347 212.639C26.5171 211.902 26.7059 211.56 26.9081 211.119C27.1199 210.656 27.3249 210.124 27.3939 209.053L26.8949 209.02C26.8304 210.023 26.6437 210.495 26.4535 210.911C26.2537 211.347 26.0302 211.756 25.9378 212.583L26.4347 212.639ZM27.3939 209.053C27.4007 208.947 27.4061 208.837 27.4102 208.721L26.9105 208.704C26.9066 208.815 26.9014 208.92 26.8949 209.02L27.3939 209.053ZM27.0092 209.247C36.3535 215.254 50.0512 225.984 52.0546 227.684L52.3781 227.303C50.3621 225.592 36.6466 214.848 27.2796 208.826L27.0092 209.247ZM70.4248 247.739L69.0711 247.537L68.9974 248.032L70.3511 248.234L70.4248 247.739ZM69.0711 247.537L65.5135 247.007L65.4398 247.502L68.9974 248.032L69.0711 247.537ZM52.0546 227.684C57.9389 232.678 61.5471 236.508 63.9729 239.697C66.3969 242.883 67.6458 245.436 68.8083 247.892L69.2602 247.678C68.0932 245.213 66.8267 242.622 64.3709 239.394C61.9169 236.168 58.2809 232.312 52.3781 227.303L52.0546 227.684Z" fill="#1D1D1D"/>
<g style="mix-blend-mode:multiply" opacity="0.5">
<path d="M65.4767 247.251C65.3948 246.519 63.7577 244.226 57.8641 240.908C50.4971 236.76 33.3986 225.265 29.1331 219.439C27.1683 216.755 25.9407 214.803 26.1862 212.607C26.3611 211.043 27.0108 211.107 27.1444 209.033C27.151 208.93 27.1564 208.823 27.1603 208.709C27.1624 208.65 27.3688 208.576 27.4198 208.606C27.5624 208.69 27.7585 208.749 27.9918 208.754C35.0267 212.363 45.586 220.903 53.1986 226.758C60.9656 232.733 68.5828 243.186 71.3636 247.741L70.388 247.983L69.0342 247.781L65.4767 247.251Z" fill="#CCEDD4"/>
</g>
<g style="mix-blend-mode:multiply" opacity="0.6">
<path d="M27.1854 208.814C27.1875 208.755 27.3938 208.681 27.4448 208.711C27.5875 208.795 27.7835 208.854 28.0168 208.859C35.0517 212.468 45.6111 221.008 53.2236 226.863C60.9907 232.838 68.6079 243.291 71.3886 247.846L70.413 248.088L69.0593 247.886C66.7298 242.966 64.0286 237.598 52.2414 227.595C50.2317 225.89 36.5251 215.152 27.1695 209.138C27.1761 209.035 27.1814 208.928 27.1854 208.814Z" fill="#CCEDD4"/>
</g>
<path d="M103.786 236.517C93.7173 243.593 84.8769 253.108 79.2289 258.72L77.7554 260.185C77.5098 259.372 76.9697 257.159 76.7732 254.817C76.5276 251.889 77.2643 247.742 79.72 244.326C82.1757 240.91 92.2439 231.638 103.294 226.27C114.345 220.903 119.502 222.366 120.238 222.61C120.828 222.806 122.452 223.993 123.191 224.562C123.377 224.635 123.54 224.717 123.676 224.808C118.519 227.002 111.77 230.906 103.786 236.517Z" fill="#CCEDD4"/>
<path d="M103.786 236.517L103.642 236.313L103.786 236.517ZM79.2289 258.72L79.0527 258.542L79.0526 258.542L79.2289 258.72ZM77.7554 260.185L77.516 260.257L77.6364 260.656L77.9317 260.362L77.7554 260.185ZM76.7732 254.817L77.0223 254.796L76.7732 254.817ZM79.72 244.326L79.517 244.18L79.72 244.326ZM103.294 226.27L103.404 226.495L103.294 226.27ZM120.238 222.61L120.317 222.373V222.373L120.238 222.61ZM123.191 224.562L123.038 224.76L123.066 224.782L123.1 224.795L123.191 224.562ZM123.676 224.808L123.774 225.038L124.202 224.856L123.815 224.599L123.676 224.808ZM103.642 236.313C93.5512 243.404 84.6905 252.941 79.0527 258.542L79.4051 258.897C85.0632 253.276 93.8834 243.782 103.929 236.722L103.642 236.313ZM79.0526 258.542L77.5791 260.008L77.9317 260.362L79.4051 258.897L79.0526 258.542ZM77.9947 260.113C77.7532 259.313 77.2171 257.118 77.0223 254.796L76.5241 254.838C76.7222 257.201 77.2664 259.43 77.516 260.257L77.9947 260.113ZM77.0223 254.796C76.781 251.919 77.5068 247.833 79.923 244.472L79.517 244.18C77.0219 247.651 76.2742 251.86 76.5241 254.838L77.0223 254.796ZM79.923 244.472C81.1313 242.791 84.2419 239.636 88.4417 236.224C92.637 232.816 97.9004 229.168 103.404 226.495L103.185 226.045C97.6378 228.74 92.3419 232.412 88.1265 235.836C83.9157 239.256 80.7643 242.445 79.517 244.18L79.923 244.472ZM103.404 226.495C114.407 221.151 119.496 222.628 120.16 222.848L120.317 222.373C119.508 222.105 114.283 220.655 103.185 226.045L103.404 226.495ZM120.16 222.848C120.279 222.887 120.47 222.985 120.716 223.132C120.957 223.276 121.233 223.458 121.517 223.652C122.085 224.041 122.671 224.478 123.038 224.76L123.343 224.364C122.971 224.078 122.377 223.636 121.8 223.24C121.512 223.042 121.226 222.855 120.973 222.703C120.725 222.555 120.493 222.431 120.317 222.373L120.16 222.848ZM123.1 224.795C123.273 224.863 123.419 224.937 123.538 225.016L123.815 224.599C123.66 224.497 123.481 224.407 123.282 224.329L123.1 224.795ZM123.579 224.578C118.399 226.782 111.633 230.696 103.642 236.313L103.929 236.722C111.906 231.116 118.64 227.223 123.774 225.038L123.579 224.578Z" fill="#1D1D1D"/>
<path d="M110.912 256.28C108.469 260.191 106.508 261.417 97.4477 269.497C90.7774 275.445 83.8619 278.405 80.5703 279.354C80.2851 279.436 80.0271 279.503 79.7988 279.556C78.1537 277.039 78.4397 273.072 78.7824 268.823C79.2547 262.966 81.6928 257.346 86.5855 251.475C91.4782 245.604 101.055 245.574 103.511 245.567L107.931 245.553C108.913 245.55 109.815 245.873 110.143 246.035C110.302 245.991 110.494 245.962 110.708 245.95C111.7 245.895 113.187 246.198 114.32 246.997C116.043 248.211 113.355 252.368 110.912 256.28Z" fill="#DEF4E7"/>
<path d="M97.4477 269.497L97.6141 269.684L97.4477 269.497ZM80.5703 279.354L80.6395 279.594H80.6395L80.5703 279.354ZM79.7988 279.556L79.5896 279.692L79.685 279.838L79.855 279.799L79.7988 279.556ZM78.7824 268.823L79.0316 268.843L78.7824 268.823ZM103.511 245.567L103.512 245.817L103.511 245.567ZM107.931 245.553L107.93 245.303L107.931 245.553ZM110.708 245.95L110.722 246.2L110.708 245.95ZM114.32 246.997L114.176 247.201L114.32 246.997ZM93.2264 257.256L93.4053 257.431L93.2264 257.256ZM110.7 256.147C108.282 260.019 106.366 261.209 97.2813 269.31L97.6141 269.684C106.65 261.625 108.656 260.363 111.124 256.412L110.7 256.147ZM97.2813 269.31C90.6416 275.232 83.7602 278.175 80.5011 279.114L80.6395 279.594C83.9637 278.636 90.9133 275.659 97.6141 269.684L97.2813 269.31ZM80.5011 279.114C80.2196 279.195 79.966 279.261 79.7427 279.312L79.855 279.799C80.0883 279.745 80.3507 279.677 80.6395 279.594L80.5011 279.114ZM80.0081 279.419C79.221 278.215 78.8853 276.646 78.7949 274.827C78.7045 273.008 78.86 270.971 79.0316 268.843L78.5332 268.803C78.3621 270.924 78.2032 272.995 78.2955 274.851C78.3877 276.707 78.7315 278.38 79.5896 279.692L80.0081 279.419ZM79.0316 268.843C79.4989 263.048 81.9104 257.476 86.7775 251.635L86.3934 251.315C81.4752 257.217 79.0105 262.883 78.5332 268.803L79.0316 268.843ZM86.7775 251.635C89.1733 248.761 92.7285 247.303 96.0167 246.566C99.3012 245.83 102.286 245.82 103.512 245.817L103.51 245.317C102.28 245.32 99.2484 245.33 95.9074 246.078C92.57 246.826 88.8904 248.319 86.3934 251.315L86.7775 251.635ZM103.512 245.817L107.932 245.803L107.93 245.303L103.51 245.317L103.512 245.817ZM107.932 245.803C108.867 245.8 109.731 246.11 110.032 246.259L110.253 245.811C109.899 245.636 108.959 245.3 107.93 245.303L107.932 245.803ZM110.209 246.276C110.347 246.238 110.52 246.211 110.722 246.2L110.694 245.701C110.467 245.713 110.257 245.744 110.077 245.794L110.209 246.276ZM110.722 246.2C111.666 246.148 113.095 246.438 114.176 247.201L114.464 246.792C113.279 245.957 111.735 245.643 110.694 245.701L110.722 246.2ZM114.176 247.201C114.509 247.435 114.653 247.819 114.609 248.39C114.564 248.968 114.328 249.692 113.951 250.524C113.197 252.185 111.926 254.185 110.7 256.147L111.124 256.412C112.341 254.463 113.635 252.429 114.406 250.73C114.791 249.882 115.056 249.094 115.107 248.429C115.159 247.756 114.993 247.165 114.464 246.792L114.176 247.201ZM110.041 245.806C106.932 247.192 98.6025 251.392 93.0475 257.082L93.4053 257.431C98.8922 251.811 107.151 247.642 110.244 246.263L110.041 245.806ZM93.0475 257.082C85.3906 264.924 82.1469 274.572 79.5777 279.439L80.0199 279.672C82.6371 274.715 85.8158 265.204 93.4053 257.431L93.0475 257.082Z" fill="#1D1D1D"/>
<g style="mix-blend-mode:multiply" opacity="0.5">
<path d="M78.7824 268.823C78.4397 273.072 78.1537 277.039 79.7988 279.556C82.392 274.644 85.6032 265.064 93.2264 257.256C98.7474 251.602 107.041 247.417 110.143 246.035C109.815 245.873 108.913 245.55 107.931 245.553L103.511 245.567C101.055 245.574 91.4782 245.604 86.5855 251.475C81.6928 257.346 79.2547 262.966 78.7824 268.823Z" fill="#CCEDD4"/>
</g>
<path d="M56.3464 247.306C60.2442 245.801 68.5271 246.553 70.7197 246.553C80.2207 244.295 94.5939 241.789 96.5429 246.553C98.4918 251.318 92.1578 263.606 89.7216 265.863C87.2855 268.12 85.0825 271.645 77.2973 272.131C69.258 272.633 55.1281 256.332 52.9358 253.826C51.9763 252.729 51.9776 251.186 52.9358 249.795C53.6056 248.822 54.7428 247.925 56.3464 247.306Z" fill="#CCEDD4"/>
<path d="M70.7197 246.553V246.803H70.749L70.7775 246.797L70.7197 246.553ZM56.3464 247.306L56.2564 247.072L56.3464 247.306ZM52.9358 253.826L52.7476 253.99L52.9358 253.826ZM77.2973 272.131L77.3129 272.381L77.2973 272.131ZM52.9358 249.795L52.7299 249.653L52.9358 249.795ZM64.1419 247.555L64.1341 247.805L64.1419 247.555ZM73.0669 250.294L73.2576 250.133V250.133L73.0669 250.294ZM73.574 250.219L73.3484 250.111L73.574 250.219ZM81.9258 246.051L81.8811 245.805L81.9258 246.051ZM70.7197 246.303C70.1784 246.303 69.259 246.257 68.1073 246.21C66.9605 246.162 65.5937 246.115 64.1725 246.115C61.343 246.115 58.254 246.301 56.2564 247.072L56.4364 247.539C58.3366 246.805 61.338 246.615 64.1725 246.615C65.5834 246.615 66.9421 246.662 68.0868 246.709C69.2265 246.756 70.1647 246.803 70.7197 246.803V246.303ZM52.7476 253.99C53.8438 255.244 57.9331 259.956 62.7568 264.292C65.1683 266.46 67.77 268.541 70.2787 270.049C72.7791 271.553 75.2246 272.511 77.3129 272.381L77.2817 271.882C75.3504 272.002 73.0149 271.111 70.5364 269.621C68.0661 268.136 65.4911 266.078 63.0911 263.921C58.292 259.606 54.2201 254.914 53.124 253.661L52.7476 253.99ZM77.3129 272.381C81.2451 272.135 83.7857 271.12 85.6545 269.869C87.5034 268.631 88.7069 267.144 89.8915 266.046L89.5517 265.68C88.3003 266.839 87.1841 268.243 85.3763 269.454C83.5882 270.651 81.1347 271.641 77.2817 271.882L77.3129 272.381ZM89.8915 266.046C90.5296 265.455 91.3977 264.236 92.3049 262.69C93.2166 261.137 94.1809 259.23 95.0074 257.245C95.8336 255.26 96.5252 253.19 96.8873 251.311C97.2476 249.44 97.2897 247.719 96.7742 246.459L96.3115 246.648C96.7704 247.77 96.7516 249.372 96.3963 251.216C96.0428 253.051 95.3641 255.087 94.5459 257.053C93.728 259.017 92.7739 260.903 91.8737 262.437C90.969 263.979 90.1318 265.142 89.5517 265.68L89.8915 266.046ZM96.7742 246.459C96.2397 245.152 94.8719 244.387 93.0769 243.982C91.2729 243.574 88.9692 243.513 86.4477 243.67C81.4015 243.985 75.4163 245.18 70.6619 246.31L70.7775 246.797C75.5241 245.668 81.476 244.481 86.4789 244.169C88.982 244.013 91.2308 244.077 92.9668 244.47C94.7119 244.864 95.8716 245.572 96.3115 246.648L96.7742 246.459ZM56.2564 247.072C54.6154 247.706 53.4335 248.632 52.7299 249.653L53.1417 249.937C53.7776 249.013 54.8703 248.143 56.4364 247.539L56.2564 247.072ZM52.7299 249.653C51.7212 251.117 51.6974 252.79 52.7476 253.99L53.124 253.661C52.2553 252.668 52.2339 251.254 53.1417 249.937L52.7299 249.653ZM53.0903 249.991C54.0832 249.21 57.7362 247.605 64.1341 247.805L64.1497 247.305C57.6847 247.104 53.8996 248.719 52.7813 249.598L53.0903 249.991ZM64.1341 247.805C69.5547 247.974 72.039 249.469 72.8763 250.456L73.2576 250.133C72.2887 248.99 69.6345 247.476 64.1497 247.305L64.1341 247.805ZM73.7996 250.327C74.3336 249.209 76.3985 247.309 81.9704 246.297L81.8811 245.805C76.2564 246.826 73.9875 248.774 73.3484 250.111L73.7996 250.327ZM81.9704 246.297C86.1061 245.545 89.4971 245.173 91.9687 245.236C93.2053 245.267 94.1976 245.407 94.933 245.654C95.6706 245.902 96.1158 246.247 96.318 246.663L96.7677 246.444C96.4827 245.858 95.8927 245.45 95.0924 245.18C94.29 244.91 93.2419 244.768 91.9814 244.736C89.4587 244.672 86.0283 245.051 81.8811 245.805L81.9704 246.297ZM72.8763 250.456C72.951 250.544 73.0515 250.582 73.1291 250.598C73.2101 250.614 73.2941 250.613 73.3703 250.602C73.4465 250.59 73.5266 250.567 73.5987 250.528C73.6676 250.491 73.7513 250.428 73.7996 250.327L73.3484 250.111C73.356 250.095 73.3644 250.087 73.3669 250.085C73.3693 250.083 73.3684 250.084 73.362 250.087C73.3485 250.095 73.325 250.103 73.2956 250.108C73.2661 250.112 73.2424 250.111 73.2294 250.108C73.2234 250.107 73.2237 250.106 73.2283 250.108C73.2331 250.111 73.245 250.118 73.2576 250.133L72.8763 250.456Z" fill="#1D1D1D"/>
<g style="mix-blend-mode:multiply" opacity="0.3">
<path d="M77.2974 272.13C69.2581 272.631 55.1283 256.331 52.9359 253.824C51.9765 252.727 51.9777 251.184 52.9359 249.793C53.9915 248.963 57.7106 247.353 64.142 247.554C69.5948 247.724 72.164 249.228 73.0671 250.293C73.1681 250.412 73.5063 250.36 73.5741 250.218C74.1607 248.99 76.3276 247.066 81.9259 246.049C90.2088 244.544 95.5687 244.547 96.543 246.552C98.4919 251.317 92.1579 263.605 89.7218 265.862C87.2856 268.119 85.0826 271.644 77.2974 272.13Z" fill="#CCEDD4"/>
</g>
<path d="M73.8266 249.692C74.1307 249.203 74.3442 248.955 74.8089 248.717C75.1363 249.611 75.8403 251.644 76.0367 252.62C76.2823 253.84 76.7734 261.892 76.7734 262.624C76.7734 263.355 76.5279 266.283 76.7734 267.259C77.019 268.235 77.019 267.991 77.019 269.211C77.019 270.187 76.7734 271.407 76.5279 271.895C76.3642 272.058 76.135 272.139 75.5456 272.139C74.9563 272.139 74.5633 271.732 74.5633 271.407C75.0545 270.431 75.3 268.674 75.3 267.503C75.3 266.039 75.0545 264.331 75.3 262.624C75.5456 260.916 75.0545 253.84 74.8089 252.864C74.6125 252.084 74.0722 250.424 73.8266 249.692Z" fill="#41826E" stroke="#1D1D1D" stroke-width="0.5"/>
<path d="M43.6595 271.788C46.2843 275.581 48.3006 276.715 57.7316 284.365C64.6748 289.996 71.7221 292.632 75.0548 293.426C75.3436 293.495 75.6044 293.55 75.8349 293.592C77.3597 291.002 76.8872 287.052 76.3447 282.823C75.597 276.994 72.8969 271.495 67.733 265.858C62.5691 260.221 53.0013 260.636 50.5478 260.742L46.1319 260.934C45.1505 260.977 44.2653 261.341 43.9453 261.518C43.7837 261.482 43.5913 261.462 43.3767 261.46C42.3827 261.452 40.9123 261.823 39.8176 262.673C38.1539 263.967 41.0347 267.994 43.6595 271.788Z" fill="#DEF4E7"/>
<path d="M57.7316 284.365L57.5741 284.559L57.7316 284.365ZM75.0548 293.426L74.9968 293.669V293.669L75.0548 293.426ZM75.8349 293.592L75.7902 293.838L75.9619 293.869L76.0504 293.718L75.8349 293.592ZM76.3447 282.823L76.0968 282.855L76.3447 282.823ZM50.5478 260.742L50.5587 260.992L50.5587 260.992L50.5478 260.742ZM46.1319 260.934L46.121 260.684L46.1319 260.934ZM43.3767 261.46L43.3745 261.71L43.3767 261.46ZM39.8176 262.673L39.9711 262.871H39.9711L39.8176 262.673ZM62.04 272.384L62.214 272.205L62.04 272.384ZM43.4539 271.93C46.1055 275.762 48.1681 276.929 57.5741 284.559L57.8891 284.17C48.4331 276.5 46.4632 275.4 43.8651 271.646L43.4539 271.93ZM57.5741 284.559C64.549 290.216 71.6312 292.867 74.9968 293.669L75.1128 293.183C71.813 292.396 64.8005 289.777 57.8891 284.17L57.5741 284.559ZM74.9968 293.669C75.2893 293.739 75.5546 293.795 75.7902 293.838L75.8797 293.346C75.6542 293.305 75.3978 293.251 75.1128 293.183L74.9968 293.669ZM76.0504 293.718C76.8457 292.367 77.1104 290.68 77.115 288.822C77.1198 286.964 76.8635 284.903 76.5927 282.791L76.0968 282.855C76.3684 284.972 76.6197 287.001 76.6151 288.821C76.6104 290.643 76.349 292.226 75.6195 293.465L76.0504 293.718ZM76.5927 282.791C75.8371 276.901 73.1082 271.355 67.9174 265.689L67.5487 266.027C72.6856 271.634 75.357 277.088 76.0968 282.855L76.5927 282.791ZM67.9174 265.689C65.2821 262.812 61.5362 261.492 58.1673 260.9C54.7946 260.307 51.7662 260.439 50.537 260.493L50.5587 260.992C51.7829 260.939 54.7651 260.81 58.0808 261.392C61.4001 261.976 65.0201 263.266 67.5487 266.027L67.9174 265.689ZM50.537 260.493L46.121 260.684L46.1427 261.184L50.5587 260.992L50.537 260.493ZM46.121 260.684C45.0929 260.729 44.1701 261.108 43.8243 261.3L44.0664 261.737C44.3605 261.574 45.2082 261.224 46.1427 261.184L46.121 260.684ZM44.0002 261.274C43.8172 261.233 43.6065 261.213 43.379 261.21L43.3745 261.71C43.5762 261.712 43.7503 261.731 43.8905 261.762L44.0002 261.274ZM43.379 261.21C42.3362 261.201 40.809 261.586 39.6642 262.476L39.9711 262.871C41.0156 262.059 42.4292 261.702 43.3745 261.71L43.379 261.21ZM39.6642 262.476C39.1535 262.873 39.0154 263.472 39.0988 264.141C39.1814 264.803 39.4835 265.578 39.9078 266.407C40.7576 268.068 42.1461 270.04 43.4539 271.93L43.8651 271.646C42.5481 269.742 41.1838 267.803 40.3529 266.179C39.9369 265.366 39.6667 264.654 39.595 264.079C39.5242 263.51 39.6499 263.121 39.9711 262.871L39.6642 262.476ZM43.8489 261.749C47.2651 263.177 56.0187 266.892 61.8659 272.563L62.214 272.205C56.2897 266.459 47.4499 262.712 44.0417 261.288L43.8489 261.749ZM61.8659 272.563C67.0075 277.55 69.9457 281.615 71.8445 285.033C73.7468 288.458 74.6058 291.229 75.6033 293.686L76.0666 293.498C75.0851 291.081 74.2035 288.25 72.2816 284.79C70.356 281.324 67.3862 277.221 62.214 272.205L61.8659 272.563Z" fill="#1D1D1D"/>
<g style="mix-blend-mode:multiply" opacity="0.5">
<path d="M57.7316 284.368C48.3006 276.718 46.2843 275.585 43.6595 271.791C41.0347 267.998 38.1539 263.97 39.8176 262.677C40.9123 261.826 42.3827 261.455 43.3767 261.464C43.5913 261.466 43.7837 261.485 43.9453 261.522C47.3575 262.948 56.1542 266.679 62.04 272.387C72.3538 282.391 73.856 288.722 75.835 293.595C75.6045 293.553 75.3436 293.498 75.0548 293.429C71.7221 292.635 64.6748 290 57.7316 284.368Z" fill="#CCEDD4"/>
</g>
<path d="M104.417 299.956C104.417 302.651 91.8523 304.835 76.3525 304.835C60.8528 304.835 48.2878 302.651 48.2878 299.956" stroke="#1D1D1D" stroke-width="0.5"/>
</g>
<g style="mix-blend-mode:multiply">
<path d="M164.115 341.941L18.3039 389.165C17.6268 389.382 17.4911 390.271 18.0733 390.676L121.331 462.579C121.577 462.75 121.895 462.783 122.17 462.665L288.754 391.575C289.41 391.296 289.458 390.394 288.836 390.047L164.805 342.01C164.595 341.893 164.345 341.868 164.115 341.941Z" fill="#90B3A8"/>
</g>
<path d="M9.74373 395.691V376.656C9.74373 375.938 10.5414 375.51 11.1396 375.906L111.42 442.316L111.977 442.685C112.75 443.197 113.732 443.276 114.577 442.893L272.482 371.375V392.113L111.42 462.894L10.1506 396.438C9.8967 396.271 9.74373 395.995 9.74373 395.691Z" fill="white"/>
<path d="M111.42 462.894L10.1506 396.438C9.8967 396.271 9.74373 395.995 9.74373 395.691V376.656C9.74373 375.938 10.5414 375.51 11.1396 375.906L111.42 442.316M111.42 462.894L272.482 392.113V371.375L114.577 442.893C113.732 443.276 112.75 443.197 111.977 442.685L111.42 442.316M111.42 462.894V442.316" stroke="#1D1D1D" stroke-width="0.5"/>
<path d="M110.558 469.389L8.39377 402.036C6.593 399.781 4.34375 392.568 4.34375 386.256C4.34375 378.592 7.04311 371.83 8.39377 370.477L160.343 324.309C161.875 323.843 163.518 323.903 165.012 324.478L275.181 366.871V369.894C275.181 370.249 274.973 370.571 274.65 370.717L114.575 442.901C113.731 443.281 112.751 443.202 111.979 442.691L11.1393 375.91C10.5411 375.514 9.74345 375.944 9.74345 376.662V395.724L110.97 462.447L272.48 392.117H276.531V395.139C276.531 395.495 276.322 395.817 275.997 395.962L111.419 469.46C111.139 469.585 110.815 469.558 110.558 469.389Z" fill="#76B899"/>
<path d="M276.531 392.117V395.139C276.531 395.495 276.322 395.817 275.997 395.962L111.419 469.46C111.139 469.585 110.815 469.558 110.558 469.389L8.39377 402.036C6.593 399.781 4.34375 392.568 4.34375 386.256C4.34375 378.592 7.04311 371.83 8.39377 370.477M276.531 392.117L111.411 464.957C111.135 465.079 110.828 465.061 110.574 464.898C76.7029 443.174 9.74345 399.957 9.74345 398.88V395.724M276.531 392.117H272.48L110.97 462.447L9.74345 395.724M275.181 366.871V369.894C275.181 370.249 274.973 370.571 274.65 370.717L114.575 442.901C113.731 443.281 112.751 443.202 111.979 442.691L11.1393 375.91C10.5411 375.514 9.74345 375.944 9.74345 376.662V395.724M275.181 366.871L114.575 439.294C113.731 439.675 112.751 439.595 111.979 439.084L8.39377 370.477M275.181 366.871L165.012 324.478C163.518 323.903 161.875 323.843 160.343 324.309L8.39377 370.477" stroke="#1D1D1D" stroke-width="0.5"/>
<path opacity="0.5" d="M110.558 468.986L8.39377 401.632C6.593 399.378 4.34375 392.165 4.34375 385.853C4.34375 379.041 6.47639 372.941 7.89896 370.719C8.15554 370.319 8.67894 370.263 9.07563 370.526L111.979 438.681C112.751 439.192 113.731 439.271 114.575 438.891L273.77 367.104C274.432 366.805 275.181 367.289 275.181 368.015V369.491C275.181 369.846 274.973 370.168 274.65 370.313L114.575 442.497C113.731 442.878 112.751 442.799 111.979 442.287L11.1393 375.507C10.5411 375.111 9.74345 375.54 9.74345 376.259V395.321L110.97 462.044L272.48 391.714H276.531V394.735C276.531 395.091 276.322 395.414 275.997 395.559L111.419 469.056C111.139 469.181 110.815 469.155 110.558 468.986Z" fill="#C5ECE0"/>
<g style="mix-blend-mode:multiply" opacity="0.7">
<path d="M111.411 464.955L276.531 392.115H272.481L110.97 462.445L9.74373 395.722V398.878C9.74373 399.955 76.7032 443.172 110.574 464.896C110.828 465.059 111.135 465.077 111.411 464.955Z" fill="#76B899"/>
</g>
<path d="M276.531 392.117V395.139C276.531 395.495 276.321 395.817 275.997 395.962L111.419 469.46C111.139 469.585 110.815 469.558 110.558 469.389L8.39377 402.036C6.593 399.781 4.34375 392.568 4.34375 386.256C4.34375 378.592 7.04311 371.83 8.39377 370.477M276.531 392.117L111.411 464.957C111.135 465.079 110.827 465.061 110.574 464.898C76.7029 443.174 9.74345 399.957 9.74345 398.88V395.724M276.531 392.117H272.48L110.97 462.447L9.74345 395.724M275.181 366.871V369.894C275.181 370.249 274.973 370.571 274.65 370.717L114.575 442.901C113.731 443.281 112.751 443.202 111.979 442.691L11.1393 375.91C10.5411 375.514 9.74345 375.944 9.74345 376.662V395.724M275.181 366.871L114.575 439.294C113.731 439.675 112.751 439.595 111.979 439.084L8.39377 370.477M275.181 366.871L165.012 324.478C163.518 323.903 161.875 323.843 160.343 324.309L8.39377 370.477" stroke="#1D1D1D" stroke-width="0.5"/>
<path d="M32.921 394.9L40.3649 399.31C35.5421 401.94 33.9745 404.734 26.3522 404.102L18.9083 399.692C26.4169 399.261 28.7944 397.722 32.921 394.9Z" fill="#FCEDB6" stroke="#1D1D1D" stroke-width="0.5"/>
<path d="M90.0083 444.114L97.7538 448.702C92.7355 451.438 91.1044 454.346 83.1734 453.688L75.4278 449.099C83.2407 448.651 85.7145 447.05 90.0083 444.114Z" fill="#FCEDB6" stroke="#1D1D1D" stroke-width="0.5"/>
<path d="M81.0089 434.197L88.7544 438.786C83.7361 441.522 82.105 444.429 74.174 443.772L66.4284 439.183C74.2413 438.735 76.715 437.134 81.0089 434.197Z" fill="#FCEDB6" stroke="#1D1D1D" stroke-width="0.5"/>
<path d="M183.475 354.516L191.82 351.203C192.667 350.866 192.691 349.673 191.858 349.303L160.16 335.22C159.82 335.083 159.444 335.063 159.091 335.164L151.447 338.132C151.029 338.294 151.004 338.878 151.408 339.075L182.678 354.359C182.813 354.425 182.941 354.515 183.088 354.55C183.215 354.58 183.351 354.57 183.475 354.516Z" fill="white"/>
<g style="mix-blend-mode:multiply" opacity="0.7">
<path fill-rule="evenodd" clip-rule="evenodd" d="M204.269 398.568L18.3934 377.461L7.81795 370.457L159.767 324.289C161.299 323.823 162.942 323.883 164.436 324.458L274.605 366.85L204.269 398.568Z" fill="#76B899"/>
</g>
<mask id="mask4_83_3253" style="mask-type:alpha" maskUnits="userSpaceOnUse" x="87" y="173" width="181" height="195">
<path d="M124.091 302.724C124.571 294.562 130.292 235.708 133.093 207.901C133.893 202.1 136.334 189.657 139.695 186.296C143.896 182.095 236.855 175.022 244.12 174.293C253.45 173.358 260.967 174.238 264.698 180.034C266.282 182.194 267.13 184.659 266.925 186.296L245.317 189.576C244.591 193.007 244.211 196.239 244.12 197.694C242.32 234.903 237.998 312.327 235.118 333.932C231.517 360.938 225.515 366.019 222.515 366.619C222.115 367.019 220.354 367.219 218.914 367.219C217.474 367.219 135.694 360.218 94.6839 356.417C93.2835 356.417 90.2428 354.256 89.2826 352.816C88.3223 351.376 88.0823 350.629 88.0823 349.536C89.108 349.536 90.3719 349.676 91.7958 349.833L97.0009 350.249C102.316 350.387 108.367 349.336 112.688 343.214C118.322 335.232 123.491 312.927 124.091 302.724Z" fill="#F7FAFF"/>
<path d="M88.0823 349.536C93.4836 349.536 105.486 353.416 112.688 343.214C118.322 335.232 123.491 312.927 124.091 302.724C124.571 294.562 130.292 235.708 133.093 207.901C133.893 202.1 136.334 189.657 139.695 186.296C143.896 182.095 236.855 175.022 244.12 174.293C256.123 173.09 265.125 174.892 266.925 186.296M88.0823 349.536L211.712 359.418C213.112 361.218 217.422 367.638 222.515 366.619M88.0823 349.536C88.0823 350.629 88.3223 351.376 89.2826 352.816C90.2428 354.256 93.2835 356.417 94.6839 356.417C135.694 360.218 217.474 367.219 218.914 367.219C220.354 367.219 222.115 367.019 222.515 366.619M222.515 366.619C225.515 366.019 231.517 360.938 235.118 333.932C237.998 312.327 242.32 234.903 244.12 197.694C244.211 196.239 244.591 193.007 245.317 189.576M266.925 186.296C267.526 181.49 259.062 169.562 249.521 179.093C247.557 181.055 246.188 185.459 245.317 189.576M266.925 186.296L245.317 189.576" stroke="black" stroke-width="0.5"/>
</mask>
<g mask="url(#mask4_83_3253)">
<path d="M124.091 302.724C124.571 294.562 130.292 235.708 133.093 207.901C133.893 202.1 136.334 189.657 139.695 186.296C143.896 182.095 236.855 175.022 244.12 174.293C253.45 173.358 260.967 174.238 264.698 180.034C266.282 182.194 267.13 184.659 266.925 186.296L245.317 189.576C244.591 193.007 244.211 196.239 244.12 197.694C242.32 234.903 237.998 312.327 235.118 333.932C231.517 360.938 225.515 366.019 222.515 366.619C222.115 367.019 220.354 367.219 218.914 367.219C217.474 367.219 135.694 360.218 94.6839 356.417C93.2835 356.417 90.2428 354.256 89.2826 352.816C88.3223 351.376 88.0823 350.629 88.0823 349.536C89.108 349.536 90.3719 349.676 91.7958 349.833L97.0009 350.249C102.316 350.387 108.367 349.336 112.688 343.214C118.322 335.232 123.491 312.927 124.091 302.724Z" fill="#F5FCFA"/>
<rect opacity="0.1" x="334.414" y="315.511" width="104.414" height="263.93" transform="rotate(85.7594 334.414 315.511)" fill="#DEF4E7"/>
<rect opacity="0.1" width="76.7245" height="263.93" transform="matrix(-0.208688 -0.977982 -0.977982 0.208688 331.549 236.518)" fill="#DEF4E7"/>
<rect opacity="0.2" x="285.227" y="333.892" width="79.6371" height="263.93" transform="rotate(85.9671 285.227 333.892)" fill="#C1E5CB"/>
<rect opacity="0.6" width="24.9806" height="263.93" transform="matrix(-0.208688 -0.977982 -0.977982 0.208688 315.267 160.206)" fill="white"/>
<rect opacity="0.6" width="70.9979" height="263.93" transform="matrix(-0.208688 -0.977982 -0.977982 0.208688 320.691 269.885)" fill="white"/>
<path d="M88.0823 349.536C93.4836 349.536 105.486 353.416 112.688 343.214C118.322 335.232 123.491 312.927 124.091 302.724C124.571 294.562 130.292 235.708 133.093 207.901C133.893 202.1 136.334 189.657 139.695 186.296C143.896 182.095 236.855 175.022 244.12 174.293C256.123 173.09 265.125 174.892 266.925 186.296M88.0823 349.536L211.712 359.418C213.112 361.218 217.422 367.638 222.515 366.619M88.0823 349.536C88.0823 350.629 88.3223 351.376 89.2826 352.816C90.2428 354.256 93.2835 356.417 94.6839 356.417C135.694 360.218 217.474 367.219 218.914 367.219C220.354 367.219 222.115 367.019 222.515 366.619M222.515 366.619C225.515 366.019 231.517 360.938 235.118 333.932C237.998 312.327 242.32 234.903 244.12 197.694C244.211 196.239 244.591 193.007 245.317 189.576M266.925 186.296C267.526 181.49 259.062 169.562 249.521 179.093C247.557 181.055 246.188 185.459 245.317 189.576M266.925 186.296L245.317 189.576" stroke="#1D1D1D" stroke-width="0.5"/>
</g>
<path d="M145.576 243.938L145.636 240.515C145.645 239.991 146.058 239.563 146.581 239.534L218.193 235.627C218.819 235.593 219.322 236.137 219.239 236.758L218.761 240.333C218.697 240.81 218.303 241.174 217.823 241.199L146.629 244.955C146.049 244.985 145.566 244.518 145.576 243.938Z" fill="#ABE0C7" stroke="#1D1D1D" stroke-width="0.5"/>
<path d="M143.822 254.255L143.853 250.835C143.857 250.302 144.279 249.865 144.811 249.84L190.279 247.752C190.88 247.724 191.367 248.231 191.317 248.831L191.018 252.391C190.975 252.894 190.565 253.288 190.06 253.31L144.861 255.259C144.29 255.284 143.817 254.826 143.822 254.255Z" fill="#ABE0C7" stroke="#1D1D1D" stroke-width="0.5"/>
<path d="M141.36 274.825L141.407 271.404C141.414 270.873 141.834 270.44 142.364 270.416L194.814 268.055C195.422 268.028 195.912 268.545 195.851 269.151L195.496 272.713C195.447 273.209 195.039 273.594 194.541 273.615L142.4 275.835C141.828 275.859 141.353 275.398 141.36 274.825Z" fill="#ABE0C7" stroke="#1D1D1D" stroke-width="0.5"/>
<path d="M140.059 285.096L140.084 281.676C140.087 281.14 140.513 280.703 141.049 280.685L174.159 279.581C174.749 279.561 175.229 280.055 175.192 280.645L174.968 284.195C174.936 284.71 174.517 285.115 174.001 285.131L141.09 286.104C140.523 286.12 140.055 285.663 140.059 285.096Z" fill="#ABE0C7" stroke="#1D1D1D" stroke-width="0.5"/>
<path d="M136.371 304.923L136.557 301.508C136.586 300.977 137.025 300.56 137.557 300.559L186.621 300.469C187.226 300.468 187.692 301 187.61 301.601L187.129 305.144C187.061 305.641 186.636 306.012 186.134 306.012L137.365 305.975C136.793 305.975 136.339 305.495 136.371 304.923Z" fill="#ABE0C7" stroke="#1D1D1D" stroke-width="0.5"/>
<path d="M134.72 315.125L134.886 311.71C134.912 311.174 135.356 310.755 135.893 310.761L166.803 311.088C167.392 311.094 167.849 311.605 167.79 312.191L167.432 315.728C167.38 316.244 166.943 316.633 166.425 316.625L135.706 316.176C135.14 316.168 134.692 315.691 134.72 315.125Z" fill="#ABE0C7" stroke="#1D1D1D" stroke-width="0.5"/>
<path d="M158.679 205.119C158.646 205.471 158.87 205.796 159.211 205.889L160.306 206.192C161.403 206.476 162.107 207.583 161.783 208.708C161.462 209.819 160.263 210.376 159.238 210.104L159.231 210.102L157.193 209.54C155.981 209.238 155.648 209.302 154.907 209.476C154.228 209.674 154.066 209.945 154.038 210.012C154.001 210.145 153.996 210.232 153.998 210.286C153.998 210.305 153.999 210.32 154 210.335C154.003 210.362 154.014 210.386 154.031 210.406C154.08 210.461 154.158 210.535 154.281 210.636C154.391 210.722 154.485 210.804 154.577 210.885C154.936 211.199 155.265 211.488 156.4 211.862L156.425 211.87L156.563 211.928C156.66 211.964 156.761 212.001 156.864 212.039C157.97 212.447 159.389 212.97 160.446 213.761C161.076 214.227 161.743 214.906 162.093 215.795C162.497 216.763 162.435 217.756 162.201 218.713L162.197 218.731L162.192 218.75C161.647 220.582 160.126 221.607 158.555 222.038C158.262 222.123 157.966 222.184 157.672 222.226C157.321 222.278 157.038 222.551 157.005 222.904L156.996 222.998C156.881 224.214 155.755 224.915 154.725 224.816C153.638 224.711 152.722 223.8 152.835 222.597L152.851 222.433C152.884 222.081 152.656 221.761 152.328 221.63C151.851 221.44 151.446 221.201 151.008 220.943C150.755 220.794 150.491 220.638 150.196 220.481C149.712 220.237 149.36 219.832 149.186 219.364C149.167 219.314 149.144 219.265 149.119 219.217C148.931 218.85 148.934 218.411 149.154 218.038C149.177 218.003 149.198 217.966 149.214 217.926C149.249 217.843 149.29 217.761 149.338 217.68L149.348 217.663L149.359 217.647C149.964 216.737 151.157 216.378 152.182 216.946C152.381 217.053 152.573 217.164 152.761 217.274C153.296 217.585 153.805 217.88 154.408 218.025L154.412 218.026C155.696 218.341 155.94 218.298 156.615 218.125C156.92 218.04 157.093 217.935 157.196 217.844C157.262 217.786 157.314 217.72 157.357 217.641C157.384 217.591 157.399 217.536 157.407 217.48C157.421 217.379 157.424 217.312 157.423 217.272C157.423 217.268 157.422 217.264 157.421 217.261L157.416 217.249C157.392 217.192 157.373 217.155 157.344 217.116C157.314 217.076 157.258 217.013 157.147 216.933C157.019 216.842 156.912 216.754 156.806 216.666C156.445 216.369 156.091 216.078 154.983 215.68L154.966 215.674L154.846 215.624C153.667 215.226 152.883 214.669 151.73 213.806C151.098 213.339 150.429 212.657 150.08 211.763L150.076 211.755L150.074 211.748C150.072 211.742 150.07 211.737 150.068 211.731C150.024 211.644 149.984 211.555 149.948 211.464C149.67 210.703 149.659 209.886 149.912 209.053C149.992 208.78 150.1 208.528 150.232 208.297C150.887 206.824 152.191 206.016 152.894 205.607C152.945 205.577 152.999 205.554 153.056 205.539C153.323 205.465 153.587 205.411 153.852 205.371C154.203 205.319 154.488 205.045 154.521 204.691L154.541 204.482C154.649 203.333 155.709 202.557 156.811 202.663C157.855 202.764 158.811 203.72 158.702 204.882L158.679 205.119Z" fill="#ABE0C7" stroke="#1D1D1D" stroke-width="0.5"/>
<g style="mix-blend-mode:multiply" opacity="0.5">
<path d="M266.926 186.289C267.526 181.483 259.063 169.555 249.522 179.086C247.557 181.048 246.189 185.452 245.318 189.569L266.926 186.289Z" fill="#ABE0C7"/>
</g>
<g style="mix-blend-mode:multiply" opacity="0.5">
<path d="M211.711 359.411L88.081 349.53C88.081 350.623 88.3211 351.369 89.2813 352.81C90.2415 354.25 93.2823 356.411 94.6826 356.411C135.693 360.212 217.472 367.213 218.913 367.213C220.353 367.213 222.113 367.013 222.514 366.613C217.421 367.632 213.111 361.212 211.711 359.411Z" fill="#ABE0C7"/>
</g>
</svg>
