<svg width="156" height="156" viewBox="0 0 156 156" fill="none" xmlns="http://www.w3.org/2000/svg">
<g style="mix-blend-mode:multiply" opacity="0.9" filter="url(#filter0_f_858_12719)">
<path d="M86.5061 90.6766L14.6786 113.891C14.345 113.998 14.2782 114.434 14.565 114.634L65.4306 149.98C65.5515 150.064 65.7081 150.08 65.8438 150.022L147.904 115.076C148.227 114.938 148.251 114.495 147.944 114.325L86.8459 90.7105C86.7424 90.6528 86.6192 90.6405 86.5061 90.6766Z" fill="#1D1D1D"/>
</g>
<g style="mix-blend-mode:multiply" opacity="0.9" filter="url(#filter1_f_858_12719)">
<path d="M86.5036 90.6757L14.6761 113.89C14.3426 113.997 14.2757 114.433 14.5625 114.633L65.4281 149.979C65.5491 150.063 65.7056 150.079 65.8414 150.021L147.902 115.075C148.225 114.937 148.248 114.494 147.942 114.324L86.8435 90.7095C86.7399 90.6518 86.6167 90.6396 86.5036 90.6757Z" fill="#1D1D1D"/>
</g>
<path d="M10.4595 117.098V107.741C10.4595 107.387 10.8524 107.177 11.1471 107.372L60.5457 140.018L60.82 140.199C61.2011 140.451 61.6847 140.49 62.1008 140.302L139.886 105.145V115.339L60.5457 150.134L10.6599 117.465C10.5348 117.383 10.4595 117.247 10.4595 117.098Z" fill="white"/>
<path d="M60.5457 150.134L10.6599 117.465C10.5348 117.383 10.4595 117.247 10.4595 117.098V107.741C10.4595 107.387 10.8524 107.177 11.1471 107.372L60.5457 140.018M60.5457 150.134L139.886 115.339V105.145L62.1008 140.302C61.6847 140.49 61.2011 140.451 60.82 140.199L60.5457 140.018M60.5457 150.134V140.018" stroke="#1D1D1D" stroke-width="0.295"/>
<path d="M60.1213 153.327L9.79438 120.217C8.90731 119.109 7.79932 115.563 7.79932 112.46C7.79932 108.692 9.12904 105.368 9.79438 104.703L84.6455 82.0078C85.4001 81.779 86.2094 81.8082 86.9455 82.0909L141.215 102.93V104.417C141.215 104.591 141.113 104.749 140.954 104.821L62.0998 140.305C61.684 140.492 61.2014 140.453 60.821 140.202L11.1469 107.374C10.8522 107.179 10.4592 107.39 10.4592 107.744V117.114L60.3239 149.914L139.885 115.341H141.88V116.826C141.88 117.001 141.777 117.16 141.618 117.231L60.5454 153.361C60.4073 153.423 60.2475 153.41 60.1213 153.327Z" fill="#8AD2BC"/>
<path d="M141.88 115.341V116.826C141.88 117.001 141.777 117.16 141.618 117.231L60.5454 153.361C60.4073 153.423 60.2475 153.41 60.1213 153.327L9.79438 120.217C8.90731 119.109 7.79932 115.563 7.79932 112.46C7.79932 108.692 9.12904 105.368 9.79438 104.703M141.88 115.341L60.5413 151.148C60.4055 151.208 60.2539 151.199 60.1289 151.119C43.4439 140.439 10.4592 119.195 10.4592 118.665V117.114M141.88 115.341H139.885L60.3239 149.914L10.4592 117.114M141.215 102.93V104.417C141.215 104.591 141.113 104.749 140.954 104.821L62.0998 140.305C61.684 140.492 61.2014 140.453 60.821 140.202L11.1469 107.374C10.8522 107.179 10.4592 107.39 10.4592 107.744V117.114M141.215 102.93L62.0999 138.532C61.6841 138.719 61.2014 138.68 60.821 138.429L9.79438 104.703M141.215 102.93L86.9455 82.0909C86.2094 81.8082 85.4001 81.779 84.6455 82.0078L9.79438 104.703" stroke="#1D1D1D" stroke-width="0.295"/>
<path opacity="0.5" d="M60.1213 153.128L9.79438 120.019C8.90731 118.91 7.79932 115.365 7.79932 112.262C7.79932 108.98 8.8082 106.035 9.50812 104.89C9.65435 104.651 9.96229 104.616 10.1961 104.771L60.821 138.231C61.2014 138.482 61.6841 138.521 62.0999 138.334L140.383 103.107C140.774 102.931 141.215 103.217 141.215 103.645V104.219C141.215 104.393 141.113 104.551 140.954 104.623L62.0998 140.107C61.684 140.294 61.2014 140.255 60.821 140.004L11.1469 107.176C10.8522 106.981 10.4592 107.192 10.4592 107.545V116.916L60.3239 149.716L139.885 115.143H141.88V116.628C141.88 116.803 141.777 116.962 141.618 117.033L60.5454 153.163C60.4073 153.224 60.2475 153.211 60.1213 153.128Z" fill="#C5ECE0"/>
<g style="mix-blend-mode:multiply" opacity="0.7">
<path d="M60.5415 151.147L141.881 115.34H139.885L60.3241 149.913L10.4595 117.113V118.664C10.4595 119.194 43.4441 140.438 60.1292 151.118C60.2541 151.198 60.4057 151.207 60.5415 151.147Z" fill="#8AD2BC"/>
</g>
<path d="M141.88 115.341V116.826C141.88 117.001 141.777 117.16 141.618 117.231L60.5454 153.361C60.4073 153.423 60.2475 153.41 60.1213 153.327L9.79438 120.217C8.90731 119.109 7.79932 115.563 7.79932 112.46C7.79932 108.692 9.12904 105.368 9.79438 104.703M141.88 115.341L60.5413 151.148C60.4055 151.208 60.2539 151.199 60.1289 151.119C43.4439 140.439 10.4592 119.195 10.4592 118.665V117.114M141.88 115.341H139.885L60.3239 149.914L10.4592 117.114M141.215 102.93V104.417C141.215 104.591 141.113 104.749 140.954 104.821L62.0998 140.305C61.684 140.492 61.2014 140.453 60.821 140.202L11.1469 107.374C10.8522 107.179 10.4592 107.39 10.4592 107.744V117.114M141.215 102.93L62.0999 138.532C61.6841 138.719 61.2014 138.68 60.821 138.429L9.79438 104.703M141.215 102.93L86.9455 82.0909C86.2094 81.8082 85.4001 81.779 84.6455 82.0078L9.79438 104.703" stroke="#1D1D1D" stroke-width="0.295"/>
<path d="M21.8771 116.709L25.544 118.877C23.1682 120.17 22.396 121.543 18.6412 121.233L14.9743 119.065C18.6731 118.853 19.8443 118.097 21.8771 116.709Z" fill="#F2D891" stroke="#1D1D1D" stroke-width="0.295"/>
<path d="M49.9985 140.902L53.814 143.157C51.342 144.502 50.5385 145.931 46.6316 145.608L42.8161 143.352C46.6648 143.132 47.8834 142.345 49.9985 140.902Z" fill="#F2D891" stroke="#1D1D1D" stroke-width="0.295"/>
<path d="M45.5649 136.027L49.3804 138.283C46.9084 139.628 46.1049 141.057 42.198 140.733L38.3825 138.478C42.2312 138.257 43.4498 137.47 45.5649 136.027Z" fill="#F2D891" stroke="#1D1D1D" stroke-width="0.295"/>
<path d="M96.0405 96.8572L100.151 95.2282C100.569 95.0628 100.58 94.4762 100.17 94.2942L84.5554 87.3717C84.3878 87.3042 84.2026 87.2944 84.0289 87.344L80.2633 88.8029C80.0572 88.8828 80.0451 89.1699 80.2438 89.2668L95.6476 96.7797C95.7144 96.8123 95.7772 96.8565 95.8495 96.8737C95.9124 96.8887 95.9794 96.8835 96.0405 96.8572Z" fill="white"/>
<g style="mix-blend-mode:multiply" opacity="0.5">
<path fill-rule="evenodd" clip-rule="evenodd" d="M106.28 118.514L14.7215 108.137L9.51074 104.693L84.3618 81.9978C85.1164 81.769 85.9258 81.7982 86.6619 82.0809L140.932 102.92L106.28 118.514Z" fill="#8AD2BC"/>
</g>
<g style="mix-blend-mode:multiply" opacity="0.9" filter="url(#filter2_f_858_12719)">
<path d="M73.8441 85.4285L34.8389 97.1744L89.5791 126.207L129.028 108.477L73.8441 85.4285Z" fill="#1D1D1D"/>
</g>
<g style="mix-blend-mode:multiply" opacity="0.9" filter="url(#filter3_f_858_12719)">
<path d="M90.0219 126.645C89.8446 126.29 89.6525 126.201 89.5786 126.201L128.584 108.472C128.879 108.472 129.515 108.56 129.692 108.915C129.869 109.27 129.766 109.801 129.692 110.023L90.2435 127.974C90.2435 127.679 90.1992 126.999 90.0219 126.645Z" fill="#1D1D1D"/>
</g>
<g style="mix-blend-mode:multiply" opacity="0.9" filter="url(#filter4_f_858_12719)">
<path fill-rule="evenodd" clip-rule="evenodd" d="M90.2464 127.759V136.845L129.695 119.78V109.807L90.2464 127.759ZM90.1792 136.929C90.2524 136.929 90.8984 137.899 91.0706 138.252C91.2428 138.606 91.2804 139.493 91.2776 139.786L130.53 122.15C130.606 121.931 130.703 121.016 130.53 120.663C130.358 120.309 129.993 119.786 129.7 119.783L90.1792 136.929Z" fill="#1D1D1D"/>
</g>
<g style="mix-blend-mode:multiply" opacity="0.3">
<path fill-rule="evenodd" clip-rule="evenodd" d="M106.281 118.514L14.7225 108.137L9.51172 104.693L84.3628 81.9978C85.1174 81.769 85.9267 81.7982 86.6629 82.0809L140.933 102.92L106.281 118.514Z" fill="#8AD2BC"/>
</g>
<path d="M12.3471 60.6796L33.9732 6.86552C37.2509 3.75399 39.2858 2.29244 44.1447 2.67834C44.4112 2.6995 44.6716 2.77457 44.9114 2.8927L111.324 35.604L135.878 65.4585C136.037 65.6515 136.004 65.9375 135.807 66.0905L134.755 66.905C134.566 67.0514 134.294 67.0213 134.142 66.837L111.256 39.1631C110.92 38.757 110.375 38.5842 109.873 38.744C107.632 39.4573 106.217 40.2817 103.992 41.8483C103.923 41.8973 103.868 41.9659 103.836 42.0448L82.6395 94.5084C82.5728 94.6736 82.4135 94.7828 82.2353 94.7855L79.8702 94.8217L12.5605 61.2415C12.3538 61.1384 12.2609 60.8939 12.3471 60.6796Z" fill="#F0C38B"/>
<path d="M33.9732 6.86552L12.3471 60.6796C12.2609 60.8939 12.3538 61.1384 12.5605 61.2415L79.8702 94.8217M33.9732 6.86552C37.2509 3.75399 39.2858 2.29244 44.1447 2.67834C44.4112 2.6995 44.6716 2.77457 44.9114 2.8927L111.324 35.604M33.9732 6.86552L101.652 40.8499M79.8702 94.8217L82.2353 94.7855C82.4135 94.7828 82.5728 94.6736 82.6395 94.5084L103.836 42.0448C103.868 41.9659 103.923 41.8973 103.992 41.8483C106.217 40.2817 107.632 39.4573 109.873 38.744C110.375 38.5842 110.92 38.757 111.256 39.1631L134.142 66.837C134.294 67.0213 134.566 67.0514 134.755 66.905L135.807 66.0905C136.004 65.9375 136.037 65.6515 135.878 65.4585L111.324 35.604M79.8702 94.8217L101.652 40.8499M111.324 35.604C106.332 36.9369 104.191 38.1235 101.652 40.8499" stroke="#1D1D1D" stroke-width="0.295"/>
<g style="mix-blend-mode:multiply" opacity="0.5">
<path fill-rule="evenodd" clip-rule="evenodd" d="M33.9432 6.92695L47.6608 13.8151L64.1029 87.0318L12.4732 61.2741C12.2666 61.171 12.1737 60.9265 12.2598 60.7122L33.862 6.95767C33.8749 6.92564 33.9124 6.91146 33.9432 6.92695Z" fill="#F0C38B"/>
</g>
<path d="M83.8337 91.554L103.837 42.0447C103.869 41.9658 103.923 41.8978 103.992 41.8488C104.556 41.4517 105.068 41.1022 105.555 40.7901C107.141 39.7728 108.457 39.1531 110.426 38.575C110.595 38.5256 110.776 38.5822 110.888 38.7176L133.393 65.9312C133.555 66.1273 133.52 66.4192 133.315 66.5703L131.545 67.8765L107.482 55.8326C106.261 66.1392 102.717 74.5826 95.5434 86.2762C95.5014 86.3447 95.4408 86.4015 95.3695 86.4385L88.002 90.267L83.7469 92.4015C83.3816 92.5914 83.6795 91.9357 83.8337 91.554Z" fill="white"/>
<path d="M131.545 67.8765C119.121 59.0082 114.235 52.9036 107.857 40.7549C108.106 46.4277 108.017 51.3096 107.482 55.8326M131.545 67.8765L133.315 66.5703C133.52 66.4192 133.555 66.1273 133.393 65.9312L110.888 38.7176C110.776 38.5822 110.595 38.5256 110.426 38.575C108.457 39.1531 107.141 39.7728 105.555 40.7901M131.545 67.8765L107.482 55.8326M105.555 40.7901C105.068 41.1022 104.556 41.4517 103.992 41.8488C103.923 41.8978 103.869 41.9658 103.837 42.0447L83.8337 91.554C83.6795 91.9357 83.3816 92.5914 83.7469 92.4015L88.002 90.267M105.555 40.7901C103.051 61.1185 99.1821 72.1966 88.002 90.267M88.002 90.267L95.3695 86.4385C95.4408 86.4015 95.5014 86.3447 95.5434 86.2762C102.717 74.5826 106.261 66.1392 107.482 55.8326" stroke="#1D1D1D" stroke-width="0.295"/>
<g style="mix-blend-mode:multiply" opacity="0.4">
<path d="M82.2365 94.7865L79.9602 94.8213C79.918 94.822 79.8888 94.7794 79.9046 94.7403L101.612 40.9522C101.639 40.8852 101.679 40.8231 101.728 40.7704C104.203 38.1345 106.328 36.9545 111.14 35.6547C111.252 35.6245 111.373 35.6623 111.446 35.7516L135.879 65.4594C136.038 65.6524 136.006 65.9385 135.808 66.0915L134.756 66.9059C134.567 67.0524 134.295 67.0223 134.143 66.8379L111.257 39.164C110.921 38.7579 110.376 38.5851 109.874 38.745C107.633 39.4582 106.218 40.2826 103.994 41.8492C103.924 41.8982 103.869 41.9669 103.837 42.0457L82.6406 94.5094C82.5739 94.6746 82.4147 94.7838 82.2365 94.7865Z" fill="#F0C38B"/>
<path d="M82.2365 94.7865L79.9602 94.8213C79.918 94.822 79.8888 94.7794 79.9046 94.7403L101.612 40.9522C101.639 40.8852 101.679 40.8231 101.728 40.7704C104.203 38.1345 106.328 36.9545 111.14 35.6547C111.252 35.6245 111.373 35.6623 111.446 35.7516L135.879 65.4594C136.038 65.6524 136.006 65.9385 135.808 66.0915L134.756 66.9059C134.567 67.0524 134.295 67.0223 134.143 66.8379L111.257 39.164C110.921 38.7579 110.376 38.5851 109.874 38.745C107.633 39.4582 106.218 40.2826 103.994 41.8492C103.924 41.8982 103.869 41.9669 103.837 42.0457L82.6406 94.5094C82.5739 94.6746 82.4147 94.7838 82.2365 94.7865Z" stroke="#1D1D1D" stroke-width="0.295"/>
</g>
<g style="mix-blend-mode:multiply" opacity="0.7">
<path d="M44.9104 2.88784L111.182 35.5298C111.231 35.5538 111.222 35.6261 111.17 35.6403C106.485 36.9032 104.341 38.0498 101.956 40.5234C101.774 40.7121 101.49 40.7642 101.256 40.6466L34.7227 7.23757C34.3575 7.05414 34.2847 6.5634 34.5848 6.28585C37.5207 3.57032 39.5945 2.31218 44.1437 2.67348C44.4102 2.69465 44.6705 2.76971 44.9104 2.88784Z" fill="#F0C38B"/>
<path d="M103.835 42.0399C103.867 41.9611 103.922 41.8924 103.991 41.8434C106.216 40.2768 107.631 39.4524 109.872 38.7392C110.374 38.5793 110.919 38.7521 111.255 39.1582M44.9104 2.88784L111.182 35.5298C111.231 35.5538 111.222 35.6261 111.17 35.6403C106.485 36.9032 104.341 38.0498 101.956 40.5234C101.774 40.7121 101.49 40.7642 101.256 40.6466L34.7227 7.23757C34.3575 7.05414 34.2847 6.5634 34.5848 6.28585C37.5207 3.57032 39.5945 2.31218 44.1437 2.67348C44.4102 2.69465 44.6705 2.76971 44.9104 2.88784Z" stroke="#1D1D1D" stroke-width="0.295"/>
</g>
<path d="M111.38 53.0456C111.636 53.1583 111.907 53.2778 112.2 53.4044L111.476 57.2207C111.103 57.05 110.764 56.8884 110.447 56.7375C109.741 56.4011 109.147 56.118 108.544 55.9067C107.658 55.5961 106.746 55.4362 105.406 55.4637L106.13 51.6525C108.494 51.7756 109.522 52.228 111.38 53.0456Z" fill="#F0C38B" stroke="#1D1D1D" stroke-width="0.295"/>
<path d="M99.3174 75.7788C99.5488 75.9358 99.7944 76.1023 100.06 76.2797L98.6584 79.9026C98.3227 79.6675 98.0183 79.4474 97.734 79.2418C97.1002 78.7836 96.5669 78.3979 96.0121 78.0813C95.1969 77.616 94.3289 77.2942 93.0059 77.0794L94.4055 73.4614C96.708 74.009 97.6374 74.6394 99.3174 75.7788Z" fill="#F0C38B" stroke="#1D1D1D" stroke-width="0.295"/>
<path d="M96.9356 78.5964C97.1669 78.7534 97.4126 78.92 97.678 79.0973L96.2765 82.7202C95.9409 82.4851 95.6364 82.265 95.3522 82.0595C94.7184 81.6012 94.185 81.2155 93.6303 80.8989C92.8151 80.4336 91.947 80.1118 90.6241 79.8971L92.0236 76.279C94.3262 76.8266 95.2556 77.457 96.9356 78.5964Z" fill="#F0C38B" stroke="#1D1D1D" stroke-width="0.295"/>
<path d="M58.9061 72.2463L72.7948 38.5744C72.9058 38.3054 73.2199 38.185 73.4822 38.3108L88.8084 45.6625C89.0509 45.7789 89.1602 46.0645 89.0573 46.313L75.266 79.6293C75.1553 79.8966 74.8435 80.0171 74.5818 79.8936L59.0168 72.5488C58.9063 72.4921 58.8582 72.3604 58.9061 72.2463Z" fill="white"/>
<path d="M21.443 55.7289L27.7742 40.7625C27.8301 40.6303 27.9844 40.571 28.1145 40.6316L30.4749 41.7321C30.5985 41.7897 30.6543 41.9349 30.6011 42.0604L24.3502 56.818C24.2945 56.9495 24.1412 57.009 24.0114 56.9495L21.4627 55.7809C21.4435 55.7713 21.4349 55.7487 21.443 55.7289Z" fill="white"/>
<path d="M71.1206 74.0434L81.9543 47.8826C81.9999 47.7725 82.1628 47.741 82.3113 47.8137C82.4497 47.8813 82.5249 48.0149 82.4822 48.1174L71.6322 74.1951C71.5921 74.2915 71.4751 74.3421 71.3373 74.3226C71.2796 74.3144 71.2178 74.2963 71.178 74.2549C71.1173 74.1916 71.0926 74.1095 71.1206 74.0434Z" fill="#936D0D"/>
<path d="M68.1193 72.6894L78.953 46.5286C78.9986 46.4185 79.1614 46.387 79.31 46.4597C79.4483 46.5273 79.5235 46.6609 79.4809 46.7634L68.6308 72.8411C68.5907 72.9375 68.4738 72.988 68.336 72.9686C68.2782 72.9604 68.2165 72.9423 68.1767 72.9009C68.1159 72.8376 68.0912 72.7555 68.1193 72.6894Z" fill="#936D0D"/>
<path d="M65.1179 71.3354L75.9516 45.1746C75.9972 45.0644 76.16 45.033 76.3086 45.1057C76.447 45.1733 76.5222 45.3069 76.4795 45.4094L65.6294 71.4871C65.5893 71.5835 65.4724 71.634 65.3346 71.6145C65.2769 71.6064 65.2151 71.5883 65.1753 71.5468C65.1146 71.4835 65.0899 71.4015 65.1179 71.3354Z" fill="#936D0D"/>
<defs>
<filter id="filter0_f_858_12719" x="13.7943" y="90.0662" width="134.956" height="60.5801" filterUnits="userSpaceOnUse" color-interpolation-filters="sRGB">
<feFlood flood-opacity="0" result="BackgroundImageFix"/>
<feBlend mode="normal" in="SourceGraphic" in2="BackgroundImageFix" result="shape"/>
<feGaussianBlur stdDeviation="0.295" result="effect1_foregroundBlur_858_12719"/>
</filter>
<filter id="filter1_f_858_12719" x="13.7918" y="90.0653" width="134.956" height="60.5801" filterUnits="userSpaceOnUse" color-interpolation-filters="sRGB">
<feFlood flood-opacity="0" result="BackgroundImageFix"/>
<feBlend mode="normal" in="SourceGraphic" in2="BackgroundImageFix" result="shape"/>
<feGaussianBlur stdDeviation="0.295" result="effect1_foregroundBlur_858_12719"/>
</filter>
<filter id="filter2_f_858_12719" x="34.2489" y="84.8385" width="95.369" height="41.9581" filterUnits="userSpaceOnUse" color-interpolation-filters="sRGB">
<feFlood flood-opacity="0" result="BackgroundImageFix"/>
<feBlend mode="normal" in="SourceGraphic" in2="BackgroundImageFix" result="shape"/>
<feGaussianBlur stdDeviation="0.295" result="effect1_foregroundBlur_858_12719"/>
</filter>
<filter id="filter3_f_858_12719" x="88.9886" y="107.882" width="41.3914" height="20.6827" filterUnits="userSpaceOnUse" color-interpolation-filters="sRGB">
<feFlood flood-opacity="0" result="BackgroundImageFix"/>
<feBlend mode="normal" in="SourceGraphic" in2="BackgroundImageFix" result="shape"/>
<feGaussianBlur stdDeviation="0.295" result="effect1_foregroundBlur_858_12719"/>
</filter>
<filter id="filter4_f_858_12719" x="89.5892" y="109.217" width="41.6273" height="31.159" filterUnits="userSpaceOnUse" color-interpolation-filters="sRGB">
<feFlood flood-opacity="0" result="BackgroundImageFix"/>
<feBlend mode="normal" in="SourceGraphic" in2="BackgroundImageFix" result="shape"/>
<feGaussianBlur stdDeviation="0.295" result="effect1_foregroundBlur_858_12719"/>
</filter>
</defs>
</svg>
