<svg width="92" height="64" viewBox="0 0 92 64" fill="none" xmlns="http://www.w3.org/2000/svg">
<path d="M51.731 22.7324L5.67252 37.6357C5.45863 37.7041 5.41579 37.9845 5.59969 38.1125L38.2166 60.8043C38.2942 60.8582 38.3946 60.8685 38.4816 60.8314L91.1018 38.3962C91.3088 38.308 91.324 38.0236 91.1275 37.914L51.949 22.7541C51.8826 22.7171 51.8035 22.7092 51.731 22.7324Z" fill="#90B3A8"/>
<path d="M2.96777 39.6947V33.6876C2.96777 33.4609 3.21975 33.3259 3.4087 33.451L35.085 54.4093L35.2609 54.5257C35.5052 54.6873 35.8153 54.7121 36.0822 54.5914L85.9609 32.021V38.5658L35.085 60.9033L3.09629 39.9305C3.01609 39.8779 2.96777 39.7907 2.96777 39.6947Z" fill="white"/>
<path d="M35.085 60.9033L3.09629 39.9305C3.01609 39.8779 2.96777 39.7907 2.96777 39.6947V33.6876C2.96777 33.4609 3.21975 33.3259 3.4087 33.451L35.085 54.4093M35.085 60.9033L85.9609 38.5658V32.021L36.0822 54.5914C35.8153 54.7121 35.5052 54.6873 35.2609 54.5257L35.085 54.4093M35.085 60.9033V54.4093" stroke="#1D1D1D" stroke-width="0.3"/>
<path d="M34.8126 62.9531L2.54103 41.697C1.97221 40.9856 1.26172 38.7092 1.26172 36.7173C1.26172 34.2986 2.11439 32.1644 2.54103 31.7376L50.5384 17.1674C51.0223 17.0205 51.5412 17.0393 52.0132 17.2208L86.8132 30.5994V31.5536C86.8132 31.6656 86.7476 31.7672 86.6456 31.8131L36.0812 54.5936C35.8146 54.7137 35.5051 54.6887 35.2612 54.5273L3.40829 33.4521C3.21934 33.3271 2.96736 33.4627 2.96736 33.6894V39.7051L34.9424 60.7622L85.9602 38.5669H87.2395V39.5204C87.2395 39.6328 87.1735 39.7346 87.071 39.7803L35.0845 62.9753C34.996 63.0148 34.8935 63.0064 34.8126 62.9531Z" fill="#F19D6E"/>
<path d="M87.2395 38.5669V39.5204C87.2395 39.6328 87.1735 39.7346 87.071 39.7803L35.0845 62.9753C34.996 63.0148 34.8935 63.0064 34.8126 62.9531L2.54103 41.697C1.97221 40.9856 1.26172 38.7092 1.26172 36.7173C1.26172 34.2986 2.11439 32.1644 2.54103 31.7376M87.2395 38.5669L35.0819 61.5544C34.9948 61.5928 34.8976 61.5871 34.8174 61.5358C24.1184 54.6797 2.96736 41.0412 2.96736 40.7011V39.7051M87.2395 38.5669H85.9602L34.9424 60.7622L2.96736 39.7051M86.8132 30.5994V31.5536C86.8132 31.6656 86.7476 31.7672 86.6456 31.8131L36.0812 54.5936C35.8146 54.7137 35.5051 54.6887 35.2612 54.5273L3.40829 33.4521C3.21934 33.3271 2.96736 33.4627 2.96736 33.6894V39.7051M86.8132 30.5994L36.0813 53.4554C35.8146 53.5755 35.5051 53.5505 35.2612 53.3891L2.54103 31.7376M86.8132 30.5994L52.0132 17.2208C51.5412 17.0393 51.0223 17.0205 50.5384 17.1674L2.54103 31.7376" stroke="#1D1D1D" stroke-width="0.3"/>
<path opacity="0.5" d="M34.8126 62.8261L2.54103 41.57C1.97221 40.8587 1.26172 38.5822 1.26172 36.5903C1.26172 34.6047 1.8364 32.8108 2.27825 31.9959C2.40819 31.7562 2.70439 31.7187 2.93174 31.8692L35.2612 53.2621C35.5051 53.4235 35.8146 53.4485 36.0813 53.3284L86.0043 30.8368C86.3837 30.6659 86.8132 30.9434 86.8132 31.3596V31.4266C86.8132 31.5386 86.7476 31.6402 86.6456 31.6861L36.0812 54.4666C35.8146 54.5867 35.5051 54.5617 35.2612 54.4003L3.40829 33.3251C3.21934 33.2001 2.96736 33.3357 2.96736 33.5625V39.5782L34.9424 60.6352L85.9602 38.4399H87.2395V39.3934C87.2395 39.5058 87.1735 39.6076 87.071 39.6534L35.0845 62.8483C34.996 62.8878 34.8935 62.8794 34.8126 62.8261Z" fill="#FCEDB6"/>
<g style="mix-blend-mode:multiply" opacity="0.7">
<path d="M35.0823 61.554L87.2399 38.5665H85.9605L34.9428 60.7618L2.96777 39.7047V40.7007C2.96777 41.0408 24.1188 54.6793 34.8178 61.5354C34.898 61.5867 34.9952 61.5924 35.0823 61.554Z" fill="#F19D6E"/>
</g>
<path d="M87.2395 38.5669V39.5204C87.2395 39.6328 87.1735 39.7346 87.071 39.7803L35.0845 62.9753C34.996 63.0148 34.8935 63.0064 34.8126 62.9531L2.54103 41.697C1.97221 40.9856 1.26172 38.7092 1.26172 36.7173C1.26172 34.2986 2.11439 32.1644 2.54103 31.7376M87.2395 38.5669L35.0819 61.5544C34.9948 61.5928 34.8976 61.5871 34.8174 61.5358C24.1184 54.6797 2.96736 41.0412 2.96736 40.7011V39.7051M87.2395 38.5669H85.9602L34.9424 60.7622L2.96736 39.7051M86.8132 30.5994V31.5536C86.8132 31.6656 86.7476 31.7672 86.6456 31.8131L36.0812 54.5936C35.8146 54.7137 35.5051 54.6887 35.2612 54.5273L3.40829 33.4521C3.21934 33.3271 2.96736 33.4627 2.96736 33.6894V39.7051M86.8132 30.5994L36.0813 53.4554C35.8146 53.5755 35.5051 53.5505 35.2612 53.3891L2.54103 31.7376M86.8132 30.5994L52.0132 17.2208C51.5412 17.0393 51.0223 17.0205 50.5384 17.1674L2.54103 31.7376" stroke="#1D1D1D" stroke-width="0.3"/>
<path d="M10.2882 39.4455L12.6395 40.8372C11.1161 41.667 10.6209 42.5488 8.21324 42.3494L5.86186 40.9576C8.23368 40.8217 8.98466 40.3361 10.2882 39.4455Z" fill="#F2D891" stroke="#1D1D1D" stroke-width="0.3"/>
<path d="M28.321 54.9766L30.7676 56.4248C29.1825 57.2882 28.6673 58.2057 26.162 57.9982L23.7154 56.5501C26.1833 56.4087 26.9647 55.9033 28.321 54.9766Z" fill="#F2D891" stroke="#1D1D1D" stroke-width="0.3"/>
<path d="M25.4802 51.8469L27.9268 53.295C26.3417 54.1584 25.8264 55.0759 23.3212 54.8684L20.8745 53.4203C23.3425 53.2789 24.1239 52.7736 25.4802 51.8469Z" fill="#F2D891" stroke="#1D1D1D" stroke-width="0.3"/>
<path d="M57.8474 26.7008L60.4833 25.655C60.751 25.5488 60.7585 25.1722 60.4952 25.0554L50.4827 20.6113C50.3753 20.5679 50.2565 20.5617 50.1451 20.5935L47.7305 21.5301C47.5983 21.5814 47.5906 21.7656 47.718 21.8279L57.5955 26.6511C57.6383 26.672 57.6786 26.7004 57.725 26.7114C57.7653 26.721 57.8082 26.7177 57.8474 26.7008Z" fill="white"/>
<g style="mix-blend-mode:multiply" opacity="0.5">
<path fill-rule="evenodd" clip-rule="evenodd" d="M64.4132 40.6035L5.70169 33.9424L2.36035 31.7314L50.3577 17.1612C50.8416 17.0143 51.3605 17.0331 51.8326 17.2145L86.6325 30.5932L64.4132 40.6035Z" fill="#F19D6E"/>
</g>
<g style="mix-blend-mode:multiply">
<path d="M48.4912 39.5758C48.4912 40.2916 40.7695 40.8701 31.2445 40.8701C21.7195 40.8701 13.1133 40.2916 13.1133 39.5758C13.1133 38.8601 21.7195 38.2815 31.2445 38.2815C40.7695 38.2815 48.4912 38.8614 48.4912 39.5758Z" fill="#90B3A8"/>
</g>
<path d="M55.0114 3.67164C58.759 3.46796 62.0621 6.11078 62.6856 9.81181L66.2126 30.7482C66.9439 35.0892 63.7347 39.1003 59.339 39.3392L33.6351 40.7361C29.8874 40.9398 26.5844 38.297 25.9609 34.596L22.4338 13.6596C21.7025 9.31854 24.9118 5.30747 29.3074 5.06858L55.0114 3.67164Z" fill="#F2D891" stroke="#1D1D1D" stroke-width="0.3"/>
<path d="M56.3811 3.5913C59.3529 3.43282 61.9732 5.52298 62.4793 8.45569L66.3347 30.7965C66.9326 34.2609 64.3724 37.4705 60.8618 37.6577L33.7247 39.1049C30.7529 39.2634 28.1326 37.1733 27.6265 34.2405L23.7711 11.8998C23.1732 8.43536 25.7334 5.22571 29.244 5.03849L56.3811 3.5913Z" fill="white" stroke="#1D1D1D" stroke-width="0.3"/>
<path opacity="0.5" d="M28.2197 15.4178L60.1462 13.692L60.707 16.4964L28.7239 18.2222L28.2197 15.4178Z" fill="#C1E5CB"/>
<path opacity="0.5" d="M27.3564 10.2394L59.2829 8.51367L59.8438 11.318L27.8606 13.0438L27.3564 10.2394Z" fill="#C1E5CB"/>
<path opacity="0.5" d="M29.083 20.5923L61.0094 18.8666L61.5703 21.6709L29.5872 23.3967L29.083 20.5923Z" fill="#C1E5CB"/>
<path opacity="0.5" d="M29.9434 25.7708L61.8698 24.045L62.4307 26.8494L30.4475 28.5752L29.9434 25.7708Z" fill="#C1E5CB"/>
<path opacity="0.5" d="M30.8076 30.9492L62.7341 29.2234L63.2949 32.0278L31.3118 33.7535L30.8076 30.9492Z" fill="#C1E5CB"/>
<path d="M27.7881 15.4368L32.899 19.2317L37.7803 11.5334L46.1131 19.2317L50.3612 14.6128L55.0461 19.2317L58.4534 22.7509L61.0088 16.4721" stroke="#41826E" stroke-width="0.3" stroke-linecap="round"/>
<ellipse cx="28.2193" cy="15.846" rx="0.862877" ry="0.862883" fill="#41826E"/>
<ellipse cx="37.7115" cy="11.5318" rx="0.862877" ry="0.862883" fill="#41826E"/>
<ellipse cx="50.2213" cy="14.5532" rx="0.862877" ry="0.862883" fill="#41826E"/>
<ellipse cx="58.4195" cy="22.7491" rx="0.862877" ry="0.862883" fill="#41826E"/>
<ellipse cx="45.9088" cy="19.2997" rx="0.862877" ry="0.862883" fill="#41826E"/>
<ellipse cx="61.0094" cy="16.2782" rx="0.862877" ry="0.862883" fill="#41826E"/>
<path d="M29.9434 26.6064L34.9215 29.2188L39.676 25.522L47.7924 29.2188L51.9301 26.3774L56.4934 27.6606L59.8122 28.6383L62.3012 25.3358" stroke="#936D0D" stroke-width="0.3" stroke-linecap="round"/>
<path d="M30.6558 26.6272C30.6558 27.0209 30.3367 27.34 29.943 27.34C29.5492 27.34 29.2301 27.0209 29.2301 26.6272C29.2301 26.2334 29.5492 25.9143 29.943 25.9143C30.3367 25.9143 30.6558 26.2334 30.6558 26.6272Z" fill="#936D0D" stroke="#936D0D" stroke-width="0.3"/>
<path d="M40.5787 25.3343C40.5787 25.728 40.2595 26.0472 39.8658 26.0472C39.4721 26.0472 39.1529 25.728 39.1529 25.3343C39.1529 24.9406 39.4721 24.6214 39.8658 24.6214C40.2595 24.6214 40.5787 24.9406 40.5787 25.3343Z" fill="#936D0D" stroke="#936D0D" stroke-width="0.3"/>
<path d="M52.6597 26.1987C52.6597 26.5924 52.3406 26.9116 51.9469 26.9116C51.5532 26.9116 51.234 26.5924 51.234 26.1987C51.234 25.805 51.5532 25.4858 51.9469 25.4858C52.3406 25.4858 52.6597 25.805 52.6597 26.1987Z" fill="#936D0D" stroke="#936D0D" stroke-width="0.3"/>
<path d="M60.4254 28.7841C60.4254 29.1779 60.1062 29.497 59.7125 29.497C59.3188 29.497 58.9996 29.1779 58.9996 28.7841C58.9996 28.3904 59.3188 28.0713 59.7125 28.0713C60.1062 28.0713 60.4254 28.3904 60.4254 28.7841Z" fill="#936D0D" stroke="#936D0D" stroke-width="0.3"/>
<path d="M48.3453 29.2162C48.3453 29.6099 48.0261 29.929 47.6324 29.929C47.2387 29.929 46.9195 29.6099 46.9195 29.2162C46.9195 28.8224 47.2387 28.5033 47.6324 28.5033C48.0261 28.5033 48.3453 28.8224 48.3453 29.2162Z" fill="#936D0D" stroke="#936D0D" stroke-width="0.3"/>
<path d="M63.0152 25.3343C63.0152 25.728 62.696 26.0472 62.3023 26.0472C61.9086 26.0472 61.5895 25.728 61.5895 25.3343C61.5895 24.9406 61.9086 24.6214 62.3023 24.6214C62.696 24.6214 63.0152 24.9406 63.0152 25.3343Z" fill="#936D0D" stroke="#936D0D" stroke-width="0.3"/>
</svg>
