<svg width="177" height="177" viewBox="0 0 177 177" fill="none" xmlns="http://www.w3.org/2000/svg">
<g style="mix-blend-mode:multiply" opacity="0.9" filter="url(#filter0_f_858_12719)">
<path d="M98.1512 102.883L16.6545 129.222C16.2761 129.343 16.2003 129.839 16.5257 130.065L74.2386 170.169C74.3758 170.265 74.5534 170.283 74.7075 170.217L167.814 130.566C168.181 130.41 168.208 129.908 167.86 129.714L98.5368 102.921C98.4193 102.856 98.2795 102.842 98.1512 102.883Z" fill="#1D1D1D"/>
</g>
<g style="mix-blend-mode:multiply" opacity="0.9" filter="url(#filter1_f_858_12719)">
<path d="M98.1487 102.882L16.6521 129.221C16.2736 129.342 16.1978 129.838 16.5232 130.064L74.2361 170.168C74.3734 170.263 74.551 170.282 74.705 170.216L167.812 130.565C168.178 130.409 168.205 129.907 167.857 129.713L98.5343 102.92C98.4168 102.855 98.277 102.841 98.1487 102.882Z" fill="#1D1D1D"/>
</g>
<path d="M11.8677 132.861V122.244C11.8677 121.843 12.3135 121.605 12.6479 121.826L68.6963 158.866L69.0076 159.072C69.4399 159.358 69.9886 159.402 70.4608 159.188L158.717 119.298V130.865L68.6963 170.344L12.0951 133.277C11.9532 133.184 11.8677 133.03 11.8677 132.861Z" fill="white"/>
<path d="M68.6963 170.344L12.0951 133.277C11.9532 133.184 11.8677 133.03 11.8677 132.861V122.244C11.8677 121.843 12.3135 121.605 12.6479 121.826L68.6963 158.866M68.6963 170.344L158.717 130.865V119.298L70.4608 159.188C69.9886 159.402 69.4399 159.358 69.0076 159.072L68.6963 158.866M68.6963 170.344V158.866" stroke="#1D1D1D" stroke-width="0.295"/>
<path d="M68.2149 173.967L11.1132 136.4C10.1068 135.142 8.84961 131.119 8.84961 127.599C8.84961 123.324 10.3583 119.552 11.1132 118.798L96.0405 93.0471C96.8966 92.7875 97.8149 92.8207 98.6501 93.1414L160.226 116.786V118.473C160.226 118.671 160.11 118.85 159.929 118.931L70.4598 159.192C69.988 159.405 69.4404 159.36 69.0088 159.075L12.6478 121.828C12.3134 121.607 11.8676 121.847 11.8676 122.247V132.879L68.4448 170.094L158.716 130.868H160.98V132.553C160.98 132.751 160.863 132.931 160.682 133.012L68.6961 174.006C68.5395 174.076 68.3582 174.061 68.2149 173.967Z" fill="#8AD2BC"/>
<path d="M160.98 130.868V132.553C160.98 132.751 160.863 132.931 160.682 133.012L68.6961 174.006C68.5395 174.076 68.3582 174.061 68.2149 173.967L11.1132 136.4C10.1068 135.142 8.84961 131.119 8.84961 127.599C8.84961 123.324 10.3583 119.552 11.1132 118.798M160.98 130.868L68.6915 171.495C68.5374 171.562 68.3654 171.552 68.2236 171.462C49.2925 159.345 11.8676 135.241 11.8676 134.639V132.879M160.98 130.868H158.716L68.4448 170.094L11.8676 132.879M160.226 116.786V118.473C160.226 118.671 160.11 118.85 159.929 118.931L70.4598 159.192C69.988 159.405 69.4404 159.36 69.0088 159.075L12.6478 121.828C12.3134 121.607 11.8676 121.847 11.8676 122.247V132.879M160.226 116.786L70.4598 157.181C69.9881 157.393 69.4404 157.349 69.0088 157.064L11.1132 118.798M160.226 116.786L98.6501 93.1414C97.8149 92.8207 96.8966 92.7875 96.0405 93.0471L11.1132 118.798" stroke="#1D1D1D" stroke-width="0.295"/>
<path opacity="0.5" d="M68.2149 173.742L11.1132 136.175C10.1068 134.917 8.84961 130.894 8.84961 127.374C8.84961 123.596 10.028 120.211 10.8231 118.954C10.9729 118.717 11.2812 118.684 11.515 118.838L69.0088 156.839C69.4404 157.124 69.9881 157.168 70.4598 156.956L159.393 116.936C159.784 116.76 160.226 117.046 160.226 117.474V118.248C160.226 118.446 160.11 118.625 159.929 118.706L70.4598 158.967C69.988 159.18 69.4404 159.136 69.0088 158.85L12.6478 121.603C12.3134 121.382 11.8676 121.622 11.8676 122.022V132.654L68.4448 169.87L158.716 130.643H160.98V132.328C160.98 132.526 160.863 132.706 160.682 132.787L68.6961 173.781C68.5395 173.851 68.3582 173.836 68.2149 173.742Z" fill="#C5ECE0"/>
<g style="mix-blend-mode:multiply" opacity="0.7">
<path d="M68.6915 171.493L160.98 130.866H158.716L68.4448 170.093L11.8677 132.878V134.638C11.8677 135.239 49.2926 159.343 68.2237 171.46C68.3655 171.551 68.5374 171.561 68.6915 171.493Z" fill="#8AD2BC"/>
</g>
<path d="M160.98 130.868V132.553C160.98 132.751 160.863 132.931 160.682 133.012L68.6961 174.006C68.5395 174.076 68.3582 174.061 68.2149 173.967L11.1132 136.4C10.1068 135.142 8.84961 131.119 8.84961 127.599C8.84961 123.324 10.3583 119.552 11.1132 118.798M160.98 130.868L68.6915 171.495C68.5374 171.562 68.3654 171.552 68.2236 171.462C49.2925 159.345 11.8676 135.241 11.8676 134.639V132.879M160.98 130.868H158.716L68.4448 170.094L11.8676 132.879M160.226 116.786V118.473C160.226 118.671 160.11 118.85 159.929 118.931L70.4598 159.192C69.988 159.405 69.4404 159.36 69.0088 159.075L12.6478 121.828C12.3134 121.607 11.8676 121.847 11.8676 122.247V132.879M160.226 116.786L70.4598 157.181C69.9881 157.393 69.4404 157.349 69.0088 157.064L11.1132 118.798M160.226 116.786L98.6501 93.1414C97.8149 92.8207 96.8966 92.7875 96.0405 93.0471L11.1132 118.798" stroke="#1D1D1D" stroke-width="0.295"/>
<path d="M24.8217 132.42L28.9823 134.879C26.2867 136.346 25.4106 137.905 21.1503 137.552L16.9898 135.092C21.1865 134.852 22.5153 133.994 24.8217 132.42Z" fill="#F2D891" stroke="#1D1D1D" stroke-width="0.295"/>
<path d="M56.7291 159.869L61.0583 162.428C58.2535 163.954 57.3418 165.576 52.909 165.209L48.5799 162.65C52.9466 162.4 54.3293 161.507 56.7291 159.869Z" fill="#F2D891" stroke="#1D1D1D" stroke-width="0.295"/>
<path d="M51.6989 154.338L56.028 156.897C53.2232 158.423 52.3116 160.045 47.8787 159.678L43.5496 157.119C47.9164 156.869 49.299 155.976 51.6989 154.338Z" fill="#F2D891" stroke="#1D1D1D" stroke-width="0.295"/>
<path d="M108.969 109.895L113.633 108.047C114.107 107.859 114.12 107.194 113.654 106.987L95.9379 99.1331C95.7478 99.0565 95.5376 99.0454 95.3406 99.1016L91.0681 100.757C90.8342 100.848 90.8205 101.173 91.0459 101.283L108.523 109.808C108.599 109.845 108.67 109.895 108.752 109.914C108.824 109.931 108.9 109.925 108.969 109.895Z" fill="white"/>
<g style="mix-blend-mode:multiply" opacity="0.5">
<path fill-rule="evenodd" clip-rule="evenodd" d="M120.587 134.467L16.703 122.694L10.791 118.786L95.7182 93.0356C96.5744 92.776 97.4927 92.8092 98.3279 93.1299L159.903 116.775L120.587 134.467Z" fill="#8AD2BC"/>
</g>
<g style="mix-blend-mode:multiply" opacity="0.9" filter="url(#filter2_f_858_12719)">
<path d="M83.7847 96.9285L39.5288 110.256L101.638 143.196L146.397 123.08L83.7847 96.9285Z" fill="#1D1D1D"/>
</g>
<g style="mix-blend-mode:multiply" opacity="0.9" filter="url(#filter3_f_858_12719)">
<path d="M102.14 143.693C101.939 143.29 101.721 143.19 101.637 143.19L145.893 123.073C146.228 123.073 146.949 123.174 147.15 123.576C147.352 123.979 147.234 124.582 147.15 124.834L102.392 145.201C102.392 144.866 102.341 144.095 102.14 143.693Z" fill="#1D1D1D"/>
</g>
<g style="mix-blend-mode:multiply" opacity="0.9" filter="url(#filter4_f_858_12719)">
<path fill-rule="evenodd" clip-rule="evenodd" d="M102.395 144.957V155.267L147.154 135.905V124.589L102.395 144.957ZM102.319 155.362C102.402 155.362 103.135 156.462 103.33 156.863C103.526 157.264 103.568 158.271 103.565 158.604L148.102 138.593C148.187 138.345 148.297 137.307 148.102 136.906C147.906 136.505 147.492 135.911 147.16 135.908L102.319 155.362Z" fill="#1D1D1D"/>
</g>
<g style="mix-blend-mode:multiply" opacity="0.3">
<path fill-rule="evenodd" clip-rule="evenodd" d="M120.588 134.467L16.7045 122.694L10.7925 118.786L95.7197 93.0356C96.5759 92.776 97.4941 92.8092 98.3294 93.1299L159.905 116.775L120.588 134.467Z" fill="#8AD2BC"/>
</g>
<path d="M14.0094 68.8479L38.5467 7.78967C42.2656 4.25927 44.5746 2.60098 50.0876 3.03882C50.3899 3.06284 50.6853 3.14801 50.9574 3.28204L126.311 40.3968L154.169 74.2701C154.349 74.4891 154.313 74.8136 154.089 74.9872L152.895 75.9114C152.68 76.0775 152.373 76.0434 152.2 75.8342L126.233 44.435C125.852 43.9742 125.233 43.7781 124.663 43.9595C122.121 44.7687 120.516 45.7041 117.992 47.4817C117.913 47.5372 117.851 47.6151 117.815 47.7046L93.7643 107.231C93.6886 107.418 93.5079 107.542 93.3057 107.545L90.6222 107.586L14.2516 69.4854C14.0171 69.3685 13.9117 69.0911 14.0094 68.8479Z" fill="#F0C38B"/>
<path d="M38.5467 7.78967L14.0094 68.8479C13.9117 69.0911 14.0171 69.3685 14.2516 69.4854L90.6222 107.586M38.5467 7.78967C42.2656 4.25927 44.5746 2.60098 50.0876 3.03882C50.3899 3.06284 50.6853 3.14801 50.9574 3.28204L126.311 40.3968M38.5467 7.78967L115.336 46.3489M90.6222 107.586L93.3057 107.545C93.5079 107.542 93.6886 107.418 93.7643 107.231L117.815 47.7046C117.851 47.6151 117.913 47.5372 117.992 47.4817C120.516 45.7041 122.121 44.7687 124.663 43.9595C125.233 43.7781 125.852 43.9742 126.233 44.435L152.2 75.8342C152.373 76.0434 152.68 76.0775 152.895 75.9114L154.089 74.9872C154.313 74.8136 154.349 74.4891 154.169 74.2701L126.311 40.3968M90.6222 107.586L115.336 46.3489M126.311 40.3968C120.646 41.9091 118.217 43.2555 115.336 46.3489" stroke="#1D1D1D" stroke-width="0.295"/>
<g style="mix-blend-mode:multiply" opacity="0.5">
<path fill-rule="evenodd" clip-rule="evenodd" d="M38.5049 7.85525L54.0766 15.6744L72.7321 98.7472L14.1524 69.5223C13.9179 69.4053 13.8126 69.1279 13.9103 68.8847L38.4237 7.88597C38.4366 7.85394 38.4741 7.83976 38.5049 7.85525Z" fill="#F0C38B"/>
</g>
<path d="M95.1189 103.878L117.815 47.7045C117.851 47.615 117.912 47.5378 117.991 47.4822C118.631 47.0316 119.212 46.6351 119.764 46.281C121.564 45.1267 123.057 44.4236 125.291 43.7677C125.482 43.7116 125.689 43.7759 125.816 43.9295L151.35 74.8065C151.534 75.0289 151.493 75.3602 151.261 75.5316L149.253 77.0137L121.95 63.3484C120.565 75.0424 116.544 84.6225 108.405 97.8902C108.357 97.9679 108.289 98.0323 108.208 98.0744L99.8483 102.418L95.0205 104.84C94.6059 105.055 94.9439 104.312 95.1189 103.878Z" fill="white"/>
<path d="M149.253 77.0137C135.156 66.9515 129.613 60.0252 122.377 46.241C122.658 52.6775 122.558 58.2165 121.95 63.3484M149.253 77.0137L151.261 75.5316C151.493 75.3602 151.534 75.0289 151.35 74.8065L125.816 43.9295C125.689 43.7759 125.482 43.7116 125.291 43.7677C123.057 44.4236 121.564 45.1267 119.764 46.281M149.253 77.0137L121.95 63.3484M119.764 46.281C119.212 46.6351 118.631 47.0316 117.991 47.4822C117.912 47.5378 117.851 47.615 117.815 47.7045L95.1189 103.878C94.9439 104.312 94.6059 105.055 95.0205 104.84L99.8483 102.418M119.764 46.281C116.923 69.3459 112.534 81.9152 99.8483 102.418M99.8483 102.418L108.208 98.0744C108.289 98.0323 108.357 97.9679 108.405 97.8902C116.544 84.6225 120.565 75.0424 121.95 63.3484" stroke="#1D1D1D" stroke-width="0.295"/>
<g style="mix-blend-mode:multiply" opacity="0.4">
<path d="M93.3067 107.546L90.7121 107.586C90.6699 107.587 90.6407 107.544 90.6565 107.505L115.296 46.4513C115.323 46.3843 115.363 46.3222 115.413 46.2695C118.229 43.2667 120.642 41.9268 126.126 40.4477C126.238 40.4176 126.359 40.4552 126.432 40.5445L154.17 74.2713C154.35 74.4903 154.314 74.8148 154.09 74.9884L152.896 75.9125C152.681 76.0787 152.374 76.0445 152.201 75.8353L126.234 44.4361C125.853 43.9754 125.234 43.7793 124.664 43.9606C122.122 44.7699 120.517 45.7053 117.993 47.4828C117.914 47.5383 117.852 47.6162 117.815 47.7057L93.7653 107.232C93.6895 107.419 93.5089 107.543 93.3067 107.546Z" fill="#F0C38B"/>
<path d="M93.3067 107.546L90.7121 107.586C90.6699 107.587 90.6407 107.544 90.6565 107.505L115.296 46.4513C115.323 46.3843 115.363 46.3222 115.413 46.2695C118.229 43.2667 120.642 41.9268 126.126 40.4477C126.238 40.4176 126.359 40.4552 126.432 40.5445L154.17 74.2713C154.35 74.4903 154.314 74.8148 154.09 74.9884L152.896 75.9125C152.681 76.0787 152.374 76.0445 152.201 75.8353L126.234 44.4361C125.853 43.9754 125.234 43.7793 124.664 43.9606C122.122 44.7699 120.517 45.7053 117.993 47.4828C117.914 47.5383 117.852 47.6162 117.815 47.7057L93.7653 107.232C93.6895 107.419 93.5089 107.543 93.3067 107.546Z" stroke="#1D1D1D" stroke-width="0.295"/>
</g>
<g style="mix-blend-mode:multiply" opacity="0.7">
<path d="M50.9562 3.27662L126.168 40.322C126.217 40.3461 126.208 40.4184 126.156 40.4326C120.799 41.8749 118.365 43.1816 115.639 46.0217C115.458 46.2108 115.174 46.2626 114.94 46.145L39.2962 8.16115C38.9309 7.97772 38.8588 7.4865 39.1584 7.20836C42.5333 4.07456 44.8824 2.6201 50.0864 3.0334C50.3888 3.05742 50.6841 3.14259 50.9562 3.27662Z" fill="#F0C38B"/>
<path d="M117.813 47.6992C117.849 47.6097 117.912 47.5318 117.99 47.4763C120.515 45.6987 122.12 44.7633 124.662 43.9541C125.232 43.7727 125.851 43.9688 126.232 44.4296M50.9562 3.27662L126.168 40.322C126.217 40.3461 126.208 40.4184 126.156 40.4326C120.799 41.8749 118.365 43.1816 115.639 46.0217C115.458 46.2108 115.174 46.2626 114.94 46.145L39.2962 8.16115C38.9309 7.97772 38.8588 7.4865 39.1584 7.20836C42.5333 4.07456 44.8824 2.6201 50.0864 3.0334C50.3888 3.05742 50.6841 3.14259 50.9562 3.27662Z" stroke="#1D1D1D" stroke-width="0.295"/>
</g>
<path d="M126.381 60.168C126.676 60.2977 126.989 60.4353 127.327 60.5812L126.497 64.9518C126.064 64.7538 125.671 64.5667 125.305 64.3923C124.505 64.0109 123.832 63.6905 123.149 63.4511C122.141 63.0977 121.103 62.9165 119.572 62.95L120.401 58.5847C123.099 58.7233 124.268 59.2381 126.381 60.168Z" fill="#F0C38B" stroke="#1D1D1D" stroke-width="0.295"/>
<path d="M112.698 85.9633C112.965 86.144 113.248 86.3359 113.554 86.5403L111.949 90.6894C111.559 90.4166 111.206 90.1617 110.878 89.9241C110.159 89.4046 109.555 88.9681 108.927 88.6094C107.999 88.0799 107.011 87.7144 105.499 87.4711L107.102 83.327C109.73 83.9501 110.788 84.6674 112.698 85.9633Z" fill="#F0C38B" stroke="#1D1D1D" stroke-width="0.295"/>
<path d="M109.996 89.1604C110.262 89.341 110.545 89.5329 110.851 89.7374L109.246 93.8864C108.857 93.6137 108.504 93.3587 108.175 93.1211C107.457 92.6017 106.853 92.1651 106.225 91.8064C105.297 91.277 104.309 90.9115 102.796 90.6681L104.399 86.524C107.028 87.1471 108.086 87.8644 109.996 89.1604Z" fill="#F0C38B" stroke="#1D1D1D" stroke-width="0.295"/>
<path d="M66.8357 81.9717L82.5941 43.767C82.72 43.4619 83.0764 43.3252 83.374 43.468L100.763 51.8094C101.038 51.9414 101.162 52.2654 101.046 52.5474L85.3979 90.3485C85.2723 90.6519 84.9185 90.7886 84.6216 90.6485L66.9613 82.3149C66.836 82.2506 66.7813 82.1012 66.8357 81.9717Z" fill="white"/>
<path d="M24.3298 63.2306L31.5133 46.2495C31.5767 46.0996 31.7519 46.0322 31.8994 46.101L34.5776 47.3496C34.7179 47.415 34.7812 47.5797 34.7208 47.7222L27.6284 64.4664C27.5652 64.6156 27.3912 64.6831 27.244 64.6156L24.3522 63.2897C24.3304 63.2788 24.3207 63.2531 24.3298 63.2306Z" fill="white"/>
<path d="M80.6947 84.0107L92.9868 54.3282C93.0385 54.2033 93.2233 54.1676 93.3919 54.2501C93.5489 54.3268 93.6342 54.4784 93.5858 54.5947L81.2751 84.1828C81.2296 84.2922 81.097 84.3496 80.9406 84.3275C80.8751 84.3182 80.805 84.2977 80.7599 84.2506C80.6909 84.1788 80.6629 84.0857 80.6947 84.0107Z" fill="#936D0D"/>
<path d="M77.2893 82.4744L89.5814 52.792C89.6331 52.667 89.8179 52.6314 89.9865 52.7138C90.1435 52.7905 90.2288 52.9421 90.1804 53.0584L77.8697 82.6466C77.8242 82.7559 77.6916 82.8133 77.5352 82.7912C77.4697 82.7819 77.3996 82.7614 77.3545 82.7144C77.2856 82.6425 77.2575 82.5495 77.2893 82.4744Z" fill="#936D0D"/>
<path d="M73.8839 80.9381L86.176 51.2557C86.2278 51.1307 86.4125 51.0951 86.5811 51.1775C86.7381 51.2543 86.8234 51.4058 86.775 51.5221L74.4644 81.1103C74.4188 81.2196 74.2862 81.277 74.1298 81.2549C74.0643 81.2456 73.9942 81.2251 73.9491 81.1781C73.8802 81.1063 73.8521 81.0132 73.8839 80.9381Z" fill="#936D0D"/>
<defs>
<filter id="filter0_f_858_12719" x="15.7308" y="102.27" width="152.965" height="68.5762" filterUnits="userSpaceOnUse" color-interpolation-filters="sRGB">
<feFlood flood-opacity="0" result="BackgroundImageFix"/>
<feBlend mode="normal" in="SourceGraphic" in2="BackgroundImageFix" result="shape"/>
<feGaussianBlur stdDeviation="0.295" result="effect1_foregroundBlur_858_12719"/>
</filter>
<filter id="filter1_f_858_12719" x="15.7284" y="102.269" width="152.965" height="68.5762" filterUnits="userSpaceOnUse" color-interpolation-filters="sRGB">
<feFlood flood-opacity="0" result="BackgroundImageFix"/>
<feBlend mode="normal" in="SourceGraphic" in2="BackgroundImageFix" result="shape"/>
<feGaussianBlur stdDeviation="0.295" result="effect1_foregroundBlur_858_12719"/>
</filter>
<filter id="filter2_f_858_12719" x="38.9388" y="96.3385" width="108.048" height="47.4476" filterUnits="userSpaceOnUse" color-interpolation-filters="sRGB">
<feFlood flood-opacity="0" result="BackgroundImageFix"/>
<feBlend mode="normal" in="SourceGraphic" in2="BackgroundImageFix" result="shape"/>
<feGaussianBlur stdDeviation="0.295" result="effect1_foregroundBlur_858_12719"/>
</filter>
<filter id="filter3_f_858_12719" x="101.047" y="122.483" width="46.8045" height="23.3079" filterUnits="userSpaceOnUse" color-interpolation-filters="sRGB">
<feFlood flood-opacity="0" result="BackgroundImageFix"/>
<feBlend mode="normal" in="SourceGraphic" in2="BackgroundImageFix" result="shape"/>
<feGaussianBlur stdDeviation="0.295" result="effect1_foregroundBlur_858_12719"/>
</filter>
<filter id="filter4_f_858_12719" x="101.729" y="123.999" width="47.0721" height="35.1946" filterUnits="userSpaceOnUse" color-interpolation-filters="sRGB">
<feFlood flood-opacity="0" result="BackgroundImageFix"/>
<feBlend mode="normal" in="SourceGraphic" in2="BackgroundImageFix" result="shape"/>
<feGaussianBlur stdDeviation="0.295" result="effect1_foregroundBlur_858_12719"/>
</filter>
</defs>
</svg>
