<svg width="590" height="337" viewBox="0 0 590 337" fill="none" xmlns="http://www.w3.org/2000/svg">
<rect x="96.1665" y="0.0834961" width="493.167" height="336.25" rx="8.96667" fill="#E4F2E6"/>
<path d="M285.888 243.977C287.076 243.652 288.307 243.516 289.536 243.574L496.796 249.594C497.646 249.634 497.583 258.049 496.796 258.376L399.607 295.57C394.816 297.403 389.657 298.065 384.559 297.499L190.694 277.997C186.24 277.503 185.81 271.194 190.156 270.1L285.888 243.977Z" fill="#EDA56D"/>
<path d="M328.666 224.07L225.824 242.911C223.695 243.301 222.148 245.156 222.148 247.321V263.497C222.148 265.784 223.869 267.704 226.141 267.954L408.416 288.028C409.104 288.104 409.801 288.019 410.451 287.781L493.384 257.372C495.04 256.765 496.186 255.242 496.312 253.483L497.432 237.808C497.61 235.312 495.711 233.154 493.213 233.012L331.85 223.871C330.784 223.811 329.715 223.877 328.666 224.07Z" fill="#FCF1D4" stroke="#1D1D1D" stroke-width="0.560417"/>
<mask id="mask0_867_11977" style="mask-type:alpha" maskUnits="userSpaceOnUse" x="221" y="232" width="278" height="59">
<path d="M409.278 258.3L225.249 243.892C223.353 243.744 221.733 245.247 221.733 247.156V268.074C221.733 269.754 223 271.161 224.665 271.331L409.127 290.186C409.622 290.236 410.121 290.172 410.588 290L496.035 258.319C497.316 257.844 498.166 256.619 498.166 255.248V236.541C498.166 234.354 496.07 232.782 493.98 233.402L410.456 258.176C410.075 258.289 409.675 258.331 409.278 258.3Z" fill="#FAE3C3" stroke="black" stroke-width="0.560417"/>
</mask>
<g mask="url(#mask0_867_11977)">
<path d="M409.278 258.3L225.249 243.892C223.353 243.744 221.733 245.247 221.733 247.156V268.074C221.733 269.754 223 271.161 224.665 271.331L409.127 290.186C409.622 290.236 410.121 290.172 410.588 290L496.035 258.319C497.316 257.844 498.166 256.619 498.166 255.248V236.541C498.166 234.354 496.07 232.782 493.98 233.402L410.456 258.176C410.075 258.289 409.675 258.331 409.278 258.3Z" fill="#FCF1D4"/>
<g style="mix-blend-mode:multiply" opacity="0.35">
<path d="M403.324 267.43L214.63 250.018C212.65 249.835 210.93 251.306 210.897 253.21L210.532 274.083C210.503 275.759 211.803 277.186 213.541 277.386L397.894 298.62C402.306 299.128 406.2 295.734 406.3 291.294L406.749 271.271C406.793 269.29 405.297 267.612 403.324 267.43Z" fill="#F2D891"/>
</g>
<g style="mix-blend-mode:multiply" opacity="0.35">
<path d="M594.748 206.992L416.839 266.067C414.443 266.863 412.863 269.15 412.969 271.673V288.433C413.071 290.885 416.152 292.588 418.506 291.893L602.227 237.653C606.527 236.384 608.777 231.666 607.058 227.525L599.42 209.126C598.662 207.3 596.624 206.369 594.748 206.992Z" fill="#F2D891"/>
</g>
</g>
<path d="M409.278 258.3L225.249 243.892C223.353 243.744 221.733 245.247 221.733 247.156V268.074C221.733 269.754 223 271.161 224.665 271.331L409.127 290.186C409.622 290.236 410.121 290.172 410.588 290L496.035 258.319C497.316 257.844 498.166 256.619 498.166 255.248V236.541C498.166 234.354 496.07 232.782 493.98 233.402L410.456 258.176C410.075 258.289 409.675 258.331 409.278 258.3Z" stroke="#1D1D1D" stroke-width="0.560417"/>
<path d="M227.097 96.789V113.983C227.097 115.35 228.205 116.456 229.573 116.456H401.621C402.988 116.456 404.097 115.348 404.097 113.98V95.297C404.097 93.0551 402.959 90.9664 401.075 89.7506L322.641 39.1251C321.021 38.079 319.264 37.345 317.454 36.9214C312.971 35.8728 308.155 36.7271 304.24 39.4617L229.918 91.3806C228.15 92.6155 227.097 94.6326 227.097 96.789Z" fill="#FCF1D4"/>
<path d="M401.621 116.456H229.573C228.205 116.456 227.097 115.35 227.097 113.983V96.789C227.097 94.6326 228.15 92.6155 229.918 91.3806L304.24 39.4617C308.155 36.7271 312.971 35.8728 317.454 36.9214M401.621 116.456C402.988 116.456 404.097 115.348 404.097 113.98V95.297C404.097 93.0551 402.959 90.9664 401.075 89.7506L322.641 39.1251C321.021 38.079 319.264 37.345 317.454 36.9214M401.621 116.456L492.39 118.521V102.118C492.39 97.003 489.489 92.3307 484.904 90.0626L413.999 54.983L317.454 36.9214" stroke="#1D1D1D" stroke-width="0.560417"/>
<mask id="mask1_867_11977" style="mask-type:alpha" maskUnits="userSpaceOnUse" x="227" y="36" width="178" height="81">
<path d="M227.097 96.7813V113.975C227.097 115.342 228.205 116.448 229.573 116.448H401.621C402.988 116.448 404.097 115.34 404.097 113.973V95.2893C404.097 93.0474 402.959 90.9587 401.075 89.7429L322.641 39.1174C321.021 38.0713 319.264 37.3373 317.454 36.9137C312.971 35.8651 308.155 36.7194 304.24 39.454L229.918 91.3729C228.15 92.6078 227.097 94.6249 227.097 96.7813Z" fill="#FAE3C3"/>
</mask>
<g mask="url(#mask1_867_11977)">
<path d="M227.097 96.7813V113.975C227.097 115.342 228.205 116.448 229.573 116.448H401.621C402.988 116.448 404.097 115.34 404.097 113.973V95.2893C404.097 93.0474 402.959 90.9587 401.075 89.7429L322.641 39.1174C321.021 38.0713 319.264 37.3373 317.454 36.9137C312.971 35.8651 308.155 36.7194 304.24 39.454L229.918 91.3729C228.15 92.6078 227.097 94.6249 227.097 96.7813Z" fill="#FCF1D4"/>
<g style="mix-blend-mode:multiply">
<path d="M236.941 97.5141V114.909C236.941 116.118 237.921 114.909 239.13 114.909H391.298C392.508 114.909 393.488 116.118 393.488 114.909V96.1945C393.488 94.2116 392.482 92.3643 390.816 91.289L321.445 46.5126C320.011 45.5874 318.458 44.9382 316.856 44.5635C312.892 43.6361 308.632 44.3917 305.17 46.8104L239.436 92.7306C237.872 93.8228 236.941 95.6069 236.941 97.5141Z" fill="#FCF1D4"/>
</g>
</g>
<path d="M227.097 96.7813V113.975C227.097 115.342 228.205 116.448 229.573 116.448H401.621C402.988 116.448 404.097 115.34 404.097 113.973V95.2893C404.097 93.0474 402.959 90.9587 401.075 89.7429L322.641 39.1174C321.021 38.0713 319.264 37.3373 317.454 36.9137C312.971 35.8651 308.155 36.7194 304.24 39.454L229.918 91.3729C228.15 92.6078 227.097 94.6249 227.097 96.7813Z" stroke="#1D1D1D" stroke-width="0.560417"/>
<mask id="mask2_867_11977" style="mask-type:alpha" maskUnits="userSpaceOnUse" x="317" y="36" width="176" height="83">
<path d="M401.072 89.7428L322.638 39.1173C321.017 38.0712 319.261 37.3372 317.45 36.9136L413.995 54.9752L486.875 91.0317C490.251 92.7016 492.387 96.1413 492.387 99.907V118.513L401.618 116.448C402.985 116.448 404.093 115.34 404.093 113.973V95.2892C404.093 93.0473 402.955 90.9586 401.072 89.7428Z" fill="#FAD8AC"/>
</mask>
<g mask="url(#mask2_867_11977)">
<path d="M401.072 89.7428L322.638 39.1173C321.017 38.0712 319.261 37.3372 317.45 36.9136L413.995 54.9752L486.875 91.0317C490.251 92.7016 492.387 96.1413 492.387 99.907V118.513L401.618 116.448C402.985 116.448 404.093 115.34 404.093 113.973V95.2892C404.093 93.0473 402.955 90.9586 401.072 89.7428Z" fill="#FCF1D4"/>
<path d="M304.237 39.4539C308.151 36.7193 312.967 35.865 317.45 36.9136M317.45 36.9136C319.261 37.3372 321.017 38.0712 322.638 39.1173L401.072 89.7428C402.955 90.9586 404.093 93.0473 404.093 95.2892V113.973C404.093 115.34 402.985 116.448 401.618 116.448L492.387 118.513V99.907C492.387 96.1413 490.251 92.7016 486.875 91.0317L413.995 54.9752L317.45 36.9136Z" stroke="#1D1D1D" stroke-width="0.560417"/>
<g style="mix-blend-mode:multiply" opacity="0.3">
<rect x="368.593" y="93.7141" width="192.383" height="30.1777" transform="rotate(1.96105 368.593 93.7141)" fill="#E5C267"/>
</g>
<rect opacity="0.15" width="192.383" height="5.65832" transform="matrix(0.999414 0.03422 0.03422 -0.999414 366.707 92.7625)" fill="white"/>
<g style="mix-blend-mode:multiply" opacity="0.5">
<path fill-rule="evenodd" clip-rule="evenodd" d="M354.094 43.9984L415.548 83.1336C419.426 85.6029 421.773 89.8815 421.773 94.4785V117.08L401.273 116.613C402.641 116.613 403.749 115.505 403.749 114.138V95.4544C403.749 93.2124 402.611 91.1238 400.727 89.908L322.293 39.2824C320.673 38.2364 318.917 37.5023 317.106 37.0788L354.094 43.9984Z" fill="#FCF1D4"/>
</g>
</g>
<path d="M304.237 39.4539C308.151 36.7193 312.967 35.865 317.45 36.9136M317.45 36.9136C319.261 37.3372 321.017 38.0712 322.638 39.1173L401.072 89.7428C402.955 90.9586 404.093 93.0473 404.093 95.2892V113.973C404.093 115.34 402.985 116.448 401.618 116.448L492.387 118.513V99.907C492.387 96.1413 490.251 92.7016 486.875 91.0317L413.995 54.9752L317.45 36.9136Z" stroke="#1D1D1D" stroke-width="0.560417"/>
<path d="M227.097 96.7813V113.975C227.097 115.342 228.205 116.448 229.573 116.448H401.621C402.988 116.448 404.097 115.34 404.097 113.973V95.2893C404.097 93.0474 402.959 90.9587 401.075 89.7429L322.641 39.1174C317.008 35.4817 309.736 35.6148 304.24 39.454L229.918 91.3729C228.15 92.6078 227.097 94.6249 227.097 96.7813Z" stroke="#1D1D1D" stroke-width="0.560417"/>
<path d="M240.71 100.185V116.447H389.241V98.9359C389.241 96.7096 388.119 94.6332 386.256 93.4135L320.128 50.1039C315.871 47.3156 310.341 47.4174 306.189 50.3603L243.494 94.8001C241.748 96.0379 240.71 98.0442 240.71 100.185Z" fill="#FCF1D4" stroke="#1D1D1D" stroke-width="0.560417"/>
<g style="mix-blend-mode:multiply" opacity="0.5">
<path fill-rule="evenodd" clip-rule="evenodd" d="M376.039 116.329H389.241V98.818C389.241 96.5917 388.119 94.5153 386.256 93.2956L320.128 49.986C315.871 47.1977 310.341 47.2995 306.189 50.2424L303.455 52.1804C304.666 52.5163 305.838 53.0404 306.926 53.7535L373.055 97.063C374.917 98.2828 376.039 100.359 376.039 102.585V116.329Z" fill="#FCF1D4"/>
</g>
<g style="mix-blend-mode:multiply" opacity="0.5">
<path fill-rule="evenodd" clip-rule="evenodd" d="M240.71 116.329V100.067C240.71 97.9263 241.748 95.9199 243.494 94.6822L306.189 50.2424C310.341 47.2995 315.871 47.1977 320.128 49.986L320.73 50.38C317.126 49.2815 313.14 49.8695 309.962 52.1221L247.267 96.5619C245.521 97.7996 244.483 99.806 244.483 101.946V116.329H240.71Z" fill="#FCF1D4"/>
</g>
<g style="mix-blend-mode:multiply" opacity="0.5">
<path fill-rule="evenodd" clip-rule="evenodd" d="M240.71 110.208H389.241V116.329H240.71V110.208Z" fill="#FCF1D4"/>
</g>
<path d="M463.51 125.175H245.665V236.65L308.666 241.686L317.042 239.929L357.063 241.729V245.667L389.245 248.126L463.51 235.421V125.175Z" fill="#FCF1D4" stroke="#1D1D1D" stroke-width="0.560417"/>
<path d="M309.206 185.403C309.206 172.186 319.919 161.473 333.136 161.473C346.352 161.473 357.066 172.186 357.066 185.403V240.689H317.176C316.814 240.689 316.454 240.729 316.102 240.807L309.206 242.339V185.403Z" fill="#F2D891" stroke="#1D1D1D" stroke-width="0.560417"/>
<path d="M316.632 181.689C316.632 170.524 325.683 161.473 336.849 161.473C348.014 161.473 357.065 170.524 357.065 181.689V242.34L316.632 240.689V181.689Z" fill="#E5C267" stroke="#1D1D1D" stroke-width="0.560417"/>
<rect x="380.992" y="138.365" width="21.4545" height="102.321" fill="#FCF1D4" stroke="#1D1D1D" stroke-width="0.560417"/>
<g style="mix-blend-mode:multiply" opacity="0.3">
<rect x="381.229" y="139.427" width="9.43054" height="101.85" fill="#F2D891"/>
</g>
<g style="mix-blend-mode:multiply" opacity="0.3">
<rect x="381.229" y="139.427" width="4.71527" height="101.85" fill="#F2D891"/>
</g>
<rect x="344.689" y="138.365" width="21.4545" height="99.8458" fill="#FCF1D4" stroke="#1D1D1D" stroke-width="0.560417"/>
<rect x="276.196" y="136.729" width="21.4545" height="94.8948" fill="#FCF1D4" stroke="#1D1D1D" stroke-width="0.560417"/>
<g style="mix-blend-mode:multiply" opacity="0.3">
<rect x="276.551" y="136.611" width="9.43054" height="99.9637" fill="#F2D891"/>
</g>
<g style="mix-blend-mode:multiply" opacity="0.3">
<rect x="276.551" y="136.611" width="4.71527" height="99.9637" fill="#F2D891"/>
</g>
<rect x="239.89" y="137.547" width="21.4545" height="92.4193" fill="#FCF1D4" stroke="#1D1D1D" stroke-width="0.560417"/>
<g style="mix-blend-mode:multiply" opacity="0.3">
<rect x="239.772" y="137.547" width="9.43054" height="99.9637" fill="#F2D891"/>
</g>
<g style="mix-blend-mode:multiply" opacity="0.3">
<rect x="239.772" y="137.547" width="4.71527" height="99.9637" fill="#F2D891"/>
</g>
<rect x="422.253" y="138.365" width="21.4545" height="95.72" fill="#FCF1D4" stroke="#1D1D1D" stroke-width="0.560417"/>
<g style="mix-blend-mode:multiply" opacity="0.3">
<rect x="422.723" y="138.483" width="9.43054" height="99.9637" fill="#F2D891"/>
</g>
<g style="mix-blend-mode:multiply" opacity="0.3">
<rect x="422.723" y="138.483" width="4.71527" height="99.9637" fill="#F2D891"/>
</g>
<rect x="456.911" y="139.191" width="21.4545" height="85.8179" fill="#FCF1D4" stroke="#1D1D1D" stroke-width="0.560417"/>
<g style="mix-blend-mode:multiply" opacity="0.3">
<rect x="456.675" y="130.948" width="9.43054" height="99.9637" fill="#F2D891"/>
</g>
<g style="mix-blend-mode:multiply" opacity="0.3">
<rect x="456.675" y="130.948" width="4.71527" height="99.9637" fill="#F2D891"/>
</g>
<g style="mix-blend-mode:multiply" opacity="0.3">
<rect x="344.451" y="138.483" width="9.43054" height="99.9637" fill="#F2D891"/>
</g>
<g style="mix-blend-mode:multiply" opacity="0.3">
<rect x="344.451" y="138.483" width="4.71527" height="99.9637" fill="#F2D891"/>
</g>
<mask id="mask3_867_11977" style="mask-type:alpha" maskUnits="userSpaceOnUse" x="235" y="127" width="248" height="13">
<path d="M376.868 130.946C376.868 129.383 378.134 128.117 379.697 128.117H403.745C405.307 128.117 406.574 129.383 406.574 130.946V136.84C406.574 138.403 405.307 139.669 403.745 139.669H379.697C378.134 139.669 376.868 138.403 376.868 136.84V130.946Z" fill="#FAE3C3"/>
<path d="M340.56 130.946C340.56 129.383 341.827 128.117 343.389 128.117H367.437C369 128.117 370.266 129.383 370.266 130.946V136.84C370.266 138.403 369 139.669 367.437 139.669H343.389C341.827 139.669 340.56 138.403 340.56 136.84V130.946Z" fill="#FAE3C3"/>
<path d="M272.071 130.946C272.071 129.383 273.337 128.117 274.9 128.117H298.948C300.51 128.117 301.777 129.383 301.777 130.946V136.84C301.777 138.403 300.51 139.669 298.948 139.669H274.9C273.337 139.669 272.071 138.403 272.071 136.84V130.946Z" fill="#FAE3C3"/>
<path d="M235.763 130.946C235.763 129.383 237.03 128.117 238.592 128.117H262.64C264.203 128.117 265.469 129.383 265.469 130.946V136.84C265.469 138.403 264.203 139.669 262.64 139.669H238.592C237.03 139.669 235.763 138.403 235.763 136.84V130.946Z" fill="#FAE3C3"/>
<path d="M418.126 130.946C418.126 129.383 419.393 128.117 420.955 128.117H445.003C446.566 128.117 447.832 129.383 447.832 130.946V136.84C447.832 138.403 446.566 139.669 445.003 139.669H420.955C419.393 139.669 418.126 138.403 418.126 136.84V130.946Z" fill="#FAE3C3"/>
<path d="M452.783 130.946C452.783 129.383 454.05 128.117 455.613 128.117H479.661C481.223 128.117 482.49 129.383 482.49 130.946V136.84C482.49 138.403 481.223 139.669 479.661 139.669H455.613C454.05 139.669 452.783 138.403 452.783 136.84V130.946Z" fill="#FAE3C3"/>
<path d="M376.868 130.946C376.868 129.383 378.134 128.117 379.697 128.117H403.745C405.307 128.117 406.574 129.383 406.574 130.946V136.84C406.574 138.403 405.307 139.669 403.745 139.669H379.697C378.134 139.669 376.868 138.403 376.868 136.84V130.946Z" stroke="black" stroke-width="0.560417"/>
<path d="M340.56 130.946C340.56 129.383 341.827 128.117 343.389 128.117H367.437C369 128.117 370.266 129.383 370.266 130.946V136.84C370.266 138.403 369 139.669 367.437 139.669H343.389C341.827 139.669 340.56 138.403 340.56 136.84V130.946Z" stroke="black" stroke-width="0.560417"/>
<path d="M272.071 130.946C272.071 129.383 273.337 128.117 274.9 128.117H298.948C300.51 128.117 301.777 129.383 301.777 130.946V136.84C301.777 138.403 300.51 139.669 298.948 139.669H274.9C273.337 139.669 272.071 138.403 272.071 136.84V130.946Z" stroke="black" stroke-width="0.560417"/>
<path d="M235.763 130.946C235.763 129.383 237.03 128.117 238.592 128.117H262.64C264.203 128.117 265.469 129.383 265.469 130.946V136.84C265.469 138.403 264.203 139.669 262.64 139.669H238.592C237.03 139.669 235.763 138.403 235.763 136.84V130.946Z" stroke="black" stroke-width="0.560417"/>
<path d="M418.126 130.946C418.126 129.383 419.393 128.117 420.955 128.117H445.003C446.566 128.117 447.832 129.383 447.832 130.946V136.84C447.832 138.403 446.566 139.669 445.003 139.669H420.955C419.393 139.669 418.126 138.403 418.126 136.84V130.946Z" stroke="black" stroke-width="0.560417"/>
<path d="M452.783 130.946C452.783 129.383 454.05 128.117 455.613 128.117H479.661C481.223 128.117 482.49 129.383 482.49 130.946V136.84C482.49 138.403 481.223 139.669 479.661 139.669H455.613C454.05 139.669 452.783 138.403 452.783 136.84V130.946Z" stroke="black" stroke-width="0.560417"/>
</mask>
<g mask="url(#mask3_867_11977)">
<path d="M376.868 130.946C376.868 129.383 378.134 128.117 379.697 128.117H403.745C405.307 128.117 406.574 129.383 406.574 130.946V136.84C406.574 138.403 405.307 139.669 403.745 139.669H379.697C378.134 139.669 376.868 138.403 376.868 136.84V130.946Z" fill="#FCF1D4"/>
<path d="M340.56 130.946C340.56 129.383 341.827 128.117 343.389 128.117H367.437C369 128.117 370.266 129.383 370.266 130.946V136.84C370.266 138.403 369 139.669 367.437 139.669H343.389C341.827 139.669 340.56 138.403 340.56 136.84V130.946Z" fill="#FCF1D4"/>
<path d="M272.071 130.946C272.071 129.383 273.337 128.117 274.9 128.117H298.948C300.51 128.117 301.777 129.383 301.777 130.946V136.84C301.777 138.403 300.51 139.669 298.948 139.669H274.9C273.337 139.669 272.071 138.403 272.071 136.84V130.946Z" fill="#FCF1D4"/>
<path d="M235.763 130.946C235.763 129.383 237.03 128.117 238.592 128.117H262.64C264.203 128.117 265.469 129.383 265.469 130.946V136.84C265.469 138.403 264.203 139.669 262.64 139.669H238.592C237.03 139.669 235.763 138.403 235.763 136.84V130.946Z" fill="#FCF1D4"/>
<path d="M418.126 130.946C418.126 129.383 419.393 128.117 420.955 128.117H445.003C446.566 128.117 447.832 129.383 447.832 130.946V136.84C447.832 138.403 446.566 139.669 445.003 139.669H420.955C419.393 139.669 418.126 138.403 418.126 136.84V130.946Z" fill="#FCF1D4"/>
<path d="M452.783 130.946C452.783 129.383 454.05 128.117 455.613 128.117H479.661C481.223 128.117 482.49 129.383 482.49 130.946V136.84C482.49 138.403 481.223 139.669 479.661 139.669H455.613C454.05 139.669 452.783 138.403 452.783 136.84V130.946Z" fill="#FCF1D4"/>
<path d="M376.868 130.946C376.868 129.383 378.134 128.117 379.697 128.117H403.745C405.307 128.117 406.574 129.383 406.574 130.946V136.84C406.574 138.403 405.307 139.669 403.745 139.669H379.697C378.134 139.669 376.868 138.403 376.868 136.84V130.946Z" stroke="#1D1D1D" stroke-width="0.560417"/>
<path d="M340.56 130.946C340.56 129.383 341.827 128.117 343.389 128.117H367.437C369 128.117 370.266 129.383 370.266 130.946V136.84C370.266 138.403 369 139.669 367.437 139.669H343.389C341.827 139.669 340.56 138.403 340.56 136.84V130.946Z" stroke="#1D1D1D" stroke-width="0.560417"/>
<path d="M272.071 130.946C272.071 129.383 273.337 128.117 274.9 128.117H298.948C300.51 128.117 301.777 129.383 301.777 130.946V136.84C301.777 138.403 300.51 139.669 298.948 139.669H274.9C273.337 139.669 272.071 138.403 272.071 136.84V130.946Z" stroke="#1D1D1D" stroke-width="0.560417"/>
<path d="M235.763 130.946C235.763 129.383 237.03 128.117 238.592 128.117H262.64C264.203 128.117 265.469 129.383 265.469 130.946V136.84C265.469 138.403 264.203 139.669 262.64 139.669H238.592C237.03 139.669 235.763 138.403 235.763 136.84V130.946Z" stroke="#1D1D1D" stroke-width="0.560417"/>
<path d="M418.126 130.946C418.126 129.383 419.393 128.117 420.955 128.117H445.003C446.566 128.117 447.832 129.383 447.832 130.946V136.84C447.832 138.403 446.566 139.669 445.003 139.669H420.955C419.393 139.669 418.126 138.403 418.126 136.84V130.946Z" stroke="#1D1D1D" stroke-width="0.560417"/>
<path d="M452.783 130.946C452.783 129.383 454.05 128.117 455.613 128.117H479.661C481.223 128.117 482.49 129.383 482.49 130.946V136.84C482.49 138.403 481.223 139.669 479.661 139.669H455.613C454.05 139.669 452.783 138.403 452.783 136.84V130.946Z" stroke="#1D1D1D" stroke-width="0.560417"/>
<g style="mix-blend-mode:multiply">
<rect x="219.968" y="118.687" width="279.144" height="14.1458" fill="#FCF1D4"/>
</g>
</g>
<mask id="mask4_867_11977" style="mask-type:alpha" maskUnits="userSpaceOnUse" x="235" y="224" width="248" height="30">
<path d="M406.574 243.507C406.574 241.944 405.307 240.678 403.745 240.678H379.697C378.134 240.678 376.868 241.944 376.868 243.507V249.231C376.868 250.627 377.888 251.818 379.271 252.014C388.87 253.373 395.038 253.424 404.207 252.036C405.573 251.83 406.574 250.646 406.574 249.264V243.507Z" fill="#FAE3C3"/>
<path d="M370.266 241.031C370.266 239.469 369 238.202 367.437 238.202H343.389C341.827 238.202 340.56 239.469 340.56 241.031V246.756C340.56 248.152 341.581 249.343 342.963 249.538C352.563 250.898 358.73 250.948 367.899 249.561C369.266 249.354 370.266 248.17 370.266 246.788V241.031Z" fill="#FAE3C3"/>
<path d="M301.777 234.43C301.777 232.868 300.51 231.601 298.948 231.601H274.9C273.337 231.601 272.071 232.868 272.071 234.43V240.154C272.071 241.551 273.091 242.741 274.474 242.937C284.073 244.296 290.241 244.347 299.41 242.96C300.777 242.753 301.777 241.569 301.777 240.187V234.43Z" fill="#FAE3C3"/>
<path d="M265.469 232.78C265.469 231.217 264.203 229.951 262.64 229.951H238.592C237.03 229.951 235.763 231.217 235.763 232.78V238.504C235.763 239.9 236.784 241.091 238.166 241.287C247.766 242.646 253.933 242.697 263.102 241.309C264.469 241.102 265.469 239.919 265.469 238.537V232.78Z" fill="#FAE3C3"/>
<path d="M447.832 236.906C447.832 235.343 446.566 234.076 445.003 234.076H420.955C419.393 234.076 418.126 235.343 418.126 236.906V242.63C418.126 244.026 419.147 245.217 420.529 245.413C430.129 246.772 436.296 246.823 445.466 245.435C446.832 245.228 447.832 244.044 447.832 242.662V236.906Z" fill="#FAE3C3"/>
<path d="M482.49 227.829C482.49 226.266 481.223 225 479.661 225H455.613C454.05 225 452.783 226.266 452.783 227.829V233.553C452.783 234.949 453.804 236.14 455.187 236.336C464.786 237.695 470.954 237.746 480.123 236.358C481.489 236.151 482.49 234.967 482.49 233.585V227.829Z" fill="#FAE3C3"/>
<path d="M406.574 243.507C406.574 241.944 405.307 240.678 403.745 240.678H379.697C378.134 240.678 376.868 241.944 376.868 243.507V249.231C376.868 250.627 377.888 251.818 379.271 252.014C388.87 253.373 395.038 253.424 404.207 252.036C405.573 251.83 406.574 250.646 406.574 249.264V243.507Z" stroke="black" stroke-width="0.560417"/>
<path d="M370.266 241.031C370.266 239.469 369 238.202 367.437 238.202H343.389C341.827 238.202 340.56 239.469 340.56 241.031V246.756C340.56 248.152 341.581 249.343 342.963 249.538C352.563 250.898 358.73 250.948 367.899 249.561C369.266 249.354 370.266 248.17 370.266 246.788V241.031Z" stroke="black" stroke-width="0.560417"/>
<path d="M301.777 234.43C301.777 232.868 300.51 231.601 298.948 231.601H274.9C273.337 231.601 272.071 232.868 272.071 234.43V240.154C272.071 241.551 273.091 242.741 274.474 242.937C284.073 244.296 290.241 244.347 299.41 242.96C300.777 242.753 301.777 241.569 301.777 240.187V234.43Z" stroke="black" stroke-width="0.560417"/>
<path d="M265.469 232.78C265.469 231.217 264.203 229.951 262.64 229.951H238.592C237.03 229.951 235.763 231.217 235.763 232.78V238.504C235.763 239.9 236.784 241.091 238.166 241.287C247.766 242.646 253.933 242.697 263.102 241.309C264.469 241.102 265.469 239.919 265.469 238.537V232.78Z" stroke="black" stroke-width="0.560417"/>
<path d="M447.832 236.906C447.832 235.343 446.566 234.076 445.003 234.076H420.955C419.393 234.076 418.126 235.343 418.126 236.906V242.63C418.126 244.026 419.147 245.217 420.529 245.413C430.129 246.772 436.296 246.823 445.466 245.435C446.832 245.228 447.832 244.044 447.832 242.662V236.906Z" stroke="black" stroke-width="0.560417"/>
<path d="M482.49 227.829C482.49 226.266 481.223 225 479.661 225H455.613C454.05 225 452.783 226.266 452.783 227.829V233.553C452.783 234.949 453.804 236.14 455.187 236.336C464.786 237.695 470.954 237.746 480.123 236.358C481.489 236.151 482.49 234.967 482.49 233.585V227.829Z" stroke="black" stroke-width="0.560417"/>
</mask>
<g mask="url(#mask4_867_11977)">
<path d="M406.574 243.507C406.574 241.944 405.307 240.678 403.745 240.678H379.697C378.134 240.678 376.868 241.944 376.868 243.507V249.231C376.868 250.627 377.888 251.818 379.271 252.014C388.87 253.373 395.038 253.424 404.207 252.036C405.573 251.83 406.574 250.646 406.574 249.264V243.507Z" fill="#FCF1D4"/>
<path d="M370.266 241.031C370.266 239.469 369 238.202 367.437 238.202H343.389C341.827 238.202 340.56 239.469 340.56 241.031V246.756C340.56 248.152 341.581 249.343 342.963 249.538C352.563 250.898 358.73 250.948 367.899 249.561C369.266 249.354 370.266 248.17 370.266 246.788V241.031Z" fill="#FCF1D4"/>
<path d="M301.777 234.43C301.777 232.868 300.51 231.601 298.948 231.601H274.9C273.337 231.601 272.071 232.868 272.071 234.43V240.154C272.071 241.551 273.091 242.741 274.474 242.937C284.073 244.296 290.241 244.347 299.41 242.96C300.777 242.753 301.777 241.569 301.777 240.187V234.43Z" fill="#FCF1D4"/>
<path d="M265.469 232.78C265.469 231.217 264.203 229.951 262.64 229.951H238.592C237.03 229.951 235.763 231.217 235.763 232.78V238.504C235.763 239.9 236.784 241.091 238.166 241.287C247.766 242.646 253.933 242.697 263.102 241.309C264.469 241.102 265.469 239.919 265.469 238.537V232.78Z" fill="#FCF1D4"/>
<path d="M447.832 236.906C447.832 235.343 446.566 234.076 445.003 234.076H420.955C419.393 234.076 418.126 235.343 418.126 236.906V242.63C418.126 244.026 419.147 245.217 420.529 245.413C430.129 246.772 436.296 246.823 445.466 245.435C446.832 245.228 447.832 244.044 447.832 242.662V236.906Z" fill="#FCF1D4"/>
<path d="M482.49 227.829C482.49 226.266 481.223 225 479.661 225H455.613C454.05 225 452.783 226.266 452.783 227.829V233.553C452.783 234.949 453.804 236.14 455.187 236.336C464.786 237.695 470.954 237.746 480.123 236.358C481.489 236.151 482.49 234.967 482.49 233.585V227.829Z" fill="#FCF1D4"/>
<path d="M406.574 243.507C406.574 241.944 405.307 240.678 403.745 240.678H379.697C378.134 240.678 376.868 241.944 376.868 243.507V249.231C376.868 250.627 377.888 251.818 379.271 252.014C388.87 253.373 395.038 253.424 404.207 252.036C405.573 251.83 406.574 250.646 406.574 249.264V243.507Z" stroke="#1D1D1D" stroke-width="0.560417"/>
<path d="M370.266 241.031C370.266 239.469 369 238.202 367.437 238.202H343.389C341.827 238.202 340.56 239.469 340.56 241.031V246.756C340.56 248.152 341.581 249.343 342.963 249.538C352.563 250.898 358.73 250.948 367.899 249.561C369.266 249.354 370.266 248.17 370.266 246.788V241.031Z" stroke="#1D1D1D" stroke-width="0.560417"/>
<path d="M301.777 234.43C301.777 232.868 300.51 231.601 298.948 231.601H274.9C273.337 231.601 272.071 232.868 272.071 234.43V240.154C272.071 241.551 273.091 242.741 274.474 242.937C284.073 244.296 290.241 244.347 299.41 242.96C300.777 242.753 301.777 241.569 301.777 240.187V234.43Z" stroke="#1D1D1D" stroke-width="0.560417"/>
<path d="M265.469 232.78C265.469 231.217 264.203 229.951 262.64 229.951H238.592C237.03 229.951 235.763 231.217 235.763 232.78V238.504C235.763 239.9 236.784 241.091 238.166 241.287C247.766 242.646 253.933 242.697 263.102 241.309C264.469 241.102 265.469 239.919 265.469 238.537V232.78Z" stroke="#1D1D1D" stroke-width="0.560417"/>
<path d="M447.832 236.906C447.832 235.343 446.566 234.076 445.003 234.076H420.955C419.393 234.076 418.126 235.343 418.126 236.906V242.63C418.126 244.026 419.147 245.217 420.529 245.413C430.129 246.772 436.296 246.823 445.466 245.435C446.832 245.228 447.832 244.044 447.832 242.662V236.906Z" stroke="#1D1D1D" stroke-width="0.560417"/>
<path d="M482.49 227.829C482.49 226.266 481.223 225 479.661 225H455.613C454.05 225 452.783 226.266 452.783 227.829V233.553C452.783 234.949 453.804 236.14 455.187 236.336C464.786 237.695 470.954 237.746 480.123 236.358C481.489 236.151 482.49 234.967 482.49 233.585V227.829Z" stroke="#1D1D1D" stroke-width="0.560417"/>
<g style="mix-blend-mode:multiply" opacity="0.4">
<rect x="234.111" y="225.235" width="11.3166" height="22.6333" fill="#F2D891"/>
</g>
<g style="mix-blend-mode:multiply" opacity="0.4">
<rect x="270.891" y="225.235" width="11.3166" height="22.6333" fill="#F2D891"/>
</g>
<g style="mix-blend-mode:multiply" opacity="0.4">
<rect x="338.792" y="233.722" width="11.3166" height="22.6333" fill="#F2D891"/>
</g>
<g style="mix-blend-mode:multiply" opacity="0.4">
<rect x="376.514" y="233.722" width="11.3166" height="22.6333" fill="#F2D891"/>
</g>
<g style="mix-blend-mode:multiply" opacity="0.4">
<rect x="416.124" y="230.891" width="11.3166" height="22.6333" fill="#F2D891"/>
</g>
<g style="mix-blend-mode:multiply" opacity="0.4">
<rect x="451.014" y="220.524" width="11.3166" height="22.6333" fill="#F2D891"/>
</g>
</g>
<mask id="mask5_867_11977" style="mask-type:alpha" maskUnits="userSpaceOnUse" x="222" y="114" width="277" height="16">
<path d="M491.538 129.882H229.284C225.57 129.882 222.559 126.871 222.559 123.157V121.518C222.559 117.804 225.57 114.793 229.284 114.793H394.502L491.663 116.626C495.275 116.695 498.167 119.642 498.167 123.254C498.167 126.914 495.199 129.882 491.538 129.882Z" fill="#FAE3C3"/>
</mask>
<g mask="url(#mask5_867_11977)">
<path d="M491.538 129.882H229.284C225.57 129.882 222.559 126.871 222.559 123.157V121.518C222.559 117.804 225.57 114.793 229.284 114.793H394.502L491.663 116.626C495.275 116.695 498.167 119.642 498.167 123.254C498.167 126.914 495.199 129.882 491.538 129.882Z" fill="#FCF1D4" stroke="#1D1D1D" stroke-width="0.560417"/>
<g style="mix-blend-mode:multiply">
<path d="M517.848 140.366H210.66C206.945 140.366 203.935 137.355 203.935 133.641V132.002C203.935 128.288 206.945 125.277 210.66 125.277H403.97H517.848C521.562 125.277 524.573 128.288 524.573 132.002V133.641C524.573 137.355 521.562 140.366 517.848 140.366Z" fill="#FCF1D4"/>
</g>
</g>
<path d="M491.538 129.882H229.284C225.57 129.882 222.559 126.871 222.559 123.157V121.518C222.559 117.804 225.57 114.793 229.284 114.793H394.502L491.663 116.626C495.275 116.695 498.167 119.642 498.167 123.254C498.167 126.914 495.199 129.882 491.538 129.882Z" stroke="#1D1D1D" stroke-width="0.560417"/>
<g clip-path="url(#clip0_867_11977)">
<ellipse cx="57.8744" cy="16.1834" rx="57.8744" ry="16.1834" transform="matrix(-0.999999 -0.00133294 -0.0012028 0.999999 130.575 280.4)" fill="#EDA56D"/>
<mask id="mask6_867_11977" style="mask-type:alpha" maskUnits="userSpaceOnUse" x="45" y="263" width="87" height="51">
<path d="M131.347 282.58C131.347 282.344 131.319 282.127 131.273 281.901C130.183 271.602 111.434 263.395 88.4647 263.395C65.4951 263.395 46.7463 271.593 45.6565 281.901C45.6103 282.118 45.5825 282.344 45.5825 282.58V294.801C45.5825 295.178 45.6565 295.536 45.7765 295.875C47.6791 305.816 66.0585 313.627 88.4647 313.627C110.871 313.627 129.25 305.825 131.153 295.875C131.273 295.536 131.347 295.178 131.347 294.801V282.58Z" fill="#FFE790"/>
</mask>
<g mask="url(#mask6_867_11977)">
<path d="M131.347 282.58C131.347 282.344 131.319 282.127 131.273 281.901C130.183 271.602 111.434 263.395 88.4647 263.395C65.4951 263.395 46.7463 271.593 45.6565 281.901C45.6103 282.118 45.5825 282.344 45.5825 282.58V294.801C45.5825 295.178 45.6565 295.536 45.7765 295.875C47.6791 305.816 66.0585 313.627 88.4647 313.627C110.871 313.627 129.25 305.825 131.153 295.875C131.273 295.536 131.347 295.178 131.347 294.801V282.58Z" fill="#FCEDB6"/>
<g style="mix-blend-mode:multiply">
<rect width="16.9023" height="43.2119" transform="matrix(0.999999 0.00133294 -0.0012028 0.999999 90.8447 287.99)" fill="#FCEDB6"/>
</g>
<g style="mix-blend-mode:multiply">
<rect width="4.82922" height="43.2119" transform="matrix(-0.999999 -0.00133294 -0.0012028 0.999999 117.406 287.99)" fill="#FCEDB6"/>
</g>
<g style="mix-blend-mode:multiply">
<rect width="19.3169" height="43.2119" transform="matrix(0.999999 0.00133294 -0.0012028 0.999999 44.9785 275.182)" fill="#FCEDB6"/>
</g>
<g style="mix-blend-mode:multiply">
<rect width="8.94685" height="43.2119" transform="matrix(-0.999999 -0.00133294 -0.0012028 0.999999 54.0962 275.202)" fill="#F2D891"/>
</g>
</g>
<path d="M88.4647 303.144C112.148 303.144 131.347 294.242 131.347 283.261C131.347 272.279 112.148 263.377 88.4647 263.377C64.7815 263.377 45.5825 272.279 45.5825 283.261C45.5825 294.242 64.7815 303.144 88.4647 303.144Z" fill="#FCEDB6"/>
<path d="M131.347 282.566C131.347 282.331 131.319 282.114 131.273 281.888C130.183 271.589 111.357 263.139 88.3878 263.139C65.4181 263.139 46.7463 271.579 45.6565 281.888C45.6103 282.104 45.5825 282.331 45.5825 282.566V294.787C45.5825 295.164 45.6565 295.522 45.7765 295.862C47.6791 305.802 66.0585 313.614 88.4647 313.614C110.871 313.614 129.25 305.812 131.153 295.862C131.273 295.522 131.347 295.164 131.347 294.787V282.566Z" stroke="#1D1D1D" stroke-width="0.33625" stroke-miterlimit="10"/>
<path d="M88.9074 298.353C109.77 298.353 126.683 291.078 126.683 282.105C126.683 273.131 109.77 265.856 88.9074 265.856C68.0445 265.856 51.1318 273.131 51.1318 282.105C51.1318 291.078 68.0445 298.353 88.9074 298.353Z" fill="#FCEDB6" stroke="#F2D891" stroke-width="0.33625" stroke-miterlimit="10"/>
<path d="M88.4139 296.344C107.355 296.344 122.71 290.136 122.71 282.478C122.71 274.821 107.355 268.613 88.4139 268.613C69.4726 268.613 54.1177 274.821 54.1177 282.478C54.1177 290.136 69.4726 296.344 88.4139 296.344Z" fill="#F2D891"/>
<g style="mix-blend-mode:multiply" opacity="0.5">
<path fill-rule="evenodd" clip-rule="evenodd" d="M119.66 288.114C113.368 291.121 103.927 293.033 93.3725 293.033C74.4312 293.033 59.0762 286.876 59.0762 279.282C59.0762 277.264 60.1602 275.348 62.1073 273.622C57.1084 276.011 54.0981 279.092 54.0981 282.454C54.0981 290.048 69.4531 296.205 88.3944 296.205C102.303 296.205 114.278 292.885 119.66 288.114Z" fill="#F2D891"/>
</g>
<mask id="mask7_867_11977" style="mask-type:alpha" maskUnits="userSpaceOnUse" x="45" y="250" width="87" height="51">
<path d="M131.347 269.55C131.347 269.315 131.319 269.098 131.273 268.872C130.183 258.573 111.434 250.366 88.4647 250.366C65.4951 250.366 46.7463 258.563 45.6565 268.872C45.6103 269.089 45.5825 269.315 45.5825 269.55V281.771C45.5825 282.148 45.6565 282.506 45.7765 282.846C47.6791 292.787 66.0585 300.598 88.4647 300.598C110.871 300.598 129.25 292.796 131.153 282.846C131.273 282.506 131.347 282.148 131.347 281.771V269.55Z" fill="#FFE790"/>
</mask>
<g mask="url(#mask7_867_11977)">
<path d="M131.347 269.55C131.347 269.315 131.319 269.098 131.273 268.872C130.183 258.573 111.434 250.366 88.4647 250.366C65.4951 250.366 46.7463 258.563 45.6565 268.872C45.6103 269.089 45.5825 269.315 45.5825 269.55V281.771C45.5825 282.148 45.6565 282.506 45.7765 282.846C47.6791 292.787 66.0585 300.598 88.4647 300.598C110.871 300.598 129.25 292.796 131.153 282.846C131.273 282.506 131.347 282.148 131.347 281.771V269.55Z" fill="#FCEDB6"/>
<g style="mix-blend-mode:multiply">
<rect width="16.9023" height="43.212" transform="matrix(0.999999 0.00133294 -0.0012028 0.999999 90.8447 274.961)" fill="#FCEDB6"/>
</g>
<g style="mix-blend-mode:multiply">
<rect width="4.82922" height="43.2119" transform="matrix(-0.999999 -0.00133294 -0.0012028 0.999999 117.406 274.961)" fill="#FCEDB6"/>
</g>
<g style="mix-blend-mode:multiply">
<rect width="19.3169" height="43.2119" transform="matrix(0.999999 0.00133294 -0.0012028 0.999999 44.9785 262.153)" fill="#FCEDB6"/>
</g>
<g style="mix-blend-mode:multiply">
<rect width="8.94685" height="43.2119" transform="matrix(-0.999999 -0.00133294 -0.0012028 0.999999 54.0962 262.173)" fill="#F2D891"/>
</g>
</g>
<path d="M88.4647 290.151C112.148 290.151 131.347 281.249 131.347 270.267C131.347 259.286 112.148 250.384 88.4647 250.384C64.7815 250.384 45.5825 259.286 45.5825 270.267C45.5825 281.249 64.7815 290.151 88.4647 290.151Z" fill="#FCEDB6"/>
<path d="M131.347 269.573C131.347 269.337 131.319 269.12 131.273 268.894C130.183 258.595 111.357 250.146 88.3878 250.146C65.4181 250.146 46.7463 258.586 45.6565 268.894C45.6103 269.111 45.5825 269.337 45.5825 269.573V281.794C45.5825 282.171 45.6565 282.529 45.7765 282.868C47.6791 292.809 66.0585 300.62 88.4647 300.62C110.871 300.62 129.25 292.818 131.153 282.868C131.273 282.529 131.347 282.171 131.347 281.794V269.573Z" stroke="#1D1D1D" stroke-width="0.33625" stroke-miterlimit="10"/>
<path d="M88.9074 285.397C109.77 285.397 126.683 278.123 126.683 269.149C126.683 260.175 109.77 252.901 88.9074 252.901C68.0445 252.901 51.1318 260.175 51.1318 269.149C51.1318 278.123 68.0445 285.397 88.9074 285.397Z" fill="#FCEDB6" stroke="#F2D891" stroke-width="0.33625" stroke-miterlimit="10"/>
<path d="M88.4139 283.359C107.355 283.359 122.71 277.151 122.71 269.493C122.71 261.835 107.355 255.627 88.4139 255.627C69.4726 255.627 54.1177 261.835 54.1177 269.493C54.1177 277.151 69.4726 283.359 88.4139 283.359Z" fill="#F2D891"/>
<g style="mix-blend-mode:multiply" opacity="0.5">
<path fill-rule="evenodd" clip-rule="evenodd" d="M119.661 275.127C113.37 278.134 103.928 280.046 93.3725 280.046C74.4312 280.046 59.0762 273.889 59.0762 266.295C59.0762 264.278 60.1597 262.362 62.106 260.636C57.1078 263.025 54.0981 266.105 54.0981 269.468C54.0981 277.062 69.4531 283.218 88.3944 283.218C102.304 283.218 114.28 279.898 119.661 275.127Z" fill="#F2D891"/>
</g>
<mask id="mask8_867_11977" style="mask-type:alpha" maskUnits="userSpaceOnUse" x="45" y="237" width="87" height="51">
<path d="M131.347 256.551C131.347 256.316 131.319 256.099 131.273 255.873C130.183 245.574 111.434 237.367 88.4647 237.367C65.4951 237.367 46.7463 245.565 45.6565 255.873C45.6103 256.09 45.5825 256.316 45.5825 256.551V268.773C45.5825 269.15 45.6565 269.508 45.7765 269.847C47.6791 279.788 66.0585 287.599 88.4647 287.599C110.871 287.599 129.25 279.797 131.153 269.847C131.273 269.508 131.347 269.15 131.347 268.773V256.551Z" fill="#FFE790"/>
</mask>
<g mask="url(#mask8_867_11977)">
<path d="M131.347 256.551C131.347 256.316 131.319 256.099 131.273 255.873C130.183 245.574 111.434 237.367 88.4647 237.367C65.4951 237.367 46.7463 245.565 45.6565 255.873C45.6103 256.09 45.5825 256.316 45.5825 256.551V268.773C45.5825 269.15 45.6565 269.508 45.7765 269.847C47.6791 279.788 66.0585 287.599 88.4647 287.599C110.871 287.599 129.25 279.797 131.153 269.847C131.273 269.508 131.347 269.15 131.347 268.773V256.551Z" fill="#FCEDB6"/>
<g style="mix-blend-mode:multiply">
<rect width="16.9023" height="43.2119" transform="matrix(0.999999 0.00133294 -0.0012028 0.999999 90.8447 261.962)" fill="#FCEDB6"/>
</g>
<g style="mix-blend-mode:multiply">
<rect width="4.82922" height="43.2119" transform="matrix(-0.999999 -0.00133294 -0.0012028 0.999999 117.406 261.962)" fill="#FCEDB6"/>
</g>
<g style="mix-blend-mode:multiply">
<rect width="19.3169" height="43.2119" transform="matrix(0.999999 0.00133294 -0.0012028 0.999999 44.9785 249.154)" fill="#FCEDB6"/>
</g>
<g style="mix-blend-mode:multiply">
<rect width="8.94685" height="43.2119" transform="matrix(-0.999999 -0.00133294 -0.0012028 0.999999 54.0962 249.174)" fill="#F2D891"/>
</g>
</g>
<path d="M88.4647 277.132C112.148 277.132 131.347 268.23 131.347 257.248C131.347 246.267 112.148 237.365 88.4647 237.365C64.7815 237.365 45.5825 246.267 45.5825 257.248C45.5825 268.23 64.7815 277.132 88.4647 277.132Z" fill="#FCEDB6"/>
<path d="M131.347 256.553C131.347 256.318 131.319 256.101 131.273 255.875C130.183 245.576 111.357 237.126 88.3878 237.126C65.4181 237.126 46.7463 245.566 45.6565 255.875C45.6103 256.092 45.5825 256.318 45.5825 256.553V268.775C45.5825 269.151 45.6565 269.509 45.7765 269.849C47.6791 279.79 66.0585 287.601 88.4647 287.601C110.871 287.601 129.25 279.799 131.153 269.849C131.273 269.509 131.347 269.151 131.347 268.775V256.553Z" stroke="#1D1D1D" stroke-width="0.33625" stroke-miterlimit="10"/>
<path d="M88.9074 272.379C109.77 272.379 126.683 265.104 126.683 256.131C126.683 247.157 109.77 239.883 88.9074 239.883C68.0445 239.883 51.1318 247.157 51.1318 256.131C51.1318 265.104 68.0445 272.379 88.9074 272.379Z" fill="#FCEDB6" stroke="#F2D891" stroke-width="0.33625" stroke-miterlimit="10"/>
<path d="M88.4139 270.37C107.355 270.37 122.71 264.162 122.71 256.505C122.71 248.847 107.355 242.639 88.4139 242.639C69.4726 242.639 54.1177 248.847 54.1177 256.505C54.1177 264.162 69.4726 270.37 88.4139 270.37Z" fill="#F2D891"/>
<g style="mix-blend-mode:multiply" opacity="0.5">
<path fill-rule="evenodd" clip-rule="evenodd" d="M119.661 262.116C113.37 265.123 103.928 267.035 93.3725 267.035C74.4312 267.035 59.0762 260.879 59.0762 253.284C59.0762 251.267 60.1597 249.351 62.106 247.625C57.1078 250.015 54.0981 253.095 54.0981 256.457C54.0981 264.051 69.4531 270.208 88.3944 270.208C102.304 270.208 114.28 266.888 119.661 262.116Z" fill="#F2D891"/>
</g>
<mask id="mask9_867_11977" style="mask-type:alpha" maskUnits="userSpaceOnUse" x="45" y="224" width="87" height="51">
<path d="M131.347 243.677C131.347 243.441 131.319 243.224 131.273 242.998C130.183 232.699 111.434 224.492 88.4647 224.492C65.4951 224.492 46.7463 232.69 45.6565 242.998C45.6103 243.215 45.5825 243.441 45.5825 243.677V255.898C45.5825 256.275 45.6565 256.633 45.7765 256.972C47.6791 266.913 66.0585 274.724 88.4647 274.724C110.871 274.724 129.25 266.922 131.153 256.972C131.273 256.633 131.347 256.275 131.347 255.898V243.677Z" fill="#FFE790"/>
</mask>
<g mask="url(#mask9_867_11977)">
<path d="M131.347 243.677C131.347 243.441 131.319 243.224 131.273 242.998C130.183 232.699 111.434 224.492 88.4647 224.492C65.4951 224.492 46.7463 232.69 45.6565 242.998C45.6103 243.215 45.5825 243.441 45.5825 243.677V255.898C45.5825 256.275 45.6565 256.633 45.7765 256.972C47.6791 266.913 66.0585 274.724 88.4647 274.724C110.871 274.724 129.25 266.922 131.153 256.972C131.273 256.633 131.347 256.275 131.347 255.898V243.677Z" fill="#FCEDB6"/>
<g style="mix-blend-mode:multiply">
<rect width="16.9023" height="43.2119" transform="matrix(0.999999 0.00133294 -0.0012028 0.999999 90.8447 249.087)" fill="#FCEDB6"/>
</g>
<g style="mix-blend-mode:multiply">
<rect width="4.82922" height="43.2119" transform="matrix(-0.999999 -0.00133294 -0.0012028 0.999999 117.406 249.087)" fill="#FCEDB6"/>
</g>
<g style="mix-blend-mode:multiply">
<rect width="19.3169" height="43.2119" transform="matrix(0.999999 0.00133294 -0.0012028 0.999999 44.9785 236.279)" fill="#FCEDB6"/>
</g>
<g style="mix-blend-mode:multiply">
<rect width="8.94685" height="43.2119" transform="matrix(-0.999999 -0.00133294 -0.0012028 0.999999 54.0962 236.299)" fill="#F2D891"/>
</g>
</g>
<path d="M88.4647 264.247C112.148 264.247 131.347 255.345 131.347 244.364C131.347 233.382 112.148 224.48 88.4647 224.48C64.7815 224.48 45.5825 233.382 45.5825 244.364C45.5825 255.345 64.7815 264.247 88.4647 264.247Z" fill="#FCEDB6"/>
<path d="M131.347 243.669C131.347 243.434 131.319 243.217 131.273 242.991C130.183 232.692 111.357 224.242 88.3878 224.242C65.4181 224.242 46.7463 232.682 45.6565 242.991C45.6103 243.207 45.5825 243.434 45.5825 243.669V255.89C45.5825 256.267 45.6565 256.625 45.7765 256.965C47.6791 266.905 66.0585 274.717 88.4647 274.717C110.871 274.717 129.25 266.915 131.153 256.965C131.273 256.625 131.347 256.267 131.347 255.89V243.669Z" stroke="#1D1D1D" stroke-width="0.33625" stroke-miterlimit="10"/>
<path d="M88.9074 259.483C109.77 259.483 126.683 252.208 126.683 243.235C126.683 234.261 109.77 226.986 88.9074 226.986C68.0445 226.986 51.1318 234.261 51.1318 243.235C51.1318 252.208 68.0445 259.483 88.9074 259.483Z" fill="#FCEDB6" stroke="#F2D891" stroke-width="0.33625" stroke-miterlimit="10"/>
<path d="M88.4139 257.474C107.355 257.474 122.71 251.266 122.71 243.608C122.71 235.95 107.355 229.742 88.4139 229.742C69.4726 229.742 54.1177 235.95 54.1177 243.608C54.1177 251.266 69.4726 257.474 88.4139 257.474Z" fill="#F2D891"/>
<g style="mix-blend-mode:multiply" opacity="0.5">
<path fill-rule="evenodd" clip-rule="evenodd" d="M119.661 249.238C113.37 252.246 103.928 254.157 93.3725 254.157C74.4312 254.157 59.0762 248.001 59.0762 240.407C59.0762 238.39 60.1597 236.474 62.106 234.748C57.1078 237.137 54.0981 240.217 54.0981 243.579C54.0981 251.174 69.4531 257.33 88.3944 257.33C102.304 257.33 114.28 254.01 119.661 249.238Z" fill="#F2D891"/>
</g>
<mask id="mask10_867_11977" style="mask-type:alpha" maskUnits="userSpaceOnUse" x="18" y="167" width="89" height="75">
<path d="M97.9587 173.011C97.814 172.797 97.6558 172.617 97.475 172.441C90.1614 163.765 68.1099 167.833 47.2688 181.939C26.4277 196.045 14.4506 214.997 19.7923 225.019C19.8835 225.244 19.9972 225.466 20.1419 225.68L27.6471 236.769C27.8786 237.111 28.1656 237.39 28.4828 237.624C36.314 245.475 57.7873 241.276 78.1172 227.516C98.4471 213.756 110.332 195.39 105.948 185.193C105.848 184.812 105.695 184.441 105.464 184.099L97.9587 173.011Z" fill="#FFE790"/>
</mask>
<g mask="url(#mask10_867_11977)">
<path d="M97.9587 173.011C97.814 172.797 97.6558 172.617 97.475 172.441C90.1614 163.765 68.1099 167.833 47.2688 181.939C26.4277 196.045 14.4506 214.997 19.7923 225.019C19.8835 225.244 19.9972 225.466 20.1419 225.68L27.6471 236.769C27.8786 237.111 28.1656 237.39 28.4828 237.624C36.314 245.475 57.7873 241.276 78.1172 227.516C98.4471 213.756 110.332 195.39 105.948 185.193C105.848 184.812 105.695 184.441 105.464 184.099L97.9587 173.011Z" fill="#FCEDB6"/>
<g style="mix-blend-mode:multiply">
<rect width="18.5185" height="47.344" transform="matrix(0.828889 -0.559413 0.559521 0.828817 64.5332 202.802)" fill="#FCEDB6"/>
</g>
<g style="mix-blend-mode:multiply">
<rect width="5.29101" height="47.344" transform="matrix(-0.828889 0.559413 0.559521 0.828817 88.6313 186.483)" fill="#FCEDB6"/>
</g>
<g style="mix-blend-mode:multiply">
<rect width="21.164" height="47.344" transform="matrix(0.828889 -0.559413 0.559521 0.828817 15.0479 219.337)" fill="#FCEDB6"/>
</g>
<g style="mix-blend-mode:multiply">
<rect width="9.80238" height="47.344" transform="matrix(-0.828889 0.559413 0.559521 0.828817 23.3315 213.755)" fill="#F2D891"/>
</g>
</g>
<path d="M71.7012 218.043C93.1897 203.499 105.143 183.631 98.3988 173.668C91.6549 163.704 68.768 167.417 47.2795 181.961C25.791 196.505 13.8381 216.373 20.582 226.337C27.3258 236.301 50.2127 232.587 71.7012 218.043Z" fill="#FCEDB6" stroke="#1D1D1D" stroke-width="0.33625" stroke-miterlimit="10"/>
<path d="M98.0985 173.176C97.955 172.964 97.7977 172.786 97.6179 172.611C90.3511 164.009 68.0882 167.984 47.2073 182.117C26.3263 196.25 14.4957 215.338 19.7868 225.29C19.8769 225.513 19.9895 225.734 20.133 225.946L27.5806 236.949C27.8102 237.289 28.0957 237.566 28.4115 237.797C36.1991 245.577 57.6674 241.301 78.0361 227.515C98.4049 213.729 110.358 195.396 106.024 185.266C105.927 184.887 105.776 184.519 105.546 184.18L98.0985 173.176Z" stroke="#1D1D1D" stroke-width="0.33625" stroke-miterlimit="10"/>
<path d="M69.1812 213.448C88.1108 200.636 98.9889 183.649 93.478 175.507C87.9672 167.365 68.1543 171.151 49.2247 183.963C30.2952 196.775 19.4171 213.762 24.928 221.904C30.4388 230.046 50.2517 226.26 69.1812 213.448Z" fill="#FCEDB6" stroke="#F2D891" stroke-width="0.33625" stroke-miterlimit="10"/>
<path d="M67.5045 211.946C84.6906 200.314 94.8102 185.251 90.1074 178.303C85.4046 171.355 67.6601 175.152 50.4741 186.784C33.288 198.416 23.1684 213.479 27.8712 220.427C32.574 227.375 50.3185 223.578 67.5045 211.946Z" fill="#F2D891"/>
<g style="mix-blend-mode:multiply" opacity="0.5">
<path fill-rule="evenodd" clip-rule="evenodd" d="M90.8104 185.286C86.9495 191.879 79.5559 199.414 69.9769 205.897C52.7908 217.529 35.078 221.373 30.4143 214.483C29.1763 212.654 28.9822 210.252 29.6865 207.493C26.6204 212.729 25.7821 217.371 27.8464 220.421C32.5102 227.311 50.223 223.467 67.409 211.835C80.0331 203.291 88.8615 192.921 90.8104 185.286Z" fill="#E5C267"/>
</g>
<mask id="mask11_867_11977" style="mask-type:alpha" maskUnits="userSpaceOnUse" x="69" y="94" width="86" height="79">
<path d="M152.247 158.751C152.414 158.555 152.545 158.354 152.667 158.132C159.066 148.762 149.24 128.606 130.066 112.306C110.893 96.0053 89.4249 89.5431 81.1998 97.3744C81.0075 97.5226 80.8238 97.6917 80.6566 97.8883L71.9838 108.09C71.7163 108.404 71.524 108.756 71.3835 109.124C65.917 118.772 75.7155 138.336 94.4188 154.236C113.122 170.137 134.001 176.667 142.65 169.712C142.991 169.514 143.307 169.267 143.574 168.953L152.247 158.751Z" fill="#FFE790"/>
</mask>
<g mask="url(#mask11_867_11977)">
<path d="M152.247 158.751C152.414 158.555 152.545 158.354 152.667 158.132C159.066 148.762 149.24 128.606 130.066 112.306C110.893 96.0053 89.4249 89.5431 81.1998 97.3744C81.0075 97.5226 80.8238 97.6917 80.6566 97.8883L71.9838 108.09C71.7163 108.404 71.524 108.756 71.3835 109.124C65.917 118.772 75.7155 138.336 94.4188 154.236C113.122 170.137 134.001 176.667 142.65 169.712C142.991 169.514 143.307 169.267 143.574 168.953L152.247 158.751Z" fill="#FCEDB6"/>
<g style="mix-blend-mode:multiply">
<rect width="18.5185" height="47.344" transform="matrix(0.761018 0.648731 -0.648632 0.761102 114.593 134.525)" fill="#FCEDB6"/>
</g>
<g style="mix-blend-mode:multiply">
<rect width="5.29101" height="47.344" transform="matrix(-0.761018 -0.648731 -0.648632 0.761102 136.766 153.38)" fill="#FCEDB6"/>
</g>
<g style="mix-blend-mode:multiply">
<rect width="21.164" height="47.344" transform="matrix(0.761018 0.648731 -0.648632 0.761102 85.4004 91.2821)" fill="#FCEDB6"/>
</g>
<g style="mix-blend-mode:multiply">
<rect width="9.80238" height="47.344" transform="matrix(-0.761018 -0.648731 -0.648632 0.761102 93.001 97.7657)" fill="#F2D891"/>
</g>
</g>
<path d="M101.832 145.518C121.601 162.325 143.945 168.518 151.738 159.352C159.531 150.185 149.822 129.13 130.053 112.323C110.284 95.5159 87.9403 89.3222 80.1473 98.4888C72.3543 107.655 82.0629 128.711 101.832 145.518Z" fill="#FCEDB6" stroke="#1D1D1D" stroke-width="0.33625" stroke-miterlimit="10"/>
<path d="M152.125 158.933C152.291 158.737 152.42 158.538 152.541 158.318C158.882 149.012 149.088 128.628 129.877 112.297C110.667 95.965 89.108 89.6802 80.9374 97.4439C80.7462 97.5906 80.5637 97.7582 80.3978 97.9533L71.7917 108.076C71.5263 108.389 71.336 108.738 71.1975 109.104C65.7883 118.691 75.6588 138.229 94.3978 154.16C113.137 170.091 134.002 176.697 142.6 169.807C142.94 169.612 143.254 169.368 143.519 169.056L152.125 158.933Z" stroke="#1D1D1D" stroke-width="0.33625" stroke-miterlimit="10"/>
<path d="M105.569 141.862C122.984 156.667 142.264 162.597 148.632 155.106C155 147.616 146.045 129.541 128.63 114.736C111.215 99.9305 91.9347 94.0007 85.5666 101.491C79.1984 108.982 88.1537 127.056 105.569 141.862Z" fill="#FCEDB6" stroke="#F2D891" stroke-width="0.33625" stroke-miterlimit="10"/>
<path d="M106.562 139.847C122.373 153.289 139.596 159.004 145.03 152.611C150.465 146.219 142.053 130.14 126.242 116.699C110.431 103.257 93.2083 97.5422 87.7738 103.935C82.3394 110.327 90.7512 126.406 106.562 139.847Z" fill="#F2D891"/>
<g style="mix-blend-mode:multiply" opacity="0.5">
<path fill-rule="evenodd" clip-rule="evenodd" d="M138.499 155.17C131.112 153.218 121.87 148.112 113.055 140.618C97.2442 127.176 88.7957 111.141 94.185 104.802C95.6148 103.12 97.875 102.289 100.72 102.228C94.8565 100.678 90.1621 101.115 87.7774 103.92C82.3881 110.259 90.8366 126.295 106.648 139.736C118.264 149.612 130.622 155.34 138.499 155.17Z" fill="#E5C267"/>
</g>
</g>
<defs>
<clipPath id="clip0_867_11977">
<rect width="168.157" height="238.187" fill="white" transform="translate(0.895996 76.3385)"/>
</clipPath>
</defs>
</svg>
