<svg width="86" height="82" viewBox="0 0 86 82" fill="none" xmlns="http://www.w3.org/2000/svg">
<g style="mix-blend-mode:multiply">
<path d="M6.21777 74.0001C6.21777 74.4025 10.7819 76.4001 38.2178 76.4001C55.8909 76.4001 70.2178 75.3256 70.2178 74.0001C70.2178 72.6746 55.8909 71.6001 38.2178 71.6001C20.5447 71.6001 6.21777 72.6746 6.21777 74.0001Z" fill="#90B3A8"/>
</g>
<path d="M22.4754 46.1614L67.6394 55.4419C69.5173 55.8278 71.359 54.642 71.7838 52.7735L78.376 23.7731C78.8591 21.6476 77.5109 19.537 75.3783 19.0804L31.9662 9.78519C30.3084 9.43022 28.6692 10.4583 28.268 12.1046L20.6661 43.3064C20.3513 44.5984 21.1722 45.8936 22.4754 46.1614Z" fill="#A5D6BF" stroke="#1D1D1D" stroke-width="0.3"/>
<path d="M22.3509 44.3523L67.5769 54.1728C68.6193 54.3991 69.651 53.7495 69.8967 52.7121L77.1784 21.9645C77.4813 20.6854 76.6744 19.4069 75.3889 19.1292L31.2893 9.60006C29.6227 9.23994 27.9743 10.2786 27.581 11.9367L20.5639 41.5166C20.2607 42.7949 21.0663 44.0733 22.3509 44.3523Z" fill="#C1E5CB" stroke="#1D1D1D" stroke-width="0.3"/>
<path d="M25.3447 41.4156L65.1375 50.3142C65.962 50.4985 66.784 49.996 66.9952 49.1785L73.67 23.3428C73.8932 22.4792 73.3499 21.604 72.4766 21.4201L32.1045 12.9187C31.0678 12.7004 30.0456 13.3462 29.7982 14.3757L23.8687 39.0495C23.6134 40.1117 24.278 41.177 25.3447 41.4156Z" fill="#F5FCFA" stroke="#1D1D1D" stroke-width="0.3"/>
<path d="M68.1434 57.4653L68.0865 55.4658C68.0834 55.3592 68.0699 55.2531 68.0461 55.1491C67.9062 54.538 67.4277 54.0615 66.8158 53.9239L20.4846 43.5038C19.7395 43.3363 18.9589 43.4466 18.2896 43.8141L2.89141 52.268C2.5054 52.4799 2.27053 52.8899 2.28306 53.3299L2.38077 56.7607C2.39589 57.2916 2.7659 57.7463 3.28293 57.8692L50.9352 69.2022C51.7655 69.3996 52.6404 69.2499 53.3575 68.7875L66.9179 60.0448L67.0536 59.9284C67.7698 59.3136 68.1703 58.4086 68.1434 57.4653Z" fill="#A5D6BF" stroke="#1D1D1D" stroke-width="0.3"/>
<path d="M3.25611 53.8935L50.5688 65.1978C51.4016 65.3968 52.2796 65.2463 52.9984 64.7813L66.7404 55.8906C67.6124 55.3265 67.3759 53.9918 66.3631 53.761L20.7552 43.3678C19.8137 43.1533 18.8262 43.2941 17.9825 43.7631L3.00775 52.0875C2.22795 52.521 2.38818 53.6861 3.25611 53.8935Z" fill="#C1E5CB" stroke="#1D1D1D" stroke-width="0.3"/>
<path d="M55.4657 55.4738L59.8597 56.5454C59.9965 56.5788 60.1426 56.5601 60.2626 56.494L63.1681 54.8937C63.2934 54.8247 63.2648 54.6565 63.122 54.6219L58.6418 53.5391C58.4058 53.482 58.1538 53.5178 57.9508 53.6374L55.4032 55.1373C55.2524 55.226 55.2905 55.4311 55.4657 55.4738Z" fill="#76B899"/>
<path d="M49.1478 54.1052L53.5418 55.1768C53.6786 55.2102 53.8246 55.1916 53.9447 55.1254L56.8502 53.5251C56.9755 53.4561 56.9469 53.2879 56.8041 53.2533L52.3239 52.1705C52.0878 52.1134 51.8359 52.1493 51.6329 52.2688L49.0852 53.7687C48.9344 53.8575 48.9725 54.0625 49.1478 54.1052Z" fill="#76B899"/>
<path d="M42.848 52.7643L47.242 53.8359C47.3788 53.8692 47.5248 53.8506 47.6449 53.7845L50.5504 52.1842C50.6757 52.1152 50.6471 51.9469 50.5043 51.9124L46.0241 50.8295C45.7881 50.7725 45.5361 50.8083 45.3331 50.9278L42.7855 52.4277C42.6346 52.5165 42.6728 52.7215 42.848 52.7643Z" fill="#76B899"/>
<path d="M36.5479 51.4269L40.9419 52.4985C41.0787 52.5318 41.2248 52.5132 41.3448 52.4471L44.2504 50.8468C44.3756 50.7778 44.347 50.6095 44.2042 50.575L39.7241 49.4921C39.488 49.4351 39.2361 49.4709 39.033 49.5904L36.4854 51.0903C36.3346 51.1791 36.3727 51.3841 36.5479 51.4269Z" fill="#76B899"/>
<path d="M30.2482 50.0894L34.6423 51.161C34.779 51.1944 34.9251 51.1758 35.0451 51.1097L37.9507 49.5093C38.0759 49.4404 38.0473 49.2721 37.9045 49.2376L33.4244 48.1547C33.1883 48.0976 32.9364 48.1335 32.7334 48.253L30.1857 49.7529C30.0349 49.8417 30.073 50.0467 30.2482 50.0894Z" fill="#76B899"/>
<path d="M23.5273 48.7428L27.9213 49.8144C28.0581 49.8478 28.2042 49.8292 28.3242 49.763L31.2297 48.1627C31.355 48.0937 31.3264 47.9255 31.1836 47.8909L26.7034 46.8081C26.4674 46.751 26.2154 46.7869 26.0124 46.9064L23.4648 48.4063C23.3139 48.495 23.3521 48.7001 23.5273 48.7428Z" fill="#76B899"/>
<path d="M16.8062 47.4028L21.2002 48.4744C21.337 48.5077 21.483 48.4891 21.6031 48.423L24.5086 46.8227C24.6339 46.7537 24.6053 46.5854 24.4625 46.5509L19.9823 45.468C19.7462 45.411 19.4943 45.4468 19.2913 45.5663L16.7436 47.0662C16.5928 47.155 16.6309 47.36 16.8062 47.4028Z" fill="#76B899"/>
<path d="M50.9077 58.129L55.3017 59.2006C55.4385 59.234 55.5845 59.2153 55.7046 59.1492L58.6101 57.5489C58.7354 57.4799 58.7068 57.3117 58.564 57.2771L54.0838 56.1943C53.8478 56.1372 53.5958 56.173 53.3928 56.2926L50.8451 57.7925C50.6943 57.8812 50.7324 58.0863 50.9077 58.129Z" fill="#76B899"/>
<path d="M44.5898 56.7604L48.9838 57.832C49.1206 57.8654 49.2666 57.8468 49.3867 57.7806L52.2922 56.1803C52.4174 56.1113 52.3889 55.9431 52.2461 55.9085L47.7659 54.8257C47.5298 54.7686 47.2779 54.8045 47.0749 54.924L44.5272 56.4239C44.3764 56.5126 44.4145 56.7177 44.5898 56.7604Z" fill="#76B899"/>
<path d="M38.29 55.4195L42.684 56.4911C42.8208 56.5244 42.9668 56.5058 43.0869 56.4397L45.9924 54.8394C46.1177 54.7704 46.0891 54.6021 45.9463 54.5676L41.4661 53.4847C41.23 53.4277 40.9781 53.4635 40.7751 53.583L38.2274 55.0829C38.0766 55.1717 38.1147 55.3767 38.29 55.4195Z" fill="#76B899"/>
<path d="M31.9903 54.0821L36.3843 55.1537C36.5211 55.187 36.6671 55.1684 36.7872 55.1023L39.6927 53.502C39.818 53.433 39.7894 53.2647 39.6466 53.2302L35.1664 52.1473C34.9303 52.0903 34.6784 52.1261 34.4754 52.2456L31.9277 53.7455C31.7769 53.8343 31.815 54.0393 31.9903 54.0821Z" fill="#76B899"/>
<path d="M25.6906 52.7446L30.0846 53.8162C30.2214 53.8496 30.3674 53.831 30.4875 53.7649L33.393 52.1645C33.5183 52.0956 33.4897 51.9273 33.3469 51.8928L28.8667 50.8099C28.6307 50.7528 28.3787 50.7887 28.1757 50.9082L25.628 52.4081C25.4772 52.4969 25.5154 52.7019 25.6906 52.7446Z" fill="#76B899"/>
<path d="M18.9693 51.398L23.3633 52.4696C23.5001 52.503 23.6461 52.4843 23.7662 52.4182L26.6717 50.8179C26.797 50.7489 26.7684 50.5807 26.6256 50.5461L22.1454 49.4633C21.9093 49.4062 21.6574 49.4421 21.4544 49.5616L18.9067 51.0615C18.7559 51.1502 18.794 51.3553 18.9693 51.398Z" fill="#76B899"/>
<path d="M12.2482 50.058L16.6422 51.1296C16.779 51.1629 16.925 51.1443 17.045 51.0782L19.9506 49.4779C20.0758 49.4089 20.0473 49.2406 19.9045 49.2061L15.4243 48.1232C15.1882 48.0662 14.9363 48.102 14.7333 48.2215L12.1856 49.7214C12.0348 49.8102 12.0729 50.0152 12.2482 50.058Z" fill="#76B899"/>
<path d="M45.9293 60.7961L50.3233 61.8677C50.4601 61.9011 50.6061 61.8824 50.7261 61.8163L53.6317 60.216C53.7569 60.147 53.7284 59.9787 53.5856 59.9442L49.1054 58.8614C48.8693 58.8043 48.6174 58.8401 48.4144 58.9597L45.8667 60.4596C45.7159 60.5483 45.754 60.7534 45.9293 60.7961Z" fill="#76B899"/>
<path d="M39.6113 59.4275L44.0054 60.4991C44.1421 60.5325 44.2882 60.5139 44.4082 60.4477L47.3138 58.8474C47.439 58.7784 47.4104 58.6102 47.2676 58.5756L42.7875 57.4928C42.5514 57.4357 42.2995 57.4716 42.0965 57.5911L39.5488 59.091C39.398 59.1797 39.4361 59.3848 39.6113 59.4275Z" fill="#76B899"/>
<path d="M33.3116 58.0866L37.7056 59.1582C37.8424 59.1915 37.9884 59.1729 38.1084 59.1068L41.014 57.5065C41.1392 57.4375 41.1107 57.2692 40.9678 57.2347L36.4877 56.1518C36.2516 56.0948 35.9997 56.1306 35.7967 56.2501L33.249 57.75C33.0982 57.8388 33.1363 58.0438 33.3116 58.0866Z" fill="#76B899"/>
<path d="M27.0119 56.7492L31.4059 57.8208C31.5427 57.8541 31.6887 57.8355 31.8087 57.7694L34.7143 56.1691C34.8395 56.1001 34.811 55.9318 34.6682 55.8973L30.188 54.8144C29.9519 54.7574 29.7 54.7932 29.497 54.9127L26.9493 56.4126C26.7985 56.5014 26.8366 56.7064 27.0119 56.7492Z" fill="#76B899"/>
<path d="M20.7122 55.4117L25.1062 56.4833C25.243 56.5167 25.389 56.4981 25.509 56.4319L28.4146 54.8316C28.5398 54.7626 28.5113 54.5944 28.3685 54.5599L23.8883 53.477C23.6522 53.4199 23.4003 53.4558 23.1973 53.5753L20.6496 55.0752C20.4988 55.164 20.5369 55.369 20.7122 55.4117Z" fill="#76B899"/>
<path d="M13.9909 54.0651L18.3849 55.1367C18.5217 55.1701 18.6677 55.1514 18.7877 55.0853L21.6933 53.485C21.8185 53.416 21.79 53.2478 21.6472 53.2132L17.167 52.1304C16.9309 52.0733 16.679 52.1091 16.476 52.2287L13.9283 53.7286C13.7775 53.8173 13.8156 54.0224 13.9909 54.0651Z" fill="#76B899"/>
<path d="M7.26974 52.7251L11.6638 53.7967C11.8005 53.83 11.9466 53.8114 12.0666 53.7453L14.9722 52.145C15.0974 52.076 15.0688 51.9077 14.926 51.8732L10.4459 50.7903C10.2098 50.7333 9.95787 50.7691 9.75485 50.8886L7.20719 52.3885C7.05637 52.4773 7.09448 52.6823 7.26974 52.7251Z" fill="#76B899"/>
<g filter="url(#filter0_f_83_6735)">
<path d="M25.3447 41.4234L65.1375 50.322C65.962 50.5063 66.784 50.0038 66.9952 49.1863L73.67 23.3506C73.8932 22.487 73.3499 21.6118 72.4766 21.4279L32.1045 12.9265C31.0678 12.7082 30.0456 13.354 29.7982 14.3835L23.8687 39.0573C23.6134 40.1195 24.278 41.1849 25.3447 41.4234Z" fill="white"/>
</g>
<ellipse cx="6.00164" cy="6.62188" rx="6.00164" ry="6.62188" transform="matrix(0.975438 0.220276 -0.220418 0.975406 42.9745 23.3829)" fill="#76B899"/>
<path d="M50.2189 31.7772C50.6048 31.62 50.6737 31.1029 50.3424 30.8501L46.724 28.0892C46.4112 27.8506 45.9565 28.0168 45.8714 28.4008L44.8386 33.0564C44.7446 33.4806 45.1654 33.8359 45.5677 33.672L50.2189 31.7772Z" fill="white"/>
<defs>
<filter id="filter0_f_83_6735" x="11.8141" y="0.884155" width="73.9061" height="61.4758" filterUnits="userSpaceOnUse" color-interpolation-filters="sRGB">
<feFlood flood-opacity="0" result="BackgroundImageFix"/>
<feBlend mode="normal" in="SourceGraphic" in2="BackgroundImageFix" result="shape"/>
<feGaussianBlur stdDeviation="6" result="effect1_foregroundBlur_83_6735"/>
</filter>
</defs>
</svg>
