<svg width="80" height="80" viewBox="0 0 80 80" fill="none" xmlns="http://www.w3.org/2000/svg">
<g style="mix-blend-mode:multiply">
<path d="M64.7966 67.0239C64.7966 68.1042 51.7451 68.9775 35.6458 68.9775C19.5464 68.9775 5 68.1042 5 67.0239C5 65.9436 19.5464 65.0703 35.6458 65.0703C51.7451 65.0703 64.7966 65.9455 64.7966 67.0239Z" fill="#90B3A8"/>
</g>
<mask id="path-2-inside-1_66_3238" fill="white">
<path fill-rule="evenodd" clip-rule="evenodd" d="M60.9358 30.4244C60.9358 22.854 55.5788 16.4445 48.3172 14.97L7.76417 15.7185C13.6931 18.018 17.8282 23.7732 17.8282 30.4244V52.3111C17.8282 60.6675 23.8122 67.7183 31.8636 69.2163L72.2411 68.471C65.6036 66.0536 60.9358 59.6916 60.9358 52.3111V30.4244Z"/>
</mask>
<path fill-rule="evenodd" clip-rule="evenodd" d="M60.9358 30.4244C60.9358 22.854 55.5788 16.4445 48.3172 14.97L7.76417 15.7185C13.6931 18.018 17.8282 23.7732 17.8282 30.4244V52.3111C17.8282 60.6675 23.8122 67.7183 31.8636 69.2163L72.2411 68.471C65.6036 66.0536 60.9358 59.6916 60.9358 52.3111V30.4244Z" fill="#F2D891"/>
<path d="M48.3172 14.97L48.3117 14.67L48.3446 14.6694L48.3769 14.676L48.3172 14.97ZM7.76417 15.7185L7.65569 15.9982L7.75863 15.4186L7.76417 15.7185ZM31.8636 69.2163L31.8692 69.5163L31.8387 69.5168L31.8088 69.5113L31.8636 69.2163ZM72.2411 68.471L72.3438 68.1891L72.2466 68.771L72.2411 68.471ZM48.3769 14.676C55.7769 16.1786 61.2358 22.7099 61.2358 30.4244H60.6358C60.6358 22.9982 55.3807 16.7104 48.2575 15.264L48.3769 14.676ZM7.75863 15.4186L48.3117 14.67L48.3228 15.2699L7.76971 16.0185L7.75863 15.4186ZM17.5282 30.4244C17.5282 23.9 13.472 18.254 7.65569 15.9982L7.87264 15.4388C13.9142 17.7819 18.1282 23.6463 18.1282 30.4244H17.5282ZM17.5282 52.3111V30.4244H18.1282V52.3111H17.5282ZM31.8088 69.5113C23.6166 67.987 17.5282 60.8134 17.5282 52.3111H18.1282C18.1282 60.5216 24.0078 67.4495 31.9185 68.9214L31.8088 69.5113ZM72.2466 68.771L31.8692 69.5163L31.8581 68.9164L72.2356 68.1711L72.2466 68.771ZM61.2358 52.3111C61.2358 59.5625 65.822 65.8138 72.3438 68.1891L72.1384 68.7529C65.3853 66.2933 60.6358 59.8206 60.6358 52.3111H61.2358ZM61.2358 30.4244V52.3111H60.6358V30.4244H61.2358Z" fill="#1D1D1D" mask="url(#path-2-inside-1_66_3238)"/>
<path d="M43.2618 52.7266L35.2157 52.8385" stroke="#1D1D1D" stroke-width="0.3"/>
<path d="M43.2012 48.0312L35.1552 48.1432" stroke="#1D1D1D" stroke-width="0.3"/>
<path d="M43.1524 43.7422L35.1064 43.8541" stroke="#1D1D1D" stroke-width="0.3"/>
<path d="M43.0958 39.4766L35.0497 39.5885" stroke="#1D1D1D" stroke-width="0.3"/>
<path d="M55.1133 35.0312L47.0673 35.1432" stroke="#1D1D1D" stroke-width="0.3"/>
<path d="M55.0645 31.1797L47.0185 31.2916" stroke="#1D1D1D" stroke-width="0.3"/>
<path d="M55.0098 26.9062L46.9638 27.0182" stroke="#1D1D1D" stroke-width="0.3"/>
<path d="M43.045 35.1953L34.9989 35.3072" stroke="#1D1D1D" stroke-width="0.3"/>
<path d="M42.9981 31.3594L34.9521 31.4713" stroke="#1D1D1D" stroke-width="0.3"/>
<path d="M42.9395 27.0781L34.8935 27.1901" stroke="#1D1D1D" stroke-width="0.3"/>
<path d="M32.2949 49.0391L24.2489 49.151" stroke="#1D1D1D" stroke-width="0.3"/>
<path d="M32.3496 53.3125L24.3036 53.4244" stroke="#1D1D1D" stroke-width="0.3"/>
<path d="M37.5879 58.7969L23.7947 58.9887" stroke="#1D1D1D" stroke-width="0.3"/>
<path d="M32.2402 44.7578L24.1942 44.8697" stroke="#1D1D1D" stroke-width="0.3"/>
<path d="M53.0235 22.2969L34.6325 22.5527" stroke="#1D1D1D" stroke-width="0.3"/>
<path d="M45.7149 18.625L34.4206 18.7821" stroke="#1D1D1D" stroke-width="0.3"/>
<path d="M31.3906 22.6016L23.3446 22.7135" stroke="#1D1D1D" stroke-width="0.3"/>
<path d="M30.5625 18.8438L20.2176 18.9877" stroke="#1D1D1D" stroke-width="0.3"/>
<path d="M47.3594 58.6562L39.3134 58.7682" stroke="#1D1D1D" stroke-width="0.3"/>
<path d="M57.7071 58.5234L49.661 58.6354" stroke="#1D1D1D" stroke-width="0.3"/>
<path d="M49.7208 63.7656L31.3298 64.0215" stroke="#1D1D1D" stroke-width="0.3"/>
<path d="M60.0704 63.6172L52.0243 63.7291" stroke="#1D1D1D" stroke-width="0.3"/>
<rect x="55.0356" y="53.8971" width="9.47104" height="14.2395" rx="1.85" transform="rotate(180 55.0356 53.8971)" fill="#374941" stroke="#1D1D1D" stroke-width="0.3"/>
<rect x="0.15" y="-0.15" width="7.74674" height="14.2395" rx="1.85" transform="matrix(1 0 0 -1 24.1485 40.4893)" fill="#374941" stroke="#1D1D1D" stroke-width="0.3"/>
<mask id="path-28-inside-2_66_3238" fill="white">
<path fill-rule="evenodd" clip-rule="evenodd" d="M62.8186 28.4325C62.8186 20.8621 57.4616 14.4525 50.2 12.978L9.64698 13.7266C15.5759 16.026 19.7111 21.7812 19.7111 28.4324V50.3191C19.7111 58.6755 25.6949 65.7262 33.7462 67.2244L74.1238 66.479C67.4864 64.0616 62.8186 57.6996 62.8186 50.3192V28.4325Z"/>
</mask>
<path fill-rule="evenodd" clip-rule="evenodd" d="M62.8186 28.4325C62.8186 20.8621 57.4616 14.4525 50.2 12.978L9.64698 13.7266C15.5759 16.026 19.7111 21.7812 19.7111 28.4324V50.3191C19.7111 58.6755 25.6949 65.7262 33.7462 67.2244L74.1238 66.479C67.4864 64.0616 62.8186 57.6996 62.8186 50.3192V28.4325Z" fill="#F2D891"/>
<path d="M50.2 12.978L50.1945 12.6781L50.2274 12.6775L50.2597 12.684L50.2 12.978ZM9.64698 13.7266L9.53851 14.0063L9.64144 13.4266L9.64698 13.7266ZM33.7462 67.2244L33.7517 67.5243L33.7213 67.5249L33.6913 67.5193L33.7462 67.2244ZM74.1238 66.479L74.2264 66.1972L74.1293 66.779L74.1238 66.479ZM50.2597 12.684C57.6597 14.1866 63.1186 20.7179 63.1186 28.4325H62.5186C62.5186 21.0063 57.2636 14.7184 50.1403 13.272L50.2597 12.684ZM9.64144 13.4266L50.1945 12.6781L50.2055 13.278L9.65252 14.0265L9.64144 13.4266ZM19.4111 28.4324C19.4111 21.9081 15.3548 16.262 9.53851 14.0063L9.75546 13.4469C15.797 15.79 20.0111 21.6544 20.0111 28.4324H19.4111ZM19.4111 50.3191V28.4324H20.0111V50.3191H19.4111ZM33.6913 67.5193C25.4993 65.995 19.4111 58.8214 19.4111 50.3191H20.0111C20.0111 58.5295 25.8904 65.4574 33.8011 66.9294L33.6913 67.5193ZM74.1293 66.779L33.7517 67.5243L33.7407 66.9244L74.1182 66.1791L74.1293 66.779ZM63.1186 50.3192C63.1186 57.5705 67.7047 63.8218 74.2264 66.1972L74.0211 66.7609C67.2681 64.3013 62.5186 57.8287 62.5186 50.3192H63.1186ZM63.1186 28.4325V50.3192H62.5186V28.4325H63.1186Z" fill="#1D1D1D" mask="url(#path-28-inside-2_66_3238)"/>
<path d="M45.1426 50.7346L37.0965 50.8465" stroke="#1D1D1D" stroke-width="0.3"/>
<path d="M45.0879 46.0393L37.0418 46.1512" stroke="#1D1D1D" stroke-width="0.3"/>
<path d="M45.0332 41.7659L36.9872 41.8778" stroke="#1D1D1D" stroke-width="0.3"/>
<path d="M44.9805 37.4924L36.9344 37.6044" stroke="#1D1D1D" stroke-width="0.3"/>
<path d="M56.9961 33.0471L48.95 33.159" stroke="#1D1D1D" stroke-width="0.3"/>
<path d="M56.9473 29.1956L48.9012 29.3075" stroke="#1D1D1D" stroke-width="0.3"/>
<path d="M56.8945 24.9221L48.8485 25.034" stroke="#1D1D1D" stroke-width="0.3"/>
<path d="M44.9258 33.2112L36.8797 33.3231" stroke="#1D1D1D" stroke-width="0.3"/>
<path d="M44.8789 29.3674L36.8329 29.4794" stroke="#1D1D1D" stroke-width="0.3"/>
<path d="M44.8262 25.0862L36.7801 25.1981" stroke="#1D1D1D" stroke-width="0.3"/>
<path d="M34.1777 47.0471L26.1317 47.159" stroke="#1D1D1D" stroke-width="0.3"/>
<path d="M34.2285 51.3206L26.1825 51.4325" stroke="#1D1D1D" stroke-width="0.3"/>
<path d="M39.4727 56.8049L25.6794 56.9968" stroke="#1D1D1D" stroke-width="0.3"/>
<path d="M34.125 42.7737L26.079 42.8856" stroke="#1D1D1D" stroke-width="0.3"/>
<path d="M54.9004 20.3049L36.5094 20.5608" stroke="#1D1D1D" stroke-width="0.3"/>
<path d="M47.5957 16.6409L36.3014 16.798" stroke="#1D1D1D" stroke-width="0.3"/>
<path d="M33.2734 20.6174L25.2274 20.7294" stroke="#1D1D1D" stroke-width="0.3"/>
<path d="M32.4434 16.8518L22.0984 16.9957" stroke="#1D1D1D" stroke-width="0.3"/>
<path d="M49.2441 56.6721L41.1981 56.784" stroke="#1D1D1D" stroke-width="0.3"/>
<path d="M59.5879 56.5237L51.5418 56.6356" stroke="#1D1D1D" stroke-width="0.3"/>
<path d="M51.6074 61.7737L33.2165 62.0295" stroke="#1D1D1D" stroke-width="0.3"/>
<path d="M61.9492 61.6331L53.9032 61.745" stroke="#1D1D1D" stroke-width="0.3"/>
<rect x="56.9203" y="51.9049" width="9.47104" height="14.2395" rx="1.85" transform="rotate(180 56.9203 51.9049)" fill="#374941" stroke="#1D1D1D" stroke-width="0.3"/>
<rect x="0.15" y="-0.15" width="7.74674" height="14.2395" rx="1.85" transform="matrix(1 0 0 -1 26.0332 38.4971)" fill="#374941" stroke="#1D1D1D" stroke-width="0.3"/>
<mask id="path-54-inside-3_66_3238" fill="white">
<path fill-rule="evenodd" clip-rule="evenodd" d="M64.7014 26.4559C64.7014 18.8855 59.3443 12.4759 52.0826 11.0015L11.5297 11.75C17.4586 14.0494 21.5938 19.8046 21.5938 26.4559V48.3426C21.5938 56.6989 27.5777 63.7497 35.6291 65.2478L76.0066 64.5025C69.3692 62.0851 64.7014 55.7231 64.7014 48.3426V26.4559Z"/>
</mask>
<path fill-rule="evenodd" clip-rule="evenodd" d="M64.7014 26.4559C64.7014 18.8855 59.3443 12.4759 52.0826 11.0015L11.5297 11.75C17.4586 14.0494 21.5938 19.8046 21.5938 26.4559V48.3426C21.5938 56.6989 27.5777 63.7497 35.6291 65.2478L76.0066 64.5025C69.3692 62.0851 64.7014 55.7231 64.7014 48.3426V26.4559Z" fill="white"/>
<path d="M52.0826 11.0015L52.0771 10.7015L52.1101 10.7009L52.1423 10.7075L52.0826 11.0015ZM11.5297 11.75L11.4212 12.0297L11.5241 11.4501L11.5297 11.75ZM35.6291 65.2478L35.6346 65.5478L35.6041 65.5483L35.5742 65.5428L35.6291 65.2478ZM76.0066 64.5025L76.1093 64.2206L76.0121 64.8025L76.0066 64.5025ZM52.1423 10.7075C59.5424 12.21 65.0014 18.7414 65.0014 26.4559H64.4014C64.4014 19.0297 59.1463 12.7418 52.023 11.2955L52.1423 10.7075ZM11.5241 11.4501L52.0771 10.7015L52.0882 11.3014L11.5352 12.05L11.5241 11.4501ZM21.2938 26.4559C21.2938 19.9315 17.2376 14.2855 11.4212 12.0297L11.6382 11.4703C17.6797 13.8134 21.8938 19.6778 21.8938 26.4559H21.2938ZM21.2938 48.3426V26.4559H21.8938V48.3426H21.2938ZM35.5742 65.5428C27.3821 64.0185 21.2938 56.8449 21.2938 48.3426H21.8938C21.8938 56.553 27.7733 63.4809 35.6839 64.9529L35.5742 65.5428ZM76.0121 64.8025L35.6346 65.5478L35.6235 64.9479L76.0011 64.2026L76.0121 64.8025ZM65.0014 48.3426C65.0014 55.594 69.5875 61.8453 76.1093 64.2206L75.9039 64.7844C69.1509 62.3248 64.4014 55.8521 64.4014 48.3426H65.0014ZM65.0014 26.4559V48.3426H64.4014V26.4559H65.0014Z" fill="#1D1D1D" mask="url(#path-54-inside-3_66_3238)"/>
<path d="M57.7188 36.8674L39.6392 37.1233" stroke="#1D1D1D" stroke-width="0.3"/>
<path d="M36.4512 37.1643L28.5414 37.2762" stroke="#1D1D1D" stroke-width="0.3"/>
<path d="M40.7969 49.9768L27.2372 50.1687" stroke="#1D1D1D" stroke-width="0.3"/>
<path d="M35.1641 19.1331L26.1384 19.2608" stroke="#1D1D1D" stroke-width="0.3"/>
<path d="M50.3984 49.8362L42.4886 49.9481" stroke="#1D1D1D" stroke-width="0.3"/>
<path d="M60.5664 49.6956L52.6566 49.8075" stroke="#1D1D1D" stroke-width="0.3"/>
<path d="M40.7969 41.6565L27.2372 41.8484" stroke="#1D1D1D" stroke-width="0.3"/>
<path d="M50.3984 41.5159L42.4886 41.6278" stroke="#1D1D1D" stroke-width="0.3"/>
<path d="M60.5664 41.3752L52.6566 41.4872" stroke="#1D1D1D" stroke-width="0.3"/>
<path d="M40.7969 32.6331L27.2372 32.8249" stroke="#1D1D1D" stroke-width="0.3"/>
<path d="M50.3984 32.5002L42.4886 32.6122" stroke="#1D1D1D" stroke-width="0.3"/>
<path d="M60.5664 32.3596L52.6566 32.4715" stroke="#1D1D1D" stroke-width="0.3"/>
<path d="M40.7969 23.6174L27.2372 23.8093" stroke="#1D1D1D" stroke-width="0.3"/>
<path d="M50.3984 23.4924L42.4886 23.6044" stroke="#1D1D1D" stroke-width="0.3"/>
<path d="M60.5664 23.344L52.6566 23.4559" stroke="#1D1D1D" stroke-width="0.3"/>
<path d="M47.7897 58.1466C49.644 57.1866 53.045 55.1359 51.814 54.6134C50.2752 53.9602 48.7926 58.0924 51.4671 57.9477C53.6067 57.8319 54.6358 56.4253 55.3843 55.7094C53.7057 56.8441 53.4152 58.4179 57.4589 57.0707C60.7591 55.9712 61.4105 55.5675 61.9034 55.3567" stroke="#1D1D1D" stroke-width="0.3"/>
<path d="M57.7188 45.8752L39.6392 46.1311" stroke="#1D1D1D" stroke-width="0.3"/>
<path d="M36.4531 46.1877L28.5433 46.2997" stroke="#1D1D1D" stroke-width="0.3"/>
<path d="M39.6777 56.5862L31.7679 56.6981" stroke="#1D1D1D" stroke-width="0.3"/>
<path d="M57.7188 27.844L39.6392 28.0998" stroke="#1D1D1D" stroke-width="0.3"/>
<path d="M36.4531 28.1487L28.5433 28.2606" stroke="#1D1D1D" stroke-width="0.3"/>
</svg>
