<svg width="102" height="80" viewBox="0 0 102 80" fill="none" xmlns="http://www.w3.org/2000/svg">
<path d="M83.7283 68.6192C83.7283 73.8785 66.2918 78.1296 44.7834 78.1296C23.275 78.1296 3.84128 73.8785 3.84128 68.6192C3.84128 63.36 23.275 59.1089 44.7834 59.1089C66.2918 59.1089 83.7283 63.3695 83.7283 68.6192Z" fill="#293B35"/>
<path d="M83.088 58.9463C83.088 53.1687 70.1013 48.4849 54.0814 48.4849C38.0615 48.4849 25.0748 53.1687 25.0748 58.9463V66.5546C25.0748 72.3323 38.0615 77.016 54.0814 77.016C70.1013 77.016 83.088 72.3323 83.088 66.5546V58.9463Z" fill="#FAE3C3" stroke="#1D1D1D" stroke-linecap="round" stroke-linejoin="round"/>
<ellipse cx="54.0814" cy="58.9463" rx="29.0066" ry="10.4614" fill="white" stroke="#1D1D1D" stroke-linecap="round" stroke-linejoin="round"/>
<g style="mix-blend-mode:multiply">
<path d="M83.088 55.0471C83.088 49.8472 70.1013 45.6318 54.0814 45.6318C38.0615 45.6318 25.0748 49.8472 25.0748 55.0471V61.8946C25.0748 67.0945 38.0615 71.3098 54.0814 71.3098C70.1013 71.3098 83.088 67.0945 83.088 61.8946V55.0471Z" fill="#FAE3C3"/>
</g>
<path d="M76.4307 51.338C76.4307 45.5604 63.444 40.8766 47.4241 40.8766C31.4042 40.8766 18.4175 45.5604 18.4175 51.338V58.9463C18.4175 64.724 31.4042 69.4077 47.4241 69.4077C63.444 69.4077 76.4307 64.724 76.4307 58.9463V51.338Z" fill="#FAE3C3" stroke="#1D1D1D" stroke-linecap="round" stroke-linejoin="round"/>
<ellipse cx="47.4241" cy="51.338" rx="29.0066" ry="10.4614" fill="white" stroke="#1D1D1D" stroke-linecap="round" stroke-linejoin="round"/>
<g style="mix-blend-mode:multiply">
<path d="M76.4307 47.4388C76.4307 42.2389 63.444 38.0235 47.4241 38.0235C31.4042 38.0235 18.4175 42.2389 18.4175 47.4388V54.2863C18.4175 59.4862 31.4042 63.7015 47.4241 63.7015C63.444 63.7015 76.4307 59.4862 76.4307 54.2863V47.4388Z" fill="#FAE3C3"/>
</g>
<path d="M76.4307 43.7298C76.4307 37.9521 63.444 33.2684 47.4241 33.2684C31.4042 33.2684 18.4175 37.9521 18.4175 43.7298V51.3381C18.4175 57.1157 31.4042 61.7995 47.4241 61.7995C63.444 61.7995 76.4307 57.1157 76.4307 51.3381V43.7298Z" fill="#FAE3C3" stroke="#1D1D1D" stroke-linecap="round" stroke-linejoin="round"/>
<ellipse cx="47.4241" cy="43.7298" rx="29.0066" ry="10.4614" fill="white" stroke="#1D1D1D" stroke-linecap="round" stroke-linejoin="round"/>
<g style="mix-blend-mode:multiply">
<path d="M76.4307 39.8305C76.4307 34.6306 63.444 30.4153 47.4241 30.4153C31.4042 30.4153 18.4175 34.6306 18.4175 39.8305V46.678C18.4175 51.8779 31.4042 56.0932 47.4241 56.0932C63.444 56.0932 76.4307 51.8779 76.4307 46.678V39.8305Z" fill="#FAE3C3"/>
</g>
<path d="M76.4307 36.1215C76.4307 30.3438 63.444 25.6601 47.4241 25.6601C31.4042 25.6601 18.4175 30.3438 18.4175 36.1215V43.7298C18.4175 49.5074 31.4042 54.1912 47.4241 54.1912C63.444 54.1912 76.4307 49.5074 76.4307 43.7298V36.1215Z" fill="#FAE3C3" stroke="#1D1D1D" stroke-linecap="round" stroke-linejoin="round"/>
<g style="mix-blend-mode:multiply">
<path d="M76.4307 33.4269C76.4307 28.6121 63.444 24.709 47.4241 24.709C31.4042 24.709 18.4175 28.6121 18.4175 33.4269V39.7671C18.4175 44.5818 31.4042 48.4849 47.4241 48.4849C63.444 48.4849 76.4307 44.5818 76.4307 39.7671V33.4269Z" fill="#FAE3C3"/>
</g>
<ellipse cx="47.4241" cy="36.1215" rx="29.0066" ry="10.4614" fill="white" stroke="#1D1D1D" stroke-linecap="round" stroke-linejoin="round"/>
<path d="M83.088 28.5132C83.088 22.7355 70.1013 18.0518 54.0814 18.0518C38.0615 18.0518 25.0748 22.7355 25.0748 28.5132V36.1215C25.0748 41.8991 38.0615 46.5829 54.0814 46.5829C70.1013 46.5829 83.088 41.8991 83.088 36.1215V28.5132Z" fill="#FAE3C3" stroke="#1D1D1D" stroke-linecap="round" stroke-linejoin="round"/>
<g style="mix-blend-mode:multiply">
<path d="M76.4307 29.1789C76.4307 25.1345 64.9343 21.8559 50.7527 21.8559C36.5712 21.8559 25.0748 25.1345 25.0748 29.1789V34.5047C25.0748 38.5491 36.5712 41.8277 50.7527 41.8277C64.9343 41.8277 76.4307 38.5491 76.4307 34.5047V29.1789Z" fill="#FAE3C3"/>
</g>
<ellipse cx="54.0814" cy="28.5132" rx="29.0066" ry="10.4614" fill="white" stroke="#1D1D1D" stroke-linecap="round" stroke-linejoin="round"/>
<path d="M76.4307 20.9049C76.4307 15.1272 63.444 10.4435 47.4241 10.4435C31.4042 10.4435 18.4175 15.1272 18.4175 20.9049V28.5132C18.4175 34.2908 31.4042 38.9746 47.4241 38.9746C63.444 38.9746 76.4307 34.2908 76.4307 28.5132V20.9049Z" fill="#FAE3C3" stroke="#1D1D1D" stroke-linecap="round" stroke-linejoin="round"/>
<ellipse cx="47.4241" cy="20.9049" rx="29.0066" ry="10.4614" fill="white" stroke="#1D1D1D" stroke-linecap="round" stroke-linejoin="round"/>
<path d="M72.7417 3.26061C73.3758 3.06069 73.8656 3.82904 73.4166 4.31943L72.1907 5.65863C71.8623 6.01726 71.7522 6.52474 71.9024 6.98718L72.4513 8.67735C72.6585 9.31532 71.8809 9.81093 71.3901 9.35377L70.0897 8.14264C69.7339 7.81126 69.2274 7.69681 68.7636 7.84302L67.0321 8.38899C66.398 8.58892 65.9082 7.82056 66.3572 7.33017L67.5831 5.99098C67.9114 5.63234 68.0215 5.12487 67.8714 4.66242L67.3225 2.97226C67.1153 2.33428 67.8928 1.83867 68.3837 2.29583L69.6841 3.50697C70.0399 3.83834 70.5464 3.95279 71.0102 3.80658L72.7417 3.26061Z" fill="#FAE3C3" stroke="#1D1D1D" stroke-width="0.7"/>
<path d="M72.7868 3.40367C73.2746 3.24988 73.6513 3.84092 73.306 4.21815L72.08 5.55734C71.7152 5.95582 71.5929 6.51969 71.7598 7.03351L72.3086 8.72368C72.468 9.21443 71.8699 9.59566 71.4923 9.244L70.1919 8.03287C69.7966 7.66467 69.2338 7.53751 68.7185 7.69997L66.9869 8.24594C66.4992 8.39972 66.1225 7.80868 66.4678 7.43146L67.6938 6.09226C68.0586 5.69378 68.1809 5.12992 68.014 4.61609L67.4652 2.92593C67.3058 2.43518 67.9039 2.05394 68.2815 2.4056L69.5819 3.61674C69.9772 3.98493 70.54 4.11209 71.0553 3.94964L72.7868 3.40367Z" fill="#FAE3C3" stroke="#1D1D1D"/>
<path d="M83.5125 54.296C83.948 54.5642 83.7476 55.2358 83.2364 55.2215L79.8669 55.1275C79.3268 55.1125 78.8204 55.3889 78.5411 55.8514L76.8059 58.724C76.5391 59.1656 75.8594 58.9629 75.8782 58.4472L76.0006 55.0934C76.0203 54.5536 75.7482 54.0448 75.2881 53.7615L72.4179 51.994C71.9824 51.7258 72.1828 51.0541 72.694 51.0684L76.0636 51.1624C76.6036 51.1775 77.11 50.901 77.3893 50.4386L79.1245 47.566C79.3913 47.1243 80.071 47.3271 80.0522 47.8427L79.9298 51.1965C79.9101 51.7364 80.1823 52.2452 80.6423 52.5284L83.5125 54.296Z" fill="#FAE3C3" stroke="#1D1D1D"/>
<path d="M35.9023 7.78979C36.4127 7.82294 36.55 8.51025 36.0916 8.73694L31.9842 10.7679C31.4999 11.0074 31.1818 11.4887 31.1514 12.0281L30.8935 16.6065C30.8644 17.1217 30.1689 17.2606 29.9442 16.7962L27.9469 12.6683C27.7116 12.182 27.233 11.8598 26.6939 11.8248L22.1215 11.5278C21.6111 11.4946 21.4738 10.8073 21.9322 10.5806L26.0396 8.54967C26.5239 8.31021 26.842 7.82884 26.8724 7.28945L27.1303 2.71103C27.1594 2.19587 27.8549 2.05692 28.0796 2.52139L30.0769 6.64928C30.3122 7.13559 30.7908 7.4578 31.3299 7.49281L35.9023 7.78979Z" fill="#FAE3C3" stroke="#1D1D1D"/>
</svg>
