<svg width="241" height="175" viewBox="0 0 241 175" fill="none" xmlns="http://www.w3.org/2000/svg">
<path d="M124.53 126.14C125.144 125.971 125.781 125.901 126.416 125.931L233.584 129.044C234.023 129.064 233.99 133.416 233.584 133.585L183.331 152.816C180.853 153.764 178.185 154.106 175.549 153.814L75.3086 143.73C73.0057 143.475 72.7832 140.212 75.0301 139.647L124.53 126.14Z" fill="#EDA56D"/>
<path d="M146.649 115.846L93.4732 125.588C92.3723 125.79 91.5728 126.749 91.5728 127.868V136.233C91.5728 137.415 92.4622 138.408 93.6372 138.537L187.886 148.917C188.241 148.956 188.601 148.912 188.938 148.789L231.819 133.066C232.676 132.752 233.269 131.964 233.334 131.054L233.913 122.95C234.005 121.659 233.023 120.543 231.731 120.47L148.296 115.743C147.745 115.712 147.192 115.747 146.649 115.846Z" fill="#FCF1D4" stroke="#1D1D1D" stroke-width="0.289773"/>
<mask id="mask0_867_11963" style="mask-type:alpha" maskUnits="userSpaceOnUse" x="91" y="120" width="144" height="31">
<path d="M188.332 133.545L93.1761 126.096C92.1959 126.019 91.3584 126.796 91.3584 127.783V138.599C91.3584 139.468 92.0132 140.195 92.874 140.283L188.253 150.032C188.509 150.058 188.768 150.026 189.009 149.936L233.19 133.555C233.853 133.31 234.292 132.676 234.292 131.967V122.294C234.292 121.164 233.209 120.351 232.128 120.671L188.941 133.481C188.743 133.54 188.537 133.561 188.332 133.545Z" fill="#FAE3C3" stroke="black" stroke-width="0.289773"/>
</mask>
<g mask="url(#mask0_867_11963)">
<path d="M188.332 133.545L93.1761 126.096C92.1959 126.019 91.3584 126.796 91.3584 127.783V138.599C91.3584 139.468 92.0132 140.195 92.874 140.283L188.253 150.032C188.509 150.058 188.768 150.026 189.009 149.936L233.19 133.555C233.853 133.31 234.292 132.676 234.292 131.967V122.294C234.292 121.164 233.209 120.351 232.128 120.671L188.941 133.481C188.743 133.54 188.537 133.561 188.332 133.545Z" fill="#FCF1D4"/>
<g style="mix-blend-mode:multiply" opacity="0.35">
<path d="M185.252 138.266L87.6848 129.263C86.6611 129.169 85.7717 129.929 85.7546 130.914L85.5662 141.707C85.551 142.573 86.2232 143.311 87.1218 143.414L182.445 154.394C184.726 154.656 186.74 152.902 186.791 150.606L187.023 140.252C187.046 139.228 186.273 138.361 185.252 138.266Z" fill="#F2D891"/>
</g>
<g style="mix-blend-mode:multiply" opacity="0.35">
<path d="M284.232 107.016L192.241 137.561C191.002 137.973 190.185 139.156 190.24 140.46V149.126C190.293 150.394 191.886 151.275 193.103 150.915L288.099 122.87C290.322 122.213 291.486 119.774 290.597 117.633L286.648 108.119C286.256 107.175 285.202 106.694 284.232 107.016Z" fill="#F2D891"/>
</g>
</g>
<path d="M188.332 133.545L93.1761 126.096C92.1959 126.019 91.3584 126.796 91.3584 127.783V138.599C91.3584 139.468 92.0132 140.195 92.874 140.283L188.253 150.032C188.509 150.058 188.768 150.026 189.009 149.936L233.19 133.555C233.853 133.31 234.292 132.676 234.292 131.967V122.294C234.292 121.164 233.209 120.351 232.128 120.671L188.941 133.481C188.743 133.54 188.537 133.561 188.332 133.545Z" stroke="#1D1D1D" stroke-width="0.289773"/>
<path d="M94.1318 50.0334V58.9238C94.1318 59.6307 94.7049 60.2025 95.4118 60.2025H184.372C185.079 60.2025 185.652 59.6294 185.652 58.9225V49.2619C185.652 48.1027 185.064 47.0227 184.09 46.3941L143.534 20.2173C142.696 19.6764 141.788 19.2969 140.852 19.0778C138.534 18.5356 136.044 18.9774 134.02 20.3914L95.5905 47.2369C94.6764 47.8754 94.1318 48.9184 94.1318 50.0334Z" fill="#FCF1D4"/>
<path d="M184.372 60.2025H95.4118C94.7049 60.2025 94.1318 59.6307 94.1318 58.9238V50.0334C94.1318 48.9184 94.6764 47.8754 95.5905 47.2369L134.02 20.3914C136.044 18.9774 138.534 18.5356 140.852 19.0778M184.372 60.2025C185.079 60.2025 185.652 59.6294 185.652 58.9225V49.2619C185.652 48.1027 185.064 47.0227 184.09 46.3941L143.534 20.2173C142.696 19.6764 141.788 19.2969 140.852 19.0778M184.372 60.2025L231.306 61.2704V52.7888C231.306 50.144 229.806 47.7282 227.435 46.5554L190.772 28.4169L140.852 19.0778" stroke="#1D1D1D" stroke-width="0.289773"/>
<mask id="mask1_867_11963" style="mask-type:alpha" maskUnits="userSpaceOnUse" x="94" y="18" width="92" height="43">
<path d="M94.1318 50.0295V58.9199C94.1318 59.6268 94.7049 60.1986 95.4118 60.1986H184.372C185.079 60.1986 185.652 59.6255 185.652 58.9186V49.258C185.652 48.0988 185.064 47.0188 184.09 46.3902L143.534 20.2134C142.696 19.6725 141.788 19.293 140.852 19.0739C138.534 18.5317 136.044 18.9735 134.02 20.3875L95.5905 47.233C94.6764 47.8715 94.1318 48.9145 94.1318 50.0295Z" fill="#FAE3C3"/>
</mask>
<g mask="url(#mask1_867_11963)">
<path d="M94.1318 50.0295V58.9199C94.1318 59.6268 94.7049 60.1986 95.4118 60.1986H184.372C185.079 60.1986 185.652 59.6255 185.652 58.9186V49.258C185.652 48.0988 185.064 47.0188 184.09 46.3902L143.534 20.2134C142.696 19.6725 141.788 19.293 140.852 19.0739C138.534 18.5317 136.044 18.9735 134.02 20.3875L95.5905 47.233C94.6764 47.8715 94.1318 48.9145 94.1318 50.0295Z" fill="#FCF1D4"/>
<g style="mix-blend-mode:multiply">
<path d="M99.2212 50.4084V59.4027C99.2212 60.0279 99.728 59.4027 100.353 59.4027H179.034C179.66 59.4027 180.166 60.0279 180.166 59.4027V49.7261C180.166 48.7008 179.646 47.7456 178.785 47.1896L142.915 24.0373C142.174 23.5589 141.371 23.2232 140.543 23.0295C138.493 22.5499 136.29 22.9406 134.5 24.1912L100.511 47.935C99.7028 48.4998 99.2212 49.4223 99.2212 50.4084Z" fill="#FCF1D4"/>
</g>
</g>
<path d="M94.1318 50.0295V58.9199C94.1318 59.6268 94.7049 60.1986 95.4118 60.1986H184.372C185.079 60.1986 185.652 59.6255 185.652 58.9186V49.258C185.652 48.0988 185.064 47.0188 184.09 46.3902L143.534 20.2134C142.696 19.6725 141.788 19.293 140.852 19.0739C138.534 18.5317 136.044 18.9735 134.02 20.3875L95.5905 47.233C94.6764 47.8715 94.1318 48.9145 94.1318 50.0295Z" stroke="#1D1D1D" stroke-width="0.289773"/>
<mask id="mask2_867_11963" style="mask-type:alpha" maskUnits="userSpaceOnUse" x="134" y="18" width="98" height="44">
<path d="M184.088 46.3902L143.533 20.2134C142.695 19.6725 141.786 19.293 140.85 19.0739L190.77 28.413L228.454 47.0566C230.2 47.92 231.304 49.6986 231.304 51.6457V61.2665L184.37 60.1986C185.077 60.1986 185.65 59.6255 185.65 58.9186V49.258C185.65 48.0988 185.062 47.0188 184.088 46.3902Z" fill="#FAD8AC"/>
</mask>
<g mask="url(#mask2_867_11963)">
<path d="M184.088 46.3902L143.533 20.2134C142.695 19.6725 141.786 19.293 140.85 19.0739L190.77 28.413L228.454 47.0566C230.2 47.92 231.304 49.6986 231.304 51.6457V61.2665L184.37 60.1986C185.077 60.1986 185.65 59.6255 185.65 58.9186V49.258C185.65 48.0988 185.062 47.0188 184.088 46.3902Z" fill="#FCF1D4"/>
<path d="M134.018 20.3875C136.042 18.9735 138.532 18.5317 140.85 19.0739M140.85 19.0739C141.786 19.293 142.695 19.6725 143.533 20.2134L184.088 46.3902C185.062 47.0188 185.65 48.0988 185.65 49.258V58.9186C185.65 59.6255 185.077 60.1986 184.37 60.1986L231.304 61.2665V51.6457C231.304 49.6986 230.2 47.92 228.454 47.0566L190.77 28.413L140.85 19.0739Z" stroke="#1D1D1D" stroke-width="0.289773"/>
<g style="mix-blend-mode:multiply" opacity="0.3">
<rect x="167.294" y="48.4436" width="99.4748" height="15.6039" transform="rotate(1.96105 167.294 48.4436)" fill="#E5C267"/>
</g>
<rect opacity="0.15" width="99.4748" height="2.92573" transform="matrix(0.999414 0.03422 0.03422 -0.999414 166.319 47.9517)" fill="white"/>
<g style="mix-blend-mode:multiply" opacity="0.5">
<path fill-rule="evenodd" clip-rule="evenodd" d="M159.797 22.7373L191.573 42.9729C193.578 44.2497 194.792 46.462 194.792 48.839V60.5253L184.192 60.2841C184.899 60.2841 185.472 59.711 185.472 59.0041V49.3435C185.472 48.1842 184.884 47.1043 183.91 46.4756L143.354 20.2988C142.516 19.758 141.608 19.3784 140.672 19.1594L159.797 22.7373Z" fill="#FCF1D4"/>
</g>
</g>
<path d="M134.018 20.3875C136.042 18.9735 138.532 18.5317 140.85 19.0739M140.85 19.0739C141.786 19.293 142.695 19.6725 143.533 20.2134L184.088 46.3902C185.062 47.0188 185.65 48.0988 185.65 49.258V58.9186C185.65 59.6255 185.077 60.1986 184.37 60.1986L231.304 61.2665V51.6457C231.304 49.6986 230.2 47.92 228.454 47.0566L190.77 28.413L140.85 19.0739Z" stroke="#1D1D1D" stroke-width="0.289773"/>
<path d="M94.1318 50.0295V58.9199C94.1318 59.6268 94.7049 60.1986 95.4118 60.1986H184.372C185.079 60.1986 185.652 59.6255 185.652 58.9186V49.258C185.652 48.0988 185.064 47.0188 184.09 46.3902L143.534 20.2134C140.622 18.3335 136.862 18.4023 134.02 20.3875L95.5905 47.233C94.6764 47.8715 94.1318 48.9145 94.1318 50.0295Z" stroke="#1D1D1D" stroke-width="0.289773"/>
<path d="M101.17 51.7893V60.1979H177.971V51.1436C177.971 49.9925 177.391 48.9188 176.428 48.2882L142.235 25.8942C140.034 24.4525 137.174 24.5051 135.027 26.0268L102.61 49.0051C101.707 49.6451 101.17 50.6825 101.17 51.7893Z" fill="#FCF1D4" stroke="#1D1D1D" stroke-width="0.289773"/>
<g style="mix-blend-mode:multiply" opacity="0.5">
<path fill-rule="evenodd" clip-rule="evenodd" d="M171.145 60.1369H177.971V51.0826C177.971 49.9314 177.391 48.8578 176.428 48.2271L142.235 25.8332C140.034 24.3915 137.174 24.4441 135.028 25.9658L133.614 26.9679C134.24 27.1415 134.846 27.4125 135.409 27.7812L169.602 50.1752C170.565 50.8059 171.145 51.8795 171.145 53.0306V60.1369Z" fill="#FCF1D4"/>
</g>
<g style="mix-blend-mode:multiply" opacity="0.5">
<path fill-rule="evenodd" clip-rule="evenodd" d="M101.17 60.1369V51.7282C101.17 50.6215 101.707 49.5841 102.61 48.9441L135.027 25.9658C137.174 24.4441 140.034 24.3915 142.235 25.8332L142.546 26.037C140.683 25.4689 138.622 25.7729 136.978 26.9377L104.561 49.9161C103.658 50.5561 103.121 51.5935 103.121 52.7002V60.1369H101.17Z" fill="#FCF1D4"/>
</g>
<g style="mix-blend-mode:multiply" opacity="0.5">
<path fill-rule="evenodd" clip-rule="evenodd" d="M101.17 56.9719H177.971V60.137H101.17V56.9719Z" fill="#FCF1D4"/>
</g>
<path d="M216.373 64.7109H103.732V122.351L136.308 124.955L140.639 124.046L161.333 124.977V127.013L177.973 128.285L216.373 121.715V64.7109Z" fill="#FCF1D4" stroke="#1D1D1D" stroke-width="0.289773"/>
<path d="M136.587 95.8527C136.587 89.019 142.127 83.4792 148.96 83.4792C155.794 83.4792 161.334 89.019 161.334 95.8527V124.439H140.708C140.521 124.439 140.335 124.46 140.153 124.5L136.587 125.293V95.8527Z" fill="#F2D891" stroke="#1D1D1D" stroke-width="0.289773"/>
<path d="M140.427 93.9326C140.427 88.1594 145.107 83.4792 150.881 83.4792V83.4792C156.654 83.4792 161.334 88.1594 161.334 93.9326V125.293L140.427 124.439V93.9326Z" fill="#E5C267" stroke="#1D1D1D" stroke-width="0.289773"/>
<rect x="173.706" y="71.5308" width="11.0934" height="52.907" fill="#FCF1D4" stroke="#1D1D1D" stroke-width="0.289773"/>
<g style="mix-blend-mode:multiply" opacity="0.3">
<rect x="173.828" y="72.0798" width="4.87622" height="52.6631" fill="#F2D891"/>
</g>
<g style="mix-blend-mode:multiply" opacity="0.3">
<rect x="173.828" y="72.0798" width="2.43811" height="52.6631" fill="#F2D891"/>
</g>
<rect x="154.935" y="71.5308" width="11.0934" height="51.6269" fill="#FCF1D4" stroke="#1D1D1D" stroke-width="0.289773"/>
<rect x="119.519" y="70.6848" width="11.0934" height="49.0669" fill="#FCF1D4" stroke="#1D1D1D" stroke-width="0.289773"/>
<g style="mix-blend-mode:multiply" opacity="0.3">
<rect x="119.703" y="70.6238" width="4.87622" height="51.6879" fill="#F2D891"/>
</g>
<g style="mix-blend-mode:multiply" opacity="0.3">
<rect x="119.703" y="70.6238" width="2.43811" height="51.6879" fill="#F2D891"/>
</g>
<rect x="100.747" y="71.1082" width="11.0934" height="47.7869" fill="#FCF1D4" stroke="#1D1D1D" stroke-width="0.289773"/>
<g style="mix-blend-mode:multiply" opacity="0.3">
<rect x="100.686" y="71.1082" width="4.87622" height="51.6879" fill="#F2D891"/>
</g>
<g style="mix-blend-mode:multiply" opacity="0.3">
<rect x="100.686" y="71.1082" width="2.43811" height="51.6879" fill="#F2D891"/>
</g>
<rect x="195.04" y="71.5308" width="11.0934" height="49.4936" fill="#FCF1D4" stroke="#1D1D1D" stroke-width="0.289773"/>
<g style="mix-blend-mode:multiply" opacity="0.3">
<rect x="195.283" y="71.5918" width="4.87622" height="51.6879" fill="#F2D891"/>
</g>
<g style="mix-blend-mode:multiply" opacity="0.3">
<rect x="195.283" y="71.5918" width="2.43811" height="51.6879" fill="#F2D891"/>
</g>
<rect x="212.96" y="71.958" width="11.0934" height="44.3736" fill="#FCF1D4" stroke="#1D1D1D" stroke-width="0.289773"/>
<g style="mix-blend-mode:multiply" opacity="0.3">
<rect x="212.838" y="67.696" width="4.87622" height="51.6879" fill="#F2D891"/>
</g>
<g style="mix-blend-mode:multiply" opacity="0.3">
<rect x="212.838" y="67.696" width="2.43811" height="51.6879" fill="#F2D891"/>
</g>
<g style="mix-blend-mode:multiply" opacity="0.3">
<rect x="154.812" y="71.592" width="4.87622" height="51.6879" fill="#F2D891"/>
</g>
<g style="mix-blend-mode:multiply" opacity="0.3">
<rect x="154.812" y="71.592" width="2.43811" height="51.6879" fill="#F2D891"/>
</g>
<mask id="mask3_867_11963" style="mask-type:alpha" maskUnits="userSpaceOnUse" x="98" y="66" width="129" height="7">
<path d="M171.573 67.6948C171.573 66.8869 172.228 66.2319 173.036 66.2319H185.47C186.278 66.2319 186.933 66.8869 186.933 67.6948V70.7424C186.933 71.5504 186.278 72.2053 185.47 72.2053H173.036C172.228 72.2053 171.573 71.5504 171.573 70.7424V67.6948Z" fill="#FAE3C3"/>
<path d="M152.799 67.6948C152.799 66.8869 153.454 66.2319 154.262 66.2319H166.696C167.504 66.2319 168.159 66.8869 168.159 67.6948V70.7424C168.159 71.5504 167.504 72.2053 166.696 72.2053H154.262C153.454 72.2053 152.799 71.5504 152.799 70.7424V67.6948Z" fill="#FAE3C3"/>
<path d="M117.386 67.6948C117.386 66.8869 118.041 66.2319 118.849 66.2319H131.283C132.091 66.2319 132.746 66.8869 132.746 67.6948V70.7424C132.746 71.5504 132.091 72.2053 131.283 72.2053H118.849C118.041 72.2053 117.386 71.5504 117.386 70.7424V67.6948Z" fill="#FAE3C3"/>
<path d="M98.6123 67.6948C98.6123 66.8869 99.2673 66.2319 100.075 66.2319H112.51C113.317 66.2319 113.972 66.8869 113.972 67.6948V70.7424C113.972 71.5504 113.317 72.2053 112.51 72.2053H100.075C99.2673 72.2053 98.6123 71.5504 98.6123 70.7424V67.6948Z" fill="#FAE3C3"/>
<path d="M192.906 67.6948C192.906 66.8869 193.561 66.2319 194.369 66.2319H206.803C207.611 66.2319 208.266 66.8869 208.266 67.6948V70.7424C208.266 71.5504 207.611 72.2053 206.803 72.2053H194.369C193.561 72.2053 192.906 71.5504 192.906 70.7424V67.6948Z" fill="#FAE3C3"/>
<path d="M210.826 67.6948C210.826 66.8869 211.481 66.2319 212.289 66.2319H224.723C225.531 66.2319 226.186 66.8869 226.186 67.6948V70.7424C226.186 71.5504 225.531 72.2053 224.723 72.2053H212.289C211.481 72.2053 210.826 71.5504 210.826 70.7424V67.6948Z" fill="#FAE3C3"/>
<path d="M171.573 67.6948C171.573 66.8869 172.228 66.2319 173.036 66.2319H185.47C186.278 66.2319 186.933 66.8869 186.933 67.6948V70.7424C186.933 71.5504 186.278 72.2053 185.47 72.2053H173.036C172.228 72.2053 171.573 71.5504 171.573 70.7424V67.6948Z" stroke="black" stroke-width="0.289773"/>
<path d="M152.799 67.6948C152.799 66.8869 153.454 66.2319 154.262 66.2319H166.696C167.504 66.2319 168.159 66.8869 168.159 67.6948V70.7424C168.159 71.5504 167.504 72.2053 166.696 72.2053H154.262C153.454 72.2053 152.799 71.5504 152.799 70.7424V67.6948Z" stroke="black" stroke-width="0.289773"/>
<path d="M117.386 67.6948C117.386 66.8869 118.041 66.2319 118.849 66.2319H131.283C132.091 66.2319 132.746 66.8869 132.746 67.6948V70.7424C132.746 71.5504 132.091 72.2053 131.283 72.2053H118.849C118.041 72.2053 117.386 71.5504 117.386 70.7424V67.6948Z" stroke="black" stroke-width="0.289773"/>
<path d="M98.6123 67.6948C98.6123 66.8869 99.2673 66.2319 100.075 66.2319H112.51C113.317 66.2319 113.972 66.8869 113.972 67.6948V70.7424C113.972 71.5504 113.317 72.2053 112.51 72.2053H100.075C99.2673 72.2053 98.6123 71.5504 98.6123 70.7424V67.6948Z" stroke="black" stroke-width="0.289773"/>
<path d="M192.906 67.6948C192.906 66.8869 193.561 66.2319 194.369 66.2319H206.803C207.611 66.2319 208.266 66.8869 208.266 67.6948V70.7424C208.266 71.5504 207.611 72.2053 206.803 72.2053H194.369C193.561 72.2053 192.906 71.5504 192.906 70.7424V67.6948Z" stroke="black" stroke-width="0.289773"/>
<path d="M210.826 67.6948C210.826 66.8869 211.481 66.2319 212.289 66.2319H224.723C225.531 66.2319 226.186 66.8869 226.186 67.6948V70.7424C226.186 71.5504 225.531 72.2053 224.723 72.2053H212.289C211.481 72.2053 210.826 71.5504 210.826 70.7424V67.6948Z" stroke="black" stroke-width="0.289773"/>
</mask>
<g mask="url(#mask3_867_11963)">
<path d="M171.573 67.6948C171.573 66.8869 172.228 66.2319 173.036 66.2319H185.47C186.278 66.2319 186.933 66.8869 186.933 67.6948V70.7424C186.933 71.5504 186.278 72.2053 185.47 72.2053H173.036C172.228 72.2053 171.573 71.5504 171.573 70.7424V67.6948Z" fill="#FCF1D4"/>
<path d="M152.799 67.6948C152.799 66.8869 153.454 66.2319 154.262 66.2319H166.696C167.504 66.2319 168.159 66.8869 168.159 67.6948V70.7424C168.159 71.5504 167.504 72.2053 166.696 72.2053H154.262C153.454 72.2053 152.799 71.5504 152.799 70.7424V67.6948Z" fill="#FCF1D4"/>
<path d="M117.386 67.6948C117.386 66.8869 118.041 66.2319 118.849 66.2319H131.283C132.091 66.2319 132.746 66.8869 132.746 67.6948V70.7424C132.746 71.5504 132.091 72.2053 131.283 72.2053H118.849C118.041 72.2053 117.386 71.5504 117.386 70.7424V67.6948Z" fill="#FCF1D4"/>
<path d="M98.6123 67.6948C98.6123 66.8869 99.2673 66.2319 100.075 66.2319H112.51C113.317 66.2319 113.972 66.8869 113.972 67.6948V70.7424C113.972 71.5504 113.317 72.2053 112.51 72.2053H100.075C99.2673 72.2053 98.6123 71.5504 98.6123 70.7424V67.6948Z" fill="#FCF1D4"/>
<path d="M192.906 67.6948C192.906 66.8869 193.561 66.2319 194.369 66.2319H206.803C207.611 66.2319 208.266 66.8869 208.266 67.6948V70.7424C208.266 71.5504 207.611 72.2053 206.803 72.2053H194.369C193.561 72.2053 192.906 71.5504 192.906 70.7424V67.6948Z" fill="#FCF1D4"/>
<path d="M210.826 67.6948C210.826 66.8869 211.481 66.2319 212.289 66.2319H224.723C225.531 66.2319 226.186 66.8869 226.186 67.6948V70.7424C226.186 71.5504 225.531 72.2053 224.723 72.2053H212.289C211.481 72.2053 210.826 71.5504 210.826 70.7424V67.6948Z" fill="#FCF1D4"/>
<path d="M171.573 67.6948C171.573 66.8869 172.228 66.2319 173.036 66.2319H185.47C186.278 66.2319 186.933 66.8869 186.933 67.6948V70.7424C186.933 71.5504 186.278 72.2053 185.47 72.2053H173.036C172.228 72.2053 171.573 71.5504 171.573 70.7424V67.6948Z" stroke="#1D1D1D" stroke-width="0.289773"/>
<path d="M152.799 67.6948C152.799 66.8869 153.454 66.2319 154.262 66.2319H166.696C167.504 66.2319 168.159 66.8869 168.159 67.6948V70.7424C168.159 71.5504 167.504 72.2053 166.696 72.2053H154.262C153.454 72.2053 152.799 71.5504 152.799 70.7424V67.6948Z" stroke="#1D1D1D" stroke-width="0.289773"/>
<path d="M117.386 67.6948C117.386 66.8869 118.041 66.2319 118.849 66.2319H131.283C132.091 66.2319 132.746 66.8869 132.746 67.6948V70.7424C132.746 71.5504 132.091 72.2053 131.283 72.2053H118.849C118.041 72.2053 117.386 71.5504 117.386 70.7424V67.6948Z" stroke="#1D1D1D" stroke-width="0.289773"/>
<path d="M98.6123 67.6948C98.6123 66.8869 99.2673 66.2319 100.075 66.2319H112.51C113.317 66.2319 113.972 66.8869 113.972 67.6948V70.7424C113.972 71.5504 113.317 72.2053 112.51 72.2053H100.075C99.2673 72.2053 98.6123 71.5504 98.6123 70.7424V67.6948Z" stroke="#1D1D1D" stroke-width="0.289773"/>
<path d="M192.906 67.6948C192.906 66.8869 193.561 66.2319 194.369 66.2319H206.803C207.611 66.2319 208.266 66.8869 208.266 67.6948V70.7424C208.266 71.5504 207.611 72.2053 206.803 72.2053H194.369C193.561 72.2053 192.906 71.5504 192.906 70.7424V67.6948Z" stroke="#1D1D1D" stroke-width="0.289773"/>
<path d="M210.826 67.6948C210.826 66.8869 211.481 66.2319 212.289 66.2319H224.723C225.531 66.2319 226.186 66.8869 226.186 67.6948V70.7424C226.186 71.5504 225.531 72.2053 224.723 72.2053H212.289C211.481 72.2053 210.826 71.5504 210.826 70.7424V67.6948Z" stroke="#1D1D1D" stroke-width="0.289773"/>
<g style="mix-blend-mode:multiply">
<rect x="90.4453" y="61.356" width="144.336" height="7.31432" fill="#FCF1D4"/>
</g>
</g>
<mask id="mask4_867_11963" style="mask-type:alpha" maskUnits="userSpaceOnUse" x="98" y="116" width="129" height="15">
<path d="M186.933 125.896C186.933 125.088 186.278 124.433 185.47 124.433H173.036C172.228 124.433 171.573 125.088 171.573 125.896V128.856C171.573 129.578 172.1 130.194 172.815 130.295C177.779 130.998 180.968 131.024 185.709 130.307C186.415 130.2 186.933 129.587 186.933 128.873V125.896Z" fill="#FAE3C3"/>
<path d="M168.159 124.616C168.159 123.808 167.504 123.153 166.696 123.153H154.262C153.454 123.153 152.799 123.808 152.799 124.616V127.576C152.799 128.298 153.327 128.914 154.042 129.015C159.005 129.718 162.194 129.744 166.936 129.027C167.642 128.92 168.159 128.307 168.159 127.593V124.616Z" fill="#FAE3C3"/>
<path d="M132.746 121.203C132.746 120.395 132.091 119.74 131.283 119.74H118.849C118.041 119.74 117.386 120.395 117.386 121.203V124.163C117.386 124.885 117.913 125.5 118.628 125.602C123.592 126.304 126.781 126.331 131.522 125.613C132.229 125.506 132.746 124.894 132.746 124.18V121.203Z" fill="#FAE3C3"/>
<path d="M113.972 120.35C113.972 119.542 113.317 118.887 112.51 118.887H100.075C99.2673 118.887 98.6123 119.542 98.6123 120.35V123.309C98.6123 124.031 99.14 124.647 99.8549 124.748C104.818 125.451 108.007 125.477 112.749 124.76C113.455 124.653 113.972 124.041 113.972 123.326V120.35Z" fill="#FAE3C3"/>
<path d="M208.266 122.483C208.266 121.675 207.611 121.02 206.803 121.02H194.369C193.561 121.02 192.906 121.675 192.906 122.483V125.443C192.906 126.165 193.434 126.78 194.149 126.882C199.112 127.584 202.301 127.611 207.042 126.893C207.749 126.786 208.266 126.174 208.266 125.46V122.483Z" fill="#FAE3C3"/>
<path d="M226.186 117.79C226.186 116.982 225.531 116.327 224.723 116.327H212.289C211.481 116.327 210.826 116.982 210.826 117.79V120.749C210.826 121.471 211.354 122.087 212.069 122.188C217.032 122.891 220.221 122.917 224.962 122.2C225.669 122.093 226.186 121.481 226.186 120.766V117.79Z" fill="#FAE3C3"/>
<path d="M186.933 125.896C186.933 125.088 186.278 124.433 185.47 124.433H173.036C172.228 124.433 171.573 125.088 171.573 125.896V128.856C171.573 129.578 172.1 130.194 172.815 130.295C177.779 130.998 180.968 131.024 185.709 130.307C186.415 130.2 186.933 129.587 186.933 128.873V125.896Z" stroke="black" stroke-width="0.289773"/>
<path d="M168.159 124.616C168.159 123.808 167.504 123.153 166.696 123.153H154.262C153.454 123.153 152.799 123.808 152.799 124.616V127.576C152.799 128.298 153.327 128.914 154.042 129.015C159.005 129.718 162.194 129.744 166.936 129.027C167.642 128.92 168.159 128.307 168.159 127.593V124.616Z" stroke="black" stroke-width="0.289773"/>
<path d="M132.746 121.203C132.746 120.395 132.091 119.74 131.283 119.74H118.849C118.041 119.74 117.386 120.395 117.386 121.203V124.163C117.386 124.885 117.913 125.5 118.628 125.602C123.592 126.304 126.781 126.331 131.522 125.613C132.229 125.506 132.746 124.894 132.746 124.18V121.203Z" stroke="black" stroke-width="0.289773"/>
<path d="M113.972 120.35C113.972 119.542 113.317 118.887 112.51 118.887H100.075C99.2673 118.887 98.6123 119.542 98.6123 120.35V123.309C98.6123 124.031 99.14 124.647 99.8549 124.748C104.818 125.451 108.007 125.477 112.749 124.76C113.455 124.653 113.972 124.041 113.972 123.326V120.35Z" stroke="black" stroke-width="0.289773"/>
<path d="M208.266 122.483C208.266 121.675 207.611 121.02 206.803 121.02H194.369C193.561 121.02 192.906 121.675 192.906 122.483V125.443C192.906 126.165 193.434 126.78 194.149 126.882C199.112 127.584 202.301 127.611 207.042 126.893C207.749 126.786 208.266 126.174 208.266 125.46V122.483Z" stroke="black" stroke-width="0.289773"/>
<path d="M226.186 117.79C226.186 116.982 225.531 116.327 224.723 116.327H212.289C211.481 116.327 210.826 116.982 210.826 117.79V120.749C210.826 121.471 211.354 122.087 212.069 122.188C217.032 122.891 220.221 122.917 224.962 122.2C225.669 122.093 226.186 121.481 226.186 120.766V117.79Z" stroke="black" stroke-width="0.289773"/>
</mask>
<g mask="url(#mask4_867_11963)">
<path d="M186.933 125.896C186.933 125.088 186.278 124.433 185.47 124.433H173.036C172.228 124.433 171.573 125.088 171.573 125.896V128.856C171.573 129.578 172.1 130.194 172.815 130.295C177.779 130.998 180.968 131.024 185.709 130.307C186.415 130.2 186.933 129.587 186.933 128.873V125.896Z" fill="#FCF1D4"/>
<path d="M168.159 124.616C168.159 123.808 167.504 123.153 166.696 123.153H154.262C153.454 123.153 152.799 123.808 152.799 124.616V127.576C152.799 128.298 153.327 128.914 154.042 129.015C159.005 129.718 162.194 129.744 166.936 129.027C167.642 128.92 168.159 128.307 168.159 127.593V124.616Z" fill="#FCF1D4"/>
<path d="M132.746 121.203C132.746 120.395 132.091 119.74 131.283 119.74H118.849C118.041 119.74 117.386 120.395 117.386 121.203V124.163C117.386 124.885 117.913 125.5 118.628 125.602C123.592 126.304 126.781 126.331 131.522 125.613C132.229 125.506 132.746 124.894 132.746 124.18V121.203Z" fill="#FCF1D4"/>
<path d="M113.972 120.35C113.972 119.542 113.317 118.887 112.51 118.887H100.075C99.2673 118.887 98.6123 119.542 98.6123 120.35V123.309C98.6123 124.031 99.14 124.647 99.8549 124.748C104.818 125.451 108.007 125.477 112.749 124.76C113.455 124.653 113.972 124.041 113.972 123.326V120.35Z" fill="#FCF1D4"/>
<path d="M208.266 122.483C208.266 121.675 207.611 121.02 206.803 121.02H194.369C193.561 121.02 192.906 121.675 192.906 122.483V125.443C192.906 126.165 193.434 126.78 194.149 126.882C199.112 127.584 202.301 127.611 207.042 126.893C207.749 126.786 208.266 126.174 208.266 125.46V122.483Z" fill="#FCF1D4"/>
<path d="M226.186 117.79C226.186 116.982 225.531 116.327 224.723 116.327H212.289C211.481 116.327 210.826 116.982 210.826 117.79V120.749C210.826 121.471 211.354 122.087 212.069 122.188C217.032 122.891 220.221 122.917 224.962 122.2C225.669 122.093 226.186 121.481 226.186 120.766V117.79Z" fill="#FCF1D4"/>
<path d="M186.933 125.896C186.933 125.088 186.278 124.433 185.47 124.433H173.036C172.228 124.433 171.573 125.088 171.573 125.896V128.856C171.573 129.578 172.1 130.194 172.815 130.295C177.779 130.998 180.968 131.024 185.709 130.307C186.415 130.2 186.933 129.587 186.933 128.873V125.896Z" stroke="#1D1D1D" stroke-width="0.289773"/>
<path d="M168.159 124.616C168.159 123.808 167.504 123.153 166.696 123.153H154.262C153.454 123.153 152.799 123.808 152.799 124.616V127.576C152.799 128.298 153.327 128.914 154.042 129.015C159.005 129.718 162.194 129.744 166.936 129.027C167.642 128.92 168.159 128.307 168.159 127.593V124.616Z" stroke="#1D1D1D" stroke-width="0.289773"/>
<path d="M132.746 121.203C132.746 120.395 132.091 119.74 131.283 119.74H118.849C118.041 119.74 117.386 120.395 117.386 121.203V124.163C117.386 124.885 117.913 125.5 118.628 125.602C123.592 126.304 126.781 126.331 131.522 125.613C132.229 125.506 132.746 124.894 132.746 124.18V121.203Z" stroke="#1D1D1D" stroke-width="0.289773"/>
<path d="M113.972 120.35C113.972 119.542 113.317 118.887 112.51 118.887H100.075C99.2673 118.887 98.6123 119.542 98.6123 120.35V123.309C98.6123 124.031 99.14 124.647 99.8549 124.748C104.818 125.451 108.007 125.477 112.749 124.76C113.455 124.653 113.972 124.041 113.972 123.326V120.35Z" stroke="#1D1D1D" stroke-width="0.289773"/>
<path d="M208.266 122.483C208.266 121.675 207.611 121.02 206.803 121.02H194.369C193.561 121.02 192.906 121.675 192.906 122.483V125.443C192.906 126.165 193.434 126.78 194.149 126.882C199.112 127.584 202.301 127.611 207.042 126.893C207.749 126.786 208.266 126.174 208.266 125.46V122.483Z" stroke="#1D1D1D" stroke-width="0.289773"/>
<path d="M226.186 117.79C226.186 116.982 225.531 116.327 224.723 116.327H212.289C211.481 116.327 210.826 116.982 210.826 117.79V120.749C210.826 121.471 211.354 122.087 212.069 122.188C217.032 122.891 220.221 122.917 224.962 122.2C225.669 122.093 226.186 121.481 226.186 120.766V117.79Z" stroke="#1D1D1D" stroke-width="0.289773"/>
<g style="mix-blend-mode:multiply" opacity="0.4">
<rect x="97.7583" y="116.449" width="5.85146" height="11.7029" fill="#F2D891"/>
</g>
<g style="mix-blend-mode:multiply" opacity="0.4">
<rect x="116.776" y="116.449" width="5.85146" height="11.7029" fill="#F2D891"/>
</g>
<g style="mix-blend-mode:multiply" opacity="0.4">
<rect x="151.885" y="120.837" width="5.85146" height="11.7029" fill="#F2D891"/>
</g>
<g style="mix-blend-mode:multiply" opacity="0.4">
<rect x="171.39" y="120.837" width="5.85146" height="11.7029" fill="#F2D891"/>
</g>
<g style="mix-blend-mode:multiply" opacity="0.4">
<rect x="191.871" y="119.373" width="5.85146" height="11.7029" fill="#F2D891"/>
</g>
<g style="mix-blend-mode:multiply" opacity="0.4">
<rect x="209.912" y="114.013" width="5.85146" height="11.7029" fill="#F2D891"/>
</g>
</g>
<mask id="mask5_867_11963" style="mask-type:alpha" maskUnits="userSpaceOnUse" x="91" y="59" width="144" height="9">
<path d="M230.865 67.1447H95.2624C93.342 67.1447 91.7852 65.5879 91.7852 63.6674V62.82C91.7852 60.8996 93.342 59.3428 95.2624 59.3428H180.691L230.93 60.2907C232.797 60.3259 234.293 61.8497 234.293 63.7174C234.293 65.6103 232.758 67.1447 230.865 67.1447Z" fill="#FAE3C3"/>
</mask>
<g mask="url(#mask5_867_11963)">
<path d="M230.865 67.1447H95.2624C93.342 67.1447 91.7852 65.5879 91.7852 63.6674V62.82C91.7852 60.8996 93.342 59.3428 95.2624 59.3428H180.691L230.93 60.2907C232.797 60.3259 234.293 61.8497 234.293 63.7174C234.293 65.6103 232.758 67.1447 230.865 67.1447Z" fill="#FCF1D4" stroke="#1D1D1D" stroke-width="0.289773"/>
<g style="mix-blend-mode:multiply">
<path d="M244.469 72.5659H85.6325C83.7121 72.5659 82.1553 71.009 82.1553 69.0886V68.2412C82.1553 66.3207 83.7121 64.7639 85.6325 64.7639H185.587H244.469C246.39 64.7639 247.947 66.3207 247.947 68.2412V69.0886C247.947 71.009 246.39 72.5659 244.469 72.5659Z" fill="#FCF1D4"/>
</g>
</g>
<path d="M230.865 67.1447H95.2624C93.342 67.1447 91.7852 65.5879 91.7852 63.6674V62.82C91.7852 60.8996 93.342 59.3428 95.2624 59.3428H180.691L230.93 60.2907C232.797 60.3259 234.293 61.8497 234.293 63.7174C234.293 65.6103 232.758 67.1447 230.865 67.1447Z" stroke="#1D1D1D" stroke-width="0.289773"/>
<g clip-path="url(#clip0_867_11963)">
<ellipse cx="29.9249" cy="8.3679" rx="29.9249" ry="8.3679" transform="matrix(-0.999999 -0.00133294 -0.0012028 0.999999 67.0532 154.514)" fill="#EDA56D"/>
<mask id="mask6_867_11963" style="mask-type:alpha" maskUnits="userSpaceOnUse" x="23" y="145" width="45" height="27">
<path d="M67.4518 155.641C67.4518 155.519 67.4375 155.407 67.4136 155.29C66.8501 149.965 57.1557 145.721 45.2789 145.721C33.4021 145.721 23.7077 149.96 23.1442 155.29C23.1203 155.402 23.106 155.519 23.106 155.641V161.96C23.106 162.155 23.1442 162.34 23.2063 162.515C24.19 167.655 33.6934 171.694 45.2789 171.694C56.8644 171.694 66.3678 167.66 67.3515 162.515C67.4136 162.34 67.4518 162.155 67.4518 161.96V155.641Z" fill="#FFE790"/>
</mask>
<g mask="url(#mask6_867_11963)">
<path d="M67.4518 155.641C67.4518 155.519 67.4375 155.407 67.4136 155.29C66.8501 149.965 57.1557 145.721 45.2789 145.721C33.4021 145.721 23.7077 149.96 23.1442 155.29C23.1203 155.402 23.106 155.519 23.106 155.641V161.96C23.106 162.155 23.1442 162.34 23.2063 162.515C24.19 167.655 33.6934 171.694 45.2789 171.694C56.8644 171.694 66.3678 167.66 67.3515 162.515C67.4136 162.34 67.4518 162.155 67.4518 161.96V155.641Z" fill="#FCEDB6"/>
<g style="mix-blend-mode:multiply">
<rect width="8.7396" height="22.3434" transform="matrix(0.999999 0.00133294 -0.0012028 0.999999 46.5098 158.438)" fill="#FCEDB6"/>
</g>
<g style="mix-blend-mode:multiply">
<rect width="2.49703" height="22.3434" transform="matrix(-0.999999 -0.00133294 -0.0012028 0.999999 60.2432 158.438)" fill="#FCEDB6"/>
</g>
<g style="mix-blend-mode:multiply">
<rect width="9.98812" height="22.3434" transform="matrix(0.999999 0.00133294 -0.0012028 0.999999 22.7935 151.815)" fill="#FCEDB6"/>
</g>
<g style="mix-blend-mode:multiply">
<rect width="4.62611" height="22.3434" transform="matrix(-0.999999 -0.00133294 -0.0012028 0.999999 27.5078 151.826)" fill="#F2D891"/>
</g>
</g>
<path d="M45.2789 166.274C57.5247 166.274 67.4518 161.671 67.4518 155.993C67.4518 150.315 57.5247 145.712 45.2789 145.712C33.0331 145.712 23.106 150.315 23.106 155.993C23.106 161.671 33.0331 166.274 45.2789 166.274Z" fill="#FCEDB6"/>
<path d="M67.4518 155.634C67.4518 155.512 67.4375 155.4 67.4136 155.283C66.8501 149.958 57.1159 145.589 45.2391 145.589C33.3623 145.589 23.7077 149.953 23.1442 155.283C23.1203 155.395 23.106 155.512 23.106 155.634V161.953C23.106 162.148 23.1442 162.333 23.2063 162.508C24.19 167.648 33.6934 171.687 45.2789 171.687C56.8644 171.687 66.3678 167.653 67.3515 162.508C67.4136 162.333 67.4518 162.148 67.4518 161.953V155.634Z" stroke="#1D1D1D" stroke-width="0.173864" stroke-miterlimit="10"/>
<path d="M45.5076 163.796C56.2951 163.796 65.04 160.035 65.04 155.395C65.04 150.755 56.2951 146.994 45.5076 146.994C34.7201 146.994 25.9751 150.755 25.9751 155.395C25.9751 160.035 34.7201 163.796 45.5076 163.796Z" fill="#FCEDB6" stroke="#F2D891" stroke-width="0.173864" stroke-miterlimit="10"/>
<path d="M45.2525 162.758C55.0464 162.758 62.9859 159.548 62.9859 155.588C62.9859 151.629 55.0464 148.419 45.2525 148.419C35.4586 148.419 27.519 151.629 27.519 155.588C27.519 159.548 35.4586 162.758 45.2525 162.758Z" fill="#F2D891"/>
<g style="mix-blend-mode:multiply" opacity="0.5">
<path fill-rule="evenodd" clip-rule="evenodd" d="M61.407 158.503C58.154 160.057 53.2729 161.045 47.8162 161.045C38.0223 161.045 30.0828 157.862 30.0828 153.936C30.0828 152.892 30.6436 151.901 31.6509 151.008C29.0653 152.243 27.5083 153.837 27.5083 155.576C27.5083 159.502 35.4478 162.686 45.2417 162.686C52.4327 162.686 58.6241 160.969 61.407 158.503Z" fill="#F2D891"/>
</g>
<mask id="mask7_867_11963" style="mask-type:alpha" maskUnits="userSpaceOnUse" x="23" y="138" width="45" height="27">
<path d="M67.4518 148.904C67.4518 148.782 67.4375 148.67 67.4136 148.553C66.8501 143.228 57.1557 138.984 45.2789 138.984C33.4021 138.984 23.7077 143.223 23.1442 148.553C23.1203 148.665 23.106 148.782 23.106 148.904V155.223C23.106 155.418 23.1442 155.603 23.2063 155.778C24.19 160.918 33.6934 164.957 45.2789 164.957C56.8644 164.957 66.3678 160.923 67.3515 155.778C67.4136 155.603 67.4518 155.418 67.4518 155.223V148.904Z" fill="#FFE790"/>
</mask>
<g mask="url(#mask7_867_11963)">
<path d="M67.4518 148.904C67.4518 148.782 67.4375 148.67 67.4136 148.553C66.8501 143.228 57.1557 138.984 45.2789 138.984C33.4021 138.984 23.7077 143.223 23.1442 148.553C23.1203 148.665 23.106 148.782 23.106 148.904V155.223C23.106 155.418 23.1442 155.603 23.2063 155.778C24.19 160.918 33.6934 164.957 45.2789 164.957C56.8644 164.957 66.3678 160.923 67.3515 155.778C67.4136 155.603 67.4518 155.418 67.4518 155.223V148.904Z" fill="#FCEDB6"/>
<g style="mix-blend-mode:multiply">
<rect width="8.7396" height="22.3435" transform="matrix(0.999999 0.00133294 -0.0012028 0.999999 46.5098 151.701)" fill="#FCEDB6"/>
</g>
<g style="mix-blend-mode:multiply">
<rect width="2.49703" height="22.3434" transform="matrix(-0.999999 -0.00133294 -0.0012028 0.999999 60.2432 151.701)" fill="#FCEDB6"/>
</g>
<g style="mix-blend-mode:multiply">
<rect width="9.98812" height="22.3434" transform="matrix(0.999999 0.00133294 -0.0012028 0.999999 22.7935 145.078)" fill="#FCEDB6"/>
</g>
<g style="mix-blend-mode:multiply">
<rect width="4.62611" height="22.3434" transform="matrix(-0.999999 -0.00133294 -0.0012028 0.999999 27.5078 145.089)" fill="#F2D891"/>
</g>
</g>
<path d="M45.2789 159.555C57.5247 159.555 67.4518 154.952 67.4518 149.274C67.4518 143.596 57.5247 138.993 45.2789 138.993C33.0331 138.993 23.106 143.596 23.106 149.274C23.106 154.952 33.0331 159.555 45.2789 159.555Z" fill="#FCEDB6"/>
<path d="M67.4518 148.915C67.4518 148.793 67.4375 148.681 67.4136 148.564C66.8501 143.239 57.1159 138.87 45.2391 138.87C33.3623 138.87 23.7077 143.234 23.1442 148.564C23.1203 148.676 23.106 148.793 23.106 148.915V155.234C23.106 155.429 23.1442 155.614 23.2063 155.79C24.19 160.93 33.6934 164.969 45.2789 164.969C56.8644 164.969 66.3678 160.935 67.3515 155.79C67.4136 155.614 67.4518 155.429 67.4518 155.234V148.915Z" stroke="#1D1D1D" stroke-width="0.173864" stroke-miterlimit="10"/>
<path d="M45.5076 157.097C56.2951 157.097 65.04 153.336 65.04 148.696C65.04 144.056 56.2951 140.295 45.5076 140.295C34.7201 140.295 25.9751 144.056 25.9751 148.696C25.9751 153.336 34.7201 157.097 45.5076 157.097Z" fill="#FCEDB6" stroke="#F2D891" stroke-width="0.173864" stroke-miterlimit="10"/>
<path d="M45.2525 156.043C55.0464 156.043 62.9859 152.834 62.9859 148.874C62.9859 144.914 55.0464 141.704 45.2525 141.704C35.4586 141.704 27.519 144.914 27.519 148.874C27.519 152.834 35.4586 156.043 45.2525 156.043Z" fill="#F2D891"/>
<g style="mix-blend-mode:multiply" opacity="0.5">
<path fill-rule="evenodd" clip-rule="evenodd" d="M61.4083 151.787C58.1553 153.342 53.2737 154.33 47.8162 154.33C38.0223 154.33 30.0828 151.147 30.0828 147.221C30.0828 146.177 30.6431 145.187 31.6497 144.294C29.0648 145.53 27.5083 147.122 27.5083 148.861C27.5083 152.788 35.4478 155.971 45.2417 155.971C52.4338 155.971 58.6259 154.254 61.4083 151.787Z" fill="#F2D891"/>
</g>
<mask id="mask8_867_11963" style="mask-type:alpha" maskUnits="userSpaceOnUse" x="23" y="132" width="45" height="27">
<path d="M67.4518 142.182C67.4518 142.061 67.4375 141.949 67.4136 141.832C66.8501 136.506 57.1557 132.263 45.2789 132.263C33.4021 132.263 23.7077 136.501 23.1442 141.832C23.1203 141.944 23.106 142.061 23.106 142.182V148.502C23.106 148.696 23.1442 148.882 23.2063 149.057C24.19 154.197 33.6934 158.236 45.2789 158.236C56.8644 158.236 66.3678 154.202 67.3515 149.057C67.4136 148.882 67.4518 148.696 67.4518 148.502V142.182Z" fill="#FFE790"/>
</mask>
<g mask="url(#mask8_867_11963)">
<path d="M67.4518 142.182C67.4518 142.061 67.4375 141.949 67.4136 141.832C66.8501 136.506 57.1557 132.263 45.2789 132.263C33.4021 132.263 23.7077 136.501 23.1442 141.832C23.1203 141.944 23.106 142.061 23.106 142.182V148.502C23.106 148.696 23.1442 148.882 23.2063 149.057C24.19 154.197 33.6934 158.236 45.2789 158.236C56.8644 158.236 66.3678 154.202 67.3515 149.057C67.4136 148.882 67.4518 148.696 67.4518 148.502V142.182Z" fill="#FCEDB6"/>
<g style="mix-blend-mode:multiply">
<rect width="8.7396" height="22.3434" transform="matrix(0.999999 0.00133294 -0.0012028 0.999999 46.5098 144.98)" fill="#FCEDB6"/>
</g>
<g style="mix-blend-mode:multiply">
<rect width="2.49703" height="22.3434" transform="matrix(-0.999999 -0.00133294 -0.0012028 0.999999 60.2432 144.98)" fill="#FCEDB6"/>
</g>
<g style="mix-blend-mode:multiply">
<rect width="9.98812" height="22.3434" transform="matrix(0.999999 0.00133294 -0.0012028 0.999999 22.7935 138.357)" fill="#FCEDB6"/>
</g>
<g style="mix-blend-mode:multiply">
<rect width="4.62611" height="22.3435" transform="matrix(-0.999999 -0.00133294 -0.0012028 0.999999 27.5078 138.368)" fill="#F2D891"/>
</g>
</g>
<path d="M45.2789 152.824C57.5247 152.824 67.4518 148.221 67.4518 142.542C67.4518 136.864 57.5247 132.261 45.2789 132.261C33.0331 132.261 23.106 136.864 23.106 142.542C23.106 148.221 33.0331 152.824 45.2789 152.824Z" fill="#FCEDB6"/>
<path d="M67.4518 142.183C67.4518 142.061 67.4375 141.949 67.4136 141.832C66.8501 136.507 57.1159 132.138 45.2391 132.138C33.3623 132.138 23.7077 136.502 23.1442 141.832C23.1203 141.944 23.106 142.061 23.106 142.183V148.502C23.106 148.697 23.1442 148.882 23.2063 149.058C24.19 154.198 33.6934 158.237 45.2789 158.237C56.8644 158.237 66.3678 154.203 67.3515 149.058C67.4136 148.882 67.4518 148.697 67.4518 148.502V142.183Z" stroke="#1D1D1D" stroke-width="0.173864" stroke-miterlimit="10"/>
<path d="M45.5076 150.366C56.2951 150.366 65.04 146.605 65.04 141.965C65.04 137.325 56.2951 133.563 45.5076 133.563C34.7201 133.563 25.9751 137.325 25.9751 141.965C25.9751 146.605 34.7201 150.366 45.5076 150.366Z" fill="#FCEDB6" stroke="#F2D891" stroke-width="0.173864" stroke-miterlimit="10"/>
<path d="M45.2525 149.328C55.0464 149.328 62.9859 146.118 62.9859 142.158C62.9859 138.198 55.0464 134.989 45.2525 134.989C35.4586 134.989 27.519 138.198 27.519 142.158C27.519 146.118 35.4586 149.328 45.2525 149.328Z" fill="#F2D891"/>
<g style="mix-blend-mode:multiply" opacity="0.5">
<path fill-rule="evenodd" clip-rule="evenodd" d="M61.4081 145.06C58.1551 146.615 53.2736 147.603 47.8162 147.603C38.0223 147.603 30.0828 144.42 30.0828 140.493C30.0828 139.45 30.6432 138.459 31.6498 137.567C29.0649 138.802 27.5083 140.395 27.5083 142.134C27.5083 146.06 35.4478 149.244 45.2417 149.244C52.4337 149.244 58.6257 147.527 61.4081 145.06Z" fill="#F2D891"/>
</g>
<mask id="mask9_867_11963" style="mask-type:alpha" maskUnits="userSpaceOnUse" x="23" y="125" width="45" height="27">
<path d="M67.4518 135.525C67.4518 135.403 67.4375 135.291 67.4136 135.174C66.8501 129.849 57.1557 125.605 45.2789 125.605C33.4021 125.605 23.7077 129.844 23.1442 135.174C23.1203 135.286 23.106 135.403 23.106 135.525V141.844C23.106 142.039 23.1442 142.224 23.2063 142.4C24.19 147.54 33.6934 151.579 45.2789 151.579C56.8644 151.579 66.3678 147.545 67.3515 142.4C67.4136 142.224 67.4518 142.039 67.4518 141.844V135.525Z" fill="#FFE790"/>
</mask>
<g mask="url(#mask9_867_11963)">
<path d="M67.4518 135.525C67.4518 135.403 67.4375 135.291 67.4136 135.174C66.8501 129.849 57.1557 125.605 45.2789 125.605C33.4021 125.605 23.7077 129.844 23.1442 135.174C23.1203 135.286 23.106 135.403 23.106 135.525V141.844C23.106 142.039 23.1442 142.224 23.2063 142.4C24.19 147.54 33.6934 151.579 45.2789 151.579C56.8644 151.579 66.3678 147.545 67.3515 142.4C67.4136 142.224 67.4518 142.039 67.4518 141.844V135.525Z" fill="#FCEDB6"/>
<g style="mix-blend-mode:multiply">
<rect width="8.7396" height="22.3434" transform="matrix(0.999999 0.00133294 -0.0012028 0.999999 46.5098 138.323)" fill="#FCEDB6"/>
</g>
<g style="mix-blend-mode:multiply">
<rect width="2.49703" height="22.3434" transform="matrix(-0.999999 -0.00133294 -0.0012028 0.999999 60.2432 138.323)" fill="#FCEDB6"/>
</g>
<g style="mix-blend-mode:multiply">
<rect width="9.98812" height="22.3434" transform="matrix(0.999999 0.00133294 -0.0012028 0.999999 22.7935 131.7)" fill="#FCEDB6"/>
</g>
<g style="mix-blend-mode:multiply">
<rect width="4.62611" height="22.3434" transform="matrix(-0.999999 -0.00133294 -0.0012028 0.999999 27.5078 131.71)" fill="#F2D891"/>
</g>
</g>
<path d="M45.2789 146.162C57.5247 146.162 67.4518 141.559 67.4518 135.881C67.4518 130.202 57.5247 125.599 45.2789 125.599C33.0331 125.599 23.106 130.202 23.106 135.881C23.106 141.559 33.0331 146.162 45.2789 146.162Z" fill="#FCEDB6"/>
<path d="M67.4518 135.521C67.4518 135.399 67.4375 135.287 67.4136 135.17C66.8501 129.845 57.1159 125.476 45.2391 125.476C33.3623 125.476 23.7077 129.84 23.1442 135.17C23.1203 135.283 23.106 135.399 23.106 135.521V141.84C23.106 142.035 23.1442 142.22 23.2063 142.396C24.19 147.536 33.6934 151.575 45.2789 151.575C56.8644 151.575 66.3678 147.541 67.3515 142.396C67.4136 142.22 67.4518 142.035 67.4518 141.84V135.521Z" stroke="#1D1D1D" stroke-width="0.173864" stroke-miterlimit="10"/>
<path d="M45.5076 143.698C56.2951 143.698 65.04 139.937 65.04 135.297C65.04 130.657 56.2951 126.895 45.5076 126.895C34.7201 126.895 25.9751 130.657 25.9751 135.297C25.9751 139.937 34.7201 143.698 45.5076 143.698Z" fill="#FCEDB6" stroke="#F2D891" stroke-width="0.173864" stroke-miterlimit="10"/>
<path d="M45.2525 142.659C55.0464 142.659 62.9859 139.45 62.9859 135.49C62.9859 131.53 55.0464 128.32 45.2525 128.32C35.4586 128.32 27.519 131.53 27.519 135.49C27.519 139.45 35.4586 142.659 45.2525 142.659Z" fill="#F2D891"/>
<g style="mix-blend-mode:multiply" opacity="0.5">
<path fill-rule="evenodd" clip-rule="evenodd" d="M61.4088 138.401C58.1558 139.956 53.274 140.945 47.8165 140.945C38.0226 140.945 30.083 137.761 30.083 133.835C30.083 132.791 30.6434 131.801 31.6499 130.908C29.0652 132.144 27.5088 133.736 27.5088 135.475C27.5088 139.402 35.4483 142.585 45.2422 142.585C52.4343 142.585 58.6264 140.868 61.4088 138.401Z" fill="#F2D891"/>
</g>
<mask id="mask10_867_11963" style="mask-type:alpha" maskUnits="userSpaceOnUse" x="9" y="96" width="46" height="39">
<path d="M50.1877 98.9862C50.1129 98.8757 50.0311 98.7828 49.9376 98.6914C46.156 94.2056 34.7539 96.3087 23.9776 103.602C13.2014 110.896 7.00845 120.696 9.77047 125.878C9.81763 125.994 9.87641 126.109 9.95121 126.22L13.8319 131.953C13.9516 132.13 14.1 132.275 14.264 132.396C18.3133 136.455 29.4164 134.284 39.9283 127.169C50.4402 120.054 56.5855 110.558 54.3185 105.285C54.2671 105.088 54.1881 104.897 54.0684 104.72L50.1877 98.9862Z" fill="#FFE790"/>
</mask>
<g mask="url(#mask10_867_11963)">
<path d="M50.1877 98.9862C50.1129 98.8757 50.0311 98.7828 49.9376 98.6914C46.156 94.2056 34.7539 96.3087 23.9776 103.602C13.2014 110.896 7.00845 120.696 9.77047 125.878C9.81763 125.994 9.87641 126.109 9.95121 126.22L13.8319 131.953C13.9516 132.13 14.1 132.275 14.264 132.396C18.3133 136.455 29.4164 134.284 39.9283 127.169C50.4402 120.054 56.5855 110.558 54.3185 105.285C54.2671 105.088 54.1881 104.897 54.0684 104.72L50.1877 98.9862Z" fill="#FCEDB6"/>
<g style="mix-blend-mode:multiply">
<rect width="9.57531" height="24.48" transform="matrix(0.828889 -0.559413 0.559521 0.828817 32.9048 114.39)" fill="#FCEDB6"/>
</g>
<g style="mix-blend-mode:multiply">
<rect width="2.7358" height="24.48" transform="matrix(-0.828889 0.559413 0.559521 0.828817 45.3647 105.952)" fill="#FCEDB6"/>
</g>
<g style="mix-blend-mode:multiply">
<rect width="10.9432" height="24.48" transform="matrix(0.828889 -0.559413 0.559521 0.828817 7.31738 122.94)" fill="#FCEDB6"/>
</g>
<g style="mix-blend-mode:multiply">
<rect width="5.06848" height="24.48" transform="matrix(-0.828889 0.559413 0.559521 0.828817 11.6006 120.054)" fill="#F2D891"/>
</g>
</g>
<path d="M36.6111 122.271C47.7221 114.751 53.9026 104.478 50.4155 99.3257C46.9285 94.1737 35.0945 96.0936 23.9835 103.614C12.8725 111.134 6.69204 121.407 10.1791 126.559C13.6661 131.711 25.5001 129.791 36.6111 122.271Z" fill="#FCEDB6" stroke="#1D1D1D" stroke-width="0.173864" stroke-miterlimit="10"/>
<path d="M50.2604 99.0718C50.1862 98.9621 50.1049 98.87 50.0119 98.7794C46.2544 94.3315 34.743 96.3873 23.9462 103.695C13.1494 111.003 7.03214 120.872 9.76801 126.018C9.8146 126.133 9.8728 126.248 9.94703 126.357L13.7979 132.047C13.9167 132.222 14.0642 132.365 14.2276 132.485C18.2542 136.508 29.3548 134.297 39.8868 127.169C50.4188 120.04 56.5996 110.561 54.3586 105.323C54.3081 105.127 54.23 104.937 54.1112 104.761L50.2604 99.0718Z" stroke="#1D1D1D" stroke-width="0.173864" stroke-miterlimit="10"/>
<path d="M35.3079 119.895C45.0958 113.27 50.7204 104.487 47.871 100.277C45.0215 96.067 34.7769 98.0246 24.9891 104.649C15.2012 111.274 9.57656 120.057 12.426 124.267C15.2755 128.477 25.5201 126.52 35.3079 119.895Z" fill="#FCEDB6" stroke="#F2D891" stroke-width="0.173864" stroke-miterlimit="10"/>
<path d="M34.4409 119.118C43.3273 113.104 48.5598 105.315 46.1281 101.723C43.6965 98.13 34.5214 100.093 25.6351 106.108C16.7487 112.122 11.5162 119.911 13.9479 123.503C16.3795 127.096 25.5546 125.133 34.4409 119.118Z" fill="#F2D891"/>
<g style="mix-blend-mode:multiply" opacity="0.5">
<path fill-rule="evenodd" clip-rule="evenodd" d="M46.4918 105.333C44.4954 108.742 40.6724 112.638 35.7194 115.991C26.8331 122.005 17.6744 123.993 15.2629 120.43C14.6228 119.484 14.5225 118.242 14.8866 116.816C13.3013 119.523 12.8678 121.923 13.9352 123.5C16.3467 127.063 25.5053 125.076 34.3917 119.061C40.9192 114.643 45.4841 109.281 46.4918 105.333Z" fill="#E5C267"/>
</g>
<mask id="mask11_867_11963" style="mask-type:alpha" maskUnits="userSpaceOnUse" x="35" y="58" width="45" height="41">
<path d="M78.2583 91.6131C78.3447 91.5114 78.4123 91.4077 78.4754 91.2931C81.7841 86.448 76.7033 76.0261 66.7893 67.5977C56.8753 59.1692 45.775 55.8278 41.5221 59.8772C41.4226 59.9538 41.3277 60.0412 41.2412 60.1429L36.7568 65.4177C36.6185 65.5804 36.519 65.7621 36.4464 65.9525C33.6199 70.9413 38.6863 81.0569 48.3572 89.2786C58.028 97.5003 68.8237 100.877 73.296 97.2804C73.4723 97.178 73.6356 97.0506 73.7739 96.8879L78.2583 91.6131Z" fill="#FFE790"/>
</mask>
<g mask="url(#mask11_867_11963)">
<path d="M78.2583 91.6131C78.3447 91.5114 78.4123 91.4077 78.4754 91.2931C81.7841 86.448 76.7033 76.0261 66.7893 67.5977C56.8753 59.1692 45.775 55.8278 41.5221 59.8772C41.4226 59.9538 41.3277 60.0412 41.2412 60.1429L36.7568 65.4177C36.6185 65.5804 36.519 65.7621 36.4464 65.9525C33.6199 70.9413 38.6863 81.0569 48.3572 89.2786C58.028 97.5003 68.8237 100.877 73.296 97.2804C73.4723 97.178 73.6356 97.0506 73.7739 96.8879L78.2583 91.6131Z" fill="#FCEDB6"/>
<g style="mix-blend-mode:multiply">
<rect width="9.57531" height="24.48" transform="matrix(0.761018 0.648731 -0.648632 0.761102 58.7886 79.0864)" fill="#FCEDB6"/>
</g>
<g style="mix-blend-mode:multiply">
<rect width="2.7358" height="24.48" transform="matrix(-0.761018 -0.648731 -0.648632 0.761102 70.2539 88.8359)" fill="#FCEDB6"/>
</g>
<g style="mix-blend-mode:multiply">
<rect width="10.9432" height="24.48" transform="matrix(0.761018 0.648731 -0.648632 0.761102 43.6943 56.7268)" fill="#FCEDB6"/>
</g>
<g style="mix-blend-mode:multiply">
<rect width="5.06848" height="24.48" transform="matrix(-0.761018 -0.648731 -0.648632 0.761102 47.6245 60.0793)" fill="#F2D891"/>
</g>
</g>
<path d="M52.1908 84.7703C62.4128 93.4605 73.9659 96.6631 77.9954 91.9234C82.0249 87.1836 77.0049 76.2964 66.783 67.6062C56.561 58.9159 45.0078 55.7134 40.9783 60.4532C36.9488 65.1929 41.9689 76.08 52.1908 84.7703Z" fill="#FCEDB6" stroke="#1D1D1D" stroke-width="0.173864" stroke-miterlimit="10"/>
<path d="M78.1953 91.7067C78.2811 91.6058 78.348 91.5028 78.4104 91.389C81.6892 86.5773 76.6247 76.0374 66.6918 67.5928C56.7588 59.1483 45.6113 55.8986 41.3865 59.913C41.2877 59.9888 41.1933 60.0755 41.1075 60.1764L36.6576 65.4107C36.5203 65.5721 36.4219 65.7526 36.3503 65.9421C33.5534 70.8992 38.6571 81.0017 48.3464 89.2392C58.0358 97.4766 68.8245 100.892 73.2704 97.3298C73.4458 97.2286 73.6081 97.1024 73.7454 96.941L78.1953 91.7067Z" stroke="#1D1D1D" stroke-width="0.173864" stroke-miterlimit="10"/>
<path d="M54.1225 82.8798C63.1272 90.5352 73.0962 93.6013 76.389 89.7282C79.6818 85.8551 75.0513 76.5093 66.0466 68.854C57.0419 61.1986 47.0729 58.1325 43.7801 62.0056C40.4873 65.8788 45.1178 75.2245 54.1225 82.8798Z" fill="#FCEDB6" stroke="#F2D891" stroke-width="0.173864" stroke-miterlimit="10"/>
<path d="M54.6362 81.8384C62.8115 88.7887 71.7169 91.7436 74.5268 88.4383C77.3368 85.1331 72.9873 76.8193 64.812 69.869C56.6367 62.9187 47.7313 59.9639 44.9214 63.2691C42.1114 66.5744 46.4609 74.8881 54.6362 81.8384Z" fill="#F2D891"/>
<g style="mix-blend-mode:multiply" opacity="0.5">
<path fill-rule="evenodd" clip-rule="evenodd" d="M71.15 89.7612C67.3304 88.7515 62.5515 86.1116 57.9937 82.2367C49.8183 75.2865 45.4499 66.995 48.2365 63.7172C48.9758 62.8476 50.1445 62.4182 51.6154 62.3865C48.5838 61.5852 46.1564 61.8109 44.9234 63.2613C42.1368 66.5391 46.5052 74.8306 54.6805 81.7808C60.6869 86.8872 67.077 89.8489 71.15 89.7612Z" fill="#E5C267"/>
</g>
</g>
<defs>
<clipPath id="clip0_867_11963">
<rect width="86.9482" height="123.159" fill="white" transform="translate(0 49)"/>
</clipPath>
</defs>
</svg>
