<svg width="102" height="80" viewBox="0 0 102 80" fill="none" xmlns="http://www.w3.org/2000/svg">
<path d="M91.5239 72.8735C91.574 75.0497 71.8253 77.2644 47.4147 77.8264C23.0042 78.3885 0.907803 77.1372 0.857697 74.961C0.807591 72.7848 22.823 70.5179 47.2335 69.9558C71.6441 69.3938 91.4739 70.7012 91.5239 72.8735Z" fill="#293B35"/>
<path d="M90.5942 16.2775C89.6198 10.5664 84.549 6.47186 78.7608 6.72239L23.4417 9.11677C16.5342 9.41574 11.4502 15.6986 12.5988 22.5164L20.3227 68.3653C21.2948 74.1353 26.4444 78.2555 32.287 77.9379L87.6002 74.9318C94.4628 74.5589 99.4682 68.2895 98.3123 61.5147L90.5942 16.2775Z" fill="#CBD5CA" stroke="#1D1D1D"/>
<path d="M91.7868 14.5379C90.8116 8.82729 85.7407 4.73365 79.9529 4.98452L25.201 7.35768C18.2932 7.6571 13.2094 13.9409 14.3591 20.759L21.9863 65.9929C22.9591 71.7623 28.1086 75.8816 33.9507 75.5638L88.6968 72.5862C95.5598 72.213 100.565 65.9425 99.4081 59.1674L91.7868 14.5379Z" fill="#CBD5CA" stroke="#1D1D1D"/>
<path d="M91.2045 12.7282C90.3835 8.03365 86.2113 4.67391 81.4496 4.87303L25.2048 7.22507C19.4774 7.46458 15.2652 12.6835 16.2401 18.3323L24.3089 65.0882C25.1278 69.8336 29.3678 73.2156 34.1764 72.9592L90.4158 69.96C96.1048 69.6567 100.249 64.4489 99.2679 58.837L91.2045 12.7282Z" fill="white" stroke="#1D1D1D"/>
<path d="M81.4496 4.87303L25.2047 7.22507C19.4774 7.46457 15.2652 12.6835 16.2401 18.3323L17.2342 24.0931L92.5093 20.1893L91.2045 12.7282C90.3835 8.03364 86.2113 4.6739 81.4496 4.87303Z" fill="#CBD5CA" stroke="#1D1D1D"/>
<circle cx="40.8792" cy="15.3846" r="3.07692" fill="#1D1D1D"/>
<circle cx="70.7692" cy="13.6264" r="3.07692" fill="#1D1D1D"/>
<path d="M38.4748 2.25826C42.6946 2.25826 46.0934 5.58883 46.0934 9.67034C46.0934 13.217 43.5281 16.1958 40.0861 16.9164L39.58 15.4855C42.388 14.979 44.5296 12.577 44.5296 9.67034C44.5296 6.39232 41.8065 3.75681 38.4748 3.75681C36.2548 3.75681 34.3093 4.92459 33.255 6.67179H31.5052C32.6869 4.07653 35.3589 2.25826 38.4748 2.25826Z" fill="#FAE3C3" stroke="#1D1D1D"/>
<path d="M67.9368 1.37912C71.9046 1.37912 75.1044 4.53086 75.1044 8.39825C75.1044 11.75 72.7017 14.5638 69.4774 15.255L69.0164 13.9433C71.6677 13.4477 73.6831 11.1603 73.6831 8.39825C73.6831 5.27161 71.1011 2.75358 67.9368 2.75358C65.8344 2.75358 63.9923 3.86354 62.9904 5.52379H61.3957C62.5158 3.08379 65.0203 1.37912 67.9368 1.37912Z" fill="#FAE3C3" stroke="#1D1D1D"/>
<path d="M51.4978 35.9163L48.9006 36.0353L47.5397 28.4847L50.1892 28.3633C50.9502 28.3284 51.6311 28.4496 52.232 28.7269C52.8349 29.0017 53.3343 29.4137 53.7301 29.9631C54.126 30.5125 54.3945 31.1792 54.5359 31.9632C54.6776 32.7498 54.651 33.4325 54.456 34.0114C54.2635 34.5902 53.9163 35.0435 53.4145 35.3713C52.9151 35.699 52.2762 35.8807 51.4978 35.9163ZM50.0757 34.7882L51.2171 34.736C51.751 34.7115 52.1791 34.5952 52.5013 34.3872C52.8231 34.1767 53.0392 33.8756 53.1497 33.4839C53.2598 33.0898 53.2628 32.6039 53.1587 32.0263C53.0546 31.4487 52.8784 30.9735 52.6301 30.6008C52.3813 30.2256 52.064 29.9514 51.6781 29.7783C51.2943 29.6026 50.8429 29.5266 50.324 29.5504L49.1414 29.6045L50.0757 34.7882Z" fill="#1D1D1D"/>
<path d="M56.9584 35.6662L55.5974 28.1155L60.5822 27.8872L60.7889 29.0338L57.1925 29.1986L57.562 31.2484L60.9001 31.0955L61.1068 32.2421L57.7686 32.395L58.1401 34.456L61.7664 34.2899L61.9731 35.4365L56.9584 35.6662Z" fill="#1D1D1D"/>
<path d="M69.4397 30.0501L68.0401 30.1142C67.9594 29.8899 67.8497 29.693 67.711 29.5234C67.5718 29.3513 67.4113 29.2075 67.2295 29.0919C67.0476 28.9763 66.8489 28.8925 66.6332 28.8404C66.4196 28.7858 66.1956 28.7638 65.9611 28.7746C65.5444 28.7937 65.1938 28.9138 64.9091 29.135C64.6241 29.3538 64.4261 29.6652 64.3153 30.0692C64.2041 30.4708 64.1996 30.9555 64.302 31.5233C64.4061 32.1009 64.5849 32.5834 64.8383 32.9708C65.0938 33.3556 65.3994 33.6414 65.7551 33.8284C66.1128 34.0127 66.4987 34.0954 66.9129 34.0764C67.1424 34.0659 67.3517 34.0266 67.5406 33.9585C67.7316 33.8877 67.8964 33.7897 68.0348 33.6645C68.1757 33.539 68.2855 33.3878 68.3643 33.2107C68.4455 33.0335 68.4874 32.8334 68.49 32.6102L69.8909 32.5535C69.9032 32.9147 69.8504 33.2566 69.7324 33.5793C69.617 33.9017 69.4413 34.1898 69.2053 34.4435C68.9688 34.6947 68.6757 34.8965 68.3258 35.0488C67.9755 35.1987 67.572 35.2841 67.1155 35.305C66.4419 35.3359 65.8129 35.2098 65.2286 34.9268C64.6443 34.6438 64.1477 34.2192 63.7388 33.6531C63.3298 33.087 63.0523 32.3983 62.9061 31.5872C62.7594 30.7737 62.7875 30.0711 62.9903 29.4794C63.1926 28.8853 63.5305 28.4225 64.0041 28.091C64.4776 27.7596 65.0487 27.5785 65.7173 27.5479C66.1439 27.5283 66.5513 27.5692 66.9393 27.6703C67.3273 27.7715 67.6853 27.9298 68.0135 28.1453C68.3411 28.3582 68.627 28.6252 68.8709 28.9461C69.117 29.2644 69.3066 29.6324 69.4397 30.0501Z" fill="#1D1D1D"/>
<path d="M57.4403 61.5752C60.5745 61.4071 62.3087 59.573 61.8075 56.9119C61.2893 54.16 58.848 52.7331 55.3143 52.9226L53.6243 53.0133L53.2712 51.1384L54.7154 51.0609C58.3413 50.8665 59.7761 48.9262 59.349 46.6582C58.9048 44.2995 56.7013 42.982 54.1817 43.1171C51.3855 43.2671 49.8607 45.0594 49.9532 47.5287L47.388 47.4219C47.309 44.0356 49.5632 41.5016 53.865 41.2708C57.8903 41.055 61.1831 43.0471 61.8379 46.5247C62.3504 49.2463 60.8371 51.0992 58.4757 51.7451L58.4871 51.8056C61.0386 52.0047 63.6815 53.5124 64.3136 56.8691C65.0368 60.7096 62.2796 63.2095 57.8241 63.4485C53.3686 63.6874 49.8403 61.433 48.7131 57.9196L51.0279 57.5206C51.9091 60.2224 54.5212 61.7318 57.4403 61.5752Z" fill="#1D1D1D"/>
<path d="M74.2507 62.2009L71.3294 46.6877L65.5219 46.9992L65.1688 45.1243L67.2275 45.0138C69.9623 44.8672 71.3837 44.6688 70.8769 41.9774L70.6377 40.7073L72.6043 40.6018L76.6475 62.0724L74.2507 62.2009Z" fill="#1D1D1D"/>
</svg>
