<svg width="80" height="81" viewBox="0 0 80 81" fill="none" xmlns="http://www.w3.org/2000/svg">
<g id="Piggy bank - orange">
<g id="Group 986043">
<g id="Vector" style="mix-blend-mode:multiply">
<path d="M12.6748 72.2763C12.6748 73.5431 25.8421 74.5672 42.0843 74.5672C58.3265 74.5672 73.002 73.5431 73.002 72.2763C73.002 71.0094 58.3265 69.9854 42.0843 69.9854C25.8421 69.9854 12.6748 71.0117 12.6748 72.2763Z" fill="#90B3A8"/>
</g>
<g id="Group 986039">
<path id="Vector 399" d="M63.5075 66.1109L64.1819 67.8435C64.4837 68.6186 64.6647 69.5551 64.0483 70.1136C62.6363 71.393 59.1132 71.3417 57.3021 69.1167C57.0605 68.8199 56.9048 68.4648 56.7815 68.1026L54.2083 60.5465C53.797 59.3387 54.6064 58.0599 55.8739 57.9147L60.4002 57.3963C61.6082 57.2579 62.649 58.2211 62.6588 59.437C62.6766 61.6543 62.8727 63.4294 63.5075 66.1109Z" fill="#FAD1B4" stroke="#1D1D1D" stroke-width="0.3"/>
<path id="Vector 400" d="M37.7715 67.5115L38.4848 69.5215C38.7324 70.2194 38.9032 71.0345 38.4259 71.6006C37.1961 73.0592 33.7283 73.0208 31.9772 70.5477C31.7758 70.2633 31.6445 69.9359 31.5407 69.6032L28.9819 61.3985C28.6091 60.203 29.4141 58.9628 30.6578 58.8167L34.647 58.348C35.8465 58.2071 36.8883 59.1539 36.9059 60.3614C36.9407 62.753 37.1384 64.6354 37.7715 67.5115Z" fill="#FAD1B4" stroke="#1D1D1D" stroke-width="0.3"/>
<path id="Vector 401" d="M58.6978 69.4956L59.1827 70.6361C59.5448 71.4876 59.7334 72.5264 59.0327 73.1308C57.2643 74.6561 52.7005 74.6612 50.4222 72.095C50.1467 71.7847 49.9636 71.4063 49.8194 71.0171L46.5497 62.1897C46.0982 60.971 46.9108 59.6523 48.2023 59.5075L55.0941 58.7349C56.3114 58.5984 57.3554 59.5788 57.3454 60.8037C57.3259 63.1934 57.4981 65.0924 58.1183 67.7506C58.2578 68.3482 58.4577 68.9309 58.6978 69.4956Z" fill="#FFE4D1" stroke="#1D1D1D" stroke-width="0.3"/>
<path id="Vector 402" d="M32.0806 69.4956L32.5655 70.6361C32.9276 71.4876 33.1162 72.5264 32.4155 73.1308C30.6471 74.6561 26.0833 74.6612 23.805 72.095C23.5295 71.7847 23.3464 71.4063 23.2022 71.0171L19.9325 62.1897C19.4811 60.971 20.2936 59.6523 21.5851 59.5075L28.4769 58.7349C29.6942 58.5984 30.7382 59.5788 30.7282 60.8037C30.7087 63.1934 30.8809 65.0924 31.5012 67.7506C31.6406 68.3482 31.8405 68.9309 32.0806 69.4956Z" fill="#FFE4D1" stroke="#1D1D1D" stroke-width="0.3"/>
<g id="Union">
<mask id="path-6-inside-1_796_12847" fill="white">
<path fill-rule="evenodd" clip-rule="evenodd" d="M52.1801 23.7463C55.0011 20.4375 57.482 18.5063 59.8266 18.2938C60.4764 18.2349 60.8388 18.9283 60.5847 19.5293C59.454 22.2039 59.0384 24.2734 59.0153 27.6229C62.672 29.5777 65.431 32.0986 66.8879 34.9487L73.0187 35.4324C73.0832 35.4375 73.1482 35.4348 73.2129 35.4322L73.2417 35.431C75.9329 35.3274 78.7113 45.415 76.7106 47.1298C76.6666 47.1676 76.6158 47.1964 76.5638 47.222C72.46 49.2358 70.5369 50.9387 68.669 53.6941C68.2035 54.7871 67.642 55.8294 66.9951 56.8104C63.6946 63.6104 53.0096 68.5907 40.338 68.5907C27.6671 68.5907 16.9826 63.6109 13.6815 56.8115C11.633 53.7055 10.4408 49.985 10.4408 45.9859C10.4408 41.9842 11.6347 38.2612 13.6857 35.1539C13.693 35.139 13.7003 35.1241 13.7076 35.1092C13.4429 34.3237 13.0489 33.6963 12.5329 33.2059C12.49 33.9478 12.3313 34.7088 12.0474 35.4675C11.8217 36.392 11.354 37.2983 10.6451 38.0834C8.5824 40.3676 5.25834 40.7605 3.22058 38.9609C1.18282 37.1614 1.20302 33.8508 3.26569 31.5666C4.36479 30.3494 5.82204 29.6693 7.252 29.5717C7.68722 29.5015 8.11639 29.462 8.53747 29.4516C7.17459 28.4162 4.95277 28.319 2.01933 28.8139C1.20335 28.9515 0.631432 27.9448 1.20609 27.3494C1.47817 27.0675 1.813 26.8461 2.18646 26.7277C7.03443 25.1909 10.6333 27.0523 11.9731 30.0571C13.3312 30.6031 14.4852 31.4917 15.3224 32.6211C19.7813 27.1578 29.3069 23.3835 40.338 23.3835C41.6695 23.3835 42.979 23.4385 44.2604 23.5448C47.4642 19.2331 50.3259 16.8462 53.0515 16.8135C53.6541 16.8063 53.9909 17.4373 53.7893 18.0053C53.0566 20.0691 52.535 21.8753 52.1801 23.7463ZM8.94923 36.63C7.7787 37.9262 5.95628 38.2056 4.87873 37.254C3.80119 36.3024 3.87656 34.4802 5.04708 33.184C6.21761 31.8877 8.04003 31.6083 9.11758 32.5599C10.1951 33.5115 10.1198 35.3338 8.94923 36.63Z"/>
</mask>
<path fill-rule="evenodd" clip-rule="evenodd" d="M52.1801 23.7463C55.0011 20.4375 57.482 18.5063 59.8266 18.2938C60.4764 18.2349 60.8388 18.9283 60.5847 19.5293C59.454 22.2039 59.0384 24.2734 59.0153 27.6229C62.672 29.5777 65.431 32.0986 66.8879 34.9487L73.0187 35.4324C73.0832 35.4375 73.1482 35.4348 73.2129 35.4322L73.2417 35.431C75.9329 35.3274 78.7113 45.415 76.7106 47.1298C76.6666 47.1676 76.6158 47.1964 76.5638 47.222C72.46 49.2358 70.5369 50.9387 68.669 53.6941C68.2035 54.7871 67.642 55.8294 66.9951 56.8104C63.6946 63.6104 53.0096 68.5907 40.338 68.5907C27.6671 68.5907 16.9826 63.6109 13.6815 56.8115C11.633 53.7055 10.4408 49.985 10.4408 45.9859C10.4408 41.9842 11.6347 38.2612 13.6857 35.1539C13.693 35.139 13.7003 35.1241 13.7076 35.1092C13.4429 34.3237 13.0489 33.6963 12.5329 33.2059C12.49 33.9478 12.3313 34.7088 12.0474 35.4675C11.8217 36.392 11.354 37.2983 10.6451 38.0834C8.5824 40.3676 5.25834 40.7605 3.22058 38.9609C1.18282 37.1614 1.20302 33.8508 3.26569 31.5666C4.36479 30.3494 5.82204 29.6693 7.252 29.5717C7.68722 29.5015 8.11639 29.462 8.53747 29.4516C7.17459 28.4162 4.95277 28.319 2.01933 28.8139C1.20335 28.9515 0.631432 27.9448 1.20609 27.3494C1.47817 27.0675 1.813 26.8461 2.18646 26.7277C7.03443 25.1909 10.6333 27.0523 11.9731 30.0571C13.3312 30.6031 14.4852 31.4917 15.3224 32.6211C19.7813 27.1578 29.3069 23.3835 40.338 23.3835C41.6695 23.3835 42.979 23.4385 44.2604 23.5448C47.4642 19.2331 50.3259 16.8462 53.0515 16.8135C53.6541 16.8063 53.9909 17.4373 53.7893 18.0053C53.0566 20.0691 52.535 21.8753 52.1801 23.7463ZM8.94923 36.63C7.7787 37.9262 5.95628 38.2056 4.87873 37.254C3.80119 36.3024 3.87656 34.4802 5.04708 33.184C6.21761 31.8877 8.04003 31.6083 9.11758 32.5599C10.1951 33.5115 10.1198 35.3338 8.94923 36.63Z" fill="#FFE4D1"/>
<path d="M59.8266 18.2938L59.8537 18.5926L59.8266 18.2938ZM52.1801 23.7463L52.4084 23.9409L51.6746 24.8016L51.8853 23.6904L52.1801 23.7463ZM60.5847 19.5293L60.3084 19.4125V19.4125L60.5847 19.5293ZM59.0153 27.6229L58.8738 27.8875L58.714 27.8021L58.7153 27.6208L59.0153 27.6229ZM66.8879 34.9487L66.8643 35.2478L66.6971 35.2346L66.6208 35.0853L66.8879 34.9487ZM73.0187 35.4324L72.9951 35.7315L72.9951 35.7315L73.0187 35.4324ZM73.2129 35.4322L73.2006 35.1324L73.2009 35.1324L73.2129 35.4322ZM73.2417 35.431L73.2297 35.1313L73.2302 35.1312L73.2417 35.431ZM76.7106 47.1298L76.5154 46.9021L76.5154 46.9021L76.7106 47.1298ZM76.5638 47.222L76.696 47.4913H76.696L76.5638 47.222ZM68.669 53.6941L68.3929 53.5765L68.4043 53.5498L68.4206 53.5258L68.669 53.6941ZM66.9951 56.8104L66.7252 56.6794L66.7338 56.6617L66.7446 56.6453L66.9951 56.8104ZM13.6815 56.8115L13.9319 56.6463L13.9428 56.6628L13.9514 56.6805L13.6815 56.8115ZM13.6857 35.1539L13.9555 35.2852L13.9469 35.3028L13.9361 35.3192L13.6857 35.1539ZM13.7076 35.1092L13.9919 35.0134L14.0314 35.1306L13.9769 35.2416L13.7076 35.1092ZM12.5329 33.2059L12.2334 33.1885L12.2708 32.5428L12.7396 32.9884L12.5329 33.2059ZM12.0474 35.4675L11.756 35.3963L11.7602 35.379L11.7665 35.3623L12.0474 35.4675ZM10.6451 38.0834L10.8677 38.2845L10.6451 38.0834ZM3.26569 31.5666L3.04303 31.3655V31.3655L3.26569 31.5666ZM7.252 29.5717L7.2998 29.8679L7.28619 29.8701L7.27242 29.871L7.252 29.5717ZM8.53747 29.4516L8.71895 29.2127L9.4002 29.7302L8.54492 29.7515L8.53747 29.4516ZM2.01933 28.8139L2.06924 29.1097L2.01933 28.8139ZM1.20609 27.3494L0.990227 27.1411L0.990234 27.1411L1.20609 27.3494ZM2.18646 26.7277L2.27711 27.0137L2.18646 26.7277ZM11.9731 30.0571L11.8612 30.3355L11.7485 30.2902L11.6991 30.1793L11.9731 30.0571ZM15.3224 32.6211L15.5548 32.8108L15.311 33.1095L15.0814 32.7998L15.3224 32.6211ZM44.2604 23.5448L44.5012 23.7237L44.4017 23.8576L44.2356 23.8438L44.2604 23.5448ZM53.0515 16.8135L53.0479 16.5136L53.0515 16.8135ZM53.7893 18.0053L53.5066 17.9049V17.9049L53.7893 18.0053ZM4.87873 37.254L5.07732 37.0292L4.87873 37.254ZM8.94923 36.63L9.17188 36.8311L8.94923 36.63ZM5.04708 33.184L5.26974 33.385L5.04708 33.184ZM9.11758 32.5599L9.31616 32.3351L9.11758 32.5599ZM59.8537 18.5926C58.7538 18.6923 57.5985 19.1975 56.3587 20.1013C55.1192 21.005 53.8111 22.2957 52.4084 23.9409L51.9518 23.5517C53.3701 21.8881 54.7129 20.5588 56.0053 19.6165C57.2974 18.6745 58.5549 18.1078 59.7995 17.995L59.8537 18.5926ZM60.3084 19.4125C60.3999 19.1961 60.3764 18.9718 60.2852 18.8148C60.1985 18.6655 60.0524 18.5745 59.8537 18.5926L59.7995 17.995C60.2507 17.9541 60.6106 18.1805 60.804 18.5134C60.9929 18.8386 61.0236 19.2615 60.861 19.6461L60.3084 19.4125ZM58.7153 27.6208C58.7387 24.2363 59.1607 22.1273 60.3084 19.4125L60.861 19.6461C59.7473 22.2806 59.3382 24.3105 59.3153 27.625L58.7153 27.6208ZM66.6208 35.0853C65.2001 32.306 62.4955 29.8235 58.8738 27.8875L59.1567 27.3583C62.8486 29.3319 65.6619 31.8911 67.1551 34.8122L66.6208 35.0853ZM72.9951 35.7315L66.8643 35.2478L66.9115 34.6497L73.0423 35.1334L72.9951 35.7315ZM73.2253 35.7319C73.1636 35.7345 73.0805 35.7382 72.9951 35.7315L73.0423 35.1334C73.0858 35.1368 73.1328 35.1352 73.2006 35.1324L73.2253 35.7319ZM73.2538 35.7308L73.225 35.7319L73.2009 35.1324L73.2297 35.1313L73.2538 35.7308ZM76.5154 46.9021C76.6991 46.7446 76.8526 46.4674 76.9553 46.0576C77.0571 45.6519 77.1014 45.1459 77.0911 44.5692C77.0705 43.4166 76.8325 42.0247 76.4472 40.6812C76.0617 39.3368 75.5346 38.0609 74.9471 37.1348C74.6531 36.6713 74.3516 36.3077 74.0557 36.0659C73.7593 35.8238 73.4912 35.7216 73.2533 35.7308L73.2302 35.1312C73.6651 35.1145 74.0724 35.3049 74.4353 35.6013C74.7986 35.8981 75.1401 36.319 75.4538 36.8134C76.0816 37.8031 76.6286 39.1369 77.024 40.5158C77.4197 41.8956 77.6693 43.3407 77.691 44.5585C77.7019 45.1671 77.6561 45.7297 77.5373 46.2035C77.4196 46.6732 77.2223 47.0864 76.9058 47.3576L76.5154 46.9021ZM76.4316 46.9527C76.4744 46.9317 76.4993 46.9158 76.5154 46.9021L76.9058 47.3576C76.8339 47.4193 76.7573 47.4612 76.696 47.4913L76.4316 46.9527ZM68.4206 53.5258C70.3226 50.7201 72.2892 48.9854 76.4316 46.9527L76.696 47.4913C72.6308 49.4862 70.7512 51.1572 68.9173 53.8624L68.4206 53.5258ZM66.7446 56.6453C67.3817 55.6792 67.9346 54.6528 68.3929 53.5765L68.945 53.8116C68.4723 54.9214 67.9023 55.9796 67.2455 56.9756L66.7446 56.6453ZM40.338 68.2907C46.6363 68.2907 52.4329 67.0527 57.0579 64.9768C61.6878 62.8987 65.1163 59.9941 66.7252 56.6794L67.265 56.9414C65.5733 60.4267 62.0091 63.4122 57.3035 65.5242C52.593 67.6385 46.7113 68.8907 40.338 68.8907V68.2907ZM13.9514 56.6805C15.5605 59.9949 18.9891 62.8993 23.6189 64.9772C28.2438 67.0528 34.0401 68.2907 40.338 68.2907V68.8907C33.965 68.8907 28.0837 67.6386 23.3733 65.5246C18.6679 63.4128 15.1036 60.4275 13.4116 56.9425L13.9514 56.6805ZM10.7408 45.9859C10.7408 49.9244 11.9148 53.5878 13.9319 56.6463L13.4311 56.9767C11.3513 53.8232 10.1408 50.0455 10.1408 45.9859H10.7408ZM13.9361 35.3192C11.9164 38.379 10.7408 42.0447 10.7408 45.9859H10.1408C10.1408 41.9236 11.3529 38.1435 13.4354 34.9887L13.9361 35.3192ZM13.9769 35.2416C13.9697 35.2561 13.9626 35.2707 13.9555 35.2852L13.416 35.0227C13.4234 35.0074 13.4309 34.9921 13.4384 34.9768L13.9769 35.2416ZM13.4234 35.205C13.1724 34.4606 12.803 33.8765 12.3262 33.4233L12.7396 32.9884C13.2947 33.5161 13.7134 34.1869 13.9919 35.0134L13.4234 35.205ZM12.8324 33.2232C12.7877 33.996 12.6226 34.7865 12.3284 35.5726L11.7665 35.3623C12.0401 34.6311 12.1923 33.8996 12.2334 33.1885L12.8324 33.2232ZM12.3389 35.5386C12.1012 36.5119 11.6097 37.4628 10.8677 38.2845L10.4224 37.8824C11.0983 37.1339 11.5421 36.2721 11.756 35.3963L12.3389 35.5386ZM10.8677 38.2845C8.71865 40.6644 5.20796 41.1163 3.022 39.1858L3.41917 38.7361C5.30872 40.4047 8.44614 40.0709 10.4224 37.8824L10.8677 38.2845ZM3.022 39.1858C0.833244 37.2529 0.893021 33.7465 3.04303 31.3655L3.48834 31.7676C1.51302 33.9551 1.5324 37.0698 3.41917 38.7361L3.022 39.1858ZM3.04303 31.3655C4.19295 30.0921 5.72209 29.3754 7.23158 29.2724L7.27242 29.871C5.922 29.9632 4.53664 30.6068 3.48834 31.7676L3.04303 31.3655ZM7.20419 29.2756C7.65262 29.2032 8.09527 29.1625 8.53001 29.1517L8.54492 29.7515C8.1375 29.7616 7.72182 29.7998 7.2998 29.8679L7.20419 29.2756ZM8.35599 29.6905C7.73459 29.2184 6.89966 28.9467 5.84222 28.8578C4.78454 28.7689 3.52318 28.8644 2.06924 29.1097L1.96943 28.518C3.44892 28.2684 4.76519 28.1651 5.8925 28.2599C7.02005 28.3548 7.97747 28.6494 8.71895 29.2127L8.35599 29.6905ZM2.06924 29.1097C1.51747 29.2028 1.05473 28.905 0.829529 28.5032C0.603325 28.0997 0.595383 27.5502 0.990227 27.1411L1.42196 27.5578C1.24214 27.7441 1.23283 27.9956 1.35291 28.2099C1.474 28.4259 1.70522 28.5626 1.96943 28.518L2.06924 29.1097ZM0.990234 27.1411C1.29253 26.8279 1.66908 26.577 2.09581 26.4418L2.27711 27.0137C1.95691 27.1152 1.66382 27.3072 1.42195 27.5578L0.990234 27.1411ZM2.09581 26.4418C7.06181 24.8675 10.8341 26.7658 12.2471 29.9349L11.6991 30.1793C10.4326 27.3387 7.00706 25.5143 2.27711 27.0137L2.09581 26.4418ZM12.085 29.7788C13.4931 30.3449 14.6924 31.2674 15.5634 32.4425L15.0814 32.7998C14.2781 31.7161 13.1692 30.8613 11.8612 30.3355L12.085 29.7788ZM40.338 23.6835C29.3572 23.6835 19.9356 27.4432 15.5548 32.8108L15.09 32.4314C19.6271 26.8724 29.2567 23.0835 40.338 23.0835V23.6835ZM44.2356 23.8438C42.9625 23.7382 41.6612 23.6835 40.338 23.6835V23.0835C41.6777 23.0835 42.9956 23.1388 44.2852 23.2458L44.2356 23.8438ZM53.0551 17.1135C51.7814 17.1288 50.447 17.6943 49.0201 18.8108C47.5933 19.9273 46.0954 21.5782 44.5012 23.7237L44.0196 23.3659C45.6292 21.1997 47.1639 19.5014 48.6504 18.3383C50.1367 17.1753 51.5959 16.531 53.0479 16.5136L53.0551 17.1135ZM53.5066 17.9049C53.5784 17.7025 53.5517 17.4955 53.4636 17.3461C53.3787 17.2021 53.2391 17.1113 53.0551 17.1135L53.0479 16.5136C53.4665 16.5085 53.7967 16.7297 53.9804 17.0413C54.161 17.3476 54.2018 17.7401 54.072 18.1056L53.5066 17.9049ZM51.8853 23.6904C52.2438 21.8003 52.7703 19.9788 53.5066 17.9049L54.072 18.1056C53.3429 20.1594 52.8261 21.9503 52.4748 23.8022L51.8853 23.6904ZM5.07732 37.0292C5.99331 37.8381 7.62846 37.645 8.72657 36.4289L9.17188 36.8311C7.92894 38.2075 5.91924 38.5732 4.68015 37.4789L5.07732 37.0292ZM5.26974 33.385C4.1721 34.6006 4.16455 36.2231 5.07732 37.0292L4.68015 37.4789C3.43782 36.3818 3.58102 34.3599 4.82442 32.9829L5.26974 33.385ZM8.91899 32.7848C8.003 31.9759 6.36784 32.169 5.26974 33.385L4.82442 32.9829C6.06737 31.6065 8.07706 31.2408 9.31616 32.3351L8.91899 32.7848ZM8.72657 36.4289C9.82421 35.2134 9.83176 33.5909 8.91899 32.7848L9.31616 32.3351C10.5585 33.4322 10.4153 35.4541 9.17188 36.8311L8.72657 36.4289Z" fill="#1D1D1D" mask="url(#path-6-inside-1_796_12847)"/>
</g>
<g id="Subtract" style="mix-blend-mode:multiply">
<path fill-rule="evenodd" clip-rule="evenodd" d="M68.1309 53.0803C63.5222 58.9681 52.912 63.0881 40.5594 63.0881C28.0742 63.0881 17.3689 58.879 12.8415 52.8899C12.6452 52.655 12.4541 52.4156 12.2685 52.1719C12.8466 53.7376 13.6139 55.2116 14.5426 56.5663C18.1218 63.1768 28.3375 67.9475 40.3813 67.9475C52.4351 67.9475 62.6578 63.1688 66.2289 56.5498C66.9711 55.465 67.6098 54.3037 68.1309 53.0803Z" fill="#FFE4D1"/>
</g>
<path id="Ellipse 190" d="M72.6267 42.0659C73.0535 43.6644 73.7135 45.0312 74.4294 45.9491C74.7875 46.4083 75.155 46.7492 75.5084 46.9528C75.8612 47.1561 76.1898 47.2174 76.4826 47.1392C76.7755 47.061 77.0297 46.844 77.2342 46.492C77.4391 46.1393 77.5877 45.6606 77.6692 45.0839C77.8322 43.9313 77.7228 42.4174 77.296 40.8189C76.8691 39.2204 76.2092 37.8536 75.4932 36.9357C75.1351 36.4765 74.7676 36.1356 74.4142 35.9319C74.0615 35.7287 73.7328 35.6674 73.44 35.7456C73.1471 35.8238 72.8929 36.0408 72.6884 36.3928C72.4836 36.7455 72.3349 37.2242 72.2534 37.8009C72.0904 38.9535 72.1998 40.4673 72.6267 42.0659Z" fill="#F2B98F" stroke="#1D1D1D" stroke-width="0.3"/>
<ellipse id="Ellipse 191" cx="0.407175" cy="1.05293" rx="0.407175" ry="1.05293" transform="matrix(-0.966144 0.258005 0.258005 0.966144 76.1836 39.3447)" fill="#1D1D1D"/>
<ellipse id="Ellipse 192" cx="0.407175" cy="1.08433" rx="0.407175" ry="1.08433" transform="matrix(-0.966144 0.258005 0.258005 0.966144 74.3594 39.7822)" fill="#1D1D1D"/>
<ellipse id="Ellipse 193" cx="1.11365" cy="1.69468" rx="1.11365" ry="1.69468" transform="matrix(-0.966144 0.258005 0.258005 0.966144 62.4473 35.7666)" fill="#1D1D1D"/>
<path id="Vector 397" d="M52.2584 28.4013C50.5965 24.8306 51.655 21.6826 53.0773 18.3026C53.2388 17.9189 52.8969 17.543 52.5308 17.7413C49.5167 19.3734 46.9181 24.8409 47.4209 31.4644C47.4412 31.7321 47.6753 31.9338 47.9423 31.9068C49.9342 31.7057 50.8175 30.9842 52.2236 28.9037C52.3238 28.7554 52.334 28.5636 52.2584 28.4013Z" fill="#AC590C"/>
<path id="Vector 396" d="M59.7217 20.0063C58.5526 22.4862 58.2901 24.8246 58.2235 27.4468C58.2188 27.6325 58.1137 27.8037 57.9409 27.8721C56.9736 28.2547 55.78 28.2292 54.6856 27.5785C54.5029 27.4698 54.4279 27.2472 54.4902 27.044C55.5537 23.5741 57.1969 20.8307 59.1356 19.4261C59.5211 19.1468 59.9246 19.5757 59.7217 20.0063Z" fill="#AC590C"/>
<g id="Rectangle 2262" style="mix-blend-mode:multiply">
<path d="M40.3648 26.8204C40.2552 26.4545 39.9598 26.1796 39.5935 26.1244C37.8625 25.8639 35.724 25.9562 33.7197 26.3059C31.7132 26.656 29.8601 27.2607 28.6926 28.0121C28.4604 28.1616 28.318 28.4197 28.2833 28.7095C28.2299 29.1551 28.4504 29.562 28.8063 29.8242C29.163 30.0868 29.6395 30.1913 30.0725 30.0439C32.6262 29.1747 36.2124 28.4438 38.9193 28.4957C39.3514 28.5039 39.7781 28.2911 40.0651 27.9655C40.3516 27.6406 40.4848 27.2212 40.3648 26.8204Z" fill="#FFE4D1"/>
<path d="M40.3648 26.8204C40.2552 26.4545 39.9598 26.1796 39.5935 26.1244C37.8625 25.8639 35.724 25.9562 33.7197 26.3059C31.7132 26.656 29.8601 27.2607 28.6926 28.0121C28.4604 28.1616 28.318 28.4197 28.2833 28.7095C28.2299 29.1551 28.4504 29.562 28.8063 29.8242C29.163 30.0868 29.6395 30.1913 30.0725 30.0439C32.6262 29.1747 36.2124 28.4438 38.9193 28.4957C39.3514 28.5039 39.7781 28.2911 40.0651 27.9655C40.3516 27.6406 40.4848 27.2212 40.3648 26.8204Z" stroke="#1D1D1D" stroke-width="0.3"/>
</g>
<path id="Rectangle 2265" d="M40.4352 27.0248C40.3564 26.5657 40.0497 26.1725 39.6065 26.0288C35.7681 24.7849 30.9951 25.8686 28.7376 27.8814C28.4231 28.1618 28.3111 28.5945 28.3824 29.0098C28.5425 29.9427 29.5594 30.4512 30.431 30.082C33.3424 28.8487 35.8488 28.4594 38.9293 28.651C39.8359 28.7073 40.5889 27.9201 40.4352 27.0248Z" fill="#1D1D1D"/>
<mask id="mask0_796_12847" style="mask-type:alpha" maskUnits="userSpaceOnUse" x="19" y="12" width="26" height="19">
<g id="Union_2">
<path fill-rule="evenodd" clip-rule="evenodd" d="M40.5663 27.3662L43.8942 14.7663C44.0523 14.1677 43.6338 13.5706 43.0171 13.515L32.9172 12.6046C32.7329 12.588 32.5477 12.6228 32.382 12.7053L20.1903 18.7703C19.6001 19.0638 19.4505 19.838 19.8886 20.3304L27.9605 29.4007C28.0317 29.4807 28.1132 29.5467 28.2015 29.5984C28.2026 29.606 28.2038 29.6136 28.205 29.6213C28.3056 30.2155 28.9255 30.5646 29.4929 30.3601C33.0432 29.0807 35.8855 28.6227 39.548 28.6224C40.1137 28.6224 40.5562 28.1275 40.4868 27.572C40.5203 27.5077 40.5471 27.4389 40.5663 27.3662Z" fill="#D9D9D9"/>
<path d="M43.8942 14.7663L44.0392 14.8047H44.0392L43.8942 14.7663ZM40.5663 27.3662L40.4213 27.3279L40.5663 27.3662ZM43.0171 13.515L43.0306 13.3656L43.0171 13.515ZM32.9172 12.6046L32.9307 12.4552L32.9172 12.6046ZM32.382 12.7053L32.4488 12.8396V12.8396L32.382 12.7053ZM20.1903 18.7703L20.2571 18.9046H20.2571L20.1903 18.7703ZM19.8886 20.3304L20.0007 20.2307L19.8886 20.3304ZM27.9605 29.4007L27.8485 29.5005H27.8485L27.9605 29.4007ZM28.2015 29.5984L28.2773 29.469L28.3396 29.5055L28.3499 29.5769L28.2015 29.5984ZM28.205 29.6213L28.0571 29.6463L28.0571 29.6463L28.205 29.6213ZM29.4929 30.3601L29.4421 30.219L29.4929 30.3601ZM39.548 28.6224L39.548 28.4724H39.548L39.548 28.6224ZM40.4868 27.572L40.338 27.5906L40.3322 27.5442L40.3537 27.5028L40.4868 27.572ZM44.0392 14.8047L40.7113 27.4045L40.4213 27.3279L43.7491 14.728L44.0392 14.8047ZM43.0306 13.3656C43.7398 13.4296 44.221 14.1162 44.0392 14.8047L43.7491 14.728C43.8835 14.2192 43.5278 13.7117 43.0036 13.6644L43.0306 13.3656ZM32.9307 12.4552L43.0306 13.3656L43.0036 13.6644L32.9037 12.754L32.9307 12.4552ZM32.3152 12.571C32.5057 12.4762 32.7188 12.4361 32.9307 12.4552L32.9037 12.754C32.7471 12.7399 32.5896 12.7695 32.4488 12.8396L32.3152 12.571ZM20.1235 18.636L32.3152 12.571L32.4488 12.8396L20.2571 18.9046L20.1235 18.636ZM19.7766 20.4301C19.2727 19.8639 19.4448 18.9736 20.1235 18.636L20.2571 18.9046C19.7555 19.1541 19.6282 19.8122 20.0007 20.2307L19.7766 20.4301ZM27.8485 29.5005L19.7766 20.4301L20.0007 20.2307L28.0726 29.301L27.8485 29.5005ZM28.1256 29.7278C28.024 29.6683 27.9303 29.5924 27.8485 29.5005L28.0726 29.301C28.1331 29.369 28.2023 29.4251 28.2773 29.469L28.1256 29.7278ZM28.3499 29.5769C28.3509 29.5834 28.3519 29.5899 28.3529 29.5962L28.0571 29.6463C28.0556 29.6374 28.0543 29.6286 28.053 29.6199L28.3499 29.5769ZM28.3529 29.5962C28.4374 30.0951 28.9596 30.3929 29.4421 30.219L29.5438 30.5012C28.8915 30.7363 28.1739 30.3358 28.0571 29.6463L28.3529 29.5962ZM29.4421 30.219C33.0095 28.9334 35.869 28.4727 39.548 28.4724L39.548 28.7724C35.9019 28.7727 33.0769 29.228 29.5438 30.5012L29.4421 30.219ZM39.548 28.4724C40.0254 28.4724 40.3959 28.0548 40.338 27.5906L40.6357 27.5534C40.7164 28.2003 40.2021 28.7724 39.548 28.7724L39.548 28.4724ZM40.7113 27.4045C40.6893 27.488 40.6584 27.5672 40.6199 27.6412L40.3537 27.5028C40.3821 27.4482 40.4049 27.3898 40.4213 27.3279L40.7113 27.4045Z" fill="black"/>
</g>
</mask>
<g mask="url(#mask0_796_12847)">
<g id="Group 986040">
<path id="Ellipse 196" d="M29.1619 28.489C29.1619 31.2319 31.4961 33.4676 34.3907 33.4676C37.2853 33.4676 39.6195 31.2319 39.6195 28.489C39.6195 25.746 37.2853 23.5104 34.3907 23.5104C31.4961 23.5104 29.1619 25.746 29.1619 28.489Z" fill="#E5C267" stroke="#1D1D1D" stroke-width="0.3"/>
<circle id="Ellipse 197" cx="4.87844" cy="4.87844" r="4.72844" transform="matrix(-1 0 0 1 38.5195 23.6025)" fill="white" stroke="#1D1D1D" stroke-width="0.3"/>
</g>
</g>
</g>
<g id="Group 986041">
<path id="Ellipse 196_2" d="M25.4006 15.6899C25.4006 18.1684 27.51 20.1897 30.1273 20.1897C32.7445 20.1897 34.8539 18.1684 34.8539 15.6899C34.8539 13.2113 32.7445 11.19 30.1273 11.19C27.51 11.19 25.4006 13.2113 25.4006 15.6899Z" fill="#E5C267" stroke="#1D1D1D" stroke-width="0.3"/>
<path id="Ellipse 197_2" d="M25.1731 15.6896C25.1731 18.0495 27.0862 19.9626 29.4461 19.9626C31.8061 19.9626 33.7191 18.0495 33.7191 15.6896C33.7191 13.3297 31.8061 11.4166 29.4461 11.4166C27.0862 11.4166 25.1731 13.3297 25.1731 15.6896Z" fill="white" stroke="#1D1D1D" stroke-width="0.3"/>
</g>
<g id="Group 986042">
<path id="Ellipse 196_3" d="M38.3967 9.23673C38.3967 11.7153 40.5061 13.7365 43.1234 13.7365C45.7406 13.7365 47.85 11.7153 47.85 9.23673C47.85 6.7582 45.7406 4.73691 43.1234 4.73691C40.5061 4.73691 38.3967 6.7582 38.3967 9.23673Z" fill="#E5C267" stroke="#1D1D1D" stroke-width="0.3"/>
<path id="Ellipse 197_3" d="M38.1692 9.23647C38.1692 11.5964 40.0823 13.5095 42.4422 13.5095C44.8021 13.5095 46.7152 11.5964 46.7152 9.23647C46.7152 6.87656 44.8021 4.96348 42.4422 4.96348C40.0823 4.96348 38.1692 6.87656 38.1692 9.23647Z" fill="white" stroke="#1D1D1D" stroke-width="0.3"/>
</g>
</g>
</g>
</svg>
