<svg width="89" height="88" viewBox="0 0 89 88" fill="none" xmlns="http://www.w3.org/2000/svg">
<g style="mix-blend-mode:multiply">
<path d="M74.5581 78.8584C74.5581 80.2519 60.0741 81.3784 42.2077 81.3784C24.3413 81.3784 8.19824 80.2519 8.19824 78.8584C8.19824 77.4648 24.3413 76.3384 42.2077 76.3384C60.0741 76.3384 74.5581 77.4673 74.5581 78.8584Z" fill="#90B3A8"/>
</g>
<path d="M18.6422 72.0765L17.9002 73.9823C17.5683 74.8349 17.3692 75.8651 18.0473 76.4794C19.6005 77.8868 23.4759 77.8303 25.4681 75.3829C25.7338 75.0564 25.9051 74.6658 26.0408 74.2673L28.8713 65.9556C29.3237 64.6271 28.4334 63.2204 27.0391 63.0607L22.0602 62.4904C20.7314 62.3382 19.5865 63.3978 19.5758 64.7352C19.5562 67.1742 19.3404 69.1268 18.6422 72.0765Z" fill="#ABE0C7" stroke="#1D1D1D" stroke-width="0.3"/>
<path d="M46.9522 73.6171L46.1675 75.828C45.8951 76.5957 45.7072 77.4923 46.2323 78.1151C47.5851 79.7195 51.3996 79.6773 53.3258 76.9569C53.5473 76.644 53.6918 76.2839 53.806 75.9179L56.6207 66.8928C57.0308 65.5777 56.1453 64.2135 54.7772 64.0528L50.389 63.5372C49.0696 63.3822 47.9237 64.4236 47.9043 65.752C47.866 68.3827 47.6486 70.4533 46.9522 73.6171Z" fill="#ABE0C7" stroke="#1D1D1D" stroke-width="0.3"/>
<path d="M23.9326 75.7997L23.3992 77.0542C23.0009 77.9909 22.7935 79.1336 23.5642 79.7984C25.5095 81.4762 30.5297 81.4818 33.0358 78.6591C33.3388 78.3178 33.5403 77.9014 33.6988 77.4734L37.2956 67.7632C37.7921 66.4227 36.8983 64.972 35.4776 64.8128L27.8967 63.9629C26.5577 63.8128 25.4092 64.8912 25.4202 66.2386C25.4418 68.8673 25.2523 70.9562 24.57 73.8802C24.4166 74.5375 24.1967 75.1785 23.9326 75.7997Z" fill="#DEF4E7" stroke="#1D1D1D" stroke-width="0.3"/>
<path d="M53.2119 75.7997L52.6785 77.0542C52.2802 77.9909 52.0728 79.1336 52.8435 79.7984C54.7888 81.4762 59.809 81.4818 62.3151 78.6591C62.6181 78.3178 62.8196 77.9014 62.9781 77.4734L66.5749 67.7632C67.0714 66.4227 66.1776 64.972 64.7569 64.8128L57.176 63.9629C55.837 63.8128 54.6885 64.8912 54.6995 66.2386C54.7211 68.8673 54.5316 70.9562 53.8493 73.8802C53.6959 74.5375 53.476 75.1785 53.2119 75.7997Z" fill="#DEF4E7" stroke="#1D1D1D" stroke-width="0.3"/>
<mask id="path-6-inside-1_405_28861" fill="white">
<path fill-rule="evenodd" clip-rule="evenodd" d="M31.1009 25.4757C27.9978 21.836 25.2688 19.7117 22.6898 19.4779C21.975 19.4131 21.5764 20.1759 21.8559 20.837C23.0996 23.7791 23.5568 26.0555 23.5822 29.74C19.5598 31.8903 16.5249 34.6632 14.9223 37.7984L8.17844 38.3305C8.10756 38.3361 8.03604 38.3331 7.96486 38.3302H7.96484L7.93313 38.3289C4.97282 38.2149 1.91661 49.3113 4.11736 51.1976C4.16579 51.2391 4.22159 51.2709 4.27884 51.299C8.79308 53.5142 10.9085 55.3874 12.9632 58.4184C13.4753 59.6207 14.0929 60.7671 14.8044 61.8462C18.435 69.3262 30.1884 74.8045 44.1272 74.8045C58.0652 74.8045 69.8182 69.3268 73.4494 61.8474C75.7027 58.4308 77.0142 54.3382 77.0142 49.9393C77.0142 45.5374 75.7009 41.4422 73.4447 38.0242C73.4367 38.0076 73.4286 37.9911 73.4205 37.9746C73.7117 37.1107 74.1451 36.4207 74.7126 35.8812C74.7599 36.6985 74.9348 37.5368 75.2479 38.3724C75.4965 39.3882 76.0107 40.3839 76.7897 41.2466C79.0586 43.7592 82.7151 44.1914 84.9566 42.2118C87.1982 40.2323 87.1759 36.5907 84.907 34.078C83.6978 32.739 82.0946 31.9909 80.5215 31.8837C80.0428 31.8064 79.5707 31.763 79.1076 31.7515C80.6068 30.6126 83.0508 30.5056 86.2775 31.05C87.1751 31.2015 87.8042 30.0941 87.1721 29.4392C86.8728 29.1291 86.5045 28.8855 86.0937 28.7553C80.7609 27.0648 76.8022 29.1123 75.3284 32.4176C73.8346 33.0182 72.5652 33.9956 71.6443 35.2379C66.7394 29.2283 56.2613 25.0767 44.1272 25.0767C42.6626 25.0767 41.2221 25.1371 39.8126 25.2541C36.2884 20.5112 33.1406 17.8857 30.1424 17.8497C29.4795 17.8417 29.109 18.5358 29.3308 19.1606C30.1368 21.4308 30.7106 23.4176 31.1009 25.4757ZM78.6551 39.6478C79.9427 41.0737 81.9473 41.381 83.1327 40.3342C84.318 39.2875 84.235 37.283 82.9475 35.8572C81.6599 34.4313 79.6552 34.124 78.4699 35.1707C77.2846 36.2175 77.3675 38.2219 78.6551 39.6478Z"/>
</mask>
<path fill-rule="evenodd" clip-rule="evenodd" d="M31.1009 25.4757C27.9978 21.836 25.2688 19.7117 22.6898 19.4779C21.975 19.4131 21.5764 20.1759 21.8559 20.837C23.0996 23.7791 23.5568 26.0555 23.5822 29.74C19.5598 31.8903 16.5249 34.6632 14.9223 37.7984L8.17844 38.3305C8.10756 38.3361 8.03604 38.3331 7.96486 38.3302H7.96484L7.93313 38.3289C4.97282 38.2149 1.91661 49.3113 4.11736 51.1976C4.16579 51.2391 4.22159 51.2709 4.27884 51.299C8.79308 53.5142 10.9085 55.3874 12.9632 58.4184C13.4753 59.6207 14.0929 60.7671 14.8044 61.8462C18.435 69.3262 30.1884 74.8045 44.1272 74.8045C58.0652 74.8045 69.8182 69.3268 73.4494 61.8474C75.7027 58.4308 77.0142 54.3382 77.0142 49.9393C77.0142 45.5374 75.7009 41.4422 73.4447 38.0242C73.4367 38.0076 73.4286 37.9911 73.4205 37.9746C73.7117 37.1107 74.1451 36.4207 74.7126 35.8812C74.7599 36.6985 74.9348 37.5368 75.2479 38.3724C75.4965 39.3882 76.0107 40.3839 76.7897 41.2466C79.0586 43.7592 82.7151 44.1914 84.9566 42.2118C87.1982 40.2323 87.1759 36.5907 84.907 34.078C83.6978 32.739 82.0946 31.9909 80.5215 31.8837C80.0428 31.8064 79.5707 31.763 79.1076 31.7515C80.6068 30.6126 83.0508 30.5056 86.2775 31.05C87.1751 31.2015 87.8042 30.0941 87.1721 29.4392C86.8728 29.1291 86.5045 28.8855 86.0937 28.7553C80.7609 27.0648 76.8022 29.1123 75.3284 32.4176C73.8346 33.0182 72.5652 33.9956 71.6443 35.2379C66.7394 29.2283 56.2613 25.0767 44.1272 25.0767C42.6626 25.0767 41.2221 25.1371 39.8126 25.2541C36.2884 20.5112 33.1406 17.8857 30.1424 17.8497C29.4795 17.8417 29.109 18.5358 29.3308 19.1606C30.1368 21.4308 30.7106 23.4176 31.1009 25.4757ZM78.6551 39.6478C79.9427 41.0737 81.9473 41.381 83.1327 40.3342C84.318 39.2875 84.235 37.283 82.9475 35.8572C81.6599 34.4313 79.6552 34.124 78.4699 35.1707C77.2846 36.2175 77.3675 38.2219 78.6551 39.6478Z" fill="#DEF4E7"/>
<path d="M22.6898 19.4779L22.7195 19.1493L22.6898 19.4779ZM31.1009 25.4757L30.8498 25.6898L31.657 26.6366L31.4252 25.4142L31.1009 25.4757ZM21.8559 20.837L21.5519 20.9655L21.8559 20.837ZM23.5822 29.74L23.7378 30.031L23.9136 29.937L23.9122 29.7377L23.5822 29.74ZM14.9223 37.7984L14.9482 38.1274L15.1322 38.1129L15.2161 37.9486L14.9223 37.7984ZM8.17844 38.3305L8.15248 38.0015H8.15248L8.17844 38.3305ZM7.96486 38.3302L7.97844 38.0002H7.96486V38.3302ZM7.96484 38.3302L7.95156 38.6602H7.96484V38.3302ZM7.93313 38.3289L7.9464 37.9992L7.94583 37.9992L7.93313 38.3289ZM4.11736 51.1976L3.9026 51.4482L3.90261 51.4482L4.11736 51.1976ZM4.27884 51.299L4.42422 51.0027L4.42422 51.0027L4.27884 51.299ZM12.9632 58.4184L13.2668 58.2891L13.2543 58.2597L13.2364 58.2332L12.9632 58.4184ZM14.8044 61.8462L15.1013 61.7021L15.0919 61.6826L15.0799 61.6646L14.8044 61.8462ZM73.4494 61.8474L73.1739 61.6657L73.162 61.6838L73.1525 61.7033L73.4494 61.8474ZM73.4447 38.0242L73.148 38.1685L73.1574 38.1879L73.1693 38.206L73.4447 38.0242ZM73.4205 37.9746L73.1078 37.8692L73.0643 37.9982L73.1244 38.1203L73.4205 37.9746ZM74.7126 35.8812L75.042 35.8621L75.0009 35.1518L74.4852 35.6421L74.7126 35.8812ZM75.2479 38.3724L75.5684 38.2939L75.5638 38.2749L75.5569 38.2566L75.2479 38.3724ZM76.7897 41.2466L77.0346 41.0254L76.7897 41.2466ZM84.9566 42.2118L84.7382 41.9645L84.9566 42.2118ZM84.907 34.078L85.1519 33.8569L84.907 34.078ZM80.5215 31.8837L80.4689 32.2095L80.4839 32.2119L80.499 32.2129L80.5215 31.8837ZM79.1076 31.7515L78.908 31.4888L78.1586 32.0581L79.0994 32.0814L79.1076 31.7515ZM86.2775 31.05L86.3324 30.7246L86.2775 31.05ZM87.1721 29.4392L86.9346 29.6683V29.6683L87.1721 29.4392ZM86.0937 28.7553L86.1934 28.4407L86.0937 28.7553ZM75.3284 32.4176L75.4515 32.7238L75.5754 32.674L75.6298 32.552L75.3284 32.4176ZM71.6443 35.2379L71.3886 35.4465L71.6568 35.7751L71.9094 35.4344L71.6443 35.2379ZM39.8126 25.2541L39.5477 25.4509L39.6571 25.5981L39.8399 25.5829L39.8126 25.2541ZM30.1424 17.8497L30.1464 17.5197L30.1424 17.8497ZM29.3308 19.1606L29.0198 19.271V19.271L29.3308 19.1606ZM78.6551 39.6478L78.4102 39.869V39.869L78.6551 39.6478ZM78.4699 35.1707L78.6884 35.4181L78.4699 35.1707ZM22.66 19.8066C23.8699 19.9163 25.1407 20.472 26.5044 21.4663C27.8679 22.4603 29.3069 23.8801 30.8498 25.6898L31.3521 25.2616C29.7919 23.4317 28.3148 21.9694 26.8932 20.933C25.4719 19.8967 24.0887 19.2734 22.7195 19.1493L22.66 19.8066ZM22.1598 20.7085C22.0592 20.4705 22.085 20.2237 22.1853 20.051C22.2807 19.8868 22.4414 19.7868 22.66 19.8066L22.7195 19.1493C22.2233 19.1043 21.8273 19.3533 21.6146 19.7195C21.4068 20.0773 21.3731 20.5424 21.5519 20.9655L22.1598 20.7085ZM23.9122 29.7377C23.8865 26.0147 23.4222 23.6948 22.1598 20.7085L21.5519 20.9655C22.777 23.8634 23.2271 26.0963 23.2522 29.7423L23.9122 29.7377ZM15.2161 37.9486C16.7788 34.8914 19.7539 32.1607 23.7378 30.031L23.4266 29.449C19.3656 31.6199 16.2709 34.4351 14.6284 37.6482L15.2161 37.9486ZM8.2044 38.6595L14.9482 38.1274L14.8963 37.4694L8.15248 38.0015L8.2044 38.6595ZM7.9513 38.6599C8.01906 38.6627 8.11046 38.6669 8.2044 38.6595L8.15248 38.0015C8.10466 38.0053 8.05301 38.0036 7.97843 38.0005L7.9513 38.6599ZM7.96484 38.6602H7.96486V38.0002H7.96484V38.6602ZM7.91986 38.6587L7.95158 38.6599L7.97811 38.0005L7.9464 37.9992L7.91986 38.6587ZM4.33212 50.9471C4.13003 50.7739 3.96114 50.4689 3.84814 50.0182C3.73627 49.5719 3.68745 49.0153 3.69879 48.381C3.72144 47.113 3.9833 45.582 4.40706 44.1041C4.83111 42.6254 5.41097 41.2218 6.05722 40.2031C6.38066 39.6932 6.71225 39.2933 7.03775 39.0274C7.36377 38.761 7.65875 38.6486 7.92043 38.6587L7.94583 37.9992C7.46743 37.9808 7.01934 38.1902 6.6202 38.5162C6.22054 38.8427 5.84488 39.3057 5.49989 39.8495C4.80929 40.9382 4.20759 42.4054 3.77263 43.9222C3.3374 45.44 3.06283 47.0296 3.03889 48.3692C3.02693 49.0386 3.07729 49.6575 3.20795 50.1787C3.33748 50.6954 3.5545 51.1498 3.9026 51.4482L4.33212 50.9471ZM4.42422 51.0027C4.37717 50.9796 4.34981 50.9622 4.33211 50.9471L3.90261 51.4482C3.98176 51.516 4.06601 51.5621 4.13347 51.5952L4.42422 51.0027ZM13.2364 58.2332C11.1442 55.147 8.98093 53.2388 4.42422 51.0027L4.13347 51.5952C8.60522 53.7896 10.6728 55.6277 12.6901 58.6036L13.2364 58.2332ZM15.0799 61.6646C14.3792 60.6019 13.771 59.4729 13.2668 58.2891L12.6596 58.5477C13.1795 59.7684 13.8066 60.9324 14.5289 62.0279L15.0799 61.6646ZM44.1272 74.4745C37.1991 74.4745 30.8228 73.1127 25.7354 70.8293C20.6424 68.5434 16.871 65.3483 15.1013 61.7021L14.5076 61.9903C16.3684 65.8241 20.289 69.1082 25.4651 71.4314C30.6467 73.7571 37.1166 75.1345 44.1272 75.1345V74.4745ZM73.1525 61.7033C71.3825 65.3491 67.6111 68.5439 62.5182 70.8297C57.4309 73.1129 51.0549 74.4745 44.1272 74.4745V75.1345C51.1375 75.1345 57.607 73.7573 62.7885 71.4318C67.9644 69.1088 71.8851 65.825 73.7463 61.9915L73.1525 61.7033ZM76.6842 49.9393C76.6842 54.2717 75.3927 58.3014 73.1739 61.6657L73.7249 62.0291C76.0126 58.5602 77.3442 54.4048 77.3442 49.9393H76.6842ZM73.1693 38.206C75.391 41.5717 76.6842 45.604 76.6842 49.9393H77.3442C77.3442 45.4708 76.0108 41.3127 73.7201 37.8424L73.1693 38.206ZM73.1244 38.1203C73.1323 38.1364 73.1402 38.1525 73.148 38.1685L73.7415 37.8798C73.7332 37.8628 73.7249 37.8459 73.7166 37.8289L73.1244 38.1203ZM73.7332 38.08C74.0092 37.2613 74.4155 36.6189 74.9399 36.1204L74.4852 35.6421C73.8747 36.2224 73.4142 36.9602 73.1078 37.8692L73.7332 38.08ZM74.3831 35.9003C74.4324 36.7515 74.6145 37.6223 74.9389 38.4882L75.5569 38.2566C75.2551 37.4512 75.0874 36.6454 75.042 35.8621L74.3831 35.9003ZM74.9274 38.4508C75.1891 39.5203 75.7295 40.5649 76.5448 41.4677L77.0346 41.0254C76.2919 40.203 75.804 39.2562 75.5684 38.2939L74.9274 38.4508ZM76.5447 41.4677C78.9087 44.0856 82.7705 44.5827 85.175 42.4592L84.7382 41.9645C82.6597 43.8 79.2085 43.4328 77.0346 41.0254L76.5447 41.4677ZM85.175 42.4592C87.5827 40.333 87.5169 36.4759 85.1519 33.8569L84.6621 34.2992C86.8349 36.7054 86.8136 40.1316 84.7382 41.9645L85.175 42.4592ZM85.1519 33.8569C83.8868 32.456 82.2045 31.6676 80.5439 31.5544L80.499 32.2129C81.9847 32.3141 83.5088 33.0221 84.6621 34.2992L85.1519 33.8569ZM80.5741 31.5579C80.0808 31.4783 79.594 31.4335 79.1158 31.4216L79.0994 32.0814C79.5475 32.0926 80.0047 32.1345 80.4689 32.2095L80.5741 31.5579ZM79.3072 32.0143C79.9908 31.495 80.9092 31.1962 82.0724 31.0984C83.2358 31.0005 84.6233 31.1056 86.2226 31.3754L86.3324 30.7246C84.705 30.4501 83.2571 30.3364 82.0171 30.4407C80.7767 30.545 79.7236 30.8691 78.908 31.4888L79.3072 32.0143ZM86.2226 31.3754C86.8296 31.4778 87.3386 31.1503 87.5863 30.7083C87.8351 30.2644 87.8439 29.66 87.4095 29.21L86.9346 29.6683C87.1324 29.8733 87.1427 30.15 87.0106 30.3856C86.8774 30.6233 86.6231 30.7737 86.3324 30.7246L86.2226 31.3754ZM87.4095 29.21C87.077 28.8655 86.6628 28.5895 86.1934 28.4407L85.994 29.0699C86.3462 29.1815 86.6686 29.3927 86.9346 29.6683L87.4095 29.21ZM86.1934 28.4407C80.7308 26.7091 76.5813 28.7972 75.027 32.2832L75.6298 32.552C77.023 29.4274 80.791 27.4205 85.994 29.0699L86.1934 28.4407ZM75.2053 32.1114C73.6564 32.7341 72.3373 33.7489 71.3792 35.0414L71.9094 35.4344C72.793 34.2424 74.0127 33.3022 75.4515 32.7238L75.2053 32.1114ZM44.1272 25.4067C56.206 25.4067 66.5697 29.5422 71.3886 35.4465L71.8999 35.0292C66.9091 28.9143 56.3166 24.7467 44.1272 24.7467V25.4067ZM39.8399 25.5829C41.2403 25.4668 42.6717 25.4067 44.1272 25.4067V24.7467C42.6535 24.7467 41.2039 24.8075 39.7853 24.9252L39.8399 25.5829ZM30.1384 18.1797C31.5395 18.1965 33.0073 18.8185 34.5769 20.0467C36.1463 21.2748 37.7941 23.0909 39.5477 25.4509L40.0775 25.0573C38.307 22.6745 36.6187 20.8063 34.9836 19.5269C33.3487 18.2476 31.7435 17.5389 30.1464 17.5197L30.1384 18.1797ZM29.6418 19.0502C29.5627 18.8275 29.5922 18.5998 29.6891 18.4355C29.7825 18.2771 29.936 18.1772 30.1384 18.1797L30.1464 17.5197C29.6859 17.5142 29.3227 17.7574 29.1206 18.1003C28.9219 18.4371 28.8771 18.8689 29.0198 19.271L29.6418 19.0502ZM31.4252 25.4142C31.0308 23.3351 30.4517 21.3315 29.6418 19.0502L29.0198 19.271C29.8218 21.5301 30.3903 23.5001 30.7767 25.5372L31.4252 25.4142ZM82.9142 40.0869C81.9066 40.9767 80.1079 40.7643 78.9 39.4266L78.4102 39.869C79.7774 41.383 81.9881 41.7853 83.3511 40.5816L82.9142 40.0869ZM82.7025 36.0783C83.9099 37.4154 83.9183 39.2002 82.9142 40.0869L83.3511 40.5816C84.7177 39.3748 84.5601 37.1507 83.1924 35.636L82.7025 36.0783ZM78.6884 35.4181C79.696 34.5283 81.4946 34.7407 82.7025 36.0783L83.1924 35.636C81.8251 34.1219 79.6145 33.7197 78.2515 34.9234L78.6884 35.4181ZM78.9 39.4266C77.6926 38.0896 77.6843 36.3048 78.6884 35.4181L78.2515 34.9234C76.8849 36.1302 77.0424 38.3543 78.4102 39.869L78.9 39.4266Z" fill="#1D1D1D" mask="url(#path-6-inside-1_405_28861)"/>
<g style="mix-blend-mode:multiply">
<path fill-rule="evenodd" clip-rule="evenodd" d="M13.5576 57.7444C18.6281 64.2198 30.2982 68.7509 43.8845 68.7509C57.6184 68.7509 69.3942 64.1209 74.3743 57.5328C74.5908 57.2738 74.8015 57.0098 75.0062 56.741C74.3701 58.464 73.5259 60.0862 72.5038 61.577C68.5667 68.8484 57.3294 74.0963 44.0813 74.0963C30.8221 74.0963 19.5771 68.8397 15.6489 61.5589C14.8329 60.3661 14.1306 59.0894 13.5576 57.7444Z" fill="#DEF4E7"/>
</g>
<path d="M8.62537 45.6308C8.15542 47.3907 7.42874 48.8961 6.63973 49.9078C6.24503 50.4139 5.8394 50.7904 5.44839 51.0157C5.05813 51.2405 4.69253 51.3095 4.36544 51.2222C4.03836 51.1348 3.75584 50.8927 3.52963 50.5033C3.30298 50.1131 3.13907 49.5844 3.04922 48.949C2.86961 47.6786 2.9902 46.0113 3.46015 44.2515C3.93011 42.4917 4.65679 40.9862 5.4458 39.9746C5.84049 39.4685 6.24612 39.0919 6.63713 38.8667C7.0274 38.6418 7.393 38.5728 7.72008 38.6602C8.04716 38.7475 8.32968 38.9896 8.5559 39.3791C8.78254 39.7693 8.94646 40.2979 9.0363 40.9334C9.21591 42.2037 9.09532 43.871 8.62537 45.6308Z" fill="#C5ECE0" stroke="#1D1D1D" stroke-width="0.3"/>
<ellipse cx="4.83214" cy="43.8681" rx="0.447893" ry="1.15822" transform="rotate(14.9517 4.83214 43.8681)" fill="#1D1D1D"/>
<ellipse cx="6.83007" cy="44.3829" rx="0.447893" ry="1.19276" transform="rotate(14.9517 6.83007 44.3829)" fill="#1D1D1D"/>
<ellipse cx="20.5112" cy="40.8149" rx="1.22501" ry="1.86415" transform="rotate(14.9517 20.5112 40.8149)" fill="#1D1D1D"/>
<path d="M31.0159 30.596C32.844 26.6682 31.6797 23.2054 30.1152 19.4874C29.9375 19.0653 30.3136 18.6519 30.7163 18.87C34.0319 20.6653 36.8903 26.6795 36.3372 33.9654C36.3148 34.2598 36.0574 34.4817 35.7636 34.452C33.5726 34.2308 32.601 33.4372 31.0542 31.1486C30.944 30.9855 30.9328 30.7745 31.0159 30.596Z" fill="#41826E"/>
<path d="M22.8066 21.3612C24.0925 24.0892 24.3813 26.6614 24.4545 29.5458C24.4597 29.7501 24.5753 29.9384 24.7654 30.0136C25.8294 30.4345 27.1424 30.4065 28.3462 29.6906C28.5472 29.5712 28.6297 29.3263 28.5612 29.1028C27.3913 25.2859 25.5839 22.2681 23.4512 20.723C23.0272 20.4159 22.5833 20.8876 22.8066 21.3612Z" fill="#41826E"/>
<g style="mix-blend-mode:multiply">
<path d="M44.0845 28.8526C44.2066 28.4451 44.5358 28.1381 44.9451 28.0765C46.8512 27.7896 49.2052 27.8913 51.4111 28.2762C53.6191 28.6614 55.6598 29.3271 56.9465 30.1552C57.2062 30.3224 57.3649 30.6107 57.4035 30.9331C57.463 31.4297 57.2171 31.8822 56.8221 32.1731C56.4264 32.4645 55.8972 32.5808 55.4157 32.4169C52.6076 31.4611 48.6646 30.6577 45.6892 30.7147C45.209 30.7239 44.7356 30.4874 44.4173 30.1265C44.0996 29.7661 43.9507 29.2995 44.0845 28.8526Z" fill="#DEF4E7"/>
<path d="M44.0845 28.8526C44.2066 28.4451 44.5358 28.1381 44.9451 28.0765C46.8512 27.7896 49.2052 27.8913 51.4111 28.2762C53.6191 28.6614 55.6598 29.3271 56.9465 30.1552C57.2062 30.3224 57.3649 30.6107 57.4035 30.9331C57.463 31.4297 57.2171 31.8822 56.8221 32.1731C56.4264 32.4645 55.8972 32.5808 55.4157 32.4169C52.6076 31.4611 48.6646 30.6577 45.6892 30.7147C45.209 30.7239 44.7356 30.4874 44.4173 30.1265C44.0996 29.7661 43.9507 29.2995 44.0845 28.8526Z" stroke="#1D1D1D" stroke-width="0.3"/>
</g>
<path d="M44.0217 29.0819C44.1084 28.5768 44.4457 28.1442 44.9332 27.9863C49.1555 26.6179 54.4058 27.81 56.889 30.0241C57.235 30.3326 57.3582 30.8084 57.2797 31.2653C57.1036 32.2915 55.985 32.8508 55.0263 32.4447C51.8237 31.0881 49.0667 30.6599 45.6782 30.8706C44.6809 30.9326 43.8526 30.0666 44.0217 29.0819Z" fill="#1D1D1D"/>
<mask id="mask0_405_28861" style="mask-type:alpha" maskUnits="userSpaceOnUse" x="40" y="13" width="28" height="20">
<path fill-rule="evenodd" clip-rule="evenodd" d="M43.8763 29.4573L40.2156 15.5974C40.0417 14.9389 40.502 14.2821 41.1804 14.221L52.2903 13.2195C52.493 13.2013 52.6968 13.2396 52.879 13.3302L66.2899 20.0017C66.9391 20.3246 67.1037 21.1763 66.6217 21.7179L57.7426 31.6953C57.6644 31.7832 57.5748 31.8558 57.4776 31.9127C57.4764 31.9211 57.4751 31.9295 57.4737 31.9378C57.363 32.5915 56.6811 32.9755 56.057 32.7505C52.1517 31.3432 49.0252 30.8394 44.9964 30.8391C44.3741 30.8391 43.8874 30.2947 43.9637 29.6836C43.9269 29.6129 43.8974 29.5372 43.8763 29.4573Z" fill="#D9D9D9"/>
<path d="M40.2156 15.5974L40.3752 15.5553L40.2156 15.5974ZM43.8763 29.4573L44.0358 29.4152V29.4152L43.8763 29.4573ZM41.1804 14.221L41.1952 14.3853L41.1804 14.221ZM52.2903 13.2195L52.2755 13.0552L52.2903 13.2195ZM52.879 13.3302L52.9525 13.1825V13.1825L52.879 13.3302ZM66.2899 20.0017L66.2164 20.1495L66.2899 20.0017ZM66.6217 21.7179L66.745 21.8276L66.6217 21.7179ZM57.7426 31.6953L57.8659 31.8049L57.7426 31.6953ZM57.4776 31.9127L57.3942 31.7703L57.3257 31.8105L57.3143 31.8891L57.4776 31.9127ZM57.4737 31.9378L57.311 31.9103L57.311 31.9103L57.4737 31.9378ZM56.057 32.7505L56.001 32.9058L56.057 32.7505ZM44.9964 30.8391L44.9964 31.0041L44.9964 30.8391ZM43.9637 29.6836L44.1274 29.7041L44.1338 29.6531L44.1101 29.6075L43.9637 29.6836ZM40.0561 15.6396L43.7168 29.4994L44.0358 29.4152L40.3752 15.5553L40.0561 15.6396ZM41.1656 14.0566C40.3854 14.127 39.8561 14.8822 40.0561 15.6396L40.3752 15.5553C40.2273 14.9955 40.6186 14.4373 41.1952 14.3853L41.1656 14.0566ZM52.2755 13.0552L41.1656 14.0566L41.1952 14.3853L52.3051 13.3839L52.2755 13.0552ZM52.9525 13.1825C52.7429 13.0783 52.5086 13.0342 52.2755 13.0552L52.3051 13.3839C52.4774 13.3683 52.6506 13.4009 52.8055 13.478L52.9525 13.1825ZM66.3634 19.854L52.9525 13.1825L52.8055 13.478L66.2164 20.1495L66.3634 19.854ZM66.745 21.8276C67.2993 21.2047 67.1099 20.2254 66.3634 19.854L66.2164 20.1495C66.7682 20.4239 66.9081 21.1478 66.4985 21.6082L66.745 21.8276ZM57.8659 31.8049L66.745 21.8276L66.4985 21.6082L57.6194 31.5856L57.8659 31.8049ZM57.561 32.0551C57.6728 31.9896 57.7759 31.906 57.8659 31.8049L57.6194 31.5856C57.5528 31.6604 57.4767 31.722 57.3942 31.7703L57.561 32.0551ZM57.3143 31.8891C57.3133 31.8962 57.3122 31.9033 57.311 31.9103L57.6364 31.9654C57.638 31.9556 57.6395 31.9459 57.6409 31.9363L57.3143 31.8891ZM57.311 31.9103C57.2181 32.459 56.6437 32.7866 56.1129 32.5953L56.001 32.9058C56.7186 33.1643 57.508 32.7239 57.6364 31.9654L57.311 31.9103ZM56.1129 32.5953C52.1888 31.1812 49.0433 30.6744 44.9964 30.6741L44.9964 31.0041C49.0071 31.0044 52.1146 31.5052 56.001 32.9058L56.1129 32.5953ZM44.9964 30.6741C44.4713 30.6741 44.0637 30.2147 44.1274 29.7041L43.8 29.6632C43.7112 30.3748 44.2769 31.0041 44.9964 31.0041L44.9964 30.6741ZM43.7168 29.4994C43.741 29.5912 43.775 29.6783 43.8173 29.7598L44.1101 29.6075C44.0789 29.5475 44.0538 29.4832 44.0358 29.4152L43.7168 29.4994Z" fill="black"/>
</mask>
<g mask="url(#mask0_405_28861)">
<path d="M56.4373 28.4923C56.4373 31.5185 53.8622 33.9838 50.6706 33.9838C47.4789 33.9838 44.9039 31.5185 44.9039 28.4923C44.9039 25.4661 47.4789 23.0008 50.6706 23.0008C53.8622 23.0008 56.4373 25.4661 56.4373 28.4923Z" fill="#F2D891" stroke="#1D1D1D" stroke-width="0.3"/>
<circle cx="51.4952" cy="28.4835" r="5.21629" fill="white" stroke="#1D1D1D" stroke-width="0.3"/>
</g>
<path d="M52.8745 15.5132C52.8745 18.2486 50.5468 20.478 47.6602 20.478C44.7736 20.478 42.4459 18.2486 42.4459 15.5132C42.4459 12.7779 44.7736 10.5484 47.6602 10.5484C50.5468 10.5484 52.8745 12.7779 52.8745 15.5132Z" fill="#F2D891" stroke="#1D1D1D" stroke-width="0.3"/>
<path d="M53.1245 15.513C53.1245 18.1172 51.0134 20.2283 48.4092 20.2283C45.8051 20.2283 43.6939 18.1172 43.6939 15.513C43.6939 12.9088 45.8051 10.7977 48.4092 10.7977C51.0134 10.7977 53.1245 12.9088 53.1245 15.513Z" fill="white" stroke="#1D1D1D" stroke-width="0.3"/>
</svg>
