<svg width="132" height="84" viewBox="0 0 132 84" fill="none" xmlns="http://www.w3.org/2000/svg">
<path d="M1.57129 8.99999C1.57129 4.58171 5.15301 1 9.57129 1H103.881C108.299 1 111.881 4.58172 111.881 9V82.0238H4.57129C2.91443 82.0238 1.57129 80.6807 1.57129 79.0238V8.99999Z" fill="#CBD5CA" stroke="#1D1D1D" stroke-miterlimit="10"/>
<path d="M5.47607 8.99999C5.47607 4.58171 9.0578 1 13.4761 1H103.881C108.299 1 111.881 4.58172 111.881 9V82.0238H8.47608C6.81922 82.0238 5.47607 80.6807 5.47607 79.0238V8.99999Z" fill="white" stroke="#1D1D1D" stroke-miterlimit="10"/>
<path d="M42.9601 78.1383H39.6286L33.1885 60.2654H46.8985L42.9601 78.1383Z" fill="#CBD5CA"/>
<path d="M44.0367 43.8628C43.5413 50.4187 44.594 55.0801 46.6252 57.4981C46.7598 57.7104 46.85 57.9481 46.8905 58.1966C46.9309 58.4452 46.9207 58.6994 46.8605 58.9438C46.5509 61.4366 43.789 76.3307 43.145 78.3623" stroke="#1D1D1D" stroke-miterlimit="10"/>
<path d="M34.4023 45.1216C34.7739 51.8146 34.551 53.5969 33.5726 57.5853C33.4363 58.1586 32.6932 59.0311 32.8171 59.567C34.6413 65.9051 36.7867 72.1451 39.2448 78.2625" stroke="#1D1D1D" stroke-miterlimit="10"/>
<path d="M34.0676 55.7659C32.8693 56.5336 31.6288 57.2327 30.3522 57.8598C28.1774 59.0595 25.9362 60.1332 23.6396 61.0754C18.5122 63.3189 14.8463 65.1635 14.3385 66.0609C12.2156 69.7507 10.9456 73.8744 10.623 78.1257L10.8831 78.3625H68.3118C67.6059 71.2208 66.1073 67.7435 65.3147 66.9832C63.6665 65.3418 61.6417 64.1346 59.4195 63.4684C59.0851 63.3189 55.2582 61.711 53.7224 60.9757C52.8366 60.5568 51.9801 60.078 51.1588 59.5424C49.09 58.1629 47.1049 56.6605 45.214 55.043" stroke="#1D1D1D" stroke-miterlimit="10"/>
<path d="M32.3452 78.3626L27.5027 71.4203C27.4086 71.2865 27.3633 71.124 27.3746 70.9605C27.3859 70.7969 27.453 70.6423 27.5646 70.5229L28.8031 69.1145C28.8377 69.083 28.8653 69.0445 28.8842 69.0016C28.9031 68.9586 28.9129 68.9122 28.9129 68.8652C28.9129 68.8183 28.9031 68.7718 28.8842 68.7289C28.8653 68.686 28.8377 68.6475 28.8031 68.616L25.8803 66.5844C25.8007 66.5285 25.733 66.4572 25.6811 66.3747C25.6292 66.2921 25.5942 66.2 25.578 66.1037C25.5619 66.0074 25.565 65.9089 25.5871 65.8138C25.6092 65.7187 25.65 65.629 25.7069 65.5499L32.2337 56.8253" stroke="#1D1D1D" stroke-miterlimit="10"/>
<path d="M49.0905 78.4994L52.9422 70.1612C53.0165 70.0084 53.0385 69.8351 53.0049 69.6683C52.9713 69.5016 52.884 69.3506 52.7564 69.2389L51.295 67.9925C51.2578 67.9587 51.2281 67.9173 51.2077 67.8712C51.1874 67.825 51.1769 67.7751 51.1769 67.7246C51.1769 67.6741 51.1874 67.6242 51.2077 67.578C51.2281 67.5318 51.2578 67.4905 51.295 67.4566L53.8834 64.7645C54.0273 64.6136 54.1076 64.4126 54.1076 64.2036C54.1076 63.9945 54.0273 63.7936 53.8834 63.6427L46.1553 55.9651" stroke="#1D1D1D" stroke-miterlimit="10"/>
<path d="M39.319 43.9628C38.2668 44.0909 37.3541 42.8792 36.9037 42.0794M39.319 43.9628C40.1092 43.8664 40.8633 42.7607 41.2765 41.9698C41.1133 42.0515 40.9149 42.1235 40.6759 42.1628C40.6454 42.1679 40.6153 42.1719 40.5856 42.175M39.319 43.9628L39.2585 43.4665C39.2585 43.4665 39.2585 43.4665 39.2586 43.4665M39.319 43.9628L39.2586 43.4665M36.9037 42.0794L37.5356 41.6944C37.8471 41.6944 38.0523 41.5873 38.2649 41.4763C38.4495 41.3799 38.6398 41.2805 38.9103 41.2457C39.1858 41.2103 39.4252 41.3285 39.6733 41.4509C39.9493 41.5871 40.2359 41.7286 40.5946 41.6695C40.7131 41.65 40.8181 41.6203 40.9111 41.5849C40.8409 41.7278 40.7556 41.8883 40.658 42.0544C40.6346 42.0943 40.6104 42.1346 40.5856 42.175M36.9037 42.0794C37.096 42.1391 37.295 42.1773 37.4971 42.1929L37.5163 42.1944H37.5356C37.5436 42.1944 37.5515 42.1944 37.5594 42.1943M36.9037 42.0794L37.5594 42.1943M40.5856 42.175C40.1153 42.224 39.7418 42.0417 39.4948 41.9204C39.1898 41.7705 39.0858 41.7273 38.974 41.7417C38.7941 41.7648 38.6761 41.8261 38.4824 41.9268C38.4729 41.9317 38.4631 41.9368 38.4532 41.9419C38.2423 42.0514 37.9622 42.189 37.5594 42.1943M40.5856 42.175C40.5671 42.2052 40.5481 42.2354 40.5289 42.2657C40.3276 42.582 40.098 42.8839 39.8602 43.1097C39.6147 43.3428 39.4098 43.448 39.2586 43.4665M37.5594 42.1943C37.6222 42.2893 37.6901 42.386 37.7625 42.4818C37.991 42.7838 38.2498 43.0561 38.5196 43.2394C38.7878 43.4216 39.0329 43.494 39.2586 43.4665M41.306 41.5769C41.2507 41.5372 41.2112 41.4919 41.1831 41.4494C41.2922 41.3812 41.3752 41.3111 41.4386 41.2576C41.5186 41.1902 41.5674 41.1491 41.5978 41.1709C41.6204 41.1872 41.56 41.3737 41.4367 41.6435C41.394 41.6298 41.3499 41.6085 41.306 41.5769Z" fill="#1D1D1D" stroke="#1D1D1D"/>
<path d="M31.4892 32.9481C31.3609 33.8075 31.293 34.7035 31.293 35.6244C31.293 42.0811 34.631 47.3153 38.7487 47.3153C42.8663 47.3153 46.2044 42.0811 46.2044 35.6244C46.2044 31.026 44.5113 27.0477 42.0493 25.1385" stroke="#1D1D1D" stroke-miterlimit="10"/>
<path d="M45.4119 30.4395C45.9073 31.8354 45.7835 32.7079 46.0188 32.7453C46.2541 32.7826 47.3564 32.2966 47.7031 32.5832C48.0499 32.8699 48.0623 33.7673 47.7031 34.9139C47.1547 36.4713 46.4709 37.9769 45.6596 39.4133C45.2151 40.5288 44.863 41.6794 44.6069 42.8533C43.9771 44.8667 43.7087 46.977 43.8143 49.0851C43.9153 50.7322 44.1808 52.3649 44.6069 53.9584C45.0069 54.2002 45.459 54.3411 45.9248 54.3693C46.3905 54.3976 46.8561 54.3122 47.282 54.1205C49.5237 52.8741 50.5145 50.7054 50.7003 46.555C50.8489 43.2895 50.242 42.093 50.1801 38.5533C50.081 33.8296 50.9975 31.5861 50.1801 28.3456C49.5237 25.454 48.9292 24.0207 46.3408 22.7992C46.1426 22.6995 41.9194 20.7552 41.5478 20.6181C38.5259 19.4964 36.4453 19.0352 34.4018 19.9326C31.739 21.1042 30.5625 23.6717 28.296 26.5508C26.6364 28.6821 24.7044 30.4395 24.2462 32.4835C23.9053 33.9505 23.9609 35.4826 24.4072 36.9206C25.4475 39.2638 25.8314 39.3261 26.0915 40.9962C26.5126 43.7008 25.0388 44.5234 25.1379 47.926C25.2313 49.1883 25.6243 50.4095 26.2837 51.4874C26.9431 52.5652 27.8498 53.4682 28.9277 54.1205C29.3735 54.3947 33.6834 56.2144 34.1788 54.0582C34.7981 51.3785 35.4173 48.3249 33.9807 45.1217C32.8908 42.7536 31.7886 40.7095 31.7886 40.7095C30.912 39.8544 30.1463 38.8912 29.5097 37.8429C28.5189 35.936 28.2713 33.6426 28.9524 33.3186C29.2868 33.1441 29.5593 33.68 30.3767 33.7174C30.861 33.6837 31.3326 33.5461 31.7598 33.314C32.187 33.0818 32.56 32.7604 32.8537 32.3713C34.0921 31.0128 33.6587 29.9908 34.5132 29.5172C35.3678 29.0435 36.3338 30.1279 37.7457 30.1528C40.8914 30.1528 40.941 25.1673 42.551 25.5786C43.9753 25.8778 44.7927 28.6073 45.4119 30.4395Z" fill="#374941"/>
<path d="M127.332 74.2145H5.47607V74.2449V80.0001C5.47607 81.6569 6.81922 83.0001 8.47607 83.0001H118.248C121.475 82.9961 124.568 82.4678 126.85 81.5306C129.132 80.5935 130.418 79.3235 130.428 77.9982V75.4935C130.435 75.3253 130.361 75.1582 130.208 75.0022C130.055 74.8461 129.828 74.7042 129.539 74.5849C129.25 74.4657 128.906 74.3714 128.527 74.3078C128.148 74.2441 127.741 74.2124 127.332 74.2145Z" fill="#CBD5CA"/>
<path d="M5.47607 74.2145H127.332C127.741 74.2124 128.148 74.2441 128.527 74.3078C128.906 74.3714 129.25 74.4657 129.539 74.5849C129.828 74.7042 130.055 74.8461 130.208 75.0022C130.361 75.1582 130.435 75.3253 130.428 75.4935V77.9982C130.418 79.3235 129.132 80.5935 126.85 81.5306C124.568 82.4678 121.475 82.9961 118.248 83.0001H8.47607C6.81922 83.0001 5.47607 81.6569 5.47607 80.0001V74.2145ZM5.47607 74.2145V74.2449" stroke="#1D1D1D" stroke-miterlimit="10"/>
<path d="M44.1694 1H75.4075V4.40779C75.4075 5.01033 75.2136 5.58818 74.8684 6.01424C74.5232 6.4403 74.0549 6.67965 73.5667 6.67965H46.0102C45.522 6.67965 45.0538 6.4403 44.7086 6.01424C44.3634 5.58818 44.1694 5.01033 44.1694 4.40779V1Z" fill="black"/>
<ellipse cx="70.8033" cy="38.7273" rx="12.4351" ry="12.4351" fill="#374941"/>
<path d="M67.3877 43.4416V32.799L77.5261 38.1203L67.3877 43.4416Z" fill="white" stroke="black"/>
</svg>
