<svg width="88" height="88" viewBox="0 0 88 88" fill="none" xmlns="http://www.w3.org/2000/svg">
<g style="mix-blend-mode:multiply">
<path d="M8.82851 29.0218C8.82851 31.5512 13.7112 44.1076 43.0617 44.1076C61.9682 44.1076 77.2949 37.3535 77.2949 29.0218C77.2949 20.6901 61.9682 13.936 43.0617 13.936C24.1552 13.936 8.82851 20.6901 8.82851 29.0218Z" fill="#7A9FA0" fill-opacity="0.5"/>
</g>
<path d="M32.9731 21.896C32.9731 15.3619 42.7108 7.67499 54.7229 7.67499C66.735 7.67499 76.4727 15.3619 76.4727 21.896V28.1102C76.4727 34.6442 66.735 41.1362 54.7229 41.1362C42.7108 41.1362 32.9731 34.6442 32.9731 28.1102V21.896Z" fill="#FCE595"/>
<mask id="mask0_4998_19715" style="mask-type:alpha" maskUnits="userSpaceOnUse" x="32" y="7" width="45" height="35">
<path d="M32.9731 21.896C32.9731 15.3619 42.7108 7.67499 54.7229 7.67499C66.735 7.67499 76.4727 15.3619 76.4727 21.896V28.1102C76.4727 34.6442 66.735 41.1362 54.7229 41.1362C42.7108 41.1362 32.9731 34.6442 32.9731 28.1102V21.896Z" fill="#FCE595" stroke="#1D1D1D" stroke-width="0.3" stroke-linecap="round" stroke-linejoin="round"/>
</mask>
<g mask="url(#mask0_4998_19715)">
<path d="M32.9731 21.896C32.9731 15.3619 42.7108 7.67499 54.7229 7.67499C66.735 7.67499 76.4727 15.3619 76.4727 21.896V28.1102C76.4727 34.6442 66.735 41.1362 54.7229 41.1362C42.7108 41.1362 32.9731 34.6442 32.9731 28.1102V21.896Z" fill="#FCE595" stroke="#1D1D1D" stroke-width="0.3" stroke-linecap="round" stroke-linejoin="round"/>
<g style="mix-blend-mode:multiply">
<rect x="55.3105" y="26.7567" width="8.22964" height="19.9863" fill="#FAE3C3"/>
</g>
<g style="mix-blend-mode:multiply">
<rect width="2.35132" height="19.9863" transform="matrix(-1 0 0 1 68.2402 26.7567)" fill="#FAE3C3"/>
</g>
<g style="mix-blend-mode:multiply">
<rect x="32.9727" y="20.8784" width="9.4053" height="19.9863" fill="#FAE3C3"/>
</g>
</g>
<ellipse cx="21.7498" cy="14.6393" rx="21.7498" ry="14.6393" transform="matrix(-1 0 0 1 76.4727 7.67499)" fill="white" stroke="#1D1D1D" stroke-width="0.3" stroke-linecap="round" stroke-linejoin="round"/>
<ellipse cx="18.4036" cy="11.7114" rx="18.4036" ry="11.7114" transform="matrix(-1 0 0 1 73.125 10.1857)" fill="#FCE595"/>
<ellipse cx="18.4036" cy="11.7114" rx="18.4036" ry="11.7114" transform="matrix(-1 0 0 1 73.125 10.1857)" fill="url(#paint0_linear_4998_19715)" fill-opacity="0.9"/>
<g style="mix-blend-mode:multiply">
<ellipse cx="21.7498" cy="14.6393" rx="21.7498" ry="14.6393" transform="matrix(-1 0 0 1 72.2891 9.34869)" fill="#7A9FA0" fill-opacity="0.5"/>
</g>
<path d="M32.9692 17.7124C32.9692 11.1784 42.7069 3.49139 54.719 3.49139C66.7311 3.49139 76.4688 11.1784 76.4688 17.7124V23.9266C76.4688 30.4606 66.7311 36.9526 54.719 36.9526C42.7069 36.9526 32.9692 30.4606 32.9692 23.9266V17.7124Z" fill="#FCE595"/>
<mask id="mask1_4998_19715" style="mask-type:alpha" maskUnits="userSpaceOnUse" x="32" y="3" width="45" height="35">
<path d="M32.9692 17.7126C32.9692 11.1785 42.7069 3.49158 54.719 3.49158C66.7311 3.49158 76.4688 11.1785 76.4688 17.7126V23.9268C76.4688 30.4608 66.7311 36.9527 54.719 36.9527C42.7069 36.9527 32.9692 30.4608 32.9692 23.9268V17.7126Z" fill="#FCE595" stroke="#1D1D1D" stroke-width="0.3" stroke-linecap="round" stroke-linejoin="round"/>
</mask>
<g mask="url(#mask1_4998_19715)">
<path d="M32.9692 17.7126C32.9692 11.1785 42.7069 3.49158 54.719 3.49158C66.7311 3.49158 76.4688 11.1785 76.4688 17.7126V23.9268C76.4688 30.4608 66.7311 36.9527 54.719 36.9527C42.7069 36.9527 32.9692 30.4608 32.9692 23.9268V17.7126Z" fill="#FCE595" stroke="#1D1D1D" stroke-width="0.3" stroke-linecap="round" stroke-linejoin="round"/>
<g style="mix-blend-mode:multiply">
<rect x="55.3066" y="22.5732" width="8.22964" height="19.9863" fill="#FAE3C3"/>
</g>
<g style="mix-blend-mode:multiply">
<rect width="2.35132" height="19.9863" transform="matrix(-1 0 0 1 68.2363 22.5732)" fill="#FAE3C3"/>
</g>
<g style="mix-blend-mode:multiply">
<rect x="32.9688" y="16.6949" width="9.4053" height="19.9863" fill="#FAE3C3"/>
</g>
</g>
<ellipse cx="21.4683" cy="14.5056" rx="21.4683" ry="14.5056" transform="matrix(-1 0 0 1 76.1348 3.49139)" fill="white" stroke="#1D1D1D" stroke-width="0.3" stroke-linecap="round" stroke-linejoin="round"/>
<g style="mix-blend-mode:multiply">
<ellipse cx="21.7994" cy="15.0575" rx="21.7994" ry="15.0575" transform="matrix(-0.821948 0.569563 0.569563 0.821948 40.1113 0.424255)" fill="#7A9FA0" fill-opacity="0.5"/>
</g>
<path d="M9.13645 32.0652C5.4149 26.6945 9.04057 14.83 18.9139 7.98838C28.7871 1.14676 41.1692 1.91881 44.8908 7.28944L48.4302 12.3972C52.1517 17.7678 47.8454 28.6501 37.9721 35.4917C28.0988 42.3333 16.3974 42.5435 12.6758 37.1729L9.13645 32.0652Z" fill="#FCE595"/>
<mask id="mask2_4998_19715" style="mask-type:alpha" maskUnits="userSpaceOnUse" x="7" y="2" width="43" height="40">
<path d="M9.1345 32.0653C5.41295 26.6946 9.03862 14.8301 18.9119 7.98851C28.7852 1.14688 41.1673 1.91893 44.8888 7.28956L48.4282 12.3973C52.1497 17.768 47.8434 28.6502 37.9701 35.4918C28.0969 42.3335 16.3954 42.5437 12.6739 37.173L9.1345 32.0653Z" fill="#FCE595" stroke="#1D1D1D" stroke-width="0.3" stroke-linecap="round" stroke-linejoin="round"/>
</mask>
<g mask="url(#mask2_4998_19715)">
<path d="M9.1345 32.0653C5.41295 26.6946 9.03862 14.8301 18.9119 7.98851C28.7852 1.14688 41.1673 1.91893 44.8888 7.28956L48.4282 12.3973C52.1497 17.768 47.8434 28.6502 37.9701 35.4918C28.0969 42.3335 16.3954 42.5437 12.6739 37.173L9.1345 32.0653Z" fill="#FCE595" stroke="#1D1D1D" stroke-width="0.3" stroke-linecap="round" stroke-linejoin="round"/>
<g style="mix-blend-mode:multiply">
<rect x="30.2637" y="23.3377" width="8.22964" height="19.9863" transform="rotate(-34.7198 30.2637 23.3377)" fill="#FAE3C3"/>
</g>
<g style="mix-blend-mode:multiply">
<rect width="2.35132" height="19.9863" transform="matrix(-0.821948 0.569563 0.569563 0.821948 40.8926 15.9733)" fill="#FAE3C3"/>
</g>
<g style="mix-blend-mode:multiply">
<rect x="8.55664" y="31.2297" width="9.4053" height="19.9863" transform="rotate(-34.7198 8.55664 31.2297)" fill="#FAE3C3"/>
</g>
</g>
<ellipse cx="21.7498" cy="14.229" rx="21.7498" ry="14.229" transform="matrix(-0.821948 0.569563 0.569563 0.821948 36.791 -4.39948)" fill="white" stroke="#1D1D1D" stroke-width="0.3" stroke-linecap="round" stroke-linejoin="round"/>
<g style="mix-blend-mode:multiply">
<ellipse cx="25.7087" cy="16.7104" rx="25.7087" ry="16.7104" transform="matrix(-0.999999 -0.0012662 -0.0012662 0.999999 65.3418 52.8303)" fill="#7A9FA0" fill-opacity="0.5"/>
</g>
<path d="M15.2718 62.0519C15.281 54.8007 26.0985 46.2836 39.4291 46.3004C52.7598 46.3173 63.5556 54.8618 63.5464 62.1131L63.5377 69.0094C63.5285 76.2607 52.7128 83.4516 39.3821 83.4347C26.0514 83.4179 15.2539 76.1996 15.2631 68.9483L15.2718 62.0519Z" fill="#FCE595"/>
<mask id="mask3_4998_19715" style="mask-type:alpha" maskUnits="userSpaceOnUse" x="15" y="46" width="49" height="38">
<path d="M15.2718 62.0519C15.281 54.8007 26.0985 46.2836 39.4291 46.3004C52.7598 46.3173 63.5556 54.8618 63.5464 62.1131L63.5377 69.0094C63.5285 76.2607 52.7128 83.4516 39.3821 83.4347C26.0514 83.4179 15.2539 76.1996 15.2631 68.9483L15.2718 62.0519Z" fill="#FCE595" stroke="#1D1D1D" stroke-width="0.3" stroke-linecap="round" stroke-linejoin="round"/>
</mask>
<g mask="url(#mask3_4998_19715)">
<path d="M15.2718 62.0519C15.281 54.8007 26.0985 46.2836 39.4291 46.3004C52.7598 46.3173 63.5556 54.8618 63.5464 62.1131L63.5377 69.0094C63.5285 76.2607 52.7128 83.4516 39.3821 83.4347C26.0514 83.4179 15.2539 76.1996 15.2631 68.9483L15.2718 62.0519Z" fill="#FCE595" stroke="#1D1D1D" stroke-width="0.3" stroke-linecap="round" stroke-linejoin="round"/>
<g style="mix-blend-mode:multiply">
<rect x="40.0547" y="67.4782" width="9.13304" height="22.1802" transform="rotate(0.0725478 40.0547 67.4782)" fill="#FAE3C3"/>
</g>
<g style="mix-blend-mode:multiply">
<rect width="2.60944" height="22.1802" transform="matrix(-0.999999 -0.0012662 -0.0012662 0.999999 54.4062 67.496)" fill="#FAE3C3"/>
</g>
<g style="mix-blend-mode:multiply">
<rect x="15.2715" y="60.9234" width="10.4378" height="22.1802" transform="rotate(0.0725478 15.2715 60.9234)" fill="#FAE3C3"/>
</g>
</g>
<ellipse cx="24.1373" cy="15.8428" rx="24.1373" ry="15.8428" transform="matrix(-0.999999 -0.0012662 -0.0012662 0.999999 63.5664 46.331)" fill="white" stroke="#1D1D1D" stroke-width="0.3" stroke-linecap="round" stroke-linejoin="round"/>
<path d="M74.3212 5.89289C74.3795 5.74 74.2021 5.60304 74.0893 5.71379L72.3132 7.45714C72.2003 7.56792 72.0396 7.60352 71.8918 7.55051L69.7297 6.77543C69.5951 6.72718 69.4875 6.89291 69.574 7.01534L70.9627 8.9822C71.0576 9.11672 71.0802 9.29386 71.022 9.44679L70.1049 11.8535C70.0466 12.0064 70.224 12.1433 70.3368 12.0326L72.1129 10.2892C72.2258 10.1784 72.3864 10.1428 72.5343 10.1959L74.6964 10.9709C74.831 11.0192 74.9385 10.8534 74.8521 10.731L73.4634 8.76416C73.3684 8.62964 73.3458 8.4525 73.4041 8.29957L74.3212 5.89289Z" fill="#FFE297" stroke="#1D1D1D" stroke-width="0.3"/>
<path d="M23.7093 1.60413C23.7676 1.45124 23.5902 1.31428 23.4774 1.42503L20.2705 4.57281C20.1576 4.68359 19.997 4.71919 19.8491 4.66618L16.0883 3.318C15.9538 3.26976 15.8462 3.43549 15.9326 3.55791L18.3481 6.97908C18.4431 7.1136 18.4657 7.29074 18.4074 7.44367L16.7515 11.7892C16.6933 11.9421 16.8706 12.079 16.9835 11.9683L20.1904 8.82048C20.3032 8.7097 20.4639 8.6741 20.6118 8.72711L24.3725 10.0753C24.5071 10.1235 24.6147 9.9578 24.5282 9.83538L22.1128 6.41421C22.0178 6.27969 21.9952 6.10255 22.0534 5.94962L23.7093 1.60413Z" fill="#FFE297" stroke="#1D1D1D" stroke-width="0.3"/>
<path d="M60.4294 46.5439C60.4876 46.391 60.3103 46.254 60.1975 46.3648L56.9411 49.5611C56.8283 49.6719 56.6676 49.7075 56.5197 49.6545L52.7037 48.2865C52.5692 48.2382 52.4616 48.404 52.5481 48.5264L54.999 51.9978C55.094 52.1323 55.1166 52.3095 55.0583 52.4624L53.3769 56.8748C53.3186 57.0277 53.496 57.1647 53.6088 57.0539L56.8651 53.8577C56.978 53.7469 57.1387 53.7113 57.2866 53.7643L61.1025 55.1323C61.2371 55.1805 61.3447 55.0148 61.2582 54.8923L61.3719 54.8001L61.2582 54.8923L58.8073 51.4209C58.7123 51.2864 58.6897 51.1093 58.748 50.9564L60.4294 46.5439Z" fill="#FFE297" stroke="#1D1D1D" stroke-width="0.3"/>
<defs>
<linearGradient id="paint0_linear_4998_19715" x1="40.9629" y1="8.62946" x2="-6.53032" y2="8.62946" gradientUnits="userSpaceOnUse">
<stop stop-color="#FCE595"/>
<stop offset="0.455" stop-color="white"/>
<stop offset="0.56" stop-color="white"/>
<stop offset="1" stop-color="#FCE8A3"/>
</linearGradient>
</defs>
</svg>
