<svg width="89" height="88" viewBox="0 0 89 88" fill="none" xmlns="http://www.w3.org/2000/svg">
<g style="mix-blend-mode:multiply">
<path d="M87.9166 61.9873C87.9214 64.0453 69.3532 65.7505 46.4441 65.8019C23.5349 65.8533 2.83178 64.2362 2.827 62.1782C2.82222 60.1202 23.5177 58.4102 46.4268 58.3588C69.3359 58.3074 87.9118 59.933 87.9166 61.9873Z" fill="#7A9FA0" fill-opacity="0.5"/>
</g>
<path d="M7.7125 32.0122H36.0294H69.9463V59.3911H7.7125V32.0122Z" fill="#FAE3C3" stroke="#1D1D1D" stroke-width="0.3"/>
<path d="M75.8845 59.8358V64.1526C75.8845 64.7048 75.4367 65.1526 74.8845 65.1526H38.2671H3.64258C3.09029 65.1526 2.64258 64.7048 2.64258 64.1526V59.8358C2.64258 59.2835 3.09029 58.8358 3.64258 58.8358H38.2671H74.8845C75.4367 58.8358 75.8845 59.2835 75.8845 59.8358Z" fill="#FAE3C3"/>
<path d="M38.2671 58.8358H74.8845C75.4367 58.8358 75.8845 59.2835 75.8845 59.8358V64.1526C75.8845 64.7048 75.4367 65.1526 74.8845 65.1526H38.2671M38.2671 58.8358H3.64258C3.09029 58.8358 2.64258 59.2835 2.64258 59.8358V64.1526C2.64258 64.7048 3.09029 65.1526 3.64258 65.1526H38.2671M38.2671 58.8358V65.1526" stroke="#1D1D1D" stroke-width="0.3"/>
<g style="mix-blend-mode:multiply">
<path fill-rule="evenodd" clip-rule="evenodd" d="M8.72656 31.8622C8.72656 31.8622 8.72659 31.8622 8.72662 31.8622H13.4382C13.4383 31.8622 13.4383 31.8622 13.4383 31.8622C13.4383 31.8623 13.4383 31.8623 13.4383 31.8623H13.909C14.1689 31.8623 14.3796 32.073 14.3796 32.333V34.6028C14.3796 34.8627 14.1689 35.0734 13.909 35.0734C13.649 35.0734 13.4383 35.2841 13.4383 35.5441V55.1537C13.4383 55.4136 13.649 55.6243 13.909 55.6243C14.1689 55.6243 14.3796 55.835 14.3796 56.095V58.3648C14.3796 58.6247 14.1689 58.8354 13.909 58.8354H13.4384C13.4383 58.8354 13.4383 58.8355 13.4383 58.8355C13.4383 58.8355 13.4383 58.8356 13.4382 58.8356H8.72663C8.72659 58.8356 8.72656 58.8355 8.72656 58.8355C8.72656 58.8355 8.72653 58.8354 8.72649 58.8354H8.25488C7.99438 58.8354 7.7832 58.6243 7.7832 58.3638V56.096C7.7832 55.8355 7.99438 55.6243 8.25488 55.6243C8.51538 55.6243 8.72656 55.4131 8.72656 55.1526V35.5451C8.72656 35.2846 8.51538 35.0734 8.25488 35.0734C7.99438 35.0734 7.7832 34.8622 7.7832 34.6017V32.334C7.7832 32.0735 7.99438 31.8623 8.25488 31.8623H8.7265C8.72653 31.8623 8.72656 31.8623 8.72656 31.8622Z" fill="#FAE3C3"/>
</g>
<g style="mix-blend-mode:multiply">
<path fill-rule="evenodd" clip-rule="evenodd" d="M19.0039 31.8622C18.4829 31.8622 18.0605 32.2845 18.0605 32.8055V34.6016C18.0605 34.8621 18.2717 35.0733 18.5322 35.0733C18.7927 35.0733 19.0039 35.2845 19.0039 35.545V55.1526C19.0039 55.4131 18.7927 55.6243 18.5322 55.6243C18.2717 55.6243 18.0605 55.8355 18.0605 56.096V58.3638C18.0605 58.6243 18.2717 58.8354 18.5322 58.8354H19.0038C19.0039 58.8354 19.0039 58.8355 19.0039 58.8355C19.0039 58.8355 19.0039 58.8356 19.004 58.8356H23.7156C23.7156 58.8356 23.7156 58.8355 23.7156 58.8355C23.7156 58.8355 23.7157 58.8354 23.7157 58.8354H24.1863C24.4462 58.8354 24.657 58.6247 24.657 58.3648V56.095C24.657 55.835 24.4462 55.6243 24.1863 55.6243C23.9264 55.6243 23.7156 55.4136 23.7156 55.1537V35.544C23.7156 35.284 23.9264 35.0733 24.1863 35.0733C24.4462 35.0733 24.657 34.8626 24.657 34.6026V32.8035C24.657 32.2836 24.2355 31.8622 23.7156 31.8622H19.0039Z" fill="#FAE3C3"/>
</g>
<g style="mix-blend-mode:multiply">
<path fill-rule="evenodd" clip-rule="evenodd" d="M29.9277 31.8622C29.9277 31.8622 29.9278 31.8622 29.9278 31.8622H34.6394C34.6394 31.8622 34.6395 31.8622 34.6395 31.8622C34.6395 31.8623 34.6395 31.8623 34.6395 31.8623H35.1101C35.3701 31.8623 35.5808 32.073 35.5808 32.333V34.6028C35.5808 34.8627 35.3701 35.0734 35.1101 35.0734C34.8502 35.0734 34.6395 35.2841 34.6395 35.5441V55.1537C34.6395 55.4136 34.8502 55.6243 35.1101 55.6243C35.3701 55.6243 35.5808 55.835 35.5808 56.095V58.3648C35.5808 58.6247 35.3701 58.8354 35.1101 58.8354H34.6395C34.6395 58.8354 34.6395 58.8355 34.6395 58.8355C34.6395 58.8355 34.6394 58.8356 34.6394 58.8356H29.9278C29.9278 58.8356 29.9277 58.8355 29.9277 58.8355C29.9277 58.8355 29.9277 58.8354 29.9277 58.8354H29.4561C29.1956 58.8354 28.9844 58.6243 28.9844 58.3638V56.096C28.9844 55.8355 29.1956 55.6243 29.4561 55.6243C29.7166 55.6243 29.9277 55.4131 29.9277 55.1526V35.5451C29.9277 35.2846 29.7166 35.0734 29.4561 35.0734C29.1956 35.0734 28.9844 34.8622 28.9844 34.6017V32.334C28.9844 32.0735 29.1956 31.8623 29.4561 31.8623H29.9277C29.9277 31.8623 29.9277 31.8623 29.9277 31.8622Z" fill="#FAE3C3"/>
</g>
<g style="mix-blend-mode:multiply">
<path fill-rule="evenodd" clip-rule="evenodd" d="M45.3457 31.8622C45.3457 31.8622 45.3457 31.8622 45.3458 31.8622H50.0574C50.0574 31.8622 50.0574 31.8622 50.0574 31.8622C50.0574 31.8623 50.0575 31.8623 50.0575 31.8623H50.5281C50.788 31.8623 50.9988 32.073 50.9988 32.333V34.6028C50.9988 34.8627 50.788 35.0734 50.5281 35.0734C50.2682 35.0734 50.0574 35.2841 50.0574 35.5441V55.1537C50.0574 55.4136 50.2682 55.6243 50.5281 55.6243C50.788 55.6243 50.9988 55.835 50.9988 56.095V58.3648C50.9988 58.6247 50.788 58.8354 50.5281 58.8354H50.0575C50.0575 58.8354 50.0574 58.8355 50.0574 58.8355C50.0574 58.8355 50.0574 58.8356 50.0574 58.8356H45.3458C45.3457 58.8356 45.3457 58.8355 45.3457 58.8355C45.3457 58.8355 45.3457 58.8354 45.3456 58.8354H44.874C44.6135 58.8354 44.4023 58.6243 44.4023 58.3638V56.096C44.4023 55.8355 44.6135 55.6243 44.874 55.6243C45.1345 55.6243 45.3457 55.4131 45.3457 55.1526V35.5451C45.3457 35.2846 45.1345 35.0734 44.874 35.0734C44.6135 35.0734 44.4023 34.8622 44.4023 34.6017V32.334C44.4023 32.0735 44.6135 31.8623 44.874 31.8623H45.3456C45.3457 31.8623 45.3457 31.8623 45.3457 31.8622Z" fill="#FAE3C3"/>
</g>
<g style="mix-blend-mode:multiply">
<path fill-rule="evenodd" clip-rule="evenodd" d="M56.2676 31.8622C55.7466 31.8622 55.3242 32.2845 55.3242 32.8055V34.6016C55.3242 34.8621 55.5354 35.0733 55.7959 35.0733C56.0564 35.0733 56.2676 35.2845 56.2676 35.545V55.1526C56.2676 55.4131 56.0564 55.6243 55.7959 55.6243C55.5354 55.6243 55.3242 55.8355 55.3242 56.096V58.3638C55.3242 58.6243 55.5354 58.8354 55.7959 58.8354H56.2675C56.2675 58.8354 56.2676 58.8355 56.2676 58.8355C56.2676 58.8355 56.2676 58.8356 56.2676 58.8356H60.9792C60.9793 58.8356 60.9793 58.8355 60.9793 58.8355C60.9793 58.8355 60.9793 58.8354 60.9794 58.8354H61.45C61.7099 58.8354 61.9206 58.6247 61.9206 58.3648V56.095C61.9206 55.835 61.7099 55.6243 61.45 55.6243C61.19 55.6243 60.9793 55.4136 60.9793 55.1537V35.544C60.9793 35.284 61.19 35.0733 61.45 35.0733C61.7099 35.0733 61.9206 34.8626 61.9206 34.6026V32.8035C61.9206 32.2836 61.4992 31.8622 60.9793 31.8622H56.2676Z" fill="#FAE3C3"/>
</g>
<rect x="17.7125" y="32.0122" width="4.41173" height="27.0751" fill="white" stroke="#1D1D1D" stroke-width="0.3"/>
<rect x="16.7691" y="56.1281" width="6.29642" height="2.95894" rx="0.85" fill="white" stroke="#1D1D1D" stroke-width="0.3"/>
<rect x="16.7691" y="32.0122" width="6.29642" height="2.95894" rx="0.85" fill="white" stroke="#1D1D1D" stroke-width="0.3"/>
<rect x="7.34727" y="32.0123" width="4.41173" height="27.0751" fill="white" stroke="#1D1D1D" stroke-width="0.3"/>
<rect x="6.40391" y="56.1283" width="6.29642" height="2.95894" rx="0.85" fill="white" stroke="#1D1D1D" stroke-width="0.3"/>
<rect x="6.40391" y="32.0122" width="6.29642" height="2.95894" rx="0.85" fill="white" stroke="#1D1D1D" stroke-width="0.3"/>
<rect x="28.5465" y="32.0123" width="4.41173" height="27.0751" fill="white" stroke="#1D1D1D" stroke-width="0.3"/>
<rect x="27.6031" y="56.1283" width="6.29642" height="2.95894" rx="0.85" fill="white" stroke="#1D1D1D" stroke-width="0.3"/>
<rect x="27.6031" y="32.0122" width="6.29642" height="2.95894" rx="0.85" fill="white" stroke="#1D1D1D" stroke-width="0.3"/>
<rect x="54.9352" y="32.0122" width="4.41173" height="27.0751" fill="white" stroke="#1D1D1D" stroke-width="0.3"/>
<rect x="53.9918" y="56.1281" width="6.29642" height="2.95894" rx="0.85" fill="white" stroke="#1D1D1D" stroke-width="0.3"/>
<rect x="53.9918" y="32.0122" width="6.29642" height="2.95894" rx="0.85" fill="white" stroke="#1D1D1D" stroke-width="0.3"/>
<rect x="65.7711" y="32.0122" width="4.41173" height="27.0751" fill="white" stroke="#1D1D1D" stroke-width="0.3"/>
<rect x="64.8277" y="56.1281" width="6.29642" height="2.95894" rx="0.85" fill="white" stroke="#1D1D1D" stroke-width="0.3"/>
<rect x="64.8277" y="32.0122" width="6.29642" height="2.95894" rx="0.85" fill="white" stroke="#1D1D1D" stroke-width="0.3"/>
<rect x="44.0973" y="32.0123" width="4.41173" height="27.0751" fill="white" stroke="#1D1D1D" stroke-width="0.3"/>
<rect x="43.1539" y="56.1283" width="6.29642" height="2.95894" rx="0.85" fill="white" stroke="#1D1D1D" stroke-width="0.3"/>
<rect x="43.1539" y="32.0122" width="6.29642" height="2.95894" rx="0.85" fill="white" stroke="#1D1D1D" stroke-width="0.3"/>
<path d="M3.89636 25.4938L20.623 12H52.6015C52.7952 12 52.9847 12.0562 53.147 12.1619L73.6299 25.4938H74.5631C75.1154 25.4938 75.5631 25.9415 75.5631 26.4938V30.9733C75.5631 31.5256 75.1154 31.9733 74.5631 31.9733H37.8144H3C2.44771 31.9733 2 31.5256 2 30.9733V26.4938C2 25.9415 2.44772 25.4938 3 25.4938H3.89636Z" fill="#FAE3C3"/>
<path d="M73.6299 25.4938H37.8144M73.6299 25.4938L53.147 12.1619C52.9847 12.0562 52.7952 12 52.6015 12H20.623M73.6299 25.4938H74.5631C75.1154 25.4938 75.5631 25.9415 75.5631 26.4938V30.9733C75.5631 31.5256 75.1154 31.9733 74.5631 31.9733H37.8144M3.89636 25.4938H37.8144M3.89636 25.4938L20.623 12M3.89636 25.4938H3C2.44772 25.4938 2 25.9415 2 26.4938V30.9733C2 31.5256 2.44771 31.9733 3 31.9733H37.8144M37.8144 25.4938V31.9733M37.8144 25.4938L20.623 12" stroke="#1D1D1D" stroke-width="0.3"/>
</svg>
