<svg width="89" height="88" viewBox="0 0 89 88" fill="none" xmlns="http://www.w3.org/2000/svg">
<path d="M10.7186 53.2472L10.7163 53.2458C9.85577 52.7677 9.36963 52.1142 9.12876 51.3408C8.88774 50.5669 8.88986 49.6644 9.02675 48.684L26.8735 8.37903C26.8735 8.37894 26.8736 8.37885 26.8736 8.37875C27.6779 6.58411 29.719 5.70128 31.5761 6.34465L63.4298 17.4295L76.4101 23.5722L76.4115 23.5728C78.4958 24.5342 79.552 26.6999 78.6409 28.7224L78.6399 28.7248L59.8166 72.5072C59.8165 72.5076 59.8163 72.5079 59.8161 72.5083C59.6928 72.782 59.5415 73.0333 59.3674 73.2606C58.4906 74.4056 56.8596 74.5574 54.9315 74.2648C53.4956 74.0469 51.9422 73.5908 50.4935 73.1654C50.0066 73.0225 49.5315 72.883 49.0766 72.7571L40.5816 70.4073C40.2709 70.3213 39.9718 70.1977 39.6911 70.0391C39.6908 70.039 39.6906 70.0388 39.6904 70.0387L10.7186 53.2472Z" fill="#CBD5CA" stroke="#1D1D1D" stroke-width="0.3"/>
<g style="mix-blend-mode:multiply" opacity="0.2">
<path d="M31.6252 6.20292C29.6945 5.53404 27.5726 6.45198 26.7366 8.3177L8.88112 48.6424C8.5989 50.6385 8.85438 52.3829 10.6434 53.377L39.6166 70.1693C39.9082 70.3341 40.2188 70.4625 40.5416 70.5518L49.0366 72.9017C52.6288 73.8954 57.6207 75.7883 59.4865 73.3518C59.6678 73.115 59.8252 72.8534 59.9534 72.5688L78.7777 28.7841C79.7299 26.6702 78.6162 24.4245 76.4743 23.4366L63.4867 17.2905L31.6252 6.20292Z" fill="#226752"/>
</g>
<g style="mix-blend-mode:multiply" opacity="0.5">
<path fill-rule="evenodd" clip-rule="evenodd" d="M8.88867 49.3296L41.3621 66.4776C41.7107 66.6575 42.0801 66.8016 42.4618 66.9065L52.508 69.6688C53.0399 69.8151 53.5982 69.9766 54.1718 70.1426C56.223 70.7361 58.4717 71.3867 60.4216 71.6014L60.042 72.4842C59.9138 72.7689 59.7564 73.0305 59.5751 73.2673C57.9429 75.3987 53.9185 74.217 50.5315 73.2224C50.0467 73.0801 49.575 72.9416 49.1252 72.8172L40.6302 70.4673C40.3074 70.378 39.9968 70.2495 39.7052 70.0847L10.732 53.2924C9.1778 52.4288 8.781 50.9989 8.88867 49.3296Z" fill="#CBD5CA"/>
</g>
<g style="mix-blend-mode:multiply" opacity="0.4">
<path fill-rule="evenodd" clip-rule="evenodd" d="M26.9281 8.01707C27.8664 6.40888 29.827 5.65888 31.6222 6.28083L63.4837 17.3684L76.4713 23.5145C78.6131 24.5024 79.7268 26.7482 78.7747 28.862L78.2551 30.0705L61.1296 21.7343L26.9281 8.01707Z" fill="#CBD5CA"/>
</g>
<path d="M10.6382 53.2584L10.6368 53.2576C8.93492 52.2935 8.24524 50.1923 9.04453 48.4058L9.04465 48.4055L26.8478 8.40092C27.6513 6.60491 29.6934 5.72095 31.5513 6.36463L63.1397 17.3082C65.2457 18.0378 66.2714 20.4188 65.3554 22.4523L44.7386 68.2209C43.8214 70.2569 41.3543 71.0647 39.4124 69.9652C39.4121 69.9651 39.4119 69.965 39.4116 69.9648L10.6382 53.2584Z" fill="#CBD5CA" stroke="#1D1D1D" stroke-width="0.3"/>
<mask id="mask0_4998_19661" style="mask-type:alpha" maskUnits="userSpaceOnUse" x="19" y="16" width="34" height="41">
<path d="M49.9296 43.0129C47.5751 48.2414 43.8696 52.2594 39.7884 54.532C35.7072 56.8046 31.2601 57.3279 27.4048 55.591C23.5496 53.8541 20.9944 50.1761 19.9914 45.6129C18.9884 41.0497 19.5411 35.6113 21.8956 30.3828C24.25 25.1542 27.9555 21.1363 32.0367 18.8636C36.1179 16.591 40.565 16.0677 44.4203 17.8046C48.2756 19.5415 50.8307 23.2196 51.8337 27.7827C52.8367 32.3459 52.284 37.7843 49.9296 43.0129Z" fill="white" stroke="black" stroke-width="0.3"/>
</mask>
<g mask="url(#mask0_4998_19661)">
<path d="M49.9296 43.0129C47.5751 48.2414 43.8696 52.2594 39.7884 54.532C35.7072 56.8046 31.2601 57.3279 27.4048 55.591C23.5496 53.8541 20.9944 50.1761 19.9914 45.6129C18.9884 41.0497 19.5411 35.6113 21.8956 30.3828C24.25 25.1542 27.9555 21.1363 32.0367 18.8636C36.1179 16.591 40.565 16.0677 44.4203 17.8046C48.2756 19.5415 50.8307 23.2196 51.8337 27.7827C52.8367 32.3459 52.284 37.7843 49.9296 43.0129Z" fill="#CBD5CA" stroke="#1D1D1D" stroke-width="0.3"/>
<ellipse cx="15.4136" cy="20.9837" rx="15.4136" ry="20.9837" transform="matrix(0.911741 0.410765 -0.410597 0.911817 30.5742 11.2786)" fill="#FAE3C3"/>
<path d="M49.841 43.1696C47.5327 48.2956 44.1258 52.3351 40.491 54.7254C36.8544 57.1168 33.0099 57.8466 29.803 56.4018C26.5962 54.957 24.5949 51.5936 23.9755 47.2847C23.3564 42.9779 24.1232 37.7489 26.4314 32.6229C28.7397 27.4969 32.1466 23.4573 35.7814 21.0671C39.418 18.6756 43.2625 17.9459 46.4694 19.3907C49.6762 20.8354 51.6775 24.1989 52.297 28.5078C52.9161 32.8146 52.1492 38.0436 49.841 43.1696Z" fill="#FCF8F2" stroke="#1D1D1D" stroke-width="0.3"/>
<path d="M51.1489 34.1671C52.055 33.9633 52.8956 33.7666 53.186 33.2074C53.3347 32.9212 53.2666 32.6429 52.9792 32.5116C52.6449 32.3589 52.3222 32.5409 52.1036 32.9394L51.8908 32.8133C52.1948 32.2727 52.6333 32.0983 53.0957 32.3095C53.53 32.5079 53.667 32.8918 53.4491 33.3112C53.131 33.9236 52.3258 34.1118 51.5155 34.3099L52.709 34.8552L52.6035 35.0582L51.0538 34.3502L51.1489 34.1671Z" fill="#1D1D1D"/>
<path d="M44.9004 49.3778L46.788 48.3273L47.0839 48.462L46.2912 49.9825L46.691 50.1646L46.5834 50.3709L46.1837 50.1888L45.8523 50.8243L45.6068 50.7124L45.9381 50.077L44.8049 49.5608L44.9004 49.3778ZM45.1895 49.4807L46.0457 49.8707L46.6858 48.643L45.1895 49.4807Z" fill="#1D1D1D"/>
<path d="M49.8941 43.8042C50.2212 43.9521 50.5357 43.8597 50.6896 43.5673C50.8487 43.2649 50.7135 42.9939 50.3447 42.8272L50.1683 42.7475L50.2768 42.5415L50.4275 42.6096C50.8058 42.7806 51.0985 42.662 51.2297 42.4127C51.3661 42.1535 51.2462 41.906 50.9833 41.7871C50.6915 41.6553 50.4012 41.7544 50.2211 42.0062L49.9721 41.8608C50.2239 41.518 50.6443 41.383 51.0932 41.5859C51.5133 41.7757 51.6905 42.1479 51.4894 42.5301C51.332 42.8292 51.0382 42.935 50.7519 42.8756L50.7484 42.8822C50.9889 43.0362 51.1382 43.3258 50.9441 43.6947C50.722 44.1167 50.2538 44.2219 49.7889 44.0117C49.3239 43.8016 49.1432 43.3908 49.2997 42.9802L49.5623 43.0619C49.4434 43.3784 49.5895 43.6665 49.8941 43.8042Z" fill="#1D1D1D"/>
<path d="M50.2169 27.4083L51.0572 25.6883L50.5381 25.4375L50.6397 25.2296L50.8237 25.3185C51.0681 25.4366 51.2037 25.4856 51.3495 25.1872L51.4183 25.0464L51.5941 25.1313L50.4311 27.5118L50.2169 27.4083Z" fill="#1D1D1D"/>
<path d="M38.7122 55.0045C38.3547 54.8336 38.2156 54.5023 38.3018 54.1378L38.5488 54.1731C38.4777 54.4578 38.5896 54.6893 38.8148 54.7969C39.1076 54.9368 39.4391 54.8013 39.6294 54.4162C39.8147 54.0412 39.7296 53.7274 39.4452 53.5915C39.2566 53.5014 39.0284 53.5124 38.8053 53.7245L38.6149 53.6169L39.4592 52.373L40.5347 52.887L40.4338 53.0912L39.5356 52.6621L39.0281 53.4005C39.2158 53.3163 39.4061 53.3327 39.5834 53.4175C39.9692 53.6018 40.1084 54.0243 39.8602 54.5266C39.6021 55.0489 39.1317 55.2049 38.7122 55.0045Z" fill="#1D1D1D"/>
</g>
<path d="M49.955 43.0123C47.6005 48.2408 43.895 52.2587 39.8138 54.5314C35.7326 56.804 31.2855 57.3273 27.4302 55.5904C23.5749 53.8535 21.0198 50.1755 20.0168 45.6123C19.0138 41.0491 19.5665 35.6107 21.921 30.3821C24.2754 25.1536 27.9809 21.1356 32.0621 18.863C36.1433 16.5904 40.5904 16.0671 44.4457 17.804C48.301 19.5409 50.8561 23.2189 51.8591 27.7821C52.8621 32.3453 52.3094 37.7837 49.955 43.0123Z" stroke="#1D1D1D" stroke-width="0.3"/>
<path d="M44.1576 22.9696L45.0187 21.2551L44.4678 20.9959L44.5719 20.7887L44.7672 20.8806C45.0266 21.0026 45.1703 21.0538 45.3197 20.7563L45.3902 20.616L45.5768 20.7037L44.385 23.0766L44.1576 22.9696Z" fill="#1D1D1D"/>
<path d="M44.9608 23.1203C45.8159 22.9029 46.6093 22.6937 46.8913 22.1323C47.0357 21.8448 46.9761 21.5689 46.7079 21.4427C46.396 21.2959 46.0898 21.4823 45.8779 21.8826L45.6798 21.7604C45.9742 21.2172 46.3893 21.0366 46.8207 21.2396C47.2259 21.4303 47.3486 21.8103 47.1371 22.2314C46.8282 22.8463 46.0682 23.0464 45.3031 23.2566L46.4166 23.7806L46.3142 23.9845L44.8684 23.3041L44.9608 23.1203Z" fill="#1D1D1D"/>
<path d="M37.9619 23.37L38.8258 21.6563L38.2705 21.3959L38.375 21.1888L38.5718 21.2811C38.8333 21.4037 38.9781 21.4551 39.128 21.1578L39.1987 21.0175L39.3868 21.1057L38.1911 23.4775L37.9619 23.37Z" fill="#1D1D1D"/>
<path d="M39.2042 23.9527L40.0682 22.239L39.5129 21.9785L39.6173 21.7714L39.8142 21.8638C40.0757 21.9864 40.2205 22.0378 40.3704 21.7405L40.4411 21.6002L40.6291 21.6884L39.4334 24.0601L39.2042 23.9527Z" fill="#1D1D1D"/>
<path d="M32.1639 27.7768L33.0369 26.0655L32.4678 25.8014L32.5733 25.5946L32.7751 25.6882C33.0431 25.8126 33.1914 25.8649 33.3429 25.568L33.4143 25.4279L33.607 25.5173L32.3988 27.8858L32.1639 27.7768Z" fill="#1D1D1D"/>
<path d="M33.7541 28.5642C33.2181 28.3155 33.1786 27.6701 33.5445 26.9529C33.9104 26.2357 34.4671 25.867 35.0031 26.1157C35.5391 26.3644 35.5755 27.0084 35.2097 27.7256C34.8438 28.4428 34.29 28.8129 33.7541 28.5642ZM33.7914 27.0675C33.4936 27.6512 33.4651 28.1743 33.8596 28.3574C34.251 28.539 34.665 28.1948 34.9628 27.611C35.2606 27.0273 35.2891 26.5042 34.8976 26.3225C34.5031 26.1395 34.0892 26.4837 33.7914 27.0675Z" fill="#1D1D1D"/>
<path d="M28.1634 34.8458C27.7874 34.6724 27.6324 34.3412 27.7392 33.9864L27.9852 34.0669C27.9316 34.3184 28.0339 34.5387 28.2754 34.65C28.7339 34.8615 29.1436 34.432 29.4361 33.8702C29.1792 34.098 28.865 34.1428 28.5868 34.0145C28.165 33.82 28.0248 33.3348 28.2612 32.8749C28.4993 32.4116 28.9834 32.1979 29.4481 32.4121C29.7568 32.5545 29.9191 32.8272 29.9166 33.1559C29.9164 33.399 29.8274 33.6754 29.6801 33.962C29.3444 34.6153 28.7992 35.139 28.1634 34.8458ZM28.5 32.9768C28.3253 33.3167 28.407 33.6801 28.728 33.8281C29.0551 33.9789 29.4081 33.7995 29.576 33.4729C29.7421 33.1496 29.6768 32.7691 29.3497 32.6182C29.0196 32.466 28.6696 32.6468 28.5 32.9768Z" fill="#1D1D1D"/>
<path d="M26.1889 41.8327C25.7555 41.6321 25.5513 41.2325 25.7664 40.8123C25.9251 40.5022 26.208 40.3816 26.5209 40.415C26.3413 40.2164 26.3042 39.9518 26.4357 39.695C26.62 39.3349 27.0229 39.1996 27.4382 39.3918C27.8535 39.584 27.9902 39.9689 27.8058 40.3291C27.6744 40.5858 27.4326 40.7214 27.1575 40.7095C27.3751 40.9216 27.4499 41.2078 27.2912 41.5179C27.0761 41.9381 26.6194 42.0319 26.1889 41.8327ZM26.0113 40.9051C25.856 41.2085 25.9878 41.5004 26.2879 41.6393C26.588 41.7782 26.9079 41.6953 27.0632 41.3918C27.2185 41.0884 27.0915 40.7945 26.7914 40.6556C26.4913 40.5167 26.1666 40.6016 26.0113 40.9051ZM26.6579 39.8102C26.535 40.0503 26.6084 40.3318 26.8904 40.4622C27.1723 40.5927 27.4505 40.474 27.5734 40.2339C27.6945 39.9971 27.6211 39.7157 27.3392 39.5852C27.0542 39.4534 26.7791 39.5735 26.6579 39.8102Z" fill="#1D1D1D"/>
<path d="M26.2155 49.1538C26.6592 48.2716 27.2554 47.7834 28.0636 47.3411L27.0227 46.8519L26.8243 47.2462L26.6051 47.1431L26.9059 46.545L28.3825 47.2389L28.29 47.4227C27.5011 47.87 26.8923 48.3688 26.4436 49.2609L26.2155 49.1538Z" fill="#1D1D1D"/>
<path d="M30.3942 54.9622C30.0919 54.8221 29.9133 54.5497 29.9153 54.2165C29.9175 53.9783 30.0034 53.7005 30.1483 53.417C30.4824 52.7633 31.0407 52.2341 31.6635 52.5227C32.0354 52.6949 32.1711 53.0218 32.0443 53.3797L31.7949 53.2971C31.8685 53.0507 31.797 52.832 31.5522 52.7186C31.0957 52.5071 30.6708 52.9579 30.3879 53.5115L30.3384 53.6082C30.5886 53.3529 30.9164 53.282 31.2248 53.4249C31.6481 53.6209 31.7773 54.085 31.5506 54.5286C31.3221 54.9755 30.8446 55.1709 30.3942 54.9622ZM30.2472 53.933C30.0972 54.2265 30.1669 54.6094 30.4904 54.7593C30.8139 54.9092 31.1554 54.7457 31.3174 54.4288C31.4776 54.1153 31.4097 53.758 31.0832 53.6068C30.7567 53.4555 30.3972 53.6395 30.2472 53.933Z" fill="#1D1D1D"/>
<path d="M40.0253 38.5398C39.7783 39.019 39.4138 39.3735 39.0305 39.5626C38.6472 39.7518 38.2555 39.7722 37.9349 39.6068C37.6143 39.4415 37.4037 39.1105 37.3355 38.6884C37.2673 38.2664 37.3445 37.7638 37.5915 37.2846C37.8385 36.8054 38.203 36.451 38.5863 36.2618C38.9696 36.0726 39.3613 36.0523 39.6819 36.2176C40.0025 36.383 40.2131 36.7139 40.2813 37.136C40.3495 37.558 40.2723 38.0607 40.0253 38.5398Z" fill="#656A47" stroke="#1D1D1D" stroke-width="0.3"/>
<path d="M39.7799 38.4033C39.5703 38.8098 39.2615 39.1097 38.938 39.2694C38.6145 39.4291 38.2866 39.445 38.0197 39.3073C37.7528 39.1697 37.5756 38.8933 37.518 38.537C37.4604 38.1808 37.5255 37.7552 37.735 37.3487C37.9445 36.9423 38.2534 36.6424 38.5769 36.4827C38.9004 36.323 39.2283 36.3071 39.4952 36.4447C39.7621 36.5824 39.9393 36.8588 39.9969 37.2151C40.0545 37.5713 39.9894 37.9969 39.7799 38.4033Z" fill="#656A47" stroke="#1D1D1D" stroke-width="0.3"/>
<path d="M38.025 38.6922L37.1811 37.4333L29.4058 42.9448C28.7088 43.4388 28.412 44.3272 28.672 45.1409C28.8486 45.1777 29.0327 45.1407 29.1814 45.0384L38.1297 38.8824L38.025 38.6922Z" fill="#656A47"/>
<path d="M28.672 45.1409V45.1409C28.412 44.3272 28.7088 43.4388 29.4058 42.9448L37.1811 37.4333L38.025 38.6922M28.672 45.1409L38.025 38.6922M28.672 45.1409V45.1409C28.8486 45.1777 29.0327 45.1407 29.1814 45.0384L38.1297 38.8824L38.025 38.6922" stroke="#1D1D1D" stroke-width="0.3"/>
<path d="M38.6342 37.8157L37.3123 37.075L40.9017 30.0781C41.2865 29.328 42.1323 28.936 42.9529 29.1275C43.0041 29.3019 42.9879 29.4892 42.9074 29.6522L38.8322 37.9048L38.6342 37.8157Z" fill="#656A47"/>
<path d="M42.9529 29.1275V29.1275C42.1323 28.936 41.2865 29.328 40.9017 30.0781L37.3123 37.075L38.6342 37.8157M42.9529 29.1275L38.6342 37.8157M42.9529 29.1275V29.1275C43.0041 29.3019 42.9879 29.4892 42.9074 29.6522L38.8322 37.9048L38.6342 37.8157" stroke="#1D1D1D" stroke-width="0.3"/>
<path d="M39.3417 38.1639C39.0947 38.643 38.7302 38.9975 38.3469 39.1867C37.9636 39.3759 37.5719 39.3962 37.2513 39.2308C36.9307 39.0655 36.7201 38.7345 36.6519 38.3125C36.5837 37.8904 36.6609 37.3878 36.9079 36.9086C37.1549 36.4295 37.5194 36.075 37.9027 35.8858C38.286 35.6966 38.6777 35.6763 38.9983 35.8417C39.3189 36.007 39.5295 36.338 39.5977 36.76C39.6659 37.1821 39.5887 37.6847 39.3417 38.1639Z" fill="#656A47" stroke="#1D1D1D" stroke-width="0.3"/>
<path d="M39.0963 38.0275C38.8868 38.434 38.5779 38.7338 38.2544 38.8935C37.9309 39.0532 37.603 39.0691 37.3361 38.9315C37.0692 38.7938 36.892 38.5174 36.8344 38.1611C36.7768 37.8049 36.8419 37.3793 37.0514 36.9729C37.261 36.5664 37.5698 36.2665 37.8933 36.1069C38.2168 35.9471 38.5447 35.9312 38.8116 36.0689C39.0785 36.2065 39.2557 36.4829 39.3133 36.8392C39.3709 37.1954 39.3058 37.621 39.0963 38.0275Z" fill="#656A47" stroke="#1D1D1D" stroke-width="0.3"/>
<path d="M38.3026 37.6914C38.0556 38.1706 37.6911 38.5251 37.3079 38.7143C36.9246 38.9035 36.5329 38.9238 36.2123 38.7584C35.8917 38.5931 35.6811 38.2621 35.6128 37.8401C35.5446 37.418 35.6219 36.9154 35.8689 36.4362C36.1158 35.9571 36.4804 35.6026 36.8636 35.4134C37.2469 35.2242 37.6386 35.2039 37.9592 35.3692C38.2798 35.5346 38.4904 35.8655 38.5586 36.2876C38.6269 36.7097 38.5496 37.2123 38.3026 37.6914Z" fill="#656A47" stroke="#1D1D1D" stroke-width="0.3"/>
<path d="M38.0572 37.5547C37.8477 37.9612 37.5389 38.261 37.2154 38.4207C36.8918 38.5804 36.5639 38.5964 36.297 38.4587C36.0301 38.3211 35.853 38.0446 35.7954 37.6884C35.7378 37.3321 35.8029 36.9066 36.0124 36.5001C36.2219 36.0936 36.5307 35.7938 36.8542 35.6341C37.1778 35.4744 37.5056 35.4584 37.7725 35.5961C38.0394 35.7337 38.2166 36.0102 38.2742 36.3664C38.3318 36.7227 38.2667 37.1482 38.0572 37.5547Z" fill="#656A47" stroke="#1D1D1D" stroke-width="0.3"/>
<g style="mix-blend-mode:multiply">
<path d="M67.5 82C67.5 83.106 57.4598 84 45.075 84C32.6902 84 21.5 83.106 21.5 82C21.5 80.894 32.6902 80 45.075 80C57.4598 80 67.5 80.896 67.5 82Z" fill="#7A9FA0" fill-opacity="0.5"/>
</g>
</svg>
