<svg width="78" height="64" viewBox="0 0 78 64" fill="none" xmlns="http://www.w3.org/2000/svg">
<g style="mix-blend-mode:multiply">
<path d="M44.4229 49.2012C44.4229 50.0867 34.8702 50.8024 23.0867 50.8024C11.3031 50.8024 0.65625 50.0867 0.65625 49.2012C0.65625 48.3157 11.3031 47.6 23.0867 47.6C34.8702 47.6 44.4229 48.3173 44.4229 49.2012Z" fill="#7A9FA0" fill-opacity="0.5"/>
</g>
<path d="M17.4683 13.737L67.1052 12.8613C69.6874 12.8158 71.9249 14.6416 72.3981 17.1805L77.2678 43.3078C77.8639 46.5061 75.4587 49.4793 72.2065 49.5643L21.3976 50.8927C18.7063 50.963 16.3916 49.0006 16.0207 46.3341L12.3229 19.7541C11.8856 16.611 14.2953 13.793 17.4683 13.737Z" fill="#656A47" stroke="#1D1D1D" stroke-width="0.5"/>
<path d="M17.3277 13.587L68.6289 12.2991C70.3255 12.2565 71.8 13.4566 72.1028 15.1265L77.1539 42.983C77.5287 45.0499 75.9813 46.9676 73.8819 47.0381L21.5628 48.7946C19.8058 48.8536 18.2867 47.5795 18.0388 45.8391L14.0057 17.514C13.7154 15.4748 15.2686 13.6387 17.3277 13.587Z" fill="#FCF8F2" stroke="#1D1D1D" stroke-width="0.5"/>
<path d="M50.9043 41.7786C53.5267 40.5164 58.3365 37.8204 56.5955 37.1334C54.4194 36.2747 52.3226 41.7072 56.1049 41.517C59.1308 41.3648 60.5861 39.5156 61.6447 38.5743C59.2708 40.0662 58.8599 42.1353 64.5786 40.364C69.2458 38.9185 70.167 38.3879 70.8641 38.1106" stroke="#1D1D1D" stroke-width="0.5"/>
<path d="M23.5513 28.9053C27.0319 28.0279 33.445 25.1964 31.205 25.625C28.191 26.2017 25.4017 28.8721 30.3361 28.7835C34.2837 28.7126 40.8578 26.2402 37.7033 26.7302C34.5342 27.7767 33.8906 29.2653 41.4292 28.0602C47.5816 27.0766 48.8089 26.7053 49.731 26.5142" stroke="#1D1D1D" stroke-width="0.5"/>
<path d="M55.6319 29.0512L20.0604 29.9708" stroke="#1D1D1D" stroke-width="0.5"/>
<path d="M43.1951 43.1985L22.8783 43.7237" stroke="#1D1D1D" stroke-width="0.5"/>
<path d="M34.7229 40.8133L22.891 41.1191" stroke="#1D1D1D" stroke-width="0.5"/>
<path d="M72.9482 42.2934L49.7781 42.8924" stroke="#1D1D1D" stroke-width="0.5"/>
<path d="M68.4716 16.4755L50.2658 16.9462" stroke="#1D1D1D" stroke-width="0.5"/>
<path d="M37.1767 17.5932L18.9709 18.0638" stroke="#1D1D1D" stroke-width="0.5"/>
<path d="M37.7353 20.3875L19.5294 20.8582" stroke="#1D1D1D" stroke-width="0.5"/>
<path d="M38.8524 23.1816L20.6466 23.6522" stroke="#1D1D1D" stroke-width="0.5"/>
<path d="M20.8297 34.3134L70.5036 33.0293C71.1708 33.012 71.6342 32.3585 71.4297 31.7232L71.177 30.938" stroke="#1D1D1D" stroke-width="0.5"/>
<path d="M58.2707 28.3294L57.9203 25.8802C57.8367 25.2961 58.2743 24.767 58.8637 24.7396L68.9203 24.2716C69.4145 24.2486 69.8512 24.5904 69.9476 25.0756L70.4552 27.629C70.5753 28.2333 70.1257 28.8014 69.51 28.8233L59.2963 29.1872C58.7854 29.2054 58.3431 28.8354 58.2707 28.3294Z" fill="#F0E7D5" stroke="#1D1D1D" stroke-width="0.5"/>
</svg>
