<svg width="57" height="56" viewBox="0 0 57 56" fill="none" xmlns="http://www.w3.org/2000/svg">
<g style="mix-blend-mode:multiply">
<path d="M47.5416 51.2773C47.5416 52.2576 37.3525 53.0501 24.784 53.0501C12.2155 53.0501 0.859375 52.2576 0.859375 51.2773C0.859375 50.297 12.2155 49.5046 24.784 49.5046C37.3525 49.5046 47.5416 50.2988 47.5416 51.2773Z" fill="#7A9FA0" fill-opacity="0.5"/>
</g>
<path d="M17.6123 4.35536L41.6161 2.44536C45.1514 2.16406 48.3155 4.63113 48.9047 8.12833L54.8172 43.2248C55.4841 47.1831 52.6154 50.8622 48.6139 51.1806L24.6101 53.0906C21.0748 53.3719 17.9107 50.9049 17.3215 47.4077L11.409 12.3112C10.7422 8.35292 13.6108 4.67376 17.6123 4.35536Z" fill="white" stroke="black" stroke-width="0.5"/>
<path d="M18.5221 4.28279L42.7167 2.35761C45.6327 2.12558 48.2449 4.154 48.7423 7.03652L54.829 42.3063C55.3952 45.5874 53.0203 48.6459 49.7011 48.91L25.5065 50.8352C22.5905 51.0672 19.9783 49.0388 19.4809 46.1563L13.3942 10.8865C12.828 7.60538 15.2029 4.54689 18.5221 4.28279Z" fill="#CBD5CA" stroke="#1D1D1D" stroke-width="0.5"/>
<path d="M18.9525 8.17981L43.284 6.24375C44.3466 6.15919 45.3059 6.87913 45.5216 7.92304L45.9783 10.133C46.2355 11.3781 45.3433 12.5669 44.076 12.6677L19.7445 14.6038C18.6819 14.6884 17.7226 13.9684 17.5069 12.9245L17.0503 10.7145C16.793 9.46945 17.6852 8.28066 18.9525 8.17981Z" fill="white" stroke="#1D1D1D" stroke-width="0.5"/>
<path d="M21.1093 13.4355C21.4284 13.4102 21.71 13.3234 21.9541 13.1753C22.1983 13.0271 22.3848 12.8353 22.5136 12.5998C22.6423 12.3644 22.6958 12.1087 22.6738 11.833L22.4396 10.4399C22.4177 10.1641 22.3247 9.92216 22.1606 9.71401C21.9962 9.50186 21.7818 9.34195 21.5172 9.2343C21.2524 9.12265 20.9604 9.07952 20.6414 9.1049C20.3267 9.12994 20.0496 9.21836 19.81 9.37014C19.5658 9.51828 19.3794 9.71008 19.2506 9.94556C19.1215 10.177 19.0679 10.4307 19.0899 10.7064L19.3241 12.0995C19.346 12.3753 19.4392 12.6192 19.6035 12.8314C19.7676 13.0395 19.9821 13.1995 20.2469 13.3111C20.5072 13.4191 20.7946 13.4606 21.1093 13.4355ZM21.0592 12.8061C20.8954 12.8191 20.744 12.797 20.6049 12.7396C20.4613 12.6787 20.3458 12.5913 20.2587 12.4776C20.1672 12.3642 20.1158 12.2356 20.1044 12.0917L19.8616 10.5907C19.8498 10.4429 19.8803 10.3077 19.953 10.1853C20.0257 10.0629 20.126 9.96037 20.2539 9.87779C20.3818 9.79522 20.5277 9.74741 20.6915 9.73438C20.8553 9.72134 21.0112 9.74513 21.1592 9.80575C21.3026 9.86272 21.42 9.94789 21.5114 10.0613C21.6029 10.1747 21.6544 10.3033 21.6658 10.4472L21.9086 11.9482C21.92 12.092 21.8895 12.2272 21.8172 12.3536C21.7448 12.48 21.6425 12.5847 21.5103 12.6676C21.3777 12.7465 21.2274 12.7927 21.0592 12.8061Z" fill="#1D1D1D"/>
<path d="M51.1634 40.9619C50.9679 39.7452 49.8705 38.8829 48.6421 38.9806L24.9305 40.8674C23.5551 40.9768 22.5654 42.2362 22.7843 43.5985L22.8783 44.1838C23.0738 45.4005 24.1712 46.2628 25.3996 46.1651L49.1112 44.2783C50.4866 44.1689 51.4763 42.9095 51.2574 41.5472L51.1634 40.9619Z" fill="white"/>
<path d="M46.9917 16.9254C46.7415 15.7685 45.674 14.9751 44.494 15.069L43.1213 15.1782C41.6952 15.2917 40.6961 16.636 40.9985 18.0342L41.2905 19.3838C41.5408 20.5407 42.6082 21.3341 43.7882 21.2402L45.161 21.1309C46.587 21.0175 47.5862 19.6732 47.2837 18.2749L46.9917 16.9254Z" fill="white"/>
<path d="M39.6131 17.5125C39.3628 16.3556 38.2953 15.5622 37.1154 15.6561L35.7426 15.7654C34.3165 15.8788 33.3174 17.2231 33.6199 18.6214L33.9118 19.9709C34.1621 21.1278 35.2296 21.9212 36.4095 21.8273L37.7823 21.7181C39.2083 21.6046 40.2075 20.2603 39.905 18.8621L39.6131 17.5125Z" fill="white"/>
<path d="M32.2344 18.0997C31.9841 16.9427 30.9166 16.1494 29.7367 16.2432L28.3639 16.3525C26.9378 16.4659 25.9387 17.8103 26.2412 19.2085L26.5331 20.558C26.7834 21.7149 27.8509 22.5083 29.0308 22.4144L30.4036 22.3052C31.8297 22.1917 32.8288 20.8474 32.5263 19.4492L32.2344 18.0997Z" fill="white"/>
<path d="M24.856 18.6868C24.6057 17.5298 23.5382 16.7365 22.3583 16.8303L20.9855 16.9396C19.5595 17.0531 18.5603 18.3974 18.8628 19.7956L19.1547 21.1451C19.405 22.302 20.4725 23.0954 21.6524 23.0015L23.0252 22.8923C24.4513 22.7788 25.4504 21.4345 25.1479 20.0363L24.856 18.6868Z" fill="white"/>
<path d="M48.4815 24.6691C48.2312 23.5121 47.1637 22.7187 45.9838 22.8126L44.611 22.9219C43.1849 23.0353 42.1858 24.3796 42.4882 25.7779L42.7802 27.1274C43.0305 28.2843 44.0979 29.0777 45.2779 28.9838L46.6507 28.8746C48.0767 28.7611 49.0759 27.4168 48.7734 26.0186L48.4815 24.6691Z" fill="white"/>
<path d="M41.1028 25.2562C40.8525 24.0993 39.785 23.3059 38.6051 23.3998L37.2323 23.509C35.8062 23.6225 34.8071 24.9668 35.1096 26.365L35.4015 27.7145C35.6518 28.8714 36.7193 29.6648 37.8992 29.5709L39.272 29.4617C40.698 29.3482 41.6972 28.0039 41.3947 26.6057L41.1028 25.2562Z" fill="white"/>
<path d="M33.7244 25.8433C33.4741 24.6864 32.4066 23.893 31.2267 23.9869L29.8539 24.0961C28.4278 24.2096 27.4287 25.5539 27.7312 26.9521L28.0231 28.3016C28.2734 29.4585 29.3409 30.2519 30.5208 30.158L31.8936 30.0488C33.3197 29.9353 34.3188 28.591 34.0163 27.1928L33.7244 25.8433Z" fill="white"/>
<path d="M49.9712 32.4127C49.7209 31.2558 48.6534 30.4624 47.4735 30.5563L46.1007 30.6655C44.6746 30.779 43.6755 32.1233 43.978 33.5215L44.2699 34.871C44.5202 36.0279 45.5877 36.8213 46.7676 36.7274L48.1404 36.6182C49.5664 36.5047 50.5656 35.1604 50.2631 33.7622L49.9712 32.4127Z" fill="white"/>
<path d="M42.5928 32.9998C42.3425 31.8429 41.275 31.0495 40.0951 31.1434L38.7223 31.2526C37.2962 31.3661 36.2971 32.7104 36.5996 34.1086L36.8915 35.4581C37.1418 36.615 38.2093 37.4084 39.3892 37.3146L40.762 37.2053C42.188 37.0918 43.1872 35.7475 42.8847 34.3493L42.5928 32.9998Z" fill="white"/>
<path d="M35.2141 33.5869C34.9638 32.43 33.8963 31.6366 32.7164 31.7305L31.3436 31.8397C29.9176 31.9532 28.9184 33.2975 29.2209 34.6957L29.5128 36.0453C29.7631 37.2022 30.8306 37.9956 32.0105 37.9017L33.3833 37.7924C34.8094 37.679 35.8085 36.3347 35.506 34.9364L35.2141 33.5869Z" fill="white"/>
<path d="M26.3249 26.4624C26.0873 25.291 25.0125 24.4813 23.8209 24.5761L22.4403 24.686C21.0265 24.7985 20.0294 26.1221 20.3113 27.5121L22.1549 36.6003C22.3925 37.7718 23.4673 38.5815 24.6589 38.4866L26.0395 38.3768C27.4533 38.2643 28.4504 36.9407 28.1685 35.5507L26.3249 26.4624Z" fill="white"/>
<path d="M24.9504 41.1166L48.662 39.2298C49.7604 39.1424 50.7417 39.9136 50.9165 41.0015L51.0106 41.5868C51.2063 42.8051 50.3213 43.9312 49.0913 44.0291L25.3797 45.9159C24.2813 46.0033 23.3 45.2321 23.1252 44.1441L23.0311 43.5588C22.8354 42.3406 23.7204 41.2144 24.9504 41.1166ZM43.1411 15.4274L44.5139 15.3182C45.569 15.2342 46.5236 15.9437 46.7474 16.9783L47.0394 18.3278C47.3098 19.5781 46.4164 20.7803 45.1411 20.8817L43.7684 20.991C42.7132 21.0749 41.7587 20.3654 41.5348 19.3309L41.2429 17.9814C40.9724 16.731 41.8659 15.5289 43.1411 15.4274ZM35.7624 16.0146L37.1352 15.9053C38.1903 15.8214 39.1449 16.5308 39.3687 17.5654L39.6607 18.9149C39.9312 20.1653 39.0377 21.3674 37.7625 21.4689L36.3897 21.5781C35.3345 21.662 34.38 20.9526 34.1562 19.918L33.8642 18.5685C33.5937 17.3182 34.4872 16.116 35.7624 16.0146ZM28.3837 16.6017L29.7565 16.4925C30.8117 16.4085 31.7662 17.118 31.99 18.1525L32.282 19.5021C32.5525 20.7524 31.659 21.9545 30.3838 22.056L29.011 22.1652C27.9558 22.2492 27.0013 21.5397 26.7775 20.5051L26.4855 19.1556C26.215 17.9053 27.1085 16.7032 28.3837 16.6017ZM21.0053 17.1888L22.3781 17.0796C23.4333 16.9956 24.3878 17.7051 24.6116 18.7396L24.9036 20.0892C25.1741 21.3395 24.2806 22.5416 23.0054 22.6431L21.6326 22.7523C20.5774 22.8363 19.6229 22.1268 19.3991 21.0922L19.1071 19.7427C18.8366 18.4924 19.7301 17.2903 21.0053 17.1888ZM44.6308 23.1711L46.0036 23.0618C47.0587 22.9779 48.0133 23.6874 48.2371 24.7219L48.5291 26.0714C48.7996 27.3218 47.9061 28.5239 46.6309 28.6254L45.2581 28.7346C44.2029 28.8186 43.2484 28.1091 43.0246 27.0745L42.7326 25.725C42.4621 24.4747 43.3556 23.2725 44.6308 23.1711ZM37.2521 23.7582L38.6249 23.649C39.6801 23.565 40.6346 24.2745 40.8584 25.309L41.1504 26.6586C41.4209 27.9089 40.5274 29.111 39.2522 29.2125L37.8794 29.3217C36.8242 29.4057 35.8697 28.6962 35.6459 27.6617L35.3539 26.3121C35.0834 25.0618 35.9769 23.8597 37.2521 23.7582ZM29.8737 24.3453L31.2465 24.2361C32.3017 24.1521 33.2562 24.8616 33.48 25.8961L33.772 27.2457C34.0425 28.496 33.149 29.6981 31.8738 29.7996L30.501 29.9088C29.4458 29.9928 28.4913 29.2833 28.2675 28.2488L27.9755 26.8992C27.705 25.6489 28.5985 24.4468 29.8737 24.3453ZM46.1205 30.9147L47.4933 30.8055C48.5484 30.7215 49.503 31.431 49.7268 32.4655L50.0188 33.8151C50.2893 35.0654 49.3958 36.2675 48.1206 36.369L46.7478 36.4782C45.6926 36.5622 44.7381 35.8527 44.5143 34.8182L44.2223 33.4686C43.9518 32.2183 44.8453 31.0162 46.1205 30.9147ZM38.7421 31.5018L40.1149 31.3926C41.17 31.3086 42.1246 32.0181 42.3484 33.0527L42.6404 34.4022C42.9109 35.6525 42.0174 36.8546 40.7422 36.9561L39.3694 37.0653C38.3142 37.1493 37.3597 36.4398 37.1359 35.4053L36.8439 34.0557C36.5734 32.8054 37.4669 31.6033 38.7421 31.5018ZM31.3634 32.0889L32.7362 31.9797C33.7914 31.8958 34.7459 32.6052 34.9697 33.6398L35.2617 34.9893C35.5322 36.2396 34.6387 37.4418 33.3635 37.5432L31.9907 37.6525C30.9355 37.7364 29.981 37.0269 29.7572 35.9924L29.4652 34.6429C29.1947 33.3925 30.0882 32.1904 31.3634 32.0889ZM22.4601 24.9352L23.8408 24.8254C24.9063 24.7406 25.8674 25.4646 26.0799 26.5121L27.9235 35.6004C28.1756 36.8433 27.2839 38.027 26.0197 38.1276L24.639 38.2374C23.5735 38.3222 22.6124 37.5982 22.3999 36.5506L20.5563 27.4624C20.3042 26.2194 21.1959 25.0358 22.4601 24.9352Z" stroke="#1D1D1D" stroke-width="0.5"/>
</svg>
