<svg width="64" height="64" viewBox="0 0 64 64" fill="none" xmlns="http://www.w3.org/2000/svg">
<path d="M7.4743 10.7523C7.4474 12.2358 7.4743 13.7915 7.4743 15.4405V15.6475C7.4743 18.2643 7.4743 21.0842 7.4743 23.922C7.4743 25.3625 7.44643 26.8579 7.4743 28.3111C7.82651 46.6727 11.5495 51.3145 13.642 57.0611H54.8821C52.8504 47.6196 47.6707 39.1051 47.6707 19.5608C47.6398 18.4234 47.6707 17.2649 47.6707 16.0928C47.6707 14.1805 47.6857 12.419 47.6801 10.7523H7.4743Z" fill="#C5ECE0" stroke="#1D1D1D" stroke-width="0.3"/>
<path d="M9.14715 8.98987C9.12026 10.4733 9.14715 12.0291 9.14715 13.678V13.8851C9.14715 16.5019 9.14715 19.3217 9.14715 22.1596C9.14715 23.6 9.11928 25.0954 9.14715 26.5486C9.49936 44.9102 13.2223 49.5521 15.3149 55.2986H56.5549C54.5232 45.8571 49.3435 37.3426 49.3435 17.7984C49.3127 16.661 49.3435 15.5024 49.3435 14.3303C49.3435 12.418 49.3585 10.6565 49.3529 8.98987H9.14715Z" fill="#F5FCFA" stroke="#1D1D1D" stroke-width="0.3"/>
<path d="M10.9108 6.93164C10.8839 8.41508 10.9108 9.97084 10.9108 11.6198V11.8268C10.9108 14.4437 10.9108 17.2635 10.9108 20.1013C10.9108 21.5418 10.883 23.0372 10.9108 24.4904C11.263 42.852 14.986 47.4938 17.0785 53.2404H58.3186C56.2869 43.7989 51.1072 35.2844 51.1072 15.7401C51.0764 14.6027 51.1072 13.4442 51.1072 12.2721C51.1072 10.3598 51.1222 8.59827 51.1166 6.93164H10.9108Z" fill="white" stroke="#1D1D1D" stroke-width="0.3"/>
<path d="M15.0547 17.4769V17.6359M15.0547 23.9888H48.0077M15.0547 27.3586H48.2413M20.4034 49.4322H53.7696M47.935 20.6404H15.0547M15.1767 30.4918H40.7615M15.4579 33.8147H49.2147M16.0404 37.636H42.137H50.1489M18.3566 44.9463H52.483" stroke="#1D1D1D" stroke-width="0.3"/>
<path d="M15.0547 17.4769V17.6359M15.0547 23.9888H48.0077M15.0547 27.3586H48.2413M20.4034 49.4322H53.7696M47.935 20.6404H15.0547M15.1767 30.4918H40.7615M15.4579 33.8147H49.2147M16.0404 37.636H42.137H50.1489M18.3566 44.9463H52.483" stroke="#1D1D1D" stroke-width="0.3"/>
<path d="M50.7658 40.0367H42.7539" stroke="#1D1D1D" stroke-width="0.3"/>
<path d="M51.5591 42.652H43.3057" stroke="#1D1D1D" stroke-width="0.3"/>
<path d="M19.6689 17.4769V17.6359C19.6689 24.0059 19.7838 30.3797 20.4716 33.8853M23.9105 49.5012C23.3534 48.0493 22.5349 45.0395 22.5349 45.0395" stroke="#1D1D1D" stroke-width="0.3"/>
<path d="M47.934 17.5875H15.0537" stroke="#1D1D1D" stroke-width="0.3"/>
<path d="M39.3857 17.6321C39.5859 23.0847 39.3857 24.3246 41.4491 33.8853M42.1369 37.7096C42.3708 38.5747 43.1686 43.1274 45.5758 49.5012" stroke="#1D1D1D" stroke-width="0.3"/>
<path d="M34.9145 49.5013C34.2268 47.2704 33.4702 44.9759 33.4702 44.9759M29.0684 20.5641C29.0684 20.5641 29.1338 22.7599 29.2747 24.006M29.4123 27.3841C29.4123 27.3841 29.6874 30.3798 30.719 33.8854" stroke="#1D1D1D" stroke-width="0.3"/>
<path d="M22.3729 9.76453L23.1498 11.4751H23.1799L23.9606 9.76453H24.8804L23.7047 12.274L24.9067 14.7835H23.97L23.1799 13.0705H23.1498L22.3598 14.7835H21.4268L22.6325 12.274L21.4493 9.76453H22.3729Z" fill="black"/>
<path d="M18.3113 14.7835H17.4385L18.7684 9.76453H19.818L21.1461 14.7835H20.2732L19.3083 10.9114H19.2782L18.3113 14.7835ZM18.2567 12.8107H20.3184V13.639H18.2567V12.8107Z" fill="black"/>
<path d="M14.4326 10.6394V9.76453H17.5966V10.6394H16.4171V14.7835H15.612V10.6394H14.4326Z" fill="black"/>
<rect x="27.7861" y="11.2429" width="19.3281" height="2.06211" fill="#C5ECE0"/>
</svg>
