<svg width="65" height="64" viewBox="0 0 65 64" fill="none" xmlns="http://www.w3.org/2000/svg">
<g style="mix-blend-mode:multiply">
<path d="M53.7034 55.0788C53.7034 56.0251 42.1247 56.79 27.842 56.79C13.5593 56.79 0.654297 56.0251 0.654297 55.0788C0.654297 54.1324 13.5593 53.3675 27.842 53.3675C42.1247 53.3675 53.7034 54.1341 53.7034 55.0788Z" fill="#7A9FA0" fill-opacity="0.5"/>
</g>
<mask id="path-3-inside-1_1_475" fill="white">
<path fill-rule="evenodd" clip-rule="evenodd" d="M50.2788 23.1869C50.2788 16.4689 45.5181 10.7835 39.0708 9.48761L3.0847 10.1435C8.35552 12.1721 12.0355 17.2804 12.0355 23.1869V42.0218C12.0355 49.426 17.3366 55.6726 24.4683 57.002L60.3145 56.3487C54.4239 54.2113 50.2788 48.5691 50.2788 42.0218V23.1869Z"/>
</mask>
<path fill-rule="evenodd" clip-rule="evenodd" d="M50.2788 23.1869C50.2788 16.4689 45.5181 10.7835 39.0708 9.48761L3.0847 10.1435C8.35552 12.1721 12.0355 17.2804 12.0355 23.1869V42.0218C12.0355 49.426 17.3366 55.6726 24.4683 57.002L60.3145 56.3487C54.4239 54.2113 50.2788 48.5691 50.2788 42.0218V23.1869Z" fill="#FAE3C3"/>
<path d="M39.0708 9.48761L39.0617 8.98769L39.116 8.9867L39.1693 8.99741L39.0708 9.48761ZM3.0847 10.1435L2.9051 10.6101L3.07559 9.64355L3.0847 10.1435ZM24.4683 57.002L24.4774 57.5019L24.4266 57.5028L24.3767 57.4935L24.4683 57.002ZM60.3145 56.3487L60.485 55.8787L60.3236 56.8486L60.3145 56.3487ZM39.1693 8.99741C45.8477 10.3398 50.7788 16.2283 50.7788 23.1869H49.7788C49.7788 16.7095 45.1885 11.2273 38.9723 9.97781L39.1693 8.99741ZM3.07559 9.64355L39.0617 8.98769L39.0799 9.98753L3.09381 10.6434L3.07559 9.64355ZM11.5355 23.1869C11.5355 17.4923 7.98762 12.5663 2.9051 10.6101L3.2643 9.67684C8.72343 11.778 12.5355 17.0686 12.5355 23.1869H11.5355ZM11.5355 42.0218V23.1869H12.5355V42.0218H11.5355ZM24.3767 57.4935C17.0105 56.1204 11.5355 49.6692 11.5355 42.0218H12.5355C12.5355 49.1828 17.6626 55.2248 24.56 56.5105L24.3767 57.4935ZM60.3236 56.8486L24.4774 57.5019L24.4592 56.5021L60.3053 55.8488L60.3236 56.8486ZM50.7788 42.0218C50.7788 48.3538 54.7874 53.8113 60.485 55.8787L60.1439 56.8187C54.0603 54.6112 49.7788 48.7845 49.7788 42.0218H50.7788ZM50.7788 23.1869V42.0218H49.7788V23.1869H50.7788Z" fill="#1D1D1D" mask="url(#path-3-inside-1_1_475)"/>
<path d="M34.5996 42.566L27.4615 42.664" stroke="#1D1D1D" stroke-width="0.5"/>
<path d="M34.5469 38.4465L27.4087 38.5445" stroke="#1D1D1D" stroke-width="0.5"/>
<path d="M34.502 34.7011L27.3638 34.7992" stroke="#1D1D1D" stroke-width="0.5"/>
<path d="M34.4531 30.9553L27.315 31.0533" stroke="#1D1D1D" stroke-width="0.5"/>
<path d="M45.1133 27.0624L37.9752 27.1605" stroke="#1D1D1D" stroke-width="0.5"/>
<path d="M45.0703 23.6918L37.9322 23.7899" stroke="#1D1D1D" stroke-width="0.5"/>
<path d="M45.0215 19.946L37.8834 20.044" stroke="#1D1D1D" stroke-width="0.5"/>
<path d="M34.4062 27.2093L27.2681 27.3073" stroke="#1D1D1D" stroke-width="0.5"/>
<path d="M34.3652 23.8383L27.2271 23.9364" stroke="#1D1D1D" stroke-width="0.5"/>
<path d="M34.3145 20.0932L27.1763 20.1912" stroke="#1D1D1D" stroke-width="0.5"/>
<path d="M24.8711 39.3282L17.733 39.4262" stroke="#1D1D1D" stroke-width="0.5"/>
<path d="M24.918 43.0738L17.7798 43.1718" stroke="#1D1D1D" stroke-width="0.5"/>
<path d="M29.5645 47.8799L17.3277 48.048" stroke="#1D1D1D" stroke-width="0.5"/>
<path d="M24.8223 35.5827L17.6841 35.6807" stroke="#1D1D1D" stroke-width="0.5"/>
<path d="M43.2578 15.9107L26.9421 16.1348" stroke="#1D1D1D" stroke-width="0.5"/>
<path d="M36.7754 12.689L26.7555 12.8266" stroke="#1D1D1D" stroke-width="0.5"/>
<path d="M24.0684 16.1744L16.9302 16.2724" stroke="#1D1D1D" stroke-width="0.5"/>
<path d="M23.332 12.8743L14.1544 13.0004" stroke="#1D1D1D" stroke-width="0.5"/>
<path d="M38.2344 47.7609L31.0962 47.859" stroke="#1D1D1D" stroke-width="0.5"/>
<path d="M47.4141 47.6346L40.2759 47.7326" stroke="#1D1D1D" stroke-width="0.5"/>
<path d="M40.3301 52.2277L24.0144 52.4518" stroke="#1D1D1D" stroke-width="0.5"/>
<path d="M49.5098 52.1017L42.3716 52.1998" stroke="#1D1D1D" stroke-width="0.5"/>
<rect x="44.9297" y="43.4767" width="8.16848" height="12.236" rx="1.75" transform="rotate(180 44.9297 43.4767)" fill="#374941" stroke="#1D1D1D" stroke-width="0.5"/>
<rect x="0.25" y="-0.25" width="6.63875" height="12.236" rx="1.75" transform="matrix(1 0 0 -1 17.6445 31.6148)" fill="#374941" stroke="#1D1D1D" stroke-width="0.5"/>
<mask id="path-29-inside-2_1_475" fill="white">
<path fill-rule="evenodd" clip-rule="evenodd" d="M51.9508 21.4418C51.9508 14.7238 47.1901 9.03841 40.7428 7.74249L4.75667 8.39835C10.0275 10.427 13.7075 15.5353 13.7075 21.4418V40.2767C13.7075 47.6808 19.0084 53.9274 26.1401 55.2568L61.9863 54.6035C56.0958 52.4661 51.9508 46.824 51.9508 40.2767V21.4418Z"/>
</mask>
<path fill-rule="evenodd" clip-rule="evenodd" d="M51.9508 21.4418C51.9508 14.7238 47.1901 9.03841 40.7428 7.74249L4.75667 8.39835C10.0275 10.427 13.7075 15.5353 13.7075 21.4418V40.2767C13.7075 47.6808 19.0084 53.9274 26.1401 55.2568L61.9863 54.6035C56.0958 52.4661 51.9508 46.824 51.9508 40.2767V21.4418Z" fill="#FAE3C3"/>
<path d="M40.7428 7.74249L40.7337 7.24258L40.788 7.24159L40.8413 7.2523L40.7428 7.74249ZM4.75667 8.39835L4.57707 8.86498L4.74756 7.89843L4.75667 8.39835ZM26.1401 55.2568L26.1492 55.7568L26.0984 55.7577L26.0485 55.7484L26.1401 55.2568ZM61.9863 54.6035L62.1569 54.1335L61.9954 55.1035L61.9863 54.6035ZM40.8413 7.2523C47.5197 8.59466 52.4508 14.4832 52.4508 21.4418H51.4508C51.4508 14.9644 46.8605 9.48216 40.6442 8.23269L40.8413 7.2523ZM4.74756 7.89843L40.7337 7.24258L40.7519 8.24241L4.76578 8.89827L4.74756 7.89843ZM13.2075 21.4418C13.2075 15.7472 9.65959 10.8212 4.57707 8.86498L4.93627 7.93172C10.3954 10.0329 14.2075 15.3234 14.2075 21.4418H13.2075ZM13.2075 40.2767V21.4418H14.2075V40.2767H13.2075ZM26.0485 55.7484C18.6824 54.3752 13.2075 47.924 13.2075 40.2767H14.2075C14.2075 47.4377 19.3345 53.4795 26.2317 54.7653L26.0485 55.7484ZM61.9954 55.1035L26.1492 55.7568L26.131 54.7569L61.9772 54.1036L61.9954 55.1035ZM52.4508 40.2767C52.4508 46.6086 56.4594 52.0661 62.1569 54.1335L61.8158 55.0736C55.7322 52.866 51.4508 47.0393 51.4508 40.2767H52.4508ZM52.4508 21.4418V40.2767H51.4508V21.4418H52.4508Z" fill="#1D1D1D" mask="url(#path-29-inside-2_1_475)"/>
<path d="M36.2695 40.8215L29.1314 40.9195" stroke="#1D1D1D" stroke-width="0.5"/>
<path d="M36.2207 36.7012L29.0826 36.7993" stroke="#1D1D1D" stroke-width="0.5"/>
<path d="M36.1738 32.9561L29.0357 33.0542" stroke="#1D1D1D" stroke-width="0.5"/>
<path d="M36.125 29.2103L28.9869 29.3083" stroke="#1D1D1D" stroke-width="0.5"/>
<path d="M46.785 25.3175L39.6469 25.4155" stroke="#1D1D1D" stroke-width="0.5"/>
<path d="M46.7422 21.9464L39.6041 22.0445" stroke="#1D1D1D" stroke-width="0.5"/>
<path d="M46.6953 18.2015L39.5572 18.2995" stroke="#1D1D1D" stroke-width="0.5"/>
<path d="M36.078 25.4649L28.9399 25.5629" stroke="#1D1D1D" stroke-width="0.5"/>
<path d="M36.0352 22.0942L28.897 22.1922" stroke="#1D1D1D" stroke-width="0.5"/>
<path d="M35.9883 18.3483L28.8502 18.4464" stroke="#1D1D1D" stroke-width="0.5"/>
<path d="M26.541 37.5838L19.4029 37.6818" stroke="#1D1D1D" stroke-width="0.5"/>
<path d="M26.5879 41.3288L19.4498 41.4268" stroke="#1D1D1D" stroke-width="0.5"/>
<path d="M31.2382 46.1355L19.0014 46.3036" stroke="#1D1D1D" stroke-width="0.5"/>
<path d="M26.4941 33.8378L19.356 33.9359" stroke="#1D1D1D" stroke-width="0.5"/>
<path d="M44.9277 14.1662L28.612 14.3903" stroke="#1D1D1D" stroke-width="0.5"/>
<path d="M38.4473 10.9446L28.4274 11.0823" stroke="#1D1D1D" stroke-width="0.5"/>
<path d="M25.7401 14.4299L18.602 14.5279" stroke="#1D1D1D" stroke-width="0.5"/>
<path d="M25.0037 11.1298L15.8261 11.2559" stroke="#1D1D1D" stroke-width="0.5"/>
<path d="M39.9082 46.0161L32.7701 46.1141" stroke="#1D1D1D" stroke-width="0.5"/>
<path d="M49.0839 45.8901L41.9457 45.9881" stroke="#1D1D1D" stroke-width="0.5"/>
<path d="M42.0039 50.4836L25.6882 50.7077" stroke="#1D1D1D" stroke-width="0.5"/>
<path d="M51.1816 50.3572L44.0435 50.4553" stroke="#1D1D1D" stroke-width="0.5"/>
<rect x="46.6035" y="41.7319" width="8.16848" height="12.236" rx="1.75" transform="rotate(180 46.6035 41.7319)" fill="#374941" stroke="#1D1D1D" stroke-width="0.5"/>
<rect x="0.25" y="-0.25" width="6.63875" height="12.236" rx="1.75" transform="matrix(1 0 0 -1 19.3184 29.8699)" fill="#374941" stroke="#1D1D1D" stroke-width="0.5"/>
<mask id="path-55-inside-3_1_475" fill="white">
<path fill-rule="evenodd" clip-rule="evenodd" d="M53.6189 19.6991C53.6189 12.9813 48.8584 7.29601 42.4113 5.99994L6.42498 6.6558C11.6957 8.68453 15.3756 13.7928 15.3756 19.6991V38.534C15.3756 45.9385 20.677 52.1853 27.8091 53.5144L63.6549 52.8611C57.7641 50.7238 53.6189 45.0815 53.6189 38.534V19.6991Z"/>
</mask>
<path fill-rule="evenodd" clip-rule="evenodd" d="M53.6189 19.6991C53.6189 12.9813 48.8584 7.29601 42.4113 5.99994L6.42498 6.6558C11.6957 8.68453 15.3756 13.7928 15.3756 19.6991V38.534C15.3756 45.9385 20.677 52.1853 27.8091 53.5144L63.6549 52.8611C57.7641 50.7238 53.6189 45.0815 53.6189 38.534V19.6991Z" fill="white"/>
<path d="M42.4113 5.99994L42.4022 5.50002L42.4565 5.49903L42.5098 5.50975L42.4113 5.99994ZM6.42498 6.6558L6.24538 7.12243L6.41587 6.15588L6.42498 6.6558ZM27.8091 53.5144L27.8182 54.0143L27.7674 54.0152L27.7175 54.0059L27.8091 53.5144ZM63.6549 52.8611L63.8254 52.3911L63.664 53.361L63.6549 52.8611ZM42.5098 5.50975C49.188 6.85227 54.1189 12.7407 54.1189 19.6991H53.1189C53.1189 13.2219 48.5288 7.73975 42.3127 6.49013L42.5098 5.50975ZM6.41587 6.15588L42.4022 5.50002L42.4204 6.49986L6.43409 7.15572L6.41587 6.15588ZM14.8756 19.6991C14.8756 14.0046 11.3278 9.07868 6.24538 7.12243L6.60459 6.18917C12.0636 8.29038 15.8756 13.5809 15.8756 19.6991H14.8756ZM14.8756 38.534V19.6991H15.8756V38.534H14.8756ZM27.7175 54.0059C20.351 52.6331 14.8756 46.1817 14.8756 38.534H15.8756C15.8756 45.6953 21.003 51.7374 27.9007 53.0228L27.7175 54.0059ZM63.664 53.361L27.8182 54.0143L27.8 53.0145L63.6458 52.3612L63.664 53.361ZM54.1189 38.534C54.1189 44.8661 58.1277 50.3238 63.8254 52.3911L63.4844 53.3311C57.4005 51.1237 53.1189 45.2969 53.1189 38.534H54.1189ZM54.1189 19.6991V38.534H53.1189V19.6991H54.1189Z" fill="#1D1D1D" mask="url(#path-55-inside-3_1_475)"/>
<path d="M47.4258 28.6542L31.3863 28.8783" stroke="#1D1D1D" stroke-width="0.5"/>
<path d="M28.5586 28.9179L21.5413 29.0159" stroke="#1D1D1D" stroke-width="0.5"/>
<path d="M32.4121 40.1396L20.3825 40.3077" stroke="#1D1D1D" stroke-width="0.5"/>
<path d="M27.418 13.123L19.4107 13.2349" stroke="#1D1D1D" stroke-width="0.5"/>
<path d="M40.9316 40.0204L33.9144 40.1185" stroke="#1D1D1D" stroke-width="0.5"/>
<path d="M49.9531 39.8945L42.9359 39.9925" stroke="#1D1D1D" stroke-width="0.5"/>
<path d="M32.4121 32.8495L20.3825 33.0176" stroke="#1D1D1D" stroke-width="0.5"/>
<path d="M40.9316 32.7304L33.9144 32.8284" stroke="#1D1D1D" stroke-width="0.5"/>
<path d="M49.9531 32.6044L42.9359 32.7025" stroke="#1D1D1D" stroke-width="0.5"/>
<path d="M32.4121 24.9521L20.3825 25.1202" stroke="#1D1D1D" stroke-width="0.5"/>
<path d="M40.9316 24.8325L33.9144 24.9305" stroke="#1D1D1D" stroke-width="0.5"/>
<path d="M49.9531 24.7065L42.9359 24.8045" stroke="#1D1D1D" stroke-width="0.5"/>
<path d="M32.4121 17.0536L20.3825 17.2217" stroke="#1D1D1D" stroke-width="0.5"/>
<path d="M40.9316 16.935L33.9144 17.033" stroke="#1D1D1D" stroke-width="0.5"/>
<path d="M49.9531 16.8085L42.9359 16.9066" stroke="#1D1D1D" stroke-width="0.5"/>
<path d="M38.6174 47.3002C40.2626 46.4593 43.2798 44.663 42.1877 44.2053C40.8225 43.6331 39.5072 47.2527 41.8799 47.1259C43.7781 47.0245 44.691 45.7924 45.3551 45.1653C43.8659 46.1593 43.6082 47.5379 47.1956 46.3577C50.1234 45.3946 50.7013 45.0411 51.1386 44.8564" stroke="#1D1D1D" stroke-width="0.5"/>
<path d="M47.4258 36.5522L31.3863 36.7763" stroke="#1D1D1D" stroke-width="0.5"/>
<path d="M28.5605 36.8159L21.5433 36.9139" stroke="#1D1D1D" stroke-width="0.5"/>
<path d="M31.4199 45.9286L24.4026 46.0267" stroke="#1D1D1D" stroke-width="0.5"/>
<path d="M47.4258 20.7563L31.3863 20.9804" stroke="#1D1D1D" stroke-width="0.5"/>
<path d="M28.5605 21.02L21.5433 21.118" stroke="#1D1D1D" stroke-width="0.5"/>
</svg>
