<svg width="67" height="64" viewBox="0 0 67 64" fill="none" xmlns="http://www.w3.org/2000/svg">
<g style="mix-blend-mode:multiply">
<path d="M56.3559 58.6826C56.3559 59.7656 45.0994 60.641 31.2142 60.641C17.329 60.641 4.7832 59.7656 4.7832 58.6826C4.7832 57.5996 17.329 56.7241 31.2142 56.7241C45.0994 56.7241 56.3559 57.6015 56.3559 58.6826Z" fill="#7A9FA0" fill-opacity="0.5"/>
</g>
<path d="M12.9006 53.4176L12.3907 54.7273C12.089 55.5024 11.9159 56.4555 12.5799 56.9564C13.8517 57.9159 16.6478 57.8211 18.1523 56.0511C18.4001 55.7596 18.5541 55.4033 18.6775 55.0411L20.7342 49.0015C21.1455 47.7938 20.3361 46.515 19.0686 46.3698L15.889 46.0056C14.6809 45.8673 13.6441 46.8304 13.6218 48.0461C13.5897 49.7906 13.411 51.2613 12.9006 53.4176Z" fill="#F5CA95" stroke="black" stroke-width="0.5"/>
<path d="M34.9011 54.6175L34.3459 56.182C34.0982 56.8799 33.9257 57.7123 34.4523 58.2329C35.5763 59.3443 38.3501 59.2591 39.81 57.2747C40.0166 56.9939 40.1465 56.6658 40.2503 56.3331L42.311 49.7254C42.6839 48.53 41.8788 47.2898 40.6351 47.1436L37.9006 46.8224C36.7011 46.6814 35.6625 47.6283 35.6349 48.8357C35.5918 50.7275 35.4128 52.2928 34.9011 54.6175Z" fill="#F5CA95" stroke="black" stroke-width="0.5"/>
<path d="M16.9605 56.4344L16.6786 57.0973C16.3166 57.9488 16.1398 59.0017 16.8876 59.5465C18.4823 60.7082 22.1268 60.6545 24.0267 58.6006C24.3085 58.296 24.4902 57.9161 24.6343 57.527L27.2692 50.4135C27.7206 49.1948 26.9081 47.8761 25.6165 47.7313L20.4294 47.1498C19.2121 47.0133 18.1716 47.9936 18.1702 49.2185C18.1681 51.0683 18.0152 52.6101 17.5382 54.6899C17.401 55.288 17.2006 55.8697 16.9605 56.4344Z" fill="#FAE3C3" stroke="black" stroke-width="0.5"/>
<path d="M39.7144 56.4344L39.4325 57.0973C39.0705 57.9488 38.8937 59.0017 39.6415 59.5465C41.2362 60.7082 44.8807 60.6545 46.7806 58.6006C47.0624 58.296 47.2441 57.9161 47.3882 57.527L50.0231 50.4135C50.4745 49.1948 49.662 47.8761 48.3705 47.7313L43.1833 47.1498C41.966 47.0133 40.9255 47.9936 40.9241 49.2185C40.922 51.0683 40.7692 52.6101 40.2921 54.6899C40.1549 55.288 39.9545 55.8697 39.7144 56.4344Z" fill="#FAE3C3" stroke="black" stroke-width="0.5"/>
<mask id="path-7-inside-1_1_372" fill="white">
<path fill-rule="evenodd" clip-rule="evenodd" d="M22.5613 17.1974C20.2242 14.4563 18.1601 12.8214 16.2105 12.558C15.5639 12.4706 15.1998 13.1628 15.4493 13.7657C16.36 15.9663 16.6984 17.7155 16.7187 20.4986L16.7188 20.5074C13.5891 22.1802 11.2284 24.3381 9.98377 26.7779L4.76117 27.19C4.70423 27.1944 4.64685 27.1927 4.58961 27.1909H4.58957C4.57241 27.1904 4.55527 27.1899 4.53815 27.1895C2.24685 27.142 -0.108676 35.6967 1.57938 37.1829C1.6229 37.2212 1.6738 37.25 1.72585 37.2756C5.23468 38.9988 6.87634 40.4568 8.47508 42.8198C8.87023 43.7441 9.34572 44.6258 9.89277 45.4561C12.7107 51.2726 21.8478 55.5332 32.6845 55.5332C43.5141 55.5332 52.6463 51.2782 55.4707 45.4676C57.2237 42.8114 58.2441 39.6291 58.2441 36.2085C58.2441 32.788 57.2238 29.6057 55.4708 26.9496C55.4649 26.9374 55.4589 26.9252 55.453 26.9131C55.6792 26.2473 56.0145 25.7148 56.4528 25.298C56.4901 25.9307 56.6258 26.5796 56.868 27.2264C57.0557 28.0356 57.4598 28.8305 58.0797 29.517C59.8431 31.4697 62.6847 31.8056 64.4268 30.2671C66.1688 28.7287 66.1516 25.8986 64.3882 23.9458C63.7183 23.204 62.8928 22.6955 62.0311 22.4345C61.9993 22.4234 61.9671 22.4133 61.9345 22.4042C61.2267 22.2059 60.5317 22.1039 59.8608 22.0879C61.0253 21.1976 62.9274 21.1132 65.4404 21.5372C66.1379 21.6548 66.6268 20.7943 66.1356 20.2852C65.903 20.0442 65.6168 19.855 65.2975 19.7538C61.149 18.4387 58.0705 20.0343 56.9278 22.6074C55.7724 23.0727 54.7901 23.8283 54.0758 24.788C50.2664 20.1136 42.1196 16.8838 32.6845 16.8838C31.5451 16.8838 30.4244 16.9309 29.3279 17.022C26.6552 13.4264 24.261 11.3982 21.9815 11.2788C21.3796 11.2472 21.0414 11.8797 21.2413 12.4483C21.8385 14.147 22.267 15.6462 22.5613 17.1974ZM59.5288 28.2751C60.5295 29.3832 62.0874 29.6221 63.0086 28.8086C63.9298 27.9951 63.8653 26.4373 62.8647 25.3291C61.864 24.221 60.3061 23.9822 59.3849 24.7957C58.4637 25.6092 58.5281 27.167 59.5288 28.2751Z"/>
</mask>
<path fill-rule="evenodd" clip-rule="evenodd" d="M22.5613 17.1974C20.2242 14.4563 18.1601 12.8214 16.2105 12.558C15.5639 12.4706 15.1998 13.1628 15.4493 13.7657C16.36 15.9663 16.6984 17.7155 16.7187 20.4986L16.7188 20.5074C13.5891 22.1802 11.2284 24.3381 9.98377 26.7779L4.76117 27.19C4.70423 27.1944 4.64685 27.1927 4.58961 27.1909H4.58957C4.57241 27.1904 4.55527 27.1899 4.53815 27.1895C2.24685 27.142 -0.108676 35.6967 1.57938 37.1829C1.6229 37.2212 1.6738 37.25 1.72585 37.2756C5.23468 38.9988 6.87634 40.4568 8.47508 42.8198C8.87023 43.7441 9.34572 44.6258 9.89277 45.4561C12.7107 51.2726 21.8478 55.5332 32.6845 55.5332C43.5141 55.5332 52.6463 51.2782 55.4707 45.4676C57.2237 42.8114 58.2441 39.6291 58.2441 36.2085C58.2441 32.788 57.2238 29.6057 55.4708 26.9496C55.4649 26.9374 55.4589 26.9252 55.453 26.9131C55.6792 26.2473 56.0145 25.7148 56.4528 25.298C56.4901 25.9307 56.6258 26.5796 56.868 27.2264C57.0557 28.0356 57.4598 28.8305 58.0797 29.517C59.8431 31.4697 62.6847 31.8056 64.4268 30.2671C66.1688 28.7287 66.1516 25.8986 64.3882 23.9458C63.7183 23.204 62.8928 22.6955 62.0311 22.4345C61.9993 22.4234 61.9671 22.4133 61.9345 22.4042C61.2267 22.2059 60.5317 22.1039 59.8608 22.0879C61.0253 21.1976 62.9274 21.1132 65.4404 21.5372C66.1379 21.6548 66.6268 20.7943 66.1356 20.2852C65.903 20.0442 65.6168 19.855 65.2975 19.7538C61.149 18.4387 58.0705 20.0343 56.9278 22.6074C55.7724 23.0727 54.7901 23.8283 54.0758 24.788C50.2664 20.1136 42.1196 16.8838 32.6845 16.8838C31.5451 16.8838 30.4244 16.9309 29.3279 17.022C26.6552 13.4264 24.261 11.3982 21.9815 11.2788C21.3796 11.2472 21.0414 11.8797 21.2413 12.4483C21.8385 14.147 22.267 15.6462 22.5613 17.1974ZM59.5288 28.2751C60.5295 29.3832 62.0874 29.6221 63.0086 28.8086C63.9298 27.9951 63.8653 26.4373 62.8647 25.3291C61.864 24.221 60.3061 23.9822 59.3849 24.7957C58.4637 25.6092 58.5281 27.167 59.5288 28.2751Z" fill="#FAE3C3"/>
<path d="M16.2105 12.558L16.1436 13.0535L16.1436 13.0535L16.2105 12.558ZM22.5613 17.1974L22.1809 17.5218L23.4041 18.9565L23.0526 17.1042L22.5613 17.1974ZM15.4493 13.7657L14.9873 13.9569L14.9873 13.9569L15.4493 13.7657ZM16.7187 20.4986L16.2187 20.5023L16.2188 20.5044L16.7187 20.4986ZM16.7188 20.5074L16.9545 20.9483L17.2223 20.8052L17.2188 20.5016L16.7188 20.5074ZM9.98377 26.7779L10.0231 27.2764L10.302 27.2543L10.4292 27.0051L9.98377 26.7779ZM4.76117 27.19L4.72184 26.6915L4.72184 26.6915L4.76117 27.19ZM4.58961 27.1909L4.60488 26.6912L4.59724 26.6909H4.58961V27.1909ZM4.58957 27.1909L4.57429 27.6907L4.58193 27.6909H4.58957V27.1909ZM4.53815 27.1895L4.54854 26.6897L4.54852 26.6897L4.53815 27.1895ZM1.57938 37.1829L1.90979 36.8076L1.90979 36.8076L1.57938 37.1829ZM1.72585 37.2756L1.50542 37.7243L1.50543 37.7244L1.72585 37.2756ZM8.47508 42.8198L8.93482 42.6233L8.91601 42.5793L8.8892 42.5397L8.47508 42.8198ZM9.89277 45.4561L10.3427 45.2381L10.3284 45.2085L10.3103 45.1811L9.89277 45.4561ZM55.4707 45.4676L55.0534 45.1922L55.0354 45.2195L55.021 45.249L55.4707 45.4676ZM55.4708 26.9496L55.0211 27.1681L55.0354 27.1976L55.0535 27.225L55.4708 26.9496ZM55.453 26.9131L54.9795 26.7522L54.913 26.948L55.0042 27.1335L55.453 26.9131ZM56.4528 25.298L56.9519 25.2686L56.8886 24.1936L56.1082 24.9357L56.4528 25.298ZM56.868 27.2264L57.355 27.1134L57.3476 27.0817L57.3362 27.0511L56.868 27.2264ZM58.0797 29.517L57.7086 29.8521L57.7086 29.8521L58.0797 29.517ZM64.4268 30.2671L64.0958 29.8923L64.0958 29.8923L64.4268 30.2671ZM64.3882 23.9458L64.7593 23.6107L64.7593 23.6107L64.3882 23.9458ZM62.0311 22.4345L61.867 22.9068L61.8765 22.9101L61.8861 22.913L62.0311 22.4345ZM61.9345 22.4042L61.7997 22.8857L61.7997 22.8857L61.9345 22.4042ZM59.8608 22.0879L59.5571 21.6907L58.4281 22.5539L59.8489 22.5878L59.8608 22.0879ZM65.4404 21.5372L65.5235 21.0441L65.5235 21.0441L65.4404 21.5372ZM66.1356 20.2852L65.7758 20.6325L65.7758 20.6325L66.1356 20.2852ZM65.2975 19.7538L65.1464 20.2304L65.1464 20.2304L65.2975 19.7538ZM56.9278 22.6074L57.1146 23.0712L57.3025 22.9955L57.3847 22.8103L56.9278 22.6074ZM54.0758 24.788L53.6882 25.1039L54.0937 25.6014L54.4769 25.0865L54.0758 24.788ZM29.3279 17.022L28.9266 17.3203L29.0923 17.5433L29.3693 17.5203L29.3279 17.022ZM21.9815 11.2788L22.0077 10.7795L22.0077 10.7795L21.9815 11.2788ZM21.2413 12.4483L20.7696 12.6141L20.7696 12.6141L21.2413 12.4483ZM63.0086 28.8086L62.6776 28.4338L62.6776 28.4338L63.0086 28.8086ZM59.5288 28.2751L59.8999 27.94L59.8999 27.94L59.5288 28.2751ZM62.8647 25.3291L62.4936 25.6642L62.4936 25.6642L62.8647 25.3291ZM59.3849 24.7957L59.7159 25.1704L59.7159 25.1704L59.3849 24.7957ZM16.1436 13.0535C17.89 13.2894 19.8464 14.7838 22.1809 17.5218L22.9418 16.873C20.602 14.1287 18.4302 12.3533 16.2775 12.0625L16.1436 13.0535ZM15.9113 13.5745C15.844 13.4118 15.8672 13.2539 15.9241 13.1578C15.9512 13.1119 15.9827 13.0849 16.0115 13.0701C16.038 13.0566 16.0786 13.0447 16.1436 13.0535L16.2775 12.0625C15.7378 11.9896 15.2974 12.2535 15.0637 12.6482C14.8392 13.0271 14.8051 13.5167 14.9873 13.9569L15.9113 13.5745ZM17.2187 20.495C17.198 17.6563 16.8498 15.8422 15.9113 13.5745L14.9873 13.9569C15.8702 16.0904 16.1989 17.7748 16.2187 20.5023L17.2187 20.495ZM17.2188 20.5016L17.2187 20.4928L16.2188 20.5044L16.2189 20.5131L17.2188 20.5016ZM10.4292 27.0051C11.6134 24.6837 13.8833 22.5899 16.9545 20.9483L16.4831 20.0664C13.2948 21.7705 10.8434 23.9925 9.53838 26.5507L10.4292 27.0051ZM4.8005 27.6884L10.0231 27.2764L9.94445 26.2795L4.72184 26.6915L4.8005 27.6884ZM4.57434 27.6907C4.62689 27.6923 4.71172 27.6954 4.8005 27.6884L4.72184 26.6915C4.69674 26.6935 4.6668 26.6931 4.60488 26.6912L4.57434 27.6907ZM4.58957 27.6909H4.58961V26.6909H4.58957V27.6909ZM4.52776 27.6894C4.54203 27.6897 4.55674 27.6902 4.57429 27.6907L4.60485 26.6912C4.58808 26.6907 4.5685 26.6901 4.54854 26.6897L4.52776 27.6894ZM1.90979 36.8076C1.80642 36.7166 1.69388 36.532 1.61336 36.2052C1.53452 35.8853 1.49811 35.476 1.50723 34.9973C1.52546 34.0409 1.72368 32.8778 2.04717 31.7488C2.37105 30.6183 2.81114 29.5548 3.29463 28.7888C3.53682 28.4051 3.77744 28.1161 4.00288 27.9294C4.22948 27.7417 4.40347 27.6869 4.52777 27.6894L4.54852 26.6897C4.1 26.6803 3.69916 26.8824 3.36496 27.1593C3.02961 27.4371 2.72348 27.8202 2.449 28.2551C1.89915 29.1262 1.42624 30.2853 1.08584 31.4733C0.745048 32.6628 0.527692 33.9141 0.507416 34.9782C0.497288 35.5098 0.535903 36.0123 0.642401 36.4445C0.747219 36.8698 0.930329 37.2776 1.24897 37.5582L1.90979 36.8076ZM1.94627 36.8268C1.92837 36.818 1.91783 36.8121 1.91138 36.8081C1.90521 36.8043 1.90571 36.8041 1.90979 36.8076L1.24897 37.5582C1.34209 37.6402 1.43964 37.692 1.50542 37.7243L1.94627 36.8268ZM8.8892 42.5397C7.23395 40.0931 5.51985 38.5818 1.94626 36.8268L1.50543 37.7244C4.94951 39.4158 6.51874 40.8205 8.06095 43.1L8.8892 42.5397ZM10.3103 45.1811C9.77948 44.3753 9.31816 43.5199 8.93482 42.6233L8.01533 43.0164C8.4223 43.9683 8.91196 44.8762 9.47524 45.7312L10.3103 45.1811ZM32.6845 55.0332C27.3288 55.0332 22.4062 53.9799 18.4865 52.2197C14.5583 50.4558 11.6828 48.004 10.3427 45.2381L9.4428 45.6741C10.9208 48.7247 14.0227 51.3115 18.0768 53.132C22.1393 54.9562 27.2036 56.0332 32.6845 56.0332V55.0332ZM55.021 45.249C53.6779 48.0123 50.8018 50.4613 46.8749 52.2232C42.9564 53.9813 38.0368 55.0332 32.6845 55.0332V56.0332C38.1618 56.0332 43.2231 54.9577 47.2842 53.1356C51.337 51.3173 54.4392 48.7335 55.9204 45.6862L55.021 45.249ZM57.7441 36.2085C57.7441 39.5283 56.7541 42.6152 55.0534 45.1922L55.888 45.743C57.6933 43.0076 58.7441 39.73 58.7441 36.2085H57.7441ZM55.0535 27.225C56.7542 29.8019 57.7441 32.8889 57.7441 36.2085H58.7441C58.7441 32.6871 57.6934 29.4096 55.8881 26.6742L55.0535 27.225ZM55.0042 27.1335C55.0099 27.1451 55.0155 27.1566 55.0211 27.1681L55.9205 26.7311C55.9143 26.7182 55.908 26.7054 55.9017 26.6926L55.0042 27.1335ZM55.9264 27.0739C56.1295 26.4762 56.4239 26.0155 56.7974 25.6603L56.1082 24.9357C55.6051 25.4141 55.2289 26.0183 54.9795 26.7522L55.9264 27.0739ZM55.9537 25.3274C55.994 26.0114 56.1404 26.7094 56.3997 27.4018L57.3362 27.0511C57.1111 26.4498 56.9862 25.8501 56.9519 25.2686L55.9537 25.3274ZM56.3809 27.3395C56.588 28.232 57.0324 29.1032 57.7086 29.8521L58.4508 29.1819C57.8872 28.5578 57.5234 27.8391 57.355 27.1134L56.3809 27.3395ZM57.7086 29.8521C59.616 31.9643 62.7687 32.3985 64.7578 30.6419L64.0958 29.8923C62.6008 31.2126 60.0701 30.9751 58.4508 29.1819L57.7086 29.8521ZM64.7578 30.6419C66.7515 28.8812 66.6682 25.7247 64.7593 23.6107L64.0171 24.2809C65.6349 26.0725 65.5862 28.5762 64.0958 29.8923L64.7578 30.6419ZM64.7593 23.6107C64.0286 22.8016 63.125 22.2434 62.176 21.9559L61.8861 22.913C62.6607 23.1476 63.4081 23.6064 64.0171 24.2809L64.7593 23.6107ZM62.1952 21.9622C62.1539 21.9478 62.1119 21.9346 62.0694 21.9227L61.7997 22.8857C61.8222 22.892 61.8447 22.899 61.867 22.9068L62.1952 21.9622ZM62.0694 21.9227C61.3225 21.7135 60.5862 21.605 59.8727 21.588L59.8489 22.5878C60.4772 22.6027 61.131 22.6983 61.7997 22.8857L62.0694 21.9227ZM60.1645 22.4851C60.6465 22.1166 61.3107 21.8923 62.1872 21.8179C63.0641 21.7434 64.122 21.8218 65.3572 22.0302L65.5235 21.0441C64.2457 20.8285 63.096 20.7371 62.1026 20.8215C61.1087 20.9058 60.2396 21.1689 59.5571 21.6907L60.1645 22.4851ZM65.3572 22.0302C65.9456 22.1295 66.4351 21.8095 66.6699 21.3907C66.9064 20.9689 66.9202 20.3782 66.4953 19.938L65.7758 20.6325C65.8422 20.7013 65.8572 20.7954 65.7976 20.9017C65.7364 21.011 65.6327 21.0625 65.5235 21.0441L65.3572 22.0302ZM66.4953 19.938C66.2124 19.6448 65.8566 19.4065 65.4486 19.2772L65.1464 20.2304C65.3769 20.3035 65.5936 20.4436 65.7758 20.6325L66.4953 19.938ZM65.4486 19.2772C61.1032 17.8996 57.7353 19.5571 56.4708 22.4045L57.3847 22.8103C58.4056 20.5115 61.1949 18.9778 65.1464 20.2304L65.4486 19.2772ZM56.741 22.1436C55.5026 22.6424 54.4452 23.4541 53.6747 24.4895L54.4769 25.0865C55.1349 24.2024 56.0423 23.5031 57.1146 23.0712L56.741 22.1436ZM32.6845 17.3838C42.0359 17.3838 50.009 20.5893 53.6882 25.1039L54.4634 24.4721C50.5237 19.6379 42.2034 16.3838 32.6845 16.3838V17.3838ZM29.3693 17.5203C30.452 17.4303 31.5588 17.3838 32.6845 17.3838V16.3838C31.5313 16.3838 30.3968 16.4315 29.2865 16.5237L29.3693 17.5203ZM21.9553 11.7781C22.9536 11.8304 24.0244 12.3034 25.1954 13.2377C26.3657 14.1714 27.6029 15.5396 28.9266 17.3203L29.7292 16.7237C28.3801 14.9088 27.0839 13.4651 25.8191 12.456C24.5549 11.4474 23.2888 10.8466 22.0077 10.7795L21.9553 11.7781ZM21.713 12.2825C21.6606 12.1333 21.684 11.9884 21.7398 11.8952C21.7889 11.8131 21.857 11.7729 21.9553 11.7781L22.0077 10.7795C21.5041 10.7531 21.1022 11.0133 20.8817 11.3817C20.6679 11.739 20.6221 12.1946 20.7696 12.6141L21.713 12.2825ZM23.0526 17.1042C22.7523 15.5222 22.3161 13.9981 21.713 12.2825L20.7696 12.6141C21.3608 14.2959 21.7816 15.7703 22.0701 17.2906L23.0526 17.1042ZM62.6776 28.4338C62.0257 29.0095 60.7799 28.9145 59.8999 27.94L59.1577 28.6102C60.2791 29.852 62.1492 30.2346 63.3396 29.1834L62.6776 28.4338ZM62.4936 25.6642C63.3728 26.6379 63.3242 27.8628 62.6776 28.4338L63.3396 29.1834C64.5354 28.1273 64.3579 26.2367 63.2358 24.994L62.4936 25.6642ZM59.7159 25.1704C60.3678 24.5947 61.6136 24.6898 62.4936 25.6642L63.2358 24.994C62.1144 23.7523 60.2443 23.3696 59.0539 24.4209L59.7159 25.1704ZM59.8999 27.94C59.0207 26.9664 59.0693 25.7414 59.7159 25.1704L59.0539 24.4209C57.8581 25.4769 58.0356 27.3675 59.1577 28.6102L59.8999 27.94Z" fill="#1D1D1D" mask="url(#path-7-inside-1_1_372)"/>
<g style="mix-blend-mode:multiply">
<path fill-rule="evenodd" clip-rule="evenodd" d="M8.95508 42.2169C12.8936 47.252 21.9657 50.7757 32.528 50.7757C43.2403 50.7757 52.4199 47.1511 56.2657 42.0013C56.419 41.8165 56.5685 41.6284 56.7142 41.4371C56.2122 42.798 55.5432 44.078 54.7318 45.2521C51.6406 50.8697 42.9347 54.917 32.678 54.917C22.4056 54.917 13.6887 50.8572 10.61 45.2263C9.96313 44.2864 9.40723 43.279 8.95508 42.2169Z" fill="#FAE3C3"/>
</g>
<path d="M4.98659 32.8269C4.62484 34.1815 4.06686 35.3341 3.46711 36.1031C3.16692 36.488 2.86403 36.7669 2.57985 36.9306C2.2969 37.0936 2.04941 37.1339 1.83925 37.0778C1.62909 37.0217 1.43464 36.8633 1.27063 36.581C1.10591 36.2974 0.982344 35.9047 0.914009 35.4213C0.777485 34.4557 0.868416 33.1784 1.23017 31.8237C1.59192 30.4691 2.1499 29.3165 2.74965 28.5475C3.04984 28.1625 3.35273 27.8837 3.63691 27.72C3.91985 27.557 4.16735 27.5167 4.37751 27.5728C4.58767 27.6289 4.78212 27.7873 4.94613 28.0696C5.11085 28.3532 5.23442 28.7459 5.30275 29.2293C5.43927 30.1949 5.34834 31.4722 4.98659 32.8269Z" fill="#F5CA95" stroke="black" stroke-width="0.5"/>
<ellipse cx="2.16656" cy="31.4925" rx="0.348088" ry="0.900132" transform="rotate(14.9517 2.16656 31.4925)" fill="#1D1D1D"/>
<ellipse cx="3.72019" cy="31.8949" rx="0.348088" ry="0.926972" transform="rotate(14.9517 3.72019 31.8949)" fill="#1D1D1D"/>
<ellipse cx="14.3527" cy="29.1261" rx="0.952041" ry="1.44876" transform="rotate(14.9517 14.3527 29.1261)" fill="#1D1D1D"/>
<path d="M22.5351 21.1414C23.9088 18.1527 23.0565 15.5088 21.875 12.6829C21.7144 12.2988 22.0543 11.9281 22.4134 12.1387C24.9244 13.6115 27.058 18.1917 26.6583 23.7286C26.6389 23.9963 26.4046 24.198 26.1378 24.1687C24.4949 23.9882 23.7431 23.3713 22.5712 21.6439C22.4708 21.4958 22.4604 21.3041 22.5351 21.1414Z" fill="#AC590C"/>
<path d="M16.2248 14.1965C17.1429 16.2319 17.3589 18.1652 17.4159 20.3215C17.4208 20.5072 17.5258 20.6791 17.6996 20.7449C18.506 21.0503 19.4893 21.0261 20.3972 20.504C20.5814 20.398 20.6563 20.1752 20.5936 19.9722C19.7152 17.1301 18.3811 14.8634 16.8063 13.6357C16.4309 13.3431 16.0291 13.7626 16.2248 14.1965Z" fill="#AC590C"/>
<g style="mix-blend-mode:multiply">
<path d="M33.3623 19.3569C34.8258 19.1366 36.6402 19.2142 38.3447 19.5116C40.0528 19.8096 41.6188 20.3228 42.5973 20.9526C42.7601 21.0574 42.8661 21.2425 42.8922 21.4608C42.9316 21.7899 42.7701 22.0977 42.4938 22.3013C42.2163 22.5056 41.85 22.5832 41.5228 22.4718C39.3308 21.7257 36.2505 21.0972 33.9182 21.1418C33.5893 21.1481 33.2574 20.985 33.0324 20.7299C32.8082 20.4756 32.7137 20.1594 32.8015 19.8664C32.883 19.5942 33.1003 19.3963 33.3623 19.3569Z" fill="#FAE3C3"/>
<path d="M33.3623 19.3569C34.8258 19.1366 36.6402 19.2142 38.3447 19.5116C40.0528 19.8096 41.6188 20.3228 42.5973 20.9526C42.7601 21.0574 42.8661 21.2425 42.8922 21.4608C42.9316 21.7899 42.7701 22.0977 42.4938 22.3013C42.2163 22.5056 41.85 22.5832 41.5228 22.4718C39.3308 21.7257 36.2505 21.0972 33.9182 21.1418C33.5893 21.1481 33.2574 20.985 33.0324 20.7299C32.8082 20.4756 32.7137 20.1594 32.8015 19.8664C32.883 19.5942 33.1003 19.3963 33.3623 19.3569Z" stroke="black" stroke-width="0.5"/>
</g>
<path d="M32.4862 20.5012C32.5394 20.1912 32.7733 19.9416 33.0834 19.8889C36.3606 19.3325 40.6141 20.2152 42.6679 21.5137C42.9182 21.672 43.0307 21.9714 42.9805 22.2634V22.2634C42.8947 22.7633 42.3724 23.0586 41.8945 22.8886C38.848 21.8044 36.4126 21.4175 33.2695 21.4185C32.7812 21.4187 32.4036 20.9824 32.4862 20.5012V20.5012Z" fill="#1D1D1D"/>
<mask id="mask0_1_372" style="mask-type:alpha" maskUnits="userSpaceOnUse" x="29" y="7" width="22" height="16">
<path fill-rule="evenodd" clip-rule="evenodd" d="M32.4736 19.5963L29.729 9.67308C29.5623 9.07014 29.9838 8.46385 30.6071 8.41019L39.0217 7.68587C39.1986 7.67065 39.3763 7.70277 39.5366 7.77893L49.6988 12.6066C50.3096 12.8967 50.4623 13.6969 50.0013 14.1916L43.3594 21.3188C43.2785 21.4057 43.1851 21.4751 43.084 21.5267C43.0822 21.5423 43.0799 21.5579 43.0772 21.5735C42.9917 22.0555 42.4866 22.3436 42.0248 22.184C38.9524 21.1219 36.5046 20.7456 33.3345 20.7492C32.8623 20.7497 32.5007 20.3304 32.583 19.8663C32.5837 19.862 32.5845 19.8577 32.5854 19.8534C32.5372 19.775 32.4992 19.6888 32.4736 19.5963Z" fill="#D9D9D9"/>
<path d="M29.729 9.67308L29.4881 9.73972L29.4881 9.73972L29.729 9.67308ZM32.4736 19.5963L32.2326 19.6629L32.2326 19.6629L32.4736 19.5963ZM30.6071 8.41019L30.5856 8.16112L30.5856 8.16112L30.6071 8.41019ZM39.0217 7.68587L39.0432 7.93495L39.0432 7.93495L39.0217 7.68587ZM39.5366 7.77893L39.6439 7.55312L39.6439 7.55312L39.5366 7.77893ZM49.6988 12.6066L49.8061 12.3808L49.8061 12.3808L49.6988 12.6066ZM50.0013 14.1916L49.8184 14.0211L49.8184 14.0211L50.0013 14.1916ZM43.3594 21.3188L43.5423 21.4893L43.5423 21.4893L43.3594 21.3188ZM43.084 21.5267L42.9702 21.3041L42.8511 21.365L42.8357 21.498L43.084 21.5267ZM43.0772 21.5735L42.831 21.5299L42.831 21.5299L43.0772 21.5735ZM42.0248 22.184L41.9431 22.4202L41.9431 22.4202L42.0248 22.184ZM33.3345 20.7492L33.3342 20.4992L33.3342 20.4992L33.3345 20.7492ZM32.583 19.8663L32.8291 19.9099L32.8291 19.9099L32.583 19.8663ZM32.5854 19.8534L32.8307 19.9013L32.8494 19.8055L32.7983 19.7224L32.5854 19.8534ZM29.4881 9.73972L32.2326 19.6629L32.7145 19.5296L29.97 9.60644L29.4881 9.73972ZM30.5856 8.16112C29.8065 8.22818 29.2796 8.98605 29.4881 9.73972L29.97 9.60644C29.8449 9.15423 30.1611 8.69951 30.6285 8.65927L30.5856 8.16112ZM39.0003 7.4368L30.5856 8.16112L30.6285 8.65927L39.0432 7.93495L39.0003 7.4368ZM39.6439 7.55312C39.4435 7.45792 39.2213 7.41777 39.0003 7.4368L39.0432 7.93495C39.1758 7.92354 39.3091 7.94763 39.4293 8.00475L39.6439 7.55312ZM49.8061 12.3808L39.6439 7.55312L39.4293 8.00475L49.5916 12.8324L49.8061 12.3808ZM50.1842 14.362C50.7605 13.7436 50.5696 12.7435 49.8061 12.3808L49.5916 12.8324C50.0497 13.05 50.1642 13.6501 49.8184 14.0211L50.1842 14.362ZM43.5423 21.4893L50.1842 14.362L49.8184 14.0211L43.1765 21.1484L43.5423 21.4893ZM43.1978 21.7493C43.3242 21.6847 43.4411 21.5979 43.5423 21.4893L43.1765 21.1484C43.1158 21.2135 43.0459 21.2654 42.9702 21.3041L43.1978 21.7493ZM42.8357 21.498C42.8344 21.5086 42.8329 21.5192 42.831 21.5299L43.3233 21.6171C43.327 21.5966 43.33 21.5761 43.3324 21.5555L42.8357 21.498ZM42.831 21.5299C42.7731 21.8565 42.4269 22.0585 42.1065 21.9477L41.9431 22.4202C42.5463 22.6288 43.2104 22.2545 43.3233 21.6171L42.831 21.5299ZM42.1065 21.9477C39.0063 20.876 36.5306 20.4956 33.3342 20.4992L33.3348 20.9992C36.4786 20.9956 38.8986 21.3678 41.9431 22.4202L42.1065 21.9477ZM33.3342 20.4992C33.0129 20.4996 32.7748 20.2162 32.8291 19.9099L32.3368 19.8227C32.2266 20.4446 32.7116 20.9999 33.3348 20.9992L33.3342 20.4992ZM32.8291 19.9099C32.8296 19.907 32.8302 19.9041 32.8307 19.9013L32.34 19.8055C32.3389 19.8112 32.3378 19.8169 32.3368 19.8227L32.8291 19.9099ZM32.2326 19.6629C32.2646 19.7784 32.312 19.8862 32.3724 19.9843L32.7983 19.7224C32.7623 19.6638 32.7338 19.5992 32.7145 19.5296L32.2326 19.6629Z" fill="black"/>
</mask>
<g mask="url(#mask0_1_372)">
<path d="M42.1398 19.5536C42.1398 21.8259 40.2044 23.688 37.7916 23.688C35.3788 23.688 33.4434 21.8259 33.4434 19.5536C33.4434 17.2814 35.3788 15.4193 37.7916 15.4193C40.2044 15.4193 42.1398 17.2814 42.1398 19.5536Z" fill="#936D0D" stroke="#1D1D1D" stroke-width="0.5"/>
<circle cx="38.4322" cy="19.5537" r="3.9205" fill="white" stroke="#1D1D1D" stroke-width="0.5"/>
</g>
<path d="M39.3711 9.44966C39.3711 11.4959 37.6279 13.1747 35.4522 13.1747C33.2764 13.1747 31.5332 11.4959 31.5332 9.44966C31.5332 7.40346 33.2764 5.72461 35.4522 5.72461C37.6279 5.72461 39.3711 7.40346 39.3711 9.44966Z" fill="#936D0D" stroke="#1D1D1D" stroke-width="0.5"/>
<path d="M39.5662 9.44973C39.5662 11.3999 37.9853 12.9809 36.0351 12.9809C34.0849 12.9809 32.5039 11.3999 32.5039 9.44973C32.5039 7.49953 34.0849 5.91858 36.0351 5.91858C37.9853 5.91858 39.5662 7.49953 39.5662 9.44973Z" fill="white" stroke="#1D1D1D" stroke-width="0.5"/>
<path d="M40.8688 16.7748L41.0731 16.5779C41.2575 16.4002 41.3428 16.1344 41.2968 15.8816L41.2151 15.4335C41.1602 15.1324 41.5097 14.9233 41.7092 15.1379L42.0059 15.4571C42.1734 15.6373 42.4223 15.7031 42.658 15.6294L42.9192 15.5478C43.2155 15.4552 43.4092 15.8479 43.1774 16.0714L42.9732 16.2683C42.7888 16.4461 42.7034 16.7119 42.7495 16.9647L42.8312 17.4127C42.8861 17.7138 42.5366 17.923 42.3371 17.7084L42.0403 17.3891C41.8729 17.209 41.6239 17.1432 41.3883 17.2168L41.1271 17.2984C40.8308 17.391 40.6371 16.9983 40.8688 16.7748Z" fill="#FCE595" stroke="#1D1D1D" stroke-width="0.4"/>
<path d="M4.78444 22.6804L4.67301 22.7548C4.43506 22.9136 4.57557 23.2839 4.87606 23.2898L5.01677 23.2926C5.25633 23.2974 5.48383 23.4235 5.61336 23.6233C5.76392 23.8556 6.12811 23.7522 6.09026 23.488C6.0577 23.2606 6.15456 23.0425 6.34427 22.9159L6.4557 22.8415C6.69366 22.6827 6.55314 22.3124 6.25265 22.3065L6.11194 22.3037C5.87238 22.2989 5.64488 22.1728 5.51536 21.973C5.36479 21.7407 5.0006 21.8441 5.03845 22.1083C5.07101 22.3357 4.97415 22.5538 4.78444 22.6804Z" fill="#FFE297" stroke="#1D1D1D" stroke-width="0.4"/>
<path d="M31.8643 6.10846L31.9623 6.79245C31.9971 7.03583 31.8934 7.26938 31.6903 7.40493L30.9474 7.90072C30.7094 8.05953 30.8499 8.42981 31.1504 8.43579L32.0886 8.45447C32.3451 8.45957 32.5886 8.59457 32.7273 8.80848L33.117 9.40967C33.295 9.68417 33.7254 9.56201 33.6807 9.2497L33.5827 8.5657C33.5479 8.32233 33.6516 8.08878 33.8547 7.95323L34.5976 7.45743C34.8356 7.29863 34.695 6.92835 34.3945 6.92237L33.4564 6.90369C33.1999 6.89858 32.9563 6.76359 32.8177 6.54968L32.4279 5.94849C32.25 5.67398 31.8196 5.79615 31.8643 6.10846Z" fill="#FFE297" stroke="#1D1D1D" stroke-width="0.4"/>
</svg>
