<svg width="65" height="64" viewBox="0 0 65 64" fill="none" xmlns="http://www.w3.org/2000/svg">
<g style="mix-blend-mode:multiply">
<path d="M64.6479 48.8622C64.6515 50.3799 50.6881 51.6381 33.4605 51.6767C16.2329 51.7154 0.664191 50.5235 0.660668 49.0057C0.657145 47.488 16.2201 46.2262 33.4478 46.1876C50.6754 46.1489 64.6444 47.3472 64.6479 48.8622Z" fill="#7A9FA0" fill-opacity="0.5"/>
</g>
<path d="M25.754 26.7981V46.5748H26.054V26.7981H50.8778V46.9108H5.06016V26.7981H25.754Z" fill="#F0E7D5" stroke="#1D1D1D" stroke-width="0.3"/>
<path d="M55.2978 47.5406V50.1991C55.2978 50.7514 54.8501 51.1991 54.2978 51.1991H27.5556H2.28308C1.7308 51.1991 1.28308 50.7514 1.28308 50.1991V47.5406C1.28308 46.9883 1.7308 46.5406 2.28308 46.5406H27.5556H54.2978C54.8501 46.5406 55.2978 46.9883 55.2978 47.5406Z" fill="#F0E7D5"/>
<path d="M27.5556 46.5406H54.2978C54.8501 46.5406 55.2978 46.9883 55.2978 47.5406V50.1991C55.2978 50.7514 54.8501 51.1991 54.2978 51.1991H27.5556M27.5556 46.5406H2.28308C1.7308 46.5406 1.28308 46.9883 1.28308 47.5406V50.1991C1.28308 50.7514 1.7308 51.1991 2.28308 51.1991H27.5556M27.5556 46.5406V51.1991" stroke="#1D1D1D" stroke-width="0.3"/>
<g style="mix-blend-mode:multiply">
<path fill-rule="evenodd" clip-rule="evenodd" d="M5.76758 26.6481C5.76758 26.6481 5.7676 26.6481 5.76764 26.6481H9.24234C9.24237 26.6481 9.2424 26.6481 9.2424 26.6481V26.6481C9.2424 26.6482 9.24243 26.6482 9.24246 26.6482H9.58971C9.78152 26.6482 9.93702 26.8037 9.93702 26.9955V28.669C9.93702 28.8608 9.78152 29.0163 9.58971 29.0163V29.0163C9.3979 29.0163 9.2424 29.1718 9.2424 29.3636V43.8249C9.2424 44.0168 9.3979 44.1722 9.58971 44.1722V44.1722C9.78152 44.1722 9.93702 44.3277 9.93702 44.5196V46.1931C9.93702 46.3849 9.78152 46.5404 9.58971 46.5404H9.24246C9.24243 46.5404 9.2424 46.5404 9.2424 46.5405V46.5405C9.2424 46.5405 9.24237 46.5405 9.24234 46.5405H5.76764C5.76761 46.5405 5.76758 46.5405 5.76758 46.5405V46.5405C5.76758 46.5404 5.76755 46.5404 5.76752 46.5404H5.41992C5.22792 46.5404 5.07227 46.3847 5.07227 46.1927V44.5199C5.07227 44.3279 5.22792 44.1722 5.41992 44.1722V44.1722C5.61193 44.1722 5.76758 44.0166 5.76758 43.8246V29.364C5.76758 29.172 5.61193 29.0163 5.41992 29.0163V29.0163C5.22792 29.0163 5.07227 28.8607 5.07227 28.6687V26.9958C5.07227 26.8038 5.22792 26.6482 5.41992 26.6482H5.76752C5.76755 26.6482 5.76758 26.6482 5.76758 26.6481V26.6481Z" fill="#F0E7D5"/>
</g>
<g style="mix-blend-mode:multiply">
<path fill-rule="evenodd" clip-rule="evenodd" d="M13.3477 26.6481V26.6481C12.9636 26.6481 12.6523 26.9594 12.6523 27.3434V28.6686C12.6523 28.8606 12.808 29.0162 13 29.0162V29.0162C13.192 29.0162 13.3477 29.1719 13.3477 29.3639V43.8246C13.3477 44.0166 13.192 44.1722 13 44.1722V44.1722C12.808 44.1722 12.6523 44.3279 12.6523 44.5199V46.1927C12.6523 46.3847 12.808 46.5404 13 46.5404H13.3476C13.3476 46.5404 13.3477 46.5404 13.3477 46.5405V46.5405C13.3477 46.5405 13.3477 46.5405 13.3477 46.5405H16.8224C16.8225 46.5405 16.8225 46.5405 16.8225 46.5405V46.5405C16.8225 46.5404 16.8225 46.5404 16.8225 46.5404H17.1698C17.3616 46.5404 17.5171 46.3849 17.5171 46.1931V44.5196C17.5171 44.3277 17.3616 44.1722 17.1698 44.1722V44.1722C16.978 44.1722 16.8225 44.0168 16.8225 43.8249V29.3635C16.8225 29.1717 16.978 29.0162 17.1698 29.0162V29.0162C17.3616 29.0162 17.5171 28.8607 17.5171 28.6689V27.3427C17.5171 26.9591 17.2061 26.6481 16.8225 26.6481V26.6481H13.3477Z" fill="#F0E7D5"/>
</g>
<g style="mix-blend-mode:multiply">
<path fill-rule="evenodd" clip-rule="evenodd" d="M21.4043 26.6481C21.4043 26.6481 21.4043 26.6481 21.4044 26.6481H24.8791C24.8791 26.6481 24.8791 26.6481 24.8791 26.6481V26.6481C24.8791 26.6482 24.8791 26.6482 24.8792 26.6482H25.2264C25.4182 26.6482 25.5737 26.8037 25.5737 26.9955V28.669C25.5737 28.8608 25.4182 29.0163 25.2264 29.0163V29.0163C25.0346 29.0163 24.8791 29.1718 24.8791 29.3636V43.8249C24.8791 44.0168 25.0346 44.1722 25.2264 44.1722V44.1722C25.4182 44.1722 25.5737 44.3277 25.5737 44.5196V46.1931C25.5737 46.3849 25.4182 46.5404 25.2264 46.5404H24.8792C24.8791 46.5404 24.8791 46.5404 24.8791 46.5405V46.5405C24.8791 46.5405 24.8791 46.5405 24.8791 46.5405H21.4044C21.4043 46.5405 21.4043 46.5405 21.4043 46.5405V46.5405C21.4043 46.5404 21.4043 46.5404 21.4042 46.5404H21.0566C20.8646 46.5404 20.709 46.3847 20.709 46.1927V44.5199C20.709 44.3279 20.8646 44.1722 21.0566 44.1722V44.1722C21.2486 44.1722 21.4043 44.0166 21.4043 43.8246V29.364C21.4043 29.172 21.2486 29.0163 21.0566 29.0163V29.0163C20.8646 29.0163 20.709 28.8607 20.709 28.6687V26.9958C20.709 26.8038 20.8646 26.6482 21.0566 26.6482H21.4042C21.4043 26.6482 21.4043 26.6482 21.4043 26.6481V26.6481Z" fill="#F0E7D5"/>
</g>
<g style="mix-blend-mode:multiply">
<path fill-rule="evenodd" clip-rule="evenodd" d="M32.7754 26.6481C32.7754 26.6481 32.7754 26.6481 32.7754 26.6481H36.2502C36.2502 26.6481 36.2502 26.6481 36.2502 26.6481V26.6481C36.2502 26.6482 36.2502 26.6482 36.2503 26.6482H36.5975C36.7893 26.6482 36.9448 26.8037 36.9448 26.9955V28.669C36.9448 28.8608 36.7893 29.0163 36.5975 29.0163V29.0163C36.4057 29.0163 36.2502 29.1718 36.2502 29.3636V43.8249C36.2502 44.0168 36.4057 44.1722 36.5975 44.1722V44.1722C36.7893 44.1722 36.9448 44.3277 36.9448 44.5196V46.1931C36.9448 46.3849 36.7893 46.5404 36.5975 46.5404H36.2503C36.2502 46.5404 36.2502 46.5404 36.2502 46.5405V46.5405C36.2502 46.5405 36.2502 46.5405 36.2502 46.5405H32.7755C32.7754 46.5405 32.7754 46.5405 32.7754 46.5405V46.5405C32.7754 46.5404 32.7754 46.5404 32.7753 46.5404H32.4277C32.2357 46.5404 32.0801 46.3847 32.0801 46.1927V44.5199C32.0801 44.3279 32.2357 44.1722 32.4277 44.1722V44.1722C32.6197 44.1722 32.7754 44.0166 32.7754 43.8246V29.364C32.7754 29.172 32.6197 29.0163 32.4277 29.0163V29.0163C32.2357 29.0163 32.0801 28.8607 32.0801 28.6687V26.9958C32.0801 26.8038 32.2357 26.6482 32.4277 26.6482H32.7753C32.7754 26.6482 32.7754 26.6482 32.7754 26.6481V26.6481Z" fill="#F0E7D5"/>
</g>
<g style="mix-blend-mode:multiply">
<path fill-rule="evenodd" clip-rule="evenodd" d="M40.8302 26.6481V26.6481C40.4462 26.6481 40.1349 26.9594 40.1349 27.3434V28.6686C40.1349 28.8606 40.2905 29.0162 40.4825 29.0162V29.0162C40.6745 29.0162 40.8302 29.1719 40.8302 29.3639V43.8246C40.8302 44.0166 40.6745 44.1722 40.4825 44.1722V44.1722C40.2905 44.1722 40.1349 44.3279 40.1349 44.5199V46.1927C40.1349 46.3847 40.2905 46.5404 40.4825 46.5404H40.8301C40.8302 46.5404 40.8302 46.5404 40.8302 46.5405V46.5405C40.8302 46.5405 40.8302 46.5405 40.8303 46.5405H44.305C44.305 46.5405 44.305 46.5405 44.305 46.5405V46.5405C44.305 46.5404 44.305 46.5404 44.3051 46.5404H44.6523C44.8441 46.5404 44.9996 46.3849 44.9996 46.1931V44.5196C44.9996 44.3277 44.8441 44.1722 44.6523 44.1722V44.1722C44.4605 44.1722 44.305 44.0168 44.305 43.8249V29.3635C44.305 29.1717 44.4605 29.0162 44.6523 29.0162V29.0162C44.8441 29.0162 44.9996 28.8607 44.9996 28.6689V27.3427C44.9996 26.9591 44.6886 26.6481 44.305 26.6481V26.6481H40.8302Z" fill="#F0E7D5"/>
</g>
<rect x="12.4354" y="26.7981" width="3.17482" height="19.8887" fill="white" stroke="#1D1D1D" stroke-width="0.3"/>
<rect x="11.7397" y="44.5832" width="4.56475" height="2.10342" rx="0.85" fill="white" stroke="#1D1D1D" stroke-width="0.3"/>
<rect x="11.7398" y="26.7981" width="4.56475" height="2.10342" rx="0.85" fill="white" stroke="#1D1D1D" stroke-width="0.3"/>
<rect x="4.79063" y="26.7982" width="3.17482" height="19.8887" fill="white" stroke="#1D1D1D" stroke-width="0.3"/>
<rect x="4.09543" y="44.5833" width="4.56475" height="2.10342" rx="0.85" fill="white" stroke="#1D1D1D" stroke-width="0.3"/>
<rect x="4.09531" y="26.7981" width="4.56475" height="2.10342" rx="0.85" fill="white" stroke="#1D1D1D" stroke-width="0.3"/>
<rect x="20.4273" y="26.7982" width="3.17482" height="19.8887" fill="white" stroke="#1D1D1D" stroke-width="0.3"/>
<rect x="19.7319" y="44.5833" width="4.56475" height="2.10342" rx="0.85" fill="white" stroke="#1D1D1D" stroke-width="0.3"/>
<rect x="19.732" y="26.7981" width="4.56475" height="2.10342" rx="0.85" fill="white" stroke="#1D1D1D" stroke-width="0.3"/>
<rect x="39.8863" y="26.7981" width="3.17482" height="19.8887" fill="white" stroke="#1D1D1D" stroke-width="0.3"/>
<rect x="39.191" y="44.5832" width="4.56475" height="2.10342" rx="0.85" fill="white" stroke="#1D1D1D" stroke-width="0.3"/>
<rect x="39.191" y="26.7981" width="4.56475" height="2.10342" rx="0.85" fill="white" stroke="#1D1D1D" stroke-width="0.3"/>
<rect x="47.8766" y="26.7981" width="3.17482" height="19.8887" fill="white" stroke="#1D1D1D" stroke-width="0.3"/>
<rect x="47.1813" y="44.5832" width="4.56475" height="2.10342" rx="0.85" fill="white" stroke="#1D1D1D" stroke-width="0.3"/>
<rect x="47.1813" y="26.7981" width="4.56475" height="2.10342" rx="0.85" fill="white" stroke="#1D1D1D" stroke-width="0.3"/>
<rect x="31.8922" y="26.7982" width="3.17482" height="19.8887" fill="white" stroke="#1D1D1D" stroke-width="0.3"/>
<rect x="31.1969" y="44.5833" width="4.56475" height="2.10342" rx="0.85" fill="white" stroke="#1D1D1D" stroke-width="0.3"/>
<rect x="31.1969" y="26.7981" width="4.56475" height="2.10342" rx="0.85" fill="white" stroke="#1D1D1D" stroke-width="0.3"/>
<path d="M2.20713 21.9515L14.5428 12H38.0485C38.2422 12 38.4317 12.0562 38.594 12.1619L53.6345 21.9515H54.0602C54.6125 21.9515 55.0602 22.3992 55.0602 22.9515V25.73C55.0602 26.2823 54.6125 26.73 54.0602 26.73H27.2211H1.80859C1.25631 26.73 0.808594 26.2823 0.808594 25.73V22.9515C0.808594 22.3992 1.25631 21.9515 1.80859 21.9515H2.20713Z" fill="#F0E7D5"/>
<path d="M53.6345 21.9515H27.2211M53.6345 21.9515L38.594 12.1619C38.4317 12.0562 38.2422 12 38.0485 12H14.5428M53.6345 21.9515H54.0602C54.6125 21.9515 55.0602 22.3992 55.0602 22.9515V25.73C55.0602 26.2823 54.6125 26.73 54.0602 26.73H27.2211M2.20713 21.9515H27.2211M2.20713 21.9515L14.5428 12M2.20713 21.9515H1.80859C1.25631 21.9515 0.808594 22.3992 0.808594 22.9515V25.73C0.808594 26.2823 1.25631 26.73 1.80859 26.73H27.2211M27.2211 21.9515V26.73M27.2211 21.9515L14.5428 12" stroke="#1D1D1D" stroke-width="0.3"/>
</svg>
