<svg width="93" height="84" viewBox="0 0 93 84" fill="none" xmlns="http://www.w3.org/2000/svg">
<path d="M93 80.5636C93 82.4639 72.7014 83.9999 47.6625 83.9999C22.6236 83.9999 0 82.4639 0 80.5636C0 78.6633 22.6236 77.1272 47.6625 77.1272C72.7014 77.1272 93 78.6667 93 80.5636Z" fill="#7A9FA0" fill-opacity="0.4"/>
<path d="M87.5 42.2364C87.5 64.726 68.9285 82.9729 46 82.9729C23.0715 82.9729 4.5 64.726 4.5 42.2364C4.5 19.7469 23.0715 1.5 46 1.5C68.9285 1.5 87.5 19.7469 87.5 42.2364Z" fill="#F0E7D5" stroke="#1D1D1D"/>
<path d="M81.5 42.2365C81.5 61.4726 65.6148 77.082 46 77.082C26.3852 77.082 10.5 61.4726 10.5 42.2365C10.5 23.0005 26.3852 7.39099 46 7.39099C65.6148 7.39099 81.5 23.0005 81.5 42.2365Z" fill="#FCF8F2" stroke="black"/>
<path d="M34.7813 58.3134C31.8051 54.0411 29.0405 50.6767 25.5703 47.0376C23.6936 45.0696 23.7352 41.9329 25.7402 40.0873C27.5758 38.3976 30.4177 38.3928 32.1914 40.1397C34.7793 42.6885 36.8822 45.0584 39.4092 48.7245C40.1795 49.8421 41.8154 49.9305 42.6816 48.8818C49.6535 40.4415 54.7011 35.1273 62.243 28.0603C64.2505 26.1793 67.4416 26.4821 69.0773 28.6869C70.4775 30.5741 70.2328 33.2147 68.5322 34.8437C59.7141 43.2909 53.7757 49.8198 46.5385 58.8248C43.4724 62.6399 37.5733 62.3212 34.7813 58.3134Z" fill="#374941" stroke="#1D1D1D" stroke-linecap="round"/>
</svg>
