<svg width="64" height="66" viewBox="0 0 64 66" fill="none" xmlns="http://www.w3.org/2000/svg">
<g style="mix-blend-mode:multiply">
<path d="M61 60.9219C61 62.3908 48.5589 63.5781 33.2125 63.5781C17.8661 63.5781 4 62.3908 4 60.9219C4 59.453 17.8661 58.2656 33.2125 58.2656C48.5589 58.2656 61 59.4556 61 60.9219Z" fill="#90B3A8"/>
</g>
<path d="M62.6474 31.9551C62.6474 49.0993 48.8998 62.9947 31.9446 62.9947C14.9894 62.9947 1.2418 49.0993 1.2418 31.9551C1.2418 14.811 14.9894 0.915625 31.9446 0.915625C48.8998 0.915625 62.6474 14.811 62.6474 31.9551Z" fill="#FCF1D4" stroke="#1D1D1D" stroke-width="0.3"/>
<path d="M58.2405 31.9526C58.2405 46.636 46.4662 58.5365 31.9453 58.5365C17.4243 58.5365 5.65 46.636 5.65 31.9526C5.65 17.2692 17.4243 5.36875 31.9453 5.36875C46.4662 5.36875 58.2405 17.2692 58.2405 31.9526Z" fill="white" stroke="#1D1D1D" stroke-width="0.3"/>
<circle cx="30.8189" cy="49.4473" r="4" transform="rotate(-11.2523 30.8189 49.4473)" fill="#E5C267" stroke="#1D1D1D" stroke-width="0.3" stroke-linecap="round"/>
<path fill-rule="evenodd" clip-rule="evenodd" d="M27.0882 12.4621C28.8205 11.831 30.5815 11.6143 32.4356 11.5919C35.5583 11.5542 39.0569 12.2668 41.7248 14.3323C44.5832 16.5454 45.9196 19.8734 45.3456 23.856C45.0415 25.9657 44.1968 27.6717 42.8311 29.0264C41.5625 30.2847 40.049 31.0177 39.0098 31.501C38.8888 31.5573 38.7716 31.6116 38.6581 31.6643C36.6682 32.5868 35.8024 32.9882 35.1032 34.2816C34.7857 34.8688 34.6599 35.6369 34.6619 36.3559C34.6627 36.6455 34.6842 36.8776 34.7017 37.0154C34.7235 37.104 34.7418 37.194 34.7563 37.2854C34.7627 37.325 34.7761 37.4116 34.7863 37.5171C34.7903 37.5582 34.8022 37.6845 34.8019 37.8452C34.8017 37.9141 34.8 38.1005 34.764 38.3359C34.7463 38.4509 34.7063 38.6756 34.6093 38.9481C34.5393 39.145 34.3004 39.7863 33.6429 40.3887C32.7599 41.1977 31.3139 41.7265 29.7532 41.352C28.6161 41.0792 27.9737 40.4425 27.7935 40.2579C27.3831 39.8374 27.1817 39.4216 27.1465 39.3487C27.145 39.3458 27.1439 39.3434 27.143 39.3416C27.0311 39.1141 26.9699 38.9223 26.9568 38.8812L26.9556 38.8774C26.9152 38.7516 26.8901 38.6474 26.8813 38.6103C26.839 38.4333 26.8047 38.2364 26.7782 38.0545C26.7208 37.6605 26.6644 37.0931 26.6625 36.416C26.6588 35.1119 26.8552 33.1109 27.918 31.145C29.8443 27.5821 33.0082 26.1564 34.8878 25.3095C35.0632 25.2305 35.2274 25.1565 35.3783 25.0863C36.3448 24.6368 36.712 24.3984 36.9288 24.1834C37.0484 24.0648 37.2934 23.7956 37.4131 22.9651C37.6867 21.0671 37.0599 20.2607 36.4966 19.8245C35.7427 19.2408 34.3609 18.7894 32.4965 18.8119C31.2712 18.8267 30.5695 18.9648 30.0454 19.1558C29.5213 19.3467 28.909 19.6873 28.0121 20.4457C26.3954 21.8127 23.8645 21.7443 22.3593 20.2928C20.8541 18.8413 20.9445 16.5564 22.5612 15.1893C23.9183 14.0418 25.356 13.0932 27.0882 12.4621ZM26.8372 38.347C26.8378 38.3508 26.8383 38.3536 26.8386 38.3555L26.8386 38.356C26.8382 38.353 26.8377 38.35 26.8372 38.347Z" fill="#E5C267" stroke="#1D1D1D" stroke-width="0.3" stroke-linecap="round"/>
</svg>
