<svg width="258" height="156" viewBox="0 0 258 156" fill="none" xmlns="http://www.w3.org/2000/svg">
<path d="M237.355 150.061C237.398 151.719 211.78 153.72 180.137 154.534C148.494 155.348 119.869 154.744 119.826 153.085C119.784 151.427 148.34 149.35 179.983 148.536C211.626 147.722 237.313 148.406 237.355 150.061Z" fill="#859991"/>
<path d="M186.5 148C186.5 150.765 154.852 153 115.812 153C76.7733 153 41.4999 150.765 41.4999 148C41.4999 145.235 76.7733 143 115.812 143C154.852 143 186.5 145.24 186.5 148Z" fill="#859991"/>
<path d="M112.5 147.5C112.5 149.436 88.2726 151 58.3875 151C28.5024 151 1.5 149.436 1.5 147.5C1.5 145.565 28.5024 144 58.3875 144C88.2726 144 112.5 145.568 112.5 147.5Z" fill="#859991"/>
<path d="M71.5 6C71.5 5.72386 71.2761 5.5 71 5.5H53C52.7239 5.5 52.5 5.72386 52.5 6V150.5H71.5V6Z" fill="#656A47" stroke="#1D1D1D"/>
<rect x="-0.5" y="0.5" width="19" height="12" transform="matrix(-1 0 0 1 71 124)" fill="white" stroke="#1D1D1D"/>
<path d="M62.1373 19.5571L62.1373 66.1399" stroke="white" stroke-linecap="round"/>
<path d="M62.1373 88.8997L62.1373 112.191" stroke="white" stroke-linecap="round"/>
<path d="M113.248 61.4558C113.248 61.1796 113.024 60.9557 112.748 60.9557H95.1445C94.8684 60.9557 94.6445 61.1796 94.6445 61.4557V150.071H113.248V61.4558Z" fill="#CBD5CA" stroke="#1D1D1D"/>
<rect x="-0.5" y="0.5" width="18.6036" height="8.48585" transform="matrix(-1 0 0 1 112.748 69.9415)" fill="white" stroke="#1D1D1D"/>
<path d="M105.035 90.0079L105.035 132.694" stroke="#1D1D1D" stroke-linecap="round"/>
<path d="M96.2582 18.6583C96.2582 18.3822 96.0344 18.1583 95.7582 18.1583H71.7148C71.4386 18.1583 71.2148 18.3822 71.2148 18.6583V150.071H96.2582V18.6583Z" fill="#F0E7D5" stroke="#1D1D1D"/>
<rect x="-0.5" y="0.5" width="25.0435" height="11.6584" transform="matrix(-1 0 0 1 95.7584 36.6459)" fill="white" stroke="#1D1D1D"/>
<path d="M83.5944 57.4059L83.5944 106.9" stroke="#1D1D1D" stroke-linecap="round"/>
<path d="M90.1296 130.192H77.0605" stroke="#1D1D1D" stroke-linecap="round"/>
<path d="M87.9504 136.014H79.2377" stroke="#1D1D1D" stroke-linecap="round"/>
<path d="M52.5 18C52.5 17.7239 52.2761 17.5 52 17.5H28C27.7239 17.5 27.5 17.7239 27.5 18V150.5H52.5V18Z" fill="white" stroke="#1D1D1D"/>
<path d="M40.0591 28.2914L40.0591 77.7856" stroke="#1D1D1D" stroke-linecap="round"/>
<path d="M40.0591 95.2543L40.0591 112.723" stroke="#1D1D1D" stroke-linecap="round"/>
<circle cx="6" cy="6" r="5.5" transform="matrix(-1 0 0 1 46.4151 130.191)" fill="white" stroke="#1D1D1D"/>
<g style="mix-blend-mode:multiply">
<path d="M167.229 68.3351C166.558 62.1927 161.333 57.5639 155.154 57.639L108.707 58.2038C101.794 58.2879 96.3811 64.1813 96.8846 71.0767L102.649 150.032L162.869 148.942C169.925 148.814 175.347 142.656 174.581 135.641L167.229 68.3351Z" fill="#859991"/>
</g>
<path d="M172.325 64.3826C171.507 58.4775 166.312 54.176 160.358 54.4734L109.682 57.0053C102.942 57.3421 97.9402 63.3828 98.8665 70.0673L108.902 142.489C109.72 148.394 114.915 152.695 120.869 152.398L171.545 149.866C178.285 149.529 183.287 143.488 182.361 136.804L172.325 64.3826Z" fill="white" stroke="black"/>
<path d="M172.105 62.5284C171.412 57.6675 167.128 54.1352 162.224 54.3802L111.792 56.8999C106.209 57.1789 102.073 62.194 102.862 67.7279L113.156 139.889C113.849 144.75 118.133 148.282 123.037 148.037L173.469 145.517C179.052 145.239 183.188 140.223 182.398 134.69L172.105 62.5284Z" fill="#FAE3C3" stroke="#1D1D1D"/>
<path d="M165.87 64.9215C165.564 63.1833 164.011 61.9452 162.248 62.0332L113.398 64.4739C111.295 64.579 109.76 66.5034 110.126 68.5769L111.105 74.1254C111.411 75.8636 112.964 77.1017 114.727 77.0137L163.578 74.573C165.68 74.4679 167.215 72.5435 166.849 70.47L165.87 64.9215Z" fill="white" stroke="#1D1D1D"/>
<path d="M117.999 74.7993C118.624 74.7682 119.178 74.6151 119.663 74.3403C120.149 74.0655 120.524 73.7022 120.789 73.2504C121.053 72.7986 121.172 72.3032 121.145 71.7642L120.768 69.0343C120.741 68.4953 120.573 68.0182 120.265 67.6029C119.956 67.1798 119.547 66.8557 119.036 66.6306C118.526 66.3976 117.958 66.2968 117.334 66.328C116.718 66.3587 116.172 66.5152 115.696 66.7975C115.211 67.0723 114.836 67.4356 114.571 67.8874C114.306 68.3313 114.186 68.8228 114.213 69.3618L114.591 72.0917C114.618 72.6307 114.786 73.1118 115.094 73.5349C115.403 73.9502 115.812 74.2743 116.323 74.5072C116.825 74.7327 117.384 74.8301 117.999 74.7993ZM117.938 73.569C117.617 73.585 117.323 73.5332 117.055 73.4135C116.778 73.2863 116.557 73.1094 116.394 72.8826C116.222 72.6563 116.129 72.4025 116.114 72.1213L115.727 69.1805C115.712 68.8915 115.779 68.6297 115.928 68.3951C116.077 68.1606 116.279 67.9665 116.533 67.8128C116.788 67.6591 117.075 67.5743 117.396 67.5583C117.716 67.5423 118.019 67.5976 118.305 67.7243C118.581 67.8436 118.806 68.0164 118.978 68.2428C119.15 68.4691 119.243 68.7229 119.257 69.0041L119.645 71.9449C119.659 72.2261 119.592 72.4879 119.443 72.7303C119.295 72.9726 119.089 73.1709 118.826 73.3249C118.563 73.4712 118.267 73.5526 117.938 73.569Z" fill="#1D1D1D"/>
<path d="M174.526 129.704C174.289 127.895 172.702 126.571 170.88 126.662L123.248 129.042C121.207 129.144 119.688 130.965 119.953 132.991L120.262 135.353C120.498 137.163 122.085 138.487 123.907 138.396L171.54 136.016C173.58 135.914 175.1 134.093 174.835 132.067L174.526 129.704Z" fill="#F0E7D5" stroke="#1D1D1D"/>
<path d="M167.74 82.6554C167.419 80.9324 165.874 79.7117 164.123 79.7992L160.195 79.9954C158.079 80.1012 156.542 82.0476 156.93 84.1305L157.648 87.9911C157.968 89.7141 159.514 90.9347 161.264 90.8473L165.192 90.651C167.308 90.5453 168.845 88.5988 168.458 86.516L167.74 82.6554Z" fill="white" stroke="#1D1D1D"/>
<path d="M153.302 83.3767C152.981 81.6537 151.436 80.4331 149.685 80.5205L145.757 80.7168C143.641 80.8225 142.104 82.7689 142.491 84.8518L143.21 88.7124C143.53 90.4354 145.076 91.656 146.826 91.5686L150.754 91.3723C152.87 91.2666 154.407 89.3202 154.02 87.2373L153.302 83.3767Z" fill="white" stroke="#1D1D1D"/>
<path d="M138.863 84.0981C138.543 82.3751 136.998 81.1545 135.247 81.2419L131.319 81.4382C129.203 81.5439 127.666 83.4904 128.053 85.5732L128.771 89.4338C129.092 91.1569 130.637 92.3775 132.388 92.29L136.316 92.0938C138.432 91.988 139.969 90.0416 139.582 87.9587L138.863 84.0981Z" fill="white" stroke="#1D1D1D"/>
<path d="M124.426 84.8195C124.105 83.0964 122.56 81.8758 120.81 81.9633L116.882 82.1595C114.766 82.2652 113.228 84.2117 113.616 86.2945L114.334 90.1551C114.654 91.8782 116.2 93.0988 117.95 93.0113L121.878 92.8151C123.994 92.7094 125.531 90.7629 125.144 88.6801L124.426 84.8195Z" fill="white" stroke="#1D1D1D"/>
<path d="M170.204 97.8406C169.884 96.1175 168.338 94.8969 166.588 94.9844L162.66 95.1806C160.544 95.2863 159.007 97.2328 159.394 99.3156L160.112 103.176C160.433 104.899 161.978 106.12 163.729 106.032L167.657 105.836C169.773 105.73 171.31 103.784 170.922 101.701L170.204 97.8406Z" fill="white" stroke="#1D1D1D"/>
<path d="M155.766 98.5619C155.445 96.8388 153.9 95.6182 152.149 95.7057L148.221 95.9019C146.106 96.0077 144.568 97.9541 144.956 100.037L145.674 103.898C145.994 105.621 147.54 106.841 149.29 106.754L153.218 106.558C155.334 106.452 156.871 104.505 156.484 102.422L155.766 98.5619Z" fill="white" stroke="#1D1D1D"/>
<path d="M141.328 99.2832C141.008 97.5602 139.462 96.3395 137.712 96.427L133.784 96.6233C131.668 96.729 130.131 98.6754 130.518 100.758L131.236 104.619C131.557 106.342 133.102 107.563 134.853 107.475L138.781 107.279C140.896 107.173 142.434 105.227 142.046 103.144L141.328 99.2832Z" fill="white" stroke="#1D1D1D"/>
<path d="M172.669 113.026C172.348 111.303 170.803 110.082 169.052 110.17L165.124 110.366C163.008 110.472 161.471 112.418 161.859 114.501L162.577 118.361C162.897 120.085 164.443 121.305 166.193 121.218L170.121 121.021C172.237 120.916 173.774 118.969 173.387 116.886L172.669 113.026Z" fill="white" stroke="#1D1D1D"/>
<path d="M158.231 113.747C157.91 112.024 156.365 110.803 154.614 110.891L150.686 111.087C148.57 111.193 147.033 113.139 147.42 115.222L148.139 119.083C148.459 120.806 150.004 122.026 151.755 121.939L155.683 121.743C157.799 121.637 159.336 119.691 158.949 117.608L158.231 113.747Z" fill="white" stroke="#1D1D1D"/>
<path d="M143.792 114.468C143.472 112.745 141.927 111.525 140.176 111.612L136.248 111.808C134.132 111.914 132.595 113.861 132.982 115.943L133.7 119.804C134.021 121.527 135.566 122.748 137.317 122.66L141.245 122.464C143.361 122.358 144.898 120.412 144.511 118.329L143.792 114.468Z" fill="white" stroke="#1D1D1D"/>
<path d="M126.853 100.051C126.551 98.3074 124.996 97.0624 123.228 97.1507L119.287 97.3476C117.189 97.4524 115.656 99.3683 116.013 101.438L119.301 120.479C119.602 122.223 121.157 123.468 122.925 123.379L126.866 123.182C128.964 123.078 130.497 121.162 130.14 119.092L126.853 100.051Z" fill="white" stroke="#1D1D1D"/>
<g style="mix-blend-mode:multiply">
<path d="M238.587 85.7809C237.719 79.7637 232.488 75.3464 226.41 75.4983L165.41 77.0226C158.242 77.2017 152.83 83.5857 153.826 90.6864L162.187 150.268L234.115 146.78C241.183 146.438 246.422 140.085 245.411 133.081L238.587 85.7809Z" fill="#859991"/>
</g>
<path d="M245.375 81.2118C244.403 75.4418 239.254 71.3216 233.411 71.6392L167.144 75.2406C160.291 75.613 155.288 81.8663 156.428 88.634L165.794 144.23C166.766 150 171.916 154.121 177.758 153.803L244.025 150.202C250.878 149.829 255.882 143.576 254.741 136.808L245.375 81.2118Z" fill="#656A47" stroke="black"/>
<path d="M245.106 79.4017C244.288 74.6564 240.048 71.2743 235.239 71.5308L168.473 75.0913C162.792 75.3943 158.649 80.5877 159.617 86.1934L169.291 142.254C170.11 146.999 174.35 150.381 179.159 150.125L245.925 146.564C251.606 146.261 255.748 141.068 254.781 135.462L245.106 79.4017Z" fill="white" stroke="#1D1D1D"/>
<path opacity="0.5" d="M169.927 97.6966L240.601 93.8764L241.843 100.084L171.043 103.904L169.927 97.6966Z" fill="#CBD5CA"/>
<path opacity="0.5" d="M168.017 86.2359L238.691 82.4157L239.933 88.6236L169.133 92.4438L168.017 86.2359Z" fill="#CBD5CA"/>
<path opacity="0.5" d="M171.837 109.157L242.511 105.337L243.753 111.545L172.953 115.365L171.837 109.157Z" fill="#CBD5CA"/>
<path opacity="0.5" d="M173.747 120.618L244.421 116.798L245.663 123.006L174.863 126.826L173.747 120.618Z" fill="#CBD5CA"/>
<path opacity="0.5" d="M175.657 132.079L246.331 128.258L247.573 134.466L176.773 138.287L175.657 132.079Z" fill="#CBD5CA"/>
<path d="M168.972 97.7417L180.286 106.142L191.091 89.1011L209.537 106.142L218.941 95.9176L229.312 106.142L236.854 113.933L242.511 100.034" stroke="#656A47" stroke-linecap="round"/>
<circle cx="169.927" cy="98.6517" r="1.91011" fill="#656A47"/>
<circle cx="190.938" cy="89.1012" r="1.91011" fill="#656A47"/>
<circle cx="218.635" cy="95.7865" r="1.91011" fill="#656A47"/>
<circle cx="236.781" cy="113.933" r="1.91011" fill="#656A47"/>
<circle cx="209.084" cy="106.292" r="1.91011" fill="#656A47"/>
<circle cx="242.511" cy="99.6068" r="1.91011" fill="#656A47"/>
<path d="M173.747 122.475L184.767 128.258L195.292 120.075L213.259 128.258L222.418 121.969L232.52 124.809L239.866 126.973L245.376 119.663" stroke="#936D0D" stroke-linecap="round"/>
<circle cx="173.747" cy="122.528" r="1.41011" fill="#936D0D" stroke="#936D0D"/>
<circle cx="195.714" cy="119.663" r="1.41011" fill="#936D0D" stroke="#936D0D"/>
<circle cx="222.455" cy="121.573" r="1.41011" fill="#936D0D" stroke="#936D0D"/>
<circle cx="239.646" cy="127.303" r="1.41011" fill="#936D0D" stroke="#936D0D"/>
<circle cx="212.904" cy="128.258" r="1.41011" fill="#936D0D" stroke="#936D0D"/>
<circle cx="245.376" cy="119.663" r="1.41011" fill="#936D0D" stroke="#936D0D"/>
</svg>
