<svg width="57" height="56" viewBox="0 0 57 56" fill="none" xmlns="http://www.w3.org/2000/svg">
<g style="mix-blend-mode:multiply">
<path d="M50.4131 51.0588C50.4131 52.334 39.7721 53.3647 26.646 53.3647C13.52 53.3647 1.66016 52.334 1.66016 51.0588C1.66016 49.7837 13.52 48.7529 26.646 48.7529C39.7721 48.7529 50.4131 49.786 50.4131 51.0588Z" fill="#7A9FA0" fill-opacity="0.5"/>
</g>
<path d="M7.79301 22.0218L7.80016 22.1609C7.93556 24.8398 8.10199 27.6819 8.35397 30.5177C9.48432 41.3131 12.1732 49.0401 16.9691 52.4798H51.8457C45.9282 48.2358 43.2185 37.4648 42.6862 22.4565C42.3447 12.8279 40.0275 7.59172 36.3476 5.81689H1.47101C5.09517 7.56482 7.39784 12.67 7.79301 22.0218Z" fill="#FCF8F2" stroke="black" stroke-width="0.5"/>
<path d="M9.38286 20.4307L9.39 20.5698C9.5254 23.2488 9.69183 26.0908 9.94382 28.9266C11.0742 39.7221 13.763 47.4491 18.559 50.8887H53.4355C47.5181 46.6447 44.8084 35.8738 44.2761 20.8655C43.9345 11.2368 41.6173 6.00065 37.9374 4.22583H3.06086C6.68501 5.97375 8.98768 11.0789 9.38286 20.4307Z" fill="#FCF8F2" stroke="black" stroke-width="0.5"/>
<path d="M38.1414 15.9672L37.5877 11.8997H33.4992L34.0529 15.9672H38.1414Z" fill="#F0E7D5" stroke="black" stroke-width="0.5"/>
<path d="M31.2051 13.9105H16.6984" stroke="black" stroke-width="0.5" stroke-linecap="round"/>
<path d="M31.8262 25.6572H17.3195" stroke="black" stroke-width="0.5" stroke-linecap="round"/>
<path d="M33.4844 37.6101H18.9777" stroke="black" stroke-width="0.5" stroke-linecap="round"/>
<path d="M36.3905 13.1667L35.5193 14.4523L32.7182 12.5752" stroke="#226752" stroke-width="0.5" stroke-linecap="round"/>
<path d="M38.9695 27.714L38.4159 23.6465H34.3273L34.881 27.714H38.9695Z" fill="#F0E7D5" stroke="black" stroke-width="0.5"/>
<path d="M37.2188 24.9136L36.3477 26.1992L33.5465 24.3221" stroke="#226752" stroke-width="0.5" stroke-linecap="round"/>
<path d="M40.4207 39.4608L39.867 35.3933H35.7785L36.3322 39.4608H40.4207Z" fill="#F0E7D5" stroke="black" stroke-width="0.5"/>
<path d="M38.6678 36.6601L37.7966 37.9457L34.9955 36.0686" stroke="#226752" stroke-width="0.5" stroke-linecap="round"/>
<path d="M10.9747 18.8401L10.9818 18.9793C11.1172 21.6582 11.2836 24.5002 11.5356 27.3361C12.666 38.1315 15.3548 45.8585 20.1508 49.2981H55.0273C49.1099 45.0541 46.4002 34.2832 45.8679 19.2749C45.5263 9.64624 43.2091 4.41008 39.5292 2.63525H4.65266C8.27681 4.38318 10.5795 9.48832 10.9747 18.8401Z" fill="#FCF8F2" stroke="black" stroke-width="0.5"/>
<path d="M19.4152 33.8026L19.9689 37.8701H24.0574L23.5038 33.8026H19.4152Z" fill="#F0E7D5" stroke="black" stroke-width="0.5"/>
<path d="M27.9414 35.8594H42.4481" stroke="black" stroke-width="0.5" stroke-linecap="round"/>
<path d="M25.1973 24.1125H39.704" stroke="black" stroke-width="0.5" stroke-linecap="round"/>
<path d="M23.5391 12.1597H38.0458" stroke="black" stroke-width="0.5" stroke-linecap="round"/>
<path d="M16.9953 22.0558L17.549 26.1233H21.6375L21.0838 22.0558H16.9953Z" fill="#F0E7D5" stroke="black" stroke-width="0.5"/>
<path d="M18.726 23.5905L19.8293 24.6834L22.2147 22.3002" stroke="#374941" stroke-linecap="round"/>
<path d="M15.5441 10.309L16.0978 14.3765H20.1863L19.6327 10.309H15.5441Z" fill="#F0E7D5" stroke="black" stroke-width="0.5"/>
<path d="M21.1654 35.396L22.2687 36.4889L24.6541 34.1058" stroke="#374941" stroke-linecap="round"/>
<path d="M17.2689 11.9051L18.3722 12.9981L20.7576 10.6149" stroke="#374941" stroke-linecap="round"/>
</svg>
