<svg width="349" height="477" viewBox="0 0 349 477" fill="none" xmlns="http://www.w3.org/2000/svg">
<path d="M315.448 55.9016L315.449 55.9014C315.603 55.6658 315.756 55.4281 315.905 55.1885C319.147 49.9801 321.02 43.8309 321.02 37.2427C321.02 18.4631 305.797 3.23932 287.017 3.23932C268.238 3.23932 253.014 18.4631 253.014 37.2427C253.014 44.1266 255.059 50.5314 258.574 55.8844L315.448 55.9016ZM315.448 55.9016C315.177 56.3144 314.904 56.7284 314.631 57.1438L314.627 57.1501L314.583 57.2162C309.369 65.1278 303.769 73.6261 303.769 83.2472C303.769 92.4989 296.269 99.9989 287.017 99.9989C277.765 99.9989 270.265 92.4989 270.265 83.2472C270.265 73.6262 264.665 65.1278 259.451 57.2162L259.408 57.1501L259.404 57.1445C259.13 56.7288 258.857 56.3147 258.586 55.9017C258.586 55.9016 258.586 55.9016 258.586 55.9016L258.574 55.8845L315.448 55.9016Z" fill="#FAE3C3" stroke="#1D1D1D"/>
<path d="M278.702 81.3304C279.158 78.8224 279.723 75.0957 280.059 71.4722M280.059 71.4722C280.494 66.7873 281.052 57.5065 277.133 57.5066C271.426 57.5067 272.793 70.6507 280.059 71.4722ZM280.059 71.4722C287.325 71.4722 296.242 52.5775 287.325 52.5775C277.133 52.5775 288.108 71.4722 295.478 71.4722C301.021 71.4722 302.219 57.5066 297.516 57.5066C292.812 57.5066 295.425 73.1153 296.732 81.3304" stroke="#1D1D1D"/>
<path d="M301.852 102.416C301.852 104.828 300.286 107.087 297.595 108.769C294.912 110.446 291.173 111.5 287.017 111.5C282.861 111.5 279.122 110.446 276.439 108.769C273.748 107.087 272.182 104.828 272.182 102.416C272.182 100.004 273.748 97.7444 276.439 96.0626C279.122 94.3853 282.861 93.3315 287.017 93.3315C291.173 93.3315 294.912 94.3853 297.595 96.0626C300.286 97.7444 301.852 100.004 301.852 102.416Z" fill="#FCF8F2" stroke="black"/>
<rect x="268.349" y="79.9135" width="37.3371" height="6.66742" rx="3.33371" fill="#FCF8F2" stroke="black"/>
<rect x="268.349" y="85.6641" width="37.3371" height="6.66742" rx="3.33371" fill="#FCF8F2" stroke="black"/>
<rect x="268.349" y="91.4146" width="37.3371" height="6.66742" rx="3.33371" fill="#FCF8F2" stroke="black"/>
<rect x="270.265" y="97.1652" width="33.5034" height="6.66742" rx="3.33371" fill="#FCF8F2" stroke="black"/>
<path d="M213.76 140.107L256.484 136.5H336.191L305.269 139.111C294.654 140.007 286.494 148.885 286.494 159.538V227.599C286.494 237.733 278.732 246.178 268.635 247.03L244.207 249.093C233.591 249.989 225.432 258.867 225.432 269.52V337.44C225.432 347.631 217.585 356.103 207.424 356.883L177.194 359.203C166.512 360.023 158.263 368.93 158.263 379.643V447.422C158.263 457.613 150.416 466.085 140.255 466.865L91.5747 470.601H13.048L48.7376 467.862C59.4195 467.042 67.6688 458.135 67.6688 447.422V379.643C67.6688 369.452 75.5157 360.98 85.6765 360.2L115.906 357.88C126.588 357.06 134.838 348.154 134.838 337.44V269.52C134.838 259.386 142.599 250.942 152.697 250.089L177.125 248.027C187.74 247.13 195.9 238.253 195.9 227.599V159.538C195.9 149.404 203.662 140.96 213.76 140.107Z" fill="white" stroke="black"/>
<rect x="78.6602" y="387.396" width="16.0975" height="28.214" rx="1.5" fill="#374941" stroke="#1D1D1D"/>
<rect x="127.51" y="414.892" width="16.0975" height="28.214" rx="1.5" fill="#374941" stroke="#1D1D1D"/>
<path d="M103.806 387.756H120.904" stroke="black"/>
<path d="M103.806 397.207H120.904" stroke="black"/>
<path d="M103.806 405.8H120.904" stroke="black"/>
<path d="M103.806 414.392H120.904" stroke="black"/>
<path d="M78.1602 424.703H95.2577" stroke="black"/>
<path d="M78.1602 432.436H95.2577" stroke="black"/>
<path d="M78.1602 441.028H95.2577" stroke="black"/>
<path d="M103.806 424.703H120.904" stroke="black"/>
<path d="M103.806 432.436H120.904" stroke="black"/>
<path d="M103.806 441.028H120.904" stroke="black"/>
<path d="M74.4966 449.621H91.5941" stroke="black"/>
<path d="M98.9214 449.621H116.019" stroke="black"/>
<path d="M124.568 449.621H141.665" stroke="black"/>
<path d="M69.6108 458.213H86.7084" stroke="black"/>
<path d="M94.0356 458.213H128.231" stroke="black"/>
<path d="M127.01 387.756H144.108" stroke="black"/>
<path d="M127.01 397.207H144.108" stroke="black"/>
<path d="M127.01 405.8H144.108" stroke="black"/>
<rect x="0.5" y="-0.5" width="19.7613" height="28.214" rx="1.5" transform="matrix(1 0 0 -1 146.55 326.609)" fill="#374941" stroke="#1D1D1D"/>
<path d="M172.196 325.031H189.294" stroke="black"/>
<path d="M172.196 315.58H189.294" stroke="black"/>
<path d="M172.196 306.988H189.294" stroke="black"/>
<path d="M172.196 298.395H189.294" stroke="black"/>
<path d="M146.55 289.803H163.647" stroke="black"/>
<path d="M146.55 282.07H163.647" stroke="black"/>
<path d="M146.55 273.477H163.647" stroke="black"/>
<path d="M172.196 289.803H189.294" stroke="black"/>
<path d="M172.196 282.07H189.294" stroke="black"/>
<path d="M172.196 273.477H189.294" stroke="black"/>
<path d="M195.4 317.298H212.497" stroke="black"/>
<path d="M195.4 325.891H212.497" stroke="black"/>
<path d="M184.408 337.061H213.718" stroke="black"/>
<path d="M195.4 308.706H212.497" stroke="black"/>
<rect x="271.839" y="219.705" width="16.0975" height="28.214" rx="1.5" transform="rotate(180 271.839 219.705)" fill="#374941" stroke="#1D1D1D"/>
<rect x="211.998" y="300.473" width="16.0975" height="28.214" rx="1.5" transform="rotate(180 211.998 300.473)" fill="#374941" stroke="#1D1D1D"/>
<rect x="222.989" y="190.491" width="16.0975" height="28.214" rx="1.5" transform="rotate(180 222.989 190.491)" fill="#374941" stroke="#1D1D1D"/>
<path d="M246.692 218.486H229.595" stroke="black"/>
<path d="M246.692 209.035H229.595" stroke="black"/>
<path d="M246.692 200.443H229.595" stroke="black"/>
<path d="M246.692 191.85H229.595" stroke="black"/>
<path d="M272.339 181.539H255.241" stroke="black"/>
<path d="M272.339 173.806H255.241" stroke="black"/>
<path d="M272.339 165.214H255.241" stroke="black"/>
<path d="M246.692 181.539H229.595" stroke="black"/>
<path d="M246.692 173.806H229.595" stroke="black"/>
<path d="M279.667 154.903H211.276" stroke="black"/>
<path d="M148.993 378.304H80.6026" stroke="black"/>
<path d="M246.692 165.214H229.595" stroke="black"/>
<path d="M223.489 218.486H206.392" stroke="black"/>
<path d="M223.489 209.035H206.392" stroke="black"/>
<path d="M223.489 200.443H206.392" stroke="black"/>
<path d="M113.576 367.993H130.674" stroke="black"/>
<path d="M128.231 359.401H145.329" stroke="black"/>
<path d="M133.117 367.993H150.214" stroke="black"/>
<path d="M147.771 359.401H164.869" stroke="black"/>
<path d="M227.153 148.029H244.25" stroke="black"/>
<path d="M249.135 148.029H278.445" stroke="black"/>
<path d="M255.242 142.874H291.879" stroke="black"/>
<path d="M152.657 263.167H191.737" stroke="black"/>
<path d="M177.082 254.574H194.179" stroke="black"/>
<path d="M189.294 245.982H206.391" stroke="black"/>
<path d="M197.842 237.39H214.94" stroke="black"/>
<path d="M196.621 263.167H213.719" stroke="black"/>
<path d="M200.285 254.574H222.268" stroke="black"/>
<path d="M211.276 245.982H235.701" stroke="black"/>
<path d="M221.047 237.39H250.357" stroke="black"/>
<path d="M225.932 228.797H265.012" stroke="black"/>
<path d="M203.949 228.797H221.047" stroke="black"/>
<path d="M163.648 337.061H180.745" stroke="black"/>
<path d="M141.666 337.061H158.763" stroke="black"/>
<path d="M158.763 347.372H197.843" stroke="black"/>
<path d="M136.781 347.372H153.878" stroke="black"/>
</svg>
