<svg width="729" height="413" viewBox="0 0 729 413" fill="none" xmlns="http://www.w3.org/2000/svg">
<rect width="729" height="413" rx="16" fill="white"/>
<path d="M49.372 68.5V58.56H51.08V68.5H49.372ZM60.647 68.5L55.971 61.192V68.5H54.375V58.56H55.971L60.647 65.868V58.56H62.243V68.5H60.647ZM65.0124 63.53C65.0124 60.408 66.9864 58.35 69.8844 58.35C71.9144 58.35 73.5384 59.344 74.2524 61.094L72.6424 61.64C72.1804 60.394 71.2004 59.75 69.9124 59.75C67.9244 59.75 66.7904 61.262 66.7904 63.53C66.7904 65.784 67.9104 67.324 69.9124 67.324C71.2004 67.324 72.1804 66.68 72.6424 65.42L74.2524 65.98C73.5384 67.73 71.9004 68.71 69.8844 68.71C66.9864 68.71 65.0124 66.652 65.0124 63.53ZM77.0286 68.5V58.56H78.7366V67.156H83.3286V68.5H77.0286ZM89.6586 68.71C86.8866 68.71 85.6686 67.254 85.6686 64.804V58.56H87.3766V64.804C87.3766 66.302 87.9646 67.366 89.6586 67.366C91.3526 67.366 91.9406 66.302 91.9406 64.804V58.56H93.6486V64.804C93.6486 67.254 92.4306 68.71 89.6586 68.71ZM96.9474 68.5V58.56H100.671C103.597 58.56 105.599 60.492 105.599 63.53C105.599 66.582 103.583 68.5 100.671 68.5H96.9474ZM98.6554 67.156H100.671C102.645 67.156 103.807 65.672 103.807 63.53C103.807 61.388 102.645 59.904 100.671 59.904H98.6554V67.156ZM108.363 68.5V58.56H114.957V59.904H110.071V62.592H114.677V63.936H110.071V67.156H115.223V68.5H108.363ZM117.974 68.5V58.56H121.698C124.624 58.56 126.626 60.492 126.626 63.53C126.626 66.582 124.61 68.5 121.698 68.5H117.974ZM119.682 67.156H121.698C123.672 67.156 124.834 65.672 124.834 63.53C124.834 61.388 123.672 59.904 121.698 59.904H119.682V67.156ZM132.964 59.904V58.56H141.168V59.904H137.92V68.5H136.212V59.904H132.964ZM141.863 68.5L145.615 58.56H147.239L150.991 68.5H149.213L148.485 66.372H144.369L143.641 68.5H141.863ZM144.817 65.042H148.023L146.441 60.408H146.399L144.817 65.042ZM160.155 68.5L157.271 64.692L154.695 68.5H152.777L156.333 63.446L152.637 58.56H154.541L157.453 62.41L160.015 58.56H161.933L158.391 63.642L162.073 68.5H160.155ZM172.606 68.71C170.324 68.71 168.868 67.548 168.14 66.764L169.12 65.63C169.96 66.498 170.982 67.366 172.648 67.366C173.978 67.366 174.804 66.862 174.804 65.812C174.804 64.902 174.174 64.58 173.138 64.314L171.374 63.866C169.932 63.502 168.882 62.774 168.882 61.192C168.882 59.26 170.464 58.35 172.676 58.35C174.398 58.35 175.686 58.98 176.596 59.806L175.56 60.94C174.86 60.212 173.936 59.68 172.62 59.68C171.612 59.68 170.688 60.044 170.688 61.024C170.688 61.808 171.262 62.06 172.088 62.27L174.062 62.774C175.728 63.194 176.596 64.09 176.596 65.602C176.596 67.618 175.028 68.71 172.606 68.71ZM179.439 68.5V58.56H186.033V59.904H181.147V62.592H185.753V63.936H181.147V67.156H186.299V68.5H179.439ZM195.013 68.5L192.549 64.44H190.757V68.5H189.049V58.56H193.585C195.909 58.56 196.959 59.652 196.959 61.5C196.959 63.124 196.133 64.174 194.341 64.398L197.015 68.5H195.013ZM190.757 63.096H193.305C194.635 63.096 195.167 62.508 195.167 61.5C195.167 60.492 194.635 59.904 193.305 59.904H190.757V63.096ZM202.335 68.5L198.625 58.56H200.403L203.119 66.652H203.161L205.905 58.56H207.669L203.973 68.5H202.335ZM210.076 68.5V58.56H211.784V68.5H210.076ZM214.547 63.53C214.547 60.408 216.521 58.35 219.419 58.35C221.449 58.35 223.073 59.344 223.787 61.094L222.177 61.64C221.715 60.394 220.735 59.75 219.447 59.75C217.459 59.75 216.325 61.262 216.325 63.53C216.325 65.784 217.445 67.324 219.447 67.324C220.735 67.324 221.715 66.68 222.177 65.42L223.787 65.98C223.073 67.73 221.435 68.71 219.419 68.71C216.521 68.71 214.547 66.652 214.547 63.53ZM226.563 68.5V58.56H233.157V59.904H228.271V62.592H232.877V63.936H228.271V67.156H233.423V68.5H226.563ZM239.814 68.71C237.532 68.71 236.076 67.548 235.348 66.764L236.328 65.63C237.168 66.498 238.19 67.366 239.856 67.366C241.186 67.366 242.012 66.862 242.012 65.812C242.012 64.902 241.382 64.58 240.346 64.314L238.582 63.866C237.14 63.502 236.09 62.774 236.09 61.192C236.09 59.26 237.672 58.35 239.884 58.35C241.606 58.35 242.894 58.98 243.804 59.806L242.768 60.94C242.068 60.212 241.144 59.68 239.828 59.68C238.82 59.68 237.896 60.044 237.896 61.024C237.896 61.808 238.47 62.06 239.296 62.27L241.27 62.774C242.936 63.194 243.804 64.09 243.804 65.602C243.804 67.618 242.236 68.71 239.814 68.71Z" fill="#1D1D1D"/>
<path d="M315 40C315 35.5817 318.582 32 323 32H518C522.418 32 526 35.5817 526 40V95H315V40Z" fill="#F2F7F5"/>
<path d="M397.943 52.8531V73.8303H394.157V64.2296H384.279V73.8278H380.5V52.8531H384.279V62.1521H394.157V52.8531H397.943ZM432.457 73.7314H428.698C428.547 73.2285 428.429 72.7163 428.345 72.198C427.063 73.442 425.348 74.1454 423.558 74.1617C419.585 74.1617 417.311 72.25 417.311 69.3366C417.311 66.4232 419.595 64.3038 423.558 64.3038C425.186 64.2866 426.787 64.7235 428.179 65.5651C428.231 64.9066 428.231 64.245 428.179 63.5865C428.064 62.7828 427.32 61.5338 426.257 61.0862C422.796 59.6196 419.871 62.4291 419.871 62.4291L418.522 61.2915C422.036 57.4482 426.413 58.1209 429.078 59.3797C431.742 60.6386 432.02 62.8965 432.02 64.1183V70.1824C432.022 70.6078 432.05 72.6556 432.452 73.7388L432.457 73.7314ZM428.174 70.2146V67.3853C427.134 66.6737 425.904 66.2879 424.643 66.2773C420.975 66.2773 421.182 69.344 421.182 69.344C421.182 69.344 420.975 72.2054 424.643 72.2054C426.187 72.2054 427.367 71.2434 428.174 70.2146ZM416.168 67.1973H404.297C404.297 69.3168 406.184 71.921 409.678 71.921C412.672 71.921 414.023 69.9029 414.023 69.9029L415.389 70.8922C413.71 73.306 411.634 74.1666 408.267 74.1666C404.901 74.1666 400.213 71.8073 400.213 66.1364C400.213 63.0152 402.273 58.6749 408.267 58.4103C413.675 58.1753 416.861 62.9163 416.168 67.1973ZM412.24 65.1125C412.24 65.1125 411.992 60.4135 408.156 60.4135C404.712 60.552 404.297 65.1125 404.297 65.1125H412.24ZM439.469 59.9189C439.019 60.4105 438.629 60.9534 438.307 61.5363V58.7689H434.274C434.482 59.4462 434.603 60.1465 434.637 60.8537V73.7314H438.429V65.6961C438.428 65.2307 438.471 64.7662 438.558 64.3087C438.93 62.3623 440.36 61.153 442.357 61.0788H443.774V58.4226C442.195 58.3089 440.589 58.7392 439.469 59.9065V59.9189ZM460.5 73.855H456.748C456.597 73.3514 456.479 72.8383 456.396 72.3192C456.371 72.1164 456.351 71.9012 456.341 71.7677C455.286 73.3505 453.61 74.1642 451.127 74.1642C447.457 74.1642 443.983 71.231 443.983 66.1833C443.983 61.7317 447.459 58.3756 451.127 58.3756C453.488 58.3756 455.191 59.3649 456.281 60.8958V52.8333H460.137V71.7578C460.17 72.4652 460.292 73.1656 460.5 73.8427V73.855ZM456.294 68.8049V64.0218C455.549 62.2659 453.982 61.1925 452.338 61.1925C450.056 61.1925 447.869 63.1711 447.869 66.2724C447.869 69.6086 450.059 71.5995 452.338 71.5995C453.982 71.5995 455.546 70.6053 456.294 68.8049Z" fill="#226752"/>
<path d="M567.746 58.5L564.638 48.56H566.402L568.53 56.162H568.572L570.938 48.56H572.506L574.872 56.162H574.9L577.028 48.56H578.792L575.698 58.5H574.13L571.736 50.856H571.708L569.314 58.5H567.746ZM581.242 58.5V48.56H582.95V58.5H581.242ZM585.377 49.904V48.56H593.581V49.904H590.333V58.5H588.625V49.904H585.377ZM596.006 48.56H597.714V52.718H602.278V48.56H603.986V58.5H602.278V54.062H597.714V58.5H596.006V48.56ZM611.653 58.71C608.727 58.71 606.739 56.582 606.739 53.53C606.739 50.478 608.727 48.35 611.653 48.35C614.565 48.35 616.553 50.478 616.553 53.53C616.553 56.582 614.565 58.71 611.653 58.71ZM608.545 53.53C608.545 55.714 609.707 57.338 611.653 57.338C613.585 57.338 614.761 55.714 614.761 53.53C614.761 51.346 613.585 49.722 611.653 49.722C609.707 49.722 608.545 51.346 608.545 53.53ZM623.306 58.71C620.534 58.71 619.316 57.254 619.316 54.804V48.56H621.024V54.804C621.024 56.302 621.612 57.366 623.306 57.366C625 57.366 625.588 56.302 625.588 54.804V48.56H627.296V54.804C627.296 57.254 626.078 58.71 623.306 58.71ZM629.712 49.904V48.56H637.916V49.904H634.668V58.5H632.96V49.904H629.712ZM578.288 68.56H579.996V72.718H584.56V68.56H586.268V78.5H584.56V74.062H579.996V78.5H578.288V68.56ZM589.567 78.5V68.56H596.161V69.904H591.275V72.592H595.881V73.936H591.275V77.156H596.427V78.5H589.567ZM598.282 78.5L602.034 68.56H603.658L607.41 78.5H605.632L604.904 76.372H600.788L600.06 78.5H598.282ZM601.236 75.042H604.442L602.86 70.408H602.818L601.236 75.042ZM615.778 78.5L613.314 74.44H611.522V78.5H609.814V68.56H614.35C616.674 68.56 617.724 69.652 617.724 71.5C617.724 73.124 616.898 74.174 615.106 74.398L617.78 78.5H615.778ZM611.522 73.096H614.07C615.4 73.096 615.932 72.508 615.932 71.5C615.932 70.492 615.4 69.904 614.07 69.904H611.522V73.096ZM620.6 78.5V68.56H624.324C627.25 68.56 629.252 70.492 629.252 73.53C629.252 76.582 627.236 78.5 624.324 78.5H620.6ZM622.308 77.156H624.324C626.298 77.156 627.46 75.672 627.46 73.53C627.46 71.388 626.298 69.904 624.324 69.904H622.308V77.156Z" fill="#1D1D1D"/>
<rect x="32" y="95" width="665" height="1" fill="#CBD5CA"/>
<rect width="211" height="12" transform="translate(315 96)" fill="#F2F7F5"/>
<path d="M49.76 118.64H56.88V119.616H51.008V123.456H56.56V124.432H51.008V130H49.76V118.64ZM59.0948 130V122H60.1828V124.24C60.4548 122.88 61.2388 121.808 63.2708 121.808V122.976C63.1268 122.944 62.9508 122.928 62.7428 122.928C60.8068 122.928 60.2948 125.008 60.2948 126.096V130H59.0948ZM65.7061 126.272C65.8021 128.064 66.8581 129.232 68.4901 129.232C69.5941 129.232 70.4581 128.656 70.8421 127.808L71.9141 128.176C71.4021 129.344 70.1221 130.192 68.4581 130.192C66.1221 130.192 64.4581 128.496 64.4581 126C64.4581 123.52 66.0421 121.792 68.3301 121.792C70.7461 121.792 72.3141 123.68 72.1221 126.272H65.7061ZM65.7541 125.344H70.9381C70.7461 123.712 69.7701 122.752 68.3621 122.752C66.8741 122.752 65.9461 123.792 65.7541 125.344ZM75.1749 126.272C75.2709 128.064 76.3269 129.232 77.9589 129.232C79.0629 129.232 79.9269 128.656 80.3109 127.808L81.3829 128.176C80.8709 129.344 79.5909 130.192 77.9269 130.192C75.5909 130.192 73.9269 128.496 73.9269 126C73.9269 123.52 75.5109 121.792 77.7989 121.792C80.2149 121.792 81.7829 123.68 81.5909 126.272H75.1749ZM75.2229 125.344H80.4069C80.2149 123.712 79.2389 122.752 77.8309 122.752C76.3429 122.752 75.4149 123.792 75.2229 125.344ZM88.4788 118.64H89.7268V123.664H95.6468V118.64H96.8948V130H95.6468V124.656H89.7268V130H88.4788V118.64ZM100.048 130V122H101.248V130H100.048ZM99.9679 120.016V118.64H101.344V120.016H99.9679ZM106.913 130.208C105.073 130.208 103.905 129.312 103.329 128.656L104.001 127.84C104.641 128.496 105.473 129.264 106.913 129.264C108.113 129.264 108.849 128.688 108.849 127.76C108.849 126.944 108.145 126.656 107.329 126.464L105.873 126.112C104.801 125.856 103.905 125.28 103.905 124.032C103.905 122.496 105.265 121.792 106.977 121.792C108.353 121.792 109.329 122.288 110.049 122.944L109.313 123.712C108.737 123.12 107.985 122.688 106.945 122.688C105.969 122.688 105.137 123.088 105.137 123.952C105.137 124.704 105.761 124.992 106.369 125.136L107.857 125.504C109.249 125.84 110.081 126.448 110.081 127.664C110.081 129.232 108.801 130.208 106.913 130.208ZM115.142 130.192C113.846 130.192 113.046 129.728 113.046 128.176V122.88H111.702V122H113.046V119.424H114.246V122H116.006V122.88H114.246V127.936C114.246 128.944 114.774 129.2 115.526 129.2C115.734 129.2 115.958 129.184 116.15 129.152V130.096C115.862 130.144 115.526 130.192 115.142 130.192ZM121.803 130.192C119.323 130.192 117.771 128.448 117.771 125.984C117.771 123.552 119.323 121.808 121.803 121.808C124.267 121.808 125.819 123.552 125.819 125.984C125.819 128.448 124.267 130.192 121.803 130.192ZM119.019 125.984C119.019 127.856 120.027 129.232 121.803 129.232C123.579 129.232 124.571 127.872 124.571 125.984C124.571 124.112 123.579 122.752 121.803 122.752C120.027 122.752 119.019 124.112 119.019 125.984ZM128.095 130V122H129.183V124.24C129.455 122.88 130.239 121.808 132.271 121.808V122.976C132.127 122.944 131.951 122.928 131.743 122.928C129.807 122.928 129.295 125.008 129.295 126.096V130H128.095ZM134.22 130V122H135.42V130H134.22ZM134.14 120.016V118.64H135.516V120.016H134.14ZM137.693 125.984C137.693 123.488 139.261 121.808 141.597 121.808C143.405 121.808 144.781 122.784 145.245 124.4L144.157 124.688C143.821 123.488 142.909 122.752 141.645 122.752C139.949 122.752 138.941 124.08 138.941 125.984C138.941 127.888 139.949 129.216 141.645 129.216C142.909 129.216 143.821 128.48 144.157 127.28L145.245 127.568C144.781 129.184 143.405 130.16 141.597 130.16C139.261 130.16 137.693 128.48 137.693 125.984ZM149.389 130.192C148.109 130.192 146.989 129.472 146.989 128.032C146.989 126.672 147.965 125.856 149.613 125.52L151.517 125.152C152.045 125.04 152.285 124.96 152.285 124.384C152.285 123.28 151.485 122.72 150.413 122.72C149.341 122.72 148.637 123.28 148.365 124.368L147.133 124.208C147.469 122.64 148.733 121.792 150.429 121.792C151.997 121.792 153.533 122.544 153.501 124.752L153.485 128.608C153.485 129.008 153.645 129.168 153.997 129.168C154.125 129.168 154.253 129.136 154.381 129.104V130.064C154.157 130.144 153.885 130.192 153.629 130.192C152.845 130.192 152.301 129.824 152.301 129.104V128.352C151.709 129.488 150.669 130.192 149.389 130.192ZM148.237 127.888C148.237 128.784 148.925 129.296 149.789 129.296C151.197 129.296 152.285 127.968 152.285 126.368V125.808L149.805 126.32C148.925 126.512 148.237 126.992 148.237 127.888ZM156.36 130V118.64H157.56V130H156.36ZM164.963 130V118.64H169.523C172.035 118.64 173.283 119.68 173.283 121.52C173.283 122.784 172.675 123.696 171.475 124.128C172.947 124.512 173.667 125.504 173.667 126.928C173.667 128.752 172.467 130 169.955 130H164.963ZM166.211 129.024H169.779C171.555 129.024 172.371 128.144 172.371 126.832C172.371 125.504 171.555 124.64 169.779 124.64H166.211V129.024ZM166.211 123.712H169.395C171.171 123.712 171.971 122.944 171.971 121.632C171.971 120.32 171.171 119.616 169.395 119.616H166.211V123.712ZM179.459 130.192C176.979 130.192 175.427 128.448 175.427 125.984C175.427 123.552 176.979 121.808 179.459 121.808C181.923 121.808 183.475 123.552 183.475 125.984C183.475 128.448 181.923 130.192 179.459 130.192ZM176.675 125.984C176.675 127.856 177.683 129.232 179.459 129.232C181.235 129.232 182.227 127.872 182.227 125.984C182.227 124.112 181.235 122.752 179.459 122.752C177.683 122.752 176.675 124.112 176.675 125.984ZM189.334 130.192C186.854 130.192 185.302 128.448 185.302 125.984C185.302 123.552 186.854 121.808 189.334 121.808C191.798 121.808 193.35 123.552 193.35 125.984C193.35 128.448 191.798 130.192 189.334 130.192ZM186.55 125.984C186.55 127.856 187.558 129.232 189.334 129.232C191.11 129.232 192.102 127.872 192.102 125.984C192.102 124.112 191.11 122.752 189.334 122.752C187.558 122.752 186.55 124.112 186.55 125.984ZM196.826 127.712V130H195.626V118.64H196.826V126.176L200.41 122H201.85L199.098 125.136L202.538 130H201.114L198.314 126.016L196.826 127.712ZM205.482 127.712V130H204.282V118.64H205.482V126.176L209.066 122H210.506L207.754 125.136L211.194 130H209.77L206.97 126.016L205.482 127.712ZM213.456 126.272C213.552 128.064 214.608 129.232 216.24 129.232C217.344 129.232 218.208 128.656 218.592 127.808L219.664 128.176C219.152 129.344 217.872 130.192 216.208 130.192C213.872 130.192 212.208 128.496 212.208 126C212.208 123.52 213.792 121.792 216.08 121.792C218.496 121.792 220.064 123.68 219.872 126.272H213.456ZM213.504 125.344H218.688C218.496 123.712 217.52 122.752 216.112 122.752C214.624 122.752 213.696 123.792 213.504 125.344ZM222.925 126.272C223.021 128.064 224.077 129.232 225.709 129.232C226.813 129.232 227.677 128.656 228.061 127.808L229.133 128.176C228.621 129.344 227.341 130.192 225.677 130.192C223.341 130.192 221.677 128.496 221.677 126C221.677 123.52 223.261 121.792 225.549 121.792C227.965 121.792 229.533 123.68 229.341 126.272H222.925ZM222.973 125.344H228.157C227.965 123.712 226.989 122.752 225.581 122.752C224.093 122.752 223.165 123.792 222.973 125.344ZM231.595 133.04V122H232.683V123.808C233.211 122.56 234.251 121.808 235.675 121.808C237.787 121.808 239.275 123.488 239.275 125.984C239.275 128.496 237.787 130.192 235.675 130.192C234.347 130.192 233.355 129.536 232.795 128.416V133.04H231.595ZM232.795 125.984C232.795 127.856 233.755 129.264 235.403 129.264C237.051 129.264 238.027 127.872 238.027 125.984C238.027 124.112 237.051 122.736 235.403 122.736C233.755 122.736 232.795 124.128 232.795 125.984ZM241.532 130V122H242.732V130H241.532ZM241.452 120.016V118.64H242.828V120.016H241.452ZM245.501 130V122H246.589V123.888C247.053 122.576 247.981 121.808 249.405 121.808C251.053 121.808 252.013 122.784 252.013 124.576V130H250.813V124.832C250.813 123.568 250.269 122.736 249.101 122.736C247.709 122.736 246.701 123.888 246.701 126V130H245.501ZM258.08 133.232C256.224 133.232 254.864 132.448 254.4 131.104L255.52 130.768C255.904 131.696 256.736 132.304 258.08 132.304C259.76 132.304 260.72 131.392 260.72 129.52V128.224C260.176 129.36 259.168 130.032 257.824 130.032C255.696 130.032 254.224 128.368 254.224 125.904C254.224 123.456 255.696 121.808 257.824 121.808C259.264 121.808 260.32 122.576 260.832 123.84V122H261.904V129.648C261.904 132.144 260.32 133.232 258.08 133.232ZM255.456 125.904C255.456 127.744 256.432 129.12 258.08 129.12C259.744 129.12 260.704 127.744 260.704 125.904C260.704 124.08 259.744 122.72 258.08 122.72C256.432 122.72 255.456 124.08 255.456 125.904Z" fill="#1D1D1D"/>
<rect width="211" height="32" transform="translate(315 108)" fill="#F2F7F5"/>
<rect x="408.5" y="112" width="24" height="24" rx="12" fill="#226752"/>
<path d="M416 123.727L419.176 127L425 121" stroke="white" stroke-width="2" stroke-linecap="square"/>
<rect width="211" height="12" transform="translate(315 140)" fill="#F2F7F5"/>
<rect x="32" y="152" width="665" height="1" fill="#CBD5CA"/>
<rect width="211" height="12" transform="translate(315 153)" fill="#F2F7F5"/>
<path d="M49.76 175.64H56.88V176.616H51.008V180.456H56.56V181.432H51.008V187H49.76V175.64ZM60.9363 187.192C59.6562 187.192 58.5363 186.472 58.5363 185.032C58.5363 183.672 59.5123 182.856 61.1603 182.52L63.0643 182.152C63.5923 182.04 63.8323 181.96 63.8323 181.384C63.8323 180.28 63.0323 179.72 61.9603 179.72C60.8883 179.72 60.1843 180.28 59.9123 181.368L58.6803 181.208C59.0163 179.64 60.2803 178.792 61.9763 178.792C63.5443 178.792 65.0803 179.544 65.0483 181.752L65.0323 185.608C65.0323 186.008 65.1923 186.168 65.5443 186.168C65.6723 186.168 65.8003 186.136 65.9283 186.104V187.064C65.7043 187.144 65.4323 187.192 65.1763 187.192C64.3923 187.192 63.8483 186.824 63.8483 186.104V185.352C63.2563 186.488 62.2163 187.192 60.9363 187.192ZM59.7843 184.888C59.7843 185.784 60.4723 186.296 61.3363 186.296C62.7443 186.296 63.8323 184.968 63.8323 183.368V182.808L61.3523 183.32C60.4723 183.512 59.7843 183.992 59.7843 184.888ZM70.8501 187.208C69.0101 187.208 67.8421 186.312 67.2661 185.656L67.9381 184.84C68.5781 185.496 69.4101 186.264 70.8501 186.264C72.0501 186.264 72.7861 185.688 72.7861 184.76C72.7861 183.944 72.0821 183.656 71.2661 183.464L69.8101 183.112C68.7381 182.856 67.8421 182.28 67.8421 181.032C67.8421 179.496 69.2021 178.792 70.9141 178.792C72.2901 178.792 73.2661 179.288 73.9861 179.944L73.2501 180.712C72.6741 180.12 71.9221 179.688 70.8821 179.688C69.9061 179.688 69.0741 180.088 69.0741 180.952C69.0741 181.704 69.6981 181.992 70.3061 182.136L71.7941 182.504C73.1861 182.84 74.0181 183.448 74.0181 184.664C74.0181 186.232 72.7381 187.208 70.8501 187.208ZM79.0793 187.192C77.7833 187.192 76.9833 186.728 76.9833 185.176V179.88H75.6393V179H76.9833V176.424H78.1833V179H79.9433V179.88H78.1833V184.936C78.1833 185.944 78.7113 186.2 79.4633 186.2C79.6713 186.2 79.8953 186.184 80.0873 186.152V187.096C79.7993 187.144 79.4633 187.192 79.0793 187.192ZM90.1464 187.192C87.6664 187.192 86.1144 185.448 86.1144 182.984C86.1144 180.552 87.6664 178.808 90.1464 178.808C92.6104 178.808 94.1624 180.552 94.1624 182.984C94.1624 185.448 92.6104 187.192 90.1464 187.192ZM87.3624 182.984C87.3624 184.856 88.3704 186.232 90.1464 186.232C91.9224 186.232 92.9144 184.872 92.9144 182.984C92.9144 181.112 91.9224 179.752 90.1464 179.752C88.3704 179.752 87.3624 181.112 87.3624 182.984ZM96.4385 187V179H97.5265V180.888C97.9905 179.576 98.9185 178.808 100.343 178.808C101.991 178.808 102.951 179.784 102.951 181.576V187H101.751V181.832C101.751 180.568 101.207 179.736 100.039 179.736C98.6465 179.736 97.6385 180.888 97.6385 183V187H96.4385ZM105.657 187V175.64H106.857V187H105.657ZM109.829 187V179H111.029V187H109.829ZM109.749 177.016V175.64H111.125V177.016H109.749ZM113.798 187V179H114.886V180.888C115.35 179.576 116.278 178.808 117.702 178.808C119.35 178.808 120.31 179.784 120.31 181.576V187H119.11V181.832C119.11 180.568 118.566 179.736 117.398 179.736C116.006 179.736 114.998 180.888 114.998 183V187H113.798ZM123.769 183.272C123.865 185.064 124.921 186.232 126.553 186.232C127.657 186.232 128.521 185.656 128.905 184.808L129.977 185.176C129.465 186.344 128.185 187.192 126.521 187.192C124.185 187.192 122.521 185.496 122.521 183C122.521 180.52 124.105 178.792 126.393 178.792C128.809 178.792 130.377 180.68 130.185 183.272H123.769ZM123.817 182.344H129.001C128.809 180.712 127.833 179.752 126.425 179.752C124.937 179.752 124.009 180.792 123.817 182.344ZM139.585 187.208C137.745 187.208 136.577 186.312 136.001 185.656L136.673 184.84C137.312 185.496 138.145 186.264 139.585 186.264C140.785 186.264 141.521 185.688 141.521 184.76C141.521 183.944 140.817 183.656 140.001 183.464L138.545 183.112C137.473 182.856 136.577 182.28 136.577 181.032C136.577 179.496 137.937 178.792 139.649 178.792C141.025 178.792 142.001 179.288 142.721 179.944L141.985 180.712C141.409 180.12 140.657 179.688 139.617 179.688C138.641 179.688 137.809 180.088 137.809 180.952C137.809 181.704 138.433 181.992 139.041 182.136L140.529 182.504C141.921 182.84 142.753 183.448 142.753 184.664C142.753 186.232 141.473 187.208 139.585 187.208ZM151.559 179V187H150.471V185.112C150.007 186.424 149.079 187.192 147.655 187.192C146.007 187.192 145.047 186.216 145.047 184.424V179H146.247V184.168C146.247 185.432 146.791 186.264 147.959 186.264C149.351 186.264 150.359 185.112 150.359 183V179H151.559ZM154.314 190.04V179H155.402V180.808C155.93 179.56 156.97 178.808 158.394 178.808C160.506 178.808 161.994 180.488 161.994 182.984C161.994 185.496 160.506 187.192 158.394 187.192C157.066 187.192 156.074 186.536 155.514 185.416V190.04H154.314ZM155.514 182.984C155.514 184.856 156.474 186.264 158.122 186.264C159.77 186.264 160.746 184.872 160.746 182.984C160.746 181.112 159.77 179.736 158.122 179.736C156.474 179.736 155.514 181.128 155.514 182.984ZM164.251 190.04V179H165.339V180.808C165.867 179.56 166.907 178.808 168.331 178.808C170.443 178.808 171.931 180.488 171.931 182.984C171.931 185.496 170.443 187.192 168.331 187.192C167.003 187.192 166.011 186.536 165.451 185.416V190.04H164.251ZM165.451 182.984C165.451 184.856 166.411 186.264 168.059 186.264C169.707 186.264 170.683 184.872 170.683 182.984C170.683 181.112 169.707 179.736 168.059 179.736C166.411 179.736 165.451 181.128 165.451 182.984ZM177.771 187.192C175.291 187.192 173.739 185.448 173.739 182.984C173.739 180.552 175.291 178.808 177.771 178.808C180.235 178.808 181.787 180.552 181.787 182.984C181.787 185.448 180.235 187.192 177.771 187.192ZM174.987 182.984C174.987 184.856 175.995 186.232 177.771 186.232C179.547 186.232 180.539 184.872 180.539 182.984C180.539 181.112 179.547 179.752 177.771 179.752C175.995 179.752 174.987 181.112 174.987 182.984ZM184.064 187V179H185.152V181.24C185.424 179.88 186.208 178.808 188.24 178.808V179.976C188.096 179.944 187.92 179.928 187.712 179.928C185.776 179.928 185.264 182.008 185.264 183.096V187H184.064ZM192.954 187.192C191.658 187.192 190.858 186.728 190.858 185.176V179.88H189.514V179H190.858V176.424H192.058V179H193.818V179.88H192.058V184.936C192.058 185.944 192.586 186.2 193.338 186.2C193.546 186.2 193.77 186.184 193.962 186.152V187.096C193.674 187.144 193.338 187.192 192.954 187.192Z" fill="#1D1D1D"/>
<rect width="211" height="32" transform="translate(315 165)" fill="#F2F7F5"/>
<rect x="408.5" y="169" width="24" height="24" rx="12" fill="#226752"/>
<path d="M416 180.727L419.176 184L425 178" stroke="white" stroke-width="2" stroke-linecap="square"/>
<rect width="211" height="12" transform="translate(315 197)" fill="#F2F7F5"/>
<rect x="32" y="209" width="665" height="1" fill="#CBD5CA"/>
<rect width="211" height="12" transform="translate(315 210)" fill="#F2F7F5"/>
<path d="M53.584 244.192C51.104 244.192 49.584 242.896 48.8 241.968L49.584 241.136C50.4 242.08 51.536 243.216 53.616 243.216C55.44 243.216 56.528 242.4 56.528 240.96C56.528 239.696 55.68 239.2 54.32 238.848L52.32 238.352C50.8 237.968 49.648 237.2 49.648 235.504C49.648 233.44 51.36 232.448 53.68 232.448C55.52 232.448 56.848 233.152 57.776 234.048L56.96 234.912C56.208 234.048 55.184 233.424 53.648 233.424C52.192 233.424 50.96 234.048 50.96 235.392C50.96 236.496 51.776 236.912 52.832 237.184L54.944 237.712C56.816 238.192 57.84 239.104 57.84 240.816C57.84 242.96 56.208 244.192 53.584 244.192ZM60.3916 247.04V236H61.4796V237.808C62.0076 236.56 63.0476 235.808 64.4716 235.808C66.5836 235.808 68.0716 237.488 68.0716 239.984C68.0716 242.496 66.5836 244.192 64.4716 244.192C63.1436 244.192 62.1516 243.536 61.5916 242.416V247.04H60.3916ZM61.5916 239.984C61.5916 241.856 62.5516 243.264 64.1996 243.264C65.8476 243.264 66.8236 241.872 66.8236 239.984C66.8236 238.112 65.8476 236.736 64.1996 236.736C62.5516 236.736 61.5916 238.128 61.5916 239.984ZM71.128 240.272C71.224 242.064 72.28 243.232 73.912 243.232C75.016 243.232 75.88 242.656 76.264 241.808L77.336 242.176C76.824 243.344 75.544 244.192 73.88 244.192C71.544 244.192 69.88 242.496 69.88 240C69.88 237.52 71.464 235.792 73.752 235.792C76.168 235.792 77.736 237.68 77.544 240.272H71.128ZM71.176 239.344H76.36C76.168 237.712 75.192 236.752 73.784 236.752C72.296 236.752 71.368 237.792 71.176 239.344ZM79.3488 239.984C79.3488 237.488 80.9168 235.808 83.2528 235.808C85.0608 235.808 86.4368 236.784 86.9008 238.4L85.8128 238.688C85.4768 237.488 84.5648 236.752 83.3008 236.752C81.6048 236.752 80.5968 238.08 80.5968 239.984C80.5968 241.888 81.6048 243.216 83.3008 243.216C84.5648 243.216 85.4768 242.48 85.8128 241.28L86.9008 241.568C86.4368 243.184 85.0608 244.16 83.2528 244.16C80.9168 244.16 79.3488 242.48 79.3488 239.984ZM89.1416 244V236H90.3416V244H89.1416ZM89.0616 234.016V232.64H90.4376V234.016H89.0616ZM95.0144 244.192C93.7344 244.192 92.6144 243.472 92.6144 242.032C92.6144 240.672 93.5904 239.856 95.2384 239.52L97.1424 239.152C97.6704 239.04 97.9104 238.96 97.9104 238.384C97.9104 237.28 97.1104 236.72 96.0384 236.72C94.9664 236.72 94.2624 237.28 93.9904 238.368L92.7584 238.208C93.0944 236.64 94.3584 235.792 96.0544 235.792C97.6224 235.792 99.1584 236.544 99.1264 238.752L99.1104 242.608C99.1104 243.008 99.2704 243.168 99.6224 243.168C99.7504 243.168 99.8784 243.136 100.006 243.104V244.064C99.7824 244.144 99.5104 244.192 99.2544 244.192C98.4704 244.192 97.9264 243.824 97.9264 243.104V242.352C97.3344 243.488 96.2944 244.192 95.0144 244.192ZM93.8624 241.888C93.8624 242.784 94.5504 243.296 95.4144 243.296C96.8224 243.296 97.9104 241.968 97.9104 240.368V239.808L95.4304 240.32C94.5504 240.512 93.8624 240.992 93.8624 241.888ZM101.985 244V232.64H103.185V244H101.985ZM106.157 244V236H107.357V244H106.157ZM106.077 234.016V232.64H107.453V234.016H106.077ZM109.39 243.168L114.302 236.928H109.71V236H115.758V236.832L110.846 243.056H115.918V244H109.39V243.168ZM118.706 240.272C118.802 242.064 119.858 243.232 121.49 243.232C122.594 243.232 123.458 242.656 123.842 241.808L124.914 242.176C124.402 243.344 123.122 244.192 121.458 244.192C119.122 244.192 117.458 242.496 117.458 240C117.458 237.52 119.042 235.792 121.33 235.792C123.746 235.792 125.314 237.68 125.122 240.272H118.706ZM118.754 239.344H123.938C123.746 237.712 122.77 236.752 121.362 236.752C119.874 236.752 118.946 237.792 118.754 239.344ZM134.607 244H133.519V242.176C132.991 243.44 131.951 244.192 130.527 244.192C128.415 244.192 126.927 242.496 126.927 239.984C126.927 237.488 128.415 235.808 130.527 235.808C131.855 235.808 132.847 236.464 133.407 237.568V232.64H134.607V244ZM128.175 239.984C128.175 241.872 129.151 243.264 130.799 243.264C132.447 243.264 133.407 241.856 133.407 239.984C133.407 238.128 132.447 236.736 130.799 236.736C129.151 236.736 128.175 238.112 128.175 239.984ZM141.61 244V236H142.81V244H141.61ZM141.53 234.016V232.64H142.906V234.016H141.53ZM145.579 244V236H146.667V237.888C147.131 236.576 148.059 235.808 149.483 235.808C151.131 235.808 152.091 236.784 152.091 238.576V244H150.891V238.832C150.891 237.568 150.347 236.736 149.179 236.736C147.787 236.736 146.779 237.888 146.779 240V244H145.579ZM161.72 244.192C160.424 244.192 159.624 243.728 159.624 242.176V236.88H158.28V236H159.624V233.424H160.824V236H162.584V236.88H160.824V241.936C160.824 242.944 161.352 243.2 162.104 243.2C162.312 243.2 162.536 243.184 162.728 243.152V244.096C162.44 244.144 162.104 244.192 161.72 244.192ZM165.001 244V232.64H166.201V237.6C166.697 236.464 167.593 235.808 168.905 235.808C170.553 235.808 171.513 236.784 171.513 238.576V244H170.313V238.832C170.313 237.568 169.769 236.736 168.601 236.736C167.209 236.736 166.201 237.888 166.201 240V244H165.001ZM174.972 240.272C175.068 242.064 176.124 243.232 177.756 243.232C178.86 243.232 179.724 242.656 180.108 241.808L181.18 242.176C180.668 243.344 179.388 244.192 177.724 244.192C175.388 244.192 173.724 242.496 173.724 240C173.724 237.52 175.308 235.792 177.596 235.792C180.012 235.792 181.58 237.68 181.388 240.272H174.972ZM175.02 239.344H180.204C180.012 237.712 179.036 236.752 177.628 236.752C176.14 236.752 175.212 237.792 175.02 239.344ZM183.642 244V236H184.73V238.24C185.002 236.88 185.786 235.808 187.818 235.808V236.976C187.674 236.944 187.498 236.928 187.29 236.928C185.354 236.928 184.842 239.008 184.842 240.096V244H183.642ZM191.624 244.192C190.344 244.192 189.224 243.472 189.224 242.032C189.224 240.672 190.2 239.856 191.848 239.52L193.752 239.152C194.28 239.04 194.52 238.96 194.52 238.384C194.52 237.28 193.72 236.72 192.648 236.72C191.576 236.72 190.872 237.28 190.6 238.368L189.368 238.208C189.704 236.64 190.968 235.792 192.664 235.792C194.232 235.792 195.768 236.544 195.736 238.752L195.72 242.608C195.72 243.008 195.88 243.168 196.232 243.168C196.36 243.168 196.488 243.136 196.616 243.104V244.064C196.392 244.144 196.12 244.192 195.864 244.192C195.08 244.192 194.536 243.824 194.536 243.104V242.352C193.944 243.488 192.904 244.192 191.624 244.192ZM190.472 241.888C190.472 242.784 191.16 243.296 192.024 243.296C193.432 243.296 194.52 241.968 194.52 240.368V239.808L192.04 240.32C191.16 240.512 190.472 240.992 190.472 241.888ZM198.595 247.04V236H199.683V237.808C200.211 236.56 201.251 235.808 202.675 235.808C204.787 235.808 206.275 237.488 206.275 239.984C206.275 242.496 204.787 244.192 202.675 244.192C201.347 244.192 200.355 243.536 199.795 242.416V247.04H198.595ZM199.795 239.984C199.795 241.856 200.755 243.264 202.403 243.264C204.051 243.264 205.027 241.872 205.027 239.984C205.027 238.112 204.051 236.736 202.403 236.736C200.755 236.736 199.795 238.128 199.795 239.984ZM208.841 247.232C208.569 247.232 208.313 247.2 208.025 247.12V246.16C208.265 246.224 208.441 246.24 208.617 246.24C209.721 246.24 210.217 244.88 210.217 244.08C210.217 243.808 210.153 243.392 209.929 242.784L207.433 236H208.697L211.001 242.624H211.033L213.337 236H214.601L211.401 244.8C210.841 246.304 210.297 247.232 208.841 247.232ZM220.689 247.04V236H221.777V237.808C222.305 236.56 223.345 235.808 224.769 235.808C226.881 235.808 228.369 237.488 228.369 239.984C228.369 242.496 226.881 244.192 224.769 244.192C223.441 244.192 222.449 243.536 221.889 242.416V247.04H220.689ZM221.889 239.984C221.889 241.856 222.849 243.264 224.497 243.264C226.145 243.264 227.121 241.872 227.121 239.984C227.121 238.112 226.145 236.736 224.497 236.736C222.849 236.736 221.889 238.128 221.889 239.984ZM230.626 244V236H231.714V238.24C231.986 236.88 232.77 235.808 234.802 235.808V236.976C234.658 236.944 234.482 236.928 234.274 236.928C232.338 236.928 231.826 239.008 231.826 240.096V244H230.626ZM238.608 244.192C237.328 244.192 236.208 243.472 236.208 242.032C236.208 240.672 237.184 239.856 238.832 239.52L240.736 239.152C241.264 239.04 241.504 238.96 241.504 238.384C241.504 237.28 240.704 236.72 239.632 236.72C238.56 236.72 237.856 237.28 237.584 238.368L236.352 238.208C236.688 236.64 237.952 235.792 239.648 235.792C241.216 235.792 242.752 236.544 242.72 238.752L242.704 242.608C242.704 243.008 242.864 243.168 243.216 243.168C243.344 243.168 243.472 243.136 243.6 243.104V244.064C243.376 244.144 243.104 244.192 242.848 244.192C242.064 244.192 241.52 243.824 241.52 243.104V242.352C240.928 243.488 239.888 244.192 238.608 244.192ZM237.456 241.888C237.456 242.784 238.144 243.296 239.008 243.296C240.416 243.296 241.504 241.968 241.504 240.368V239.808L239.024 240.32C238.144 240.512 237.456 240.992 237.456 241.888ZM244.927 239.984C244.927 237.488 246.495 235.808 248.831 235.808C250.639 235.808 252.015 236.784 252.479 238.4L251.391 238.688C251.055 237.488 250.143 236.752 248.879 236.752C247.183 236.752 246.175 238.08 246.175 239.984C246.175 241.888 247.183 243.216 248.879 243.216C250.143 243.216 251.055 242.48 251.391 241.28L252.479 241.568C252.015 243.184 250.639 244.16 248.831 244.16C246.495 244.16 244.927 242.48 244.927 239.984ZM257.392 244.192C256.096 244.192 255.296 243.728 255.296 242.176V236.88H253.952V236H255.296V233.424H256.496V236H258.256V236.88H256.496V241.936C256.496 242.944 257.024 243.2 257.776 243.2C257.984 243.2 258.208 243.184 258.4 243.152V244.096C258.112 244.144 257.776 244.192 257.392 244.192ZM260.673 244V236H261.873V244H260.673ZM260.593 234.016V232.64H261.969V234.016H260.593ZM264.146 239.984C264.146 237.488 265.714 235.808 268.05 235.808C269.858 235.808 271.234 236.784 271.698 238.4L270.61 238.688C270.274 237.488 269.362 236.752 268.098 236.752C266.402 236.752 265.394 238.08 265.394 239.984C265.394 241.888 266.402 243.216 268.098 243.216C269.362 243.216 270.274 242.48 270.61 241.28L271.698 241.568C271.234 243.184 269.858 244.16 268.05 244.16C265.714 244.16 264.146 242.48 264.146 239.984ZM274.737 240.272C274.833 242.064 275.889 243.232 277.521 243.232C278.625 243.232 279.489 242.656 279.873 241.808L280.945 242.176C280.433 243.344 279.153 244.192 277.489 244.192C275.153 244.192 273.489 242.496 273.489 240C273.489 237.52 275.073 235.792 277.361 235.792C279.777 235.792 281.345 237.68 281.153 240.272H274.737ZM274.785 239.344H279.969C279.777 237.712 278.801 236.752 277.393 236.752C275.905 236.752 274.977 237.792 274.785 239.344ZM286.303 244.208C284.463 244.208 283.295 243.312 282.719 242.656L283.391 241.84C284.031 242.496 284.863 243.264 286.303 243.264C287.503 243.264 288.239 242.688 288.239 241.76C288.239 240.944 287.535 240.656 286.719 240.464L285.263 240.112C284.191 239.856 283.295 239.28 283.295 238.032C283.295 236.496 284.655 235.792 286.367 235.792C287.743 235.792 288.719 236.288 289.439 236.944L288.703 237.712C288.127 237.12 287.375 236.688 286.335 236.688C285.359 236.688 284.527 237.088 284.527 237.952C284.527 238.704 285.151 238.992 285.759 239.136L287.247 239.504C288.639 239.84 289.471 240.448 289.471 241.664C289.471 243.232 288.191 244.208 286.303 244.208Z" fill="#1D1D1D"/>
<rect width="211" height="32" transform="translate(315 222)" fill="#F2F7F5"/>
<rect x="408.5" y="226" width="24" height="24" rx="12" fill="#226752"/>
<path d="M416 237.727L419.176 241L425 235" stroke="white" stroke-width="2" stroke-linecap="square"/>
<rect width="211" height="12" transform="translate(315 254)" fill="#F2F7F5"/>
<rect x="32" y="266" width="665" height="1" fill="#CBD5CA"/>
<rect width="211" height="12" transform="translate(315 267)" fill="#F2F7F5"/>
<path d="M54.576 301.192C51.296 301.192 49.152 298.728 49.152 295.32C49.152 291.912 51.296 289.448 54.576 289.448C57.856 289.448 60.016 291.912 60.016 295.32C60.016 298.728 57.856 301.192 54.576 301.192ZM50.448 295.32C50.448 298.104 52.016 300.184 54.576 300.184C57.136 300.184 58.704 298.104 58.704 295.32C58.704 292.536 57.136 290.456 54.576 290.456C52.016 290.456 50.448 292.536 50.448 295.32ZM62.5323 301V293H63.6203V294.888C64.0843 293.576 65.0123 292.808 66.4363 292.808C68.0843 292.808 69.0443 293.784 69.0443 295.576V301H67.8443V295.832C67.8443 294.568 67.3003 293.736 66.1323 293.736C64.7403 293.736 63.7323 294.888 63.7323 297V301H62.5323ZM75.111 304.232C73.255 304.232 71.895 303.448 71.431 302.104L72.551 301.768C72.935 302.696 73.767 303.304 75.111 303.304C76.791 303.304 77.751 302.392 77.751 300.52V299.224C77.207 300.36 76.199 301.032 74.855 301.032C72.727 301.032 71.255 299.368 71.255 296.904C71.255 294.456 72.727 292.808 74.855 292.808C76.295 292.808 77.351 293.576 77.863 294.84V293H78.935V300.648C78.935 303.144 77.351 304.232 75.111 304.232ZM72.487 296.904C72.487 298.744 73.463 300.12 75.111 300.12C76.775 300.12 77.735 298.744 77.735 296.904C77.735 295.08 76.775 293.72 75.111 293.72C73.463 293.72 72.487 295.08 72.487 296.904ZM85.1776 301.192C82.6976 301.192 81.1456 299.448 81.1456 296.984C81.1456 294.552 82.6976 292.808 85.1776 292.808C87.6416 292.808 89.1936 294.552 89.1936 296.984C89.1936 299.448 87.6416 301.192 85.1776 301.192ZM82.3936 296.984C82.3936 298.856 83.4016 300.232 85.1776 300.232C86.9536 300.232 87.9456 298.872 87.9456 296.984C87.9456 295.112 86.9536 293.752 85.1776 293.752C83.4016 293.752 82.3936 295.112 82.3936 296.984ZM91.4698 301V293H92.6698V301H91.4698ZM91.3898 291.016V289.64H92.7658V291.016H91.3898ZM95.4385 301V293H96.5265V294.888C96.9905 293.576 97.9185 292.808 99.3425 292.808C100.991 292.808 101.951 293.784 101.951 295.576V301H100.751V295.832C100.751 294.568 100.207 293.736 99.0385 293.736C97.6465 293.736 96.6385 294.888 96.6385 297V301H95.4385ZM108.017 304.232C106.161 304.232 104.801 303.448 104.337 302.104L105.457 301.768C105.841 302.696 106.673 303.304 108.017 303.304C109.697 303.304 110.657 302.392 110.657 300.52V299.224C110.113 300.36 109.105 301.032 107.761 301.032C105.633 301.032 104.161 299.368 104.161 296.904C104.161 294.456 105.633 292.808 107.761 292.808C109.201 292.808 110.257 293.576 110.769 294.84V293H111.841V300.648C111.841 303.144 110.257 304.232 108.017 304.232ZM105.393 296.904C105.393 298.744 106.369 300.12 108.017 300.12C109.681 300.12 110.641 298.744 110.641 296.904C110.641 295.08 109.681 293.72 108.017 293.72C106.369 293.72 105.393 295.08 105.393 296.904ZM118.798 301V289.64H119.998V294.568C120.558 293.464 121.55 292.808 122.878 292.808C124.99 292.808 126.478 294.488 126.478 296.984C126.478 299.496 124.99 301.192 122.878 301.192C121.454 301.192 120.414 300.44 119.886 299.176V301H118.798ZM119.998 296.984C119.998 298.856 120.958 300.264 122.606 300.264C124.254 300.264 125.23 298.872 125.23 296.984C125.23 295.112 124.254 293.736 122.606 293.736C120.958 293.736 119.998 295.128 119.998 296.984ZM132.318 301.192C129.838 301.192 128.286 299.448 128.286 296.984C128.286 294.552 129.838 292.808 132.318 292.808C134.782 292.808 136.334 294.552 136.334 296.984C136.334 299.448 134.782 301.192 132.318 301.192ZM129.534 296.984C129.534 298.856 130.542 300.232 132.318 300.232C134.094 300.232 135.086 298.872 135.086 296.984C135.086 295.112 134.094 293.752 132.318 293.752C130.542 293.752 129.534 295.112 129.534 296.984ZM142.193 301.192C139.713 301.192 138.161 299.448 138.161 296.984C138.161 294.552 139.713 292.808 142.193 292.808C144.657 292.808 146.209 294.552 146.209 296.984C146.209 299.448 144.657 301.192 142.193 301.192ZM139.409 296.984C139.409 298.856 140.417 300.232 142.193 300.232C143.969 300.232 144.961 298.872 144.961 296.984C144.961 295.112 143.969 293.752 142.193 293.752C140.417 293.752 139.409 295.112 139.409 296.984ZM149.685 298.712V301H148.485V289.64H149.685V297.176L153.269 293H154.709L151.957 296.136L155.397 301H153.973L151.173 297.016L149.685 298.712ZM158.342 298.712V301H157.142V289.64H158.342V297.176L161.926 293H163.366L160.614 296.136L164.054 301H162.63L159.83 297.016L158.342 298.712ZM166.316 297.272C166.412 299.064 167.468 300.232 169.1 300.232C170.204 300.232 171.068 299.656 171.452 298.808L172.524 299.176C172.012 300.344 170.732 301.192 169.068 301.192C166.732 301.192 165.068 299.496 165.068 297C165.068 294.52 166.652 292.792 168.94 292.792C171.356 292.792 172.924 294.68 172.732 297.272H166.316ZM166.364 296.344H171.548C171.356 294.712 170.38 293.752 168.972 293.752C167.484 293.752 166.556 294.792 166.364 296.344ZM175.784 297.272C175.88 299.064 176.936 300.232 178.568 300.232C179.672 300.232 180.536 299.656 180.92 298.808L181.992 299.176C181.48 300.344 180.2 301.192 178.536 301.192C176.2 301.192 174.536 299.496 174.536 297C174.536 294.52 176.12 292.792 178.408 292.792C180.824 292.792 182.392 294.68 182.2 297.272H175.784ZM175.832 296.344H181.016C180.824 294.712 179.848 293.752 178.44 293.752C176.952 293.752 176.024 294.792 175.832 296.344ZM184.454 304.04V293H185.542V294.808C186.07 293.56 187.11 292.808 188.534 292.808C190.646 292.808 192.134 294.488 192.134 296.984C192.134 299.496 190.646 301.192 188.534 301.192C187.206 301.192 186.214 300.536 185.654 299.416V304.04H184.454ZM185.654 296.984C185.654 298.856 186.614 300.264 188.262 300.264C189.91 300.264 190.886 298.872 190.886 296.984C190.886 295.112 189.91 293.736 188.262 293.736C186.614 293.736 185.654 295.128 185.654 296.984ZM194.392 301V293H195.592V301H194.392ZM194.312 291.016V289.64H195.688V291.016H194.312ZM198.36 301V293H199.448V294.888C199.912 293.576 200.84 292.808 202.264 292.808C203.912 292.808 204.872 293.784 204.872 295.576V301H203.672V295.832C203.672 294.568 203.128 293.736 201.96 293.736C200.568 293.736 199.56 294.888 199.56 297V301H198.36ZM210.939 304.232C209.083 304.232 207.723 303.448 207.259 302.104L208.379 301.768C208.763 302.696 209.595 303.304 210.939 303.304C212.619 303.304 213.579 302.392 213.579 300.52V299.224C213.035 300.36 212.027 301.032 210.683 301.032C208.555 301.032 207.083 299.368 207.083 296.904C207.083 294.456 208.555 292.808 210.683 292.808C212.123 292.808 213.179 293.576 213.691 294.84V293H214.763V300.648C214.763 303.144 213.179 304.232 210.939 304.232ZM208.315 296.904C208.315 298.744 209.291 300.12 210.939 300.12C212.603 300.12 213.563 298.744 213.563 296.904C213.563 295.08 212.603 293.72 210.939 293.72C209.291 293.72 208.315 295.08 208.315 296.904ZM224.616 301.208C222.776 301.208 221.608 300.312 221.032 299.656L221.704 298.84C222.344 299.496 223.176 300.264 224.616 300.264C225.816 300.264 226.552 299.688 226.552 298.76C226.552 297.944 225.848 297.656 225.032 297.464L223.576 297.112C222.504 296.856 221.608 296.28 221.608 295.032C221.608 293.496 222.968 292.792 224.68 292.792C226.056 292.792 227.032 293.288 227.752 293.944L227.016 294.712C226.44 294.12 225.688 293.688 224.648 293.688C223.672 293.688 222.84 294.088 222.84 294.952C222.84 295.704 223.464 295.992 224.072 296.136L225.56 296.504C226.952 296.84 227.784 297.448 227.784 298.664C227.784 300.232 226.504 301.208 224.616 301.208ZM230.878 297.272C230.974 299.064 232.03 300.232 233.662 300.232C234.766 300.232 235.63 299.656 236.014 298.808L237.086 299.176C236.574 300.344 235.294 301.192 233.63 301.192C231.294 301.192 229.63 299.496 229.63 297C229.63 294.52 231.214 292.792 233.502 292.792C235.918 292.792 237.486 294.68 237.294 297.272H230.878ZM230.926 296.344H236.11C235.918 294.712 234.942 293.752 233.534 293.752C232.046 293.752 231.118 294.792 230.926 296.344ZM239.548 301V293H240.636V295.24C240.908 293.88 241.692 292.808 243.724 292.808V293.976C243.58 293.944 243.404 293.928 243.196 293.928C241.26 293.928 240.748 296.008 240.748 297.096V301H239.548ZM247.783 301L244.855 293H246.103L248.423 299.672H248.455L250.775 293H252.023L249.095 301H247.783ZM253.86 301V293H255.06V301H253.86ZM253.78 291.016V289.64H255.156V291.016H253.78ZM257.333 296.984C257.333 294.488 258.901 292.808 261.237 292.808C263.045 292.808 264.421 293.784 264.885 295.4L263.797 295.688C263.461 294.488 262.549 293.752 261.285 293.752C259.589 293.752 258.581 295.08 258.581 296.984C258.581 298.888 259.589 300.216 261.285 300.216C262.549 300.216 263.461 299.48 263.797 298.28L264.885 298.568C264.421 300.184 263.045 301.16 261.237 301.16C258.901 301.16 257.333 299.48 257.333 296.984ZM267.925 297.272C268.021 299.064 269.077 300.232 270.709 300.232C271.813 300.232 272.677 299.656 273.061 298.808L274.133 299.176C273.621 300.344 272.341 301.192 270.677 301.192C268.341 301.192 266.677 299.496 266.677 297C266.677 294.52 268.261 292.792 270.549 292.792C272.965 292.792 274.533 294.68 274.341 297.272H267.925ZM267.973 296.344H273.157C272.965 294.712 271.989 293.752 270.581 293.752C269.093 293.752 268.165 294.792 267.973 296.344ZM279.491 301.208C277.651 301.208 276.483 300.312 275.907 299.656L276.579 298.84C277.219 299.496 278.051 300.264 279.491 300.264C280.691 300.264 281.427 299.688 281.427 298.76C281.427 297.944 280.723 297.656 279.907 297.464L278.451 297.112C277.379 296.856 276.483 296.28 276.483 295.032C276.483 293.496 277.843 292.792 279.555 292.792C280.931 292.792 281.907 293.288 282.627 293.944L281.891 294.712C281.315 294.12 280.563 293.688 279.523 293.688C278.547 293.688 277.715 294.088 277.715 294.952C277.715 295.704 278.339 295.992 278.947 296.136L280.435 296.504C281.827 296.84 282.659 297.448 282.659 298.664C282.659 300.232 281.379 301.208 279.491 301.208Z" fill="#1D1D1D"/>
<rect width="211" height="32" transform="translate(315 279)" fill="#F2F7F5"/>
<rect x="408.5" y="283" width="24" height="24" rx="12" fill="#226752"/>
<path d="M416 294.727L419.176 298L425 292" stroke="white" stroke-width="2" stroke-linecap="square"/>
<rect width="211" height="12" transform="translate(315 311)" fill="#F2F7F5"/>
<rect x="32" y="323" width="665" height="1" fill="#CBD5CA"/>
<rect width="211" height="12" transform="translate(315 324)" fill="#F2F7F5"/>
<path d="M54.576 358.192C51.296 358.192 49.152 355.728 49.152 352.32C49.152 348.912 51.296 346.448 54.576 346.448C57.856 346.448 60.016 348.912 60.016 352.32C60.016 355.728 57.856 358.192 54.576 358.192ZM50.448 352.32C50.448 355.104 52.016 357.184 54.576 357.184C57.136 357.184 58.704 355.104 58.704 352.32C58.704 349.536 57.136 347.456 54.576 347.456C52.016 347.456 50.448 349.536 50.448 352.32ZM62.5323 358V350H63.6203V351.888C64.0843 350.576 65.0123 349.808 66.4363 349.808C68.0843 349.808 69.0443 350.784 69.0443 352.576V358H67.8443V352.832C67.8443 351.568 67.3003 350.736 66.1323 350.736C64.7403 350.736 63.7323 351.888 63.7323 354V358H62.5323ZM71.751 353.664V352.736H76.679V353.664H71.751ZM82.1105 358.192C80.8145 358.192 80.0145 357.728 80.0145 356.176V350.88H78.6705V350H80.0145V347.424H81.2145V350H82.9745V350.88H81.2145V355.936C81.2145 356.944 81.7425 357.2 82.4945 357.2C82.7025 357.2 82.9265 357.184 83.1185 357.152V358.096C82.8305 358.144 82.4945 358.192 82.1105 358.192ZM85.3916 358V350H86.5916V358H85.3916ZM85.3116 348.016V346.64H86.6876V348.016H85.3116ZM89.3604 358V350H90.4484V351.888C90.9124 350.576 91.8404 349.808 93.2644 349.808C94.6404 349.808 95.5524 350.496 95.7924 351.776C96.2724 350.544 97.2004 349.808 98.5764 349.808C100.224 349.808 101.184 350.784 101.184 352.576V358H99.9844V352.832C99.9844 351.568 99.4404 350.736 98.2724 350.736C96.8804 350.736 95.8724 351.888 95.8724 354V358H94.6724V352.832C94.6724 351.568 94.1284 350.736 92.9604 350.736C91.5684 350.736 90.5604 351.888 90.5604 354V358H89.3604ZM104.644 354.272C104.74 356.064 105.796 357.232 107.428 357.232C108.532 357.232 109.396 356.656 109.78 355.808L110.852 356.176C110.34 357.344 109.06 358.192 107.396 358.192C105.06 358.192 103.396 356.496 103.396 354C103.396 351.52 104.98 349.792 107.268 349.792C109.684 349.792 111.252 351.68 111.06 354.272H104.644ZM104.692 353.344H109.876C109.684 351.712 108.708 350.752 107.3 350.752C105.812 350.752 104.884 351.792 104.692 353.344ZM120.236 358.192C118.94 358.192 118.14 357.728 118.14 356.176V350.88H116.796V350H118.14V347.424H119.34V350H121.1V350.88H119.34V355.936C119.34 356.944 119.868 357.2 120.62 357.2C120.828 357.2 121.052 357.184 121.244 357.152V358.096C120.956 358.144 120.62 358.192 120.236 358.192ZM125.421 358.192C124.141 358.192 123.021 357.472 123.021 356.032C123.021 354.672 123.997 353.856 125.645 353.52L127.549 353.152C128.077 353.04 128.317 352.96 128.317 352.384C128.317 351.28 127.517 350.72 126.445 350.72C125.373 350.72 124.669 351.28 124.397 352.368L123.165 352.208C123.501 350.64 124.765 349.792 126.461 349.792C128.029 349.792 129.565 350.544 129.533 352.752L129.517 356.608C129.517 357.008 129.677 357.168 130.029 357.168C130.157 357.168 130.285 357.136 130.413 357.104V358.064C130.189 358.144 129.917 358.192 129.661 358.192C128.877 358.192 128.333 357.824 128.333 357.104V356.352C127.741 357.488 126.701 358.192 125.421 358.192ZM124.269 355.888C124.269 356.784 124.957 357.296 125.821 357.296C127.229 357.296 128.317 355.968 128.317 354.368V353.808L125.837 354.32C124.957 354.512 124.269 354.992 124.269 355.888ZM137.4 358L135.064 354.816L132.808 358H131.464L134.44 353.952L131.544 350H132.888L135.24 353.216L137.464 350H138.792L135.864 354.08L138.744 358H137.4ZM146.652 350.88V358H145.452V350.88H144.108V350H145.452V348.672C145.452 347.12 146.284 346.448 147.644 346.448C147.98 346.448 148.268 346.496 148.556 346.544V347.488C148.364 347.456 148.14 347.44 147.964 347.44C147.18 347.44 146.652 347.792 146.652 348.816V350H151.308V358H150.108V350.88H146.652ZM150.028 348.016V346.64H151.404V348.016H150.028ZM154.064 358V346.64H155.264V358H154.064ZM158.235 358V350H159.435V358H158.235ZM158.155 348.016V346.64H159.531V348.016H158.155ZM162.204 358V350H163.292V351.888C163.756 350.576 164.684 349.808 166.108 349.808C167.756 349.808 168.716 350.784 168.716 352.576V358H167.516V352.832C167.516 351.568 166.972 350.736 165.804 350.736C164.412 350.736 163.404 351.888 163.404 354V358H162.204ZM174.783 361.232C172.927 361.232 171.567 360.448 171.103 359.104L172.223 358.768C172.607 359.696 173.439 360.304 174.783 360.304C176.463 360.304 177.423 359.392 177.423 357.52V356.224C176.879 357.36 175.871 358.032 174.527 358.032C172.399 358.032 170.927 356.368 170.927 353.904C170.927 351.456 172.399 349.808 174.527 349.808C175.967 349.808 177.023 350.576 177.535 351.84V350H178.607V357.648C178.607 360.144 177.023 361.232 174.783 361.232ZM172.159 353.904C172.159 355.744 173.135 357.12 174.783 357.12C176.447 357.12 177.407 355.744 177.407 353.904C177.407 352.08 176.447 350.72 174.783 350.72C173.135 350.72 172.159 352.08 172.159 353.904Z" fill="#1D1D1D"/>
<rect width="211" height="32" transform="translate(315 336)" fill="#F2F7F5"/>
<rect x="408.5" y="340" width="24" height="24" rx="12" fill="#226752"/>
<path d="M416 351.727L419.176 355L425 349" stroke="white" stroke-width="2" stroke-linecap="square"/>
<path d="M315 368H526V372C526 376.418 522.418 380 518 380H323C318.582 380 315 376.418 315 372V368Z" fill="#F2F7F5"/>
<rect x="32" y="380" width="665" height="1" fill="#CBD5CA"/>
</svg>
