<svg width="70" height="67" viewBox="0 0 70 67" fill="none" xmlns="http://www.w3.org/2000/svg">
<g style="mix-blend-mode:multiply">
<path d="M59.5255 61.4686C59.5255 63.8624 46.676 65.7974 30.8258 65.7974C14.9756 65.7974 0.654297 63.8624 0.654297 61.4686C0.654297 59.0748 14.9756 57.1398 30.8258 57.1398C46.676 57.1398 59.5255 59.0791 59.5255 61.4686Z" fill="#7A9FA0" fill-opacity="0.5"/>
</g>
<path d="M59.6611 0.646659L63.0487 21.9929C63.1209 22.4483 62.769 22.8605 62.3079 22.8605H56.0853C55.6242 22.8605 55.2723 22.4483 55.3445 21.9929L58.7321 0.646658C58.7684 0.418228 58.9653 0.250061 59.1966 0.250061C59.4279 0.250061 59.6249 0.418229 59.6611 0.646659Z" fill="#A4C4FF" stroke="#1D1D1D" stroke-width="0.5"/>
<rect x="55.832" y="8.42474" width="6.58566" height="19.6669" rx="0.75" fill="#E1ECFF" stroke="#1D1D1D" stroke-width="0.5"/>
<rect x="53.6484" y="13.3301" width="10.9461" height="17.4867" rx="0.75" fill="#A4C4FF" stroke="#1D1D1D" stroke-width="0.5"/>
<rect x="50.9237" y="16.0569" width="15.8515" height="22.3921" rx="0.75" fill="#E1ECFF" stroke="#1D1D1D" stroke-width="0.5"/>
<path d="M49.2227 36.3637L49.2227 65.9754L16.494 65.7156L12.338 58.7024L12.338 34.8052L49.2227 36.3637Z" fill="#A4C4FF" stroke="#1D1D1D" stroke-width="0.5"/>
<rect x="49.1855" y="36.2756" width="29.5136" height="32.6284" transform="rotate(90 49.1855 36.2756)" fill="#A4C4FF" stroke="#1D1D1D" stroke-width="0.5"/>
<rect x="46.3848" y="40.1592" width="3.05313" height="5.6745" rx="1" transform="rotate(90 46.3848 40.1592)" fill="white" stroke="#1D1D1D" stroke-width="0.5"/>
<rect x="39.2266" y="40.1592" width="3.05313" height="5.6745" rx="1" transform="rotate(90 39.2266 40.1592)" fill="white" stroke="#1D1D1D" stroke-width="0.5"/>
<rect x="32.0645" y="40.1592" width="3.05313" height="5.6745" rx="1" transform="rotate(90 32.0645 40.1592)" fill="white" stroke="#1D1D1D" stroke-width="0.5"/>
<rect x="24.9023" y="40.1592" width="3.05313" height="5.6745" rx="1" transform="rotate(90 24.9023 40.1592)" fill="white" stroke="#1D1D1D" stroke-width="0.5"/>
<rect x="46.3848" y="46.2173" width="3.05313" height="5.6745" rx="1" transform="rotate(90 46.3848 46.2173)" fill="white" stroke="#1D1D1D" stroke-width="0.5"/>
<rect x="39.2266" y="46.2173" width="3.05313" height="5.6745" rx="1" transform="rotate(90 39.2266 46.2173)" fill="white" stroke="#1D1D1D" stroke-width="0.5"/>
<rect x="32.0645" y="46.2173" width="3.05313" height="5.6745" rx="1" transform="rotate(90 32.0645 46.2173)" fill="white" stroke="#1D1D1D" stroke-width="0.5"/>
<rect x="24.9023" y="46.2173" width="3.05313" height="5.6745" rx="1" transform="rotate(90 24.9023 46.2173)" fill="white" stroke="#1D1D1D" stroke-width="0.5"/>
<rect x="46.3848" y="52.2803" width="3.05313" height="5.6745" rx="1" transform="rotate(90 46.3848 52.2803)" fill="white" stroke="#1D1D1D" stroke-width="0.5"/>
<rect x="46.1094" y="57.6661" width="5.19503" height="5.19503" rx="1" transform="rotate(90 46.1094 57.6661)" fill="white" stroke="#1D1D1D" stroke-width="0.5"/>
<rect x="39.2266" y="52.2803" width="3.05313" height="5.6745" rx="1" transform="rotate(90 39.2266 52.2803)" fill="white" stroke="#1D1D1D" stroke-width="0.5"/>
<rect x="32.0645" y="52.2803" width="3.05313" height="5.6745" rx="1" transform="rotate(90 32.0645 52.2803)" fill="white" stroke="#1D1D1D" stroke-width="0.5"/>
<rect x="24.9023" y="52.2803" width="3.05313" height="5.6745" rx="1" transform="rotate(90 24.9023 52.2803)" fill="white" stroke="#1D1D1D" stroke-width="0.5"/>
<rect x="24.8105" y="57.6661" width="5.19503" height="5.19503" rx="1" transform="rotate(90 24.8105 57.6661)" fill="white" stroke="#1D1D1D" stroke-width="0.5"/>
<path d="M15.5282 30.899H50.0834C50.3558 30.899 50.6069 31.0467 50.7391 31.2849L53.3782 36.0385C53.6557 36.5384 53.2942 37.1525 52.7225 37.1525H16.66C16.5794 37.1525 16.4993 37.1395 16.4229 37.114L12.4935 35.8042C11.9962 35.6385 11.818 35.0267 12.1485 34.6198L14.9461 31.1761C15.0885 31.0008 15.3023 30.899 15.5282 30.899Z" fill="#E1ECFF" stroke="#1D1D1D" stroke-width="0.5"/>
<path d="M19.4622 30.899H50.4146C50.6983 30.899 50.9577 31.0591 51.0849 31.3127L53.4696 36.0662C53.7198 36.5649 53.3572 37.1525 52.7993 37.1525H17.0775C16.5195 37.1525 16.1569 36.5649 16.4071 36.0662L18.7918 31.3127C18.9191 31.0591 19.1785 30.899 19.4622 30.899Z" fill="#E1ECFF" stroke="#1D1D1D" stroke-width="0.5"/>
<rect x="28.6935" y="58.9515" width="4.69503" height="6.77304" fill="white" stroke="#1D1D1D" stroke-width="0.5"/>
<rect x="33.3672" y="58.9532" width="4.17552" height="6.77304" fill="white" stroke="#1D1D1D" stroke-width="0.5"/>
<path d="M27.8032 57.6126C27.8806 57.4257 28.0629 57.3039 28.2651 57.3039H37.8148C38.017 57.3039 38.1993 57.4257 38.2767 57.6126L38.9381 59.2097C39.0745 59.5389 38.8325 59.901 38.4762 59.901H27.6037C27.2474 59.901 27.0054 59.5389 27.1418 59.2097L27.8032 57.6126Z" fill="#1D1D1D"/>
<path d="M48.6367 26.8599C48.6367 25.7554 49.5321 24.8599 50.6367 24.8599H67.2068C68.3114 24.8599 69.2068 25.7554 69.2068 26.8599V66.0001H48.6367V26.8599Z" fill="#A4C4FF" stroke="#1D1D1D" stroke-width="0.5"/>
<path fill-rule="evenodd" clip-rule="evenodd" d="M50.6367 24.8598C49.5321 24.8598 48.6367 25.7552 48.6367 26.8598V32.6622H59.2754V37.0445C59.2754 38.1491 60.1708 39.0445 61.2754 39.0445H69.2058V32.6622H69.2068V26.8598C69.2068 25.7552 68.3114 24.8598 67.2068 24.8598H50.6367Z" fill="#A4C4FF"/>
<rect x="51.2208" y="58.4216" width="3.81536" height="4.90546" rx="1" fill="white" stroke="#1D1D1D" stroke-width="0.5"/>
<path d="M51.303 33.9236C51.303 33.6367 51.5356 33.4041 51.8225 33.4041H57.8691C58.1561 33.4041 58.3886 33.6367 58.3886 33.9236V36.1549C58.3886 36.4418 58.1561 36.6744 57.8691 36.6744H51.8225C51.5356 36.6744 51.303 36.4418 51.303 36.1549V33.9236Z" fill="white"/>
<path d="M59.9471 33.9236C59.9471 33.6367 60.1797 33.4041 60.4667 33.4041H66.5133C66.8002 33.4041 67.0328 33.6367 67.0328 33.9236V36.1549C67.0328 36.4418 66.8002 36.6744 66.5133 36.6744H60.4667C60.1797 36.6744 59.9471 36.4418 59.9471 36.1549V33.9236Z" fill="white"/>
<path d="M51.303 27.796C51.303 27.5091 51.5356 27.2765 51.8225 27.2765H57.8691C58.1561 27.2765 58.3886 27.5091 58.3886 27.796V30.0273C58.3886 30.3142 58.1561 30.5468 57.8691 30.5468H51.8225C51.5356 30.5468 51.303 30.3142 51.303 30.0273V27.796Z" fill="white"/>
<path d="M59.9471 27.796C59.9471 27.5091 60.1797 27.2765 60.4667 27.2765H66.5133C66.8002 27.2765 67.0328 27.5091 67.0328 27.796V30.0273C67.0328 30.3142 66.8002 30.5468 66.5133 30.5468H60.4667C60.1797 30.5468 59.9471 30.3142 59.9471 30.0273V27.796Z" fill="white"/>
<path d="M51.303 40.0512C51.303 39.7643 51.5356 39.5317 51.8225 39.5317H57.8691C58.1561 39.5317 58.3886 39.7643 58.3886 40.0512V42.2825C58.3886 42.5694 58.1561 42.802 57.8691 42.802H51.8225C51.5356 42.802 51.303 42.5694 51.303 42.2825V40.0512Z" fill="white"/>
<path d="M59.9471 40.0512C59.9471 39.7643 60.1797 39.5317 60.4667 39.5317H66.5133C66.8002 39.5317 67.0328 39.7643 67.0328 40.0512V42.2825C67.0328 42.5694 66.8002 42.802 66.5133 42.802H60.4667C60.1797 42.802 59.9471 42.5694 59.9471 42.2825V40.0512Z" fill="white"/>
<path d="M51.303 46.1788C51.303 45.8919 51.5356 45.6593 51.8225 45.6593H57.8691C58.1561 45.6593 58.3886 45.8919 58.3886 46.1788V48.4101C58.3886 48.6971 58.1561 48.9296 57.8691 48.9296H51.8225C51.5356 48.9296 51.303 48.6971 51.303 48.4101V46.1788Z" fill="white"/>
<path d="M59.9471 46.1788C59.9471 45.8919 60.1797 45.6593 60.4667 45.6593H66.5133C66.8002 45.6593 67.0328 45.8919 67.0328 46.1788V48.4101C67.0328 48.6971 66.8002 48.9296 66.5133 48.9296H60.4667C60.1797 48.9296 59.9471 48.6971 59.9471 48.4101V46.1788Z" fill="white"/>
<path d="M51.303 52.3065C51.303 52.0195 51.5356 51.787 51.8225 51.787H57.8691C58.1561 51.787 58.3886 52.0195 58.3886 52.3065V54.5378C58.3886 54.8247 58.1561 55.0573 57.8691 55.0573H51.8225C51.5356 55.0573 51.303 54.8247 51.303 54.5378V52.3065Z" fill="white"/>
<path d="M59.9471 52.3065C59.9471 52.0195 60.1797 51.787 60.4667 51.787H66.5133C66.8002 51.787 67.0328 52.0195 67.0328 52.3065V54.5378C67.0328 54.8247 66.8002 55.0573 66.5133 55.0573H60.4667C60.1797 55.0573 59.9471 54.8247 59.9471 54.5378V52.3065Z" fill="white"/>
<path d="M51.303 33.9236C51.303 33.6367 51.5356 33.4041 51.8225 33.4041H57.8691C58.1561 33.4041 58.3886 33.6367 58.3886 33.9236V36.1549C58.3886 36.4418 58.1561 36.6744 57.8691 36.6744H51.8225C51.5356 36.6744 51.303 36.4418 51.303 36.1549V33.9236Z" stroke="#1D1D1D" stroke-width="0.5"/>
<path d="M59.9471 33.9236C59.9471 33.6367 60.1797 33.4041 60.4667 33.4041H66.5133C66.8002 33.4041 67.0328 33.6367 67.0328 33.9236V36.1549C67.0328 36.4418 66.8002 36.6744 66.5133 36.6744H60.4667C60.1797 36.6744 59.9471 36.4418 59.9471 36.1549V33.9236Z" stroke="#1D1D1D" stroke-width="0.5"/>
<path d="M51.303 27.796C51.303 27.5091 51.5356 27.2765 51.8225 27.2765H57.8691C58.1561 27.2765 58.3886 27.5091 58.3886 27.796V30.0273C58.3886 30.3142 58.1561 30.5468 57.8691 30.5468H51.8225C51.5356 30.5468 51.303 30.3142 51.303 30.0273V27.796Z" stroke="#1D1D1D" stroke-width="0.5"/>
<path d="M59.9471 27.796C59.9471 27.5091 60.1797 27.2765 60.4667 27.2765H66.5133C66.8002 27.2765 67.0328 27.5091 67.0328 27.796V30.0273C67.0328 30.3142 66.8002 30.5468 66.5133 30.5468H60.4667C60.1797 30.5468 59.9471 30.3142 59.9471 30.0273V27.796Z" stroke="#1D1D1D" stroke-width="0.5"/>
<path d="M51.303 40.0512C51.303 39.7643 51.5356 39.5317 51.8225 39.5317H57.8691C58.1561 39.5317 58.3886 39.7643 58.3886 40.0512V42.2825C58.3886 42.5694 58.1561 42.802 57.8691 42.802H51.8225C51.5356 42.802 51.303 42.5694 51.303 42.2825V40.0512Z" stroke="#1D1D1D" stroke-width="0.5"/>
<path d="M59.9471 40.0512C59.9471 39.7643 60.1797 39.5317 60.4667 39.5317H66.5133C66.8002 39.5317 67.0328 39.7643 67.0328 40.0512V42.2825C67.0328 42.5694 66.8002 42.802 66.5133 42.802H60.4667C60.1797 42.802 59.9471 42.5694 59.9471 42.2825V40.0512Z" stroke="#1D1D1D" stroke-width="0.5"/>
<path d="M51.303 46.1788C51.303 45.8919 51.5356 45.6593 51.8225 45.6593H57.8691C58.1561 45.6593 58.3886 45.8919 58.3886 46.1788V48.4101C58.3886 48.6971 58.1561 48.9296 57.8691 48.9296H51.8225C51.5356 48.9296 51.303 48.6971 51.303 48.4101V46.1788Z" stroke="#1D1D1D" stroke-width="0.5"/>
<path d="M59.9471 46.1788C59.9471 45.8919 60.1797 45.6593 60.4667 45.6593H66.5133C66.8002 45.6593 67.0328 45.8919 67.0328 46.1788V48.4101C67.0328 48.6971 66.8002 48.9296 66.5133 48.9296H60.4667C60.1797 48.9296 59.9471 48.6971 59.9471 48.4101V46.1788Z" stroke="#1D1D1D" stroke-width="0.5"/>
<path d="M51.303 52.3065C51.303 52.0195 51.5356 51.787 51.8225 51.787H57.8691C58.1561 51.787 58.3886 52.0195 58.3886 52.3065V54.5378C58.3886 54.8247 58.1561 55.0573 57.8691 55.0573H51.8225C51.5356 55.0573 51.303 54.8247 51.303 54.5378V52.3065Z" stroke="#1D1D1D" stroke-width="0.5"/>
<path d="M59.9471 52.3065C59.9471 52.0195 60.1797 51.787 60.4667 51.787H66.5133C66.8002 51.787 67.0328 52.0195 67.0328 52.3065V54.5378C67.0328 54.8247 66.8002 55.0573 66.5133 55.0573H60.4667C60.1797 55.0573 59.9471 54.8247 59.9471 54.5378V52.3065Z" stroke="#1D1D1D" stroke-width="0.5"/>
<rect x="57.215" y="58.4216" width="3.81536" height="4.90546" rx="1" fill="white" stroke="#1D1D1D" stroke-width="0.5"/>
<rect x="63.2109" y="58.4216" width="3.81536" height="4.90546" rx="1" fill="white" stroke="#1D1D1D" stroke-width="0.5"/>
<path d="M48.6367 26.8599C48.6367 25.7554 49.5321 24.8599 50.6367 24.8599H67.2068C68.3114 24.8599 69.2068 25.7554 69.2068 26.8599V66.0001H48.6367V26.8599Z" stroke="#1D1D1D" stroke-width="0.5"/>
</svg>
