<svg width="104" height="84" viewBox="0 0 104 84" fill="none" xmlns="http://www.w3.org/2000/svg">
<path d="M94.7412 79.6235C94.7412 81.4907 74.2808 83 49.0424 83C23.8039 83 1 81.4907 1 79.6235C1 77.7564 23.8039 76.2471 49.0424 76.2471C74.2808 76.2471 94.7412 77.7597 94.7412 79.6235Z" fill="#7A9FA0" fill-opacity="0.4"/>
<path d="M24.0976 32.5178L24.1094 32.744C24.3322 37.0993 24.6061 41.7198 25.0207 46.3302C26.8808 63.881 31.3056 76.4433 39.1978 82.0353H96.5903C86.8526 75.1356 82.3936 57.6246 81.5176 33.2246C80.9556 17.5707 77.1424 9.05793 71.0868 6.17249H13.6942C19.6581 9.0142 23.4473 17.314 24.0976 32.5178Z" fill="#FCF8F2" stroke="black"/>
<path d="M26.7153 29.9316L26.7271 30.1578C26.9499 34.5131 27.2238 39.1336 27.6384 43.744C29.4985 61.2948 33.9233 73.8571 41.8155 79.4491H99.208C89.4703 72.5494 85.0112 55.0384 84.1352 30.6384C83.5733 14.9845 79.7601 6.47175 73.7044 3.5863H16.3119C22.2758 6.42802 26.065 14.7278 26.7153 29.9316Z" fill="#FCF8F2" stroke="black"/>
<path d="M73.9405 22.5811L73.0552 16.1554H66.5063L67.3916 22.5811H73.9405Z" fill="#F0E7D5" stroke="black"/>
<path d="M62.6299 19.3308H38.7578" stroke="black" stroke-linecap="round"/>
<path d="M63.6538 38.4286H39.7817" stroke="black" stroke-linecap="round"/>
<path d="M66.3818 57.861H42.5098" stroke="black" stroke-linecap="round"/>
<path d="M71.1606 18.1216L69.727 20.2117L65.1175 17.1601" stroke="#226752" stroke-linecap="round"/>
<path d="M75.3053 41.6787L74.42 35.2529H67.871L68.7563 41.6787H75.3053Z" fill="#F0E7D5" stroke="black"/>
<path d="M72.5244 37.2193L71.0907 39.3094L66.4812 36.2577" stroke="#226752" stroke-linecap="round"/>
<path d="M77.692 60.7762L76.8067 54.3505H70.2577L71.143 60.7762H77.692Z" fill="#F0E7D5" stroke="black"/>
<path d="M74.9116 56.3162L73.4779 58.4063L68.8685 55.3547" stroke="#226752" stroke-linecap="round"/>
<path d="M29.333 27.3453L29.3447 27.5715C29.5676 31.9268 29.8414 36.5473 30.2561 41.1577C32.1162 58.7085 36.541 71.2708 44.4331 76.8628H101.826C92.0879 69.9631 87.6289 52.4521 86.7529 28.0521C86.1909 12.3982 82.3778 3.88544 76.3221 1H18.9296C24.8934 3.84171 28.6827 12.1415 29.333 27.3453Z" fill="#FCF8F2" stroke="black"/>
<path d="M43.3241 51.7642L44.2094 58.1899H50.7584L49.8731 51.7642H43.3241Z" fill="#F0E7D5" stroke="black"/>
<path d="M57.2524 55.0144H81.1245" stroke="black" stroke-linecap="round"/>
<path d="M52.7388 35.9167H76.6109" stroke="black" stroke-linecap="round"/>
<path d="M50.0103 16.4843H73.8823" stroke="black" stroke-linecap="round"/>
<path d="M39.3422 32.6665L40.2275 39.0923H46.7765L45.8911 32.6665H39.3422Z" fill="#F0E7D5" stroke="black"/>
<path d="M42.0897 35.0683L43.9052 36.8451L47.8306 32.9707" stroke="#374941" stroke-width="2" stroke-linecap="round"/>
<path d="M36.955 13.569L37.8403 19.9948H44.3893L43.5039 13.569H36.955Z" fill="#F0E7D5" stroke="black"/>
<path d="M46.1024 54.2612L47.9179 56.038L51.8433 52.1635" stroke="#374941" stroke-width="2" stroke-linecap="round"/>
<path d="M39.6912 16.0705L41.5068 17.8473L45.4322 13.9729" stroke="#374941" stroke-width="2" stroke-linecap="round"/>
</svg>
