<svg width="472" height="280" viewBox="0 0 472 280" fill="none" xmlns="http://www.w3.org/2000/svg">
<g clip-path="url(#clip0_5463_6713)">
<g style="mix-blend-mode:multiply" opacity="0.9" filter="url(#filter0_f_5463_6713)">
<path d="M91.3334 229.581L43.3125 272.664H430.481L382.46 229.581H91.3334Z" fill="#1D1D1D"/>
</g>
<mask id="mask0_5463_6713" style="mask-type:alpha" maskUnits="userSpaceOnUse" x="31" y="4" width="410" height="128">
<path d="M31.5117 84.1619C31.5117 37.1144 80.3183 0.928508 121.735 5.2069C213.509 14.6871 260.296 14.3039 350.508 5.0043C391.822 0.745333 440.452 36.8992 440.452 83.8297V86.4315C440.452 111.132 422.751 131.155 400.917 131.155H71.0467C49.2121 131.155 31.5117 111.132 31.5117 86.4315V84.1619Z" fill="#A5D6BF" stroke="#1D1D1D" stroke-width="0.5"/>
</mask>
<g mask="url(#mask0_5463_6713)">
<path d="M31.5117 84.1619C31.5117 37.1144 80.3183 0.928508 121.735 5.2069C213.509 14.6871 260.296 14.3039 350.508 5.0043C391.822 0.745333 440.452 36.8992 440.452 83.8297V86.4315C440.452 111.132 422.751 131.155 400.917 131.155H71.0467C49.2121 131.155 31.5117 111.132 31.5117 86.4315V84.1619Z" fill="#A5D6BF" stroke="#1D1D1D" stroke-width="0.5"/>
<g style="mix-blend-mode:multiply" opacity="0.3">
<path fill-rule="evenodd" clip-rule="evenodd" d="M423.096 108.404C417.225 123.373 404.346 133.763 389.403 133.763H80.0018C65.264 133.763 52.5342 123.656 46.5547 109.018C49.3623 59.9795 92.6421 23.0637 129.553 27.5951C214.124 37.9775 257.239 37.5577 340.37 27.3732C377.124 22.8705 420.159 59.614 423.096 108.404Z" fill="#A5D6BF"/>
</g>
<g style="mix-blend-mode:multiply" opacity="0.3">
<path fill-rule="evenodd" clip-rule="evenodd" d="M428.096 98.2381C422.067 113.204 408.848 123.59 393.51 123.59H75.882C60.7501 123.59 47.6804 113.481 41.543 98.8399C44.4286 49.8041 88.857 12.8916 126.748 17.4228C213.567 27.8052 257.828 27.3854 343.17 17.2009C380.903 12.6979 425.085 49.445 428.096 98.2381Z" fill="#A5D6BF"/>
</g>
<g style="mix-blend-mode:multiply" opacity="0.5">
<path fill-rule="evenodd" clip-rule="evenodd" d="M59.9156 72.2792C57.5427 79.7142 56.2227 87.645 56.2227 95.911V98.1807C56.2227 122.881 71.7306 142.904 90.8605 142.904H379.87C399 142.904 414.508 122.881 414.508 98.1807V95.5789C414.508 87.3541 413.2 79.4604 410.846 72.0571C408.286 92.9825 394.22 108.985 377.253 108.985H93.4817C76.5743 108.985 62.5485 93.0957 59.9156 72.2792Z" fill="#A5D6BF"/>
</g>
<g style="mix-blend-mode:multiply" opacity="0.5">
<path fill-rule="evenodd" clip-rule="evenodd" d="M11.8722 73.6669C16.3595 64.6745 23.6782 57.7647 31.2822 51.5295L32.6309 50.4236C37.1457 46.7215 42.2561 45.0681 47.2417 45.0919C49.0035 45.1003 50.7496 45.3182 52.4484 45.729C62.4751 48.154 70.8513 57.3033 71.0401 69.8053C78.6719 67.6805 90.4424 67.2922 97.8352 76.9369C105.88 87.4318 105.003 100.199 103.151 106.946C102.756 108.385 102.08 109.703 101.279 110.941C95.753 119.483 85.3764 133.71 81.9597 137.018C80.0949 138.823 77.6826 140.59 74.8686 142.064C73.6513 142.853 72.3734 143.555 71.0434 144.161V152.023H43.8631C22.0285 152.023 4.32812 132 4.32812 107.299V105.03C4.32812 93.8263 7.09577 83.2388 11.8722 73.6669Z" fill="#A5D6BF"/>
</g>
<g style="mix-blend-mode:multiply" opacity="0.5">
<path fill-rule="evenodd" clip-rule="evenodd" d="M460.088 74.9591C455.6 65.9668 448.282 59.057 440.678 52.8218L439.329 51.7158C434.814 48.0137 429.704 46.3604 424.718 46.3842C422.956 46.3926 421.21 46.6104 419.511 47.0212C409.743 49.3837 401.541 58.1283 400.95 70.1374C393.412 67.745 380.707 66.7444 372.893 76.7951C364.848 87.1419 365.725 99.7293 367.577 106.381C367.972 107.8 368.648 109.099 369.449 110.319C374.975 118.741 385.351 132.768 388.768 136.029C390.641 137.816 393.067 139.566 395.897 141.023C397.475 142.028 399.154 142.889 400.916 143.587V153.315H428.097C449.931 153.315 467.632 133.292 467.632 108.592V106.322C467.632 95.1186 464.864 84.531 460.088 74.9591Z" fill="#A5D6BF"/>
</g>
</g>
<mask id="mask1_5463_6713" style="mask-type:alpha" maskUnits="userSpaceOnUse" x="2" y="48" width="62" height="186">
<path d="M3.09766 191.135V94.3735C3.09766 83.1046 8.0274 72.467 16.4555 65.5495L31.7337 53.0096C35.4832 49.9321 39.7275 48.5577 43.8681 48.5775C45.3312 48.5845 46.7814 48.7655 48.1922 49.1071C56.6151 51.1461 63.6356 58.9041 63.6356 69.4805V232.864H42.6326C20.7981 232.864 3.09766 214.181 3.09766 191.135Z" fill="#A5D6BF"/>
<path d="M43.8681 48.5775C39.7275 48.5577 35.4832 49.9321 31.7337 53.0096L16.4555 65.5495C8.0274 72.467 3.09766 83.1046 3.09766 94.3735V191.135C3.09766 214.181 20.7981 232.864 42.6326 232.864H63.6356V69.4805C63.6356 58.9041 56.6151 51.1461 48.1922 49.1071M43.8681 48.5775C39.3381 51.5421 30.2097 57.4342 28.4248 60.7313C25.9538 65.2955 27.807 67.9035 25.9538 71.1636C24.1006 74.4237 21.6297 80.2919 21.6297 85.5081C21.6297 89.681 24.3065 173.965 24.7183 196.351H28.4248C27.6011 173.748 24.2242 89.1594 24.7183 85.5081C25.3361 80.9439 28.0929 74.5942 29.0425 72.4677C30.4982 69.2076 29.6602 65.5495 31.7337 62.0354C32.7303 60.3463 43.1913 52.7645 48.1922 49.1071M43.8681 48.5775C45.3312 48.5845 46.7814 48.7655 48.1922 49.1071" stroke="#1D1D1D" stroke-width="0.5"/>
</mask>
<g mask="url(#mask1_5463_6713)">
<path d="M3.09766 191.135V94.3735C3.09766 83.1046 8.0274 72.467 16.4555 65.5495L31.7337 53.0096C35.4832 49.9321 39.7275 48.5577 43.8681 48.5775C45.3312 48.5845 46.7814 48.7655 48.1922 49.1071C56.6151 51.1461 63.6356 58.9041 63.6356 69.4805V232.864H42.6326C20.7981 232.864 3.09766 214.181 3.09766 191.135Z" fill="#A5D6BF"/>
<path d="M43.8681 48.5775C39.7275 48.5577 35.4832 49.9321 31.7337 53.0096L16.4555 65.5495C8.0274 72.467 3.09766 83.1046 3.09766 94.3735V191.135C3.09766 214.181 20.7981 232.864 42.6326 232.864H63.6356V69.4805C63.6356 58.9041 56.6151 51.1461 48.1922 49.1071M43.8681 48.5775C39.3381 51.5421 30.2097 57.4342 28.4248 60.7313C25.9538 65.2955 27.807 67.9035 25.9538 71.1636C24.1006 74.4237 21.6297 80.2919 21.6297 85.5081C21.6297 89.681 24.3065 173.965 24.7183 196.351H28.4248C27.6011 173.748 24.2242 89.1594 24.7183 85.5081C25.3361 80.9439 28.0929 74.5942 29.0425 72.4677C30.4982 69.2076 29.6602 65.5495 31.7337 62.0354C32.7303 60.3463 43.1913 52.7645 48.1922 49.1071M43.8681 48.5775C45.3312 48.5845 46.7814 48.7655 48.1922 49.1071" stroke="#1D1D1D" stroke-width="0.5"/>
<g style="mix-blend-mode:multiply" opacity="0.5">
<path fill-rule="evenodd" clip-rule="evenodd" d="M14.215 88.1611V184.922C14.215 207.969 31.9154 226.651 53.7499 226.651H63.6356V231.868H42.6326C20.7981 231.868 3.09766 213.185 3.09766 190.139V93.3777C3.09766 82.1087 8.0274 71.4711 16.4555 64.5536L31.7337 52.0138C34.8486 49.4571 38.305 48.0759 41.7597 47.6929L27.5728 59.337C19.1447 66.2546 14.215 76.8921 14.215 88.1611Z" fill="#A5D6BF"/>
</g>
<g style="mix-blend-mode:multiply" opacity="0.5">
<path d="M61.4791 56.1983L38.8197 78.1939C34.9396 81.9602 32.75 87.1372 32.75 92.5447V153.4C32.75 156.873 36.8718 158.696 39.4411 156.359L62.2544 135.614C63.9217 134.098 64.8722 131.949 64.8722 129.695V57.6334C64.8722 55.8659 62.7474 54.9672 61.4791 56.1983Z" fill="#A5D6BF"/>
</g>
</g>
<mask id="mask2_5463_6713" style="mask-type:alpha" maskUnits="userSpaceOnUse" x="408" y="48" width="62" height="186">
<path d="M468.866 191.135V94.3735C468.866 83.1046 463.936 72.467 455.508 65.5495L440.23 53.0096C436.48 49.9321 432.236 48.5577 428.096 48.5775C426.632 48.5845 425.182 48.7655 423.771 49.1071C415.349 51.1461 408.328 58.9041 408.328 69.4805V232.864H429.331C451.166 232.864 468.866 214.181 468.866 191.135Z" fill="#A5D6BF"/>
<path d="M428.096 48.5775C432.236 48.5577 436.48 49.9321 440.23 53.0096L455.508 65.5495C463.936 72.467 468.866 83.1046 468.866 94.3735V191.135C468.866 214.181 451.166 232.864 429.331 232.864H408.328V69.4805C408.328 58.9041 415.349 51.1461 423.771 49.1071M428.096 48.5775C432.626 51.5421 441.754 57.4342 443.539 60.7313C446.01 65.2955 444.157 67.9035 446.01 71.1636C447.863 74.4237 450.334 80.2919 450.334 85.5081C450.334 89.681 446.422 173.965 446.01 196.351H442.303C443.127 173.748 447.74 89.1594 447.245 85.5081C446.628 80.9439 443.871 74.5942 442.921 72.4677C441.466 69.2076 442.303 65.5495 440.23 62.0354C439.233 60.3463 428.772 52.7645 423.771 49.1071M428.096 48.5775C426.632 48.5845 425.182 48.7655 423.771 49.1071" stroke="#1D1D1D" stroke-width="0.5"/>
</mask>
<g mask="url(#mask2_5463_6713)">
<path d="M468.866 191.135V94.3735C468.866 83.1046 463.936 72.467 455.508 65.5495L440.23 53.0096C436.48 49.9321 432.236 48.5577 428.096 48.5775C426.632 48.5845 425.182 48.7655 423.771 49.1071C415.349 51.1461 408.328 58.9041 408.328 69.4805V232.864H429.331C451.166 232.864 468.866 214.181 468.866 191.135Z" fill="#A5D6BF"/>
<path d="M428.096 48.5775C432.236 48.5577 436.48 49.9321 440.23 53.0096L455.508 65.5495C463.936 72.467 468.866 83.1046 468.866 94.3735V191.135C468.866 214.181 451.166 232.864 429.331 232.864H408.328V69.4805C408.328 58.9041 415.349 51.1461 423.771 49.1071M428.096 48.5775C432.626 51.5421 441.754 57.4342 443.539 60.7313C446.01 65.2955 444.157 67.9035 446.01 71.1636C447.863 74.4237 450.334 80.2919 450.334 85.5081C450.334 89.681 446.422 173.965 446.01 196.351H442.303C443.127 173.748 447.74 89.1594 447.245 85.5081C446.628 80.9439 443.871 74.5942 442.921 72.4677C441.466 69.2076 442.303 65.5495 440.23 62.0354C439.233 60.3463 428.772 52.7645 423.771 49.1071M428.096 48.5775C426.632 48.5845 425.182 48.7655 423.771 49.1071" stroke="#1D1D1D" stroke-width="0.5"/>
<g style="mix-blend-mode:multiply" opacity="0.3">
<path d="M444.154 61.1462C442.369 57.8492 433.241 51.957 428.711 48.9924C427.248 48.9994 425.798 49.1805 424.387 49.522C429.388 53.1794 439.849 60.7612 440.845 62.4503C442.919 65.9644 442.081 69.6225 443.536 72.8826C444.486 75.0091 447.243 81.3589 447.861 85.923C448.355 89.5743 442.507 174.163 441.683 196.766H445.39C445.801 174.38 450.949 90.0959 450.949 85.923C450.949 80.7068 448.478 74.8387 446.625 71.5786C444.772 68.3185 446.625 65.7104 444.154 61.1462Z" fill="#A5D6BF"/>
</g>
<g style="mix-blend-mode:multiply" opacity="0.5">
<path d="M409.143 47.843L441.967 75.4365C446.488 79.2366 449.098 84.8402 449.098 90.7457V182.96C449.098 186.287 445.271 188.16 442.644 186.118L408.948 159.942C406.998 158.427 405.856 156.095 405.856 153.625V49.3739C405.856 47.6742 407.842 46.7492 409.143 47.843Z" fill="#A5D6BF"/>
</g>
</g>
<mask id="mask3_5463_6713" style="mask-type:alpha" maskUnits="userSpaceOnUse" x="23" y="117" width="426" height="85">
<path d="M66.8845 123.604C72.8582 120.002 79.6102 118.112 86.4903 118.112H385.478C392.359 118.112 399.12 120.007 405.093 123.61L440.397 144.903C445.016 147.689 447.867 152.874 447.867 158.49V193.746C447.867 198.067 444.548 201.57 440.454 201.57H31.5144C27.4204 201.57 24.1016 198.073 24.1016 193.752C24.1016 185.194 24.1016 171.02 24.1016 158.486C24.1016 152.87 26.9485 147.692 31.5678 144.906C43.7829 137.538 57.902 129.022 66.8845 123.604Z" fill="#A5D6BF" stroke="#1D1D1D" stroke-width="0.5"/>
</mask>
<g mask="url(#mask3_5463_6713)">
<path d="M66.8845 123.604C72.8582 120.002 79.6102 118.112 86.4903 118.112H385.478C392.359 118.112 399.12 120.007 405.093 123.61L440.397 144.903C445.016 147.689 447.867 152.874 447.867 158.49V193.746C447.867 198.067 444.548 201.57 440.454 201.57H31.5144C27.4204 201.57 24.1016 198.073 24.1016 193.752C24.1016 185.194 24.1016 171.02 24.1016 158.486C24.1016 152.87 26.9485 147.692 31.5678 144.906C43.7829 137.538 57.902 129.022 66.8845 123.604Z" fill="#A5D6BF" stroke="#1D1D1D" stroke-width="0.5"/>
<g style="mix-blend-mode:multiply" opacity="0.3">
<path d="M66.8845 123.604C72.8582 120.002 79.6102 118.112 86.4903 118.112H385.478C392.359 118.112 399.12 120.007 405.093 123.61L440.397 144.903C445.016 147.689 447.867 152.874 447.867 158.49V193.746C447.867 198.067 444.548 201.57 440.454 201.57H31.5144C27.4204 201.57 24.1016 198.073 24.1016 193.752C24.1016 185.194 24.1016 171.02 24.1016 158.486C24.1016 152.87 26.9485 147.692 31.5678 144.906C43.7829 137.538 57.902 129.022 66.8845 123.604Z" fill="#A5D6BF"/>
</g>
<g style="mix-blend-mode:multiply" opacity="0.3">
<path d="M-47.5547 125.937H314.75L345.324 219.828H-16.9805L-47.5547 125.937Z" fill="#A5D6BF"/>
</g>
<g style="mix-blend-mode:multiply" opacity="0.5">
<path fill-rule="evenodd" clip-rule="evenodd" d="M24.1016 186.328V193.752C24.1016 198.073 27.4204 201.57 31.5144 201.57H440.454C444.548 201.57 447.867 198.067 447.867 193.746V186.324C446.532 188.439 444.245 189.833 441.646 189.833H30.322C27.724 189.833 25.4363 188.441 24.1016 186.328Z" fill="#A5D6BF"/>
</g>
<path d="M385.77 118.112H86.7816C79.9014 118.112 73.1494 120.002 67.1758 123.604L31.859 144.906C29.0778 146.583 28.1891 149.316 29.9524 150.061C33.0411 151.365 442.599 153.321 444.452 150.061C445.369 148.448 442.355 145.97 440.688 144.903L405.385 123.61C399.411 120.007 392.65 118.112 385.77 118.112Z" fill="#A5D6BF" stroke="#1D1D1D" stroke-width="0.5"/>
<g style="mix-blend-mode:multiply" opacity="0.3">
<path d="M218.688 100.506L324.939 151.363H31.515C29.468 151.363 27.8086 149.612 27.8086 147.451V100.506H218.688Z" fill="#A5D6BF"/>
</g>
<g style="mix-blend-mode:multiply" opacity="0.4">
<path d="M86.7816 118.112H385.77C392.65 118.112 399.411 120.007 405.385 123.61L440.688 144.903C442.355 145.97 445.369 148.448 444.452 150.061C444.039 150.787 423.408 151.254 391.549 151.528L371.895 133.829C367.1 129.511 361.673 127.24 356.15 127.24H116.159C110.636 127.24 105.217 129.505 100.422 133.822L81.4069 150.945C50.5809 150.66 30.6252 150.345 29.9524 150.061C28.1891 149.316 29.0778 146.583 31.859 144.906L67.1758 123.604C73.1494 120.002 79.9014 118.112 86.7816 118.112Z" fill="#A5D6BF"/>
</g>
</g>
<g style="mix-blend-mode:multiply" opacity="0.3">
<path fill-rule="evenodd" clip-rule="evenodd" d="M32.3109 102.956C32.3395 102.839 32.3748 102.732 32.4234 102.622C33.5902 99.9778 36.8056 94.1927 40.9514 90.9089C44.8433 87.8262 57.6051 78.2097 64.9499 72.6975C66.1489 71.7977 67.4213 71.0117 68.8142 70.5124C76.1892 67.8687 89.6799 66.2928 97.8387 76.9369C105.883 87.4318 105.006 100.199 103.154 106.946C102.759 108.385 102.083 109.703 101.283 110.941C95.7565 119.483 85.3799 133.71 81.9632 137.018C80.0984 138.823 77.6861 140.59 74.8721 142.064C70.2383 145.067 64.7255 146.809 58.8096 146.809C42.3699 146.809 29.043 133.36 29.043 116.769C29.043 111.961 30.1625 107.416 32.1527 103.386C32.2199 103.25 32.2748 103.103 32.3109 102.956Z" fill="#A5D6BF"/>
</g>
<g style="mix-blend-mode:multiply" opacity="0.3">
<path fill-rule="evenodd" clip-rule="evenodd" d="M438.423 102.467C438.395 102.355 438.36 102.251 438.313 102.146C437.148 99.541 433.931 93.833 429.783 90.5937C425.891 87.5545 413.13 78.0737 405.785 72.6393C404.586 71.7521 403.314 70.9772 401.921 70.485C394.546 67.8785 381.055 66.3249 372.897 76.8188C364.852 87.1656 365.729 99.753 367.581 106.405C367.976 107.823 368.652 109.123 369.453 110.343C374.979 118.765 385.355 132.791 388.772 136.052C390.645 137.84 393.071 139.59 395.901 141.047C400.527 143.993 406.025 145.701 411.925 145.701C428.365 145.701 441.691 132.441 441.691 116.085C441.691 111.34 440.57 106.856 438.577 102.881C438.511 102.75 438.458 102.609 438.423 102.467Z" fill="#A5D6BF"/>
</g>
<mask id="mask4_5463_6713" style="mask-type:alpha" maskUnits="userSpaceOnUse" x="26" y="201" width="420" height="34">
<path d="M26.5742 206.805C26.5742 203.924 28.7868 201.589 31.5161 201.589H440.456C443.185 201.589 445.398 203.924 445.398 206.805V226.366C445.398 230.687 442.079 234.19 437.985 234.19H33.987C29.893 234.19 26.5742 230.687 26.5742 226.366V206.805Z" fill="#A5D6BF" stroke="#1D1D1D" stroke-width="0.5"/>
</mask>
<g mask="url(#mask4_5463_6713)">
<path d="M26.5742 206.805C26.5742 203.924 28.7868 201.589 31.5161 201.589H440.456C443.185 201.589 445.398 203.924 445.398 206.805V226.366C445.398 230.687 442.079 234.19 437.985 234.19H33.987C29.893 234.19 26.5742 230.687 26.5742 226.366V206.805Z" fill="#A5D6BF" stroke="#1D1D1D" stroke-width="0.5"/>
<g style="mix-blend-mode:multiply" opacity="0.5">
<path fill-rule="evenodd" clip-rule="evenodd" d="M26.5742 222.832V226.366C26.5742 230.687 29.8931 234.19 33.987 234.19H437.985C442.079 234.19 445.398 230.687 445.398 226.366V222.832C444.063 224.947 441.775 226.341 439.177 226.341H32.7952C30.1969 226.341 27.9091 224.947 26.5742 222.832Z" fill="#A5D6BF"/>
</g>
<g style="mix-blend-mode:multiply" opacity="0.3">
<path d="M-32.7266 170.289H329.578L360.152 264.18H-2.15233L-32.7266 170.289Z" fill="#A5D6BF"/>
</g>
</g>
<mask id="mask5_5463_6713" style="mask-type:alpha" maskUnits="userSpaceOnUse" x="36" y="233" width="25" height="41">
<path d="M39.9949 266.686L36.457 234.181H59.9309L56.3828 266.78C56.0873 269.496 54.5091 271.987 52.0179 272.733C49.5185 273.481 47.2607 273.512 44.4787 272.701C41.936 271.961 40.296 269.452 39.9949 266.686Z" fill="#F0C38B" stroke="#1D1D1D" stroke-width="0.5"/>
</mask>
<g mask="url(#mask5_5463_6713)">
<path d="M39.9949 266.686L36.457 234.181H59.9309L56.3828 266.78C56.0873 269.496 54.5091 271.987 52.0179 272.733C49.5185 273.481 47.2607 273.512 44.4787 272.701C41.936 271.961 40.296 269.452 39.9949 266.686Z" fill="#F0C38B" stroke="#1D1D1D" stroke-width="0.5"/>
<g style="mix-blend-mode:multiply" opacity="0.5">
<path d="M29.4534 235.789L21.6328 192.448H73.5225L65.6793 235.914C65.026 239.535 61.5375 242.856 56.0306 243.851C50.5055 244.849 45.5146 244.89 39.365 243.809C33.7441 242.822 30.1189 239.477 29.4534 235.789Z" fill="#F0C38B"/>
</g>
</g>
<mask id="mask6_5463_6713" style="mask-type:alpha" maskUnits="userSpaceOnUse" x="416" y="233" width="25" height="41">
<path d="M420.518 266.686L416.98 234.181H440.454L436.906 266.78C436.611 269.496 435.033 271.987 432.541 272.733C430.042 273.481 427.784 273.512 425.002 272.701C422.459 271.961 420.819 269.452 420.518 266.686Z" fill="#F0C38B" stroke="#1D1D1D" stroke-width="0.5"/>
</mask>
<g mask="url(#mask6_5463_6713)">
<path d="M420.518 266.686L416.98 234.181H440.454L436.906 266.78C436.611 269.496 435.033 271.987 432.541 272.733C430.042 273.481 427.784 273.512 425.002 272.701C422.459 271.961 420.819 269.452 420.518 266.686Z" fill="#F0C38B" stroke="#1D1D1D" stroke-width="0.5"/>
<g style="mix-blend-mode:multiply" opacity="0.5">
<path d="M409.977 235.789L402.156 192.448H454.046L446.203 235.914C445.549 239.535 442.061 242.856 436.554 243.851C431.029 244.849 426.038 244.89 419.888 243.809C414.268 242.822 410.642 239.477 409.977 235.789Z" fill="#F0C38B"/>
</g>
</g>
<path d="M40.1669 94.6239C36.2134 97.7536 33.1659 103.318 32.1363 105.708C30.898 110.926 24.7211 127.564 38.9314 138.963C54.3742 151.35 71.0535 144.831 78.4664 137.659C81.6571 134.572 91.3475 121.293 96.5084 113.32C97.2558 112.165 97.887 110.935 98.2559 109.592C99.9856 103.295 100.804 91.3787 93.292 81.5835C85.6727 71.6492 73.0742 73.1199 66.187 75.5874C64.8862 76.0534 63.698 76.787 62.5783 77.6268C55.7192 82.7715 43.8013 91.7468 40.1669 94.6239Z" fill="#A5D6BF" stroke="#1D1D1D" stroke-width="0.5"/>
<g style="mix-blend-mode:multiply" opacity="0.3">
<path d="M40.1669 94.6239C36.2134 97.7536 33.1659 103.318 32.1363 105.708C30.898 110.926 24.7211 127.564 38.9314 138.963C54.3742 151.35 71.0535 144.831 78.4664 137.659C81.6571 134.572 91.3475 121.293 96.5084 113.32C97.2558 112.165 97.887 110.935 98.2559 109.592C99.9856 103.295 100.804 91.3787 93.292 81.5835C85.6727 71.6492 73.0742 73.1199 66.187 75.5874C64.8862 76.0534 63.698 76.787 62.5783 77.6268C55.7192 82.7715 43.8013 91.7468 40.1669 94.6239Z" fill="#A5D6BF"/>
</g>
<ellipse cx="56.841" cy="118.75" rx="27.798" ry="28.0368" fill="#A5D6BF" stroke="#1D1D1D" stroke-width="0.5"/>
<path d="M431.802 94.6239C435.755 97.7536 438.803 103.318 439.832 105.708C441.071 110.926 447.248 127.564 433.037 138.963C417.595 151.35 400.915 144.831 393.502 137.659C390.312 134.572 380.621 121.293 375.46 113.32C374.713 112.165 374.082 110.935 373.713 109.592C371.983 103.295 371.164 91.3787 378.677 81.5835C386.296 71.6492 398.895 73.1199 405.782 75.5874C407.083 76.0534 408.271 76.787 409.391 77.6268C416.25 82.7715 428.167 91.7468 431.802 94.6239Z" fill="#A5D6BF" stroke="#1D1D1D" stroke-width="0.5"/>
<g style="mix-blend-mode:multiply" opacity="0.3">
<path d="M431.802 94.6239C435.755 97.7536 438.803 103.318 439.832 105.708C441.071 110.926 447.248 127.564 433.037 138.963C417.595 151.35 400.915 144.831 393.502 137.659C390.312 134.572 380.621 121.293 375.46 113.32C374.713 112.165 374.082 110.935 373.713 109.592C371.983 103.295 371.164 91.3787 378.677 81.5835C386.296 71.6492 398.895 73.1199 405.782 75.5874C407.083 76.0534 408.271 76.787 409.391 77.6268C416.25 82.7715 428.167 91.7468 431.802 94.6239Z" fill="#A5D6BF"/>
</g>
<ellipse cx="27.798" cy="28.0368" rx="27.798" ry="28.0368" transform="matrix(-1 0 0 1 442.926 90.713)" fill="#A5D6BF" stroke="#1D1D1D" stroke-width="0.5"/>
<path d="M259.202 112.686L167.924 113.63C164.128 113.669 160.982 110.747 160.844 107.054L158.222 49.3097C158.065 45.1085 161.937 42.0344 166.254 41.9549L254.13 40.3384C257.486 40.2767 260.296 42.826 260.471 46.0899L263.773 107.948C263.91 110.509 261.836 112.659 259.202 112.686Z" fill="#A5D6BF" stroke="#1D1D1D" stroke-width="0.3"/>
<path d="M260.105 109.279L168.508 111.223C166.396 111.267 164.628 109.658 164.532 107.604L161.686 46.7235C161.567 44.1909 163.608 42.0679 166.211 42.0153L255.51 40.2091C258.885 40.1408 261.709 42.7136 261.864 45.9969L264.626 104.57C264.745 107.101 262.707 109.224 260.105 109.279Z" fill="#DEF4E7" stroke="#1D1D1D" stroke-width="0.3"/>
<mask id="mask7_5463_6713" style="mask-type:alpha" maskUnits="userSpaceOnUse" x="165" y="44" width="96" height="62">
<path d="M256.313 103.099L173.021 105.184C171.295 105.227 169.832 103.932 169.715 102.258L166.003 49.3538C165.879 47.5853 167.299 46.0881 169.123 46.0646L253.43 44.9765C255.595 44.9486 257.406 46.5989 257.516 48.7L260.167 99.0547C260.281 101.222 258.546 103.044 256.313 103.099Z" fill="#204936"/>
</mask>
<g mask="url(#mask7_5463_6713)">
<path d="M256.313 103.099L173.021 105.184C171.295 105.227 169.832 103.932 169.715 102.258L166.003 49.3538C165.879 47.5853 167.299 46.0881 169.123 46.0646L253.43 44.9765C255.595 44.9486 257.406 46.5989 257.516 48.7L260.167 99.0547C260.281 101.222 258.546 103.044 256.313 103.099Z" fill="#1D1D1D" stroke="#1D1D1D" stroke-width="0.3"/>
<path opacity="0.5" d="M251.557 73.8427L175.241 75.3968C174.543 75.4144 173.952 74.8885 173.905 74.2082L172.407 52.7093C172.357 51.9906 172.931 51.382 173.669 51.3723L250.394 50.2231C251.27 50.2115 252.002 50.882 252.047 51.7359L253.115 72.1987C253.161 73.0796 252.459 73.8199 251.557 73.8427Z" fill="#41826E"/>
<ellipse cx="6.82539" cy="7.78769" rx="6.82539" ry="7.78769" transform="matrix(-0.997016 0.0732699 0.0852867 0.996676 192.914 55.1085)" fill="#41826E"/>
<path opacity="0.5" d="M197.059 96.5629L177.528 96.8601C176.83 96.8779 176.238 96.3514 176.19 95.6704L174.818 80.0657C174.768 79.3462 175.343 78.737 176.081 78.7273L195.701 78.4571C196.577 78.4455 197.309 79.1167 197.354 79.9715L198.618 94.9171C198.664 95.7989 197.962 96.54 197.059 96.5629Z" fill="#41826E"/>
<rect opacity="0.7" width="45.6006" height="3.36112" transform="matrix(-0.999384 0.0300149 0.0384139 0.99944 253.125 77.8464)" fill="#41826E"/>
<rect opacity="0.7" width="22.7954" height="3.3532" transform="matrix(-0.999141 0.036698 0.0460186 0.999142 252.805 84.2245)" fill="#41826E"/>
<rect opacity="0.7" width="47.2086" height="3.35926" transform="matrix(-0.999626 0.021609 -0.00194537 1.00005 247.117 60.319)" fill="#41826E"/>
<rect opacity="0.15" width="34.3955" height="113.542" transform="matrix(-0.878129 -0.480995 -0.496249 0.866714 262.734 30.9498)" fill="#C1E5CB"/>
<rect opacity="0.1" width="12.3334" height="113.597" transform="matrix(-0.878262 -0.480752 -0.496497 0.866572 262.738 30.9103)" fill="#C1E5CB"/>
<path d="M256.313 103.099L173.021 105.184C171.295 105.227 169.832 103.932 169.715 102.258L166.003 49.3538C165.879 47.5853 167.299 46.0881 169.123 46.0646L253.43 44.9765C255.595 44.9486 257.406 46.5989 257.516 48.7L260.167 99.0547C260.281 101.222 258.546 103.044 256.313 103.099Z" stroke="#1D1D1D" stroke-width="0.3"/>
</g>
<path fill-rule="evenodd" clip-rule="evenodd" d="M171.851 103.697L254.69 101.593C256.91 101.537 258.637 99.7151 258.524 97.5475L255.897 47.1933C255.867 46.6146 255.709 46.0701 255.45 45.5855C256.527 46.2441 257.268 47.3889 257.337 48.7129L259.963 99.0672C260.076 101.235 258.35 103.056 256.129 103.113L173.291 105.216C171.952 105.25 170.772 104.47 170.262 103.33C170.736 103.577 171.279 103.711 171.851 103.697Z" fill="#76B899"/>
<path d="M254.69 101.593L254.686 101.443L254.69 101.593ZM171.851 103.697L171.855 103.847L171.851 103.697ZM258.524 97.5475L258.673 97.5402L258.524 97.5475ZM255.897 47.1933L256.047 47.186L256.047 47.186L255.897 47.1933ZM255.45 45.5855L255.318 45.6558L255.058 45.1706L255.528 45.4575L255.45 45.5855ZM257.337 48.7129L257.487 48.7056L257.337 48.7129ZM259.963 99.0672L260.113 99.0598L259.963 99.0672ZM256.129 103.113L256.125 102.963L256.129 103.113ZM173.291 105.216L173.295 105.366L173.291 105.216ZM170.262 103.33L170.126 103.391L169.95 102.999L170.331 103.197L170.262 103.33ZM254.694 101.743L171.855 103.847L171.847 103.547L254.686 101.443L254.694 101.743ZM258.673 97.5402C258.791 99.7953 256.995 101.685 254.694 101.743L254.686 101.443C256.825 101.389 258.482 99.635 258.374 97.5549L258.673 97.5402ZM256.047 47.186L258.673 97.5402L258.374 97.5549L255.748 47.2007L256.047 47.186ZM255.582 45.5151C255.851 46.0186 256.016 46.5846 256.047 47.186L255.748 47.2007C255.719 46.6446 255.566 46.1215 255.318 45.6558L255.582 45.5151ZM255.528 45.4575C256.645 46.1403 257.415 47.3289 257.487 48.7056L257.187 48.7203C257.121 47.449 256.41 46.3478 255.372 45.7134L255.528 45.4575ZM257.487 48.7056L260.113 99.0598L259.813 99.0745L257.187 48.7203L257.487 48.7056ZM260.113 99.0598C260.23 101.315 258.435 103.204 256.134 103.263L256.125 102.963C258.265 102.909 259.922 101.155 259.813 99.0745L260.113 99.0598ZM256.134 103.263L173.295 105.366L173.286 105.067L256.125 102.963L256.134 103.263ZM173.295 105.366C171.895 105.402 170.659 104.586 170.126 103.391L170.399 103.269C170.884 104.354 172.008 105.099 173.286 105.067L173.295 105.366ZM171.855 103.847C171.257 103.862 170.689 103.722 170.193 103.463L170.331 103.197C170.783 103.433 171.301 103.561 171.847 103.547L171.855 103.847Z" fill="#1D1D1D"/>
<path d="M168.861 120.404L168.64 120.133C167.473 118.706 167.027 116.845 167.427 115.069L167.638 113.959C167.755 113.341 167.917 112.723 168.246 112.186C168.66 111.513 169.19 111.053 170.09 111.027L264.061 108.356C265.572 108.313 267.05 108.809 268.217 109.751L295.061 131.421C295.734 131.964 296.04 132.827 295.854 133.655L294.484 137.894C294.259 138.894 293.372 139.618 292.321 139.661L195.444 143.574C193.756 143.642 192.109 143.037 190.884 141.898L168.861 120.404Z" fill="#A5D6BF" stroke="#1D1D1D" stroke-width="0.3"/>
<path d="M293.747 134.385L197.541 138.369C195.847 138.439 194.194 137.831 192.967 136.687L169.506 114.799C168.017 113.41 168.969 110.971 171.024 110.906L263.578 108.019C265.489 107.96 267.358 108.59 268.827 109.788L294.895 131.058C296.252 132.165 295.511 134.312 293.747 134.385Z" fill="#DEF4E7" stroke="#1D1D1D" stroke-width="0.3"/>
<path d="M265.661 112.043L270.421 116.028C270.564 116.154 270.587 116.325 270.521 116.459L270.143 118.213C270.095 118.347 269.964 118.455 269.777 118.464L260.631 118.896C260.346 118.909 260.062 118.815 259.848 118.637L254.668 114.325C254.565 114.239 254.535 114.124 254.562 114.023L254.952 112.244C254.98 112.122 255.09 112.019 255.255 112.011L264.323 111.58C264.814 111.557 265.302 111.726 265.661 112.043Z" fill="#ABE0C7" stroke="#1D1D1D" stroke-width="0.3"/>
<path d="M273.575 118.838L278.335 122.823C278.478 122.949 278.501 123.12 278.435 123.254L278.057 125.008C278.009 125.142 277.878 125.25 277.691 125.259L268.545 125.691C268.26 125.704 267.976 125.611 267.762 125.432L262.582 121.12C262.479 121.034 262.449 120.919 262.476 120.818L262.866 119.039C262.894 118.917 263.004 118.814 263.169 118.806L272.237 118.375C272.728 118.352 273.216 118.521 273.575 118.838Z" fill="#ABE0C7" stroke="#1D1D1D" stroke-width="0.3"/>
<path d="M282.266 125.658L287.027 129.642C287.17 129.768 287.192 129.94 287.126 130.074L286.749 131.828C286.701 131.962 286.57 132.07 286.383 132.078L277.236 132.51C276.951 132.524 276.668 132.43 276.454 132.252L271.274 127.939C271.171 127.854 271.141 127.738 271.167 127.638L271.558 125.858C271.585 125.736 271.696 125.633 271.861 125.626L280.928 125.194C281.419 125.172 281.907 125.341 282.266 125.658Z" fill="#ABE0C7" stroke="#1D1D1D" stroke-width="0.3"/>
<path d="M252.364 112.245L257.125 116.23C257.267 116.356 257.29 116.527 257.224 116.662L256.846 118.415C256.798 118.55 256.667 118.657 256.48 118.666L247.334 119.098C247.049 119.111 246.765 119.018 246.551 118.839L241.371 114.527C241.268 114.441 241.238 114.326 241.265 114.225L241.656 112.446C241.683 112.324 241.793 112.221 241.958 112.214L251.026 111.782C251.517 111.76 252.005 111.929 252.364 112.245Z" fill="#ABE0C7" stroke="#1D1D1D" stroke-width="0.3"/>
<path d="M260.04 118.766L264.8 122.751C264.943 122.877 264.966 123.048 264.9 123.183L264.522 124.936C264.474 125.071 264.343 125.178 264.156 125.187L255.01 125.619C254.725 125.632 254.441 125.539 254.227 125.361L249.047 121.048C248.944 120.962 248.914 120.847 248.941 120.746L249.331 118.967C249.359 118.845 249.469 118.742 249.634 118.735L258.701 118.303C259.193 118.281 259.68 118.45 260.04 118.766Z" fill="#ABE0C7" stroke="#1D1D1D" stroke-width="0.3"/>
<path d="M268.731 125.59L273.492 129.574C273.634 129.7 273.657 129.871 273.591 130.006L273.213 131.76C273.166 131.894 273.034 132.001 272.848 132.01L263.701 132.442C263.416 132.456 263.133 132.362 262.919 132.184L257.738 127.871C257.635 127.785 257.605 127.67 257.632 127.57L258.023 125.79C258.05 125.668 258.161 125.565 258.325 125.558L267.393 125.126C267.884 125.104 268.372 125.273 268.731 125.59Z" fill="#ABE0C7" stroke="#1D1D1D" stroke-width="0.3"/>
<path d="M238.829 112.17L243.589 116.155C243.732 116.28 243.755 116.452 243.689 116.586L243.311 118.34C243.263 118.474 243.132 118.582 242.945 118.591L233.799 119.023C233.514 119.036 233.23 118.942 233.016 118.764L227.836 114.451C227.733 114.366 227.703 114.251 227.73 114.15L228.12 112.371C228.148 112.249 228.258 112.146 228.423 112.138L237.491 111.706C237.982 111.684 238.47 111.853 238.829 112.17Z" fill="#ABE0C7" stroke="#1D1D1D" stroke-width="0.3"/>
<path d="M246.747 118.983L251.507 122.968C251.65 123.094 251.673 123.265 251.607 123.4L251.229 125.153C251.181 125.288 251.05 125.395 250.863 125.404L241.717 125.836C241.432 125.849 241.148 125.756 240.934 125.578L235.754 121.265C235.651 121.179 235.621 121.064 235.648 120.963L236.038 119.184C236.066 119.062 236.176 118.959 236.341 118.952L245.408 118.52C245.9 118.498 246.388 118.667 246.747 118.983Z" fill="#ABE0C7" stroke="#1D1D1D" stroke-width="0.3"/>
<path d="M255.426 125.795L260.187 129.78C260.33 129.905 260.352 130.077 260.287 130.211L259.909 131.965C259.861 132.099 259.73 132.207 259.543 132.216L250.396 132.648C250.112 132.661 249.828 132.567 249.614 132.389L244.434 128.076C244.331 127.991 244.301 127.876 244.328 127.775L244.718 125.996C244.746 125.874 244.856 125.771 245.021 125.763L254.088 125.331C254.579 125.309 255.067 125.478 255.426 125.795Z" fill="#ABE0C7" stroke="#1D1D1D" stroke-width="0.3"/>
<path d="M226.048 112.403L230.813 116.262C230.956 116.384 230.979 116.55 230.913 116.68L230.538 118.375C230.49 118.504 230.359 118.608 230.172 118.616L221.026 119.021C220.741 119.034 220.458 118.943 220.244 118.77L215.058 114.594C214.955 114.511 214.925 114.399 214.952 114.302L215.34 112.582C215.367 112.464 215.478 112.365 215.642 112.358L224.709 111.953C225.2 111.932 225.688 112.096 226.048 112.403Z" fill="#ABE0C7" stroke="#1D1D1D" stroke-width="0.3"/>
<path d="M233.973 118.945L238.734 122.93C238.877 123.056 238.899 123.227 238.833 123.362L238.456 125.115C238.408 125.25 238.277 125.357 238.09 125.366L228.943 125.798C228.658 125.811 228.375 125.718 228.161 125.539L222.981 121.227C222.878 121.141 222.848 121.026 222.874 120.925L223.265 119.146C223.292 119.024 223.403 118.921 223.568 118.913L232.635 118.482C233.126 118.46 233.614 118.628 233.973 118.945Z" fill="#ABE0C7" stroke="#1D1D1D" stroke-width="0.3"/>
<path d="M242.665 125.776L247.425 129.76C247.568 129.886 247.591 130.057 247.525 130.192L247.147 131.946C247.099 132.08 246.968 132.187 246.781 132.196L237.635 132.628C237.35 132.642 237.066 132.548 236.852 132.37L231.672 128.057C231.569 127.971 231.539 127.856 231.566 127.756L231.956 125.976C231.984 125.854 232.094 125.751 232.259 125.744L241.326 125.312C241.818 125.29 242.305 125.459 242.665 125.776Z" fill="#ABE0C7" stroke="#1D1D1D" stroke-width="0.3"/>
<path d="M213.516 112.643L218.282 116.502C218.425 116.624 218.448 116.789 218.382 116.919L218.006 118.614C217.959 118.744 217.828 118.848 217.641 118.856L208.495 119.261C208.21 119.274 207.926 119.183 207.712 119.01L202.527 114.833C202.424 114.75 202.394 114.639 202.421 114.542L202.809 112.822C202.836 112.704 202.946 112.605 203.111 112.598L212.178 112.193C212.669 112.172 213.157 112.336 213.516 112.643Z" fill="#ABE0C7" stroke="#1D1D1D" stroke-width="0.3"/>
<path d="M221.45 119.182L226.21 123.167C226.353 123.293 226.376 123.464 226.31 123.599L225.932 125.352C225.884 125.487 225.753 125.594 225.566 125.603L216.42 126.035C216.135 126.048 215.851 125.955 215.637 125.777L210.457 121.464C210.354 121.378 210.324 121.263 210.351 121.163L210.741 119.383C210.769 119.261 210.879 119.158 211.044 119.151L220.112 118.719C220.603 118.697 221.091 118.866 221.45 119.182Z" fill="#ABE0C7" stroke="#1D1D1D" stroke-width="0.3"/>
<path d="M230.118 126.239L234.878 130.224C235.021 130.35 235.044 130.521 234.978 130.656L234.6 132.409C234.552 132.544 234.421 132.651 234.234 132.66L225.088 133.092C224.803 133.105 224.519 133.012 224.305 132.833L219.125 128.521C219.022 128.435 218.992 128.32 219.019 128.219L219.409 126.44C219.437 126.318 219.547 126.215 219.712 126.208L228.78 125.776C229.271 125.754 229.759 125.923 230.118 126.239Z" fill="#ABE0C7" stroke="#1D1D1D" stroke-width="0.3"/>
<path d="M200.977 112.886L205.743 116.745C205.886 116.867 205.908 117.032 205.843 117.162L205.467 118.857C205.42 118.987 205.289 119.091 205.102 119.099L195.956 119.504C195.671 119.516 195.387 119.426 195.173 119.253L189.988 115.076C189.885 114.993 189.855 114.882 189.881 114.785L190.27 113.065C190.297 112.947 190.407 112.848 190.572 112.841L199.639 112.436C200.13 112.415 200.618 112.579 200.977 112.886Z" fill="#ABE0C7" stroke="#1D1D1D" stroke-width="0.3"/>
<path d="M208.918 119.404L213.679 123.389C213.822 123.515 213.844 123.686 213.779 123.821L213.401 125.574C213.353 125.709 213.222 125.816 213.035 125.825L203.888 126.257C203.604 126.271 203.32 126.177 203.106 125.999L197.926 121.686C197.823 121.6 197.793 121.485 197.82 121.385L198.21 119.605C198.238 119.483 198.348 119.38 198.513 119.373L207.58 118.941C208.072 118.919 208.559 119.088 208.918 119.404Z" fill="#ABE0C7" stroke="#1D1D1D" stroke-width="0.3"/>
<path d="M217.348 126.23L222.109 130.215C222.252 130.341 222.274 130.512 222.208 130.646L221.831 132.4C221.783 132.534 221.652 132.642 221.465 132.651L212.318 133.083C212.033 133.096 211.75 133.002 211.536 132.824L206.356 128.512C206.253 128.426 206.223 128.311 206.249 128.21L206.64 126.431C206.667 126.309 206.778 126.206 206.943 126.198L216.01 125.767C216.501 125.744 216.989 125.913 217.348 126.23Z" fill="#ABE0C7" stroke="#1D1D1D" stroke-width="0.3"/>
<path d="M188.2 113.09L192.965 116.949C193.108 117.071 193.131 117.237 193.066 117.367L192.69 119.062C192.642 119.191 192.511 119.295 192.324 119.303L183.179 119.708C182.894 119.721 182.61 119.63 182.396 119.457L177.211 115.281C177.107 115.198 177.077 115.086 177.104 114.989L177.492 113.269C177.52 113.152 177.63 113.052 177.795 113.045L186.861 112.64C187.353 112.62 187.841 112.784 188.2 113.09Z" fill="#ABE0C7" stroke="#1D1D1D" stroke-width="0.3"/>
<path d="M196.122 119.889L200.882 123.874C201.025 124 201.048 124.171 200.982 124.306L200.604 126.059C200.556 126.194 200.425 126.301 200.238 126.31L191.092 126.742C190.807 126.755 190.523 126.662 190.309 126.484L185.129 122.171C185.026 122.085 184.996 121.97 185.023 121.869L185.413 120.09C185.441 119.968 185.551 119.865 185.716 119.858L194.783 119.426C195.275 119.404 195.763 119.573 196.122 119.889Z" fill="#ABE0C7" stroke="#1D1D1D" stroke-width="0.3"/>
<path d="M204.809 126.476L209.57 130.461C209.713 130.587 209.735 130.758 209.669 130.893L209.292 132.646C209.244 132.781 209.113 132.888 208.926 132.897L199.779 133.329C199.494 133.342 199.211 133.249 198.997 133.07L193.817 128.758C193.714 128.672 193.684 128.557 193.71 128.456L194.101 126.677C194.128 126.555 194.239 126.452 194.404 126.445L203.471 126.013C203.962 125.991 204.45 126.16 204.809 126.476Z" fill="#ABE0C7" stroke="#1D1D1D" stroke-width="0.3"/>
<path d="M192.598 117.278L183.755 117.663C183.48 117.675 183.206 117.586 182.998 117.419L177.981 113.37C177.764 113.195 177.88 112.892 178.167 112.88L187.18 112.506C187.655 112.486 188.127 112.646 188.474 112.943L192.839 116.674C193.098 116.895 192.951 117.263 192.598 117.278Z" fill="#DEF4E7"/>
<path d="M205.25 117.046L196.408 117.431C196.132 117.443 195.858 117.354 195.651 117.187L190.633 113.138C190.417 112.963 190.532 112.66 190.82 112.648L199.832 112.274C200.307 112.254 200.779 112.413 201.127 112.711L205.492 116.442C205.75 116.662 205.603 117.031 205.25 117.046Z" fill="#DEF4E7"/>
<path d="M217.858 116.859L209.015 117.243C208.74 117.255 208.466 117.167 208.258 117L203.241 112.95C203.025 112.776 203.14 112.473 203.427 112.461L212.44 112.087C212.915 112.067 213.387 112.226 213.735 112.523L218.099 116.254C218.358 116.475 218.211 116.843 217.858 116.859Z" fill="#DEF4E7"/>
<path d="M230.465 116.678L221.622 117.063C221.347 117.075 221.073 116.986 220.865 116.819L215.848 112.77C215.632 112.595 215.747 112.292 216.034 112.28L225.047 111.906C225.522 111.886 225.994 112.046 226.342 112.343L230.706 116.074C230.965 116.295 230.818 116.663 230.465 116.678Z" fill="#DEF4E7"/>
<path d="M243.071 116.497L234.229 116.882C233.953 116.894 233.679 116.806 233.472 116.638L228.454 112.589C228.238 112.415 228.353 112.111 228.641 112.099L237.653 111.725C238.128 111.706 238.6 111.865 238.948 112.162L243.313 115.893C243.571 116.114 243.424 116.482 243.071 116.497Z" fill="#DEF4E7"/>
<path d="M256.492 116.454L247.649 116.839C247.374 116.851 247.099 116.763 246.892 116.595L241.874 112.546C241.658 112.371 241.774 112.068 242.061 112.056L251.074 111.682C251.548 111.662 252.02 111.822 252.368 112.119L256.733 115.85C256.991 116.071 256.844 116.439 256.492 116.454Z" fill="#DEF4E7"/>
<path d="M269.91 116.423L261.067 116.808C260.792 116.82 260.518 116.732 260.31 116.564L255.293 112.515C255.077 112.34 255.192 112.037 255.479 112.025L264.492 111.651C264.967 111.631 265.439 111.791 265.787 112.088L270.151 115.819C270.41 116.04 270.263 116.408 269.91 116.423Z" fill="#DEF4E7"/>
<path d="M200.417 123.9L191.574 124.285C191.299 124.297 191.025 124.209 190.817 124.041L185.8 119.992C185.584 119.817 185.699 119.514 185.986 119.502L194.999 119.128C195.474 119.108 195.946 119.268 196.294 119.565L200.658 123.296C200.917 123.517 200.77 123.885 200.417 123.9Z" fill="#DEF4E7"/>
<path d="M213.069 123.668L204.227 124.053C203.952 124.065 203.677 123.976 203.47 123.809L198.452 119.76C198.236 119.585 198.352 119.282 198.639 119.27L207.651 118.896C208.126 118.876 208.598 119.036 208.946 119.333L213.311 123.064C213.569 123.285 213.422 123.653 213.069 123.668Z" fill="#DEF4E7"/>
<path d="M225.677 123.481L216.835 123.866C216.559 123.878 216.285 123.789 216.078 123.622L211.06 119.573C210.844 119.398 210.959 119.095 211.247 119.083L220.259 118.709C220.734 118.689 221.206 118.848 221.554 119.146L225.919 122.877C226.177 123.097 226.03 123.466 225.677 123.481Z" fill="#DEF4E7"/>
<path d="M238.283 123.3L229.441 123.685C229.165 123.697 228.891 123.609 228.684 123.441L223.666 119.392C223.45 119.217 223.565 118.914 223.853 118.902L232.865 118.528C233.34 118.508 233.812 118.668 234.16 118.965L238.525 122.696C238.783 122.917 238.636 123.285 238.283 123.3Z" fill="#DEF4E7"/>
<path d="M250.89 123.119L242.047 123.504C241.772 123.516 241.497 123.428 241.29 123.261L236.273 119.211C236.056 119.037 236.172 118.733 236.459 118.721L245.472 118.347C245.946 118.328 246.418 118.487 246.766 118.784L251.131 122.515C251.389 122.736 251.242 123.104 250.89 123.119Z" fill="#DEF4E7"/>
<path d="M264.311 123.076L255.468 123.461C255.193 123.473 254.918 123.385 254.711 123.217L249.694 119.168C249.477 118.993 249.593 118.69 249.88 118.678L258.893 118.304C259.368 118.285 259.84 118.444 260.187 118.741L264.552 122.472C264.81 122.693 264.663 123.061 264.311 123.076Z" fill="#DEF4E7"/>
<path d="M277.729 123.045L268.886 123.43C268.611 123.442 268.337 123.354 268.129 123.186L263.112 119.137C262.896 118.963 263.011 118.659 263.298 118.647L272.311 118.273C272.786 118.254 273.258 118.413 273.606 118.71L277.97 122.441C278.229 122.662 278.082 123.03 277.729 123.045Z" fill="#DEF4E7"/>
<path d="M209.041 130.699L200.198 131.084C199.923 131.096 199.649 131.007 199.441 130.84L194.424 126.791C194.208 126.616 194.323 126.313 194.61 126.301L203.623 125.927C204.098 125.907 204.57 126.066 204.918 126.364L209.282 130.095C209.541 130.315 209.394 130.684 209.041 130.699Z" fill="#DEF4E7"/>
<path d="M221.694 130.467L212.851 130.852C212.576 130.864 212.301 130.775 212.094 130.608L207.076 126.558C206.86 126.384 206.976 126.081 207.263 126.069L216.275 125.695C216.75 125.675 217.222 125.834 217.57 126.132L221.935 129.862C222.193 130.083 222.046 130.452 221.694 130.467Z" fill="#DEF4E7"/>
<path d="M234.301 130.28L225.459 130.664C225.183 130.676 224.909 130.588 224.702 130.421L219.684 126.371C219.468 126.197 219.583 125.894 219.871 125.882L228.883 125.508C229.358 125.488 229.83 125.647 230.178 125.944L234.543 129.675C234.801 129.896 234.654 130.264 234.301 130.28Z" fill="#DEF4E7"/>
<path d="M246.907 130.099L238.065 130.484C237.789 130.496 237.515 130.407 237.308 130.24L232.29 126.191C232.074 126.016 232.189 125.713 232.477 125.701L241.489 125.327C241.964 125.307 242.436 125.466 242.784 125.764L247.149 129.495C247.407 129.715 247.26 130.084 246.907 130.099Z" fill="#DEF4E7"/>
<path d="M259.514 129.918L250.671 130.303C250.396 130.315 250.121 130.226 249.914 130.059L244.897 126.01C244.68 125.835 244.796 125.532 245.083 125.52L254.096 125.146C254.57 125.126 255.042 125.286 255.39 125.583L259.755 129.314C260.013 129.535 259.866 129.903 259.514 129.918Z" fill="#DEF4E7"/>
<path d="M272.935 129.875L264.092 130.26C263.817 130.272 263.542 130.183 263.335 130.016L258.318 125.967C258.101 125.792 258.217 125.489 258.504 125.477L267.517 125.103C267.992 125.083 268.464 125.243 268.811 125.54L273.176 129.271C273.434 129.492 273.287 129.86 272.935 129.875Z" fill="#DEF4E7"/>
<path d="M286.353 129.844L277.51 130.229C277.235 130.241 276.961 130.152 276.753 129.985L271.736 125.936C271.52 125.761 271.635 125.458 271.922 125.446L280.935 125.072C281.41 125.052 281.882 125.212 282.23 125.509L286.594 129.24C286.853 129.461 286.706 129.829 286.353 129.844Z" fill="#DEF4E7"/>
<path d="M192.598 117.278L183.755 117.663C183.48 117.675 183.206 117.586 182.998 117.419L177.981 113.37C177.764 113.195 177.88 112.892 178.167 112.88L187.18 112.506C187.655 112.486 188.127 112.646 188.474 112.943L192.839 116.674C193.098 116.895 192.951 117.263 192.598 117.278Z" stroke="#1D1D1D" stroke-width="0.3"/>
<path d="M205.25 117.046L196.408 117.431C196.132 117.443 195.858 117.354 195.651 117.187L190.633 113.138C190.417 112.963 190.532 112.66 190.82 112.648L199.832 112.274C200.307 112.254 200.779 112.413 201.127 112.711L205.492 116.442C205.75 116.662 205.603 117.031 205.25 117.046Z" stroke="#1D1D1D" stroke-width="0.3"/>
<path d="M217.858 116.859L209.015 117.243C208.74 117.255 208.466 117.167 208.258 117L203.241 112.95C203.025 112.776 203.14 112.473 203.427 112.461L212.44 112.087C212.915 112.067 213.387 112.226 213.735 112.523L218.099 116.254C218.358 116.475 218.211 116.843 217.858 116.859Z" stroke="#1D1D1D" stroke-width="0.3"/>
<path d="M230.465 116.678L221.622 117.063C221.347 117.075 221.073 116.986 220.865 116.819L215.848 112.77C215.632 112.595 215.747 112.292 216.034 112.28L225.047 111.906C225.522 111.886 225.994 112.046 226.342 112.343L230.706 116.074C230.965 116.295 230.818 116.663 230.465 116.678Z" stroke="#1D1D1D" stroke-width="0.3"/>
<path d="M243.071 116.497L234.229 116.882C233.953 116.894 233.679 116.806 233.472 116.638L228.454 112.589C228.238 112.415 228.353 112.111 228.641 112.099L237.653 111.725C238.128 111.706 238.6 111.865 238.948 112.162L243.313 115.893C243.571 116.114 243.424 116.482 243.071 116.497Z" stroke="#1D1D1D" stroke-width="0.3"/>
<path d="M256.492 116.454L247.649 116.839C247.374 116.851 247.099 116.763 246.892 116.595L241.874 112.546C241.658 112.371 241.774 112.068 242.061 112.056L251.074 111.682C251.548 111.662 252.02 111.822 252.368 112.119L256.733 115.85C256.991 116.071 256.844 116.439 256.492 116.454Z" stroke="#1D1D1D" stroke-width="0.3"/>
<path d="M269.91 116.423L261.067 116.808C260.792 116.82 260.518 116.732 260.31 116.564L255.293 112.515C255.077 112.34 255.192 112.037 255.479 112.025L264.492 111.651C264.967 111.631 265.439 111.791 265.787 112.088L270.151 115.819C270.41 116.04 270.263 116.408 269.91 116.423Z" stroke="#1D1D1D" stroke-width="0.3"/>
<path d="M200.417 123.9L191.574 124.285C191.299 124.297 191.025 124.209 190.817 124.041L185.8 119.992C185.584 119.817 185.699 119.514 185.986 119.502L194.999 119.128C195.474 119.108 195.946 119.268 196.294 119.565L200.658 123.296C200.917 123.517 200.77 123.885 200.417 123.9Z" stroke="#1D1D1D" stroke-width="0.3"/>
<path d="M213.069 123.668L204.227 124.053C203.952 124.065 203.677 123.976 203.47 123.809L198.452 119.76C198.236 119.585 198.352 119.282 198.639 119.27L207.651 118.896C208.126 118.876 208.598 119.036 208.946 119.333L213.311 123.064C213.569 123.285 213.422 123.653 213.069 123.668Z" stroke="#1D1D1D" stroke-width="0.3"/>
<path d="M225.677 123.481L216.835 123.866C216.559 123.878 216.285 123.789 216.078 123.622L211.06 119.573C210.844 119.398 210.959 119.095 211.247 119.083L220.259 118.709C220.734 118.689 221.206 118.848 221.554 119.146L225.919 122.877C226.177 123.097 226.03 123.466 225.677 123.481Z" stroke="#1D1D1D" stroke-width="0.3"/>
<path d="M238.283 123.3L229.441 123.685C229.165 123.697 228.891 123.609 228.684 123.441L223.666 119.392C223.45 119.217 223.565 118.914 223.853 118.902L232.865 118.528C233.34 118.508 233.812 118.668 234.16 118.965L238.525 122.696C238.783 122.917 238.636 123.285 238.283 123.3Z" stroke="#1D1D1D" stroke-width="0.3"/>
<path d="M250.89 123.119L242.047 123.504C241.772 123.516 241.497 123.428 241.29 123.261L236.273 119.211C236.056 119.037 236.172 118.733 236.459 118.721L245.472 118.347C245.946 118.328 246.418 118.487 246.766 118.784L251.131 122.515C251.389 122.736 251.242 123.104 250.89 123.119Z" stroke="#1D1D1D" stroke-width="0.3"/>
<path d="M264.311 123.076L255.468 123.461C255.193 123.473 254.918 123.385 254.711 123.217L249.694 119.168C249.477 118.993 249.593 118.69 249.88 118.678L258.893 118.304C259.368 118.285 259.84 118.444 260.187 118.741L264.552 122.472C264.81 122.693 264.663 123.061 264.311 123.076Z" stroke="#1D1D1D" stroke-width="0.3"/>
<path d="M277.729 123.045L268.886 123.43C268.611 123.442 268.337 123.354 268.129 123.186L263.112 119.137C262.896 118.963 263.011 118.659 263.298 118.647L272.311 118.273C272.786 118.254 273.258 118.413 273.606 118.71L277.97 122.441C278.229 122.662 278.082 123.03 277.729 123.045Z" stroke="#1D1D1D" stroke-width="0.3"/>
<path d="M209.041 130.699L200.198 131.084C199.923 131.096 199.649 131.007 199.441 130.84L194.424 126.791C194.208 126.616 194.323 126.313 194.61 126.301L203.623 125.927C204.098 125.907 204.57 126.066 204.918 126.364L209.282 130.095C209.541 130.315 209.394 130.684 209.041 130.699Z" stroke="#1D1D1D" stroke-width="0.3"/>
<path d="M221.694 130.467L212.851 130.852C212.576 130.864 212.301 130.775 212.094 130.608L207.076 126.558C206.86 126.384 206.976 126.081 207.263 126.069L216.275 125.695C216.75 125.675 217.222 125.834 217.57 126.132L221.935 129.862C222.193 130.083 222.046 130.452 221.694 130.467Z" stroke="#1D1D1D" stroke-width="0.3"/>
<path d="M234.301 130.28L225.459 130.664C225.183 130.676 224.909 130.588 224.702 130.421L219.684 126.371C219.468 126.197 219.583 125.894 219.871 125.882L228.883 125.508C229.358 125.488 229.83 125.647 230.178 125.944L234.543 129.675C234.801 129.896 234.654 130.264 234.301 130.28Z" stroke="#1D1D1D" stroke-width="0.3"/>
<path d="M246.907 130.099L238.065 130.484C237.789 130.496 237.515 130.407 237.308 130.24L232.29 126.191C232.074 126.016 232.189 125.713 232.477 125.701L241.489 125.327C241.964 125.307 242.436 125.466 242.784 125.764L247.149 129.495C247.407 129.715 247.26 130.084 246.907 130.099Z" stroke="#1D1D1D" stroke-width="0.3"/>
<path d="M259.514 129.918L250.671 130.303C250.396 130.315 250.121 130.226 249.914 130.059L244.897 126.01C244.68 125.835 244.796 125.532 245.083 125.52L254.096 125.146C254.57 125.126 255.042 125.286 255.39 125.583L259.755 129.314C260.013 129.535 259.866 129.903 259.514 129.918Z" stroke="#1D1D1D" stroke-width="0.3"/>
<path d="M272.935 129.875L264.092 130.26C263.817 130.272 263.542 130.183 263.335 130.016L258.318 125.967C258.101 125.792 258.217 125.489 258.504 125.477L267.517 125.103C267.992 125.083 268.464 125.243 268.811 125.54L273.176 129.271C273.434 129.492 273.287 129.86 272.935 129.875Z" stroke="#1D1D1D" stroke-width="0.3"/>
<path d="M286.353 129.844L277.51 130.229C277.235 130.241 276.961 130.152 276.753 129.985L271.736 125.936C271.52 125.761 271.635 125.458 271.922 125.446L280.935 125.072C281.41 125.052 281.882 125.212 282.23 125.509L286.594 129.24C286.853 129.461 286.706 129.829 286.353 129.844Z" stroke="#1D1D1D" stroke-width="0.3"/>
</g>
<defs>
<filter id="filter0_f_5463_6713" x="42.3125" y="228.581" width="389.168" height="45.0832" filterUnits="userSpaceOnUse" color-interpolation-filters="sRGB">
<feFlood flood-opacity="0" result="BackgroundImageFix"/>
<feBlend mode="normal" in="SourceGraphic" in2="BackgroundImageFix" result="shape"/>
<feGaussianBlur stdDeviation="0.5" result="effect1_foregroundBlur_5463_6713"/>
</filter>
<clipPath id="clip0_5463_6713">
<rect width="472" height="280" fill="white"/>
</clipPath>
</defs>
</svg>
