<svg width="80" height="23" viewBox="0 0 80 23" fill="none" xmlns="http://www.w3.org/2000/svg">
<path d="M17.4431 0.853129V21.8303H13.6565V12.2296H3.77914V21.8279H0V0.853129H3.77914V10.1521H13.6565V0.853129H17.4431ZM51.9569 21.7314H48.1976C48.0466 21.2285 47.9289 20.7163 47.8451 20.1981C46.5626 21.4421 44.8479 22.1455 43.0578 22.1617C39.085 22.1617 36.8106 20.25 36.8106 17.3366C36.8106 14.4233 39.0949 12.3038 43.0578 12.3038C44.6861 12.2866 46.2867 12.7235 47.6787 13.5651C47.7314 12.9066 47.7314 12.245 47.6787 11.5866C47.5645 10.7828 46.8196 9.53386 45.7569 9.08622C42.2955 7.61965 39.3706 10.4291 39.3706 10.4291L38.0223 9.29149C41.5357 5.44823 45.9133 6.12092 48.5775 7.37975C51.2418 8.63858 51.5199 10.8966 51.5199 12.1183V18.1824C51.5224 18.6078 51.5497 20.6556 51.952 21.7388L51.9569 21.7314ZM47.6737 18.2146V15.3853C46.6339 14.6738 45.4044 14.2879 44.1429 14.2774C40.4755 14.2774 40.6816 17.344 40.6816 17.344C40.6816 17.344 40.4755 20.2055 44.1429 20.2055C45.6873 20.2055 46.8668 19.2434 47.6737 18.2146ZM35.6684 15.1974H23.7971C23.7971 17.3168 25.6842 19.9211 29.1778 19.9211C32.1723 19.9211 33.5231 17.903 33.5231 17.903L34.8887 18.8922C33.2102 21.306 31.1344 22.1667 27.7675 22.1667C24.4005 22.1667 19.7126 19.8073 19.7126 14.1364C19.7126 11.0153 21.7735 6.67491 27.7675 6.41028C33.1755 6.17533 36.3611 10.9163 35.6684 15.1974ZM31.7403 13.1125C31.7403 13.1125 31.492 8.41353 27.6557 8.41353C24.2118 8.55202 23.7971 13.1125 23.7971 13.1125H31.7403ZM58.9689 7.9189C58.519 8.41056 58.1289 8.95347 57.8069 9.53633V6.76889H53.7745C53.9816 7.44618 54.1034 8.14651 54.137 8.85375V21.7314H57.9285V13.6962C57.9281 13.2307 57.9713 12.7662 58.0577 12.3087C58.4301 10.3624 59.8603 9.153 61.8567 9.0788H63.2745V6.42265C61.6953 6.30888 60.0888 6.73921 58.9689 7.90653V7.9189ZM80 21.8551H76.2482C76.0969 21.3514 75.9791 20.8383 75.8956 20.3192C75.8708 20.1164 75.8509 19.9013 75.841 19.7677C74.7857 21.3505 73.1096 22.1642 70.6266 22.1642C66.9568 22.1642 63.483 19.2311 63.483 14.1834C63.483 9.73171 66.9592 6.37566 70.6266 6.37566C72.988 6.37566 74.6913 7.36491 75.7814 8.89579V0.833344H79.6375V19.7578C79.6699 20.4652 79.7917 21.1657 80 21.8427V21.8551ZM75.7938 16.8049V12.0218C75.0489 10.2659 73.4821 9.19257 71.8384 9.19257C69.5565 9.19257 67.3689 11.1711 67.3689 14.2724C67.3689 17.6087 69.559 19.5996 71.8384 19.5996C73.4821 19.5996 75.0464 18.6054 75.7938 16.8049Z" fill="#226752"/>
</svg>
