<svg width="81" height="25" viewBox="0 0 81 25" fill="none" xmlns="http://www.w3.org/2000/svg">
<path d="M7.59375 15.125C7.25 15.4688 6.71875 15.4688 6.375 15.125L4.375 13.125C4.03125 12.7812 4.03125 12.25 4.375 11.9062C4.71875 11.5625 5.25 11.5625 5.59375 11.9062L7 13.2812L10.375 9.90625C10.7188 9.5625 11.25 9.5625 11.5938 9.90625C11.9375 10.25 11.9375 10.7812 11.5938 11.125L7.59375 15.125ZM16 12.5C16 16.9375 12.4062 20.5 8 20.5C3.5625 20.5 0 16.9375 0 12.5C0 8.09375 3.5625 4.5 8 4.5C12.4062 4.5 16 8.09375 16 12.5ZM8 6C4.40625 6 1.5 8.9375 1.5 12.5C1.5 16.0938 4.40625 19 8 19C11.5625 19 14.5 16.0938 14.5 12.5C14.5 8.9375 11.5625 6 8 6Z" fill="#1D1D1D"/>
<path d="M25.2606 18.5L21.0206 7.14H23.0526L26.1566 16.388H26.2046L29.3406 7.14H31.3566L27.1326 18.5H25.2606ZM33.3521 14.964C33.4961 16.404 34.3601 17.252 35.6241 17.252C36.4721 17.252 37.2241 16.836 37.5601 16.116L39.2081 16.628C38.6801 17.844 37.3521 18.74 35.5761 18.74C33.1761 18.74 31.4001 17.092 31.4001 14.468C31.4001 11.876 33.0961 10.196 35.4641 10.196C38.0561 10.196 39.7201 12.196 39.3841 14.964H33.3521ZM33.4001 13.556H37.5441C37.3201 12.292 36.5521 11.652 35.4961 11.652C34.3761 11.652 33.6401 12.372 33.4001 13.556ZM41.3648 18.5V10.436H43.0768V12.404C43.3968 11.076 44.2128 10.196 46.2128 10.196V12.004C46.0368 11.956 45.8288 11.924 45.5888 11.924C43.7008 11.924 43.2368 13.812 43.2368 14.9V18.5H41.3648ZM47.8648 18.5V10.436H49.7368V18.5H47.8648ZM47.8008 9.14V7.14H49.8008V9.14H47.8008ZM54.7046 11.78V18.5H52.8486V11.78H51.5046V10.436H52.8486V9.476C52.8486 7.748 53.7446 6.9 55.4566 6.9C55.8246 6.9 56.1766 6.948 56.4966 7.012V8.484C56.3366 8.452 56.1126 8.436 55.9526 8.436C55.1686 8.436 54.7046 8.788 54.7046 9.684V10.436H59.6006V18.5H57.7286V11.78H54.7046ZM57.6646 9.14V7.14H59.6646V9.14H57.6646ZM63.5239 14.964C63.6679 16.404 64.5319 17.252 65.7959 17.252C66.6439 17.252 67.3959 16.836 67.7319 16.116L69.3799 16.628C68.8519 17.844 67.5239 18.74 65.7479 18.74C63.3479 18.74 61.5719 17.092 61.5719 14.468C61.5719 11.876 63.2679 10.196 65.6359 10.196C68.2279 10.196 69.8919 12.196 69.5559 14.964H63.5239ZM63.5719 13.556H67.7159C67.4919 12.292 66.7239 11.652 65.6679 11.652C64.5479 11.652 63.8119 12.372 63.5719 13.556ZM79.2944 18.5H77.5824V17.092C77.0064 18.148 76.0304 18.74 74.7824 18.74C72.6864 18.74 71.1344 17.092 71.1344 14.468C71.1344 11.844 72.6864 10.196 74.7824 10.196C75.9184 10.196 76.8304 10.692 77.4224 11.572V7.14H79.2944V18.5ZM73.0864 14.468C73.0864 16.1 73.8864 17.3 75.2624 17.3C76.5264 17.3 77.3104 16.276 77.4224 14.852V14.068C77.3104 12.644 76.5264 11.636 75.2624 11.636C73.8864 11.636 73.0864 12.836 73.0864 14.468Z" fill="#1D1D1D"/>
</svg>
